<svg viewBox="0 0 270 270" fill="none" xmlns="http://www.w3.org/2000/svg">
<mask id="mask0_3129_7884" style="mask-type:alpha" maskUnits="userSpaceOnUse" x="47" y="7" width="182" height="180">
<path d="M93.3565 178.67L152.664 176.154L158.746 181.374L220.711 186.394L224.287 184.403L227.829 177.419L228.943 171.11V164.194L227.391 155.76L223.815 145.638L219.294 136.326L216.898 132.919L214.368 127.656L210.762 121.401L204.145 109.006L200.562 101.249L198.776 98.6987L198.493 95.9883L198.039 90.4813L197.01 82.7201L195.891 75.0042L194.212 66.8042L191.534 57.4393L187.797 47.9231L184.241 40.0106L180.974 34.2615L177.176 28.3158L171.639 22.2188L167.781 18.6332L160.368 13.338L152.712 9.93392L145.919 8.48153L139.005 7.81592L128.309 8.9506L119.368 11.6889L111.244 15.5317L109.004 16.6816L103.876 20.7967L100.335 24.2007L94.0871 31.6139L87.9296 40.7822L82.2259 50.9944L77.5056 60.2533L73.5266 70.4504L70.1529 80.9651L67.7322 90.4964L66.3101 103.175L65.3721 114.869L64.6912 126.277L63.6776 134.416L61.968 139.802L58.9724 145.627L56.7939 149.394L54.2219 153.191L50.5607 158.759L48.4275 163.767L47.486 168.561V172.986L48.1848 175.937L93.3565 178.67Z" fill="#7D505F"/>
</mask>
<g mask="url(#mask0_3129_7884)">
<path d="M93.3565 178.67L152.664 176.154L158.746 181.374L220.711 186.394L224.287 184.403L227.829 177.419L228.943 171.11V164.194L227.391 155.76L223.815 145.638L219.294 136.326L216.898 132.919L214.368 127.656L210.762 121.401L204.145 109.006L200.562 101.249L198.776 98.6987L198.493 95.9883L198.039 90.4813L197.01 82.7201L195.891 75.0042L194.212 66.8042L191.534 57.4393L187.797 47.9231L184.241 40.0106L180.974 34.2615L177.176 28.3158L171.639 22.2188L167.781 18.6332L160.368 13.338L152.712 9.93392L145.919 8.48153L139.005 7.81592L128.309 8.9506L119.368 11.6889L111.244 15.5317L109.004 16.6816L103.876 20.7967L100.335 24.2007L94.0871 31.6139L87.9296 40.7822L82.2259 50.9944L77.5056 60.2533L73.5266 70.4504L70.1529 80.9651L67.7322 90.4964L66.3101 103.175L65.3721 114.869L64.6912 126.277L63.6776 134.416L61.968 139.802L58.9724 145.627L56.7939 149.394L54.2219 153.191L50.5607 158.759L48.4275 163.767L47.486 168.561V172.986L48.1848 175.937L93.3565 178.67Z" fill="url(#paint0_linear_3129_7884)"/>
<path d="M91.9802 27.5701C97.8244 31.2922 112.508 32.0583 124.488 5.34554" stroke="#C4896D" stroke-width="1.84969"/>
<path d="M121.658 2.77364C109.678 29.4864 94.9942 28.7203 89.1499 24.9982L109.045 -4.29777L121.658 2.77364Z" fill="#C4896D"/>
<path d="M85.3867 53.7828C96.1438 37.7886 101.782 24.2361 103.256 19.4591C100.661 8.43061 95.3299 -13.8386 94.7638 -14.6879C94.1976 -15.5371 68.6966 14.682 56.0168 29.8977L-2.19205 111.815C-5.9665 140.064 -13.5154 196.952 -13.5154 198.509C-13.5154 200.066 30.1265 188.306 51.9475 182.232C48.5859 151.446 68.9325 154.454 68.2248 124.907C67.5171 95.3606 71.9402 73.7755 85.3867 53.7828Z" fill="#C4896D"/>
<path opacity="0.7" d="M221.168 119.612C230.989 165.111 249.312 180.328 257.246 182.249C227.268 184.086 166.408 186.859 162.796 183.251C158.853 179.313 132.374 90.9447 125.721 62.9202L119.245 66.2582C119.907 96.1147 120.994 155.828 120.049 155.828H92.1695C99.9045 126.682 86.9439 118.48 81.4286 84.3332L82.5341 82.3411L84.9357 80.0238V78.6313L85.8641 76.8884L86.9439 75.5717L89.0225 73.7205L93.495 70.7064L98.9641 66.2582L104.069 61.3239L107.617 57.8479L111.701 52.0871L112.6 49.7294L114.843 45.3244L116.773 39.0312L119.245 33.7119L121.193 30.4529L123.965 27.5498C125.101 27.1378 127.404 26.3137 127.523 26.3137C127.643 26.3137 130.008 26.913 131.176 27.2127L132.182 28.028C132.25 27.9001 132.317 27.7757 132.384 27.6548C173.158 50.7277 206.417 17.6605 221.168 119.612Z" fill="url(#paint1_linear_3129_7884)"/>
<path opacity="0.7" d="M132.765 23.9355C173.54 47.0084 206.798 13.9412 221.549 115.893" stroke="url(#paint2_linear_3129_7884)" stroke-width="1.84969"/>
<path d="M169.756 58.4725C167.875 48.6075 158.474 42.3265 154.009 40.4191L156.05 46.5404L162.526 67.3439L168.07 92.7606C169.593 97.8468 170.528 137.746 174.325 142.785C176.876 138.276 193.044 131.945 177.829 102.785L175.922 97.285L174.325 91.9621L172.994 84.5101L172.018 75.2838C172.048 73.7905 171.637 68.3375 169.756 58.4725Z" fill="#C4896D"/>
<path opacity="0.6" d="M88.6521 155.828C95.0048 131.891 87.3979 122.081 81.4209 100.422" stroke="#6B354E" stroke-width="1.84969"/>
<path d="M178.589 117.64L177.006 113.236L176.546 112.184L160.448 111.562L154.616 158.687C157.338 160.294 164.803 163.026 172.891 161.097C180.978 159.169 183.739 147.165 184.109 141.404L184.251 138.32L183.785 133.307L182.06 126.143L178.589 117.64Z" fill="#482234"/>
<path d="M198.545 117.64L199.051 98.4373L211.889 74.1495C206.228 95.0792 197.705 139.698 208.909 150.739C220.113 161.779 222.396 178.553 222.138 185.56L208.909 184.296C209.948 177.022 210.679 160.569 205.286 152.952C199.894 145.335 198.545 126.237 198.545 117.64Z" fill="#482234"/>
<path d="M218.062 149.25C219.559 142.21 217.438 134.759 216.19 131.913C217 129.669 217.355 125.122 219.85 132.241C222.346 139.36 220.328 147.16 218.062 149.25Z" fill="#482234"/>
<path opacity="0.7" d="M128.742 49.1372L132.618 28.6107L132.761 28.3753L131.17 27.3012L127.51 26.426L124.228 27.3012L121.224 30.3445L118.141 35.3968L115.913 42.1001L113.427 48.8432L108.395 56.9985L102.905 62.8265L95.8356 68.9459C93.5228 70.6348 88.8493 74.04 88.6579 74.1493C88.4665 74.2587 86.9147 75.5621 86.1628 76.2001L85.1374 78.4218L84.7956 80.0624L88.8971 77.1229L110.01 68.9459L128.742 49.1372Z" fill="#482234"/>
</g>
<mask id="mask1_3129_7884" style="mask-type:alpha" maskUnits="userSpaceOnUse" x="41" y="145" width="193" height="66">
<path d="M75.6707 159.399L71.2838 162.699L60.4433 168.561L57.1076 171.166L52.0564 173.453L46.624 176.947L41.6999 180.601L104.075 210.938L120.211 208.825L123.558 186.319L113.102 165.838L104.003 145.714L93.5216 149.699L88.9907 152.374L75.6707 159.399Z" fill="url(#paint3_linear_3129_7884)"/>
<path d="M185.031 162.039L182.78 160.253C174.666 156.875 170.124 154.934 166.436 150.315C164.585 163.59 156.812 208.745 156.474 210C156.136 211.256 202.174 201.061 220.378 197.38L233.985 190.922L229.676 187.894L225.289 185.215L221.757 183.274L218.301 181.76L215.856 179.314L204.636 172.753L198.735 168.988L191.359 165.028L185.031 162.039Z" fill="url(#paint4_linear_3129_7884)"/>
</mask>
<g mask="url(#mask1_3129_7884)">
<path d="M75.6707 159.399L71.2838 162.699L60.4433 168.561L57.1076 171.166L52.0564 173.453L46.624 176.947L41.6999 180.601L104.075 210.938L120.211 208.825L123.558 186.319L113.102 165.838L104.003 145.714L93.5216 149.699L88.9907 152.374L75.6707 159.399Z" fill="url(#paint5_linear_3129_7884)"/>
<path d="M185.031 162.039L182.78 160.253C174.666 156.875 170.124 154.934 166.436 150.315C164.585 163.59 156.812 208.745 156.474 210C156.136 211.256 202.174 201.061 220.378 197.38L233.985 190.922L229.676 187.894L225.289 185.215L221.757 183.274L218.301 181.76L215.856 179.314L204.636 172.753L198.735 168.988L191.359 165.028L185.031 162.039Z" fill="url(#paint6_linear_3129_7884)"/>
<path d="M200.962 202.643C200.962 202.643 197.151 176.183 186.889 161.692L183.981 161.692C194.7 176.493 193.533 206.858 193.533 206.858L200.962 202.643Z" fill="url(#paint7_linear_3129_7884)"/>
<path opacity="0.5" d="M68.1225 187.975C68.1225 187.975 80.9015 157.252 86.0959 152.923L89.8263 152.454C84.1537 158.634 75.4662 194.579 75.4662 194.579L68.1225 187.975Z" fill="url(#paint8_linear_3129_7884)"/>
<path opacity="0.5" d="M53.4259 187.35C53.4259 187.35 59.2585 170.584 70.4264 161.277L73.0466 161.277C57.609 178.278 57.1932 191.917 57.1932 191.917L53.4259 187.35Z" fill="url(#paint9_linear_3129_7884)"/>
<path opacity="0.5" d="M41.5608 185.635C41.5608 185.635 46.5737 173.326 63.3935 157.341L65.3985 159.569C49.9609 176.57 49.0776 190.223 49.0776 190.223L41.5608 185.635Z" fill="url(#paint10_linear_3129_7884)"/>
<path d="M108.722 165.601C108.722 165.601 94.6087 145.602 95.9683 129.192L99.7596 124.951C99.9513 133.337 118.593 165.275 118.593 165.275L108.722 165.601Z" fill="url(#paint11_linear_3129_7884)"/>
<path d="M220.699 197.984C220.699 197.984 211.531 176.364 205.108 172.055L201.132 169.773C213.006 181.399 216.523 197.984 216.523 197.984L220.699 197.984Z" fill="url(#paint12_linear_3129_7884)"/>
<path d="M223.591 184.455C223.591 184.455 216.57 177.174 214.295 175.648L213.353 175.648C216.725 179.241 220.093 184.636 220.093 184.636L223.591 184.455Z" fill="url(#paint13_linear_3129_7884)"/>
</g>
<mask id="mask2_3129_7884" style="mask-type:alpha" maskUnits="userSpaceOnUse" x="30" y="180" width="209" height="82">
<path d="M53.9236 184.679L46.7757 182.353L41.7085 180.395L38.2814 183.161C36.1272 185.217 33.8751 189.77 33.8751 189.77C31.9902 192.414 31.3293 198.509 31.3293 198.509L30.9831 206.331L33.0918 211.19C33.0918 211.19 36.4331 214.383 42.5164 218.023L68.4739 233.373C68.4739 233.373 77.1227 238.906 89.7704 244.672L105.673 251.972C105.673 251.972 112.834 255.32 115.67 256.111L123.808 259.18L130.977 260.846L141.562 261.688L149.844 260.935C149.844 260.935 156.288 259.274 157.572 259.163L165.655 256.196L176.705 251.169L187.932 245.81L200.377 239.543L213.102 232.504L221.619 226.765L230.36 220.646L236.627 215.772C236.627 215.772 239.235 208.918 238.911 203.479C238.911 203.479 239.073 198.364 237.044 194.549C237.044 194.549 235.934 192.148 233.201 190.462L225.35 191.303C225.35 191.303 221.093 191.762 218.084 192.556L211.338 194.176L207.139 195.466L200.823 197.682L195.565 199.6L190.241 201.187L184.228 203.095C172.327 206.199 163.935 207.386 163.935 207.386L159.896 207.108L146.544 201.946L140.685 203.294L137.337 205.015L134.455 207.386H130.595L126.736 205.294L119.895 202.181L112.845 203.895C104.473 202.548 93.3841 198.551 93.3841 198.551L84.5471 194.813L74.7309 189.697C68.807 186.808 64.0825 186.368 64.0825 186.368L53.9236 184.679Z" fill="url(#paint14_linear_3129_7884)"/>
</mask>
<g mask="url(#mask2_3129_7884)">
<path d="M53.9236 184.679L46.7757 182.353L41.7085 180.395L38.2814 183.161C36.1272 185.217 33.8751 189.77 33.8751 189.77C31.9902 192.414 31.3293 198.509 31.3293 198.509L30.9831 206.331L33.0918 211.19C33.0918 211.19 36.4331 214.383 42.5164 218.023L68.4739 233.373C68.4739 233.373 77.1227 238.906 89.7704 244.672L105.673 251.972C105.673 251.972 112.834 255.32 115.67 256.111L123.808 259.18L130.977 260.846L141.562 261.688L149.844 260.935C149.844 260.935 156.288 259.274 157.572 259.163L165.655 256.196L176.705 251.169L187.932 245.81L200.377 239.543L213.102 232.504L221.619 226.765L230.36 220.646L236.627 215.772C236.627 215.772 239.235 208.918 238.911 203.479C238.911 203.479 239.073 198.364 237.044 194.549C237.044 194.549 235.934 192.148 233.201 190.462L225.35 191.303C225.35 191.303 221.093 191.762 218.084 192.556L211.338 194.176L207.139 195.466L200.823 197.682L195.565 199.6L190.241 201.187L184.228 203.095C172.327 206.199 163.935 207.386 163.935 207.386L159.896 207.108L146.544 201.946L140.685 203.294L137.337 205.015L134.455 207.386H130.595L126.736 205.294L119.895 202.181L112.845 203.895C104.473 202.548 93.3841 198.551 93.3841 198.551L84.5471 194.813L74.7309 189.697C68.807 186.808 64.0825 186.368 64.0825 186.368L53.9236 184.679Z" fill="url(#paint15_linear_3129_7884)"/>
<path fill-rule="evenodd" clip-rule="evenodd" d="M202.13 222.11C188.266 240.781 167.391 258.744 145.41 270.491C114.68 291.3 185.321 276.162 236.455 265.204C251.147 262.055 264.23 259.251 272.834 257.745C304.892 213.746 365.036 124.581 349.15 119.908C333.264 115.236 226.722 140.715 197.519 152.007C224.885 163.41 223.521 188.466 207.846 213.727C214.403 210.497 221.412 206.829 228.162 202.946C235.322 198.829 242.149 194.494 247.823 190.21C253.538 185.894 257.909 181.756 260.332 178.066L264.584 180.858C261.677 185.285 256.748 189.844 250.888 194.269C244.987 198.725 237.965 203.177 230.698 207.356C221.012 212.927 210.818 218.055 202.13 222.11Z" fill="#0D1029"/>
<path d="M40.5802 235.275C33.7086 222.249 39.518 188.045 65.0708 177.662C56.5744 168.809 38.8259 159.118 36.9428 158.638C34.5891 158.038 5.10968 216.609 4.12491 219.793C3.33709 222.34 28.1002 231.175 40.5802 235.275Z" fill="url(#paint16_linear_3129_7884)"/>
</g>
<mask id="mask3_3129_7884" style="mask-type:alpha" maskUnits="userSpaceOnUse" x="86" y="28" width="92" height="183">
<path d="M96.2675 72.3934L92.5351 74.5411L89.7574 76.2999L87.4147 80.5456L86.4111 84.0225L86.7336 89.2917L88.2391 95.457L90.569 101.927L93.3649 105.404L95.6411 106.694L96.1967 109.239L98.2588 116.815L100.818 123.778L103.551 129.216L104.261 133.821L105.455 143.314L106.424 150.258L105.557 152.208L104.231 156.414L103.862 160.62L104.594 167.925L106.194 175.426L108.951 186.062L112.134 196.863L114.304 203.962L119.355 204.519L125.036 205.254L128.838 206.705L132.762 209.301L136.951 210.302L143.716 209.935L148.274 208.095L152.32 207.053H156.469L161.333 207.298L164.562 196.957L166.545 189.007L168.589 179.646L169.631 172.268L169.876 165.728L169.202 160.435L168.057 156.572C167.56 155.741 166.565 154.099 166.565 154.181C166.565 154.263 165.962 153.429 165.962 152.557L166.846 146.991L169.12 136.365L169.897 130.718L170.352 129.755L172.814 125.553L175.196 120.334L176.63 116.003L177.176 113.696L174.523 105.902L171.437 94.8086L169.018 83.0901L167.767 74.1866L166.662 67.9103L164.201 57.839L161.929 51.25L158.175 44.7652L154.568 40.8659L150.252 38.051L145.185 36.1535L139.764 33.3803L135.718 30.2734L132.883 28.1049L130.714 28.2717L128.546 29.1684L126.815 30.8782L124.521 34.3395L122.04 40.3447L119.83 46.7044L116.347 52.9181L112.532 58.548L107.298 64.3656L101.793 68.7027L96.2675 72.3934Z" fill="url(#paint17_linear_3129_7884)"/>
</mask>
<g mask="url(#mask3_3129_7884)">
<path d="M96.2675 72.3934L92.5351 74.5411L89.7574 76.2999L87.4147 80.5456L86.4111 84.0225L86.7336 89.2917L88.2391 95.457L90.569 101.927L93.3649 105.404L95.6411 106.694L96.1967 109.239L98.2588 116.815L100.818 123.778L103.551 129.216L104.261 133.821L105.455 143.314L106.424 150.258L105.557 152.208L104.231 156.414L103.862 160.62L104.594 167.925L106.194 175.426L108.951 186.062L112.134 196.863L114.304 203.962L119.355 204.519L125.036 205.254L128.838 206.705L132.762 209.301L136.951 210.302L143.716 209.935L148.274 208.095L152.32 207.053H156.469L161.333 207.298L164.562 196.957L166.545 189.007L168.589 179.646L169.631 172.268L169.876 165.728L169.202 160.435L168.057 156.572C167.56 155.741 166.565 154.099 166.565 154.181C166.565 154.263 165.962 153.429 165.962 152.557L166.846 146.991L169.12 136.365L169.897 130.718L170.352 129.755L172.814 125.553L175.196 120.334L176.63 116.003L177.176 113.696L174.523 105.902L171.437 94.8086L169.018 83.0901L167.767 74.1866L166.662 67.9103L164.201 57.839L161.929 51.25L158.175 44.7652L154.568 40.8659L150.252 38.051L145.185 36.1535L139.764 33.3803L135.718 30.2734L132.883 28.1049L130.714 28.2717L128.546 29.1684L126.815 30.8782L124.521 34.3395L122.04 40.3447L119.83 46.7044L116.347 52.9181L112.532 58.548L107.298 64.3656L101.793 68.7027L96.2675 72.3934Z" fill="url(#paint18_linear_3129_7884)"/>
<path d="M82.3983 126.465L95.6011 106.86C93.8433 101.4 92.8877 81.4274 95.3712 72.5974C97.928 58.3431 97.7368 64.6803 98.0032 69.9005C94.8658 98.4861 95.6437 120.411 117.787 146.375C114.4 144.042 109.712 138.86 105.724 132.94C107.695 142.339 110.189 158.318 106.545 162.345L107.241 157.052L106.377 149.167L103.604 139.148L103.046 131.257V128.657L82.3983 126.465Z" fill="#FFECE3"/>
<path d="M113.339 45.3439C111.095 47.6379 110.579 51.2714 111.861 54.2131C117.867 67.9887 150.512 44.9157 122.694 42.0168C118.786 41.6096 115.471 43.1654 113.339 45.3439Z" fill="url(#paint19_linear_3129_7884)"/>
<ellipse opacity="0.4" rx="9.43384" ry="7.48734" transform="matrix(-1 0 0 1 109.844 105.707)" fill="url(#paint20_linear_3129_7884)"/>
<path fill-rule="evenodd" clip-rule="evenodd" d="M128.827 25.3603C130.301 27.6017 137.17 35.4508 144.647 38.464C153.993 42.2305 162.036 59.3477 157.621 73.1885C148.15 73.9696 140.702 92.6907 145.474 103.907C147.304 110.355 132.483 109.777 124.489 107.112L124.889 109.237L125.721 110.808C127.907 114.257 139.417 121.172 148.132 112.21C157.129 118.037 163.922 135.367 151.082 149.124L165.432 155.889L211.394 130.932C209.481 101.34 204.751 41.1303 201.143 37.0297C197.534 32.9292 161.231 25.2065 143.53 21.8577L128.827 25.3603ZM170.95 107.02C169.276 112.706 158.594 118.702 155.193 109.515C154.056 106.444 155.043 103.963 156.948 102.036C162.005 96.9214 172.983 100.12 170.95 107.02Z" fill="url(#paint21_linear_3129_7884)"/>
<path d="M124.204 73.843C124.204 73.843 133.895 83.9665 124.204 92.4093C117.28 96.9555 115.035 92.8167 118.389 92.274C120.255 91.9722 124.334 89.4257 124.966 85.3909L121.983 83.6122L117.117 82.5114L113.016 83.3888L108.725 85.4469L107.986 85.7089L106.911 85.0554C106.911 85.0554 107.775 83.1391 110.201 82.0979C112.741 81.0896 114.888 80.4373 115.713 80.3735L120.436 80.5804L124.755 82.2623C124.148 80.1182 122.543 77.7019 119.405 75.0854C111.184 68.4639 120.267 71.6265 124.204 73.843Z" fill="url(#paint22_linear_3129_7884)"/>
<g opacity="0.6">
<path d="M124.655 107.132C132.65 109.797 144.953 110.324 148.051 104.411C148.051 104.411 149.536 104.609 150.753 106.527C151.518 108.133 151.786 111.371 148.345 112.161C147.516 112.594 145.872 115.22 140.366 116.469C134.213 117.689 127.765 113.982 126.026 111.104L124.858 109.624L124.655 107.132Z" fill="#E87C72"/>
<path d="M155.538 82.3019C152.777 83.5497 151.103 86.6351 150.791 87.5449L152.379 86.5963L157.102 84.3453L161.812 83.9445L165.14 84.6933L169.832 86.7239L169.195 84.2017L166.757 82.7142L163.854 81.8539L161.416 81.5313C160.584 81.5184 158.298 81.0541 155.538 82.3019Z" fill="#E87C72"/>
</g>
<path d="M143.213 111.324C145.66 112.5 147.21 111.418 147.174 110.744L146.26 110.824L144.401 110.744L143.213 111.324Z" fill="#1B2C44"/>
<path d="M133.049 111.236C130.397 111.974 129.207 110.57 129.243 109.896L130.072 109.97L131.75 110.03L133.049 111.236Z" fill="#1B2C44"/>
<path d="M85.3903 84.2437L94.1091 78.6364L95.7748 71.391L86.9461 69.561L85.3903 84.2437Z" fill="url(#paint23_linear_3129_7884)"/>
<path fill-rule="evenodd" clip-rule="evenodd" d="M124.977 158.719C131.831 164.201 141.164 168.737 153.285 169.634C179.102 171.547 171.888 200.158 165.053 214.225L188.866 173.404L174.063 135.617L170.116 130.493L167.675 133.995L161.245 141.411L154.993 146.945L148.412 150.535L141.681 152.898H137.783L124.977 158.719ZM121.543 155.709L129.766 151.971L124.93 150.714L117.391 145.868L110.802 140.39C112.363 144.374 115.855 150.253 121.543 155.709ZM163.542 202.596C159.569 202.742 150.31 203.908 145.062 207.407C141.031 210.094 137.2 207.83 133.097 205.404C130.521 203.881 127.837 202.295 124.93 201.831C118.899 200.868 107.991 200.336 103.291 200.191C104.676 207.262 109.808 222.126 119.256 225.012C131.065 228.621 156.762 214.81 157.418 214.225C157.943 213.757 161.719 206.278 163.542 202.596Z" fill="url(#paint24_linear_3129_7884)"/>
<path d="M105.339 154.598L104.567 150.805C103.279 150.653 100.655 150.44 100.458 150.805C100.212 151.262 98.9478 163.097 101.476 163.94C103.499 164.614 104.379 163.027 104.567 162.149L105.094 160.112L105.339 154.598Z" fill="#E77C71"/>
<path d="M92.6439 91.4895C92.5557 91.1694 92.5249 90.8349 92.5528 90.4996C92.5942 89.9676 92.6319 89.4432 92.6623 88.9269C92.6744 88.7202 92.5112 88.546 92.3043 88.543C92.103 88.5402 91.9379 88.7008 91.9262 88.9017C91.8962 89.4168 91.8298 89.8747 91.8007 90.4594C91.7785 90.8748 91.8286 91.2868 91.9505 91.6783C92.0718 92.0685 92.2607 92.4395 92.5148 92.7734L93.0512 93.4772C93.2487 93.7362 93.4014 94.0201 93.5058 94.3184C93.5612 94.4769 93.7213 94.5803 93.8858 94.5463C94.0536 94.5116 94.163 94.3471 94.114 94.183C94.0017 93.8066 93.8252 93.4467 93.59 93.1172L93.0767 92.3979C92.8773 92.1192 92.7333 91.8114 92.6439 91.4895Z" fill="#C24353"/>
<mask id="mask4_3129_7884" style="mask-type:alpha" maskUnits="userSpaceOnUse" x="105" y="71" width="22" height="6">
<path d="M124.657 76.9324C125.728 76.8132 126.238 76.1101 126.447 75.3318C126.731 74.2752 125.864 73.3449 124.818 73.0244C114.44 69.8444 109.084 72.1892 105.499 76.2248C115.412 71.7633 120.016 77.0802 124.657 76.9324Z" fill="#192940"/>
</mask>
<g mask="url(#mask4_3129_7884)">
<path d="M124.657 76.9324C125.728 76.8132 126.238 76.1101 126.447 75.3318C126.731 74.2752 125.864 73.3449 124.818 73.0244C114.44 69.8444 109.084 72.1892 105.499 76.2248C115.412 71.7633 120.016 77.0802 124.657 76.9324Z" fill="#192940"/>
<rect x="109.787" y="57.5823" width="5.24387" height="28.7877" transform="rotate(20.676 109.787 57.5823)" fill="url(#paint25_linear_3129_7884)"/>
<rect x="117.372" y="56.8156" width="3.60541" height="28.7877" transform="rotate(20.676 117.372 56.8156)" fill="url(#paint26_linear_3129_7884)"/>
</g>
<mask id="mask5_3129_7884" style="mask-type:alpha" maskUnits="userSpaceOnUse" x="148" y="72" width="22" height="6">
<path d="M150.365 77.5697C149.292 77.4624 148.775 76.7649 148.557 75.989C148.261 74.9356 149.118 73.9957 150.161 73.6637C160.503 70.3696 165.885 72.6552 169.513 76.6511C159.552 72.2991 155.007 77.6664 150.365 77.5697Z" fill="#192940"/>
</mask>
<g mask="url(#mask5_3129_7884)">
<path d="M150.365 77.5697C149.292 77.4624 148.775 76.7649 148.557 75.989C148.261 74.9356 149.118 73.9957 150.161 73.6637C160.503 70.3696 165.885 72.6552 169.513 76.6511C159.552 72.2991 155.007 77.6664 150.365 77.5697Z" fill="#192940"/>
<rect opacity="0.6" x="152.008" y="60.6781" width="4.15942" height="28.7877" transform="rotate(20.676 152.008 60.6781)" fill="url(#paint27_linear_3129_7884)"/>
<rect opacity="0.6" x="157.653" y="61.4509" width="3.05643" height="28.7877" transform="rotate(20.676 157.653 61.4509)" fill="url(#paint28_linear_3129_7884)"/>
</g>
<path fill-rule="evenodd" clip-rule="evenodd" d="M127.748 75.71C127.748 75.71 127.755 76.0317 127.617 76.4608C127.55 76.6675 127.441 76.8925 127.289 77.1311C127.19 77.2859 127.075 77.4469 126.929 77.6073C126.743 77.8117 126.523 78.0215 126.226 78.2105C126.194 78.2265 126.182 78.2654 126.198 78.2973C126.214 78.3292 126.253 78.3419 126.284 78.3258C126.636 78.1885 126.921 78.026 127.148 77.8354C127.337 77.6767 127.485 77.5019 127.595 77.3239C127.727 77.1111 127.805 76.8931 127.853 76.6932C127.989 76.1213 127.875 75.6905 127.875 75.6905C127.87 75.6553 127.837 75.631 127.802 75.6364C127.766 75.6417 127.742 75.6747 127.748 75.71Z" fill="#192940"/>
<path fill-rule="evenodd" clip-rule="evenodd" d="M147.366 76.634C147.366 76.634 147.339 77.0733 147.582 77.6C147.668 77.7843 147.785 77.98 147.954 78.1603C148.095 78.3112 148.273 78.4513 148.487 78.5684C148.743 78.7085 149.051 78.8101 149.418 78.8744C149.451 78.8838 149.486 78.8641 149.496 78.8301C149.505 78.7962 149.485 78.7608 149.451 78.7516C149.127 78.6266 148.873 78.4666 148.654 78.3048C148.481 78.1782 148.339 78.0445 148.213 77.914C148.019 77.713 147.87 77.5162 147.766 77.3291C147.548 76.9411 147.493 76.6279 147.493 76.6279C147.492 76.5928 147.462 76.5655 147.427 76.5672C147.391 76.5689 147.364 76.5987 147.366 76.634Z" fill="#192940"/>
</g>
<path d="M112.417 87.9383C110.393 86.7267 109.617 85.1504 109.617 85.1504L111.376 83.7692L115.408 82.6016L120.581 83.119C120.581 83.119 123.337 83.7285 125.03 85.2336C125.03 85.2336 124.862 86.8326 123.595 88.7912L118.051 89.6323L116.087 89.397C116.087 89.397 113.464 88.6677 112.417 87.9383Z" fill="url(#paint29_linear_3129_7884)"/>
<path d="M154.882 90.2064C152.309 88.9159 151.426 87.0904 151.426 87.0904L154.239 85.5071L156.349 84.6663L159.76 83.8434L164.294 84.3523L168.2 86.3275C168.2 86.3275 167.182 88.6318 163.905 89.9187L162.249 90.6153L160.443 90.8069C160.443 90.8069 158.099 91.0856 154.882 90.2064Z" fill="url(#paint30_linear_3129_7884)"/>
<ellipse opacity="0.5" rx="4.81034" ry="3.0851" transform="matrix(-1 0 0 1 137.087 104.216)" fill="url(#paint31_linear_3129_7884)"/>
<path opacity="0.5" d="M131.089 81.6175C130.102 81.6459 131.33 86.1833 131.482 91.4384C131.633 96.6935 130.65 100.676 131.638 100.648C132.625 100.619 133.851 96.4204 133.7 91.1653C133.548 85.9102 132.077 81.589 131.089 81.6175Z" fill="url(#paint32_linear_3129_7884)"/>
<path opacity="0.8" d="M102.968 82.1554C103.625 83.7275 105.346 81.5709 107.797 80.5467C110.249 79.5226 113.185 79.7258 112.528 78.1537C111.872 76.5815 109.071 75.9775 106.62 77.0016C104.168 78.0257 102.312 80.5832 102.968 82.1554Z" fill="url(#paint33_linear_3129_7884)"/>
<path d="M140.072 249.551L135.867 249.521L135.835 253.936L140.041 253.966L140.072 249.551Z" fill="white"/>
<path d="M140.303 217.565L136.097 217.535L136.062 222.381L140.268 222.411L140.303 217.565Z" fill="white"/>
<path fill-rule="evenodd" clip-rule="evenodd" d="M137.935 246.891C136.45 246.881 135.03 246.281 133.988 245.225C132.945 244.169 132.365 242.742 132.376 241.259L128.643 241.232C128.625 243.704 129.592 246.081 131.329 247.842C133.067 249.602 135.433 250.601 137.908 250.619C140.384 250.637 142.764 249.672 144.527 247.937C146.29 246.202 147.29 243.839 147.308 241.368L143.575 241.341C143.564 242.824 142.964 244.241 141.906 245.282C140.849 246.323 139.42 246.902 137.935 246.891Z" fill="white"/>
<path fill-rule="evenodd" clip-rule="evenodd" d="M138.12 235.431C135.201 235.41 132.851 233.03 132.872 230.115C132.893 227.2 135.277 224.854 138.196 224.875C141.115 224.896 143.464 227.276 143.443 230.191C143.422 233.106 141.039 235.452 138.12 235.431ZM138.091 239.452C132.948 239.415 128.808 235.221 128.845 230.086C128.882 224.95 133.082 220.817 138.225 220.854C143.368 220.891 147.507 225.085 147.47 230.221C147.433 235.356 143.234 239.489 138.091 239.452Z" fill="white"/>
<path d="M128.953 131.422L128.86 131.066L133.288 133.843L137.457 134.707L140.748 134.093L145.672 131.656C145.47 135.115 142.606 137.816 139.141 137.816H137.236C133.342 137.816 129.939 135.189 128.953 131.422Z" fill="#E67B70"/>
<mask id="mask6_3129_7884" style="mask-type:alpha" maskUnits="userSpaceOnUse" x="117" y="121" width="40" height="6">
<path d="M133.978 121.184C133.978 121.184 132.691 121.106 131.022 121.106C128.398 121.363 126.097 122.326 124.026 123.26C122.816 123.805 121.396 123.601 120.095 123.336C119.074 123.128 118.07 123.173 117.759 123.564C117.875 124.245 119.963 124.347 119.963 124.347L121.224 124.785C122.461 125.07 125.375 125.18 125.375 125.18L127.383 125.266C127.383 125.266 130.115 125.506 132.783 125.543C132.783 125.543 133.726 125.756 135.91 126.22C137.398 126.537 139.141 126.036 139.141 126.036L142.407 125.829L145.659 125.924L148.509 126.141L152.473 126.248L153.701 125.924C153.701 125.924 155.622 125.96 156.331 125.499C155.631 124.904 154.099 124.427 152.824 124.486C151.891 124.529 150.84 124.614 150.052 124.114C147.743 122.652 147.044 122.013 143.482 121.465C141.454 121.047 138.736 122.133 138.526 122.193C138.317 122.253 137.417 121.963 136.99 121.972L133.978 121.184Z" fill="#FF7C7C"/>
</mask>
<g mask="url(#mask6_3129_7884)">
<path d="M133.978 121.184C133.978 121.184 132.691 121.106 131.022 121.106C128.398 121.363 126.097 122.326 124.026 123.26C122.816 123.805 121.396 123.601 120.095 123.336C119.074 123.128 118.07 123.173 117.759 123.564C117.875 124.245 119.963 124.347 119.963 124.347L121.224 124.785C122.461 125.07 125.375 125.18 125.375 125.18L127.383 125.266C127.383 125.266 130.115 125.506 132.783 125.543C132.783 125.543 133.726 125.756 135.91 126.22C137.398 126.537 139.141 126.036 139.141 126.036L142.407 125.829L145.659 125.924L148.509 126.141L152.473 126.248L153.701 125.924C153.701 125.924 155.622 125.96 156.331 125.499C155.631 124.904 154.099 124.427 152.824 124.486C151.891 124.529 150.84 124.614 150.052 124.114C147.743 122.652 147.044 122.013 143.482 121.465C141.454 121.047 138.736 122.133 138.526 122.193C138.317 122.253 137.417 121.963 136.99 121.972L133.978 121.184Z" fill="#FF7C7C"/>
<path opacity="0.5" d="M128.788 125.33C116.603 128.248 111.649 126.543 118.699 122.758C119.875 122.476 121.508 124.321 123.714 124.494C127.442 124.014 129.946 124.01 131.987 124.261C135.454 124.686 138.969 124.814 142.457 124.635C148.632 124.319 154.169 125.87 154.169 124.083C155.6 124.269 155.779 124.382 157.451 124.823C154.011 127.127 147.644 125.93 146.422 126.029C145.2 126.128 145.842 125.654 143.769 125.779C140.495 125.766 139.049 126.996 136.568 126.218C133.483 126.297 132.228 125.33 128.788 125.33Z" fill="#DA5454"/>
</g>
<path d="M136.892 134.297C133.948 133.762 131.757 133.328 131.757 133.328C131.757 133.328 127.713 130.783 124.23 125.203H127.323H129.612L133.015 125.636C135.02 126.155 136.975 126.358 136.975 126.358L141.712 125.91C142.345 125.926 143.982 125.661 144.418 125.91C144.854 126.159 146.164 126.095 146.654 126.131L149.359 126.358C147.169 131.093 143.409 133.576 143.409 133.576L139.759 134.297H136.892Z" fill="#FF7C7C"/>
<ellipse cx="130.547" cy="127.487" rx="2.01949" ry="1.16222" transform="rotate(-180 130.547 127.487)" fill="url(#paint34_linear_3129_7884)"/>
<path d="M104.119 131.464C96.4203 118.191 94.8786 104.556 94.8133 103.952C92.3622 92.2773 92.8655 82.1413 95.019 73.4929C95.0531 73.356 95.1621 73.2512 95.3 73.2212C95.5705 73.1625 95.8085 73.4087 95.7422 73.6775C93.6292 82.2352 93.1516 92.2619 95.6003 103.806C95.6031 103.82 95.6054 103.834 95.6068 103.847C95.6068 103.847 97.0505 117.63 104.835 131.047C109.247 138.651 115.696 146.142 125.098 150.923C125.561 151.08 131.901 153.186 138.656 153.103C141.697 153.065 144.824 152.584 147.529 151.267C152.601 148.797 159.431 143.576 165.408 136.232C170.038 130.544 174.461 122.594 176.85 114.643C176.9 114.474 177.078 114.379 177.246 114.429C177.415 114.48 177.51 114.658 177.46 114.826C175.067 122.873 170.622 130.914 165.955 136.679C159.917 144.138 152.999 149.439 147.863 151.955C145.061 153.327 141.821 153.842 138.667 153.888C131.51 153.991 124.807 151.681 124.807 151.681C124.79 151.675 124.773 151.668 124.756 151.659C115.184 146.808 108.606 139.2 104.119 131.464Z" fill="#C24353"/>
<path fill-rule="evenodd" clip-rule="evenodd" d="M90.151 76.0556C88.1319 78.0383 86.1692 80.7071 86.0891 85.7011C86.0545 87.8484 86.3641 90.4336 87.1952 93.5798C87.7774 95.784 88.6245 98.2625 89.7646 101.068C90.1721 102.069 90.6937 103.017 91.3195 103.889C92.1799 105.089 93.9595 106.292 95.2899 107.251C95.3916 107.35 95.5547 107.348 95.6537 107.246C95.753 107.145 95.7508 106.981 95.6492 106.882C94.4312 106.031 92.6319 104.726 91.8166 103.539C91.2363 102.695 90.7544 101.783 90.383 100.821L90.3828 100.82C89.2911 98.0323 88.5006 95.5675 87.9362 93.3854C87.1421 90.3152 86.8132 87.8036 86.8354 85.711C86.8856 80.9711 88.7132 78.4225 90.6134 76.5245C90.7426 76.3965 90.7439 76.1878 90.6162 76.0583C90.4885 75.9289 90.28 75.9276 90.151 76.0556Z" fill="#C24353"/>
<path fill-rule="evenodd" clip-rule="evenodd" d="M132.741 28.7435C135.548 30.6951 137.025 32.3695 139.951 34.1703C141.847 35.3375 144.348 36.5586 148.201 37.9384C150.229 38.6641 152.116 39.702 153.799 41.0039C155.483 42.3056 156.963 43.8712 158.177 45.6523C160.609 49.2293 162.421 53.4031 163.838 58.0348C165.689 64.0896 166.861 70.9244 167.838 78.2359C167.838 78.2379 167.839 78.24 167.839 78.242C170.279 94.4781 173.786 105.646 176.922 114.19C179.109 120.149 181.115 124.827 182.427 129.068C183.807 133.525 184.422 137.493 183.671 141.969C183.643 142.133 183.753 142.289 183.917 142.317C184.081 142.345 184.236 142.234 184.264 142.07C185.061 137.498 184.468 133.434 183.082 128.866C181.789 124.608 179.811 119.907 177.634 113.928C174.534 105.413 171.03 94.2969 168.61 78.1291C167.626 70.7736 166.444 63.8978 164.581 57.8067C163.14 53.0958 161.291 48.853 158.817 45.2155C158.817 45.2155 158.817 45.2153 158.817 45.2151C157.556 43.3668 156.019 41.7419 154.271 40.3912C152.523 39.0407 150.565 37.9639 148.46 37.2115C144.675 35.857 142.216 34.6607 140.353 33.5145C137.441 31.7231 135.971 30.0548 133.177 28.1134C133.004 27.9926 132.765 28.0359 132.645 28.2098C132.524 28.3838 132.567 28.6229 132.741 28.7435Z" fill="#623FC6"/>
<path fill-rule="evenodd" clip-rule="evenodd" d="M133.154 28.0572C131.54 27.0222 128.88 25.5474 125.855 26.4361C123.457 27.141 120.795 29.3455 118.268 34.5666C116.621 37.9742 115.824 41.1066 114.708 44.3966C113.362 48.3635 111.537 52.5561 107.129 57.7661C104.84 60.4718 101.856 63.4482 97.8897 66.8155C95.0215 69.2507 91.6456 71.8951 87.6399 74.7762C86.8606 75.3377 86.1993 76.0345 85.6861 76.8279C85.1743 77.6192 84.8088 78.5052 84.6163 79.4448L84.5051 80.1356C84.4895 80.2598 84.5777 80.3734 84.7017 80.3891C84.8259 80.4045 84.9393 80.3163 84.9547 80.1919L85.0653 79.5395C85.2614 78.6634 85.6188 77.8408 86.1098 77.1079C86.5995 76.3769 87.2231 75.7361 87.9565 75.2237C92.013 72.38 95.4416 69.7752 98.3428 67.356C102.377 63.9921 105.402 60.9957 107.722 58.2717C112.232 52.9762 114.085 48.6943 115.457 44.6517C116.563 41.3925 117.346 38.2866 118.977 34.9102C120.803 31.1266 122.678 28.9885 124.481 27.8952C127.89 25.8278 130.987 27.5817 132.742 28.7036C132.92 28.8175 133.157 28.7652 133.27 28.587C133.384 28.4086 133.332 28.1713 133.154 28.0572Z" fill="#623FC6"/>
<path fill-rule="evenodd" clip-rule="evenodd" d="M133.516 28.5798C133.516 28.5798 130.449 26.779 126.889 30.6338C125.272 32.384 123.545 35.3275 121.969 40.201C120.494 44.4476 118.835 48.1164 117.059 51.3197C115.654 53.8539 114.173 56.0949 112.642 58.0964C105.494 67.4464 97.2233 71.5383 90.6219 75.681C84.8253 79.3185 80.312 83.0069 78.8903 90.1827C78.8582 90.3431 78.962 90.4994 79.122 90.5316C79.2819 90.5638 79.4381 90.4598 79.4703 90.2996C80.889 83.3226 85.3302 79.7834 90.9855 76.2651C97.6652 72.1097 106.036 68.0015 113.25 58.5629C114.802 56.5334 116.298 54.256 117.708 51.6788C119.485 48.4334 121.124 44.7103 122.579 40.4089C122.58 40.4065 122.581 40.4041 122.581 40.4017C124.067 35.6176 125.713 32.7163 127.272 30.9852C130.496 27.4055 133.307 28.948 133.307 28.948C133.408 29.0056 133.537 28.9699 133.595 28.8685C133.652 28.7669 133.617 28.6374 133.516 28.5798Z" fill="#623FC6"/>
<path fill-rule="evenodd" clip-rule="evenodd" d="M210.186 172.692C210.13 163.767 208.401 159.322 206.329 154.977C204.283 150.686 201.891 146.494 200.477 138.037C199.531 132.372 199.022 124.8 199.342 114.017C199.342 114.016 199.342 114.015 199.342 114.014C199.836 94.3189 197.612 78.1894 194.245 65.2495C186.416 35.1627 172.411 22.2694 171.939 21.8417C162.845 12.7244 153.222 8.75105 144.127 7.71386C132.178 6.35119 121.138 10.0683 113.399 13.87H113.399C110.043 15.5223 106.9 17.5506 104.026 19.9083C101.152 22.2657 98.5475 24.9526 96.269 27.9222C96.2686 27.9226 96.2684 27.9227 96.2682 27.9231C90.9611 34.874 83.0198 46.5565 76.4783 61.5778C71.7146 72.5171 67.695 85.2267 65.9665 99.1641C65.8652 99.9762 65.7765 100.79 65.7008 101.605C65.6249 102.421 65.5617 103.237 65.5115 104.054C64.3715 122.553 64.1514 130.673 62.6353 136.62C61.1483 142.453 58.4048 146.182 52.33 155.625L51.9018 156.236C51.9004 156.238 51.8991 156.24 51.8976 156.242C51.0035 157.461 48.6302 161.039 47.5148 165.758C46.78 168.867 46.59 172.47 47.7199 176.222C47.7829 176.432 48.0043 176.552 48.2141 176.488C48.424 176.425 48.5431 176.203 48.4802 175.993C47.4058 172.389 47.6008 168.932 48.3152 165.949C49.4087 161.385 51.7185 157.929 52.5878 156.752C52.5835 156.758 53.0519 156.093 53.0519 156.093V156.092C59.2348 146.54 62.0041 142.756 63.5266 136.85C65.067 130.875 65.3206 122.713 66.5148 104.118C66.5148 104.117 66.5148 104.117 66.5148 104.117C66.5662 103.311 66.6302 102.505 66.7068 101.701C66.7834 100.896 66.8727 100.093 66.9745 99.291C66.9745 99.291 66.9745 99.2908 66.9745 99.2906C68.7198 85.4654 72.7406 72.8656 77.4873 62.02C84.01 47.116 91.9073 35.5244 97.1875 28.6299C99.4135 25.7324 101.957 23.1112 104.764 20.8117C107.57 18.5123 110.639 16.5346 113.915 14.924C121.491 11.1982 132.296 7.54192 143.997 8.86667C152.876 9.87201 162.269 13.7522 171.157 22.6469C171.165 22.6547 171.173 22.6619 171.181 22.669C171.181 22.669 185.321 35.3182 193.239 65.5134C196.612 78.3735 198.856 94.4066 198.406 113.991C198.108 124.854 198.641 132.48 199.608 138.184C201.061 146.751 203.489 150.996 205.574 155.34C207.615 159.595 209.317 163.948 209.392 172.698C209.394 172.917 209.573 173.094 209.792 173.093C210.011 173.091 210.188 172.911 210.186 172.692Z" fill="#623FC6"/>
<path fill-rule="evenodd" clip-rule="evenodd" d="M70.1804 130.277C67.844 139.351 61.4083 144.183 55.441 148.739C53.2106 150.442 51.0442 152.107 49.1733 153.932C47.1619 155.894 45.4911 158.041 44.4382 160.608C42.7071 164.827 42.6413 170.188 45.5311 177.761C45.5819 177.896 45.732 177.964 45.8661 177.913C46.0003 177.862 46.0681 177.711 46.0173 177.577C43.2559 170.177 43.3291 164.959 45.0372 160.856C46.0688 158.379 47.6963 156.312 49.6424 154.414C51.4951 152.607 53.636 150.953 55.8355 149.254C61.8633 144.599 68.3205 139.612 70.6146 130.387C70.6451 130.267 70.5725 130.145 70.4525 130.115C70.3327 130.084 70.2107 130.157 70.1804 130.277Z" fill="#623FC6"/>
<path fill-rule="evenodd" clip-rule="evenodd" d="M198.497 98.5085C198.497 98.5085 201.757 105.55 205.453 112.756C207.137 116.038 208.914 119.352 210.506 122.057C212.011 124.59 213.422 127.162 214.628 129.795C215.85 132.462 216.858 135.193 217.505 138.026C218.342 141.688 218.585 145.516 217.931 149.583C217.904 149.738 218.008 149.885 218.163 149.911C218.317 149.938 218.464 149.834 218.491 149.679C219.244 145.534 219.08 141.613 218.29 137.853C217.56 134.377 216.301 131.037 214.74 127.791C213.722 125.674 212.57 123.601 211.367 121.548C209.778 118.86 208.009 115.564 206.321 112.307C202.602 105.133 199.29 98.1359 199.29 98.1359C199.187 97.9169 198.926 97.8222 198.708 97.9251C198.489 98.0279 198.395 98.2895 198.497 98.5085Z" fill="#623FC6"/>
<path fill-rule="evenodd" clip-rule="evenodd" d="M215.439 131.539C215.439 131.539 220.928 139.372 224.818 149.747C226.356 153.85 227.639 158.352 228.243 162.927C229.227 170.38 228.396 178.038 223.707 184.479C223.57 184.665 223.61 184.927 223.795 185.063C223.981 185.2 224.242 185.161 224.379 184.975C229.279 178.376 230.273 170.483 229.287 162.79C228.69 158.133 227.361 153.552 225.776 149.384C221.792 138.906 216.153 131.031 216.153 131.031C216.013 130.833 215.74 130.787 215.543 130.927C215.346 131.067 215.299 131.341 215.439 131.539Z" fill="#623FC6"/>
<path fill-rule="evenodd" clip-rule="evenodd" d="M106.037 150.634C103.972 154.395 102.83 158.344 104.054 166.913C105.143 174.537 108.115 185.867 113.996 204.103C114.052 204.277 114.239 204.373 114.413 204.317C114.587 204.261 114.683 204.073 114.627 203.899C108.799 185.71 105.853 174.411 104.782 166.809C103.609 158.488 104.696 154.652 106.707 151.004C106.809 150.819 106.742 150.586 106.557 150.483C106.372 150.381 106.139 150.449 106.037 150.634Z" fill="#623FC6"/>
<path fill-rule="evenodd" clip-rule="evenodd" d="M165.797 154.17C168.374 158.033 170.36 164.136 168.919 175.616C167.949 183.351 165.579 193.644 161.154 207.631C161.104 207.786 161.19 207.953 161.346 208.003C161.502 208.053 161.668 207.967 161.718 207.811C166.203 193.788 168.611 183.464 169.609 175.704C171.122 163.951 169.061 157.709 166.434 153.744C166.317 153.569 166.079 153.521 165.903 153.638C165.728 153.755 165.68 153.994 165.797 154.17Z" fill="#623FC6"/>
<path fill-rule="evenodd" clip-rule="evenodd" d="M105.225 145.258C105.225 145.258 102.006 146.157 99.2476 147.196C97.8904 147.707 96.3317 148.345 94.7029 149.109C92.7171 150.039 90.9478 151.336 89.48 152.914C88.0136 154.49 86.8477 156.346 86.0617 158.395C86.0604 158.398 86.0591 158.402 86.0578 158.405C85.4424 160.205 84.6317 162.587 83.5751 165.736C82.8736 167.827 82.0643 170.256 81.1289 173.077C81.0861 173.204 81.154 173.342 81.2805 173.385C81.4069 173.428 81.5445 173.36 81.5873 173.233C82.5559 170.424 83.3953 168.005 84.1198 165.922C85.2091 162.791 86.0402 160.419 86.6732 158.628C87.4418 156.669 88.5746 154.897 89.9904 153.393C91.4055 151.89 93.1043 150.655 95.011 149.773C96.6236 149.023 98.1666 148.399 99.5096 147.898C102.23 146.884 105.422 145.999 105.422 145.999C105.626 145.945 105.748 145.735 105.694 145.53C105.639 145.325 105.429 145.204 105.225 145.258Z" fill="#623FC6"/>
<path fill-rule="evenodd" clip-rule="evenodd" d="M91.3028 151.143L78.5582 157.69C75.7749 159.128 73.2329 160.96 71.0161 163.128C68.8021 165.293 66.9134 167.791 65.4132 170.541L62.5754 175.756C62.5127 175.869 62.5537 176.012 62.6667 176.075C62.7799 176.138 62.9225 176.097 62.9851 175.983L65.893 170.807C67.3948 168.127 69.2815 165.704 71.4702 163.598C73.6563 161.494 76.1452 159.705 78.8755 158.311L91.6217 151.766C91.7934 151.678 91.8614 151.467 91.7733 151.295C91.6853 151.123 91.4746 151.055 91.3028 151.143Z" fill="#623FC6"/>
<path fill-rule="evenodd" clip-rule="evenodd" d="M183.65 161.949L196.386 168.528C197.827 169.265 199.199 170.114 200.499 171.054C201.808 172.001 203.041 173.043 204.189 174.174C206.484 176.433 208.437 179.041 209.954 181.929L210.818 183.574C210.87 183.676 210.994 183.716 211.095 183.664C211.197 183.612 211.237 183.488 211.185 183.386L210.36 181.721C208.885 178.745 206.965 176.036 204.674 173.689C203.523 172.509 202.277 171.421 200.948 170.438C199.627 169.459 198.221 168.587 196.748 167.823L184 161.267C183.812 161.17 183.581 161.244 183.485 161.433C183.388 161.621 183.462 161.852 183.65 161.949Z" fill="#623FC6"/>
<path fill-rule="evenodd" clip-rule="evenodd" d="M166.52 151.706C168.832 154.03 170.889 155.505 172.806 156.568C175.382 157.996 177.704 158.675 180.059 159.686C181.225 160.185 182.287 160.878 183.208 161.725C184.13 162.572 184.912 163.574 185.509 164.697C186.416 166.419 187.536 168.801 188.581 171.71C189.365 173.892 190.108 176.369 190.678 179.09C190.7 179.202 190.809 179.275 190.92 179.252C191.032 179.23 191.105 179.122 191.083 179.01C190.569 176.252 189.88 173.735 189.135 171.517C188.138 168.552 187.043 166.122 186.156 164.36C186.156 164.359 186.155 164.358 186.155 164.357C185.531 163.151 184.71 162.07 183.732 161.156C182.753 160.242 181.617 159.497 180.371 158.957C180.371 158.957 180.371 158.957 180.37 158.957C178.038 157.957 175.74 157.286 173.188 155.876C171.321 154.845 169.317 153.417 167.061 151.164C166.912 151.014 166.669 151.014 166.52 151.164C166.37 151.314 166.37 151.557 166.52 151.706Z" fill="#623FC6"/>
<path fill-rule="evenodd" clip-rule="evenodd" d="M72.5631 161.921C72.5631 161.921 69.2583 163.69 65.6726 165.648C64.119 166.496 62.5171 167.387 61.0996 168.169C60.4403 168.542 59.8034 168.948 59.1993 169.397C58.2884 170.072 57.4454 170.832 56.678 171.661C55.4066 173.034 54.346 174.602 53.5254 176.308C53.5252 176.308 53.5248 176.309 53.5247 176.309L52.8141 177.855C52.7807 177.925 52.8101 178.008 52.8793 178.042C52.9488 178.075 53.0322 178.046 53.0657 177.976L53.8464 176.469C54.7111 174.839 55.8131 173.361 57.0955 172.061C57.8636 171.283 58.6983 170.573 59.5888 169.932C60.1781 169.507 60.7896 169.11 61.4272 168.753C62.8303 167.946 64.4227 167.038 65.9537 166.149C69.4867 164.097 72.7125 162.187 72.7125 162.187C72.7858 162.146 72.8119 162.053 72.7705 161.979C72.7294 161.906 72.6364 161.88 72.5631 161.921Z" fill="#623FC6"/>
<path fill-rule="evenodd" clip-rule="evenodd" d="M201.992 172.206C201.992 172.206 204.601 173.65 207.688 175.385C208.795 176.007 209.962 176.667 211.095 177.309C211.879 177.753 212.647 178.185 213.362 178.597C214.748 179.38 215.921 180.269 217.055 181.417C218.037 182.411 218.99 183.595 220.016 185.076C220.079 185.171 220.207 185.197 220.302 185.133C220.396 185.07 220.422 184.942 220.359 184.847C219.372 183.298 218.451 182.051 217.486 181.004C216.349 179.769 215.153 178.813 213.737 177.954C212.343 177.129 210.756 176.206 209.214 175.333C205.658 173.318 202.359 171.533 202.359 171.533C202.174 171.431 201.941 171.499 201.84 171.685C201.738 171.871 201.806 172.104 201.992 172.206Z" fill="#623FC6"/>
<path fill-rule="evenodd" clip-rule="evenodd" d="M57.366 170.982C54.4851 172.242 51.6782 173.797 49.2538 175.281C44.8265 177.991 41.6746 180.463 41.6746 180.463C41.5936 180.527 41.5509 180.627 41.5616 180.73C41.5724 180.833 41.6349 180.923 41.7273 180.968C41.7273 180.968 45.7281 182.942 51.0626 184.602C54.0658 185.537 57.4915 186.372 60.8642 186.702C64.9042 187.098 67.6714 187.624 70.4112 188.585C73.9526 189.827 77.4477 191.79 83.5655 195.116C88.85 197.987 95.4207 200.37 101.971 202.144C108.999 204.048 116.003 205.253 121.363 205.622C125.903 205.933 127.922 207.092 129.583 208.28C130.648 209.042 131.576 209.809 132.885 210.386C134.185 210.959 135.859 211.348 138.415 211.348C142.419 211.349 144.544 210.551 146.542 209.716C148.051 209.086 149.483 208.431 151.653 208.111C153.141 207.891 154.974 207.828 157.412 208.033C162.853 208.487 167.694 208.024 173.853 206.59C179.876 205.187 187.168 202.851 197.544 199.539C197.548 199.537 197.553 199.536 197.557 199.534C205.472 196.64 210.904 194.929 215.086 193.861C222.826 191.883 226.286 192.105 233.286 191.093C233.402 191.077 233.496 190.991 233.523 190.878C233.551 190.764 233.507 190.645 233.411 190.577C233.411 190.577 230.093 188.222 225.847 185.697C223.349 184.21 220.529 182.665 217.876 181.504C217.747 181.447 217.597 181.506 217.54 181.635C217.483 181.764 217.542 181.915 217.671 181.972C220.301 183.133 223.095 184.677 225.571 186.162C228.72 188.05 231.355 189.841 232.487 190.627C225.93 191.507 222.435 191.356 214.932 193.25C210.733 194.31 205.279 196.01 197.332 198.891C186.976 202.172 179.698 204.484 173.687 205.873C167.612 207.277 162.84 207.732 157.476 207.277C154.964 207.064 153.075 207.13 151.542 207.355C149.295 207.685 147.81 208.356 146.247 209.009C144.322 209.813 142.274 210.583 138.415 210.584C136.002 210.584 134.42 210.228 133.192 209.687C131.934 209.134 131.047 208.391 130.023 207.661C128.283 206.418 126.17 205.193 121.414 204.871C116.092 204.512 109.139 203.322 102.16 201.442C95.6616 199.692 89.1405 197.344 83.8953 194.505C77.7261 191.168 74.1994 189.201 70.6295 187.958C67.8438 186.988 65.0317 186.456 60.9261 186.062C57.596 185.742 54.2132 184.924 51.2463 184.007C46.9969 182.695 43.5999 181.181 42.4298 180.637C43.3928 179.905 46.0765 177.914 49.5551 175.774C51.9558 174.297 54.7352 172.748 57.5889 171.492C57.7294 171.43 57.7936 171.266 57.732 171.125C57.6705 170.984 57.5065 170.92 57.366 170.982Z" fill="#623FC6"/>
<path fill-rule="evenodd" clip-rule="evenodd" d="M140.555 261.749C140.526 261.742 140.496 261.738 140.464 261.738C137.043 261.738 133.636 261.429 130.284 260.817C126.932 260.206 123.634 259.293 120.433 258.085C120.433 258.085 120.433 258.085 120.433 258.085C104.786 252.197 89.8479 245.072 76.8349 238.16C57.5763 227.931 42.5358 218.165 35.6756 213.53C34.3232 212.602 33.2347 211.376 32.4745 209.972C31.7138 208.567 31.2816 206.984 31.2425 205.341C31.2425 205.34 31.2425 205.34 31.2425 205.339C31.0762 199.659 32.0433 195.154 33.4609 191.642C36.6093 183.841 41.9742 180.951 41.9742 180.951C42.1095 180.879 42.1606 180.71 42.0883 180.575C42.016 180.439 41.8476 180.388 41.7124 180.46C41.7124 180.46 36.1732 183.408 32.9199 191.422C31.4701 194.994 30.4733 199.575 30.6308 205.355C30.669 207.097 31.1241 208.778 31.928 210.269C32.7323 211.761 33.8859 213.064 35.3201 214.052C35.3206 214.052 35.3214 214.053 35.3219 214.053C42.1843 218.706 57.2279 228.518 76.5017 238.789C89.5311 245.732 104.494 252.882 120.165 258.798C123.409 260.023 126.75 260.95 130.147 261.57C133.541 262.189 136.99 262.503 140.454 262.504C140.454 262.504 140.464 262.515 140.464 262.515C144.426 262.514 148.368 262.117 152.232 261.335C156.095 260.554 159.882 259.387 163.533 257.848C163.533 257.848 163.533 257.848 163.533 257.848C174.251 253.299 191.028 245.736 207.281 236.56C216.969 231.09 226.469 225.046 234.393 218.731C234.393 218.73 234.393 218.73 234.394 218.73C235.311 217.993 236.096 217.117 236.723 216.14C237.351 215.163 237.822 214.085 238.111 212.944C238.112 212.943 238.111 212.943 238.112 212.942C239.009 209.316 239.975 203.527 238.743 198.464C237.974 195.304 236.353 192.426 233.345 190.512C233.22 190.432 233.055 190.469 232.976 190.594C232.896 190.718 232.933 190.884 233.057 190.964C235.933 192.804 237.472 195.568 238.202 198.596C239.399 203.565 238.426 209.242 237.538 212.798C237.263 213.875 236.815 214.893 236.22 215.815C235.626 216.736 234.883 217.562 234.016 218.255C226.104 224.535 216.618 230.536 206.951 235.972C190.709 245.104 173.95 252.633 163.243 257.157C159.637 258.674 155.897 259.822 152.082 260.591C148.296 261.354 144.435 261.744 140.555 261.749Z" fill="#623FC6"/>
<path fill-rule="evenodd" clip-rule="evenodd" d="M156.473 37.506C156.473 37.506 161.968 41.303 166.175 49.9027C168.131 53.9019 169.812 58.939 170.528 65.1194C171.189 70.6898 171.573 75.3352 172.031 79.5634C172.583 84.6549 173.228 89.145 174.512 93.9149C175.926 99.1662 178.126 104.754 181.852 111.859C181.908 111.967 182.042 112.01 182.15 111.954C182.259 111.897 182.301 111.763 182.245 111.654C178.624 104.554 176.51 98.9753 175.153 93.745C173.921 88.9986 173.322 84.5374 172.786 79.482C172.338 75.2502 171.925 70.6047 171.251 65.0325C170.476 58.7698 168.736 53.6724 166.716 49.6339C162.362 40.9317 156.723 37.1391 156.723 37.1391C156.622 37.0703 156.484 37.0964 156.415 37.1977C156.346 37.2989 156.372 37.4372 156.473 37.506Z" fill="#623FC6"/>
<path fill-rule="evenodd" clip-rule="evenodd" d="M103.543 130.378C104.021 140.453 108.231 153.27 105.365 163.33C105.323 163.467 105.4 163.612 105.537 163.653C105.673 163.695 105.818 163.618 105.859 163.481C109.087 153.478 104.871 140.44 104.264 130.339C104.254 130.14 104.084 129.986 103.885 129.997C103.686 130.008 103.533 130.178 103.543 130.378Z" fill="#C24353"/>
<path fill-rule="evenodd" clip-rule="evenodd" d="M169.659 130.569C168.628 137.624 167.51 142.522 166.681 146.415C166.122 149.042 165.686 151.214 165.464 153.27C165.122 156.443 165.294 159.338 166.304 163.192C166.338 163.331 166.478 163.416 166.617 163.382C166.756 163.348 166.841 163.208 166.807 163.069C165.948 159.279 165.908 156.457 166.309 153.37C166.572 151.344 167.029 149.204 167.579 146.607C168.407 142.699 169.426 137.762 170.374 130.669C170.402 130.472 170.264 130.289 170.067 130.261C169.869 130.233 169.687 130.371 169.659 130.569Z" fill="#C24353"/>
<path fill-rule="evenodd" clip-rule="evenodd" d="M109.121 83.0298C109.121 83.0298 111.016 81.6242 114.15 81.0165C115.215 80.8101 116.423 80.7014 117.754 80.755C118.864 80.7998 120.059 80.9567 121.332 81.2869C122.905 81.6947 124.596 82.3497 126.378 83.3831C126.431 83.4153 126.501 83.3985 126.533 83.3455C126.565 83.2924 126.549 83.2231 126.496 83.1906C124.733 82.0531 123.049 81.2852 121.463 80.8161C120.159 80.4305 118.923 80.2389 117.776 80.1938C116.398 80.1402 115.147 80.2971 114.051 80.548C110.852 81.2809 108.978 82.8484 108.978 82.8484C108.928 82.8878 108.92 82.9605 108.959 83.0104C108.998 83.0606 109.071 83.0692 109.121 83.0298Z" fill="#18273E"/>
<path fill-rule="evenodd" clip-rule="evenodd" d="M168.76 84.0691C168.76 84.0691 166.887 82.5016 163.687 81.7687C162.592 81.5178 161.341 81.3609 159.963 81.4145C158.815 81.4593 157.58 81.6512 156.276 82.0368C154.689 82.5059 153.006 83.2738 151.243 84.4113C151.19 84.4438 151.173 84.5131 151.206 84.5662C151.238 84.6192 151.307 84.636 151.36 84.6035C153.142 83.5704 154.834 82.9154 156.406 82.5076C157.68 82.1774 158.875 82.0205 159.985 81.9758C161.316 81.9221 162.523 82.0308 163.588 82.2372C166.723 82.8449 168.618 84.2505 168.618 84.2505C168.668 84.2899 168.74 84.2813 168.78 84.2311C168.819 84.1809 168.81 84.1085 168.76 84.0691Z" fill="#18273E"/>
<path fill-rule="evenodd" clip-rule="evenodd" d="M111.805 87.8708C111.805 87.8708 113.044 88.864 115.146 89.5331C115.867 89.7627 116.689 89.9526 117.595 90.0459C117.919 90.0791 118.253 90.0988 118.597 90.1011C119.08 90.1042 119.582 90.0754 120.098 90.0085C121.229 89.8626 122.43 89.5388 123.684 88.9916C123.748 88.9665 123.779 88.8946 123.754 88.8309C123.729 88.7672 123.657 88.7358 123.593 88.7609C122.34 89.2047 121.152 89.4191 120.047 89.5008C119.549 89.5379 119.069 89.5462 118.606 89.5351C118.277 89.5268 117.957 89.5097 117.647 89.4837C116.776 89.4106 115.981 89.2621 115.279 89.0762C113.214 88.5305 111.949 87.6758 111.949 87.6758C111.895 87.6361 111.819 87.6475 111.78 87.7012C111.74 87.7552 111.752 87.8311 111.805 87.8708Z" fill="#18273E"/>
<path fill-rule="evenodd" clip-rule="evenodd" d="M165.898 88.9237C165.898 88.9237 164.63 89.773 162.564 90.3181C161.862 90.5034 161.067 90.6479 160.196 90.7285C159.45 90.7973 158.648 90.8198 157.795 90.755C156.689 90.6711 155.5 90.4589 154.246 90.0148C154.188 89.992 154.123 90.0205 154.1 90.0785C154.077 90.1365 154.106 90.2019 154.163 90.2247C155.416 90.7719 156.616 91.0983 157.746 91.2416C158.631 91.3541 159.471 91.3615 160.248 91.2882C161.155 91.2028 161.977 91.0083 162.698 90.7787C164.8 90.1088 166.035 89.1099 166.035 89.1099C166.086 89.0719 166.097 88.9996 166.059 88.9482C166.021 88.8968 165.949 88.886 165.898 88.9237Z" fill="#18273E"/>
<path fill-rule="evenodd" clip-rule="evenodd" d="M128.69 131.125C128.69 131.125 128.837 131.42 129.179 131.841C129.332 132.028 129.525 132.241 129.761 132.464C130.155 132.836 130.592 133.155 131.061 133.418C131.531 133.681 132.035 133.886 132.559 134.028C132.56 134.028 132.562 134.028 132.563 134.028C133.606 134.287 135.583 134.733 137.73 134.847C138.892 134.908 140.103 134.868 141.238 134.67C143.345 134.303 145.188 133.382 146.032 131.513C146.076 131.42 146.036 131.31 145.944 131.266C145.852 131.223 145.742 131.262 145.698 131.355C144.859 133.061 143.11 133.825 141.149 134.116C140.05 134.279 138.884 134.288 137.763 134.228C135.659 134.116 133.712 133.747 132.686 133.511C132.202 133.396 131.731 133.222 131.289 132.993C130.845 132.763 130.428 132.479 130.05 132.145C130.05 132.145 130.05 132.145 130.05 132.145C129.821 131.944 129.634 131.752 129.484 131.582C129.161 131.214 129.017 130.954 129.017 130.954C128.97 130.863 128.859 130.828 128.768 130.876C128.678 130.923 128.643 131.035 128.69 131.125Z" fill="#18273E"/>
<path fill-rule="evenodd" clip-rule="evenodd" d="M129.84 121.577C130.527 121.507 131.134 121.474 131.664 121.461C132.433 121.442 133.036 121.471 133.479 121.511C133.719 121.534 133.957 121.584 134.188 121.658C134.418 121.731 134.639 121.829 134.85 121.949C134.85 121.949 134.85 121.949 134.85 121.949C135.42 122.265 136.396 122.695 137.62 122.74C138.463 122.771 139.42 122.612 140.434 122.141C140.63 122.048 140.834 121.973 141.043 121.919C141.254 121.864 141.469 121.828 141.686 121.813C142.067 121.791 142.586 121.788 143.264 121.836C143.72 121.868 144.245 121.921 144.849 122.008C144.91 122.019 144.969 121.978 144.98 121.917C144.99 121.856 144.949 121.797 144.888 121.786C144.284 121.659 143.755 121.57 143.297 121.51C142.602 121.418 142.067 121.393 141.672 121.393C141.671 121.393 141.67 121.393 141.67 121.393C141.424 121.397 141.179 121.424 140.94 121.474C140.699 121.525 140.463 121.6 140.236 121.696C139.294 122.102 138.414 122.207 137.641 122.176C136.52 122.132 135.617 121.785 135.089 121.507C134.844 121.38 134.587 121.278 134.321 121.205C134.056 121.134 133.784 121.089 133.509 121.075C133.508 121.075 133.508 121.075 133.507 121.075C133.052 121.058 132.433 121.059 131.646 121.122C131.112 121.165 130.5 121.237 129.81 121.348C129.747 121.356 129.702 121.415 129.711 121.478C129.719 121.541 129.777 121.585 129.84 121.577Z" fill="#18273E"/>
<path fill-rule="evenodd" clip-rule="evenodd" d="M117.499 124.051C119.673 124.84 121.339 125.259 122.756 125.484C124.694 125.79 126.164 125.734 127.832 125.754C129.715 125.777 131.854 125.901 135.24 126.791C135.241 126.791 135.242 126.791 135.242 126.791C135.809 126.935 136.389 127.017 136.97 127.036C137.551 127.055 138.134 127.011 138.709 126.905C139.649 126.741 140.952 126.565 142.49 126.499C143.643 126.45 144.929 126.463 146.293 126.594C148.523 126.808 150.083 126.892 151.574 126.815C153.154 126.734 154.656 126.474 156.797 126.001C156.914 125.976 156.989 125.86 156.964 125.742C156.939 125.624 156.823 125.549 156.706 125.574C154.591 126.01 153.108 126.245 151.551 126.305C150.081 126.361 148.546 126.26 146.35 126.024C144.959 125.875 143.645 125.847 142.466 125.888C140.894 125.942 139.562 126.119 138.6 126.281C138.599 126.281 138.597 126.282 138.596 126.282C138.065 126.379 137.527 126.418 136.991 126.401C136.454 126.383 135.92 126.31 135.396 126.179C131.939 125.299 129.757 125.187 127.836 125.182C126.193 125.178 124.745 125.255 122.833 124.978C121.437 124.775 119.793 124.385 117.644 123.64C117.531 123.599 117.406 123.659 117.366 123.772C117.326 123.886 117.385 124.011 117.499 124.051Z" fill="#18273E"/>
<path fill-rule="evenodd" clip-rule="evenodd" d="M131.665 111.403C131.011 111.416 130.51 111.28 130.13 111.085C129.68 110.854 129.406 110.542 129.252 110.314L131.134 110.336C131.288 110.337 131.439 110.367 131.581 110.421C131.722 110.474 131.853 110.553 131.97 110.653L134.983 113.234C135.403 113.592 135.88 113.87 136.389 114.059C136.899 114.248 137.442 114.347 137.995 114.35L138.872 114.352C139.495 114.351 140.107 114.227 140.671 113.991C141.235 113.755 141.752 113.406 142.19 112.963L143.576 111.55C143.694 111.429 143.833 111.333 143.986 111.268C144.14 111.202 144.306 111.166 144.476 111.164L147.158 111.13C146.982 111.367 146.646 111.681 146.045 111.829C145.592 111.941 144.999 111.963 144.224 111.807C144.13 111.787 144.038 111.847 144.018 111.941C143.997 112.034 144.057 112.127 144.151 112.147C145.233 112.398 145.998 112.31 146.533 112.109C147.522 111.736 147.769 110.965 147.769 110.965C147.792 110.895 147.779 110.818 147.736 110.758C147.692 110.699 147.623 110.663 147.55 110.663L144.476 110.624C144.233 110.621 143.996 110.668 143.775 110.757C143.554 110.846 143.351 110.98 143.177 111.15L141.767 112.539C141.381 112.921 140.927 113.217 140.435 113.419C139.943 113.621 139.413 113.729 138.872 113.728L137.995 113.73C137.514 113.733 137.041 113.65 136.596 113.49C136.149 113.33 135.729 113.094 135.359 112.786L132.298 110.261C132.133 110.126 131.949 110.021 131.751 109.952C131.555 109.883 131.346 109.847 131.134 109.849L128.886 109.875C128.815 109.875 128.748 109.911 128.707 109.969C128.667 110.028 128.658 110.103 128.683 110.17C128.683 110.17 128.99 110.971 129.956 111.436C130.386 111.642 130.948 111.784 131.676 111.75C131.772 111.747 131.847 111.667 131.844 111.571C131.841 111.475 131.76 111.4 131.665 111.403Z" fill="#C24353"/>
<path fill-rule="evenodd" clip-rule="evenodd" d="M147.011 104.724C147.011 104.724 147.759 105.066 148.511 105.717C148.923 106.074 149.336 106.524 149.619 107.07C149.907 107.598 150.021 108.3 149.967 109.015C149.934 109.452 149.839 109.895 149.657 110.311C149.25 111.239 148.436 112.029 147.041 112.293C146.984 112.301 146.944 112.354 146.952 112.411C146.96 112.468 147.013 112.507 147.07 112.499C148.641 112.352 149.631 111.546 150.15 110.548C150.393 110.081 150.532 109.568 150.571 109.061C150.636 108.228 150.434 107.412 150.076 106.809C149.719 106.234 149.234 105.769 148.748 105.417C147.905 104.806 147.088 104.53 147.088 104.53C147.034 104.509 146.974 104.535 146.953 104.589C146.932 104.642 146.958 104.703 147.011 104.724Z" fill="#C24353"/>
<path fill-rule="evenodd" clip-rule="evenodd" d="M127.283 103.789C127.283 103.789 126.551 104.097 125.744 104.839C125.338 105.212 124.919 105.697 124.56 106.301C124.213 106.912 124.109 107.755 124.28 108.624C124.376 109.112 124.562 109.605 124.82 110.065C125.069 110.509 125.387 110.921 125.767 111.266C126.323 111.771 127.005 112.133 127.793 112.245C127.849 112.257 127.904 112.22 127.915 112.164C127.926 112.107 127.889 112.052 127.833 112.041C127.243 111.893 126.741 111.591 126.318 111.203C125.89 110.812 125.556 110.327 125.305 109.81C125.1 109.387 124.96 108.942 124.874 108.506C124.732 107.779 124.748 107.074 125.019 106.552C125.309 105.964 125.666 105.487 126.012 105.107C126.715 104.34 127.373 103.976 127.373 103.976C127.425 103.952 127.447 103.889 127.422 103.838C127.397 103.786 127.335 103.764 127.283 103.789Z" fill="#C24353"/>
<path fill-rule="evenodd" clip-rule="evenodd" d="M106.389 85.2105L106.388 85.2102C106.388 85.2102 106.4 85.2273 106.412 85.2439C106.445 85.2872 106.515 85.375 106.629 85.4831C106.629 85.4831 106.629 85.4831 106.629 85.4834C107.041 85.8755 107.563 86.0931 108.097 86.1304C108.632 86.1675 109.178 86.0232 109.64 85.6927C110.577 85.0537 112.43 84.0051 114.896 83.5446C116.039 83.331 117.314 83.2409 118.694 83.3806C121.282 83.6421 124.238 84.6995 127.384 87.2269C127.473 87.3005 127.605 87.2879 127.679 87.1984C127.752 87.1088 127.74 86.9765 127.65 86.9027C124.47 84.2019 121.44 83.0256 118.77 82.6968C117.317 82.518 115.969 82.5901 114.762 82.8057C112.155 83.2717 110.203 84.4012 109.214 85.0768C109.212 85.0785 109.209 85.0805 109.206 85.0822C108.89 85.3117 108.514 85.413 108.147 85.3896C107.778 85.3659 107.417 85.2185 107.131 84.9501C107.061 84.8834 107.016 84.8295 106.995 84.8024C106.742 84.4685 106.322 84.7976 106.322 84.9995C106.322 85.0782 106.346 85.1509 106.389 85.2105Z" fill="#18273E"/>
<path d="M168.625 86.237L168.632 86.2424C168.82 86.3786 169.029 86.4696 169.244 86.5163L169.399 87.2897C168.979 87.2579 168.563 87.1132 168.198 86.853C167.259 86.2125 165.407 85.1651 162.942 84.7046C161.799 84.4912 160.525 84.4011 159.145 84.5406C156.556 84.8024 153.601 85.8598 150.455 88.3872C150.366 88.4607 150.234 88.4482 150.16 88.3586C150.086 88.2691 150.099 88.1368 150.189 88.0629C153.368 85.3621 156.399 84.1858 159.068 83.857C160.521 83.6783 161.869 83.7504 163.077 83.966C165.684 84.4317 167.635 85.5615 168.625 86.237Z" fill="#18273E"/>
<path fill-rule="evenodd" clip-rule="evenodd" d="M115.633 82.9802L120.179 83.123C120.973 83.8256 121.478 84.8758 121.478 86.0482C121.478 88.1611 119.839 89.8766 117.82 89.8766C115.801 89.8766 114.162 88.1611 114.162 86.0482C114.162 84.7933 114.74 83.6786 115.633 82.9802Z" fill="#18273E"/>
<path fill-rule="evenodd" clip-rule="evenodd" d="M162.077 84.1718L157.523 84.5343C156.729 85.2367 156.232 86.067 156.232 87.2398C156.232 89.3526 157.871 91.0679 159.889 91.0679C161.908 91.0679 163.547 89.3526 163.547 87.2398C163.547 85.9849 162.969 84.8702 162.077 84.1718Z" fill="#18273E"/>
<path fill-rule="evenodd" clip-rule="evenodd" d="M122.888 92.8267C122.888 92.8267 121.721 93.8578 119.515 94.3056C119.063 94.3973 118.569 94.4683 118.03 94.5048C117.346 94.5509 116.593 94.549 115.768 94.4482C115.704 94.4382 115.644 94.4818 115.634 94.5457C115.625 94.6094 115.668 94.6693 115.732 94.6792C116.571 94.8391 117.343 94.9059 118.047 94.8915C118.609 94.88 119.127 94.8193 119.599 94.7267C121.936 94.2677 123.141 93.1002 123.141 93.1002C123.216 93.0304 123.221 92.9124 123.151 92.837C123.082 92.7614 122.964 92.7568 122.888 92.8267Z" fill="#18273E"/>
<path fill-rule="evenodd" clip-rule="evenodd" d="M154.448 92.8267C154.448 92.8267 155.615 93.8578 157.821 94.3056C158.273 94.3973 158.767 94.4683 159.306 94.5048C159.99 94.5509 160.743 94.549 161.568 94.4482C161.632 94.4382 161.692 94.4818 161.702 94.5457C161.711 94.6094 161.668 94.6693 161.604 94.6792C160.765 94.8391 159.993 94.9059 159.289 94.8915C158.727 94.88 158.209 94.8193 157.737 94.7267C155.4 94.2677 154.195 93.1002 154.195 93.1002C154.12 93.0304 154.115 92.9124 154.185 92.837C154.254 92.7614 154.372 92.7568 154.448 92.8267Z" fill="#18273E"/>
<circle opacity="0.78" r="0.850031" transform="matrix(-1 0 0 1 158.124 86.0998)" fill="white"/>
<circle opacity="0.78" r="0.850031" transform="matrix(-1 0 0 1 115.878 84.6712)" fill="white"/>
<path opacity="0.78" d="M115.479 87.1513C115.479 87.3811 116.489 88.4606 117.733 88.4606C118.978 88.4606 119.988 87.3811 119.988 87.1513C119.988 86.9215 118.978 87.6284 117.733 87.6284C116.489 87.6284 115.479 86.9215 115.479 87.1513Z" fill="#CCD0D5"/>
<path opacity="0.78" d="M157.731 88.7503C157.731 88.9801 158.74 90.0596 159.985 90.0596C161.23 90.0596 162.239 88.9801 162.239 88.7503C162.239 88.5205 161.23 89.2274 159.985 89.2274C158.74 89.2274 157.731 88.5205 157.731 88.7503Z" fill="#CCD0D5"/>
<defs>
<linearGradient id="paint0_linear_3129_7884" x1="16.5661" y1="23.0339" x2="215.887" y2="209.476" gradientUnits="userSpaceOnUse">
<stop stop-color="#975C70"/>
<stop offset="1" stop-color="#7D505F"/>
</linearGradient>
<linearGradient id="paint1_linear_3129_7884" x1="248.872" y1="175.699" x2="-28.2889" y2="-155.208" gradientUnits="userSpaceOnUse">
<stop stop-color="#542142"/>
<stop offset="1" stop-color="#4C2A40" stop-opacity="0"/>
</linearGradient>
<linearGradient id="paint2_linear_3129_7884" x1="249.254" y1="171.98" x2="-27.9076" y2="-158.928" gradientUnits="userSpaceOnUse">
<stop stop-color="#542142"/>
<stop offset="1" stop-color="#4C2A40" stop-opacity="0"/>
</linearGradient>
<linearGradient id="paint3_linear_3129_7884" x1="271.395" y1="156.632" x2="16.635" y2="130.028" gradientUnits="userSpaceOnUse">
<stop stop-color="#9526B8"/>
<stop offset="1" stop-color="#210C42"/>
</linearGradient>
<linearGradient id="paint4_linear_3129_7884" x1="271.395" y1="156.632" x2="16.635" y2="130.028" gradientUnits="userSpaceOnUse">
<stop stop-color="#9526B8"/>
<stop offset="1" stop-color="#210C42"/>
</linearGradient>
<linearGradient id="paint5_linear_3129_7884" x1="-134.644" y1="87.7795" x2="272.81" y2="281.634" gradientUnits="userSpaceOnUse">
<stop stop-color="#9526B8"/>
<stop offset="1" stop-color="#210C42"/>
</linearGradient>
<linearGradient id="paint6_linear_3129_7884" x1="-134.644" y1="87.7795" x2="272.81" y2="281.634" gradientUnits="userSpaceOnUse">
<stop stop-color="#9526B8"/>
<stop offset="1" stop-color="#210C42"/>
</linearGradient>
<linearGradient id="paint7_linear_3129_7884" x1="184.835" y1="138.167" x2="153.001" y2="178.713" gradientUnits="userSpaceOnUse">
<stop stop-color="#0E112D"/>
<stop offset="1" stop-color="#0E112D" stop-opacity="0"/>
</linearGradient>
<linearGradient id="paint8_linear_3129_7884" x1="85.9395" y1="130.102" x2="117.774" y2="170.648" gradientUnits="userSpaceOnUse">
<stop stop-color="#0E112D"/>
<stop offset="1" stop-color="#0E112D" stop-opacity="0"/>
</linearGradient>
<linearGradient id="paint9_linear_3129_7884" x1="67.8126" y1="133.902" x2="99.6468" y2="174.448" gradientUnits="userSpaceOnUse">
<stop stop-color="#0E112D"/>
<stop offset="1" stop-color="#0E112D" stop-opacity="0"/>
</linearGradient>
<linearGradient id="paint10_linear_3129_7884" x1="60.1645" y1="132.194" x2="91.9987" y2="172.74" gradientUnits="userSpaceOnUse">
<stop stop-color="#0E112D"/>
<stop offset="1" stop-color="#0E112D" stop-opacity="0"/>
</linearGradient>
<linearGradient id="paint11_linear_3129_7884" x1="81.4701" y1="111.527" x2="132.518" y2="118.706" gradientUnits="userSpaceOnUse">
<stop stop-color="#0E112D"/>
<stop offset="1" stop-color="#0E112D" stop-opacity="0"/>
</linearGradient>
<linearGradient id="paint12_linear_3129_7884" x1="202.521" y1="134.356" x2="170.687" y2="174.902" gradientUnits="userSpaceOnUse">
<stop stop-color="#0E112D"/>
<stop offset="1" stop-color="#0E112D" stop-opacity="0"/>
</linearGradient>
<linearGradient id="paint13_linear_3129_7884" x1="215.134" y1="162.103" x2="203.861" y2="176.462" gradientUnits="userSpaceOnUse">
<stop stop-color="#0E112D"/>
<stop offset="1" stop-color="#0E112D" stop-opacity="0"/>
</linearGradient>
<linearGradient id="paint14_linear_3129_7884" x1="664.808" y1="128.048" x2="381.245" y2="-188.062" gradientUnits="userSpaceOnUse">
<stop stop-color="#A10BD2"/>
<stop offset="1" stop-color="#16182B"/>
</linearGradient>
<linearGradient id="paint15_linear_3129_7884" x1="-541.606" y1="30.6477" x2="-367.269" y2="533.803" gradientUnits="userSpaceOnUse">
<stop stop-color="#A10BD2"/>
<stop offset="1" stop-color="#16182B"/>
</linearGradient>
<linearGradient id="paint16_linear_3129_7884" x1="45.9848" y1="0.641528" x2="-59.2047" y2="162.486" gradientUnits="userSpaceOnUse">
<stop stop-color="#9B55FF"/>
<stop offset="1" stop-color="#8C3CFF" stop-opacity="0.17"/>
</linearGradient>
<linearGradient id="paint17_linear_3129_7884" x1="46.5968" y1="55.6037" x2="611.733" y2="341.451" gradientUnits="userSpaceOnUse">
<stop stop-color="#FFAF96"/>
<stop offset="1" stop-color="#A0533B"/>
</linearGradient>
<linearGradient id="paint18_linear_3129_7884" x1="51.2358" y1="36.1325" x2="614.192" y2="340.012" gradientUnits="userSpaceOnUse">
<stop offset="0.042685" stop-color="#FFB49C"/>
<stop offset="0.173575" stop-color="#FFB198"/>
<stop offset="1" stop-color="#A0533B"/>
</linearGradient>
<linearGradient id="paint19_linear_3129_7884" x1="81.4888" y1="47.5104" x2="145.477" y2="53.9336" gradientUnits="userSpaceOnUse">
<stop stop-color="#FFE5D9"/>
<stop offset="1" stop-color="#FFDFD0" stop-opacity="0"/>
</linearGradient>
<linearGradient id="paint20_linear_3129_7884" x1="24.3486" y1="6.48916" x2="-10.409" y2="7.5149" gradientUnits="userSpaceOnUse">
<stop stop-color="#FFE5D9"/>
<stop offset="1" stop-color="#FFDFD0" stop-opacity="0"/>
</linearGradient>
<linearGradient id="paint21_linear_3129_7884" x1="144.505" y1="5.36776" x2="208.239" y2="174.956" gradientUnits="userSpaceOnUse">
<stop stop-color="#E87C72"/>
<stop offset="0.556889" stop-color="#E06D62" stop-opacity="0.2"/>
<stop offset="1" stop-color="#DC6459" stop-opacity="0.33"/>
</linearGradient>
<linearGradient id="paint22_linear_3129_7884" x1="98.9956" y1="5.36749" x2="163.658" y2="174.132" gradientUnits="userSpaceOnUse">
<stop stop-color="#E87C72"/>
<stop offset="0.556889" stop-color="#E06D62" stop-opacity="0.2"/>
<stop offset="1" stop-color="#DC6459" stop-opacity="0.33"/>
</linearGradient>
<linearGradient id="paint23_linear_3129_7884" x1="87.5404" y1="67.7546" x2="94.1883" y2="85.4548" gradientUnits="userSpaceOnUse">
<stop stop-color="#E87C72"/>
<stop offset="1" stop-color="#DC6459" stop-opacity="0"/>
</linearGradient>
<linearGradient id="paint24_linear_3129_7884" x1="61.2395" y1="89.7361" x2="378.89" y2="449.389" gradientUnits="userSpaceOnUse">
<stop stop-color="#E87C72"/>
<stop offset="1" stop-color="#DC6459" stop-opacity="0.46"/>
</linearGradient>
<linearGradient id="paint25_linear_3129_7884" x1="111.971" y1="59.2386" x2="105.171" y2="90.9245" gradientUnits="userSpaceOnUse">
<stop stop-color="#3261A8"/>
<stop offset="1" stop-color="#273F63" stop-opacity="0"/>
</linearGradient>
<linearGradient id="paint26_linear_3129_7884" x1="118.874" y1="58.4719" x2="109.447" y2="88.6746" gradientUnits="userSpaceOnUse">
<stop stop-color="#3261A8"/>
<stop offset="1" stop-color="#273F63" stop-opacity="0"/>
</linearGradient>
<linearGradient id="paint27_linear_3129_7884" x1="153.741" y1="62.3344" x2="145.385" y2="93.2189" gradientUnits="userSpaceOnUse">
<stop stop-color="#3261A8"/>
<stop offset="1" stop-color="#273F63" stop-opacity="0"/>
</linearGradient>
<linearGradient id="paint28_linear_3129_7884" x1="158.926" y1="63.1073" x2="148.179" y2="92.2956" gradientUnits="userSpaceOnUse">
<stop stop-color="#3261A8"/>
<stop offset="1" stop-color="#273F63" stop-opacity="0"/>
</linearGradient>
<linearGradient id="paint29_linear_3129_7884" x1="115.093" y1="73.5479" x2="111.098" y2="111.591" gradientUnits="userSpaceOnUse">
<stop stop-color="#F2FBFC"/>
<stop offset="1" stop-color="#F2FBFC" stop-opacity="0"/>
</linearGradient>
<linearGradient id="paint30_linear_3129_7884" x1="159.384" y1="73.548" x2="155.389" y2="111.592" gradientUnits="userSpaceOnUse">
<stop stop-color="#F2FBFC"/>
<stop offset="1" stop-color="#F2FBFC" stop-opacity="0"/>
</linearGradient>
<linearGradient id="paint31_linear_3129_7884" x1="28.3445" y1="3.78717" x2="-17.7562" y2="4.00436" gradientUnits="userSpaceOnUse">
<stop stop-color="#FFE5D9"/>
<stop offset="1" stop-color="#FFDFD0" stop-opacity="0"/>
</linearGradient>
<linearGradient id="paint32_linear_3129_7884" x1="129.615" y1="44.5919" x2="130.777" y2="135.804" gradientUnits="userSpaceOnUse">
<stop stop-color="#FFE5D9"/>
<stop offset="1" stop-color="#FFDFD0" stop-opacity="0"/>
</linearGradient>
<linearGradient id="paint33_linear_3129_7884" x1="86.6452" y1="89.7281" x2="129.267" y2="72.157" gradientUnits="userSpaceOnUse">
<stop stop-color="#FFE5D9"/>
<stop offset="1" stop-color="#FFDFD0" stop-opacity="0"/>
</linearGradient>
<linearGradient id="paint34_linear_3129_7884" x1="134.247" y1="127.487" x2="125.969" y2="127.159" gradientUnits="userSpaceOnUse">
<stop stop-color="#FFE0D5"/>
<stop offset="1" stop-color="#FFE0D5" stop-opacity="0"/>
</linearGradient>
</defs>
</svg>
