<svg viewBox="0 0 300 300" fill="none" xmlns="http://www.w3.org/2000/svg">
<mask id="mask0_3129_8152" style="mask-type:alpha" maskUnits="userSpaceOnUse" x="63" y="166" width="213" height="111">
<path d="M173.898 166.074L89.9284 181.756L85.2216 181.793L77.1854 185.068L69.9499 191.021L65.0516 199.698L63.5907 206.006L63.1193 224.501L63.4489 227.894L66.8613 232.847L88.3181 252.165L112.611 271.755L121.624 275.278L127.528 276.467L137.305 276.345L145.377 274.494L167.804 267.916L196.722 258.947L221.244 249.876L237.948 242.987L254.602 235.819L272.061 226.084L274.544 223.293L275.136 218.444L274.294 204.805L271.648 194.584L266.074 186.936L258.645 181.416L248.786 177.863L173.898 166.074Z" fill="url(#paint0_linear_3129_8152)"/>
</mask>
<g mask="url(#mask0_3129_8152)">
<path d="M173.898 166.074L89.9284 181.756L85.2216 181.793L77.1854 185.068L69.9499 191.021L65.0516 199.698L63.5907 206.006L63.1193 224.501L63.4489 227.894L66.8613 232.847L88.3181 252.165L112.611 271.755L121.624 275.278L127.528 276.467L137.305 276.345L145.377 274.494L167.804 267.916L196.722 258.947L221.244 249.876L237.948 242.987L254.602 235.819L272.061 226.084L274.544 223.293L275.136 218.444L274.294 204.805L271.648 194.584L266.074 186.936L258.645 181.416L248.786 177.863L173.898 166.074Z" fill="url(#paint1_linear_3129_8152)"/>
<path d="M73.9209 238.951C68.0935 223.669 75.6052 194.387 101.825 184.304C94.059 173.659 78.0674 152.201 76.2315 151.528C73.9366 150.686 40.0831 215.319 38.8573 218.874C37.8767 221.718 61.8244 233.444 73.9209 238.951Z" fill="url(#paint2_linear_3129_8152)"/>
<path fill-rule="evenodd" clip-rule="evenodd" d="M218.742 232.057C203.511 252.311 181.401 271.278 158.676 283.129C126.5 304.722 197.935 292.28 249.645 283.273C264.503 280.685 277.733 278.381 286.408 277.249C321.699 229.367 388.421 132.006 372.981 125.617C357.54 119.227 249.594 141.004 219.673 151.874C245.97 166.672 242.727 195.015 225.255 222.649C231.906 219.466 239.008 215.839 245.878 211.96C253.307 207.767 260.419 203.307 266.379 198.828C272.379 194.319 277.036 189.92 279.732 185.886L284.554 189.108C281.32 193.948 276.054 198.812 269.863 203.464C263.634 208.145 256.291 212.743 248.729 217.011C238.503 222.783 227.793 228.001 218.742 232.057Z" fill="#0D1029"/>
</g>
<mask id="mask1_3129_8152" style="mask-type:alpha" maskUnits="userSpaceOnUse" x="84" y="141" width="166" height="52">
<path d="M123.851 159.373L124.578 160.563L123.969 163.431L118.998 179.31L118.201 191.026L109.495 189.05L102.493 187.141L94.0119 184.366L89.6291 183.428L84.5223 182.301L97.9805 175.709L98.9201 174.427L108.213 168.663L109.749 167.383L118.104 162.244L123.851 159.373Z" fill="url(#paint3_linear_3129_8152)"/>
<path d="M201.668 152.704L189.224 144.937L182.397 141.588L187.137 149.934L186.622 155.704L184.51 163.38L180.414 172.293L177.452 177.831L173.15 185.25L167.497 192.971L190.817 190.502L203.816 189.158L216.1 186.83L229.278 183.369L239.183 181.218L247.212 179.038L249.975 178.311L222.9 166.383L220.858 164.951L205.518 155.691L203.933 154.947L201.668 152.704Z" fill="url(#paint4_linear_3129_8152)"/>
</mask>
<g mask="url(#mask1_3129_8152)">
<path d="M123.851 159.373L124.578 160.563L123.969 163.431L118.998 179.31L118.201 191.026L109.495 189.05L102.493 187.141L94.0119 184.366L89.6291 183.428L84.5223 182.301L97.9805 175.709L98.9201 174.427L108.213 168.663L109.749 167.383L118.104 162.244L123.851 159.373Z" fill="url(#paint5_linear_3129_8152)"/>
<path d="M201.668 152.704L189.224 144.937L182.397 141.588L187.137 149.934L186.622 155.704L184.51 163.38L180.414 172.293L177.452 177.831L173.15 185.25L167.497 192.971L190.817 190.502L203.816 189.158L216.1 186.83L229.278 183.369L239.183 181.218L247.212 179.038L249.975 178.311L222.9 166.383L220.858 164.951L205.518 155.691L203.933 154.947L201.668 152.704Z" fill="url(#paint6_linear_3129_8152)"/>
<path d="M91.6392 185.557L101.068 171.265L102.443 171.359L94.8654 186.649L91.6392 185.557Z" fill="url(#paint7_linear_3129_8152)"/>
<path d="M104.108 188.875L99.9048 187.21L104.977 176.086L107.45 170.52L109.936 167.567L114.148 164.442L104.108 188.875Z" fill="url(#paint8_linear_3129_8152)"/>
<path d="M232.289 184.86L225.235 185.566L224.5 175.798L223.568 170.567L222.31 166.276C222.351 165.674 221.224 162.024 221.245 161.724C221.265 161.425 222.986 162.427 223.844 162.965C223.844 162.965 229.613 169.4 232.289 184.86Z" fill="url(#paint9_linear_3129_8152)"/>
<path d="M213.346 187.918L202.071 189.884C202.071 189.884 204.943 181.363 204.666 177.128C204.666 177.128 205.661 171.731 205.344 167.157L205.062 161.19C203.69 154.452 204.001 152.829 204.022 152.53C204.042 152.231 205.555 150.905 206.412 151.444C206.412 151.444 212.212 164.945 213.346 187.918Z" fill="url(#paint10_linear_3129_8152)"/>
</g>
<path fill-rule="evenodd" clip-rule="evenodd" d="M186.721 148.878C186.721 148.878 186.99 153.377 185.113 159.36C184.686 161.589 183.408 164.493 181.571 168.019C179.853 171.317 178.396 174.754 176.739 178.084C174.134 183.317 170.322 188.805 167.043 192.554C166.923 192.69 166.935 192.898 167.071 193.018C167.208 193.139 167.416 193.127 167.536 192.991C170.475 189.721 173.852 185.111 176.448 180.482C179.043 175.853 181.418 171.047 183.612 166.214C184.781 163.64 185.651 161.187 185.958 159.519C187.883 152.932 187.471 148.9 187.471 148.9C187.477 148.693 187.314 148.52 187.106 148.514C186.9 148.508 186.727 148.671 186.721 148.878Z" fill="#623FC6"/>
<path d="M183.584 142.132C183.99 143.462 186.598 145.172 186.957 148.985" stroke="#623FC6" stroke-width="1.05448"/>
<path fill-rule="evenodd" clip-rule="evenodd" d="M123.18 163.705C123.18 163.705 119.895 169.645 117.575 190.574C117.546 190.886 117.744 191.161 118.017 191.188C118.289 191.215 118.534 190.984 118.562 190.671C121.972 170.375 124.089 164.141 124.089 164.141C124.2 163.852 124.085 163.52 123.834 163.399C123.583 163.279 123.29 163.416 123.18 163.705Z" fill="#623FC6"/>
<path fill-rule="evenodd" clip-rule="evenodd" d="M123.613 158.868L112.36 164.995C111.445 165.528 110.594 166.188 109.831 166.962C109.068 167.734 108.394 168.619 107.822 169.593L107.821 169.595C107.103 170.842 106.261 172.402 105.461 174.144C104.769 175.649 104.11 177.288 103.58 178.974C103.528 179.131 103.597 179.304 103.734 179.36C103.87 179.416 104.023 179.334 104.074 179.177C104.638 177.539 105.331 175.954 106.045 174.498C106.875 172.808 107.735 171.295 108.468 170.088C109.014 169.194 109.659 168.388 110.378 167.681C111.096 166.975 111.889 166.371 112.743 165.889L124.02 159.819C124.251 159.686 124.349 159.365 124.236 159.102C124.124 158.84 123.845 158.735 123.613 158.868Z" fill="#623FC6"/>
<path fill-rule="evenodd" clip-rule="evenodd" d="M110.26 166.72C110.26 166.72 107.943 168.156 105.366 169.783C103.659 170.861 101.841 172.029 100.493 172.887C99.7979 173.347 99.1518 173.894 98.5763 174.526C98.0029 175.155 97.4986 175.865 97.0716 176.639L95.1569 180.138C95.0974 180.241 95.121 180.379 95.2101 180.445C95.2987 180.512 95.4196 180.482 95.4796 180.379L97.5647 177.007C97.9929 176.307 98.4944 175.675 99.0489 175.111C99.6005 174.55 100.207 174.06 100.861 173.658C102.209 172.799 104.034 171.646 105.734 170.553C108.299 168.903 110.586 167.404 110.586 167.404C110.754 167.298 110.816 167.058 110.726 166.87C110.636 166.681 110.427 166.614 110.26 166.72Z" fill="#623FC6"/>
<path fill-rule="evenodd" clip-rule="evenodd" d="M98.1523 174.906L84.1641 181.817C83.9936 181.902 83.8905 182.105 83.9125 182.315C83.934 182.525 84.0756 182.69 84.2584 182.719C84.2584 182.719 88.0144 183.345 92.7057 184.562C95.3328 185.244 98.2533 186.111 100.971 187.16C101.954 187.55 102.95 187.901 103.955 188.213C104.96 188.526 105.976 188.799 107 189.033C110.74 189.906 116.108 191.085 120.48 192.309C122.733 192.941 124.72 193.582 126.072 194.203C127.795 194.994 128.705 196.081 129.531 197.226C130.473 198.532 131.319 199.906 132.944 201.085C133.897 201.777 135.118 202.402 136.785 202.899C136.954 202.95 137.125 202.991 137.297 203.02C137.47 203.05 137.645 203.068 137.82 203.076C137.821 203.076 137.823 203.076 137.824 203.076C138.976 203.119 140.156 202.869 141.378 202.434C145.099 201.111 149.224 198.011 154.153 196.861L156.256 196.332C158.48 195.78 164.885 194.203 173.094 192.929C178.244 192.128 184.106 191.444 190.094 191.217C197.174 190.96 204.471 189.834 211.396 188.404C224.59 185.678 236.424 181.85 242.794 180.928C243.208 180.884 243.617 180.819 244.022 180.731C244.431 180.643 244.836 180.532 245.237 180.398C245.233 180.398 249.879 178.857 249.879 178.857C250.085 178.789 250.232 178.579 250.245 178.335C250.259 178.091 250.134 177.868 249.937 177.779L221.965 165.349C221.744 165.251 221.558 165.243 221.468 165.498C221.377 165.751 221.483 166.038 221.704 166.137L248.195 178.228L244.969 179.281C244.6 179.402 244.227 179.503 243.851 179.583C243.475 179.662 243.096 179.721 242.715 179.759C242.709 179.759 242.703 179.76 242.697 179.761C236.317 180.657 224.445 184.437 211.215 187.127C204.343 188.524 197.102 189.628 190.078 189.865L190.076 189.865C184.045 190.092 178.141 190.773 172.954 191.583C164.701 192.872 158.264 194.48 156.019 195.041L153.94 195.571C148.97 196.748 144.814 199.873 141.063 201.222C139.969 201.616 138.912 201.854 137.879 201.82C137.744 201.814 137.61 201.8 137.477 201.778C137.344 201.756 137.211 201.726 137.081 201.686L137.079 201.686C135.542 201.234 134.414 200.669 133.535 200.037C132.017 198.945 131.237 197.654 130.356 196.442C129.429 195.167 128.402 193.969 126.475 193.095C125.087 192.465 123.049 191.813 120.738 191.178C116.347 189.973 110.959 188.823 107.202 187.968C107.201 187.968 107.201 187.968 107.2 187.968C106.196 187.744 105.2 187.482 104.213 187.182C103.227 186.881 102.249 186.542 101.283 186.166C101.282 186.165 101.281 186.165 101.28 186.164C98.528 185.119 95.5717 184.258 92.9126 183.584C89.9249 182.828 87.3136 182.308 85.7935 182.027L98.4393 175.685C98.6291 175.591 98.7188 175.34 98.6398 175.124C98.5604 174.909 98.3421 174.811 98.1523 174.906Z" fill="#623FC6"/>
<path fill-rule="evenodd" clip-rule="evenodd" d="M182.836 142.103L201.357 153.068C202.081 153.555 202.696 154.208 203.171 154.975C203.647 155.743 203.984 156.626 204.148 157.574C204.572 160.012 205.041 163.627 205.072 167.735C205.097 170.936 204.859 174.436 204.11 177.915C204.075 178.073 204.158 178.232 204.296 178.27C204.433 178.307 204.574 178.21 204.609 178.052C205.438 174.532 205.756 170.977 205.786 167.72C205.823 163.543 205.388 159.859 204.991 157.373L204.991 157.373C204.814 156.285 204.437 155.269 203.9 154.384C203.362 153.497 202.66 152.742 201.832 152.174L183.355 141.125C183.122 140.966 182.816 141.056 182.673 141.326C182.529 141.596 182.602 141.944 182.836 142.103Z" fill="#623FC6"/>
<path fill-rule="evenodd" clip-rule="evenodd" d="M203.545 155.109L220.422 165.088C220.885 165.36 221.297 165.721 221.642 166.153C221.988 166.586 222.267 167.09 222.461 167.644C222.845 168.759 223.316 170.344 223.704 172.307C223.986 173.733 224.225 175.358 224.355 177.15C224.363 177.279 224.462 177.375 224.575 177.363C224.688 177.351 224.774 177.237 224.765 177.107C224.668 175.285 224.457 173.63 224.196 172.176C223.836 170.165 223.382 168.54 223.009 167.393C223.009 167.392 223.009 167.391 223.008 167.39C222.797 166.757 222.489 166.179 222.103 165.679C221.717 165.178 221.251 164.757 220.727 164.438L203.923 154.303C203.73 154.188 203.489 154.275 203.385 154.497C203.28 154.72 203.352 154.994 203.545 155.109Z" fill="#623FC6"/>
<path fill-rule="evenodd" clip-rule="evenodd" d="M84.266 181.766L78.1182 184.465C73.619 186.44 69.8515 189.875 67.1788 194.184C64.505 198.495 62.9265 203.68 62.8058 209.155L62.4567 224.97C62.4253 226.401 62.6752 227.796 63.1693 229.062C63.6644 230.329 64.4041 231.467 65.3518 232.383C65.3522 232.384 65.3527 232.384 65.3532 232.385C70.0628 236.9 80.1443 246.391 91.3613 255.875C97.3219 260.914 103.603 265.951 109.57 270.241C114.431 273.732 119.823 276.018 125.413 277.036C131.003 278.054 136.79 277.802 142.439 276.223C142.439 276.223 142.439 276.223 142.44 276.223C160.545 271.11 191.77 261.805 221.146 250.653C240.171 243.43 258.419 235.43 271.84 227.305C271.844 227.303 271.847 227.301 271.851 227.299C273.083 226.516 274.065 225.363 274.716 224.007C275.367 222.652 275.687 221.094 275.596 219.502L274.905 207.31C274.543 200.993 272.53 195.146 269.292 190.398C266.055 185.65 261.594 182.001 256.337 180.078L249.383 177.533C249.078 177.421 248.746 177.616 248.643 177.966C248.539 178.317 248.703 178.693 249.008 178.804L255.962 181.351C260.993 183.194 265.262 186.689 268.359 191.235C271.456 195.78 273.381 201.377 273.724 207.423L274.412 219.613C274.488 220.941 274.22 222.24 273.677 223.371C273.135 224.498 272.319 225.457 271.295 226.109C257.921 234.201 239.737 242.156 220.786 249.353C191.445 260.496 160.262 269.814 142.179 274.929C136.685 276.47 131.054 276.719 125.614 275.735C120.172 274.751 114.92 272.535 110.185 269.142C104.235 264.877 97.9729 259.867 92.0286 254.855C80.8224 245.407 70.7486 235.952 66.0421 231.454C65.2129 230.655 64.5656 229.661 64.1317 228.555C63.6979 227.448 63.4776 226.229 63.504 224.978L63.8326 209.163C63.9413 203.926 65.445 198.964 67.9974 194.836C70.5509 190.708 74.1531 187.414 78.4579 185.516L84.6026 182.806C84.8556 182.695 84.9856 182.371 84.8928 182.084C84.8001 181.797 84.519 181.655 84.266 181.766Z" fill="#623FC6"/>
<path d="M131.531 251.491L135.699 251.956L135.193 256.954L131.025 256.489L131.531 251.491Z" fill="white"/>
<path d="M135.199 215.282L139.367 215.748L138.811 221.233L134.644 220.768L135.199 215.282Z" fill="white"/>
<path fill-rule="evenodd" clip-rule="evenodd" d="M133.971 248.736C135.443 248.9 136.922 248.391 138.082 247.32C139.243 246.249 139.991 244.705 140.161 243.026L143.861 243.439C143.577 246.237 142.331 248.811 140.396 250.596C138.461 252.381 135.996 253.23 133.543 252.956C131.09 252.682 128.851 251.308 127.317 249.136C125.783 246.964 125.08 244.172 125.364 241.374L129.063 241.787C128.893 243.466 129.315 245.141 130.235 246.444C131.155 247.748 132.499 248.572 133.971 248.736Z" fill="white"/>
<path fill-rule="evenodd" clip-rule="evenodd" d="M135.184 235.751C138.077 236.073 140.693 233.66 141.027 230.361C141.362 227.061 139.288 224.124 136.395 223.802C133.502 223.479 130.886 225.892 130.552 229.192C130.218 232.491 132.292 235.428 135.184 235.751ZM134.723 240.303C139.82 240.872 144.429 236.62 145.018 230.806C145.607 224.992 141.953 219.818 136.856 219.249C131.76 218.681 127.151 222.932 126.561 228.746C125.972 234.56 129.627 239.734 134.723 240.303Z" fill="white"/>
<path d="M113.195 154.588C99.182 133.528 94.6494 114.225 94.1492 106.993C91.3648 107.427 89.4764 109.722 89.4764 109.722C88.6048 103.708 90.7804 100.049 90.7804 100.049C83.4597 99.8528 82.0925 93.4036 82.324 90.2036C83.1002 92.573 88.0433 94.6564 88.0024 90.4078C87.9698 87.0089 83.8356 84.7282 80.7308 85.4055C80.7308 85.4055 80.7308 80.3746 84.285 76.1177C76.6701 74.8469 76.1962 66.5911 76.1962 66.5911C77.8957 68.4213 80.1725 67.8984 81.0985 67.4082C80.02 63.2249 82.4738 59.0744 83.8356 57.522C82.2015 58.6005 79.6142 58.7884 78.5248 58.7476C81.6295 57.7263 82.2015 55.9288 84.285 53.3551C79.3501 50.1523 79.8593 45.4571 80.7308 43.5098C80.5674 44.719 81.0441 45.7566 81.3029 46.1243C84.3422 43.0522 84.9114 37.4637 84.816 35.0534C86.0906 36.3607 86.845 37.9675 87.0629 38.6075C87.0956 33.738 91.5702 32.1393 93.8035 31.9487C93.2806 30.3473 91.3251 29.7291 90.4127 29.6201C94.3345 27.8635 96.0095 29.0073 98.2154 27.4141C97.954 22.806 100.231 20.7008 101.402 20.2242C100.667 27.0056 108.388 23.7783 107.816 22.5527C107.358 21.5723 105.773 21.2182 105.038 21.1638C110.308 17.8139 116.435 20.5101 120.684 19.8156C119.867 18.9006 117.647 18.4539 116.64 18.345C121.411 15.371 128.514 16.1798 131.469 16.956C129.639 15.5508 129.154 13.4019 129.14 12.5032C132.343 15.9021 137.992 16.888 140.416 16.956C139.402 15.42 137.243 14.4913 136.289 14.2189C146.029 13.7614 152.63 19.6115 154.714 22.5937C159.322 18.0183 166.819 18.8353 169.992 19.8157C164.175 20.1425 161.537 23.7566 160.945 25.5228C167.142 21.9818 175.659 26.779 179.143 29.6202C181.431 30.6333 183.304 30.7229 183.955 30.641C181.979 31.408 178.955 31.2851 177.69 31.1278C189.501 36.2077 193.121 47.003 197.538 53.5668C196.586 52.206 193.654 50.4483 192.308 49.7395C194.274 54.5873 195.71 57.9467 198.987 59.9144C197.091 60.206 195.055 59.6283 194.274 59.303C198.31 65.8449 199.18 73.2917 203.982 75.136C201.727 75.8876 198.613 73.5712 197.337 72.319C200.686 81.6468 203.496 83.7994 201.408 93.7513C201.476 91.5061 198.601 86.8625 198.601 86.8625C196.56 96.7619 200 102.537 201.975 104.188C199.164 103.862 196.925 102.158 196.157 101.347C198.823 107.578 197.564 113.092 197.564 113.092C195.363 111.656 193.537 112.367 193.537 112.367C196.242 114.247 196.784 117.521 196.784 117.521C193.959 115.243 189.437 117.104 187.529 118.319C187.871 120.187 190.348 121.223 191.544 121.508C187.808 122.701 184.292 121.011 183.001 120.016C183.502 123.356 183.083 125.978 182.811 126.872C181.882 123.796 179.603 121.02 178.579 120.016C179.405 137.08 184.426 143.026 186.757 148.629C187.37 160.747 176.791 180.666 166.965 192.705C152.082 195.463 149.147 197.145 141.685 200.96C137.391 203.231 133.387 200.873 130.45 196.768C128.608 193.307 125.7 192.521 118.57 190.605C119.587 179.028 123.01 169.319 123.952 163.694C123.952 163.694 123.946 158.782 123.562 156.981C121.173 157.229 119.18 157.257 117.703 157.211C115.855 157.153 114.22 156.127 113.195 154.588Z" fill="url(#paint11_linear_3129_8152)"/>
<defs>
<linearGradient id="paint0_linear_3129_8152" x1="-254.763" y1="38.6037" x2="-114.849" y2="411.49" gradientUnits="userSpaceOnUse">
<stop stop-color="#A10BD2"/>
<stop offset="1" stop-color="#16182B"/>
</linearGradient>
<linearGradient id="paint1_linear_3129_8152" x1="-254.763" y1="38.6037" x2="-114.849" y2="411.49" gradientUnits="userSpaceOnUse">
<stop stop-color="#A10BD2"/>
<stop offset="1" stop-color="#16182B"/>
</linearGradient>
<linearGradient id="paint2_linear_3129_8152" x1="97.4479" y1="-27.5882" x2="-39.4032" y2="132.567" gradientUnits="userSpaceOnUse">
<stop stop-color="#9B55FF"/>
<stop offset="1" stop-color="#8C3CFF" stop-opacity="0.17"/>
</linearGradient>
<linearGradient id="paint3_linear_3129_8152" x1="-21.538" y1="134.123" x2="335.885" y2="252.399" gradientUnits="userSpaceOnUse">
<stop stop-color="#9526B8"/>
<stop offset="1" stop-color="#210C42"/>
</linearGradient>
<linearGradient id="paint4_linear_3129_8152" x1="-21.538" y1="134.123" x2="335.885" y2="252.399" gradientUnits="userSpaceOnUse">
<stop stop-color="#9526B8"/>
<stop offset="1" stop-color="#210C42"/>
</linearGradient>
<linearGradient id="paint5_linear_3129_8152" x1="-21.538" y1="134.123" x2="335.885" y2="252.399" gradientUnits="userSpaceOnUse">
<stop stop-color="#9526B8"/>
<stop offset="1" stop-color="#210C42"/>
</linearGradient>
<linearGradient id="paint6_linear_3129_8152" x1="-21.538" y1="134.123" x2="335.885" y2="252.399" gradientUnits="userSpaceOnUse">
<stop stop-color="#9526B8"/>
<stop offset="1" stop-color="#210C42"/>
</linearGradient>
<linearGradient id="paint7_linear_3129_8152" x1="105.014" y1="148.758" x2="109.493" y2="187.319" gradientUnits="userSpaceOnUse">
<stop stop-color="#0E112D"/>
<stop offset="1" stop-color="#0E112D" stop-opacity="0"/>
</linearGradient>
<linearGradient id="paint8_linear_3129_8152" x1="125.244" y1="120.777" x2="151.41" y2="164.875" gradientUnits="userSpaceOnUse">
<stop stop-color="#0E112D"/>
<stop offset="1" stop-color="#0E112D" stop-opacity="0"/>
</linearGradient>
<linearGradient id="paint9_linear_3129_8152" x1="216.368" y1="142.321" x2="246.041" y2="186.3" gradientUnits="userSpaceOnUse">
<stop stop-color="#0E112D"/>
<stop offset="1" stop-color="#0E112D" stop-opacity="0"/>
</linearGradient>
<linearGradient id="paint10_linear_3129_8152" x1="198.787" y1="147.074" x2="228.46" y2="191.052" gradientUnits="userSpaceOnUse">
<stop stop-color="#0E112D"/>
<stop offset="1" stop-color="#0E112D" stop-opacity="0"/>
</linearGradient>
<linearGradient id="paint11_linear_3129_8152" x1="64.1241" y1="-1014.38" x2="-526.703" y2="-513.095" gradientUnits="userSpaceOnUse">
<stop stop-color="#A10BD2"/>
<stop offset="1" stop-color="#16182B"/>
</linearGradient>
</defs>
</svg>
