<svg width="517" height="293" viewBox="0 0 517 293" fill="none" xmlns="http://www.w3.org/2000/svg">
<path d="M403.534 147.691C389.436 150.716 381.057 167.352 384.809 184.837C388.56 202.323 403.025 214.058 417.123 211.033C431.221 208.009 439.598 191.373 435.847 173.888C432.095 156.402 417.63 144.667 403.534 147.691Z" fill="#130F2A"/>
<path d="M94.2712 255.911L71.6477 260.765C68.2842 259.74 61.421 257.3 60.8768 255.74C60.1965 253.79 67.3376 217.067 67.2717 215.946C67.219 215.049 88.1866 206.248 98.6769 201.96L116.169 207.377L94.2712 255.911Z" fill="#130F2B"/>
<path d="M300.538 211.659L277.915 216.513C274.551 215.488 267.688 213.048 267.144 211.488C266.463 209.538 273.605 172.815 273.539 171.694C273.486 170.797 294.453 161.996 304.944 157.708L322.435 163.125L300.538 211.659Z" fill="#130F2B"/>
<path d="M197.359 257.549L211.795 254.452C225.581 251.494 233.709 234.912 229.957 217.427C226.206 199.941 211.992 188.152 198.206 191.11L183.77 194.207C197.558 191.249 211.772 203.038 215.523 220.523C219.275 238.009 211.147 254.591 197.359 257.549Z" fill="#130F2A"/>
<path d="M415.871 210.669L430.307 207.572C444.093 204.614 452.221 188.033 448.469 170.547C444.718 153.061 430.504 141.273 416.718 144.23L402.282 147.327C416.07 144.369 430.284 156.158 434.036 173.643C437.787 191.129 429.66 207.711 415.871 210.669Z" fill="#130F2A"/>
<path d="M415.311 210.789L429.935 207.652C443.721 204.694 451.661 188.153 447.91 170.667C444.158 153.181 429.944 141.393 416.158 144.35L401.722 147.447" stroke="#6E33E5" stroke-width="1.22864"/>
<path d="M197.359 257.549L211.983 254.412C225.769 251.454 233.708 234.912 229.957 217.427C226.206 199.941 211.992 188.152 198.206 191.11L183.77 194.207" stroke="#6E33E5" stroke-width="1.22864"/>
<path d="M184.461 194.69C170.363 197.715 161.984 214.351 165.735 231.836C169.486 249.322 183.952 261.057 198.05 258.032C212.148 255.008 220.524 238.372 216.773 220.887C213.022 203.401 198.556 191.666 184.461 194.69Z" fill="#130F2A"/>
<path d="M402.542 148.532C388.89 151.461 380.581 167.667 384.288 184.949C387.996 202.23 402.222 213.602 415.873 210.673C429.525 207.744 437.833 191.539 434.125 174.257C430.417 156.975 416.191 145.604 402.542 148.532Z" stroke="#6E33E5" stroke-width="1.22864"/>
<path d="M184.589 195.291C170.938 198.22 162.628 214.426 166.336 231.708C170.043 248.989 184.269 260.36 197.921 257.432C211.572 254.503 219.88 238.297 216.172 221.016C212.465 203.734 198.239 192.363 184.589 195.291Z" stroke="#6E33E5" stroke-width="1.22864"/>
<mask id="mask0_3169_6069" style="mask-type:alpha" maskUnits="userSpaceOnUse" x="276" y="167" width="67" height="68">
<path d="M326.094 230.047L311.812 233.111L307.051 234.133L299.502 233.76L290.791 229.716L284.643 223.69L278.992 213.885L276.526 202.389L277.571 190.723L280.668 183.398L286.978 176.255L292.954 172.484L311.818 168.437L325.156 167.069L342.001 201.487L339.531 216.085L332.949 226.024L326.094 230.047Z" fill="url(#paint0_linear_3169_6069)"/>
</mask>
<g mask="url(#mask0_3169_6069)">
<path d="M326.094 230.047L311.812 233.111L307.051 234.133L299.502 233.76L290.791 229.716L284.643 223.69L278.992 213.885L276.526 202.389L277.571 190.723L280.668 183.398L286.978 176.255L292.954 172.484L311.818 168.437L325.156 167.069L342.001 201.487L339.531 216.085L332.949 226.024L326.094 230.047Z" fill="url(#paint1_linear_3169_6069)"/>
<path opacity="0.6" d="M314.985 231.296C329.996 221.228 332.588 180.008 300.204 171.778L305.974 172.19L313.253 174.936L321.886 182.706L326.951 193.075L328.951 206.668L326.109 218.921C324.368 221.815 320.831 227.667 320.617 227.929C320.449 228.135 317.428 229.895 314.985 231.296C314.406 231.684 313.808 232.027 313.192 232.319C313.702 232.03 314.322 231.676 314.985 231.296Z" fill="white"/>
<g style="mix-blend-mode:multiply" opacity="0.6">
<path d="M333.113 228.318L314.368 232.34L319.816 227.841L325.145 219.915L327.547 211.569L327.34 201.409L324.585 188.564L316.596 178.126L307.791 173.001L298.649 170.912L313.383 167.751C320.112 170.259 334.864 176.796 340.041 182.877C346.513 190.479 348.239 212.337 347.234 216.405C346.431 219.66 337.486 225.703 333.113 228.318Z" fill="url(#paint2_linear_3169_6069)"/>
</g>
<g style="mix-blend-mode:multiply" opacity="0.6">
<path d="M306.733 224.884L314.901 219.708L319.706 210.034C319.645 207.883 319.504 203.501 319.435 203.177C319.348 202.772 317.226 194.196 316.802 193.863C316.462 193.597 313.941 188.973 312.723 186.694L304.954 181.728C301.723 181.904 297.121 180.727 296.797 180.796C296.393 180.883 289.7 186.271 288.413 187.182C287.384 187.911 285.955 192.061 285.369 194.044L284.721 202.863L286.588 211.565C286.849 212.779 291.553 219.249 291.876 220.097C292.199 220.945 298.879 224.452 299.505 224.741C300.006 224.972 304.533 224.932 306.733 224.884Z" fill="url(#paint3_linear_3169_6069)"/>
</g>
</g>
<path d="M311.026 233.166L323.222 230.549C336.639 227.67 344.55 211.532 340.899 194.514C337.248 177.496 323.414 166.023 309.997 168.901L295.947 171.916" stroke="#6E33E5" stroke-width="1.63818"/>
<path d="M296.009 171.889C282.506 174.786 274.219 190.848 277.912 208.062C281.605 225.276 295.752 236.526 309.254 233.629C322.757 230.732 331.042 214.67 327.349 197.456C323.656 180.242 309.509 168.992 296.009 171.889Z" stroke="#6E33E5" stroke-width="1.63818"/>
<path d="M299.416 205.034L301.785 203.614L300.573 206.096L293.795 219.987L293.403 220.791C296.107 223.048 299.208 224.462 302.382 224.804L302.379 224.044L302.311 206.999L303.879 206.662L310.767 222.143L311.071 222.826C313.791 221.144 315.995 218.525 317.483 215.311L316.788 214.733L304.849 204.79L302.728 203.023L305.469 203.347L319.188 204.967L319.618 205.018C319.607 203.151 319.403 201.224 318.984 199.273C318.534 197.177 317.871 195.208 317.035 193.396L316.639 193.634L304.738 200.78L302.368 202.203L303.58 199.719L310.356 185.828L310.75 185.021C308.046 182.761 304.945 181.345 301.77 181.004L301.773 181.761L301.84 198.807L300.272 199.143L293.383 183.666L293.348 183.588L293.33 183.504L293.33 183.502L293.202 182.906C290.425 184.583 288.176 187.23 286.664 190.49L287.363 191.073L299.303 201.018L301.424 202.785L298.682 202.461L284.963 200.838L284.524 200.786C284.534 202.653 284.739 204.578 285.158 206.53C285.608 208.629 286.272 210.6 287.11 212.415L287.513 212.174L299.416 205.034ZM303.163 224.859L302.839 224.846C304.132 224.943 305.436 224.86 306.727 224.583C308.209 224.265 309.601 223.707 310.881 222.942L310.406 223.197C308.177 224.395 305.689 224.966 303.163 224.859ZM301.234 180.956C299.966 180.868 298.69 180.953 297.425 181.224C295.958 181.539 294.579 182.089 293.31 182.841L293.743 182.609C295.973 181.411 298.462 180.839 300.988 180.946L301.234 180.956Z" stroke="#6E33E5" stroke-width="1.63818"/>
<path d="M318.947 199.269C316.34 187.118 306.569 179.263 297.407 181.228C288.244 183.194 282.547 194.363 285.155 206.518C287.763 218.673 297.542 226.527 306.704 224.561C315.865 222.596 321.553 211.419 318.947 199.269Z" stroke="#6E33E5" stroke-width="1.63818"/>
<path d="M300.598 196.014C297.606 196.656 295.841 200.252 296.656 204.048C297.47 207.844 300.552 210.401 303.546 209.758C306.541 209.116 308.303 205.52 307.488 201.724C306.674 197.928 303.588 195.372 300.598 196.014Z" fill="#6E33E5"/>
<mask id="mask1_3169_6069" style="mask-type:alpha" maskUnits="userSpaceOnUse" x="75" y="210" width="66" height="68">
<path d="M125.076 273.173L110.794 276.237L106.033 277.258L98.4841 276.886L89.7734 272.841L83.6254 266.815L77.9738 257.01L75.0551 245.436L76.5528 233.848L79.6498 226.524L85.9603 219.381L91.9359 215.609L110.8 211.562L124.138 210.194L140.983 244.613L138.513 259.21L131.931 269.15L125.076 273.173Z" fill="url(#paint4_linear_3169_6069)"/>
</mask>
<g mask="url(#mask1_3169_6069)">
<path d="M125.076 273.173L110.794 276.237L106.033 277.258L98.4841 276.886L89.7734 272.841L83.6254 266.815L77.9738 257.01L75.0551 245.436L76.5528 233.848L79.6498 226.524L85.9603 219.381L91.9359 215.609L110.8 211.562L124.138 210.194L140.983 244.613L138.513 259.21L131.931 269.15L125.076 273.173Z" fill="url(#paint5_linear_3169_6069)"/>
<path opacity="0.6" d="M113.166 274.593C128.177 264.526 130.769 223.305 98.3851 215.076L104.155 215.488L111.435 218.233L120.067 226.004L125.132 236.373L127.132 249.966L124.29 262.219C122.549 265.112 119.012 270.965 118.798 271.227C118.63 271.433 115.609 273.193 113.166 274.593C112.587 274.982 111.989 275.324 111.373 275.617C111.883 275.327 112.503 274.974 113.166 274.593Z" fill="white"/>
<g style="mix-blend-mode:multiply" opacity="0.6">
<path d="M132.095 271.443L113.35 275.465L118.798 270.966L124.127 263.04L126.529 254.694L126.322 244.534L123.567 231.689L115.578 221.251L106.773 216.126L97.6311 214.037L112.364 210.876C119.094 213.384 133.846 219.921 139.023 226.002C145.495 233.604 147.221 255.462 146.216 259.53C145.413 262.785 136.468 268.828 132.095 271.443Z" fill="url(#paint6_linear_3169_6069)"/>
</g>
<g style="mix-blend-mode:multiply" opacity="0.6">
<path d="M105.267 267.761L113.434 262.586L118.24 252.912C118.178 250.761 118.038 246.378 117.968 246.055C117.881 245.65 115.759 237.073 115.335 236.741C114.996 236.475 112.475 231.851 111.257 229.572L103.488 224.606C100.256 224.781 93.7118 225.15 93.388 225.22C92.9833 225.307 88.233 229.148 86.9467 230.059C85.9176 230.788 84.4887 234.938 83.9029 236.922L83.2546 245.74L85.1215 254.442C85.382 255.656 90.0865 262.127 90.4096 262.975C90.7327 263.823 97.4122 267.329 98.0387 267.618C98.5399 267.849 103.066 267.81 105.267 267.761Z" fill="url(#paint7_linear_3169_6069)"/>
</g>
</g>
<path d="M109.639 276.371L121.836 273.754C135.253 270.876 143.163 254.737 139.512 237.719C135.861 220.701 122.027 209.228 108.61 212.106L94.5601 215.121" stroke="#6E33E5" stroke-width="1.63818"/>
<path d="M94.6222 215.094C81.1195 217.991 72.8327 234.053 76.5257 251.267C80.2187 268.481 94.3652 279.731 107.868 276.834C121.37 273.937 129.655 257.875 125.962 240.661C122.269 223.447 108.123 212.197 94.6222 215.094Z" stroke="#6E33E5" stroke-width="1.63818"/>
<path d="M98.0292 248.239L100.398 246.819L99.1866 249.301L92.4081 263.192L92.0159 263.996C94.7204 266.253 97.8208 267.667 100.995 268.009L100.992 267.249L100.925 250.204L102.492 249.868L109.38 265.348L109.685 266.032C112.404 264.35 114.608 261.73 116.096 258.516L115.402 257.938L103.462 247.995L101.341 246.228L104.083 246.552L117.801 248.172L118.232 248.223C118.221 246.356 118.016 244.429 117.597 242.478C117.147 240.382 116.485 238.413 115.649 236.601L115.253 236.839L103.351 243.985L100.981 245.408L102.193 242.924L108.97 229.033L109.363 228.226C106.659 225.966 103.558 224.55 100.383 224.209L100.386 224.966L100.453 242.012L98.8858 242.348L91.9959 226.871L91.9612 226.793L91.9433 226.709L91.9428 226.707L91.8149 226.111C89.0388 227.788 86.7896 230.435 85.2771 233.696L85.9762 234.278L97.9161 244.223L100.038 245.99L97.2956 245.666L83.5764 244.043L83.137 243.991C83.1477 245.858 83.3524 247.784 83.771 249.735C84.2214 251.834 84.8857 253.805 85.7238 255.62L86.1262 255.379L98.0292 248.239ZM101.776 268.065L101.452 268.051C102.746 268.148 104.049 268.065 105.34 267.788C106.823 267.47 108.214 266.912 109.494 266.147L109.02 266.402C106.79 267.6 104.302 268.171 101.776 268.065ZM99.8471 224.161C98.5796 224.073 97.3031 224.158 96.0381 224.429C94.571 224.744 93.1927 225.294 91.9229 226.046L92.3561 225.814C94.5861 224.616 97.0749 224.045 99.6014 224.151L99.8471 224.161Z" stroke="#6E33E5" stroke-width="1.63818"/>
<path d="M117.56 242.474C114.953 230.323 105.182 222.468 96.0208 224.433C86.8569 226.399 81.1608 237.568 83.7685 249.723C86.3762 261.878 96.1558 269.732 105.317 267.766C114.478 265.801 120.167 254.624 117.56 242.474Z" stroke="#6E33E5" stroke-width="1.63818"/>
<path d="M99.211 239.219C96.219 239.861 94.4546 243.457 95.2689 247.253C96.0833 251.049 99.1656 253.606 102.16 252.963C105.154 252.321 106.916 248.725 106.102 244.929C105.287 241.133 102.201 238.577 99.211 239.219Z" fill="#6E33E5"/>
<mask id="mask2_3169_6069" style="mask-type:alpha" maskUnits="userSpaceOnUse" x="25" y="67" width="475" height="199">
<path d="M112.588 123.606C82.9879 140.768 48.4439 175.207 48.4439 175.207C36.501 182.171 21.3581 196.754 26.102 218.865L33.4729 256.044C34.8962 262.679 40.9436 267.008 46.9801 265.712L72.8347 260.505C56.824 202.191 122.139 188.991 134.636 247.246C154.928 242.948 275.332 217.317 275.332 217.317C259.322 159.004 324.636 145.804 337.134 204.059L493.396 170.007C499.954 168.601 501.401 159.202 495.699 155.052L489.424 122.166C488.766 119.101 487.419 116.207 485.34 113.971C466.125 93.3012 443.453 91.8732 418.222 92.6065C389.21 93.4496 360.961 84.2761 332.722 75.5467C284.532 60.6504 243.062 68.2436 182.035 92.3188L229.734 119.988C235.347 123.311 234.363 132.306 228.244 133.618L119.73 156.899L112.588 123.606Z" fill="url(#paint8_linear_3169_6069)"/>
</mask>
<g mask="url(#mask2_3169_6069)">
<path d="M112.588 123.606C82.9879 140.768 48.4439 175.207 48.4439 175.207C36.501 182.171 21.3581 196.754 26.102 218.865L33.4729 256.044C34.8962 262.679 40.9436 267.008 46.9801 265.712L72.8347 260.505C56.824 202.191 122.139 188.991 134.636 247.246C154.928 242.948 275.332 217.317 275.332 217.317C259.322 159.004 324.636 145.804 337.134 204.059L493.396 170.007C499.954 168.601 501.401 159.202 495.699 155.052L489.424 122.166C488.766 119.101 487.419 116.207 485.34 113.971C466.125 93.3012 443.453 91.8732 418.222 92.6065C389.21 93.4496 360.961 84.2761 332.722 75.5467C284.532 60.6504 243.062 68.2436 182.035 92.3188L229.734 119.988C235.347 123.311 234.363 132.306 228.244 133.618L119.73 156.899L112.588 123.606Z" fill="url(#paint9_linear_3169_6069)"/>
<path d="M415.523 186.673C416.974 179.971 422.215 174.74 428.919 173.302L470.847 164.307C476.009 163.199 480.593 167.792 479.476 172.952L415.523 186.673Z" fill="#6E33E5"/>
<g style="mix-blend-mode:multiply" opacity="0.3">
<path d="M29.9317 182.182C55.2765 166.009 31.4491 173.005 33.8558 171.232C35.7849 169.815 37.9921 168.824 40.3322 168.321L42.0517 167.953C47.8777 166.583 54.9416 162.626 61.4298 156.371C75.3179 142.98 100.849 119.821 114.074 116.984L148.31 109.639C150.407 109.175 152.553 108.97 154.701 109.029C181.011 109.908 216.196 127.291 216.196 127.291C240.125 124.279 252.4 123.743 286.991 132.387C226.658 135.617 200.462 145.849 29.9317 182.182Z" fill="url(#paint10_linear_3169_6069)"/>
</g>
<g style="mix-blend-mode:screen">
<path d="M324.773 108.133L391.829 90.4073C395.858 91.6688 398.944 90.424 399.724 90.6833C402.389 88.4623 400.64 92.5136 400.804 92.4936C404.215 92.0893 475.233 70.0409 478.84 107.818C429.266 86.3874 351.872 105.017 324.773 108.133Z" fill="#A291FE"/>
</g>
<g style="mix-blend-mode:multiply" opacity="0.6">
<path d="M163.415 89.922L111.482 124.356C92.3735 131.282 72.9953 142.584 57.1976 153.144C34.747 168.152 25.5428 195.723 30.9432 222.183L39.4822 264.019C43.8274 280.099 47.5561 294.786 53.6715 298.25C58.5638 301.02 89.5707 225.111 103.464 222.628L130.36 247.549L260.663 219.594L254.304 189.952L251.321 179.795L245.762 157.388L245.99 144.652L248.808 137.096L253.744 130.787L258.455 126.57L264.813 122.89L192.681 86.9299L163.415 89.922Z" fill="url(#paint11_linear_3169_6069)"/>
</g>
<path d="M43.8408 270.596C34.6425 225.737 24.3878 203.133 41.7717 186.377C52.8974 175.654 67.8526 161.812 78.6888 150.796C85.3557 144.018 95.1582 135.501 109.561 125.007C76.4891 113.012 17.9465 182.866 17.9465 182.866C17.9465 182.866 6.9899 196.101 5.04524 202.747C3.10059 209.393 12.4319 268.541 18.5371 288.831C24.6423 309.122 70.0044 292.643 43.8408 270.596Z" fill="#6F5FFD"/>
<g style="mix-blend-mode:screen" opacity="0.3">
<path d="M227.935 134.062C227.935 134.062 189.959 141.562 174.172 145.486C158.384 149.411 125.234 156.998 125.234 156.998C125.234 156.998 173.056 152.021 227.935 134.062Z" fill="#A191FE"/>
</g>
<g style="mix-blend-mode:screen" opacity="0.3">
<path d="M230.367 145.391C230.367 145.391 192.295 152.389 176.457 156.104C160.619 159.819 127.371 166.967 127.371 166.967C127.371 166.967 175.255 162.623 230.367 145.391Z" fill="#A191FE"/>
</g>
<g style="mix-blend-mode:multiply" opacity="0.4">
<path d="M26.5505 264.809L52.9337 259.149C59.2906 257.785 63.1264 251.379 62.9529 244.88C62.4413 225.71 72.0743 206.933 90.3324 203.016C99.9573 200.951 108.119 202.367 115.086 206.356C127.745 213.609 142.52 216.225 157.041 215.002L252.326 206.937C263.561 205.981 266.439 200.118 267.625 189.789C272.255 149.906 319.373 152.354 336.43 181.576C337.965 184.209 340.236 186.334 342.962 187.688C345.687 189.041 348.747 189.565 351.764 189.193L389.023 184.594L348.339 193.322C347.659 193.466 347.018 193.755 346.459 194.169C345.901 194.582 345.437 195.112 345.1 195.721C344.763 196.331 344.56 197.006 344.506 197.701C344.451 198.395 344.546 199.094 344.784 199.75C345.094 200.597 345.398 201.445 345.697 202.294L338.23 203.896C329.569 179.182 317.766 163.094 294.922 167.995C277.045 171.83 271.904 191.554 278.718 216.663C238.148 225.367 182.756 237.251 136.446 247.186C127.785 222.473 114.312 204.481 91.4683 209.382C73.6435 213.206 68.2348 235.125 74.9583 260.142C69.3687 265.568 32.7335 270.909 32.6959 269.445L26.5505 264.809Z" fill="#9E8FFE"/>
</g>
</g>
<mask id="mask3_3169_6069" style="mask-type:alpha" maskUnits="userSpaceOnUse" x="194" y="68" width="205" height="55">
<path d="M398.082 92.9099L255.978 122.742L226.29 107.699L196.224 91.0039L194.416 89.3403C242.006 70.6998 274.478 68.2482 291.396 68.82C300.624 69.1319 309.681 71.1896 318.619 73.5031C341.974 79.5482 351.584 84.9451 398.082 92.9099Z" fill="url(#paint12_linear_3169_6069)"/>
</mask>
<g mask="url(#mask3_3169_6069)">
<path d="M398.082 92.9099L255.978 122.742L226.29 107.699L196.224 91.0039L194.416 89.3403C242.006 70.6998 274.478 68.2482 291.396 68.82C300.624 69.1319 309.681 71.1896 318.619 73.5031C341.974 79.5482 351.584 84.9451 398.082 92.9099Z" fill="url(#paint13_linear_3169_6069)"/>
<path style="mix-blend-mode:screen" d="M234.3 200.61C307.2 252.713 408.727 235.586 461.067 162.355C513.407 89.1235 496.74 -12.48 423.84 -64.5834C350.94 -116.687 249.413 -99.5593 197.073 -26.3283C144.733 46.9027 161.4 148.506 234.3 200.61Z" fill="url(#paint14_radial_3169_6069)"/>
<path style="mix-blend-mode:screen" d="M379.79 123.156C410.301 95.0031 412.353 47.5078 384.372 17.0721C356.391 -13.3636 308.974 -15.2144 278.462 12.9382C247.951 41.0909 245.9 88.5861 273.881 119.022C301.861 149.458 349.279 151.308 379.79 123.156Z" fill="url(#paint15_radial_3169_6069)"/>
<g style="mix-blend-mode:screen">
<path d="M340.96 76.5106C339.275 78.8678 336.933 80.6759 334.23 81.7073C331.526 82.7386 328.582 82.9471 325.768 82.3064C322.954 81.6658 320.395 80.2046 318.415 78.107C316.434 76.0093 315.121 73.3691 314.639 70.5186C314.157 67.6682 314.529 64.7352 315.708 62.0889C316.886 59.4427 318.819 57.2015 321.262 55.6477C323.706 54.0939 326.551 53.2971 329.439 53.3574C332.326 53.4177 335.128 54.3326 337.491 55.9868C339.081 57.0881 340.434 58.4967 341.471 60.1303C342.508 61.7639 343.209 63.5897 343.532 65.5008C343.855 67.4119 343.794 69.37 343.352 71.2604C342.91 73.1509 342.097 74.9358 340.96 76.5106Z" fill="white"/>
</g>
<path style="mix-blend-mode:screen" d="M-27.0712 17.0423C-25.9804 10.0259 136.236 27.0708 335.511 55.0977C534.786 83.1247 695.074 112.018 694 119.134C692.925 126.249 530.792 109.089 331.641 80.8876C132.49 52.6867 -28.0465 24.1412 -27.0712 17.0423Z" fill="url(#paint16_radial_3169_6069)"/>
<g opacity="0.7">
<path style="mix-blend-mode:screen" d="M255.833 140.876C286.037 162.464 328.277 155.124 350.177 124.483C372.077 93.8411 365.345 51.5007 335.141 29.9127C304.936 8.32472 262.697 15.6641 240.796 46.3057C218.896 76.9473 225.628 119.288 255.833 140.876Z" fill="url(#paint17_radial_3169_6069)"/>
<path style="mix-blend-mode:screen" d="M316.465 108.293C329.203 96.4931 330.148 76.6817 318.575 64.043C307.002 51.4043 287.294 50.7243 274.555 62.5241C261.817 74.324 260.872 94.1353 272.445 106.774C284.018 119.413 303.726 120.093 316.465 108.293Z" fill="url(#paint18_radial_3169_6069)"/>
<g style="mix-blend-mode:screen">
<path d="M300.413 88.9157C299.708 89.902 298.731 90.6606 297.605 91.0959C296.479 91.5313 295.255 91.6239 294.086 91.3622C292.918 91.1005 291.857 90.4961 291.038 89.6251C290.218 88.7541 289.677 87.6556 289.483 86.4678C289.288 85.28 289.448 84.0561 289.943 82.9502C290.438 81.8443 291.246 80.9059 292.265 80.2532C293.284 79.6005 294.468 79.2626 295.668 79.2822C296.869 79.3018 298.032 79.6779 299.011 80.3632C299.669 80.8194 300.229 81.4042 300.657 82.0835C301.085 82.7627 301.373 83.5228 301.504 84.3192C301.634 85.1156 301.605 85.9323 301.418 86.7215C301.23 87.5108 300.889 88.2567 300.413 88.9157Z" fill="white"/>
</g>
<path style="mix-blend-mode:screen" d="M147.533 64.8272C148 61.899 215.402 68.6932 298.189 79.9956C380.977 91.298 447.555 103.037 447.094 106.007C446.634 108.976 379.266 102.134 296.531 90.7585C213.795 79.3833 147.113 67.7896 147.533 64.8272Z" fill="url(#paint19_radial_3169_6069)"/>
</g>
<path opacity="0.3" d="M201.874 97.1168C188.283 91.5673 182.818 94.348 167.908 91.1789C167.647 91.1205 167.414 90.9747 167.248 90.7656C167.081 90.5566 166.991 90.2969 166.992 90.0296C166.994 89.7623 167.086 89.5035 167.255 89.2961C167.424 89.0888 167.658 88.9453 167.919 88.8896L306.232 59.2163C349.475 64.5489 407.635 82.4862 425.382 88.1692L369.618 100.133C317.336 81.0195 274.361 73.7309 201.874 97.1168Z" fill="white"/>
<rect opacity="0.6" width="9.63112" height="178.32" transform="matrix(-0.269531 0.962992 -0.982309 -0.187267 368 133.464)" fill="url(#paint20_linear_3169_6069)"/>
</g>
<path d="M398.082 92.9079L260.361 122.454C257.503 123.068 254.519 122.648 251.941 121.269L195.425 91.0415C193.935 90.2447 194.409 87.996 196.094 87.8683V87.8683" stroke="#6E33E5" stroke-width="1.63818"/>
<path d="M326.91 74.6996C281.72 62.2373 241.648 69.827 183.894 92.4673L229.73 119.607C236.144 123.405 234.563 133.1 227.275 134.664L119.902 157.699L119.101 157.871L118.929 157.07L111.744 123.58C92.9549 135.585 77.1776 148.305 66.042 158.083C60.3771 163.058 55.9152 167.269 52.871 170.236C51.3489 171.719 50.1814 172.891 49.3952 173.691C49.0021 174.091 48.7043 174.398 48.5053 174.605C48.4058 174.708 48.3309 174.786 48.2812 174.838L48.2255 174.897L48.2118 174.911L48.2085 174.915L48.2078 174.915C48.2077 174.916 48.2077 174.916 47.6124 174.353L48.2077 174.916L48.112 175.017L47.9883 175.081C31.246 183.73 22.37 202.52 26.3229 220.945L33.9058 256.29C35.2343 262.482 41.3311 266.425 47.5234 265.097L71.8197 259.884C68.045 245.547 69.1481 233.866 73.2399 225.287C77.4136 216.535 84.675 211.067 92.8779 209.36C109.192 205.964 128.766 217.44 135.262 246.275C146.344 243.927 180.59 236.642 212.423 229.868C228.742 226.396 244.427 223.058 256.032 220.588L269.949 217.626L273.805 216.805L274.317 216.696C270.543 202.359 271.646 190.679 275.738 182.1C279.911 173.348 287.173 167.88 295.376 166.173C311.689 162.777 331.262 174.252 337.759 203.086L493.17 169.745C499.647 168.355 501.428 159.956 496.071 156.058L495.818 155.873L495.752 155.567L488.543 121.965C487.962 119.256 486.77 116.727 484.923 114.725C467.685 96.0502 447.636 93.1224 425.184 93.2904C394.474 93.5202 365.066 85.3248 335.64 77.124C332.731 76.3132 329.821 75.5024 326.91 74.6996Z" stroke="#6E33E5" stroke-width="1.63818"/>
<path d="M132.652 239.223L273.038 209.104" stroke="#6E33E5" stroke-width="1.63818"/>
<path d="M410.091 141.139L373.964 148.889C372.996 149.097 371.999 148.704 371.433 147.892L362.529 135.116C361.438 133.551 362.463 131.421 364.369 131.352C375.727 130.935 405.875 130.828 410.091 141.139Z" fill="#6E33E5"/>
<path d="M454.616 131.585L489.183 124.169L487.319 118.083L483.656 112.637L476.823 106.513C476.082 118.915 454.141 117.825 454.616 131.585Z" fill="#6E33E5"/>
<path d="M47.1829 204.087L26.1168 208.607L27.007 203.241L27.9894 197.054L30.3146 191.742C36.4862 200.097 43.0064 195.048 47.1829 204.087Z" fill="#6E33E5"/>
<path d="M25.695 212.849L46.7612 208.329" stroke="#6E33E5" stroke-width="1.63818"/>
<path d="M119.189 157.939L124.123 180.94C125.252 186.202 130.057 189.656 135.068 191.618C141.378 194.088 145.897 198.967 150.161 203.979C159.038 214.414 172.796 216.533 186.191 213.659L245.443 200.947C251.384 199.672 255.056 193.692 253.504 187.817L246.523 161.38C241.629 142.85 253.21 123.99 271.948 119.969L399.441 92.6172" stroke="#6E33E5" stroke-width="1.63818"/>
<path d="M246.089 157.119L273.603 151.216C308.311 143.77 342.483 165.87 349.93 200.578V200.578" stroke="#6E33E5" stroke-width="1.63818"/>
<path d="M124.604 183.183L100.052 188.45C89.0077 190.82 81.9751 201.694 84.3446 212.738V212.738" stroke="#6E33E5" stroke-width="1.63818"/>
<path d="M118.604 165.811L55.3468 179.382C52.2071 180.055 49.1157 178.056 48.4421 174.916V174.916" stroke="#6E33E5" stroke-width="1.63818"/>
<path d="M32.2611 248.548L33.221 248.342C43.7444 246.084 54.1055 252.785 56.3632 263.308V263.308" stroke="#6E33E5" stroke-width="1.63818"/>
<path d="M229.323 134.61V134.61C229.865 137.135 228.257 139.62 225.733 140.162L132.439 160.177C129.914 160.719 127.429 159.111 126.887 156.587V156.587" stroke="#6E33E5" stroke-width="1.63818"/>
<path d="M486.502 170.6V170.6C487.806 163.601 481.568 157.53 474.607 159.023L424.364 169.802C415.499 171.704 408.645 178.746 406.984 187.659V187.659" stroke="#6E33E5" stroke-width="1.63818"/>
<path d="M418.968 120.432C418.968 120.432 441.74 124.74 444.462 114.946C444.462 114.946 436.246 120.335 418.968 120.432Z" fill="#6E33E5"/>
<mask id="mask4_3169_6069" style="mask-type:alpha" maskUnits="userSpaceOnUse" x="94" y="71" width="116" height="104">
<path d="M101.741 108.811L112.884 119.689L115.464 120.527L119.212 128.508L122.335 127.335L130.253 125.636L134.579 125.211L136.859 122.724L135.443 119.603C127.066 116.319 123.336 108.068 122.518 104.354C118.701 92.5984 125.735 82.5813 129.73 79.0421C137.376 71.7222 147.513 71.0754 151.625 71.6669L159.213 73.6511C166.3 76.9631 170.806 83.1829 172.174 85.8788L173.374 91.4751C175.751 99.5342 172.337 107.059 170.334 109.813L170.806 112.016L178.483 115.289L188.6 114.551L193.465 118.207L209.528 137.624L146.029 151.247L139.503 166.761L136.678 171.679L133.863 173.449L130.781 174.436L126.673 173.826L122.161 170.481L117.692 163.899L109.023 138.951L102.267 133.821L99.5142 129.354L100.895 127.427L101.032 123.754L94.1081 116.322L94.39 114.847L95.6968 113.588L106.23 121.116L106.675 120.151L100.174 110.126L101.741 108.811Z" fill="url(#paint21_linear_3169_6069)"/>
</mask>
<g mask="url(#mask4_3169_6069)">
<path d="M101.741 108.811L112.884 119.689L115.464 120.527L119.212 128.508L122.335 127.335L130.253 125.636L134.579 125.211L136.859 122.724L135.443 119.603C127.066 116.319 123.336 108.068 122.518 104.354C118.701 92.5984 125.735 82.5813 129.73 79.0421C137.376 71.7222 147.513 71.0754 151.625 71.6669L159.213 73.6511C166.3 76.9631 170.806 83.1829 172.174 85.8788L173.374 91.4751C175.751 99.5342 172.337 107.059 170.334 109.813L170.806 112.016L178.483 115.289L188.6 114.551L193.465 118.207L209.528 137.624L146.029 151.247L139.503 166.761L136.678 171.679L133.863 173.449L130.781 174.436L126.673 173.826L122.161 170.481L117.692 163.899L109.023 138.951L102.267 133.821L99.5142 129.354L100.895 127.427L101.032 123.754L94.1081 116.322L94.39 114.847L95.6968 113.588L106.23 121.116L106.675 120.151L100.174 110.126L101.741 108.811Z" fill="url(#paint22_linear_3169_6069)"/>
<g opacity="0.8">
<path d="M134.716 159.036L133.02 153.566L133.323 152.543L138.177 159.339L139.481 165.416L138.632 170.387C137.477 171.361 135.083 173.326 134.75 173.397L130.088 174.398L132.448 172.411L134.95 167.433L134.716 159.036Z" fill="#7A5EFF"/>
<path d="M184.396 128.173C184.511 127.813 186.11 121.86 186.058 121.392L185.554 120.829L180.982 116.056L181.208 117.11C181.297 118.865 181.444 122.458 181.324 122.791C181.203 123.124 180.495 125.558 180.156 126.733L181.81 131.317C182.634 130.389 184.305 128.461 184.396 128.173Z" fill="#7A5EFF"/>
<path d="M137.979 132.676L129.829 131.661L127.52 137.121L129.905 136.609L136.865 137.265L142.881 140.018L147.876 144.934L145.704 139.105L142.537 135.076L137.979 132.676Z" fill="#7A5EFF"/>
</g>
<path opacity="0.4" d="M146.885 129.726C162.112 131.322 172.802 118.489 171.594 113.018L167.569 119.455L159.327 124.602L150.029 126.935L140.816 125.195L136.578 122.501L129.235 131.058L130.754 131.577L138.795 132.836C140.623 130.353 143.817 129.404 146.885 129.726Z" fill="#8C70FF"/>
<path d="M158.902 146.654L185.056 138.37L189.412 146.628L161.094 152.703L158.902 146.654Z" fill="#D1BFFE"/>
<g style="mix-blend-mode:screen">
<path d="M131.579 173.033C121.869 170.788 113.929 149.421 109.716 138.075C109.186 140.92 107.541 147.738 107.415 149.229C107.258 151.092 116.209 166.117 118.269 168.3C119.916 170.047 125.461 173.89 128.027 175.594L131.579 173.033Z" fill="#A597FF"/>
<path d="M101.335 121.497L94.5986 115.266L93.93 115.409L101.252 123.823C101.985 123.236 102.024 122.135 101.335 121.497Z" fill="#A597FF"/>
<path d="M103.395 132.726L100.346 128.291L99.5285 128.466L101.724 133.085L105.099 134.148L108.004 134.107L103.395 132.726Z" fill="#A597FF"/>
<path d="M131.795 131.565L137.932 123.959L137.048 122.635L129.916 130.76L125.336 143.258L127.282 145.738L131.795 131.565Z" fill="#A597FF"/>
</g>
<g style="mix-blend-mode:multiply" opacity="0.4">
<path d="M146.261 74.5334L152.306 72.6189C152.79 71.8097 152.197 69.7107 151.915 69.2608C151.563 68.6985 136.568 65.3042 134.928 64.96C133.289 64.6159 110.979 78.2171 109.304 80.1423C107.63 82.0674 119.861 120.967 119.972 121.755C120.061 122.385 130.329 120.925 135.452 120.116L145.762 122.485C149.012 122.136 155.621 121.46 156.058 121.552C156.496 121.644 160.67 119.171 162.703 117.923L165.019 115.744L157.424 117.374L150.964 117.542L144.382 116.054L137.435 112.325L134.713 109.371L129.837 106.648L128.308 102.221L129.669 98.5648L129.755 93.5589L131.916 86.6001L138.365 78.5472L146.261 74.5334Z" fill="url(#paint23_linear_3169_6069)"/>
</g>
<path opacity="0.4" d="M163.647 116.584C126.414 136.869 104.489 77.553 151.527 72.3428C153.31 70.2506 156.845 65.7066 156.728 64.2681C156.581 62.4699 127.257 68.92 125.291 69.0237C123.717 69.1067 114.347 75.9855 109.859 79.4145L122.988 116.135L136.487 123.112L140.183 124.844L139.458 121.465L146.912 122.474L160.831 119.488L163.647 116.584Z" fill="white"/>
<g style="mix-blend-mode:multiply">
<path d="M150.816 122.208C143.422 123.883 137.487 121.265 135.444 119.746L135.774 121.282L137.427 123.308C153.684 131.962 165.908 122.072 169.988 116.046L171.848 111.548C171.192 110.729 169.601 109.804 168.485 112.657C167.09 116.225 160.06 120.114 150.816 122.208Z" fill="url(#paint24_linear_3169_6069)"/>
</g>
<g style="mix-blend-mode:multiply">
<path d="M138.226 161.694C139.286 158.983 126.186 143.744 125.436 142.93C125.428 142.927 125.424 142.926 125.424 142.926C125.391 142.885 125.397 142.887 125.436 142.93C125.939 143.131 142.181 149.699 142.435 159.122L140.529 164.128L139.458 165.915L138.226 161.694Z" fill="url(#paint25_linear_3169_6069)"/>
</g>
<g style="mix-blend-mode:multiply">
<path d="M108.942 138.736L110.2 142.423C117.101 138.239 121.437 139.129 121.437 139.129L117.67 134.544C117.67 134.544 113.921 135.776 108.942 138.736Z" fill="url(#paint26_linear_3169_6069)"/>
</g>
<g style="mix-blend-mode:multiply">
<path d="M110.206 129.426C109.102 128.483 107.912 127.492 105.484 125.305C105.484 125.305 105.873 127.425 108.816 129.759C109.04 133.663 107.73 134.847 106.357 133.986L104.653 134.472L106.929 136.649C109.121 135.904 110.42 134.803 111.188 133.79C112.251 132.39 111.543 130.568 110.206 129.426Z" fill="url(#paint27_linear_3169_6069)"/>
<path d="M113.464 130.172C112.732 129.849 111.701 129.388 111.076 129.084L112.863 128.891L115.599 125.933C115.339 126.931 114.867 128.614 114.575 129.648C114.44 130.125 113.917 130.372 113.464 130.172Z" fill="url(#paint28_linear_3169_6069)"/>
</g>
<g style="mix-blend-mode:multiply">
<path d="M199.926 142.207L197.144 137.427C197.144 137.427 193.702 139.497 186.149 140.265L188.615 145.06L199.926 142.207Z" fill="url(#paint29_linear_3169_6069)"/>
</g>
<g style="mix-blend-mode:multiply">
<path d="M129.193 132.651L134.561 124.924L118.913 127.56C118.79 129.088 118.546 132.233 118.551 132.592C118.556 132.951 117.901 133.902 117.573 134.333L125.8 143.287L129.193 132.651Z" fill="url(#paint30_linear_3169_6069)"/>
<path d="M193.505 112.278L179.734 115.232L183.373 118.257L198.962 140.817L210.419 138.36L193.505 112.278Z" fill="url(#paint31_linear_3169_6069)"/>
</g>
<path d="M134.851 105.879L135.852 105.664L136.077 106.713L135.076 106.928L134.851 105.879Z" fill="white"/>
<path d="M133.22 98.2803L134.222 98.0655L134.469 99.2168L133.467 99.4316L133.22 98.2803Z" fill="white"/>
<path fill-rule="evenodd" clip-rule="evenodd" d="M135.23 105.142C135.583 105.066 135.892 104.853 136.089 104.551C136.285 104.248 136.353 103.88 136.277 103.528L137.166 103.337C137.292 103.924 137.179 104.538 136.851 105.042C136.524 105.547 136.009 105.901 135.42 106.028C134.83 106.154 134.215 106.042 133.71 105.716C133.204 105.39 132.849 104.877 132.723 104.29L133.612 104.099C133.687 104.452 133.9 104.76 134.204 104.955C134.507 105.151 134.876 105.218 135.23 105.142Z" fill="white"/>
<path fill-rule="evenodd" clip-rule="evenodd" d="M134.621 102.422C135.316 102.273 135.759 101.591 135.61 100.898C135.462 100.206 134.778 99.7654 134.083 99.9144C133.388 100.063 132.945 100.746 133.094 101.438C133.243 102.131 133.926 102.571 134.621 102.422ZM134.826 103.378C136.05 103.115 136.83 101.913 136.569 100.693C136.307 99.4726 135.102 98.6964 133.878 98.959C132.654 99.2217 131.874 100.424 132.135 101.644C132.397 102.864 133.602 103.64 134.826 103.378Z" fill="white"/>
<mask id="mask5_3169_6069" style="mask-type:alpha" maskUnits="userSpaceOnUse" x="136" y="70" width="39" height="46">
<path d="M137.201 89.105L136.386 95.4976L141.739 99.747L141.908 103.4L140.318 106.816L147.197 113.403L155.512 115.855L162.283 115.564L166.262 114.369C167.343 113.568 169.55 111.86 169.733 111.438C169.916 111.016 172.335 108.807 173.521 107.755C173.995 104.761 174.867 98.2972 174.568 96.3936C174.194 94.014 173.034 80.3243 171.643 78.2996C170.252 76.275 160.611 70.8275 159.668 70.893C158.914 70.9455 154.169 72.4372 151.891 73.1766L145.154 76.8083L139.09 83.5754L137.201 89.105Z" fill="url(#paint32_linear_3169_6069)"/>
</mask>
<g mask="url(#mask5_3169_6069)">
<path d="M137.201 89.105L136.386 95.4976L141.739 99.747L141.908 103.4L140.318 106.816L147.197 113.403L155.512 115.855L162.283 115.564L166.262 114.369C167.343 113.568 169.55 111.86 169.733 111.438C169.916 111.016 172.335 108.807 173.521 107.755C173.995 104.761 174.867 98.2972 174.568 96.3936C174.194 94.014 173.034 80.3243 171.643 78.2996C170.252 76.275 160.611 70.8275 159.668 70.893C158.914 70.9455 154.169 72.4372 151.891 73.1766L145.154 76.8083L139.09 83.5754L137.201 89.105Z" fill="url(#paint33_linear_3169_6069)"/>
<g style="mix-blend-mode:screen" opacity="0.4">
<ellipse rx="3.95275" ry="4.48628" transform="matrix(-0.651976 0.75824 0.75824 0.651976 150.511 87.1692)" fill="url(#paint34_linear_3169_6069)"/>
</g>
<g style="mix-blend-mode:screen" opacity="0.8">
<path d="M157.138 70.7525C151.243 73.3165 156.606 76.3184 162.902 77.1149C182.206 98.2652 161.689 116.191 161.689 116.191C162.218 122.107 159.135 138.593 157.445 147.631C156.69 151.665 156.213 154.215 156.459 153.679L207.132 114.459C198.803 94.6947 181.933 55.0804 181.081 54.7385C180.015 54.3111 143.074 50.9542 143.831 52.8907C144.046 53.4389 145.72 55.5218 147.843 58.1618C151.111 62.2274 155.442 67.6144 157.138 70.7525Z" fill="url(#paint35_linear_3169_6069)"/>
</g>
</g>
</g>
<path d="M147.762 145.047L138.472 169.189M147.762 145.047C139.231 133.821 127.571 136.916 127.571 136.916M147.762 145.047C145.408 132.176 134.523 131.443 129.489 131.713M136.836 122.658L129.489 131.713M129.489 131.713L125.314 143.039M133.094 153.121L139.005 138.06M170.666 112.375L178.724 115.146C181.037 115.941 183.034 117.454 184.425 119.465L199.206 140.823" stroke="#6E33E5" stroke-width="1.22864"/>
<path d="M135.636 119.93V119.93C136.05 121.863 137.209 123.614 138.991 124.468C153.939 131.632 169.569 120.95 170.736 113.876C170.823 113.35 170.749 112.817 170.638 112.296L170.2 110.255" stroke="#6E33E5" stroke-width="1.22864"/>
<path d="M117.395 134.218L133.983 153.632C135.848 155.815 137.603 158.158 138.412 160.913C140.016 166.373 139.611 173.303 130.267 174.432C118.608 174.324 114.881 154.533 108.721 138.597M108.721 138.597L103.373 133.912M108.721 138.597L111.285 137.499M103.373 133.912L102.157 133.417C101.987 133.348 101.845 133.223 101.754 133.063L99.6874 129.423C99.5183 129.125 99.5524 128.753 99.7729 128.491L101.08 126.936M103.373 133.912L107 134.449C107.458 134.516 107.918 134.347 108.224 133.999V133.999C108.829 133.31 108.593 132.231 107.755 131.856L104.767 130.521L101.08 126.936M101.08 126.936L101.157 123.585L94.454 116.611C93.7776 115.907 93.848 114.775 94.6065 114.16V114.16C95.2154 113.667 96.0857 113.665 96.6975 114.154L105.135 120.909C105.5 121.201 106.022 121.188 106.371 120.878L106.434 120.822C106.763 120.53 106.821 120.038 106.568 119.677L100.394 110.882C99.9014 110.18 100.143 109.205 100.906 108.814V108.814C101.462 108.529 102.139 108.644 102.57 109.096L113.12 120.138" stroke="#6E33E5" stroke-width="1.22864"/>
<path d="M132.489 151.924C135.206 157.939 138.469 171.563 129.104 174.367" stroke="#6E33E5" stroke-width="1.22864"/>
<path d="M114.047 136.229L116.254 135.16C117.594 134.51 118.476 133.184 118.557 131.697L118.728 128.558C118.781 127.572 118.597 126.587 118.19 125.688L116.344 121.609C115.988 120.824 115.235 120.292 114.376 120.221V120.221C113.331 120.133 112.353 120.741 111.967 121.715L111.24 123.554C111.226 123.59 111.216 123.627 111.211 123.665L110.768 127.242C110.675 127.991 111.135 128.698 111.858 128.916V128.916C112.576 129.133 113.346 128.804 113.686 128.136L115.007 125.543" stroke="#6E33E5" stroke-width="1.22864"/>
<path d="M104.741 124.811L105.621 126.292C106.264 127.376 107.151 128.296 108.211 128.979V128.979C109.35 129.714 109.571 131.29 108.677 132.31L108.562 132.441" stroke="#6E33E5" stroke-width="1.22864"/>
<path d="M185.59 121.249C185.59 121.249 186.688 126.365 182.226 131.152" stroke="#6E33E5" stroke-width="1.22864"/>
<path d="M180.445 115.894C180.445 115.894 183.325 122.542 179.817 126.887" stroke="#6E33E5" stroke-width="1.22864"/>
<path d="M118.468 128.238L135.267 124.634M209.641 137.693L194.066 118.405C190.93 115.45 187.207 113.491 182.994 114.395L178.974 115.257" stroke="#6E33E5" stroke-width="1.22864"/>
<path d="M173.81 91.5198C176.753 105.238 167.576 118.881 153.252 121.954C138.928 125.027 124.962 116.349 122.019 102.631C119.076 88.9126 128.253 75.2696 142.577 72.1965C156.901 69.1235 170.867 77.8015 173.81 91.5198Z" stroke="#6E33E5" stroke-width="1.22864"/>
<path d="M167.192 114.177C164.312 115.486 161.182 116.15 158.02 116.123C154.857 116.096 151.739 115.379 148.882 114.022C146.026 112.665 143.5 110.7 141.482 108.265C141.06 107.756 140.662 107.228 140.29 106.685M156.313 72.7708C153.162 73.0461 150.11 74.0062 147.369 75.5839C144.628 77.1617 142.265 79.319 140.444 81.9051C138.624 84.4912 137.39 87.4437 136.83 90.5562C136.518 92.288 136.418 94.0461 136.53 95.792" stroke="#6E33E5" stroke-width="1.22864"/>
<g style="mix-blend-mode:multiply">
<path d="M129.012 106.002L132.195 108.388C133.589 108.619 136.482 109.093 136.902 109.139C137.321 109.186 139.044 107.562 139.854 106.744C140.557 105.343 141.956 102.452 141.925 102.095C141.886 101.649 140.663 98.3318 140.387 98.1068C140.167 97.9268 138.355 96.4026 137.476 95.663L133.158 96.1917L129.581 98.3228C129.28 99.3912 128.65 101.613 128.542 101.955C128.433 102.296 128.81 104.795 129.012 106.002Z" fill="url(#paint36_linear_3169_6069)"/>
</g>
<path d="M164.779 115.467C161.336 116.92 157.616 117.692 153.883 117.729C150.15 117.766 146.499 117.067 143.191 115.685C139.883 114.304 137.001 112.275 134.744 109.747C134.571 109.554 134.403 109.358 134.238 109.16M154.155 72.5687C150.421 72.8405 146.757 73.8423 143.426 75.5021C140.095 77.1618 137.182 79.4371 134.892 82.1625C132.602 84.8877 130.991 87.9946 130.169 91.2601C129.592 93.5494 129.412 95.8787 129.628 98.1667" stroke="#6E33E5" stroke-width="1.22864"/>
<circle cx="135.04" cy="102.413" r="6.7322" transform="rotate(-12.1086 135.04 102.413)" stroke="#6E33E5" stroke-width="1.22864"/>
<path d="M159.813 149.583L154.211 135.03L179.875 126.783L187.274 142.873" stroke="#6E33E5" stroke-width="1.22864"/>
<g style="mix-blend-mode:screen" opacity="0.6">
<path d="M490.081 132.993L372.447 158.23C365.985 159.616 359.252 157.915 353.757 154.244C342.172 146.504 319.65 133.95 292.398 131.384C320.91 131.31 342.435 142.432 353.724 149.953C359.533 153.824 366.648 155.817 373.474 154.352L489.33 129.496L490.081 132.993Z" fill="#A191FE"/>
</g>
<rect x="164.026" y="134.514" width="10.7488" height="3.75836" rx="1.87918" transform="rotate(-17.5046 164.026 134.514)" fill="#8C70FF"/>
<rect x="165.83" y="139.398" width="10.7488" height="3.75836" rx="1.87918" transform="rotate(-17.5046 165.83 139.398)" fill="#8C70FF"/>
<defs>
<linearGradient id="paint0_linear_3169_6069" x1="932.069" y1="-31.0333" x2="443.732" y2="-213.226" gradientUnits="userSpaceOnUse">
<stop stop-color="#EFC0FF"/>
<stop offset="0.991726" stop-color="#9187FF"/>
</linearGradient>
<linearGradient id="paint1_linear_3169_6069" x1="932.069" y1="-31.0333" x2="443.732" y2="-213.226" gradientUnits="userSpaceOnUse">
<stop stop-color="#EFC0FF"/>
<stop offset="0.991726" stop-color="#9187FF"/>
</linearGradient>
<linearGradient id="paint2_linear_3169_6069" x1="348.554" y1="210.288" x2="313.595" y2="47.3391" gradientUnits="userSpaceOnUse">
<stop stop-color="#AC8EFF"/>
<stop offset="1" stop-color="#B89FFE" stop-opacity="0"/>
</linearGradient>
<linearGradient id="paint3_linear_3169_6069" x1="295.386" y1="220.417" x2="401.052" y2="0.904722" gradientUnits="userSpaceOnUse">
<stop stop-color="#B89FFE"/>
<stop offset="1" stop-color="#B89FFE" stop-opacity="0"/>
</linearGradient>
<linearGradient id="paint4_linear_3169_6069" x1="731.051" y1="12.0922" x2="242.714" y2="-170.101" gradientUnits="userSpaceOnUse">
<stop stop-color="#EFC0FF"/>
<stop offset="0.991726" stop-color="#9187FF"/>
</linearGradient>
<linearGradient id="paint5_linear_3169_6069" x1="731.051" y1="12.0922" x2="242.714" y2="-170.101" gradientUnits="userSpaceOnUse">
<stop stop-color="#EFC0FF"/>
<stop offset="0.991726" stop-color="#9187FF"/>
</linearGradient>
<linearGradient id="paint6_linear_3169_6069" x1="147.536" y1="253.413" x2="112.577" y2="90.4641" gradientUnits="userSpaceOnUse">
<stop stop-color="#AA8CFF"/>
<stop offset="1" stop-color="#B89FFE" stop-opacity="0"/>
</linearGradient>
<linearGradient id="paint7_linear_3169_6069" x1="93.9195" y1="263.294" x2="199.586" y2="43.7822" gradientUnits="userSpaceOnUse">
<stop stop-color="#B89FFE"/>
<stop offset="1" stop-color="#B89FFE" stop-opacity="0"/>
</linearGradient>
<linearGradient id="paint8_linear_3169_6069" x1="1733.6" y1="-822.21" x2="28.048" y2="232.89" gradientUnits="userSpaceOnUse">
<stop stop-color="#F3CFFF"/>
<stop offset="0.991726" stop-color="#9187FF"/>
</linearGradient>
<linearGradient id="paint9_linear_3169_6069" x1="1733.6" y1="-822.21" x2="28.048" y2="232.89" gradientUnits="userSpaceOnUse">
<stop stop-color="#F3CFFF"/>
<stop offset="0.991726" stop-color="#9187FF"/>
</linearGradient>
<linearGradient id="paint10_linear_3169_6069" x1="294.722" y1="126.818" x2="77.5191" y2="156.693" gradientUnits="userSpaceOnUse">
<stop stop-color="#A191FE"/>
<stop offset="1" stop-color="#A191FE" stop-opacity="0"/>
</linearGradient>
<linearGradient id="paint11_linear_3169_6069" x1="90.0307" y1="262.394" x2="111.859" y2="85.6703" gradientUnits="userSpaceOnUse">
<stop stop-color="#B89FFE"/>
<stop offset="1" stop-color="#B89FFE" stop-opacity="0"/>
</linearGradient>
<linearGradient id="paint12_linear_3169_6069" x1="310.981" y1="51.3178" x2="328.682" y2="172.807" gradientUnits="userSpaceOnUse">
<stop stop-color="#C5D8FF"/>
<stop offset="1" stop-color="#C6D9FF" stop-opacity="0"/>
</linearGradient>
<linearGradient id="paint13_linear_3169_6069" x1="310.981" y1="51.3178" x2="328.682" y2="172.807" gradientUnits="userSpaceOnUse">
<stop stop-color="#C5D8FF"/>
<stop offset="1" stop-color="#C6D9FF" stop-opacity="0"/>
</linearGradient>
<radialGradient id="paint14_radial_3169_6069" cx="0" cy="0" r="1" gradientUnits="userSpaceOnUse" gradientTransform="translate(329.07 68.0131) rotate(35.5543) scale(162.245 162.982)">
<stop stop-color="#2E00A7"/>
<stop offset="0.09" stop-color="#280091"/>
<stop offset="0.31" stop-color="#1A005E"/>
<stop offset="0.52" stop-color="#0F0035"/>
<stop offset="0.71" stop-color="#070018"/>
<stop offset="0.88" stop-color="#020006"/>
<stop offset="1"/>
</radialGradient>
<radialGradient id="paint15_radial_3169_6069" cx="0" cy="0" r="1" gradientUnits="userSpaceOnUse" gradientTransform="translate(329.128 68.0114) rotate(35.5543) scale(74.8442 75.1841)">
<stop stop-color="#8647A7"/>
<stop offset="0.09" stop-color="#743E91"/>
<stop offset="0.31" stop-color="#4B285E"/>
<stop offset="0.52" stop-color="#2B1735"/>
<stop offset="0.71" stop-color="#130A18"/>
<stop offset="0.88" stop-color="#050306"/>
<stop offset="1"/>
</radialGradient>
<radialGradient id="paint16_radial_3169_6069" cx="0" cy="0" r="1" gradientUnits="userSpaceOnUse" gradientTransform="translate(330.454 68.6035) rotate(-171.867) scale(363.719 12.7583)">
<stop stop-color="#592097"/>
<stop offset="0.08" stop-color="#4D1C83"/>
<stop offset="0.3" stop-color="#321254"/>
<stop offset="0.5" stop-color="#1C0A30"/>
<stop offset="0.7" stop-color="#0D0515"/>
<stop offset="0.87" stop-color="#030106"/>
<stop offset="1"/>
</radialGradient>
<radialGradient id="paint17_radial_3169_6069" cx="0" cy="0" r="1" gradientUnits="userSpaceOnUse" gradientTransform="translate(295.487 85.3942) rotate(35.5543) scale(67.2231 68.1955)">
<stop stop-color="#2E00A7"/>
<stop offset="0.09" stop-color="#280091"/>
<stop offset="0.31" stop-color="#1A005E"/>
<stop offset="0.52" stop-color="#0F0035"/>
<stop offset="0.71" stop-color="#070018"/>
<stop offset="0.88" stop-color="#020006"/>
<stop offset="1"/>
</radialGradient>
<radialGradient id="paint18_radial_3169_6069" cx="0" cy="0" r="1" gradientUnits="userSpaceOnUse" gradientTransform="translate(295.511 85.3937) rotate(35.5543) scale(31.0102 31.4588)">
<stop stop-color="#8647A7"/>
<stop offset="0.09" stop-color="#743E91"/>
<stop offset="0.31" stop-color="#4B285E"/>
<stop offset="0.52" stop-color="#2B1735"/>
<stop offset="0.71" stop-color="#130A18"/>
<stop offset="0.88" stop-color="#050306"/>
<stop offset="1"/>
</radialGradient>
<radialGradient id="paint19_radial_3169_6069" cx="0" cy="0" r="1" gradientUnits="userSpaceOnUse" gradientTransform="translate(296.061 85.6378) rotate(-172.098) scale(151.017 5.32717)">
<stop stop-color="#592097"/>
<stop offset="0.08" stop-color="#4D1C83"/>
<stop offset="0.3" stop-color="#321254"/>
<stop offset="0.5" stop-color="#1C0A30"/>
<stop offset="0.7" stop-color="#0D0515"/>
<stop offset="0.87" stop-color="#030106"/>
<stop offset="1"/>
</radialGradient>
<linearGradient id="paint20_linear_3169_6069" x1="2.45001" y1="62.1773" x2="45.8117" y2="179.65" gradientUnits="userSpaceOnUse">
<stop stop-color="white"/>
<stop offset="0.833333" stop-color="white" stop-opacity="0"/>
</linearGradient>
<linearGradient id="paint21_linear_3169_6069" x1="141.424" y1="78.525" x2="121.175" y2="187.516" gradientUnits="userSpaceOnUse">
<stop stop-color="#F4D5FF"/>
<stop offset="0.991726" stop-color="#9187FF"/>
</linearGradient>
<linearGradient id="paint22_linear_3169_6069" x1="141.424" y1="78.525" x2="121.175" y2="187.516" gradientUnits="userSpaceOnUse">
<stop stop-color="#F4D5FF"/>
<stop offset="0.991726" stop-color="#9187FF"/>
</linearGradient>
<linearGradient id="paint23_linear_3169_6069" x1="129.996" y1="65.9791" x2="142.544" y2="124.467" gradientUnits="userSpaceOnUse">
<stop stop-color="#A081FD" stop-opacity="0"/>
<stop offset="1" stop-color="#A081FD"/>
</linearGradient>
<linearGradient id="paint24_linear_3169_6069" x1="120.487" y1="131.781" x2="203.268" y2="98.5451" gradientUnits="userSpaceOnUse">
<stop stop-color="#B89FFE"/>
<stop offset="1" stop-color="#B89FFE" stop-opacity="0"/>
</linearGradient>
<linearGradient id="paint25_linear_3169_6069" x1="82.7933" y1="176.487" x2="165.574" y2="143.251" gradientUnits="userSpaceOnUse">
<stop stop-color="#B89FFE"/>
<stop offset="1" stop-color="#B89FFE" stop-opacity="0"/>
</linearGradient>
<linearGradient id="paint26_linear_3169_6069" x1="97.7104" y1="160.257" x2="138.447" y2="126.95" gradientUnits="userSpaceOnUse">
<stop stop-color="#B89FFE"/>
<stop offset="1" stop-color="#B89FFE" stop-opacity="0"/>
</linearGradient>
<linearGradient id="paint27_linear_3169_6069" x1="110.3" y1="143.492" x2="93.8074" y2="130.314" gradientUnits="userSpaceOnUse">
<stop stop-color="#B89FFE"/>
<stop offset="1" stop-color="#B89FFE" stop-opacity="0"/>
</linearGradient>
<linearGradient id="paint28_linear_3169_6069" x1="110.3" y1="143.492" x2="93.8074" y2="130.314" gradientUnits="userSpaceOnUse">
<stop stop-color="#B89FFE"/>
<stop offset="1" stop-color="#B89FFE" stop-opacity="0"/>
</linearGradient>
<linearGradient id="paint29_linear_3169_6069" x1="195.16" y1="198.905" x2="194.638" y2="109.703" gradientUnits="userSpaceOnUse">
<stop stop-color="#B89FFE"/>
<stop offset="1" stop-color="#B89FFE" stop-opacity="0"/>
</linearGradient>
<linearGradient id="paint30_linear_3169_6069" x1="124.217" y1="147.432" x2="138.949" y2="-46.5451" gradientUnits="userSpaceOnUse">
<stop stop-color="#947ADB"/>
<stop offset="1" stop-color="#B89FFE" stop-opacity="0"/>
</linearGradient>
<linearGradient id="paint31_linear_3169_6069" x1="124.217" y1="147.432" x2="138.949" y2="-46.5451" gradientUnits="userSpaceOnUse">
<stop stop-color="#947ADB"/>
<stop offset="1" stop-color="#B89FFE" stop-opacity="0"/>
</linearGradient>
<linearGradient id="paint32_linear_3169_6069" x1="200.369" y1="28.8403" x2="204.794" y2="127.724" gradientUnits="userSpaceOnUse">
<stop stop-color="#A10BD2"/>
<stop offset="1" stop-color="#16182B"/>
</linearGradient>
<linearGradient id="paint33_linear_3169_6069" x1="200.369" y1="28.8403" x2="204.794" y2="127.724" gradientUnits="userSpaceOnUse">
<stop stop-color="#7043CD"/>
<stop offset="1" stop-color="#15193A"/>
</linearGradient>
<linearGradient id="paint34_linear_3169_6069" x1="-4.09945" y1="-11.9652" x2="4.6639" y2="11.865" gradientUnits="userSpaceOnUse">
<stop stop-color="white" stop-opacity="0"/>
<stop offset="1" stop-color="#3B2FC6"/>
</linearGradient>
<linearGradient id="paint35_linear_3169_6069" x1="163.388" y1="48.4352" x2="171.874" y2="123.077" gradientUnits="userSpaceOnUse">
<stop stop-color="white" stop-opacity="0"/>
<stop offset="1" stop-color="#3B2FC6"/>
</linearGradient>
<linearGradient id="paint36_linear_3169_6069" x1="123.546" y1="109.988" x2="154.975" y2="101.42" gradientUnits="userSpaceOnUse">
<stop stop-color="#B89FFE"/>
<stop offset="1" stop-color="#B89FFE" stop-opacity="0"/>
</linearGradient>
</defs>
</svg>
