<svg width="166" height="166" viewBox="0 0 166 166" fill="none" xmlns="http://www.w3.org/2000/svg">
<g filter="url(#filter0_ii)">
<circle r="83" transform="matrix(-1 0 0 1 83 83)" fill="#AA7057"/>
</g>
<path opacity="0.5" d="M106.977 68.9962C106.094 61.407 99.4951 58.9402 91.148 58.3687L90.9806 47.7797L84.5648 47.8876L84.749 58.1959C83.0563 58.2352 81.3206 58.2859 79.5964 58.3797L79.4007 48.0284L72.9849 48.1364L73.1837 58.6709C71.7716 58.727 70.4026 58.7716 69.0765 58.8047L69.065 58.7618L60.1802 58.9328L60.3173 65.8011C60.3173 65.8011 65.0603 65.6351 64.986 65.701C67.5952 65.6463 68.4621 67.1634 68.7214 68.4749L68.9134 80.5304C69.0967 80.5273 69.323 80.5127 69.6152 80.5725C69.389 80.5871 69.1627 80.6017 68.9249 80.5733L69.2086 97.4378C69.1036 98.2485 68.6297 99.5723 66.8396 99.5917C66.9056 99.6661 62.171 99.6918 62.171 99.6918L61.0173 107.412L69.4066 107.282C70.9705 107.277 72.4799 107.241 74.0008 107.248L74.1912 117.923L80.607 117.815L80.4397 107.226C82.1869 107.218 83.9341 107.21 85.5839 107.182L85.7826 117.717L92.1985 117.609L92.0081 106.934C102.834 106.105 110.358 103.26 111.082 93.0769C111.699 84.9016 107.788 81.3001 101.617 79.9155C105.37 77.9433 107.631 74.5292 106.977 68.9962ZM98.369 92.018C98.5246 99.9862 84.8154 99.3324 80.4589 99.3949L80.21 85.2372C84.5665 85.1746 98.2501 83.6717 98.369 92.018ZM95.0454 72.0552C95.1573 79.3447 83.7452 78.6738 80.122 78.7239L79.9061 65.8923C83.5294 65.8421 94.9075 64.4966 95.0454 72.0552Z" fill="white"/>
<defs>
<filter id="filter0_ii" x="-41" y="-7" width="207" height="174" filterUnits="userSpaceOnUse" color-interpolation-filters="sRGB">
<feFlood flood-opacity="0" result="BackgroundImageFix"/>
<feBlend mode="normal" in="SourceGraphic" in2="BackgroundImageFix" result="shape"/>
<feColorMatrix in="SourceAlpha" type="matrix" values="0 0 0 0 0 0 0 0 0 0 0 0 0 0 0 0 0 0 127 0" result="hardAlpha"/>
<feOffset dx="-41" dy="-7"/>
<feGaussianBlur stdDeviation="25"/>
<feComposite in2="hardAlpha" operator="arithmetic" k2="-1" k3="1"/>
<feColorMatrix type="matrix" values="0 0 0 0 1 0 0 0 0 1 0 0 0 0 1 0 0 0 0.5 0"/>
<feBlend mode="normal" in2="shape" result="effect1_innerShadow"/>
<feColorMatrix in="SourceAlpha" type="matrix" values="0 0 0 0 0 0 0 0 0 0 0 0 0 0 0 0 0 0 127 0" result="hardAlpha"/>
<feOffset dx="-7" dy="1"/>
<feGaussianBlur stdDeviation="5"/>
<feComposite in2="hardAlpha" operator="arithmetic" k2="-1" k3="1"/>
<feColorMatrix type="matrix" values="0 0 0 0 0.966667 0 0 0 0 0.747556 0 0 0 0 0.418889 0 0 0 1 0"/>
<feBlend mode="normal" in2="effect1_innerShadow" result="effect2_innerShadow"/>
</filter>
</defs>
</svg>
