<svg width="160" height="160" viewBox="0 0 160 160" fill="none" xmlns="http://www.w3.org/2000/svg">
<g filter="url(#filter0_ii)">
<circle cx="80" cy="80" r="80" fill="#5778AA"/>
</g>
<g opacity="0.5">
<path d="M52.2422 83.1466L61.5956 76.2069L70.6474 81.638V90.9914L76.6818 97.3276V100.345L70.6474 106.078H65.518L52.2422 83.1466Z" fill="white"/>
<path d="M88.7508 73.4914H70.6474L73.6646 81.638L72.156 90.388H86.9405L86.0353 81.638L88.7508 73.4914Z" fill="white"/>
<path d="M64.9146 56.5948L61.5956 71.0776H97.5008L93.8801 56.5948H64.9146Z" fill="white"/>
<path d="M106.854 83.1466L97.5001 76.2069L88.4483 81.6379V90.9914L82.4139 97.3276V100.345L88.4483 106.078H93.5777L106.854 83.1466Z" fill="white"/>
<path d="M45 100.043V59.9138L80 40L115 59.9138V100.043L80 120.259L45 100.043Z" stroke="white" stroke-width="3.01724"/>
</g>
<defs>
<filter id="filter0_ii" x="-41" y="-7" width="205" height="168" filterUnits="userSpaceOnUse" color-interpolation-filters="sRGB">
<feFlood flood-opacity="0" result="BackgroundImageFix"/>
<feBlend mode="normal" in="SourceGraphic" in2="BackgroundImageFix" result="shape"/>
<feColorMatrix in="SourceAlpha" type="matrix" values="0 0 0 0 0 0 0 0 0 0 0 0 0 0 0 0 0 0 127 0" result="hardAlpha"/>
<feOffset dx="-41" dy="-7"/>
<feGaussianBlur stdDeviation="25"/>
<feComposite in2="hardAlpha" operator="arithmetic" k2="-1" k3="1"/>
<feColorMatrix type="matrix" values="0 0 0 0 1 0 0 0 0 1 0 0 0 0 1 0 0 0 0.5 0"/>
<feBlend mode="normal" in2="shape" result="effect1_innerShadow"/>
<feColorMatrix in="SourceAlpha" type="matrix" values="0 0 0 0 0 0 0 0 0 0 0 0 0 0 0 0 0 0 127 0" result="hardAlpha"/>
<feOffset dx="4" dy="1"/>
<feGaussianBlur stdDeviation="5"/>
<feComposite in2="hardAlpha" operator="arithmetic" k2="-1" k3="1"/>
<feColorMatrix type="matrix" values="0 0 0 0 0.418889 0 0 0 0 0.868067 0 0 0 0 0.966667 0 0 0 1 0"/>
<feBlend mode="normal" in2="effect1_innerShadow" result="effect2_innerShadow"/>
</filter>
</defs>
</svg>
