<svg viewBox="0 0 280 280" fill="none" xmlns="http://www.w3.org/2000/svg">
<mask id="mask0_3129_7778" style="mask-type:alpha" maskUnits="userSpaceOnUse" x="56" y="162" width="166" height="49">
<path d="M63.2332 173.599L56.979 175.119L59.6808 182.556L97.6769 210.402L118.41 184.204L107.283 162.409L99.2712 165.688L85.9852 168.764L79.7985 170.049L63.2332 173.599Z" fill="url(#paint0_linear_3129_7778)"/>
<path d="M186.258 170.563L177.165 163.866L170.133 162.004C168.164 176.132 164.135 204.721 163.775 206.057C163.416 207.392 202.07 199.892 221.442 195.975L219.598 185.841L199.958 178.325L188.92 172.304L187.466 171.812L186.258 170.563Z" fill="url(#paint1_linear_3129_7778)"/>
</mask>
<g mask="url(#mask0_3129_7778)">
<path d="M63.2332 173.599L56.979 175.119L59.6808 182.556L97.6769 210.402L118.41 184.204L107.283 162.409L99.2712 165.688L85.9852 168.764L79.7985 170.049L63.2332 173.599Z" fill="url(#paint2_linear_3129_7778)"/>
<path d="M186.258 170.563L177.165 163.866L170.133 162.004C168.164 176.132 164.135 204.721 163.775 206.057C163.416 207.392 202.07 199.892 221.442 195.975L219.598 185.841L199.958 178.325L188.92 172.304L187.466 171.812L186.258 170.563Z" fill="url(#paint3_linear_3129_7778)"/>
<path d="M87.0712 185.701L96.9846 166.573V164.533C96.9846 164.253 95.0796 165.077 94.1271 165.524L80.5401 184.009L87.0712 185.701Z" fill="url(#paint4_linear_3129_7778)"/>
<path d="M68.6718 184.814L84.1974 168.464C84.2798 167.907 82.2488 166.35 82.2897 166.073C82.3306 165.797 82.0268 167.692 81.0192 167.995L65.6125 182.318L68.6718 184.814Z" fill="url(#paint5_linear_3129_7778)"/>
<path d="M206.746 190.875L199.266 177.463L197.901 176.715L202.813 193.058L206.746 190.875Z" fill="url(#paint6_linear_3129_7778)"/>
<path d="M196.308 195.541L187.53 170.576L185.589 169.056L189.298 197.027L196.308 195.541Z" fill="url(#paint7_linear_3129_7778)"/>
</g>
<mask id="mask1_3129_7778" style="mask-type:alpha" maskUnits="userSpaceOnUse" x="30" y="174" width="220" height="92">
<path d="M62.5536 177.155L57.7538 174.829L47.7807 177.737L39.8061 183.572L35.4881 189.096L31.6758 197.966L30.6255 206.018L32.0647 207.457L44.0461 217.221L71.4322 234.999L93.3333 247.486L109.244 255.733L120.253 260.751L129.355 263.358L136.98 264.758L148.533 265.497L157.636 264.758L165.689 263.163L173.974 260.673L186.812 255.033L198.21 249.548L211.553 242.001L224.429 233.871L233.493 227.763L242.794 221.252L249.464 216.065L247.463 208.173L244.48 201.8L240.942 196.502L234.977 190.926L229.901 188.351L222.249 185.868L218.989 185.702L214.761 188.189L208.13 189.822L201.599 190.367L195.908 192.346L190.168 194.919L170.177 199.026L153.601 201.352L147.366 202.787L143.803 204.617L140.736 207.141H136.628L132.521 204.914L125.495 200.56L116.786 197.739L97.1417 190.911L87.1957 185.913L79.9218 181.707L72.4005 179.134L62.5536 177.155Z" fill="url(#paint8_linear_3129_7778)"/>
</mask>
<g mask="url(#mask1_3129_7778)">
<path d="M62.5536 177.155L57.7538 174.829L47.7807 177.737L39.8061 183.572L35.4881 189.096L31.6758 197.966L30.6255 206.018L32.0647 207.457L44.0461 217.221L71.4322 234.999L93.3333 247.486L109.244 255.733L120.253 260.751L129.355 263.358L136.98 264.758L148.533 265.497L157.636 264.758L165.689 263.163L173.974 260.673L186.812 255.033L198.21 249.548L211.553 242.001L224.429 233.871L233.493 227.763L242.794 221.252L249.464 216.065L247.463 208.173L244.48 201.8L240.942 196.502L234.977 190.926L229.901 188.351L222.249 185.868L218.989 185.702L214.761 188.189L208.13 189.822L201.599 190.367L195.908 192.346L190.168 194.919L170.177 199.026L153.601 201.352L147.366 202.787L143.803 204.617L140.736 207.141H136.628L132.521 204.914L125.495 200.56L116.786 197.739L97.1417 190.911L87.1957 185.913L79.9218 181.707L72.4005 179.134L62.5536 177.155Z" fill="url(#paint9_linear_3129_7778)"/>
<path fill-rule="evenodd" clip-rule="evenodd" d="M79.8846 220.436C94.6379 240.305 116.853 259.42 140.244 271.921C172.946 294.065 97.7729 277.956 43.3583 266.294C27.7228 262.944 13.8012 259.96 4.64519 258.357C-29.4696 211.535 -93.4729 116.649 -76.5674 111.677C-59.6619 106.705 53.7157 133.819 84.7919 145.835C55.6696 157.97 57.1217 184.633 73.8027 211.515C66.8246 208.078 59.3659 204.174 52.1826 200.043C44.564 195.661 37.2989 191.049 31.261 186.489C25.1791 181.896 20.5271 177.493 17.9489 173.566L13.424 176.537C16.5172 181.248 21.7631 186.099 27.9989 190.809C34.2787 195.551 41.7513 200.288 49.4839 204.735C59.7921 210.663 70.6399 216.121 79.8846 220.436Z" fill="#0D1029"/>
<path d="M232.333 232.153C239.645 218.292 233.766 190.55 206.574 179.5C215.616 170.079 234.2 151.111 236.203 150.6C238.708 149.962 270.079 212.29 271.127 215.678C271.965 218.389 245.613 227.791 232.333 232.153Z" fill="url(#paint10_linear_3129_7778)"/>
</g>
<mask id="mask2_3129_7778" style="mask-type:alpha" maskUnits="userSpaceOnUse" x="89" y="17" width="107" height="93">
<path d="M89.2421 58.9358L90.0227 64.471L95.4739 95.4628L109.842 91.2693L164.525 109.364L188.025 96.6267L191.021 94.4738L195.857 73.7873L195.514 67.0791L192.113 56.7826L186.84 47.6406L182.877 45.9246L179.071 45.4253L178.166 38.6234L175.108 33.5064L169.055 27.1726L160.444 19.5594L153.236 17.0637H142.004L133.08 18.1558L119.289 21.12L107.214 25.8314C105.987 26.8819 103.52 29.0139 103.47 29.1387C103.42 29.2635 102.18 31.8113 101.567 33.0696L99.2578 40.5898L97.0737 45.2692L94.1719 48.4517L90.8958 53.0698L89.2421 58.9358Z" fill="#7D505F"/>
</mask>
<g mask="url(#mask2_3129_7778)">
<path d="M89.2421 58.9358L90.0227 64.471L95.4739 95.4628L109.842 91.2693L164.525 109.364L188.025 96.6267L191.021 94.4738L195.857 73.7873L195.514 67.0791L192.113 56.7826L186.84 47.6406L182.877 45.9246L179.071 45.4253L178.166 38.6234L175.108 33.5064L169.055 27.1726L160.444 19.5594L153.236 17.0637H142.004L133.08 18.1558L119.289 21.12L107.214 25.8314C105.987 26.8819 103.52 29.0139 103.47 29.1387C103.42 29.2635 102.18 31.8113 101.567 33.0696L99.2578 40.5898L97.0737 45.2692L94.1719 48.4517L90.8958 53.0698L89.2421 58.9358Z" fill="#7D505F"/>
<ellipse cx="193.736" cy="59.2964" rx="5.52453" ry="14.6323" transform="rotate(-18.4985 193.736 59.2964)" fill="url(#paint11_linear_3129_7778)"/>
<path fill-rule="evenodd" clip-rule="evenodd" d="M133.042 41.9873C112.885 45.4757 105.37 31.5966 104.132 24.2211C96.2713 25.1902 80.0987 27.4516 78.2898 28.7437C76.0286 30.3588 71.9907 57.9772 69.7296 73.4823C67.4684 88.9873 92.3412 119.997 96.2174 119.836C96.5646 119.821 97.6464 119.839 99.3243 119.867C116.381 120.15 195.04 121.453 189.894 100.132C187.35 89.594 186.834 83.7978 186.418 79.1237C185.909 73.4098 185.55 69.3725 181.818 60.3999C175.035 44.0872 158.238 37.6268 133.042 41.9873ZM178.209 52.4498C178.84 51.239 178.969 47.284 178.955 45.4578C179.673 44.6407 181.125 42.9808 181.193 42.8785C181.279 42.7506 184.706 38.0726 183.811 44.9367C183.095 50.428 180.078 52.4072 178.209 52.4498ZM115.08 71.2667L84.4823 59.3306L82.8011 66.3915L112.39 76.6468L115.08 71.2667ZM82.5262 69.9625L113.124 81.8986L110.434 87.2787L80.8451 77.0234L82.5262 69.9625Z" fill="#4D2A40"/>
<path d="M135.551 38.6372C115.395 42.1256 107.879 28.2466 106.641 20.871C98.7806 21.8401 82.608 24.1015 80.7991 25.3936C78.5379 27.0087 74.5 54.6271 72.2388 70.1322C69.9777 85.6372 94.8504 116.647 98.7267 116.486C102.603 116.324 180.542 119.812 174.889 96.3926C169.236 72.9735 185.265 72.4234 178.481 56.1108C172.124 45.0013 160.747 34.2767 135.551 38.6372Z" stroke="#4C2A40" stroke-width="1.96837"/>
<path d="M142.551 11.2729C142.431 18.6454 149.916 32.3862 180.81 28.3693" stroke="#C78BB3" stroke-width="1.96837"/>
<path d="M183.642 25.2512C152.748 29.2681 145.263 15.5274 145.383 8.15491L183.028 9.87556L183.642 25.2512Z" fill="url(#paint12_linear_3129_7778)"/>
</g>
<mask id="mask3_3129_7778" style="mask-type:alpha" maskUnits="userSpaceOnUse" x="90" y="49" width="104" height="159">
<path d="M100.017 123.049H98.1434L96.7044 122.268L95.1662 119.154L91.1822 107.002L90.9151 102.78L91.1822 98.6423L91.666 94.3386L92.836 92.6871L94.4866 92.4789L97.5372 94.4632L97.4327 89.6993L99.2713 84.9773L103.638 79.5031L104.704 75.2619L104.85 66.7375L106.187 63.6239L113.437 58.6934L118.159 60.4277L122.192 61.0754L128.042 60.7411L135.836 58.5681L147.808 53.7413L155.894 50.9623L162.622 49.73L165.526 50.6702L171.418 52.5924L176.265 54.9535L175.847 60.8037L176.098 67.3644L177.059 71.2925L179.065 74.8027L182.805 80.8619L185.375 85.8973L185.5 88.7389L185.292 97.7024L185.266 98.1221L185.5 98.047L186.501 96.3203L189.571 94.5723C190.438 94.7499 192.197 95.118 192.3 95.1692C192.402 95.2203 192.854 96.2279 193.067 96.7253L193.216 107.314L193.11 108.45C191.205 113.189 187.392 122.647 187.375 122.562C187.358 122.476 186.459 123.848 186.011 124.544L184.456 124.782H183.186L182.993 126.62L182.032 136.189L180.997 141.048L181.286 141.213L180.674 143.897L179.507 150.917L176.98 163.429L178.727 170.262L178.977 178.187L178.135 185.613L176.107 192.321L173.985 197.719L173.018 198.281L152.643 201.245L145.436 203.585L140.818 206.83L137.448 207.298L132.955 204.989L123.595 199.809L108.836 195.223L107.869 186.393L107.495 167.578L108.056 166.206L102.698 139.531L103.132 138.23L102.552 136.878L100.776 125.93L100.017 123.049Z" fill="url(#paint13_linear_3129_7778)"/>
</mask>
<g mask="url(#mask3_3129_7778)">
<path d="M100.017 123.049H98.1433L96.7043 122.268L95.1661 119.154L91.1821 107.002L90.915 102.78L91.1821 98.6423L91.6659 94.3386L92.836 92.6871L94.4866 92.4789L97.5371 94.4632L97.4326 89.6993L99.2713 84.9773L103.638 79.5031L104.704 75.2619L104.85 66.7375L106.187 63.6239L113.437 58.6934L118.159 60.4277L122.192 61.0754L128.042 60.7411L135.836 58.5681L147.808 53.7413L155.894 50.9623L162.622 49.73L165.526 50.6702L171.418 52.5924L176.265 54.9535L175.847 60.8037L176.098 67.3644L177.059 71.2925L179.065 74.8027L182.805 80.8619L185.375 85.8973L185.5 88.7389L185.291 97.7024L185.266 98.1221L185.5 98.047L186.501 96.3203L189.571 94.5723C190.438 94.7499 192.197 95.118 192.299 95.1692C192.402 95.2203 192.854 96.2279 193.067 96.7253L193.216 107.314L193.11 108.45C191.205 113.189 187.392 122.647 187.375 122.562C187.358 122.476 186.459 123.848 186.011 124.544L184.456 124.782H183.186L182.993 126.62L182.032 136.189L180.996 141.048L181.286 141.213L180.674 143.897L179.507 150.917L176.98 163.429L178.727 170.262L178.977 178.187L178.135 185.613L176.106 192.321L173.985 197.719L173.018 198.281L152.643 201.245L145.436 203.585L140.818 206.83L137.448 207.298L132.955 204.989L123.595 199.809L108.836 195.223L107.869 186.393L107.495 167.578L108.056 166.206L102.698 139.531L103.132 138.23L102.552 136.878L100.776 125.93L100.017 123.049Z" fill="url(#paint14_linear_3129_7778)"/>
<path d="M125.961 102.322C125.961 102.322 121.378 104.326 116.624 98.7838L117.135 98.0809C122.081 94.6481 127.285 96.0996 128.263 96.4176C129.486 96.8151 130.304 98.048 130.181 98.5066C130.096 99.4446 127.751 101.662 125.961 102.322Z" fill="url(#paint15_linear_3129_7778)"/>
<path d="M161.801 103.613C161.801 103.613 166.217 105.853 170.885 100.052L170.335 99.4061C165.39 95.9733 160.477 97.3899 159.499 97.7079C158.276 98.1054 157.308 98.9474 157.43 99.4061C158.206 100.602 159.619 102.651 161.801 103.613Z" fill="url(#paint16_linear_3129_7778)"/>
<path opacity="0.1" d="M130.416 126.239C130.762 130.496 110.399 134.793 101.504 125.618L103.313 138.982L102.182 145.918L105.952 161.674C134.856 181.304 168.082 169.112 178.85 159.62L179.527 150.919L179.81 141.058L180.293 132.811L180.631 126.588C176.623 132.811 157.786 132.793 153.703 126.239L144.804 128.22C144.804 128.22 134.768 132.377 130.416 126.239Z" fill="url(#paint17_linear_3129_7778)"/>
<path d="M177.713 77.6264C171.635 71.0806 172.453 57.6592 173.622 51.7667C177.691 57.4779 185.829 69.0438 185.829 69.6177V93.3664L184.368 114.518L182.973 130.517C189.45 140.257 202.376 160.79 202.259 164.997C202.113 170.257 191.885 189.543 177.859 184.283C166.638 180.075 177.859 147.685 179.905 127.156C181.707 113.374 183.791 84.1723 177.713 77.6264Z" fill="#FCCFBC"/>
<path fill-rule="evenodd" clip-rule="evenodd" d="M133.705 186.008C148.622 178.865 160.093 167.461 167.218 157.977L160.734 163.324L154.502 167.335L152.835 168.012C110.087 163.167 107.845 132.201 108.628 102.921C114.114 107.093 122.37 109.641 130.412 105.735C131.328 105.29 132.108 104.762 132.767 104.171L130.926 118.926L129.762 119.609L129.039 120.893L128.778 124.727C130.292 129.316 135.063 131.987 139.766 130.88L156.177 127.016L156.834 124.45L154.864 123.654C151.538 122.309 147.985 121.618 144.399 121.618H139.376C138.507 121.618 137.664 121.323 136.984 120.782C136.055 120.042 135.52 118.913 135.536 117.725L135.809 97.6156C135.841 97.16 135.846 96.7036 135.828 96.2503C135.706 93.1725 134.512 90.238 133.109 88.6561L124.347 87.0377C121.631 86.4238 115.318 86.0108 111.791 89.27C110.651 90.3227 109.738 90.9768 109.015 91.3567C109.465 77.5449 109.446 65.0151 104.616 56.9874L71.8898 74.6076L74.4381 138.876L96.2407 158.404L106.386 160.693L106.518 161.958L105.609 174.124C105.841 175.366 106.166 176.559 106.958 177.481C113.135 184.664 124.494 185.404 132.029 185.896L132.03 185.896L132.032 185.896C132.614 185.934 133.173 185.97 133.705 186.008ZM126.378 189.051C116.059 187.003 110.096 184.384 106.225 181.554L106.835 188.772L107.257 192.854C114.055 192.519 120.444 191.146 126.378 189.051ZM192.312 95.4632L189.422 99.0201L187.514 101.836L186.977 104.096L187.514 109.746L187.329 111.303L186.328 113.692L186.829 116.564C186.903 115.607 187.21 113.566 187.848 113.063C188.644 112.433 189.867 109.728 188.792 106.69C187.933 104.259 191.398 98.7607 193.238 96.3153L192.312 95.4632ZM158.862 106.987C149.511 103.223 151.765 93.5522 154.06 89.1872L159.298 87.9262C164.294 86.1802 175.158 84.9095 178.65 93.7947C183.015 104.901 170.55 111.691 158.862 106.987ZM176.787 164.28L175.72 170.61L175.529 173.355L177.012 176.978C177.412 177.311 178.378 177.802 179.046 177.105L178.81 171.186L177.484 164.086L176.787 164.28ZM122.84 102.597C119.586 102.076 117.363 99.8126 116.658 98.7461L117.308 98.1225L119.695 96.6312L123.979 95.8996L128.046 96.1165L130.161 98.2587C129.809 100.184 126.745 102.028 126.745 102.028L124.413 102.841L122.84 102.597ZM157.548 99.5026C157.548 99.5026 159.135 102.499 161.896 103.528L164.251 104.164L166.644 103.528C169.246 102.205 170.799 100.149 170.799 100.149L168.98 98.5395L164.433 96.8325L159.746 97.1963L157.395 98.9593L157.548 99.5026Z" fill="url(#paint18_linear_3129_7778)"/>
<path d="M133.952 146.613L133.401 145.525L134.78 146.801L136.95 148.103L144.993 148.563L148.108 148.333L150.891 146.367L150.737 146.667C149.122 149.806 145.888 151.78 142.358 151.78C138.806 151.78 135.556 149.782 133.952 146.613Z" fill="#E37562"/>
<path d="M149.144 169.126C126.43 176.62 113.127 158.108 104.355 148.445L103.091 141.854L102.652 138.304L106.269 144.355L114.687 154.058L125.472 162.645L133.518 167.851L137.845 168.595H147.75L149.144 169.126Z" fill="#E37562"/>
</g>
<path d="M137.486 133.858C133.368 134.261 129.435 137.654 127.488 138.525L129.589 139.42H131.962L137.486 138.525C137.486 138.525 137.931 138.342 140.737 139.591C142.108 140.351 143.916 139.898 143.916 139.898L148.036 139.276H151.111L154.427 139.898L157.558 140.166C153.501 137.868 152.074 133.858 146.183 134.293C145.464 134.585 143.683 135.007 143.46 135.071C143.237 135.135 142.34 135.061 141.885 135.071L139.773 134.651C139.773 134.651 138.94 134.015 137.486 133.858Z" fill="#FF9C7D"/>
<path d="M142.645 148.69L136.458 148.163C136.458 148.163 132.474 145.819 129.079 139.519H131.488L134.25 139.078L137.54 138.843C142.065 138.638 143.828 140.018 143.828 140.018L146.824 138.843C147.498 138.86 149.24 138.577 149.704 138.842C150.168 139.108 151.562 139.04 152.083 139.078L155.691 140.503C156.385 144.312 147.326 148.406 147.326 148.406L146.241 148.548L142.645 148.69Z" fill="#FFA184"/>
<path d="M132.297 138.925C129.193 139.894 128.058 138.76 127.615 138.645C133.534 137.877 135.525 137.497 137.424 137.676C140.57 137.972 143.694 138.314 146.835 137.974C150.123 137.619 152.366 138.132 156.929 140.203C155.331 140.404 153.252 139.391 151.952 139.496C150.651 139.601 151.305 138.989 149.099 139.122C147.818 138.925 144.264 140.756 141.623 139.929L141.512 139.894C138.257 138.873 135.366 137.967 132.297 138.925Z" fill="#C56E5B"/>
<path d="M137.064 125.759C133.67 126.858 131.664 125.74 131.664 125.181L132.217 124.794L134.801 124.332L137.064 125.759Z" fill="#1B2C44"/>
<path d="M148.765 126.187C151.7 127.572 154.111 126.187 154.072 125.47L153.612 125.221L151.028 124.76L148.765 126.187Z" fill="#1B2C44"/>
<ellipse rx="2.14906" ry="1.23678" transform="matrix(1 0 0 -1 149.429 141.917)" fill="url(#paint19_linear_3129_7778)"/>
<path fill-rule="evenodd" clip-rule="evenodd" d="M133.817 102.806C133.817 102.806 133.254 103.283 132.144 104.029C131.855 104.224 131.529 104.435 131.171 104.668C130.965 104.802 130.748 104.944 130.523 105.095C130.218 105.298 129.896 105.516 129.553 105.742C129.095 106.044 128.608 106.367 128.074 106.691C127.993 106.733 127.962 106.833 128.004 106.914C128.046 106.994 128.146 107.026 128.227 106.983C128.924 106.671 129.562 106.372 130.133 106.061C130.579 105.818 130.985 105.576 131.347 105.334C131.786 105.041 132.16 104.75 132.483 104.488C133.553 103.622 134.05 103.04 134.05 103.04C134.114 102.975 134.115 102.871 134.05 102.806C133.986 102.742 133.881 102.742 133.817 102.806Z" fill="#192940"/>
<path fill-rule="evenodd" clip-rule="evenodd" d="M153.44 103.093C153.44 103.093 153.894 103.711 154.907 104.65C155.213 104.934 155.568 105.249 155.988 105.569C156.335 105.834 156.726 106.099 157.156 106.371C157.706 106.719 158.323 107.062 158.998 107.42C159.093 107.478 159.217 107.448 159.276 107.353C159.334 107.258 159.304 107.134 159.208 107.076C158.697 106.718 158.232 106.365 157.796 106.034C157.469 105.785 157.164 105.545 156.874 105.321C156.602 105.112 156.344 104.917 156.104 104.734C155.824 104.521 155.566 104.328 155.333 104.148C154.275 103.335 153.744 102.826 153.744 102.826C153.67 102.743 153.543 102.734 153.459 102.808C153.375 102.881 153.367 103.009 153.44 103.093Z" fill="#192940"/>
<path fill-rule="evenodd" clip-rule="evenodd" d="M115.832 99.5524L117.611 98.2107C118.264 97.7156 118.978 97.3191 119.732 97.0189C120.479 96.7216 121.266 96.5248 122.072 96.4367C122.679 96.373 123.369 96.3284 124.116 96.3021C124.759 96.2791 125.445 96.2676 126.162 96.2992C126.781 96.3074 127.381 96.451 127.931 96.7048C128.492 96.9643 129.008 97.3249 129.425 97.8018C129.426 97.8027 129.427 97.8037 129.427 97.8047C129.549 97.9378 129.674 98.0824 129.804 98.239C129.977 98.4468 130.159 98.6723 130.348 98.9222C130.413 99.0233 130.549 99.052 130.65 98.9859C130.751 98.9203 130.78 98.7848 130.714 98.6838C130.585 98.452 130.461 98.2375 130.338 98.0369C130.197 97.8061 130.057 97.5978 129.923 97.4072C129.499 96.8025 128.951 96.3055 128.321 95.9463C127.681 95.582 126.956 95.3766 126.206 95.3191H126.205C125.458 95.287 124.741 95.287 124.071 95.3244C123.298 95.3679 122.587 95.456 121.956 95.5475C121.954 95.5475 121.953 95.548 121.951 95.548C121.075 95.6931 120.227 95.9507 119.431 96.3241C118.641 96.6947 117.903 97.1726 117.237 97.7491L115.557 99.2129C115.463 99.2885 115.449 99.4264 115.524 99.5203C115.601 99.6136 115.738 99.628 115.832 99.5524Z" fill="#192940"/>
<path fill-rule="evenodd" clip-rule="evenodd" d="M172.116 100.921L170.541 99.3446C169.916 98.7231 169.212 98.1944 168.448 97.7707C167.678 97.344 166.846 97.0314 165.981 96.8288C165.979 96.8284 165.978 96.8284 165.976 96.8279C165.352 96.6981 164.648 96.5636 163.878 96.4755C163.211 96.3989 162.496 96.361 161.748 96.3519H161.748C160.998 96.361 160.266 96.5214 159.606 96.8403C158.956 97.1549 158.376 97.6088 157.911 98.182C157.765 98.3592 157.61 98.5559 157.451 98.7752C157.314 98.9653 157.173 99.1693 157.027 99.3901C156.955 99.4868 156.975 99.6237 157.071 99.696C157.167 99.7688 157.304 99.7492 157.377 99.6524C157.579 99.414 157.772 99.1985 157.957 99.0008C158.096 98.8514 158.229 98.714 158.358 98.5875C158.358 98.5871 158.359 98.5861 158.36 98.5852C158.807 98.1331 159.345 97.8004 159.925 97.5772C160.493 97.3584 161.106 97.2579 161.728 97.2923C162.445 97.3158 163.128 97.3828 163.768 97.4532C164.511 97.5351 165.196 97.6266 165.801 97.7338C166.594 97.8741 167.364 98.1231 168.089 98.4683C168.821 98.8164 169.509 99.2555 170.128 99.7908L171.819 101.242C171.908 101.324 172.046 101.319 172.128 101.23C172.21 101.142 172.204 101.003 172.116 100.921Z" fill="#192940"/>
<path fill-rule="evenodd" clip-rule="evenodd" d="M120.504 102.029L121.955 102.722C122.272 102.865 122.599 102.978 122.934 103.051C123.274 103.125 123.622 103.164 123.969 103.157C124.315 103.149 124.661 103.096 124.997 103.008C125.329 102.92 125.65 102.795 125.961 102.639L127.169 102.006C127.249 101.972 127.287 101.879 127.253 101.798C127.219 101.718 127.126 101.68 127.046 101.714L125.749 102.138C125.457 102.239 125.159 102.302 124.858 102.35C124.559 102.398 124.258 102.416 123.956 102.42C123.655 102.424 123.354 102.413 123.054 102.373C122.753 102.333 122.454 102.277 122.16 102.185L120.617 101.733C120.536 101.702 120.444 101.743 120.413 101.825C120.382 101.906 120.422 101.998 120.504 102.029Z" fill="#192940"/>
<path fill-rule="evenodd" clip-rule="evenodd" d="M166.951 103.219L165.391 103.597C164.792 103.758 164.177 103.781 163.571 103.725C163.329 103.702 163.088 103.67 162.85 103.621C162.492 103.547 162.137 103.447 161.797 103.297L160.538 102.775C160.46 102.735 160.365 102.767 160.325 102.845C160.286 102.923 160.318 103.018 160.396 103.058L161.567 103.755C161.929 103.96 162.308 104.124 162.702 104.233C162.969 104.306 163.242 104.356 163.517 104.376C164.198 104.426 164.886 104.316 165.543 104.088L167.045 103.522C167.128 103.496 167.175 103.407 167.15 103.324C167.124 103.24 167.035 103.193 166.951 103.219Z" fill="#192940"/>
<path fill-rule="evenodd" clip-rule="evenodd" d="M115.115 97.6416C115.093 97.6402 115.08 97.6722 115.08 97.7077C115.08 97.7857 115.144 97.8494 115.222 97.8494L115.338 97.7895C115.913 97.044 116.601 96.4067 117.369 95.8824C118.128 95.3648 118.964 94.964 119.857 94.7031C120.385 94.5575 120.982 94.422 121.632 94.2994C122.194 94.1936 122.798 94.1041 123.438 94.0322C124.546 93.9082 125.766 93.8393 127.092 93.9235C127.62 93.9532 128.134 94.0729 128.615 94.2755C129.101 94.4804 129.553 94.7648 129.948 95.1263C129.95 95.1278 129.951 95.1292 129.953 95.1307C130.149 95.2997 130.361 95.4989 130.59 95.7292C130.781 95.9212 130.984 96.1333 131.199 96.3684C131.249 96.4283 131.339 96.4354 131.399 96.3847C131.458 96.3344 131.466 96.2449 131.415 96.185C131.17 95.8738 130.942 95.598 130.728 95.3562C130.553 95.1579 130.387 94.9832 130.231 94.829C129.828 94.4067 129.353 94.06 128.833 93.801C128.307 93.5391 127.736 93.3729 127.145 93.304C127.144 93.304 127.144 93.304 127.144 93.304C125.776 93.1613 124.508 93.155 123.359 93.2642C122.691 93.3279 122.065 93.4318 121.483 93.5549C120.812 93.6971 120.202 93.8718 119.652 94.0476C119.65 94.048 119.647 94.049 119.644 94.05C118.709 94.3875 117.837 94.864 117.068 95.473C116.306 96.0758 115.644 96.8017 115.107 97.6258L115.115 97.6416Z" fill="#192940"/>
<path fill-rule="evenodd" clip-rule="evenodd" d="M172.506 99.5876C172.539 99.6412 172.598 99.6771 172.666 99.6771L172.827 99.3898C172.337 98.5327 171.715 97.7671 170.989 97.1169C170.256 96.4604 169.416 95.928 168.502 95.5315C168.499 95.5305 168.496 95.5296 168.493 95.5281C167.489 95.1374 166.269 94.7362 164.847 94.4862C164.252 94.3818 163.622 94.3052 162.959 94.2665C162.352 94.231 161.719 94.2334 161.062 94.2631C161.061 94.2631 161.061 94.2631 161.061 94.2631C160.462 94.2976 159.877 94.4283 159.333 94.6615C158.797 94.8918 158.301 95.2131 157.869 95.6186C157.673 95.7925 157.456 96.0003 157.223 96.2435C157.033 96.4422 156.833 96.6625 156.619 96.9067C156.57 96.9579 156.571 97.0393 156.622 97.0886C156.673 97.1379 156.755 97.1365 156.804 97.0858C157.089 96.82 157.353 96.5873 157.597 96.3833C157.793 96.2196 157.975 96.0759 158.146 95.9509C158.147 95.9495 158.149 95.9481 158.15 95.9466C158.571 95.6177 159.042 95.3725 159.541 95.2054C160.032 95.0407 160.549 94.9603 161.074 94.9694C161.708 94.9756 162.316 95.0192 162.898 95.0733C163.532 95.1317 164.135 95.2126 164.706 95.3074C166.077 95.5358 167.266 95.8552 168.243 96.2019C169.105 96.5198 169.911 96.9761 170.628 97.5454C171.353 98.12 171.99 98.8052 172.506 99.5871V99.5876Z" fill="#192940"/>
<path fill-rule="evenodd" clip-rule="evenodd" d="M137.812 87.9525C137.812 87.9525 137.612 88.531 137.05 89.3263C136.886 89.558 136.693 89.8089 136.471 90.078C136.195 90.4122 135.888 90.7805 135.49 91.1367C135.424 91.1879 135.412 91.2832 135.463 91.3498C135.515 91.4159 135.61 91.4278 135.676 91.3766C136.06 91.1233 136.395 90.8676 136.675 90.599C136.896 90.3883 137.084 90.1743 137.24 89.9626C137.483 89.6342 137.65 89.3153 137.776 89.0404C138.056 88.427 138.109 88.0181 138.109 88.0181C138.127 87.9363 138.075 87.8549 137.993 87.8371C137.911 87.8189 137.83 87.8707 137.812 87.9525Z" fill="#192940"/>
<path fill-rule="evenodd" clip-rule="evenodd" d="M150.735 89.0978C150.735 89.0978 150.746 89.5302 150.959 90.1579C151.059 90.4519 151.2 90.7904 151.417 91.1361C151.56 91.3636 151.738 91.5934 151.951 91.8156C152.225 92.1019 152.559 92.3701 152.949 92.6234C153.016 92.6741 153.111 92.6612 153.162 92.5941C153.213 92.5276 153.2 92.4323 153.133 92.3815C152.807 92.0923 152.55 91.7868 152.322 91.4948C152.148 91.2726 152 91.0552 151.866 90.8488C151.662 90.5352 151.496 90.2479 151.375 89.9903C151.118 89.444 151.036 89.0638 151.036 89.0638C151.027 88.981 150.952 88.9206 150.869 88.9302C150.786 88.9393 150.726 89.0145 150.735 89.0978Z" fill="#192940"/>
<mask id="mask4_3129_7778" style="mask-type:alpha" maskUnits="userSpaceOnUse" x="109" y="82" width="29" height="11">
<path d="M134.692 84.2084L135.042 85.541L137.067 84.8654C137.213 84.8175 137.373 84.8659 137.468 84.9865C137.562 85.1072 137.572 85.2738 137.492 85.4045L135.231 89.1053C134.845 89.7379 134.29 90.2253 133.648 90.5303C133.004 90.8368 132.273 90.9584 131.537 90.8588C129.962 90.6481 127.711 90.3469 125.411 90.0319C123.236 89.734 121.018 89.4242 119.286 89.1738L119.284 89.1734L119.281 89.1729C118.412 89.0373 117.533 89.0263 116.669 89.1345C115.806 89.2428 114.958 89.4707 114.15 89.8159C113.511 90.0908 112.789 90.424 112.013 90.821C111.358 91.1561 110.665 91.5363 109.951 91.9668C109.779 92.0697 109.561 92.0549 109.405 91.9299C109.249 91.8049 109.187 91.5957 109.251 91.4056C109.251 91.4056 109.702 90.0457 110.848 88.0682C111.374 87.1604 112.048 86.1218 112.89 85.0258C113.568 84.1347 114.455 83.4533 115.452 83.0291C116.447 82.6053 117.551 82.4368 118.662 82.5656C121.084 82.8481 124.632 83.2412 128.071 83.5395C130.328 83.7349 132.537 83.89 134.35 83.9408C134.511 83.9441 134.65 84.0533 134.692 84.2084Z" fill="#192940"/>
</mask>
<g mask="url(#mask4_3129_7778)">
<path d="M134.692 84.2084L135.042 85.541L137.067 84.8654C137.213 84.8175 137.373 84.8659 137.468 84.9865C137.562 85.1072 137.572 85.2738 137.492 85.4045L135.231 89.1053C134.845 89.7379 134.29 90.2253 133.648 90.5303C133.004 90.8368 132.273 90.9584 131.537 90.8588C129.962 90.6481 127.711 90.3469 125.411 90.0319C123.236 89.734 121.018 89.4242 119.286 89.1738L119.284 89.1734L119.281 89.1729C118.412 89.0373 117.533 89.0263 116.669 89.1345C115.806 89.2428 114.958 89.4707 114.15 89.8159C113.511 90.0908 112.789 90.424 112.013 90.821C111.358 91.1561 110.665 91.5363 109.951 91.9668C109.779 92.0697 109.561 92.0549 109.405 91.9299C109.249 91.8049 109.187 91.5957 109.251 91.4056C109.251 91.4056 109.702 90.0457 110.848 88.0682C111.374 87.1604 112.048 86.1218 112.89 85.0258C113.568 84.1347 114.455 83.4533 115.452 83.0291C116.447 82.6053 117.551 82.4368 118.662 82.5656C121.084 82.8481 124.632 83.2412 128.071 83.5395C130.328 83.7349 132.537 83.89 134.35 83.9408C134.511 83.9441 134.65 84.0533 134.692 84.2084Z" fill="#192940"/>
<path d="M129.414 92.8995L134.093 81.0576L141.542 82.8083L136.258 93.6952L129.414 92.8995Z" fill="url(#paint20_linear_3129_7778)"/>
<path d="M121.233 90.34L126.013 79.7401L130.981 81.0133L125.637 91.6973L121.233 90.34Z" fill="url(#paint21_linear_3129_7778)"/>
</g>
<mask id="mask5_3129_7778" style="mask-type:alpha" maskUnits="userSpaceOnUse" x="151" y="84" width="29" height="11">
<path d="M152.006 85.7667L154.001 86.5841L154.444 85.2577C154.493 85.1131 154.632 85.0188 154.784 85.0255C156.597 85.093 158.812 85.0825 161.077 85.0346C164.529 84.9618 168.095 84.8009 170.531 84.6774C171.647 84.6218 172.736 84.8632 173.701 85.3506C174.667 85.8395 175.507 86.5774 176.124 87.5087C176.893 88.6597 177.497 89.7409 177.962 90.6813C178.975 92.7297 179.335 94.1169 179.335 94.1169C179.386 94.3103 179.311 94.5148 179.146 94.6292C178.983 94.7441 178.765 94.7441 178.601 94.6302C177.916 94.1533 177.249 93.7276 176.618 93.3498C175.87 92.9026 175.173 92.5219 174.553 92.2049C173.77 91.8066 172.939 91.5231 172.084 91.3579C171.229 91.1922 170.351 91.1448 169.475 91.2224L169.469 91.2229C168.052 91.3321 166.312 91.4589 164.535 91.5834C161.811 91.7745 159 91.9612 157.134 92.0848C156.395 92.1346 155.676 91.9651 155.056 91.6174C154.439 91.2712 153.919 90.7498 153.576 90.0953L151.57 86.2513C151.502 86.1225 151.521 85.9645 151.619 85.8562C151.717 85.748 151.871 85.7121 152.006 85.7667Z" fill="#192940"/>
</mask>
<g mask="url(#mask5_3129_7778)">
<path d="M152.006 85.7667L154.001 86.5841L154.444 85.2577C154.493 85.1131 154.632 85.0188 154.784 85.0255C156.597 85.093 158.812 85.0825 161.077 85.0346C164.529 84.9618 168.095 84.8009 170.531 84.6774C171.647 84.6218 172.736 84.8632 173.701 85.3506C174.667 85.8395 175.507 86.5774 176.124 87.5087C176.893 88.6597 177.497 89.7409 177.962 90.6813C178.975 92.7297 179.335 94.1169 179.335 94.1169C179.386 94.3103 179.311 94.5148 179.146 94.6292C178.983 94.7441 178.765 94.7441 178.601 94.6302C177.916 94.1533 177.249 93.7276 176.618 93.3498C175.87 92.9026 175.173 92.5219 174.553 92.2049C173.77 91.8066 172.939 91.5231 172.084 91.3579C171.229 91.1922 170.351 91.1448 169.475 91.2224L169.469 91.2229C168.052 91.3321 166.312 91.4589 164.535 91.5834C161.811 91.7745 159 91.9612 157.134 92.0848C156.395 92.1346 155.676 91.9651 155.056 91.6174C154.439 91.2712 153.919 90.7498 153.576 90.0953L151.57 86.2513C151.502 86.1225 151.521 85.9645 151.619 85.8562C151.717 85.748 151.871 85.7121 152.006 85.7667Z" fill="#192940"/>
<rect x="176.817" y="81.9911" width="10.1927" height="32.478" transform="rotate(25.8836 176.817 81.9911)" fill="url(#paint22_linear_3129_7778)"/>
<rect x="169.373" y="77.7831" width="5.38155" height="32.478" transform="rotate(25.8836 169.373 77.7831)" fill="url(#paint23_linear_3129_7778)"/>
</g>
<path fill-rule="evenodd" clip-rule="evenodd" d="M175.917 55.1124C175.917 55.1124 175.596 57.5515 175.615 61.3289C175.625 63.1317 175.712 65.2404 175.948 67.5345C176.083 68.8589 176.393 70.1536 176.864 71.3861C177.335 72.6191 177.968 73.7893 178.75 74.8662C179.748 76.2634 180.999 78.1317 182.25 80.3224C183.242 82.0605 184.233 84.0021 185.095 86.073C185.121 86.7587 185.342 93.793 184.454 107.026C183.907 115.163 182.942 125.641 181.254 138.425L181.253 138.426C181.128 139.39 180.894 140.333 180.557 141.238C180.221 142.142 179.783 143.008 179.248 143.818C177.436 146.49 174.091 150.887 168.797 155.918C165.448 159.1 161.319 162.536 156.306 165.947C155.175 166.714 153.946 167.307 152.657 167.715C151.37 168.123 150.023 168.346 148.658 168.37C148.658 168.37 148.655 168.37 148.654 168.37C148.156 168.384 147.623 168.381 147.055 168.358C146.548 168.338 146.015 168.302 145.454 168.249H145.453C144.681 168.179 143.907 168.141 143.134 168.135C142.361 168.13 141.588 168.156 140.818 168.214C139.227 168.306 136.963 168.335 134.889 167.878C133.58 167.589 132.347 167.108 131.428 166.309C131.416 166.298 131.403 166.289 131.39 166.279C128.689 164.421 121.183 159.674 114.356 153.047C110.974 149.764 107.757 146.02 105.382 141.934C104.642 140.652 104.023 139.309 103.53 137.92C103.038 136.532 102.673 135.099 102.441 133.638C101.662 128.673 100.16 118.524 99.1003 107.97C98.5094 102.089 98.056 96.0818 97.9425 90.7789C97.9348 89.9232 98.0622 89.0771 98.315 88.2708C98.5683 87.4635 98.9475 86.6959 99.4431 85.9978L103.252 80.624C103.8 79.8522 104.229 79.008 104.529 78.1203C104.828 77.2325 104.998 76.3012 105.03 75.3551L105.295 67.5067C105.328 66.5222 105.602 65.5771 106.076 64.7458C106.55 63.9146 107.223 63.1973 108.052 62.6668L113.551 59.1808C113.783 59.0324 113.851 58.724 113.703 58.4918C113.554 58.26 113.246 58.1925 113.014 58.3405L107.518 61.8317C106.552 62.4508 105.768 63.2878 105.218 64.2569C104.667 65.2261 104.348 66.3269 104.311 67.4741L104.055 75.3225C104.027 76.1734 103.875 77.0113 103.606 77.8095C103.338 78.6087 102.953 79.3681 102.461 80.0628L98.6569 85.4414C98.1043 86.2219 97.681 87.0809 97.399 87.984C97.117 88.8866 96.9753 89.8332 96.9853 90.7904C96.9853 90.7923 96.9853 90.7942 96.9858 90.7961C97.1055 96.123 97.5671 102.157 98.1675 108.064C99.2415 118.638 100.759 128.806 101.545 133.779C101.787 135.295 102.168 136.783 102.68 138.222C103.192 139.662 103.837 141.055 104.606 142.383L104.607 142.384C107.028 146.536 110.301 150.343 113.745 153.676C120.61 160.322 128.15 165.085 130.89 166.963C131.911 167.84 133.265 168.381 134.709 168.697C136.864 169.169 139.218 169.14 140.869 169.041C140.872 169.041 140.874 169.041 140.876 169.041C141.626 168.982 142.377 168.956 143.128 168.959C143.879 168.964 144.63 168.999 145.379 169.066C145.954 169.119 146.502 169.155 147.023 169.175C147.61 169.197 148.161 169.2 148.676 169.185C150.118 169.156 151.541 168.918 152.902 168.484C154.263 168.051 155.561 167.421 156.755 166.608C161.802 163.16 165.958 159.69 169.328 156.476C174.668 151.384 178.038 146.934 179.864 144.233C179.865 144.231 179.865 144.23 179.866 144.229C180.43 143.37 180.893 142.452 181.248 141.494C181.602 140.537 181.848 139.539 181.978 138.52C183.645 125.715 184.592 115.22 185.123 107.071C186.036 93.0758 185.722 85.9911 185.722 85.9911C185.721 85.9543 185.713 85.9179 185.698 85.8839C184.816 83.7694 183.801 81.788 182.785 80.0164C181.518 77.8066 180.251 75.9234 179.241 74.5147C179.241 74.5138 179.24 74.5133 179.24 74.5123C178.486 73.4795 177.875 72.3562 177.421 71.173C176.965 69.9894 176.665 68.7459 176.533 67.4737C176.294 65.2012 176.204 63.1116 176.191 61.3251C176.165 57.5946 176.475 55.1852 176.475 55.1852C176.496 55.031 176.387 54.8893 176.233 54.8696C176.078 54.8495 175.937 54.9582 175.917 55.1124Z" fill="#C24353"/>
<path fill-rule="evenodd" clip-rule="evenodd" d="M176.408 54.7153C174.221 53.2025 171.603 52.1606 169.1 51.3646C166.883 50.6588 164.246 49.9951 161.304 49.5561C161.148 49.5307 161.002 49.6365 160.977 49.7921C160.952 49.9473 161.057 50.0938 161.213 50.1192C164.105 50.6234 166.687 51.3507 168.861 52.0914C171.324 52.9301 173.771 54.0715 176.119 55.2075C176.255 55.2875 176.43 55.2415 176.51 55.1055C176.59 54.97 176.544 54.7948 176.408 54.7153Z" fill="#623FC6"/>
<path fill-rule="evenodd" clip-rule="evenodd" d="M185.649 98.7857C185.999 97.9798 186.44 97.3358 186.901 96.823C187.53 96.1224 188.197 95.6709 188.716 95.3903C188.948 95.2687 189.198 95.1773 189.455 95.1193C189.712 95.0614 189.976 95.0374 190.241 95.048L191.057 95.0772C191.508 95.0954 191.911 95.2903 192.203 95.5924C192.494 95.8921 192.672 96.3006 192.675 96.7487L192.782 107.19C192.784 107.377 192.768 107.562 192.734 107.744C192.7 107.926 192.647 108.105 192.577 108.278C192.156 109.329 191.237 111.606 190.224 114.152C188.972 117.294 187.574 120.845 186.731 122.977C186.531 123.481 186.187 123.897 185.755 124.184C185.32 124.473 184.8 124.632 184.255 124.62L183.557 124.602C183.363 124.596 183.2 124.748 183.194 124.942C183.187 125.136 183.34 125.299 183.533 125.306L184.231 125.334C184.93 125.364 185.601 125.172 186.164 124.813C186.73 124.452 187.185 123.919 187.455 123.269C188.329 121.15 189.791 117.626 191.075 114.496C192.114 111.961 193.036 109.685 193.464 108.636C193.557 108.404 193.627 108.164 193.673 107.92C193.718 107.675 193.739 107.426 193.735 107.176L193.538 96.7363C193.524 96.0607 193.247 95.4492 192.803 95.0034C192.362 94.5596 191.757 94.2771 191.084 94.2598L190.262 94.2416C189.932 94.233 189.598 94.268 189.275 94.346C188.951 94.4241 188.638 94.5433 188.344 94.7037C188.342 94.7047 188.341 94.7051 188.34 94.7056C187.767 95.0269 187.033 95.5407 186.345 96.3307C185.847 96.9024 185.372 97.6183 185.001 98.5103C184.925 98.6889 185.009 98.8958 185.187 98.9719C185.366 99.048 185.573 98.9647 185.649 98.7857Z" fill="#623FC6"/>
<path fill-rule="evenodd" clip-rule="evenodd" d="M93.9483 48.0585C92.0832 49.8431 90.7052 52.0222 89.8855 54.3942C89.0614 56.7778 88.8 59.3563 89.1734 61.9237C89.1734 61.9252 89.1739 61.9271 89.1739 61.9285C89.7677 65.6853 90.4682 69.9176 91.1586 73.9962C92.7579 83.4424 94.2988 92.0674 94.2988 92.0674C94.3323 92.2585 94.5152 92.3863 94.7062 92.3528C94.8978 92.3188 95.0256 92.1364 94.9921 91.9449C94.9921 91.9449 93.4886 83.3165 91.9262 73.8679C91.252 69.7908 90.5659 65.5608 89.9865 61.8054C89.6417 59.3711 89.8984 56.9291 90.6865 54.6729C91.4747 52.4182 92.7948 50.3496 94.5798 48.6608C94.5899 48.6517 94.599 48.6422 94.6076 48.6321C95.8195 47.4805 96.8719 46.182 97.7439 44.7719C98.623 43.3502 99.3182 41.8147 99.8076 40.2015L101.725 33.8839C102.304 31.973 103.293 30.2401 104.597 28.7898C105.9 27.3404 107.517 26.173 109.354 25.3939C114.156 23.3829 121.509 20.7594 130.333 19.0907C136.933 17.8425 144.356 17.1247 152.156 17.6165H152.157C153.923 17.7247 155.651 18.1015 157.284 18.7259C158.919 19.3503 160.459 20.2217 161.848 21.3192C163.664 22.7681 165.951 24.7269 168.545 27.2297C170.463 29.0804 172.549 31.2274 174.735 33.6862C175.907 35.0058 176.829 36.5112 177.469 38.1277C178.11 39.7452 178.47 41.4747 178.519 43.2406C178.557 44.5966 178.539 46.1633 178.419 47.9196C178.321 49.3499 178.156 50.906 177.9 52.5766C177.87 52.7687 178.002 52.9487 178.194 52.9789C178.385 53.0085 178.566 52.8769 178.595 52.6849C178.862 50.9941 179.036 49.4188 179.142 47.9709C179.272 46.1882 179.3 44.598 179.268 43.2214C179.224 41.3655 178.853 39.5474 178.187 37.8447C177.521 36.1411 176.558 34.5533 175.33 33.1595C173.14 30.6739 171.049 28.502 169.125 26.6312C166.517 24.0954 164.214 22.1121 162.386 20.6436C162.386 20.6431 162.385 20.6426 162.384 20.6426C160.93 19.4848 159.315 18.564 157.6 17.9018C155.885 17.2396 154.07 16.8374 152.213 16.7172C144.333 16.2025 136.828 16.9011 130.157 18.1561C121.251 19.832 113.834 22.4937 108.989 24.5249C108.988 24.5249 108.987 24.5254 108.987 24.5258C107.022 25.3623 105.293 26.6135 103.903 28.1668C102.513 29.7201 101.461 31.5751 100.847 33.6191L98.9471 39.9415C98.4841 41.4819 97.8248 42.9485 96.9902 44.3074C96.1547 45.6663 95.1439 46.9179 93.9784 48.0269C93.9679 48.0369 93.9578 48.0475 93.9483 48.0585ZM94.7081 48.4257C94.6962 48.4899 94.6698 48.5517 94.6287 48.6058C94.6674 48.5579 94.6962 48.5019 94.7081 48.4257ZM94.6665 48.1428C94.6962 48.1997 94.7124 48.2615 94.7153 48.3237C94.7158 48.2845 94.7115 48.2251 94.6665 48.1428ZM94.6387 48.0968C94.633 48.0882 94.6234 48.0752 94.6066 48.0561C94.6181 48.069 94.6287 48.0829 94.6387 48.0968Z" fill="#623FC6"/>
<path fill-rule="evenodd" clip-rule="evenodd" d="M192.203 95.3625C192.203 95.3625 191.507 95.9055 190.561 96.8756C190.247 97.1969 189.91 97.566 189.562 97.9773C189.186 98.4217 188.798 98.9144 188.422 99.4507C188.076 99.9439 187.744 100.477 187.428 101.034C187.428 101.035 187.428 101.035 187.427 101.036C187.075 101.672 186.832 102.357 186.707 103.063C186.582 103.768 186.573 104.493 186.685 105.209C186.684 105.203 187.32 109.342 187.32 109.342C187.376 109.695 187.374 110.051 187.312 110.398C187.249 110.747 187.13 111.085 186.954 111.398L186.499 112.205C186.235 112.671 186.07 113.181 186.012 113.704C185.953 114.223 185.997 114.754 186.148 115.265L186.499 116.441C186.539 116.581 186.685 116.664 186.826 116.624C186.967 116.585 187.049 116.438 187.01 116.297L186.698 115.111C186.582 114.673 186.56 114.221 186.623 113.782C186.686 113.346 186.837 112.922 187.07 112.538L187.549 111.745C187.776 111.37 187.934 110.96 188.023 110.536C188.113 110.111 188.129 109.671 188.072 109.233L187.546 105.084C187.463 104.463 187.486 103.838 187.604 103.23C187.723 102.626 187.939 102.04 188.249 101.498C188.55 100.965 188.875 100.46 189.196 99.9807C189.547 99.4555 189.897 98.9632 190.235 98.5155C190.55 98.0985 190.852 97.7188 191.127 97.3826C191.958 96.3671 192.555 95.759 192.555 95.759C192.665 95.6618 192.675 95.4942 192.578 95.3845C192.481 95.2754 192.313 95.2653 192.203 95.3625Z" fill="#623FC6"/>
<path fill-rule="evenodd" clip-rule="evenodd" d="M92.2603 93.6554C92.2603 93.6554 93.1844 94.8362 94.1871 96.6873C94.6951 97.6263 95.2242 98.7367 95.659 99.9557C95.8313 100.438 95.9348 100.941 95.9735 101.449C96.0123 101.955 95.9841 102.466 95.8864 102.969L95.0839 107.561C95.0217 107.937 95.0121 108.319 95.0585 108.694C95.1045 109.067 95.2022 109.434 95.354 109.782L95.8514 110.917C96.0037 111.261 96.0966 111.626 96.1239 111.996C96.1517 112.369 96.1186 112.747 96.0181 113.114L95.6408 114.5C95.5953 114.651 95.681 114.81 95.8318 114.855C95.9826 114.901 96.1416 114.815 96.1871 114.664L96.6377 113.3C96.7804 112.865 96.8426 112.412 96.8311 111.961C96.8196 111.506 96.7272 111.054 96.5611 110.623L96.1124 109.469C96.0032 109.19 95.9381 108.899 95.9127 108.604C95.8869 108.311 95.9051 108.014 95.9644 107.723C96.1057 106.995 96.3106 105.975 96.4955 104.975C96.6161 104.323 96.7258 103.68 96.8187 103.135C96.9202 102.553 96.9446 101.957 96.8857 101.369C96.8273 100.782 96.6889 100.204 96.473 99.6498C96.4725 99.6493 96.4725 99.6488 96.4725 99.6483C95.9755 98.4044 95.3889 97.2748 94.8234 96.3258C93.713 94.4622 92.7003 93.2925 92.7003 93.2925C92.6002 93.1713 92.4207 93.1536 92.2991 93.2541C92.1775 93.3542 92.1602 93.5343 92.2603 93.6554Z" fill="#C24353"/>
<path fill-rule="evenodd" clip-rule="evenodd" d="M164.969 49.1265C154.301 49.7195 143.212 55.2801 133.362 58.9072C131.473 59.6053 129.521 60.0999 127.54 60.3858C125.556 60.6721 123.542 60.7506 121.531 60.6147C119.167 60.4576 117.143 59.9965 115.16 59.0992C113.356 58.2823 111.587 57.1078 109.629 55.4803C109.492 55.3649 109.286 55.3826 109.171 55.52C109.055 55.6574 109.073 55.8624 109.21 55.9782C111.203 57.6752 113.01 58.9019 114.855 59.7628C116.91 60.7214 119.013 61.2275 121.473 61.4191C123.541 61.58 125.615 61.5206 127.66 61.2457C129.707 60.9709 131.724 60.4796 133.679 59.7782C143.568 56.2007 154.407 50.7664 165.017 49.7753C165.196 49.7619 165.331 49.6058 165.317 49.4267C165.304 49.2476 165.148 49.1131 164.969 49.1265Z" fill="#623FC6"/>
<path fill-rule="evenodd" clip-rule="evenodd" d="M181.245 139.593C180.604 142.811 180.019 146.526 179.363 149.59C178.684 152.761 178.011 155.876 177.408 158.997C176.601 163.169 175.915 167.349 175.395 171.663C175.285 172.612 175.35 173.566 175.583 174.477C175.816 175.385 176.213 176.251 176.765 177.028L176.865 177.162C176.95 177.28 177.114 177.306 177.231 177.221C177.348 177.136 177.374 176.972 177.289 176.855L177.184 176.714L177.195 176.729C176.694 175.998 176.339 175.187 176.136 174.34C175.934 173.495 175.885 172.613 176.001 171.738C176.423 168.527 176.957 165.394 177.532 162.278C178.073 159.348 178.657 156.435 179.254 153.49C180.123 149.204 180.92 144.248 181.759 139.691C181.787 139.55 181.693 139.412 181.551 139.385C181.409 139.358 181.272 139.451 181.245 139.593Z" fill="#C24353"/>
<path fill-rule="evenodd" clip-rule="evenodd" d="M176.927 163.952L184.004 169.259C185 170 185.896 170.858 186.687 171.804C187.477 172.748 188.16 173.782 188.712 174.892C189.487 176.455 190.334 178.414 190.991 180.569C191.567 182.458 192 184.498 192.086 186.562C192.091 186.725 192.227 186.853 192.39 186.848C192.553 186.843 192.681 186.708 192.676 186.545C192.64 184.422 192.258 182.312 191.705 180.359C191.078 178.145 190.234 176.133 189.465 174.522C189.464 174.52 189.463 174.519 189.463 174.517C188.877 173.35 188.159 172.258 187.319 171.27C186.48 170.283 185.519 169.4 184.461 168.636L177.277 163.476C177.146 163.379 176.961 163.408 176.864 163.539C176.768 163.67 176.796 163.855 176.927 163.952Z" fill="#623FC6"/>
<path fill-rule="evenodd" clip-rule="evenodd" d="M176.971 164.092C176.971 164.092 178.251 167.912 178.47 174.085C178.543 176.176 178.491 178.505 178.244 181.001C178.029 183.164 177.667 185.452 177.091 187.819C176.325 190.963 175.195 194.25 173.518 197.557C173.437 197.711 173.497 197.902 173.651 197.982C173.805 198.062 173.996 198.003 174.076 197.849C175.865 194.528 177.122 191.222 177.954 188.037C178.583 185.633 178.977 183.3 179.192 181.094C179.439 178.551 179.448 176.175 179.336 174.048C179.004 167.76 177.57 163.895 177.57 163.895C177.515 163.729 177.337 163.639 177.171 163.694C177.006 163.748 176.916 163.927 176.971 164.092Z" fill="#623FC6"/>
<path fill-rule="evenodd" clip-rule="evenodd" d="M125.098 137.123C126.468 138.885 127.901 139.569 129.405 139.762C130.332 139.881 131.289 139.807 132.276 139.669C132.876 139.585 133.489 139.478 134.115 139.373C134.987 139.226 135.885 139.086 136.824 139.06C138.072 139.025 139.39 139.171 140.806 139.753C140.898 139.795 141.008 139.754 141.051 139.661C141.093 139.568 141.052 139.458 140.959 139.416C139.517 138.691 138.142 138.414 136.825 138.372C135.846 138.341 134.9 138.436 133.988 138.572C133.362 138.665 132.753 138.78 132.157 138.878C131.235 139.028 130.347 139.143 129.474 139.077C128.085 138.972 126.742 138.421 125.383 136.887C125.318 136.808 125.201 136.797 125.123 136.863C125.044 136.928 125.033 137.045 125.098 137.123Z" fill="#192940"/>
<path fill-rule="evenodd" clip-rule="evenodd" d="M160.468 139.592C160.537 139.617 160.585 139.556 160.585 139.556C160.664 139.513 160.693 139.415 160.651 139.336L160.649 139.333H160.649C160.649 139.333 160.645 139.324 160.638 139.311C160.596 139.232 160.497 139.202 160.417 139.245C159.501 139.697 158.517 139.96 157.517 140.048C156.529 140.135 155.526 140.046 154.557 139.764C153.552 139.489 152.616 139.278 151.745 139.145C150.684 138.984 149.723 138.926 148.864 138.926C145.047 138.926 143.229 140.114 143.229 140.114C143.153 140.16 143.128 140.26 143.174 140.337C143.22 140.413 143.319 140.438 143.396 140.392C143.396 140.392 144.832 139.61 147.732 139.552C148.85 139.53 150.182 139.625 151.741 139.888C152.556 140.025 153.436 140.197 154.376 140.443C154.377 140.443 154.377 140.443 154.378 140.444C155.437 140.694 156.524 140.749 157.581 140.59C158.589 140.44 159.567 140.102 160.468 139.592Z" fill="#192940"/>
<path fill-rule="evenodd" clip-rule="evenodd" d="M132.027 136.307C132.027 136.307 132.707 135.895 133.868 135.357C134.409 135.106 135.054 134.827 135.785 134.552C135.785 134.552 135.786 134.551 135.786 134.551C136.306 134.351 136.855 134.258 137.402 134.266C137.945 134.274 138.486 134.386 138.996 134.601L140.226 135.094C140.88 135.362 141.57 135.518 142.267 135.551C142.964 135.584 143.667 135.494 144.344 135.29L146.943 134.467C147.273 134.361 147.616 134.317 147.956 134.336C148.298 134.356 148.638 134.437 148.955 134.582L151.936 135.929C152.04 135.98 152.165 135.936 152.214 135.833C152.265 135.729 152.221 135.604 152.118 135.554L149.211 134.053C148.831 133.86 148.423 133.743 148.006 133.701C147.587 133.659 147.16 133.698 146.747 133.814L144.126 134.564C143.53 134.742 142.913 134.813 142.301 134.787C141.688 134.761 141.079 134.639 140.5 134.411L139.249 133.945C138.654 133.717 138.026 133.606 137.401 133.617C136.775 133.629 136.152 133.759 135.566 134.009C134.835 134.318 134.188 134.625 133.647 134.903C132.48 135.502 131.802 135.956 131.802 135.956C131.705 136.018 131.677 136.147 131.739 136.244C131.801 136.341 131.93 136.369 132.027 136.307Z" fill="#192940"/>
<path fill-rule="evenodd" clip-rule="evenodd" d="M133.348 145.615L134.211 146.593C134.746 147.197 135.391 147.68 136.102 148.026C136.822 148.375 137.609 148.577 138.422 148.624C139.747 148.685 141.442 148.785 143.055 148.837C144.177 148.873 145.258 148.877 146.146 148.893C146.885 148.897 147.61 148.761 148.28 148.487C148.943 148.214 149.552 147.813 150.068 147.296L150.972 146.387C151.04 146.323 151.044 146.217 150.98 146.149C150.917 146.081 150.81 146.077 150.742 146.141L149.775 146.983C149.275 147.42 148.697 147.745 148.081 147.956C147.472 148.164 146.824 148.255 146.169 148.216C145.281 148.174 144.202 148.106 143.08 148.068C141.467 148.012 139.769 148 138.444 147.973C137.708 147.967 136.99 147.816 136.326 147.535C135.654 147.251 135.036 146.84 134.513 146.311L133.594 145.385C133.53 145.317 133.423 145.313 133.356 145.377C133.288 145.44 133.284 145.547 133.348 145.615Z" fill="#192940"/>
<path fill-rule="evenodd" clip-rule="evenodd" d="M131.724 125.278L133.498 124.754C133.984 124.61 134.489 124.602 134.967 124.712C135.438 124.82 135.879 125.051 136.248 125.388L138.361 127.307C138.826 127.724 139.356 128.054 139.926 128.286C140.499 128.518 141.112 128.649 141.738 128.674L144.084 128.746C144.75 128.76 145.407 128.667 146.033 128.467C146.655 128.269 147.245 127.969 147.777 127.575L150.105 125.837C150.502 125.539 150.955 125.336 151.43 125.241C151.911 125.145 152.413 125.152 152.901 125.276L154.007 125.554C154.121 125.586 154.24 125.519 154.272 125.405C154.304 125.291 154.237 125.172 154.123 125.14L153.033 124.802C152.475 124.631 151.894 124.594 151.331 124.679C150.763 124.763 150.215 124.978 149.727 125.309L147.327 126.946C146.855 127.271 146.335 127.51 145.79 127.666C145.249 127.82 144.683 127.888 144.114 127.861L141.767 127.778C141.243 127.764 140.729 127.66 140.245 127.476C139.759 127.292 139.303 127.029 138.901 126.688L136.711 124.857C136.236 124.464 135.678 124.205 135.091 124.101C134.511 123.999 133.905 124.04 133.331 124.244L131.591 124.869C131.478 124.906 131.416 125.027 131.453 125.14C131.49 125.253 131.611 125.315 131.724 125.278Z" fill="#C24353"/>
<path fill-rule="evenodd" clip-rule="evenodd" d="M154.979 119.943C154.953 120.02 154.983 120.105 155.052 120.149C155.333 120.328 156.038 120.808 156.312 121.262C156.615 121.765 156.76 122.363 156.698 122.98L156.534 125.166C156.518 125.696 156.3 126.172 155.955 126.527C155.599 126.894 155.118 127.144 154.57 127.177L153.145 127.276C153.061 127.277 152.994 127.345 152.995 127.429C152.996 127.513 153.064 127.581 153.148 127.58L154.576 127.646C155.27 127.672 155.912 127.419 156.397 126.99C156.894 126.551 157.212 125.918 157.273 125.209L157.366 123.019C157.378 122.268 157.155 121.555 156.732 120.981C156.351 120.464 155.821 120.058 155.188 119.838C155.102 119.807 155.009 119.856 154.979 119.943Z" fill="#C24353"/>
<path fill-rule="evenodd" clip-rule="evenodd" d="M131.119 118.889C131.095 118.801 131.007 118.747 130.92 118.771C130.271 118.95 129.712 119.322 129.298 119.816C128.841 120.362 128.574 121.061 128.543 121.811C128.535 122.166 128.523 122.537 128.519 122.907C128.515 123.28 128.52 123.651 128.521 124.004C128.534 124.706 128.807 125.347 129.265 125.815C129.714 126.274 130.329 126.571 131.016 126.599L132.442 126.651C132.531 126.658 132.609 126.591 132.617 126.502C132.623 126.413 132.557 126.336 132.468 126.328L131.05 126.159C130.499 126.096 130.024 125.82 129.687 125.428C129.359 125.047 129.169 124.548 129.188 124.009C129.194 123.657 129.205 123.286 129.207 122.913C129.209 122.542 129.203 122.171 129.2 121.817C129.183 121.198 129.372 120.613 129.711 120.132C130.03 119.679 130.472 119.311 131.01 119.1C131.094 119.066 131.143 118.976 131.119 118.889Z" fill="#C24353"/>
<path fill-rule="evenodd" clip-rule="evenodd" d="M179.181 46.0896L182.187 46.2093C183.285 46.2534 184.337 46.567 185.262 47.1018C186.184 47.6357 186.978 48.3904 187.563 49.3193C188.662 51.0684 190.05 53.485 191.406 56.4063C192.443 58.639 193.462 61.1663 194.315 63.9181C194.941 65.9147 195.291 67.977 195.371 70.0494C195.452 72.1227 195.263 74.2065 194.794 76.2463L190.753 94.4116C190.709 94.6008 190.827 94.7899 191.016 94.8344C191.206 94.8785 191.395 94.7607 191.439 94.5711L195.686 76.4536C196.186 74.3358 196.4 72.1696 196.323 70.0139C196.246 67.8573 195.876 65.7117 195.226 63.6336C194.348 60.8426 193.304 58.279 192.239 56.0165C190.848 53.0617 189.422 50.6217 188.296 48.8543C187.629 47.8105 186.727 46.9639 185.681 46.3697C184.637 45.7765 183.451 45.4336 182.215 45.3944L179.209 45.2996C178.991 45.2919 178.808 45.4624 178.8 45.6807C178.792 45.8986 178.963 46.082 179.181 46.0896Z" fill="#623FC6"/>
<path fill-rule="evenodd" clip-rule="evenodd" d="M107.644 164.703C107.644 164.703 107.1 167.967 106.987 173.897C106.952 175.702 106.953 177.754 107.04 180.036C107.112 181.924 107.243 183.969 107.443 186.159C107.7 188.969 108.085 192.018 108.589 195.287C108.616 195.479 108.794 195.613 108.987 195.586C109.179 195.559 109.313 195.38 109.285 195.188C108.763 191.201 108.444 187.544 108.228 184.257C108.143 182.983 108.073 181.765 108.016 180.604C107.952 179.314 107.903 178.095 107.868 176.95C107.633 169.16 108.169 164.779 108.169 164.779C108.189 164.634 108.089 164.5 107.944 164.479C107.799 164.458 107.665 164.559 107.644 164.703Z" fill="#623FC6"/>
<path fill-rule="evenodd" clip-rule="evenodd" d="M106.795 162.385L100.616 164.599C99.4206 165.032 98.3155 165.662 97.3526 166.464C96.3901 167.266 95.5714 168.239 94.9288 169.336L91.1691 175.993C91.1016 176.106 91.1394 176.252 91.2524 176.319C91.3659 176.387 91.5119 176.349 91.5794 176.236L95.6154 169.743C96.2211 168.734 96.9954 167.848 97.8879 167.108C98.78 166.366 99.7917 165.768 100.895 165.358L107.038 163.046C107.22 162.979 107.314 162.776 107.247 162.594C107.18 162.411 106.977 162.318 106.795 162.385Z" fill="#623FC6"/>
<path fill-rule="evenodd" clip-rule="evenodd" d="M98.9466 165.324C98.9466 165.324 94.1604 166.388 90.3667 167.261C88.4605 167.699 86.5863 168.153 85.2452 168.469C84.5667 168.644 83.915 168.903 83.3165 169.255C82.7203 169.606 82.1774 170.044 81.6971 170.55C81.2259 171.057 80.6825 171.636 80.1606 172.204C78.9712 173.499 77.8833 174.713 77.8833 174.713C77.8124 174.784 77.8124 174.899 77.8833 174.97C77.9546 175.041 78.0696 175.041 78.1404 174.97C78.1404 174.97 79.3537 173.882 80.649 172.693C81.2173 172.171 81.7962 171.627 82.3033 171.157C82.7496 170.733 83.2533 170.382 83.7891 170.093C84.322 169.804 84.8899 169.58 85.4846 169.439C86.8191 169.094 88.6884 168.622 90.5792 168.122C94.3433 167.127 99.0774 165.852 99.0774 165.852C99.2229 165.816 99.312 165.668 99.2761 165.522C99.2402 165.377 99.0927 165.288 98.9466 165.324Z" fill="#623FC6"/>
<path fill-rule="evenodd" clip-rule="evenodd" d="M84.5718 168.738C84.5718 168.738 76.0143 170.434 68.2602 172.067C63.7732 173.012 59.5553 173.936 57.4125 174.498C57.2478 174.542 57.1224 174.675 57.0879 174.841C57.0534 175.008 57.1166 175.18 57.2512 175.284C57.2512 175.284 58.5971 176.348 62.0432 177.464C63.9025 178.067 66.3837 178.688 69.61 179.165C69.6177 179.166 69.6254 179.167 69.6325 179.168C72.5591 179.45 75.5225 180.365 78.3634 181.616C81.2028 182.865 83.9201 184.451 86.3578 186.083C88.4157 187.461 93.1336 189.711 99.0939 192.105C104.979 194.467 112.08 196.973 119.016 198.921L119.017 198.921C121.397 199.582 123.71 200.447 125.93 201.506C128.151 202.564 130.279 203.816 132.291 205.249C132.293 205.251 132.296 205.253 132.299 205.255C132.727 205.546 133.171 205.835 133.628 206.111C134.08 206.385 134.545 206.647 135.02 206.885L135.021 206.886C136.203 207.475 137.498 207.722 138.771 207.637C140.043 207.552 141.293 207.133 142.385 206.391L142.386 206.391C143.889 205.366 145.098 204.376 147.241 203.472C148.583 202.906 150.291 202.374 152.664 201.885C153.187 201.818 164.963 200.311 176.515 198.125C182.28 197.035 187.99 195.774 192.222 194.44C192.225 194.439 192.228 194.438 192.23 194.438C192.872 194.222 193.506 193.986 194.132 193.729C194.757 193.472 195.375 193.195 195.982 192.898L195.984 192.897C197.921 191.942 199.353 191.389 200.623 191.063C202.296 190.634 203.687 190.6 205.576 190.541H205.579C206.324 190.514 207.066 190.445 207.802 190.334C208.538 190.222 209.268 190.07 209.988 189.876C209.988 189.876 209.989 189.876 209.99 189.875C211.275 189.522 212.948 188.997 214.747 188.26C216.214 187.659 217.763 186.918 219.255 186.015C219.392 185.932 219.469 185.778 219.454 185.618C219.439 185.458 219.334 185.322 219.183 185.266L199.203 177.578C198.993 177.5 198.76 177.607 198.682 177.817C198.605 178.027 198.712 178.26 198.922 178.338L218.064 185.742C216.849 186.423 215.611 186.999 214.429 187.482C212.666 188.201 211.026 188.713 209.767 189.058C209.078 189.243 208.38 189.388 207.676 189.493C206.972 189.598 206.262 189.664 205.549 189.689C203.589 189.747 202.147 189.788 200.411 190.232C199.095 190.567 197.61 191.135 195.604 192.121C195.012 192.41 194.412 192.679 193.803 192.928C193.196 193.176 192.581 193.405 191.958 193.613C187.752 194.934 182.078 196.178 176.351 197.256C164.56 199.477 152.536 200.99 152.536 200.99C152.525 200.992 152.513 200.994 152.502 200.996C150.044 201.501 148.277 202.053 146.889 202.637C144.677 203.568 143.425 204.582 141.873 205.638C140.917 206.287 139.823 206.653 138.709 206.728C137.596 206.803 136.463 206.586 135.429 206.071C134.975 205.843 134.532 205.593 134.1 205.332C133.659 205.065 133.23 204.785 132.815 204.503C130.762 203.041 128.589 201.763 126.323 200.682C124.055 199.601 121.693 198.716 119.262 198.042C112.359 196.104 105.291 193.611 99.4334 191.26C93.5521 188.899 88.8931 186.687 86.8624 185.329C83.8909 183.341 80.5099 181.422 76.9973 180.075C74.6046 179.157 72.1502 178.505 69.7221 178.272C66.5719 177.806 64.1414 177.199 62.32 176.611C60.557 176.04 59.3752 175.489 58.6642 175.105C60.9678 174.542 64.6073 173.748 68.4436 172.939C76.1924 171.304 84.7441 169.605 84.7441 169.605C84.9835 169.558 85.1392 169.325 85.0918 169.086C85.0439 168.846 84.8112 168.691 84.5718 168.738Z" fill="#623FC6"/>
<path fill-rule="evenodd" clip-rule="evenodd" d="M218.765 186.045C218.765 186.045 230.459 186.029 239.489 195.544C243.611 199.887 247.216 206.353 249.004 215.963C247.282 217.326 233.142 228.407 213.882 240.062C202.467 246.97 189.254 254.079 175.762 259.486C165.326 263.637 154.247 265.432 143.28 264.906C132.314 264.38 121.459 261.533 111.469 256.403C96.9282 248.933 78.2038 238.835 61.5998 228.432C49.4832 220.84 38.4966 213.088 31.0988 206.078C31.1276 204.556 31.5805 194.053 38.4981 185.823C42.4369 181.137 48.3609 176.572 57.6151 175.443C57.8699 175.412 58.0518 175.179 58.0207 174.924C57.9891 174.669 57.7569 174.488 57.5021 174.519C47.9592 175.692 41.8575 180.4 37.7995 185.236C30.1173 194.392 30.2049 206.271 30.2049 206.271C30.2054 206.392 30.2556 206.508 30.3433 206.591C37.7827 213.662 48.8871 221.495 61.1434 229.161C77.7763 239.564 96.5307 249.662 111.096 257.13C121.192 262.308 132.162 265.178 143.242 265.704C154.322 266.23 165.512 264.413 176.053 260.216L176.054 260.216C189.583 254.787 202.834 247.652 214.28 240.719C234.892 228.236 249.654 216.412 249.654 216.412C249.762 216.326 249.814 216.186 249.789 216.05C247.98 206.134 244.266 199.486 240.033 195.027C230.746 185.246 218.72 185.303 218.72 185.303C218.515 185.315 218.359 185.491 218.372 185.696C218.384 185.901 218.56 186.057 218.765 186.045Z" fill="#623FC6"/>
<path fill-rule="evenodd" clip-rule="evenodd" d="M186.388 171.368C186.388 171.368 189.458 173.086 192.606 174.822C194.079 175.634 195.571 176.445 196.765 177.099C197.541 177.514 198.242 178.042 198.868 178.647C199.496 179.253 200.05 179.936 200.492 180.698C200.966 181.487 201.486 182.364 201.965 183.151C202.784 184.499 203.465 185.589 203.465 185.589C203.535 185.713 203.693 185.758 203.817 185.688C203.941 185.618 203.986 185.46 203.916 185.336C203.916 185.336 203.34 184.187 202.617 182.785C202.195 181.966 201.717 181.065 201.291 180.25C200.827 179.394 200.249 178.61 199.563 177.935C198.875 177.259 198.08 176.695 197.216 176.245C196.003 175.628 194.491 174.853 192.99 174.095C189.78 172.476 186.63 170.911 186.63 170.911C186.503 170.844 186.347 170.893 186.28 171.018C186.214 171.145 186.262 171.301 186.388 171.368Z" fill="#623FC6"/>
<circle r="2.89919" transform="matrix(1 0 0.0329807 0.999456 164.353 99.4638)" fill="#192940"/>
<circle r="2.89919" transform="matrix(1 0 0.0329807 0.999456 124.038 98.4167)" fill="#192940"/>
<circle opacity="0.7" cx="165.245" cy="98.7495" r="0.7157" fill="white"/>
<circle opacity="0.7" cx="124.931" cy="97.7025" r="0.7157" fill="white"/>
<path fill-rule="evenodd" clip-rule="evenodd" d="M97.9938 95.3407C97.7764 94.7374 97.4757 94.2408 97.1463 93.8334C96.7288 93.3167 96.2619 92.9452 95.852 92.6842C95.8511 92.6832 95.8501 92.6828 95.8487 92.6818C95.5724 92.5099 95.2755 92.3758 94.9672 92.281C94.6579 92.1857 94.3361 92.1312 94.0105 92.1173L94.0976 92.1307L93.8214 92.0952C93.1553 92.068 92.5386 92.3074 92.0722 92.7168C91.6035 93.1281 91.2903 93.7146 91.2309 94.3816L90.5213 102.485C90.4356 103.493 90.4509 104.503 90.5673 105.503C90.6841 106.502 90.903 107.49 91.218 108.451C91.6877 109.861 92.2839 111.662 92.9059 113.516C93.84 116.301 94.8278 119.205 95.4695 121.104C95.7103 121.812 96.1685 122.399 96.7561 122.799C97.3402 123.196 98.0494 123.411 98.7925 123.374L100.462 123.291C100.648 123.284 100.794 123.127 100.787 122.94C100.779 122.753 100.622 122.607 100.435 122.615L98.7647 122.662C98.1844 122.679 97.6342 122.501 97.1841 122.182C96.7379 121.865 96.3931 121.406 96.2183 120.857C95.6069 118.949 94.677 116.025 93.7759 113.23C93.1754 111.369 92.5851 109.566 92.1259 108.152C91.8285 107.252 91.6241 106.327 91.5106 105.39C91.3966 104.454 91.3732 103.506 91.4459 102.56L92.0492 94.4482C92.0823 93.9952 92.2887 93.5944 92.6018 93.31C92.9174 93.0242 93.3387 92.8532 93.796 92.8647L93.898 92.8705C93.9262 92.8786 93.9554 92.8829 93.9851 92.8839C94.2456 92.8901 94.5037 92.9294 94.7522 93.0012C95.0012 93.073 95.2415 93.1764 95.4661 93.3105C95.8209 93.5279 96.2313 93.842 96.6009 94.2825C96.893 94.6306 97.1607 95.0568 97.3589 95.5758C97.424 95.7511 97.6189 95.8406 97.7941 95.776C97.9694 95.7108 98.0589 95.5159 97.9938 95.3407Z" fill="#C24353"/>
<path fill-rule="evenodd" clip-rule="evenodd" d="M112.383 181.077L112.384 181.081C111.055 176.324 109.876 171.583 108.816 167.045C108.053 163.776 107.358 160.611 106.723 157.619C105.998 154.206 105.352 151.019 104.798 148.156C103.134 139.56 102.283 133.893 102.283 133.893C102.259 133.718 102.096 133.595 101.92 133.619C101.744 133.644 101.621 133.807 101.646 133.982C101.646 133.982 102.382 139.68 103.955 148.315C104.479 151.189 105.095 154.39 105.816 157.811C106.448 160.811 107.163 163.979 107.953 167.25C109.051 171.791 110.304 176.526 111.69 181.279L111.695 181.295C111.716 181.361 112.122 182.648 111.571 183.829C111.274 184.465 110.693 185.063 109.629 185.428C109.461 185.484 109.37 185.667 109.427 185.836C109.483 186.004 109.666 186.095 109.834 186.038C111.124 185.616 111.82 184.885 112.189 184.122C112.865 182.725 112.416 181.186 112.383 181.077Z" fill="#C24353"/>
<ellipse cx="168.855" cy="118.9" rx="9.94464" ry="6.37797" fill="url(#paint24_linear_3129_7778)"/>
<path d="M147.183 96.36C147.593 96.3588 147.224 100.777 147.239 105.838C147.254 110.898 147.648 114.685 147.239 114.687C146.83 114.688 145.772 110.903 145.757 105.842C145.742 100.781 146.774 96.3612 147.183 96.36Z" fill="url(#paint25_linear_3129_7778)"/>
<path d="M170.594 62.5447C172.982 64.9859 173.532 68.8525 172.167 71.983C165.776 86.6424 131.037 62.089 160.64 59.0042C164.798 58.5709 168.326 60.2265 170.594 62.5447Z" fill="url(#paint26_linear_3129_7778)"/>
<path d="M143.889 248.437L139.414 248.405L139.38 253.094L143.855 253.126L143.889 248.437Z" fill="white"/>
<path d="M144.134 214.465L139.659 214.433L139.622 219.58L144.097 219.612L144.134 214.465Z" fill="white"/>
<path fill-rule="evenodd" clip-rule="evenodd" d="M141.615 245.613C140.035 245.601 138.524 244.965 137.414 243.843C136.305 242.721 135.688 241.206 135.7 239.631L131.728 239.602C131.709 242.227 132.737 244.752 134.585 246.622C136.434 248.492 138.953 249.553 141.586 249.572C144.22 249.591 146.754 248.566 148.629 246.724C150.505 244.881 151.569 242.371 151.588 239.746L147.616 239.717C147.605 241.292 146.966 242.798 145.841 243.904C144.715 245.009 143.195 245.624 141.615 245.613Z" fill="white"/>
<path fill-rule="evenodd" clip-rule="evenodd" d="M141.811 233.44C138.705 233.418 136.205 230.89 136.228 227.794C136.25 224.698 138.786 222.207 141.892 222.229C144.998 222.252 147.498 224.78 147.476 227.876C147.453 230.971 144.917 233.463 141.811 233.44ZM141.78 237.711C136.308 237.672 131.903 233.218 131.943 227.763C131.982 222.309 136.451 217.919 141.923 217.958C147.396 217.998 151.8 222.452 151.761 227.906C151.721 233.361 147.253 237.751 141.78 237.711Z" fill="white"/>
<defs>
<linearGradient id="paint0_linear_3129_7778" x1="275.732" y1="152.615" x2="4.62703" y2="124.305" gradientUnits="userSpaceOnUse">
<stop stop-color="#9526B8"/>
<stop offset="1" stop-color="#210C42"/>
</linearGradient>
<linearGradient id="paint1_linear_3129_7778" x1="275.732" y1="152.615" x2="4.62703" y2="124.305" gradientUnits="userSpaceOnUse">
<stop stop-color="#9526B8"/>
<stop offset="1" stop-color="#210C42"/>
</linearGradient>
<linearGradient id="paint2_linear_3129_7778" x1="275.732" y1="152.615" x2="4.62703" y2="124.305" gradientUnits="userSpaceOnUse">
<stop stop-color="#9526B8"/>
<stop offset="1" stop-color="#210C42"/>
</linearGradient>
<linearGradient id="paint3_linear_3129_7778" x1="275.732" y1="152.615" x2="4.62703" y2="124.305" gradientUnits="userSpaceOnUse">
<stop stop-color="#9526B8"/>
<stop offset="1" stop-color="#210C42"/>
</linearGradient>
<linearGradient id="paint4_linear_3129_7778" x1="96.9845" y1="161.691" x2="75.8855" y2="190.513" gradientUnits="userSpaceOnUse">
<stop stop-color="#0E112D"/>
<stop offset="1" stop-color="#0E112D" stop-opacity="0"/>
</linearGradient>
<linearGradient id="paint5_linear_3129_7778" x1="82.7049" y1="163.263" x2="57.6207" y2="188.692" gradientUnits="userSpaceOnUse">
<stop stop-color="#0E112D"/>
<stop offset="1" stop-color="#0E112D" stop-opacity="0"/>
</linearGradient>
<linearGradient id="paint6_linear_3129_7778" x1="199.195" y1="157.944" x2="183.499" y2="189.194" gradientUnits="userSpaceOnUse">
<stop stop-color="#0E112D"/>
<stop offset="1" stop-color="#0E112D" stop-opacity="0"/>
</linearGradient>
<linearGradient id="paint7_linear_3129_7778" x1="179.677" y1="130.608" x2="145.801" y2="173.756" gradientUnits="userSpaceOnUse">
<stop stop-color="#0E112D"/>
<stop offset="1" stop-color="#0E112D" stop-opacity="0"/>
</linearGradient>
<linearGradient id="paint8_linear_3129_7778" x1="705.115" y1="122.712" x2="429.329" y2="-190.974" gradientUnits="userSpaceOnUse">
<stop stop-color="#A10BD2"/>
<stop offset="1" stop-color="#16182B"/>
</linearGradient>
<linearGradient id="paint9_linear_3129_7778" x1="705.115" y1="122.712" x2="429.329" y2="-190.974" gradientUnits="userSpaceOnUse">
<stop stop-color="#A10BD2"/>
<stop offset="1" stop-color="#16182B"/>
</linearGradient>
<linearGradient id="paint10_linear_3129_7778" x1="226.581" y1="-17.5332" x2="338.52" y2="154.695" gradientUnits="userSpaceOnUse">
<stop stop-color="#9B55FF"/>
<stop offset="1" stop-color="#8C3CFF" stop-opacity="0.17"/>
</linearGradient>
<linearGradient id="paint11_linear_3129_7778" x1="203.299" y1="65.7599" x2="183.154" y2="56.3223" gradientUnits="userSpaceOnUse">
<stop stop-color="#C78BB3"/>
<stop offset="1" stop-color="#C78BB3" stop-opacity="0"/>
</linearGradient>
<linearGradient id="paint12_linear_3129_7778" x1="164.512" y1="8.15491" x2="163.999" y2="29.3469" gradientUnits="userSpaceOnUse">
<stop stop-color="#C78BB3"/>
<stop offset="1" stop-color="#C78BB3" stop-opacity="0"/>
</linearGradient>
<linearGradient id="paint13_linear_3129_7778" x1="185.5" y1="55.0841" x2="49.3641" y2="265.021" gradientUnits="userSpaceOnUse">
<stop stop-color="#FFCBA9"/>
<stop offset="1" stop-color="#FF998F"/>
</linearGradient>
<linearGradient id="paint14_linear_3129_7778" x1="185.5" y1="55.0841" x2="49.3641" y2="265.021" gradientUnits="userSpaceOnUse">
<stop stop-color="#FFCBA9"/>
<stop offset="1" stop-color="#FF998F"/>
</linearGradient>
<linearGradient id="paint15_linear_3129_7778" x1="121.744" y1="87.1885" x2="122.556" y2="104.541" gradientUnits="userSpaceOnUse">
<stop stop-color="#F2FBFC"/>
<stop offset="1" stop-color="#F2FBFC" stop-opacity="0"/>
</linearGradient>
<linearGradient id="paint16_linear_3129_7778" x1="166.017" y1="88.4791" x2="165.205" y2="105.832" gradientUnits="userSpaceOnUse">
<stop stop-color="#F2FBFC"/>
<stop offset="1" stop-color="#F2FBFC" stop-opacity="0"/>
</linearGradient>
<linearGradient id="paint17_linear_3129_7778" x1="134.611" y1="125.09" x2="141.339" y2="196.233" gradientUnits="userSpaceOnUse">
<stop stop-color="#BE8371"/>
<stop offset="1" stop-color="#9C391A" stop-opacity="0"/>
</linearGradient>
<linearGradient id="paint18_linear_3129_7778" x1="112.025" y1="-451.328" x2="20.1185" y2="284.297" gradientUnits="userSpaceOnUse">
<stop stop-color="#E87C72"/>
<stop offset="1" stop-color="#DC6459" stop-opacity="0.46"/>
</linearGradient>
<linearGradient id="paint19_linear_3129_7778" x1="6.08651" y1="1.23696" x2="-2.72262" y2="0.887686" gradientUnits="userSpaceOnUse">
<stop stop-color="#FFE0D5"/>
<stop offset="1" stop-color="#FFE0D5" stop-opacity="0"/>
</linearGradient>
<linearGradient id="paint20_linear_3129_7778" x1="136.536" y1="81.0576" x2="135.74" y2="96.21" gradientUnits="userSpaceOnUse">
<stop stop-color="#3261A8"/>
<stop offset="1" stop-color="#273F63" stop-opacity="0"/>
</linearGradient>
<linearGradient id="paint21_linear_3129_7778" x1="126.728" y1="79.1033" x2="124.959" y2="94.1731" gradientUnits="userSpaceOnUse">
<stop stop-color="#3261A8"/>
<stop offset="1" stop-color="#273F63" stop-opacity="0"/>
</linearGradient>
<linearGradient id="paint22_linear_3129_7778" x1="182.182" y1="75.4015" x2="173.494" y2="117.32" gradientUnits="userSpaceOnUse">
<stop stop-color="#3261A8"/>
<stop offset="1" stop-color="#273F63" stop-opacity="0"/>
</linearGradient>
<linearGradient id="paint23_linear_3129_7778" x1="172.206" y1="71.1935" x2="157.335" y2="109.074" gradientUnits="userSpaceOnUse">
<stop stop-color="#3261A8"/>
<stop offset="1" stop-color="#273F63" stop-opacity="0"/>
</linearGradient>
<linearGradient id="paint24_linear_3129_7778" x1="184.577" y1="118.049" x2="147.954" y2="119.387" gradientUnits="userSpaceOnUse">
<stop stop-color="#FFE5D9"/>
<stop offset="1" stop-color="#FFDFD0" stop-opacity="0"/>
</linearGradient>
<linearGradient id="paint25_linear_3129_7778" x1="147.069" y1="91.0368" x2="156.193" y2="122.184" gradientUnits="userSpaceOnUse">
<stop stop-color="#FFE5D9"/>
<stop offset="1" stop-color="#FFDFD0" stop-opacity="0"/>
</linearGradient>
<linearGradient id="paint26_linear_3129_7778" x1="204.488" y1="64.8502" x2="136.395" y2="71.6855" gradientUnits="userSpaceOnUse">
<stop stop-color="#FFE5D9"/>
<stop offset="1" stop-color="#FFDFD0" stop-opacity="0"/>
</linearGradient>
</defs>
</svg>
