<svg width="179" height="131" viewBox="0 0 179 131" fill="none" xmlns="http://www.w3.org/2000/svg">
<path d="M149.89 72.8609L141.684 74.0025L136.124 71.8899L125.465 62.3843L115.97 36.2447L115.599 30.9738L120.621 24.4626L136.124 14.9745L140.651 15.4086L149.022 18.0747L157.738 26.837L165.23 38.9673L167.585 51.3119C166.872 54.4515 165.402 60.859 165.23 61.3728C165.059 61.8865 154.932 69.2456 149.89 72.8609Z" fill="#303E50"/>
<path d="M143.291 74.4745L136.925 72.4852V70.794C139.428 68.9703 144.624 65.1338 145.38 64.3779C146.325 63.4329 145.877 58.1607 145.778 57.912C145.698 57.713 143.855 50.3684 142.943 46.721L135.532 37.5693L126.281 32.4461L115.339 36.6243L116.333 28.6165L123.644 22.4491L135.532 25.2343L143.54 32.4461C146.491 36.7732 152.373 45.5967 152.293 46.2731C152.214 46.9495 153.951 52.855 154.83 55.7232V65.3228C153.172 67.7103 149.767 72.5548 149.409 72.8332C149.051 73.1116 145.181 74.0434 143.291 74.4745Z" fill="#142030"/>
<circle r="22.9786" transform="matrix(-0.866025 -0.5 -2.20305e-08 1 135.284 48.6415)" stroke="#7A85AA" stroke-width="2"/>
<path d="M150.473 72.2084L163.772 63.3364C167.291 60.0834 167.758 55.5993 167.28 49.8273C166.802 44.0553 164.633 37.6871 161.167 31.8789C157.701 26.0707 153.168 21.2075 148.39 18.1723C147.473 17.5897 146.559 17.0819 145.653 16.6501C142.924 15.3487 140.649 15.3071 138.457 15.7461C136.678 16.1025 134.994 16.6702 133.351 17.3154C130.695 18.3588 126.23 20.45 121.415 24.1535" stroke="#7A85AA" stroke-width="2"/>
<mask id="mask0" mask-type="alpha" maskUnits="userSpaceOnUse" x="47" y="28" width="106" height="81">
<path d="M132.711 74.9416L150.831 61.6946L152.44 56.346L151.326 49.7355L147.612 41.8632L138.625 31.0927L131.198 28.8651C124.538 31.9102 111.099 38.0745 110.624 38.3716C110.148 38.6687 98.096 40.8231 92.1293 41.8632L76.5317 44.5367L68.6586 49.2161L55.215 58.5745L47.9355 72.0924L65.516 98.2734H69.5881L71.4727 102.446L75.4839 103.844L78.8879 108.646L89.768 106.519L103.397 98.2734L120.661 86.4791L132.711 74.9416Z" fill="#303E50"/>
</mask>
<g mask="url(#mask0)">
<path d="M132.711 74.9416L145.607 63.5033V56.5215L144.344 51.1738L140.408 42.4094L131.113 34.1544L124.413 32.2958C117.753 35.3408 111.099 38.0745 110.624 38.3716C110.148 38.6687 98.096 40.8231 92.1293 41.8631L76.5317 44.5367L68.6586 49.216L55.215 58.5745L47.9355 72.0924L65.516 98.2734H69.5881L71.4727 102.446L75.4839 103.844L78.8879 108.646L89.768 106.519L103.397 98.2734L120.661 86.4791L132.711 74.9416Z" fill="#303E50"/>
</g>
<path d="M96.6486 79.6483C97.0071 78.8487 98.7823 78.4367 99.5751 78.1954L100.402 78.1954C101.39 80.0567 102.633 83.1286 102.605 83.2665C102.571 83.4389 98.8481 85.438 98.6758 85.438C96.6078 85.7137 95.8214 81.096 96.6486 79.6483Z" fill="#7A85AA"/>
<path d="M101.881 86.2068C102.108 85.4377 104.082 83.9509 105.373 83.603C106.779 83.2243 108.088 86.1769 108.038 87.3667C108.031 87.5211 104.662 90.1987 104.491 90.2448C102.485 91.0293 101.294 87.6468 101.881 86.2068Z" fill="#7A85AA"/>
<path d="M98.6628 97.3783C98.8223 96.8381 100.208 95.7938 101.115 95.5495C102.103 95.2834 103.022 97.3573 102.987 98.1931C102.982 98.3015 100.616 100.182 100.496 100.215C99.0865 100.766 98.2501 98.3898 98.6628 97.3783Z" fill="#7A85AA"/>
<path d="M103.568 98.3006C103.568 98.3006 102.456 93.4052 99.4549 94.0071M103.568 98.3006L95.1812 103.904C92.6487 105.596 89.8054 106.768 86.8162 107.352L81.2033 108.45C79.6243 108.758 77.9102 108.323 77.1411 106.91C76.6084 105.931 76.2542 104.724 76.7388 103.582M103.568 98.3006C122.745 87.1163 126.546 77.8834 142.008 67.3133C144.571 65.5614 146.407 62.8104 146.117 59.7196C145.296 50.9593 140.595 38.0538 128.688 33.0831C126.478 32.1604 123.988 32.5056 121.826 33.5367C107.597 40.3233 99.1856 42.2588 84.9482 43.4464C79.5778 43.8943 74.3708 45.5887 69.8677 48.5491L61.1064 54.3087C57.131 56.9221 53.7848 60.3994 51.5625 64.6059C48.4636 70.4719 44.5386 78.6996 45.2874 81.4721C47.0887 88.1419 55.8921 89.0847 60.0686 88.7224M76.7388 103.582C74.2257 103.821 69.5348 103.099 70.8751 98.3006M76.7388 103.582C77.3081 103.582 88.336 101.474 99.4549 94.0071M70.8751 98.3006C67.1333 99.4046 59.7335 99.0346 60.0686 88.7224M70.8751 98.3006C73.8706 97.4167 88.266 92.2124 88.266 92.2124L102.456 83.3833C102.456 83.3833 101.419 74.5803 95.4411 75.716C90.6585 76.6246 80.5171 80.4972 76.7388 82.1061C79.0235 84.115 78.398 86.7695 74.4741 88.7224C70.5503 90.6753 64.6402 90.1533 60.0686 88.7224M101.675 80.2656C108.16 81.133 107.476 87.2808 107.476 87.2808C107.476 87.2808 104.962 89.6945 99.4549 94.0071M63.1091 73.4471L55.0635 68.3897" stroke="#7A85AA" stroke-width="2"/>
<path d="M60.736 72.9554C72.5346 75.7938 64.8291 83.7134 64.4173 84.1228L62.8562 83.6928L58.6815 80.4156L58.8322 77.0226L60.736 72.9554Z" fill="#7A85AA"/>
<path d="M89.2646 99.3405L100.188 91.0964L98.6075 87.1809L51.5479 59.7009L43.3039 56.4716C30.8234 63.6395 5.78014 78.044 5.45035 78.3188C5.12055 78.5936 5.58776 81.3185 5.86259 82.6466L58.2806 113.493H62.7462L71.5393 108.753L77.6539 106.279L89.2646 99.3405Z" fill="#303E50"/>
<path d="M59.1572 110.871C58.6106 110.97 23.3813 90.6938 5.83496 80.543C5.97994 81.2889 6.25748 82.8677 6.20776 83.2158C6.15804 83.5638 39.7049 102.792 56.4846 112.363L62.8236 113.792C66.4488 111.783 73.6993 107.727 73.6993 107.577C73.6993 107.428 76.0609 107.018 77.2417 106.832L90.5411 98.0689L98.8066 92.4135L99.2417 89.0576C96.4036 91.067 90.4541 95.2474 89.3603 95.8937C87.9931 96.7016 85.9422 93.7807 85.5694 93.2836C85.271 92.8858 79.6032 90.3005 76.8066 89.0576L73.6993 89.4305L63.2586 95.8937C67.0703 98.3796 74.7309 103.426 74.8801 103.724C75.0665 104.097 66.0552 109.38 65.6202 109.815C65.1852 110.25 59.8405 110.747 59.1572 110.871Z" fill="#142030"/>
<path d="M75.5331 103.552L64.4436 109.955C62.5305 111.059 59.4286 111.059 57.5154 109.955L7.33038 80.9802C5.41721 79.8756 5.41722 78.0847 7.33039 76.9802L40.6428 57.7473C42.5559 56.6427 45.6578 56.6427 47.571 57.7473L97.756 86.7216C99.6692 87.8262 99.6692 89.617 97.756 90.7216L89.3673 95.5009" stroke="#7A85AA" stroke-width="2"/>
<path d="M75.241 107.436C76.6229 107.923 77.1184 107.185 77.2214 106.252C77.3404 105.175 76.3752 104.18 75.053 103.416L65.4143 97.8515C63.5012 96.7469 63.5012 94.956 65.4143 93.8515L72.134 89.9719C74.0471 88.8673 77.1488 88.8673 79.062 89.9718L89.5224 96.0105C90.278 96.4467 90.7904 97.0132 90.8291 97.6297C90.84 97.8037 90.8421 97.9796 90.8326 98.1515C90.7576 99.499 87.6947 100.239 86.111 101.229L77.5235 106.602" stroke="#7A85AA" stroke-width="2"/>
<path d="M6.53847 77.7089C4.6253 78.8134 5.45268 82.7673 7.36585 83.8719L57.5509 112.846C59.464 113.951 62.5659 113.951 64.4791 112.846L76.7718 105.749M98.8778 87.9372C100.791 89.0417 99.7047 92.5088 97.7915 93.6133L91.1714 97.4355" stroke="#7A85AA" stroke-width="2"/>
<circle r="2.48378" transform="matrix(0.866025 0.5 -0.866025 0.5 73.4707 94.4202)" fill="#142030" stroke="#7A85AA" stroke-width="2"/>
<path d="M105.683 70.0687L113.551 67.0511L82.0789 48.2968L68.0672 60.2608C65.66 65.7038 58.3779 78.2942 58.2054 78.5529C58.033 78.8116 60.6378 82.2637 61.5361 83.575L66.1955 84.507L74.5883 79.6615L78.1986 75.6736L85.0429 66.566L91.6173 62.7396L95.0125 65.5421L105.683 70.0687Z" fill="#303E50"/>
<path d="M81.9703 48.163L68.1748 60.3669C68.1748 60.3669 59.3341 74.1111 58.365 78.9577C57.8324 81.6216 64.0122 88.5477 72.1105 81.6216C79.18 75.5752 82.6612 64.6923 92.3544 62.8772M97.2074 62.5477C95.3666 62.4936 93.7648 62.6131 92.3544 62.8772M92.3544 62.8772C93.8957 70.0868 106.334 76.9063 114.517 70.0868" stroke="#7A85AA" stroke-width="2"/>
<path d="M60.736 72.9554C72.5346 75.7938 64.8291 83.7134 64.4173 84.1228L62.8562 83.6928L58.6815 80.4156L58.8322 77.0226L60.736 72.9554Z" fill="#7A85AA"/>
</svg>
