<svg viewBox="0 0 280 280" fill="none" xmlns="http://www.w3.org/2000/svg">
<mask id="mask0_3129_7087" style="mask-type:alpha" maskUnits="userSpaceOnUse" x="86" y="18" width="102" height="91">
<path d="M135.987 108.853L97.9434 100.922L93.9239 95.2789L92.6677 93.0377L90.2267 84.9296L88.1283 77.6351L86.7152 72.5818L86.9863 69.7696L88.4567 66.2009L90.2982 61.8328L89.2132 59.0777L89.5557 55.7802L92.8105 52.4256L99.8909 45.6022L101.233 44.7029L102.632 44.9313L103.959 40.6202L107.085 33.6398L111.382 27.7586L115.393 24.4039L115.108 26.2026L115.208 28.0012L119.091 24.7037L124.258 21.5061L134.036 18.4515H143.772L152.822 20.5643L163.429 24.5328L173.05 26.7454H177.418L176.804 28.5724L174.991 30.0283L176.704 31.6131L181.429 38.0077L184.655 45.4308L186.318 52.0309L187.098 62.163L186.528 73.7028L185.211 82.6791L183.826 93.0016L182.34 105.462L135.987 108.853Z" fill="#7D505F"/>
</mask>
<g mask="url(#mask0_3129_7087)">
<path d="M135.987 108.853L97.9434 100.922L93.9239 95.2789L92.6677 93.0377L90.2267 84.9296L88.1283 77.6351L86.7152 72.5818L86.9863 69.7696L88.4567 66.2009L90.2982 61.8328L89.2132 59.0777L89.5557 55.7802L92.8105 52.4256L99.8909 45.6022L101.233 44.7029L102.632 44.9313L103.959 40.6202L107.085 33.6398L111.382 27.7586L115.393 24.4039L115.108 26.2026L115.208 28.0012L119.091 24.7037L124.258 21.5061L134.036 18.4515H143.772L152.822 20.5643L163.429 24.5328L173.05 26.7454H177.418L176.804 28.5724L174.991 30.0283L176.704 31.6131L181.429 38.0077L184.655 45.4308L186.318 52.0309L187.098 62.163L186.528 73.7028L185.211 82.6791L183.826 93.0016L182.34 105.462L135.987 108.853Z" fill="#7D505F"/>
<ellipse cx="170.668" cy="28.1817" rx="5.52453" ry="14.6323" transform="rotate(-72.2141 170.668 28.1817)" fill="url(#paint0_linear_3129_7087)"/>
<path d="M105.938 55.2066C105.938 55.2066 110.435 16.8049 144.682 18.0083" stroke="#382232" stroke-width="1.47627"/>
<path d="M108.474 80.1998L87.6146 91.5667C88.1888 100.097 89.7271 111.3 90.3176 112.481C91.0559 113.957 102.375 106.083 104.836 103.622C106.805 101.654 107.489 85.4495 108.474 80.1998Z" fill="#382232"/>
<path d="M125.753 38.1302C129.122 35.516 134.547 32.4031 142.309 33.6577C152.01 35.2259 162.292 44.5791 181.927 36.3301" stroke="#C78BB3" stroke-width="1.47627"/>
<path d="M126.168 45.7662C129.32 42.8931 134.481 39.3598 142.317 39.9951C152.113 40.7893 163.104 49.2978 182.023 39.5181" stroke="#C78BB3" stroke-width="1.47627"/>
<path fill-rule="evenodd" clip-rule="evenodd" d="M105.455 37.3686C104.99 39.8058 104.618 45.6513 106.85 49.5354C110.868 39.6015 128.168 20.7381 151.217 30.8396C135.647 26.7094 123.871 32.067 116.895 40.0475C131.335 33.5309 141.482 38.475 154.879 49.4539C160.319 53.9121 166.352 58.3746 173.348 57.6439C177.138 57.248 181.74 55.9136 186.767 52.6601C198.866 40.7842 195.603 57.1619 192.459 66.8353C189.315 68.677 180.17 71.7576 168.741 69.3467C157.311 66.9358 126.922 64.6588 113.156 63.8217H108.636C107.378 62.5474 103.615 59.2033 97.8642 55.1486C96.4148 54.1267 94.6977 53.5559 92.9272 53.4557L84.8199 52.9968L95.6324 37.871L105.455 37.3686ZM174.97 82.8373C175.57 82.6191 186.404 81.7461 191.746 81.3369C192.065 84.6105 192.237 91.4439 190.382 92.5896C188.064 94.0218 178.038 100.16 177.629 100.16C177.22 100.16 170.196 97.0225 172.378 93.2716C174.124 90.2709 174.833 85.0651 174.97 82.8373ZM104.506 65.3842C93.4338 63.7319 87.4659 67.1517 85.866 69.0682L79.3922 66.5004L82.629 54.2791L92.6916 55.8513C95.4632 56.2844 98.0947 57.3937 100.278 59.155C104.391 62.4732 106.139 64.2454 106.515 64.7712L104.506 65.3842ZM106.63 68.175C95.4245 66.8544 87.3088 70.6612 84.6515 72.7297L78.3315 86.5655L99.4555 111.675C106.516 97.7254 117.835 69.4956 106.63 68.175Z" fill="url(#paint1_linear_3129_7087)"/>
</g>
<mask id="mask1_3129_7087" style="mask-type:alpha" maskUnits="userSpaceOnUse" x="26" y="171" width="223" height="94">
<path d="M138.988 176.573L101.111 184.316H99.7473L98.3833 182.952L83.0307 176.44L56.3512 171.029L50.5225 172.137L41.5403 175.726L35.9291 179.575L31.3401 185.404L28.143 191.472L26.7729 196.778L35.2769 204.13L53.4369 218.266L66.8342 228.118L75.1205 233.556L87.4084 241.603L97.4999 247.692L108.831 254.456L118.683 258.893L127.361 261.894L139.366 264.004H148.262L157.048 263.134L165.856 261.307L176.1 257.805L188.497 251.303L204.46 242.038L219.467 232.142L235.048 221.926L248.148 212.136V207.79L247.205 200.845L244.158 193.452L240.353 188.719L235.343 185.065L228.783 182.499C221.492 181.246 206.726 178.739 205.992 178.739C205.076 178.739 175.657 183.489 170.907 186.24C167.106 188.44 148.044 180.712 138.988 176.573Z" fill="url(#paint2_linear_3129_7087)"/>
</mask>
<g mask="url(#mask1_3129_7087)">
<path d="M138.988 176.573L101.111 184.316H99.7473L98.3833 182.952L83.0307 176.44L56.3512 171.029L50.5225 172.137L41.5403 175.726L35.9291 179.575L31.3401 185.404L28.143 191.472L26.7729 196.778L35.2769 204.13L53.4369 218.266L66.8342 228.118L75.1205 233.556L87.4084 241.603L97.4999 247.692L108.831 254.456L118.683 258.893L127.361 261.894L139.366 264.004H148.262L157.048 263.134L165.856 261.307L176.1 257.805L188.497 251.303L204.46 242.038L219.467 232.142L235.048 221.926L248.148 212.136V207.79L247.205 200.845L244.158 193.452L240.353 188.719L235.343 185.065L228.783 182.499C221.492 181.246 206.726 178.739 205.992 178.739C205.076 178.739 175.657 183.489 170.907 186.24C167.106 188.44 148.044 180.712 138.988 176.573Z" fill="url(#paint3_linear_3129_7087)"/>
<path fill-rule="evenodd" clip-rule="evenodd" d="M82.8651 218.432C97.7271 235.968 118.469 252.608 140.035 264.133C174.978 287.795 85.8661 270.347 31.1067 259.625C19.8935 257.43 10.1207 255.516 3.14855 254.296C-30.9663 207.474 -94.9695 112.588 -78.0641 107.616C-61.1586 102.643 52.2191 129.758 83.2953 141.774C52.8022 154.479 56.2404 181.925 75.5298 209.026C67.6587 205.227 58.9884 200.756 50.686 195.981C43.0674 191.6 35.8023 186.987 29.7644 182.427C23.6825 177.835 19.0305 173.431 16.4523 169.505L11.9274 172.475C15.0206 177.187 20.2664 182.038 26.5023 186.747C32.7821 191.489 40.2547 196.226 47.9873 200.674C60.0128 207.59 72.7727 213.865 82.8651 218.432Z" fill="#0D1029"/>
<path d="M233.947 231.487C241.259 217.626 235.381 189.884 208.188 178.834C217.23 169.413 235.814 150.445 237.818 149.934C240.322 149.296 271.693 211.624 272.741 215.012C273.579 217.723 247.228 227.125 233.947 231.487Z" fill="url(#paint4_linear_3129_7087)"/>
</g>
<mask id="mask2_3129_7087" style="mask-type:alpha" maskUnits="userSpaceOnUse" x="88" y="50" width="100" height="148">
<path d="M98.1678 120.312L99.0736 120.489L101.378 128.872L102.429 134.46L104.504 147.794L105.172 154.067L103.568 162.83L103.769 175.611L105.159 187.021L112.351 188.829L131.328 192.947L135.273 195.798C136.857 196.239 140.053 197.122 140.168 197.122C140.283 197.122 142.27 196.374 143.249 195.999L148.03 193.58L161.017 191.507L172.622 190.269L173.256 182.58L172.91 172.991L172.105 165.734L170.369 159.853L169.8 158.818L172.837 138.612L177.042 120.514L179.336 120.283L180.532 118.161L185.295 110.776L187.532 105.936L187.975 100.17V95.3683L186.568 93.9027L183.521 93.4206L178.816 98.1451L179.356 94.3077V84.9551L177.774 73.867L173.763 64.5338L170.061 60.0792C167.509 60.0728 162.363 60.0638 162.193 60.0792C162.023 60.0947 157.443 59.4943 155.174 59.1922L143.488 55.7404L137.105 52.7129L131.725 50.5144L124.976 50.7075C122.623 51.4851 117.899 53.0403 117.822 53.0403C117.744 53.0403 112.943 55.9458 110.552 57.3985L109.105 60.0215L105.114 63.8779L102.579 69.0023L99.0004 83.4832L97.8244 96.2556L98.0172 101.481L92.6686 93.4295C91.9228 93.4783 90.3899 93.5832 90.2245 93.6124C90.0178 93.6488 88.9843 94.4751 88.9478 94.548C88.9113 94.621 88.3881 96.3968 88.3029 96.6157C88.2348 96.7908 88.5909 101.966 88.7774 104.531L89.0814 106.733L96.5594 119.281L98.1678 120.312Z" fill="url(#paint5_linear_3129_7087)"/>
</mask>
<g mask="url(#mask2_3129_7087)">
<path d="M98.1678 120.312L99.0736 120.489L101.378 128.872L102.429 134.46L104.504 147.794L105.172 154.067L103.568 162.83L103.769 175.611L105.159 187.021L112.351 188.829L131.328 192.947L135.273 195.798C136.857 196.239 140.053 197.122 140.168 197.122C140.283 197.122 142.27 196.374 143.249 195.999L148.03 193.58L161.017 191.507L172.622 190.269L173.256 182.58L172.91 172.991L172.105 165.734L170.369 159.853L169.8 158.818L172.837 138.612L177.042 120.514L179.336 120.283L180.532 118.161L185.295 110.776L187.532 105.936L187.975 100.17V95.3683L186.568 93.9027L183.521 93.4206L178.816 98.1451L179.356 94.3077V84.9551L177.774 73.867L173.763 64.5338L170.061 60.0792C167.509 60.0728 162.363 60.0638 162.193 60.0792C162.023 60.0947 157.443 59.4943 155.174 59.1922L143.488 55.7404L137.105 52.7129L131.725 50.5144L124.976 50.7075C122.623 51.4851 117.899 53.0403 117.822 53.0403C117.744 53.0403 112.943 55.9458 110.552 57.3985L109.105 60.0215L105.114 63.8779L102.579 69.0023L99.0004 83.4832L97.8244 96.2556L98.0172 101.481L92.6686 93.4295C91.9228 93.4783 90.3899 93.5832 90.2245 93.6124C90.0178 93.6488 88.9843 94.4751 88.9478 94.548C88.9113 94.621 88.3881 96.3968 88.3029 96.6157C88.2348 96.7908 88.5909 101.966 88.7774 104.531L89.0814 106.733L96.5594 119.281L98.1678 120.312Z" fill="url(#paint6_linear_3129_7087)"/>
<path d="M162.474 143.417C183.471 87.6953 176.364 75.4204 166.027 60.0765L163.801 52.3475L175.8 58.4237L184.569 74.1915L179.338 96.1896L177.333 111.188V121.613L191.799 135.955L172.031 144.416L169.262 162.414L169.742 165.221C162.474 163.721 167.793 151.982 167.74 144.416C167.719 141.487 162.173 145.716 162.474 143.417Z" fill="url(#paint7_linear_3129_7087)"/>
<path fill-rule="evenodd" clip-rule="evenodd" d="M116.198 138.068C121.175 155.032 128.199 159.624 134.336 163.602L118.047 154.882L101.831 127.415C98.4875 129.066 90.9367 129.929 87.483 120.178C83.1659 107.988 71.1037 72.69 77.0715 64.8177C79.3135 61.86 79.9605 59.0099 80.5342 56.4828C81.4874 52.2836 82.2382 48.9762 89.7688 47.5494C99.4188 45.721 116.198 50.277 116.198 50.277C107.505 63.3626 103.369 76.7938 102.602 89.6465L109.639 87.4918C109.639 87.4918 115.513 84.6462 121.99 81.8583L125.11 82.7697L128.809 83.7884C131.008 86.7384 132.865 89.4428 132.884 94.7793L131.7 98.8244C131.525 99.1947 131.306 99.6569 131.072 100.147L131.726 97.9198C131.726 97.9198 123.091 109.157 101.026 99.7494L101.811 102.841L104.063 106.171L107.34 107.288L103.487 106.443C105.427 118.19 110.021 129.01 116.198 138.068ZM108.834 107.616L110.403 107.961L113.89 107.865L108.834 107.616ZM117.921 107.754L121.99 107.642L123.636 107.144L117.921 107.754ZM125.92 106.453L126.829 106.178C127.075 105.932 127.4 105.606 127.736 105.269C127.293 105.614 126.7 106.018 125.92 106.453ZM128.984 104.008C129.195 103.793 129.341 103.641 129.376 103.599C129.426 103.54 129.683 103.028 130.02 102.335L128.984 104.008ZM145.832 88.4967L144.294 93.0387L144.114 93.9039L145.225 99.5294V99.3543C154.669 105.981 174.624 102.384 174.624 102.384C174.624 102.384 174.312 103.623 173.641 104.925L173.892 104.807L175.183 101.911L176.002 97.3579L176.247 92.7875L174.869 90.2581L170.777 87.9472L162.169 85.9002L155.209 85.6029L149.568 86.7384L145.832 88.4967ZM172.263 105.577L169.447 106.644L158.48 107.572L156.091 107.333L157.93 107.685L169.688 106.795L172.263 105.577ZM150.26 106.218C149.813 105.987 149.419 105.734 149.087 105.491L149.54 106.08L150.26 106.218ZM146.161 101.687L145.414 100.486L145.475 100.794L146.161 101.687ZM186.752 94.5022L183.555 97.3579L180.997 102.411L180.357 103.924L180.997 106.795L181.38 108.444L179.888 110.405C181.403 110.018 182.76 108.9 182.585 107.309C182.547 106.96 182.478 106.612 182.409 106.265C182.247 105.448 182.086 104.637 182.332 103.851C183.136 101.281 184.849 98.07 187.975 95.9248L186.752 94.5022ZM152.892 94.4261C152.939 94.2526 153.76 92.8955 154.549 92.6745C155.18 92.4978 157.516 92.0118 158.605 91.7908L162.676 91.6332C163.933 92.196 166.466 93.3374 166.542 93.4005C166.618 93.4636 167.142 93.8265 167.394 94.0001C167.394 94.0001 166.353 96.4145 160.545 98.0399C159.846 98.0977 158.403 98.2071 158.226 98.1819C158.049 98.1566 157.016 97.8978 156.522 97.7716C156.522 97.7716 154.549 97.0141 152.892 94.4261ZM116.776 97.7104L117.387 97.9198L119.009 98.2162C118.765 98.5186 119.916 98.4953 120.771 98.2162C124.452 96.9254 125.882 94.6576 125.882 94.6576L124.766 93.2098L122.882 92.2329L116.776 91.8494C115.741 92.0821 113.64 92.565 113.514 92.6348C113.491 92.6477 113.413 92.6851 113.299 92.7398L113.298 92.7401L113.297 92.7408L113.296 92.741C112.79 92.9832 111.584 93.5604 111.286 93.8538C111.286 93.8538 113.514 96.2413 116.776 97.7104Z" fill="#E98276"/>
<path opacity="0.6" d="M91.4723 96.1117L89.1483 94.4605L88.6284 95.3169V96.3873C91.76 100.131 94.0108 102.534 95.02 107.947L95.7234 105.44V102.932C95.7234 102.809 92.8893 98.3341 91.4723 96.1117Z" fill="#CE584B"/>
<path d="M129.663 140.457C129.663 140.457 132.781 145.948 131.444 151.413C133.173 152.859 145.121 154.929 145.02 152.096C144.003 144.041 146.58 140.71 146.58 140.71L144.003 142.921C143.239 143.294 141.69 144.041 141.609 144.041H135.342L133.457 143.57L131.444 142.36L129.663 140.457Z" fill="#594B68"/>
<path fill-rule="evenodd" clip-rule="evenodd" d="M143.897 118.936C142.387 119.538 140.784 120.178 137.953 119.903C137.537 119.754 137.153 119.645 136.8 119.544C135.882 119.282 135.166 119.079 134.616 118.387C132.638 116.135 133.544 111.831 134.465 107.455C135.221 103.869 135.986 100.234 135.183 97.6414C134.983 96.9968 135.301 96.2431 135.971 96.1673C138.334 95.9002 142.015 96.0135 143.904 97.4918C143.982 100.822 145.041 104.249 147.529 106.838C148.803 108.163 150.632 108.735 152.464 108.885C159.087 109.426 165.463 109.249 169.658 109.005C172.619 108.833 175.02 106.657 175.636 103.756L177.408 95.4179H178.851L178.604 94.151L176.423 93.3416L176.106 96.2271L174.874 103.124L172.728 105.975L169.349 106.819L155.907 107.558L151.015 106.819C149.42 105.259 146.23 102.104 146.23 101.963C146.23 101.822 145.035 98.1192 144.438 96.2852L143.25 95.4808C142.407 95.1345 140.663 94.4585 140.435 94.5256C140.207 94.5926 136.766 94.8581 135.074 94.9824C134.493 95.3421 133.275 96.0835 133.054 96.172C132.833 96.2606 132.39 96.3565 132.197 96.3933L132.056 98.1397L131.394 98.5341L130.736 101.658C130.025 102.654 128.558 104.698 128.38 104.908C128.202 105.117 126.12 106.497 125.101 107.161C121.886 107.373 115.379 107.798 115.074 107.798C114.768 107.798 108.856 107.649 105.938 107.575L102.77 104.908L99.7263 95.6009L98.0701 96.3767V98.8134C98.7087 98.4268 99.5382 98.7805 99.7014 99.5089L100.408 102.66C101.314 106.705 104.905 109.58 109.051 109.58H120.854C125.086 109.58 129.366 107.901 131.06 104.024C131.484 103.051 131.762 102.229 131.923 101.697C131.771 104.242 131.044 106.776 130.109 110.034C129.649 111.638 129.138 113.418 128.62 115.462C128.529 115.625 128.407 115.854 128.285 116.083L128.285 116.083L128.285 116.083C128.062 116.503 127.836 116.926 127.788 116.964C127.714 117.024 127.604 118.353 127.579 119.106C127.579 119.106 128.064 120.315 129.585 121.999C130.515 121.882 130.458 121.448 130.431 121.241C130.422 121.173 130.417 121.13 130.45 121.13C130.583 121.13 131.957 121.337 132.772 121.492L135.81 123.252L138.348 123.956L141.868 123.456L144.048 122.09L144.716 122.722L145.873 121.311C146.145 121.301 146.44 121.288 146.82 121.255C147.038 122.328 147.904 122.592 148.814 121.344L150.204 118.387C147.16 117.636 145.587 118.263 143.897 118.936ZM105.697 141.148L102.613 133.952L102.84 137.505L105.163 152.531L104.353 155.909L103.671 165.042C104.532 165.096 105.308 165.429 105.893 165.971C107.098 167.087 107.379 168.768 107.662 170.46C107.922 172.017 108.184 173.585 109.17 174.731C113.465 179.727 120.267 181.606 126.547 182.453C141.081 176.867 149.873 167.094 155.142 159.428L146.069 165.221C144.041 165.282 140.643 165.247 137.933 165.22H137.932H137.931H137.931C135.719 165.197 133.964 165.179 133.786 165.221C133.483 165.294 131.454 164.914 129.827 164.61C128.8 164.417 127.932 164.255 127.759 164.255C127.401 164.255 122.818 160.626 120.572 158.812L110.439 148.373L105.697 141.148ZM120.657 184.385C111.068 181.563 106.816 178.069 103.977 174.528L104.67 182.724L105.092 186.806C110.826 186.524 115.996 185.665 120.657 184.385ZM169.243 164.275L169.477 159.415L169.611 159.163C170.002 159.247 170.868 159.455 171.203 159.616C171.622 159.817 173.215 161.627 173.499 164.275C173.572 164.95 173.357 165.383 172.987 165.647C175.264 168.086 178.713 171.794 180.701 173.975C182.839 176.322 180.928 183.932 179.281 190.493C178.595 193.228 177.954 195.781 177.671 197.695C176.71 204.197 165.183 201.463 169.243 193.04C172.246 186.808 171.529 173.293 170.647 165.926C170.336 165.876 170.044 165.807 169.796 165.733L169.243 164.275Z" fill="url(#paint8_linear_3129_7087)"/>
<path d="M130.973 142.4C130.351 141.673 129.805 140.946 129.561 140.394L132.071 141.863L134.265 142.418L140.335 142.619L142.761 142.173L146.703 140.554L146.431 140.94C144.485 143.71 141.311 145.359 137.925 145.359C135.287 145.359 132.688 144.405 130.973 142.4Z" fill="#38334F"/>
<path opacity="0.1" d="M164.692 150.539C139.113 186.294 108.177 161.899 98.8322 144.111C96.8808 142.31 97.5487 137.029 96.4679 135.678C95.3871 134.327 97.5938 131.138 98.8322 129.712L131.931 155.493L164.692 150.539Z" fill="#1A5C9A"/>
<path d="M132.001 121.108L130.343 121.075V121.108C130.504 123 134.534 122.932 133.646 121.655L132.001 121.108Z" fill="#1B2C44"/>
<path d="M145.443 121.257L147.101 121.225V121.257C146.94 123.15 142.429 123.146 143.316 121.869L145.443 121.257Z" fill="#1B2C44"/>
<mask id="mask3_3129_7087" style="mask-type:alpha" maskUnits="userSpaceOnUse" x="97" y="96" width="84" height="70">
<path fill-rule="evenodd" clip-rule="evenodd" d="M133.528 121.92L137.842 123.837L141.273 123.468C142.187 122.147 142.387 122.141 142.85 122.126C143.087 122.119 143.393 122.109 143.9 121.92C151.936 122.508 161.553 130.924 162.059 137.981C162.123 138.866 162.607 139.793 163.494 139.76C171.443 139.472 176.603 109.944 178.409 99.609C178.521 98.9671 178.62 98.3992 178.707 97.9169L180.404 96.5586C179.741 101.813 178.386 112.661 178.27 114.019C178.154 115.377 176.573 121.828 175.797 124.883L172.547 136.96L169.201 143.798L166.748 148.307L160.901 154.435L153.803 160.614C151.616 161.908 147.242 164.526 147.241 164.648C147.241 164.771 144.978 165.125 143.846 165.287L134.526 165.44L130.696 165.287L126.483 163.244L119.759 157.964L110.979 149.185L104.1 138.159C103.697 136.732 102.846 133.783 102.671 133.406C102.496 133.029 100.265 124.351 99.1705 120.059L98.4047 115.519C98.4047 115.519 97.3107 102.938 98.0215 99.206C98.0215 99.206 103.351 126.932 112.407 136.919C113.408 138.022 115.069 137.292 115.495 135.864C118.173 126.89 127.666 122.486 133.528 121.92ZM122.063 133.823C125.045 156.787 152.877 153.637 155.258 135.652C155.365 134.844 154.999 134.043 154.339 133.566C149.567 130.126 146.748 130.01 142.563 131.263C140.37 131.919 138.021 131.642 135.783 131.159C130.445 130.006 124.554 132.064 122.627 132.833C122.235 132.99 122.009 133.404 122.063 133.823Z" fill="url(#paint9_linear_3129_7087)"/>
</mask>
<g mask="url(#mask3_3129_7087)">
<path fill-rule="evenodd" clip-rule="evenodd" d="M133.528 121.92L137.842 123.837L141.273 123.468C142.187 122.147 142.387 122.141 142.85 122.126C143.087 122.119 143.393 122.109 143.9 121.92C151.936 122.508 161.553 130.924 162.059 137.981C162.123 138.866 162.607 139.793 163.494 139.76C171.443 139.472 176.603 109.944 178.409 99.6091C178.521 98.9671 178.62 98.3992 178.707 97.9169L180.404 96.5586C179.741 101.813 178.386 112.661 178.27 114.019C178.154 115.377 176.573 121.828 175.797 124.883L172.547 136.96L169.201 143.798L166.748 148.307L160.901 154.435L153.803 160.614C151.616 161.908 147.241 164.526 147.241 164.648C147.241 164.771 144.978 165.125 143.846 165.287L134.526 165.44L130.696 165.287L126.483 163.244L119.759 157.964L110.979 149.185L104.1 138.159C103.697 136.732 102.846 133.783 102.671 133.406C102.496 133.029 100.265 124.351 99.1705 120.059L98.4047 115.519C98.4047 115.519 97.3107 102.938 98.0215 99.206C98.0215 99.206 103.351 126.932 112.407 136.919C113.408 138.022 115.069 137.292 115.495 135.864C118.173 126.89 127.666 122.486 133.528 121.92ZM122.063 133.823C125.045 156.787 152.877 153.637 155.258 135.652C155.365 134.844 154.999 134.043 154.339 133.566C149.567 130.126 146.748 130.01 142.563 131.262C140.37 131.919 138.021 131.642 135.783 131.159C130.445 130.006 124.554 132.064 122.628 132.833C122.235 132.99 122.009 133.404 122.063 133.823Z" fill="url(#paint10_linear_3129_7087)"/>
<path d="M170.112 125.987L179.785 132.758" stroke="#9B6B80" stroke-width="2.46046"/>
<path d="M171.468 120.943L181.141 127.714" stroke="#9B6B80" stroke-width="2.46046"/>
<path opacity="0.5" d="M125.593 165.863C126.151 166.353 126.703 166.828 127.19 167.247C128.103 168.032 128.789 168.622 128.862 168.751C129.141 169.238 139.508 172.856 158.155 173.691C172.456 174.331 169.324 172.803 160.59 168.541C157.935 167.245 154.763 165.697 151.406 163.881C146.448 162.527 140.343 161.503 134.928 161.084C130.355 160.73 125.757 159.533 122.267 156.557C103.829 140.832 99.608 122.736 96.6074 99.6867L81.2647 115.896C80.9931 124.587 80.4906 142.477 80.6536 144.514C80.8573 147.06 119.455 170.585 120.576 169.974C121.112 169.682 123.326 167.82 125.593 165.863Z" fill="#15162B"/>
<path opacity="0.5" d="M139.858 126.247C130.935 126.491 126.915 120.889 125.944 120.061C127.708 118.604 133.012 113.414 135.621 113.001C138.882 112.484 146.89 114.56 151.209 117.292C155.529 120.024 148.781 126.003 139.858 126.247Z" fill="#16182F"/>
<path d="M156.314 158.759C159.196 147.838 169.271 136.638 173.948 132.403C175.781 132.403 180.623 133.351 185.325 137.143C191.203 141.884 186.842 156.294 176.792 167.102C166.743 177.91 152.712 172.411 156.314 158.759Z" fill="url(#paint11_linear_3129_7087)"/>
</g>
</g>
<path opacity="0.6" d="M109.509 87.7228C109.355 87.8186 106.063 88.9493 104.436 89.5027L102.969 90.0315C102.12 91.0173 100.406 93.0128 100.349 93.1089C100.291 93.2051 100.116 94.5755 100.036 95.2487C100.341 96.8034 100.95 100.086 100.95 100.778C100.95 101.471 102.424 104.16 103.162 105.419L105.494 107.27C107.209 107.414 110.677 107.727 110.831 107.823C110.985 107.919 116.938 107.863 119.895 107.823C121.907 107.486 125.954 106.808 126.05 106.789C126.146 106.77 128.109 105.162 129.079 104.361L131.555 99.7686L132.205 93.5177L131.075 89.719L129.175 87.1946L124.03 86.1367L117.323 85.8719C114.782 86.449 109.663 87.6269 109.509 87.7228Z" fill="url(#paint12_linear_3129_7087)"/>
<path fill-rule="evenodd" clip-rule="evenodd" d="M131.848 96.9425L124.127 86.1567L129.063 87.1716L131.208 90.1674L132.204 93.5177L131.848 96.9425Z" fill="url(#paint13_linear_3129_7087)"/>
<path fill-rule="evenodd" clip-rule="evenodd" d="M130.194 102.292L118.47 85.917L121.593 86.0403L131.497 99.8749L130.194 102.292Z" fill="url(#paint14_linear_3129_7087)"/>
<path opacity="0.6" d="M167.479 87.1946C167.632 87.2904 170.607 88.292 172.234 88.8454L173.79 89.719C174.836 89.719 176.407 93.0128 176.465 93.1089C176.522 93.2051 176.384 94.4523 176.464 95.1255C176.16 96.6802 175.666 100.014 175.666 100.706C175.666 101.399 174.389 104.16 173.652 105.419L171.012 106.512C169.297 106.656 165.86 107.242 165.706 107.338C163.928 107.338 159.876 107.863 156.918 107.823C154.907 107.486 150.583 106.531 150.486 106.512C150.39 106.493 148.704 105.162 147.734 104.361L145.258 99.7686L144.609 93.5177L145.739 89.719L147.638 87.1946L152.783 86.1367L159.491 85.8719C162.031 86.449 167.325 87.0988 167.479 87.1946Z" fill="url(#paint15_linear_3129_7087)"/>
<path fill-rule="evenodd" clip-rule="evenodd" d="M176.031 97.7037L168.247 87.4817C169.053 87.7656 170.346 88.2044 171.419 88.5686C171.712 88.6679 171.988 88.7616 172.234 88.8452L173.79 89.7188C174.748 89.7188 176.144 92.4771 176.419 93.0191C176.444 93.0694 176.46 93.1006 176.465 93.1087C176.49 93.1499 176.478 93.4026 176.464 93.7309C176.444 94.1686 176.419 94.7406 176.465 95.1253C176.336 95.7795 176.175 96.7488 176.031 97.7037Z" fill="url(#paint16_linear_3129_7087)"/>
<path fill-rule="evenodd" clip-rule="evenodd" d="M174.409 103.98L160.824 86.14C162.229 86.3968 163.933 86.6492 165.264 86.8439L175.673 100.513C175.668 100.59 175.666 100.655 175.666 100.706C175.666 101.191 175.038 102.692 174.409 103.98Z" fill="url(#paint17_linear_3129_7087)"/>
<mask id="mask4_3129_7087" style="mask-type:alpha" maskUnits="userSpaceOnUse" x="55" y="153" width="175" height="38">
<path d="M104.194 181.037L105.436 187.108H104.677L88.6385 183.349L70.0821 178.865L59.3208 173.898L55.113 171.243L73.3244 164.31L88.6041 159.929L93.6053 158.653L105.125 153.548L104.022 160.481L103.608 170.863L104.194 181.037Z" fill="url(#paint18_linear_3129_7087)"/>
<path d="M180.765 163.896L169.935 159.067L171.28 162.654L173.039 173.588V187.212L172.591 190.075L193.355 188.626L210.152 187.005L216.153 185.35L221.12 185.901L226.949 184.039L229.019 182.556L200.046 170.932L196.873 169.38L190.63 167.242L180.765 163.896Z" fill="url(#paint19_linear_3129_7087)"/>
</mask>
<g mask="url(#mask4_3129_7087)">
<path d="M104.194 181.037L105.436 187.108H104.677L88.6385 183.349L70.0821 178.865L59.3208 173.898L55.113 171.243L73.3244 164.31L88.6041 159.929L93.6053 158.653L105.125 153.548L104.022 160.481L103.608 170.863L104.194 181.037Z" fill="url(#paint20_linear_3129_7087)"/>
<path d="M180.765 163.896L169.935 159.067L171.28 162.654L173.039 173.588V187.212L172.591 190.075L193.355 188.626L210.152 187.005L216.153 185.35L221.12 185.901L226.949 184.039L229.019 182.556L200.046 170.932L196.873 169.38L190.63 167.242L180.765 163.896Z" fill="url(#paint21_linear_3129_7087)"/>
<path d="M197.304 189.061L180.59 163.516L179.04 161.805L186.009 189.061H197.304Z" fill="url(#paint22_linear_3129_7087)"/>
<path d="M211.765 188.053L194.863 165.24L193.096 165.24L207.557 189.89L211.765 188.053Z" fill="url(#paint23_linear_3129_7087)"/>
<path d="M80.3866 181.839L92.9536 159.246L92.4855 156.573L73.9028 180.436L80.3866 181.839Z" fill="url(#paint24_linear_3129_7087)"/>
<path d="M64.2776 177.495L80.8548 157.308L79.7853 155.302L59.2643 175.89L64.2776 177.495Z" fill="url(#paint25_linear_3129_7087)"/>
</g>
<path d="M129.936 130.959C125.819 131.363 125.107 132.727 123.16 133.599L125.597 134.807H127.174L130.185 134.48C130.185 134.48 134.055 135.463 136.861 136.712L139.687 136.61L143.701 135.667L146.65 134.807L150.152 134.48H153.49C150.254 132.759 147.346 130.118 141.96 131.363C141.24 131.655 139.745 132.254 139.523 132.318C139.3 132.382 138.335 132.417 137.881 132.427L135.205 131.542C134.389 131.864 130.875 130.267 129.936 130.959Z" fill="#FF9C7D"/>
<path d="M128.309 134.646C125.206 135.615 123.778 133.85 123.334 133.736C129.434 132.944 131.449 133.054 133.469 133.643C136.502 134.528 139.646 134.767 142.749 134.174C146.175 133.521 148.509 133.384 152.681 134.439C151.083 134.64 148.826 134.679 147.525 134.784C146.225 134.889 147.153 134.864 144.947 134.997C143.666 134.8 140.093 137.605 137.452 136.778C134.152 135.743 131.413 133.677 128.309 134.646Z" fill="#D17663"/>
<path d="M138.547 142.696L132.36 142.168C132.36 142.168 127.895 140.762 124.5 134.462L127.103 134.936L129.79 134.758L132.567 134.936C137.479 137.179 139.669 136.602 139.669 136.602L143.423 135.88C144.096 135.896 144.881 135.063 145.345 135.328C145.809 135.593 147.12 134.773 147.641 134.812L151.592 134.509C152.286 138.318 143.227 142.411 143.227 142.411L142.142 142.554L138.547 142.696Z" fill="#FFA184"/>
<ellipse rx="2.14906" ry="1.23678" transform="matrix(1 0 0 -1 143.345 137.779)" fill="url(#paint26_linear_3129_7087)"/>
<path fill-rule="evenodd" clip-rule="evenodd" d="M130.501 121.246C130.501 121.246 131.242 121.056 132.857 121.72C133.696 122.065 134.764 122.637 136.079 123.584C136.08 123.584 136.08 123.585 136.08 123.585C136.278 123.725 136.496 123.831 136.724 123.906C136.952 123.982 137.193 124.021 137.437 124.026C137.436 124.026 140.464 124.05 140.464 124.05C140.774 124.044 141.076 123.979 141.352 123.854C141.626 123.729 141.876 123.551 142.083 123.323C142.083 123.323 142.083 123.323 142.083 123.322C142.775 122.537 143.546 122.062 144.266 121.769C145.715 121.179 146.96 121.324 146.96 121.324C147.026 121.335 147.088 121.291 147.1 121.226C147.111 121.16 147.067 121.097 147.001 121.086C147.001 121.086 145.687 120.788 144.094 121.289C143.274 121.547 142.391 122.024 141.569 122.838C141.423 122.985 141.248 123.095 141.059 123.172C140.872 123.248 140.67 123.285 140.464 123.281L137.437 123.301C137.263 123.305 137.091 123.285 136.926 123.239C136.76 123.192 136.6 123.124 136.452 123.03C135.034 122.138 133.897 121.613 133.007 121.317C131.217 120.721 130.427 121.016 130.427 121.016C130.363 121.036 130.328 121.104 130.349 121.168C130.369 121.232 130.437 121.267 130.501 121.246Z" fill="#C24353"/>
<path fill-rule="evenodd" clip-rule="evenodd" d="M128.592 115.469C128.592 115.469 128.153 115.881 127.765 116.578C127.623 116.832 127.494 117.123 127.396 117.444C127.306 117.738 127.247 118.057 127.234 118.392C127.225 118.604 127.236 118.822 127.275 119.043C127.36 119.528 127.555 120.031 127.903 120.519C128.28 121.049 128.836 121.558 129.626 122.031C129.688 122.075 129.773 122.061 129.817 122C129.862 121.938 129.847 121.853 129.786 121.809C129.14 121.261 128.727 120.711 128.446 120.183C128.214 119.747 128.102 119.325 128.045 118.923C127.995 118.577 127.986 118.248 128.018 117.936C128.041 117.7 128.075 117.477 128.126 117.265C128.351 116.316 128.799 115.647 128.799 115.647C128.849 115.59 128.842 115.504 128.785 115.454C128.728 115.405 128.641 115.412 128.592 115.469Z" fill="#C24353"/>
<path fill-rule="evenodd" clip-rule="evenodd" d="M148.831 115.385C148.831 115.385 149.304 115.83 149.723 116.582C149.876 116.857 150.015 117.17 150.122 117.517C150.219 117.835 150.282 118.179 150.297 118.541C150.306 118.769 150.294 119.005 150.252 119.243C150.16 119.766 149.95 120.309 149.574 120.836C149.167 121.407 148.567 121.958 147.714 122.468C147.648 122.516 147.556 122.501 147.508 122.434C147.46 122.368 147.476 122.276 147.542 122.228C148.239 121.636 148.685 121.043 148.988 120.473C149.239 120.002 149.359 119.547 149.421 119.113C149.475 118.74 149.484 118.385 149.451 118.048C149.426 117.794 149.388 117.552 149.334 117.324C149.091 116.299 148.607 115.578 148.607 115.578C148.553 115.516 148.56 115.423 148.622 115.369C148.684 115.316 148.777 115.323 148.831 115.385Z" fill="#C24353"/>
<path fill-rule="evenodd" clip-rule="evenodd" d="M123.108 133.76C123.108 133.76 123.522 134.387 124.646 134.801C125.289 135.038 126.165 135.192 127.331 135.122C127.856 135.083 128.35 135.053 128.835 135.031C129.329 135.008 129.811 135.003 130.305 135.025C130.559 135.037 130.815 135.055 131.079 135.08C131.448 135.116 131.829 135.166 132.234 135.242C132.948 135.376 133.727 135.583 134.627 135.896C135.336 136.142 136.114 136.439 136.988 136.825C137.064 136.865 137.155 136.832 137.193 136.753C137.23 136.673 137.2 136.575 137.124 136.536C136.294 136.019 135.555 135.593 134.867 135.254C133.964 134.81 133.165 134.509 132.427 134.306C131.994 134.188 131.582 134.106 131.182 134.054C130.895 134.017 130.614 133.997 130.337 133.99C129.809 133.978 129.293 134.009 128.768 134.067C128.276 134.121 127.776 134.203 127.244 134.288C126.415 134.431 125.738 134.428 125.192 134.349C123.885 134.16 123.345 133.557 123.345 133.557C123.292 133.488 123.196 133.477 123.131 133.533C123.065 133.589 123.054 133.691 123.108 133.76Z" fill="#1B2C44"/>
<path fill-rule="evenodd" clip-rule="evenodd" d="M139.068 136.841C140.341 136.722 141.351 136.56 142.235 136.367C142.993 136.203 143.653 136.022 144.304 135.844C144.859 135.691 145.405 135.544 145.997 135.403C146.516 135.279 147.068 135.158 147.696 135.054C148.509 134.92 149.444 134.808 150.585 134.737C151.437 134.684 152.4 134.646 153.511 134.641C153.592 134.644 153.66 134.577 153.663 134.491C153.666 134.406 153.602 134.334 153.522 134.331C152.404 134.242 151.433 134.192 150.572 134.182C149.403 134.169 148.441 134.221 147.603 134.319C146.949 134.395 146.37 134.498 145.832 134.626C145.227 134.769 144.673 134.941 144.112 135.123C143.476 135.33 142.833 135.551 142.097 135.773C141.243 136.032 140.268 136.299 139.029 136.535C138.949 136.546 138.893 136.623 138.904 136.708C138.914 136.793 138.988 136.852 139.068 136.841Z" fill="#1B2C44"/>
<path fill-rule="evenodd" clip-rule="evenodd" d="M126.967 131.64C132.196 129.741 138.282 134.559 143.269 131.139C143.344 131.092 143.369 130.993 143.322 130.916C143.276 130.841 143.176 130.816 143.1 130.863C137.941 133.074 133.153 128.338 126.78 131.376C126.707 131.428 126.69 131.528 126.741 131.601C126.793 131.674 126.894 131.692 126.967 131.64Z" fill="#1B2C44"/>
<path fill-rule="evenodd" clip-rule="evenodd" d="M128.414 139.793L131.447 141.932C131.808 142.184 132.201 142.38 132.615 142.519C133.032 142.66 133.47 142.735 133.915 142.752C134.571 142.773 135.433 142.808 136.373 142.83C137.163 142.848 138.008 142.865 138.83 142.867C139.278 142.868 139.719 142.861 140.141 142.853C140.877 142.838 141.554 142.812 142.107 142.795C142.612 142.775 143.111 142.692 143.587 142.536C144.058 142.381 144.508 142.164 144.922 141.884L147.873 139.85C147.931 139.815 147.95 139.739 147.914 139.681C147.879 139.622 147.803 139.604 147.745 139.639L144.583 141.327C144.201 141.535 143.794 141.683 143.375 141.781C142.962 141.877 142.535 141.917 142.107 141.899C141.554 141.883 140.877 141.856 140.141 141.842C139.719 141.833 139.278 141.827 138.83 141.828C138.008 141.83 137.163 141.846 136.373 141.865C135.433 141.886 134.571 141.921 133.915 141.942C133.543 141.956 133.172 141.922 132.814 141.833C132.45 141.744 132.099 141.61 131.771 141.421L128.546 139.585C128.488 139.548 128.412 139.565 128.376 139.622C128.339 139.68 128.356 139.756 128.414 139.793Z" fill="#1B2C44"/>
<path fill-rule="evenodd" clip-rule="evenodd" d="M183.543 94.054L185.076 94.0555C185.43 94.0555 185.775 94.1278 186.093 94.2635C186.411 94.3992 186.703 94.5988 186.947 94.8533C187.191 95.1077 187.379 95.4066 187.501 95.7299C187.624 96.0532 187.681 96.4005 187.667 96.7532L187.377 104.197C187.354 104.833 187.251 105.462 187.074 106.069C186.896 106.676 186.644 107.261 186.32 107.81L179.824 118.958C179.6 119.344 179.284 119.658 178.911 119.876C178.536 120.094 178.105 120.218 177.656 120.223L177.067 120.227C176.886 120.227 176.739 120.374 176.739 120.555C176.739 120.737 176.886 120.884 177.067 120.884L177.656 120.888C178.225 120.893 178.774 120.747 179.254 120.479C179.737 120.21 180.149 119.815 180.445 119.327L187.098 108.271C187.463 107.658 187.748 107.005 187.95 106.327C188.151 105.649 188.269 104.945 188.299 104.233L188.59 96.7891C188.609 96.3111 188.53 95.8402 188.362 95.4021C188.196 94.9645 187.941 94.5599 187.61 94.2156C187.278 93.8713 186.884 93.6019 186.453 93.4188C186.022 93.2357 185.554 93.1384 185.076 93.1389L183.543 93.1399C183.291 93.1399 183.086 93.3445 183.086 93.5969C183.086 93.8494 183.291 94.054 183.543 94.054Z" fill="#C24353"/>
<path fill-rule="evenodd" clip-rule="evenodd" d="M92.9877 93.1716L91.4544 93.1396C90.9979 93.1301 90.5499 93.216 90.1348 93.3831C89.7166 93.5508 89.334 93.8052 89.0092 94.1305C88.6819 94.4583 88.4314 94.847 88.2623 95.2681C88.0921 95.6917 88.0093 96.1502 88.0193 96.6162L88.2074 104.064C88.2313 104.779 88.3431 105.487 88.5417 106.169C88.7402 106.852 89.0266 107.509 89.3908 108.126C90.0879 109.279 91.0478 110.88 92.0612 112.543C93.558 114.997 95.1645 117.591 96.116 119.139C96.4124 119.619 96.8215 120.005 97.3005 120.266C97.7755 120.525 98.3158 120.664 98.8746 120.653L99.4639 120.641C99.6046 120.641 99.7193 120.526 99.7193 120.385C99.7193 120.244 99.6046 120.13 99.4639 120.13L98.8746 120.118C98.4156 120.108 97.977 119.976 97.5958 119.748C97.2186 119.524 96.9003 119.202 96.6763 118.806C95.7767 117.228 94.2749 114.573 92.8415 112.081C91.8706 110.392 90.9281 108.781 90.2525 107.616C89.9287 107.071 89.6772 106.49 89.4966 105.887C89.3165 105.284 89.2072 104.66 89.1783 104.026L88.7846 96.5863C88.7637 96.2221 88.8146 95.8608 88.9358 95.524C89.0576 95.1848 89.2457 94.8684 89.4956 94.5985C89.7476 94.3256 90.0484 94.1086 90.3802 93.9594C90.7155 93.8087 91.0797 93.7224 91.4544 93.7149L92.9877 93.6825C93.1284 93.6825 93.2431 93.5682 93.2431 93.427C93.2431 93.2858 93.1284 93.1716 92.9877 93.1716Z" fill="#C24353"/>
<path fill-rule="evenodd" clip-rule="evenodd" d="M186.91 94.2527C186.91 94.2527 185.394 94.8545 183.549 97.2523C182.88 98.122 182.162 99.2316 181.467 100.645C181.11 101.37 180.764 102.178 180.426 103.072C180.241 103.577 180.151 104.109 180.168 104.638C180.185 105.164 180.301 105.686 180.517 106.176C180.513 106.167 180.866 106.982 180.866 106.982C181.024 107.334 181.085 107.715 181.05 108.087C181.015 108.466 180.888 108.837 180.664 109.161L179.826 110.372C179.758 110.464 179.777 110.594 179.868 110.662C179.959 110.73 180.089 110.712 180.157 110.62L181.082 109.473C181.39 109.088 181.582 108.635 181.657 108.164C181.733 107.685 181.679 107.189 181.503 106.72L181.2 105.895C181.044 105.488 180.974 105.058 180.978 104.629C180.983 104.205 181.066 103.78 181.228 103.38C181.228 103.379 181.228 103.379 181.228 103.379C181.562 102.515 181.912 101.737 182.257 101.032C182.922 99.6772 183.589 98.603 184.218 97.7593C185.865 95.5515 187.203 94.9478 187.203 94.9478C187.395 94.8669 187.485 94.6454 187.405 94.4538C187.323 94.2617 187.102 94.1719 186.91 94.2527Z" fill="#C24353"/>
<path fill-rule="evenodd" clip-rule="evenodd" d="M89.2399 95.0013C89.2399 95.0013 90.573 95.6035 92.217 97.8018C92.7554 98.5218 93.3212 99.4109 93.8944 100.498C94.3405 101.342 94.796 102.304 95.2286 103.406C95.2291 103.406 95.2291 103.406 95.2291 103.406C95.3947 103.808 95.482 104.232 95.489 104.657C95.496 105.089 95.4297 105.521 95.2755 105.932L94.9771 106.759C94.805 107.223 94.7546 107.714 94.8324 108.187C94.9088 108.652 95.0994 109.098 95.4057 109.476L96.3352 110.619C96.3876 110.689 96.4869 110.703 96.5568 110.651C96.6266 110.599 96.6411 110.5 96.5892 110.43L95.757 109.213C95.5299 108.884 95.4032 108.505 95.3688 108.119C95.3354 107.741 95.4007 107.356 95.5624 106.999L95.9196 106.187C96.1342 105.709 96.2519 105.19 96.2724 104.666C96.2928 104.138 96.206 103.607 96.0244 103.1C95.5983 101.955 95.1562 100.95 94.7007 100.075C94.1065 98.9344 93.4968 98.0124 92.924 97.266C91.0764 94.8586 89.5547 94.2549 89.5547 94.2549C89.3486 94.1681 89.1111 94.2649 89.0243 94.4709C88.9375 94.677 89.0338 94.9145 89.2399 95.0013Z" fill="#C24353"/>
<path fill-rule="evenodd" clip-rule="evenodd" d="M169.863 159.497C172.766 168.771 173.278 179.765 172.323 189.391C172.295 189.65 172.483 189.884 172.743 189.912C173.003 189.94 173.237 189.752 173.264 189.492C174.404 179.761 173.98 168.564 170.769 159.222C170.694 158.972 170.429 158.831 170.179 158.906C169.929 158.982 169.788 159.246 169.863 159.497Z" fill="#623FC6"/>
<path fill-rule="evenodd" clip-rule="evenodd" d="M99.7062 95.932C100.127 100.219 101.268 103.167 102.276 105.047C102.278 105.051 102.281 105.056 102.283 105.06C103.288 106.811 105.107 107.939 107.122 108.062L107.123 108.062C111.068 108.294 118.696 108.602 123.594 107.92C123.595 107.92 123.596 107.92 123.597 107.92C126.071 107.563 128.296 106.223 129.767 104.202C133.275 99.3896 132.815 93.8809 131.97 90.4517C131.424 88.215 129.636 86.4946 127.38 86.0341C127.38 86.0341 115.166 83.1869 102.989 89.7941L102.987 89.7946C100.739 90.9746 99.4388 93.4074 99.7062 95.932ZM100.741 95.8292C100.741 95.8277 100.741 95.8262 100.74 95.8247C100.517 93.7232 101.599 91.698 103.47 90.7151C107.953 88.3776 116.85 84.9195 127.171 87.0524H127.172C129.034 87.4326 130.51 88.8526 130.961 90.6982V90.6992C131.753 93.9128 132.214 99.0803 128.927 103.59H128.927C127.621 105.384 125.646 106.574 123.45 106.891C118.612 107.564 111.081 107.254 107.185 107.024C105.522 106.923 104.023 105.995 103.19 104.553C102.224 102.749 101.143 99.9275 100.741 95.8292Z" fill="#1B2C44"/>
<path d="M100.322 94.816L98.0419 96.302" stroke="#1A2B42" stroke-width="1.47627"/>
<path d="M176.305 93.332L179.522 94.4943" stroke="#1A2B42" stroke-width="1.47627"/>
<path fill-rule="evenodd" clip-rule="evenodd" d="M144.188 94.8326L144.219 94.8341L144.437 94.3357C143.858 93.6412 143.147 93.0874 142.352 92.6987C141.545 92.304 140.653 92.0955 139.736 92.0645C139.409 92.0596 139.07 92.0506 138.726 92.0501C138.219 92.0491 137.703 92.0606 137.211 92.066C136.195 92.097 135.203 92.3165 134.296 92.7316C133.401 93.1412 132.59 93.728 131.911 94.4669L131.957 94.5792C131.877 94.4824 131.824 94.5737 131.824 94.6775C131.824 94.8411 131.957 94.9743 132.121 94.9743L132.331 94.887C133.001 94.2723 133.78 93.8133 134.616 93.502C135.438 93.1961 136.317 93.045 137.211 93.0719C137.703 93.0774 138.219 93.0889 138.726 93.0879C139.07 93.0874 139.409 93.0784 139.736 93.0734C140.524 93.0469 141.296 93.1857 142.015 93.4666C142.748 93.7529 143.427 94.1735 144 94.7378L144.001 94.7383C144.048 94.7902 144.114 94.8252 144.188 94.8326Z" fill="#1B2C44"/>
<path d="M133.06 93.727L132.009 94.9371L132.137 96.3691L133.474 95.828L136.307 94.9371H140.191L142.578 95.3823L144.552 96.3691L144.329 94.3637L141.846 92.9312L139.681 92.6447H135.766L133.06 93.727Z" fill="#1A2B42"/>
<path fill-rule="evenodd" clip-rule="evenodd" d="M131.883 96.7143C131.846 96.7233 131.824 96.7846 131.824 96.8505C131.824 97.0127 131.955 97.1444 132.118 97.1444C132.118 97.1444 132.216 97.1548 132.331 97.0536C132.346 97.0406 132.375 97.0146 132.417 96.9772C133.081 96.3875 133.848 95.9474 134.668 95.6501C135.475 95.3577 136.335 95.2145 137.209 95.2414C137.78 95.2479 138.387 95.2624 138.982 95.2614C139.387 95.2604 139.786 95.2484 140.165 95.2424C140.936 95.2165 141.693 95.3482 142.4 95.6176C143.119 95.892 143.789 96.2957 144.357 96.8385C144.392 96.8715 144.417 96.8944 144.428 96.9054L144.436 96.9124C144.478 96.9568 144.533 96.9877 144.595 96.9992C144.628 97.0062 144.649 97.0042 144.649 97.0042L144.667 96.9937C144.748 96.9453 145.059 96.7382 144.854 96.4992C144.844 96.4873 144.822 96.4618 144.791 96.4254C144.213 95.7568 143.509 95.225 142.728 94.8513C141.935 94.4726 141.061 94.2725 140.165 94.2421C139.786 94.2361 139.387 94.2241 138.982 94.2231C138.387 94.2221 137.78 94.2366 137.209 94.2431C136.217 94.2735 135.247 94.4845 134.358 94.8822C133.479 95.2744 132.678 95.8367 132.002 96.5461C131.963 96.5871 131.936 96.6429 131.922 96.63C131.814 96.5272 131.828 96.597 131.883 96.7143Z" fill="#1B2C44"/>
<path fill-rule="evenodd" clip-rule="evenodd" d="M176.757 94.4627C176.806 93.2228 176.473 92.0309 175.846 91.023C175.217 90.0117 174.29 89.187 173.152 88.682L173.151 88.6815C173.151 88.6815 160.531 82.9271 148.608 86.5646C147.504 86.8684 146.536 87.4786 145.795 88.2949C145.054 89.1121 144.542 90.1369 144.345 91.268C144.011 93.1849 143.833 95.729 144.39 98.3878C144.842 100.55 145.78 102.785 147.5 104.826C148.306 105.78 149.286 106.552 150.378 107.106C151.468 107.661 152.669 107.998 153.914 108.086C153.915 108.086 153.917 108.086 153.917 108.086C155.843 108.211 158.173 108.157 160.531 108.011C164.211 107.783 167.961 107.332 170.347 107.013H170.348C171.334 106.878 172.254 106.501 173.035 105.932C173.814 105.363 174.454 104.606 174.883 103.709C174.884 103.705 174.886 103.702 174.888 103.698C175.391 102.564 175.912 101.065 176.277 99.1597C176.536 97.8051 176.717 96.2444 176.757 94.4627ZM176.01 94.4378C176.01 94.4388 176.009 94.4397 176.009 94.4412C175.953 96.174 175.761 97.6908 175.497 99.006C175.129 100.829 174.619 102.263 174.126 103.348C173.752 104.11 173.199 104.753 172.529 105.232C171.86 105.711 171.073 106.025 170.231 106.132C167.86 106.431 164.131 106.847 160.475 107.049C158.161 107.176 155.876 107.218 153.987 107.084C152.879 107 151.812 106.694 150.842 106.197C149.874 105.7 149.003 105.012 148.289 104.161V104.161C146.691 102.264 145.825 100.184 145.402 98.1753C144.873 95.6611 145.035 93.2548 145.345 91.4402L145.346 91.4392C145.505 90.4992 145.927 89.6475 146.539 88.9659C147.152 88.2834 147.954 87.7705 148.873 87.5115L148.875 87.511C159.032 84.6211 168.175 87.4176 172.829 89.421C173.822 89.8505 174.633 90.5615 175.188 91.4362C175.744 92.3133 176.044 93.3531 176.01 94.4378Z" fill="#1B2C44"/>
<path fill-rule="evenodd" clip-rule="evenodd" d="M102.695 45.3253L102.714 45.3258L102.853 44.6049C102.324 44.3923 101.757 44.3434 101.22 44.4447C100.681 44.5465 100.171 44.7989 99.7556 45.1901L90.3702 54.0218C89.6732 54.6774 89.2042 55.5086 88.9881 56.4007C88.7716 57.2938 88.8105 58.2487 89.1303 59.1513L89.3833 59.8643C89.5789 60.4166 89.6667 60.9959 89.6487 61.5716C89.6302 62.1469 89.5055 62.7187 89.2755 63.257L86.8447 68.9514C86.486 69.7921 86.2804 70.6827 86.23 71.5813C86.1791 72.4809 86.2839 73.3894 86.5463 74.2656L92.5675 94.3966C92.5829 94.4475 92.6064 94.4959 92.6368 94.5398L97.6202 101.714C97.7844 101.949 98.1087 102.007 98.3442 101.843C98.5792 101.679 98.637 101.355 98.4729 101.12L93.509 94.0284L87.4349 73.9981C87.2009 73.2258 87.1051 72.425 87.1465 71.6312C87.1885 70.8374 87.3666 70.0501 87.6804 69.3061L90.0863 63.6008C90.3562 62.9602 90.5009 62.2801 90.5193 61.5971C90.5373 60.9145 90.4295 60.2285 90.1945 59.5744L89.9381 58.8629C89.6712 58.1205 89.6352 57.3342 89.8099 56.5973C89.9845 55.8593 90.3692 55.1708 90.9419 54.626L100.28 45.7434C100.586 45.452 100.963 45.2624 101.361 45.1851C101.76 45.1078 102.181 45.1427 102.575 45.2989H102.575C102.613 45.3143 102.652 45.3233 102.695 45.3253Z" fill="#623FC6"/>
<path fill-rule="evenodd" clip-rule="evenodd" d="M98.5403 101.033C98.5403 101.033 98.1201 94.298 99.3286 85.1017C99.9512 80.3633 101.005 74.9718 102.772 69.5114C103.266 67.9902 103.958 66.5472 104.824 65.2186C105.691 63.8884 106.733 62.672 107.927 61.6048C108.632 60.9766 109.361 60.122 109.981 58.9654C110.442 58.1058 110.843 57.0785 111.127 55.8511C111.169 55.6744 111.06 55.4973 110.883 55.4559C110.707 55.414 110.53 55.5238 110.488 55.7004C110.209 56.8599 109.823 57.8303 109.381 58.6406C108.797 59.7088 108.116 60.4967 107.458 61.0744C107.458 61.0749 107.458 61.0749 107.457 61.0749C106.206 62.1751 105.113 63.4319 104.2 64.8085C103.286 66.186 102.554 67.6843 102.026 69.2664C100.199 74.7657 99.0911 80.2001 98.4245 84.9794C97.1283 94.2756 97.5025 101.094 97.5025 101.094C97.5194 101.38 97.7654 101.599 98.0518 101.582C98.3382 101.566 98.5567 101.32 98.5403 101.033Z" fill="#623FC6"/>
<path fill-rule="evenodd" clip-rule="evenodd" d="M110.449 58.1266C110.449 58.1266 113.68 55.1935 119.228 53.0476C122.081 51.944 125.498 51.0563 129.305 50.9062H129.307C130.368 50.8598 131.425 50.967 132.447 51.218C133.467 51.4685 134.453 51.8636 135.371 52.396C135.373 52.397 135.374 52.398 135.376 52.399C136.983 53.3016 139.328 54.5175 142.264 55.7244C145.328 56.9847 149.035 58.239 153.2 59.1451C158.844 60.373 165.331 60.9527 172.208 60.0556C172.409 60.0307 172.552 59.8476 172.527 59.6465C172.502 59.4454 172.318 59.3028 172.118 59.3277C165.334 60.1275 158.957 59.4599 153.41 58.1996C149.316 57.2696 145.675 56.0108 142.659 54.7649C139.772 53.5725 137.456 52.3965 135.873 51.5129C134.869 50.9401 133.794 50.5165 132.681 50.2511C131.567 49.9861 130.416 49.8789 129.261 49.9382C125.346 50.1328 121.837 51.0783 118.913 52.2468C113.244 54.513 109.965 57.5758 109.965 57.5758C109.813 57.7095 109.798 57.9415 109.931 58.0932C110.065 58.2454 110.297 58.2604 110.449 58.1266Z" fill="#623FC6"/>
<path fill-rule="evenodd" clip-rule="evenodd" d="M102.609 48.0467C102.609 48.0467 103.185 41.7681 106.764 35.0953C108.545 31.7734 111.071 28.3522 114.647 25.5642C114.618 25.7677 114.595 25.9893 114.586 26.2233C114.562 26.8135 114.618 27.4821 114.843 28.1377C114.891 28.2764 115.005 28.3822 115.147 28.4196C115.288 28.457 115.44 28.4206 115.549 28.3233C123.948 20.8792 131.819 18.5442 139.156 18.6494C147.457 18.7682 155.072 21.9893 161.986 24.4436C167.435 26.3779 172.46 27.8303 177.045 27.041C176.936 27.3743 176.725 27.8229 176.319 28.2998C175.936 28.7519 175.383 29.2239 174.592 29.6564C174.46 29.7293 174.371 29.8635 174.357 30.0142C174.343 30.1649 174.404 30.313 174.521 30.4098C191.892 44.8576 186.585 74.2649 182.902 93.164L179.536 96.666C179.961 92.9988 180.708 83.2356 178.108 73.8147C176.673 68.6118 174.298 63.6876 170.23 59.7595C170.023 59.5605 169.694 59.5664 169.495 59.773C169.296 59.9791 169.302 60.3084 169.508 60.5079C173.446 64.3003 175.731 69.0589 177.126 74.0867C180.368 85.7797 178.359 98.0166 178.359 98.0166C178.324 98.2301 178.432 98.4417 178.626 98.5385C178.819 98.6358 179.053 98.5954 179.203 98.4392L183.71 93.7397C183.775 93.6714 183.819 93.5861 183.837 93.4937C187.709 73.6151 192.242 45.9133 175.578 30.1334C176.416 29.5891 176.967 29.0078 177.332 28.479C178.1 27.3683 178.075 26.4583 178.075 26.4583C178.073 26.3211 178.01 26.1913 177.902 26.106C177.794 26.0207 177.653 25.9883 177.519 26.0182C172.904 27.0515 167.826 25.5552 162.288 23.5929C155.287 21.1127 147.572 17.8771 139.168 17.7608C131.806 17.6585 123.914 19.9332 115.511 27.1907C115.461 26.8679 115.45 26.5516 115.462 26.2587C115.5 25.3442 115.757 24.6501 115.757 24.6501C115.824 24.47 115.766 24.2664 115.614 24.1492C115.461 24.0319 115.25 24.028 115.092 24.1392C110.888 27.1318 107.988 30.9667 105.996 34.6837C102.329 41.5276 101.746 47.9679 101.746 47.9679C101.724 48.2059 101.9 48.4164 102.138 48.4384C102.376 48.4598 102.587 48.2847 102.609 48.0467Z" fill="#623FC6"/>
<mask id="mask5_3129_7087" style="mask-type:alpha" maskUnits="userSpaceOnUse" x="145" y="77" width="27" height="10">
<path d="M148.492 78.7089C148.582 78.6865 148.674 78.703 148.748 78.7474L149.908 79.4399L150.469 77.846C150.51 77.7317 150.607 77.6471 150.725 77.6215C154.328 76.8356 157.942 76.9133 161.106 77.3513C166.86 78.1477 171.122 80.1198 171.122 80.1198C171.276 80.1906 171.363 80.3563 171.334 80.5233C171.171 81.463 170.936 82.1563 170.703 82.6602C170.238 83.6634 169.759 83.9659 169.759 83.9659C169.673 84.0237 169.567 84.0436 169.466 84.0202C164.979 82.9768 161.019 82.7932 157.702 83.0305C150.537 83.5426 146.377 86.0197 146.377 86.0197C146.286 86.074 146.176 86.0839 146.077 86.0472C145.978 86.01 145.901 85.9298 145.868 85.8296C145.609 85.0378 145.495 84.2972 145.47 83.6263C145.438 82.7507 145.559 81.9936 145.711 81.3982C145.712 81.3955 145.713 81.3927 145.714 81.3899C145.903 80.7258 146.262 80.1379 146.742 79.6747C147.222 79.2122 147.822 78.8737 148.492 78.7089Z" fill="#1B2C44"/>
</mask>
<g mask="url(#mask5_3129_7087)">
<path d="M148.492 78.7089C148.582 78.6865 148.674 78.703 148.748 78.7474L149.908 79.4399L150.469 77.846C150.51 77.7317 150.607 77.6471 150.725 77.6215C154.328 76.8356 157.942 76.9133 161.106 77.3513C166.86 78.1477 171.122 80.1198 171.122 80.1198C171.276 80.1906 171.363 80.3563 171.334 80.5233C171.171 81.463 170.936 82.1563 170.703 82.6602C170.238 83.6634 169.759 83.9659 169.759 83.9659C169.673 84.0237 169.567 84.0436 169.466 84.0202C164.979 82.9768 161.019 82.7932 157.702 83.0305C150.537 83.5426 146.377 86.0197 146.377 86.0197C146.286 86.074 146.176 86.0839 146.077 86.0472C145.978 86.01 145.901 85.9298 145.868 85.8296C145.609 85.0378 145.495 84.2972 145.47 83.6263C145.438 82.7507 145.559 81.9936 145.711 81.3982C145.712 81.3955 145.713 81.3927 145.714 81.3899C145.903 80.7258 146.262 80.1379 146.742 79.6747C147.222 79.2122 147.822 78.8737 148.492 78.7089Z" fill="#1B2C44"/>
<path d="M167.483 89.2341L167.937 77.2586L172.23 76.1966L176.447 87.4911L167.483 89.2341Z" fill="url(#paint27_linear_3129_7087)"/>
<path d="M165.264 55.8528L169.93 56.651C169.93 56.651 164.051 94.1776 161.633 105.156L156.967 104.357C161.521 87.0212 165.264 55.8528 165.264 55.8528Z" fill="url(#paint28_linear_3129_7087)"/>
</g>
<mask id="mask6_3129_7087" style="mask-type:alpha" maskUnits="userSpaceOnUse" x="105" y="76" width="26" height="10">
<path d="M128.511 78.1196C128.724 78.2138 128.988 78.3521 129.285 78.5541C129.551 78.7315 129.785 78.95 129.979 79.1993C130.174 79.4493 130.327 79.7309 130.433 80.0329C130.64 80.6176 130.857 81.5008 130.839 82.5849C130.826 83.3424 130.697 84.1983 130.369 85.1184C130.295 85.3235 130.041 85.4115 129.857 85.2936C129.857 85.2936 125.765 82.7036 118.617 81.9956C115.307 81.6676 111.344 81.7434 106.83 82.6637C106.729 82.6839 106.624 82.6616 106.54 82.6016C106.54 82.6016 106.069 82.2856 105.632 81.2706C105.413 80.7611 105.197 80.0617 105.059 79.1182C105.035 78.9504 105.127 78.7874 105.282 78.7212C105.282 78.7212 109.595 76.8651 115.369 76.2254C118.544 75.8736 122.16 75.8933 125.74 76.7769C125.859 76.8058 125.954 76.8947 125.993 77.0109L126.508 78.6154C126.635 78.5443 126.753 78.472 126.866 78.403C127.408 78.0722 127.827 77.8164 128.511 78.1196Z" fill="#1B2C44"/>
</mask>
<g mask="url(#mask6_3129_7087)">
<path d="M128.511 78.1196C128.724 78.2138 128.988 78.3521 129.285 78.5541C129.551 78.7315 129.785 78.95 129.979 79.1993C130.174 79.4493 130.327 79.7309 130.433 80.0329C130.64 80.6176 130.857 81.5008 130.839 82.5849C130.826 83.3424 130.697 84.1983 130.369 85.1184C130.295 85.3235 130.041 85.4115 129.857 85.2936C129.857 85.2936 125.765 82.7036 118.617 81.9956C115.307 81.6676 111.344 81.7434 106.83 82.6637C106.729 82.6839 106.624 82.6616 106.54 82.6016C106.54 82.6016 106.069 82.2856 105.632 81.2706C105.413 80.7611 105.197 80.0617 105.059 79.1182C105.035 78.9504 105.127 78.7874 105.282 78.7212C105.282 78.7212 109.595 76.8651 115.369 76.2254C118.544 75.8736 122.16 75.8933 125.74 76.7769C125.859 76.8058 125.954 76.8947 125.993 77.0109L126.508 78.6154C126.635 78.5443 126.753 78.472 126.866 78.403C127.408 78.0722 127.827 77.8164 128.511 78.1196Z" fill="#1B2C44"/>
<path d="M124.437 86.4779L127.71 75.8198C129.11 75.4023 130.49 74.8699 132.232 76.0948C134.409 77.6259 133.689 85.6008 133.294 88.371C132.9 91.1413 124.954 86.6213 124.437 86.4779Z" fill="url(#paint29_linear_3129_7087)"/>
<path d="M116.311 84.5926L121.322 73.2535C122.722 72.836 123.935 72.6908 125.676 73.9157L121.462 85.2283C121.068 87.9985 116.829 84.736 116.311 84.5926Z" fill="url(#paint30_linear_3129_7087)"/>
</g>
<path fill-rule="evenodd" clip-rule="evenodd" d="M104.609 153.899C102.163 164.158 102.954 176.098 104.818 186.415C104.851 186.613 105.038 186.746 105.237 186.713C105.434 186.68 105.568 186.492 105.534 186.295C103.956 176.098 103.27 164.215 105.446 154.088C105.499 153.857 105.353 153.627 105.122 153.575C104.891 153.523 104.661 153.668 104.609 153.899Z" fill="#623FC6"/>
<path fill-rule="evenodd" clip-rule="evenodd" d="M105.169 153.056L94.4279 157.903C94.0118 158.092 93.6291 158.343 93.2914 158.645C92.9531 158.946 92.6607 159.299 92.4242 159.691C91.6848 160.935 90.3955 163.089 89.0579 165.354C86.6455 169.44 84.0596 173.879 84.0596 173.879C83.9593 174.046 84.0142 174.262 84.1813 174.363C84.3484 174.462 84.565 174.408 84.6653 174.241C84.6653 174.241 87.351 169.862 89.8093 165.803C91.1719 163.553 92.4586 161.398 93.2046 160.158C93.3922 159.842 93.6247 159.559 93.8936 159.315C94.163 159.072 94.4684 158.868 94.8011 158.712L105.464 153.697C105.641 153.615 105.719 153.405 105.637 153.229C105.556 153.052 105.346 152.974 105.169 153.056Z" fill="#623FC6"/>
<path fill-rule="evenodd" clip-rule="evenodd" d="M169.622 159.318L180.294 164.317C180.624 164.47 180.927 164.673 181.194 164.914C181.461 165.156 181.691 165.437 181.877 165.75C182.621 166.991 183.905 169.148 185.265 171.4C187.719 175.461 190.401 179.843 190.401 179.843C190.514 180.033 190.761 180.095 190.951 179.981C191.141 179.867 191.203 179.621 191.09 179.43C191.09 179.43 188.499 174.994 186.082 170.912C184.742 168.647 183.45 166.496 182.709 165.253C182.471 164.858 182.177 164.503 181.836 164.199C181.496 163.896 181.111 163.644 180.692 163.453L169.959 158.588C169.758 158.496 169.519 158.584 169.426 158.785C169.333 158.987 169.421 159.225 169.622 159.318Z" fill="#623FC6"/>
<path fill-rule="evenodd" clip-rule="evenodd" d="M94.0339 158.121C94.0339 158.121 89.1047 159.447 85.0848 160.411C83.2777 160.843 81.4316 161.3 79.8689 161.681C78.5223 162.029 77.246 162.587 76.103 163.348C74.9654 164.105 73.9595 165.057 73.1213 166.16L70.2016 170.061C70.1147 170.17 70.1327 170.329 70.242 170.415C70.3507 170.502 70.5094 170.484 70.5957 170.375L73.741 166.653C74.5652 165.663 75.5467 164.832 76.6268 164.162C77.7006 163.496 78.8755 162.991 80.1214 162.694C81.6801 162.297 83.5246 161.835 85.3238 161.371C89.3263 160.337 94.2245 158.887 94.2245 158.887C94.4361 158.834 94.5648 158.62 94.5124 158.409C94.4595 158.197 94.2455 158.068 94.0339 158.121Z" fill="#623FC6"/>
<path fill-rule="evenodd" clip-rule="evenodd" d="M181.027 164.654L193.769 168.611C194.891 168.949 195.947 169.456 196.913 170.098C197.884 170.743 198.765 171.521 199.516 172.43L202.889 176.462C202.968 176.562 203.113 176.579 203.213 176.499C203.313 176.42 203.33 176.274 203.25 176.175L200.078 171.982C199.314 170.985 198.411 170.111 197.394 169.395C196.375 168.677 195.241 168.123 194.04 167.738L181.301 163.774C181.058 163.699 180.799 163.834 180.724 164.077C180.649 164.32 180.784 164.578 181.027 164.654Z" fill="#623FC6"/>
<path fill-rule="evenodd" clip-rule="evenodd" d="M77.4891 162.542C70.5294 164.986 62.2454 168.427 55.24 170.737C54.9691 170.832 54.8274 171.129 54.9227 171.4C55.018 171.67 55.3149 171.812 55.5858 171.717C62.4903 169.121 70.7365 165.573 77.6892 163.109C77.8458 163.054 77.9282 162.882 77.8728 162.725C77.8174 162.569 77.6458 162.487 77.4891 162.542Z" fill="#623FC6"/>
<path fill-rule="evenodd" clip-rule="evenodd" d="M228.208 182.697C227.985 182.898 227.578 183.164 226.852 183.504C226.115 183.849 225.07 184.249 223.595 184.696C223.593 184.696 223.592 184.697 223.591 184.697C222.655 184.99 221.692 185.172 220.721 185.242C219.75 185.311 218.771 185.268 217.804 185.112C217.802 185.112 217.8 185.112 217.799 185.111C217.099 185.007 216.416 184.941 215.249 185.141C214.398 185.287 213.279 185.579 211.683 186.115C207.261 187.602 185.561 188.483 167.082 190.32C159.799 191.044 153.014 191.917 147.968 193.023C147.963 193.024 147.958 193.025 147.954 193.026C147.308 193.187 146.683 193.418 146.092 193.715C145.5 194.011 144.942 194.374 144.426 194.796C143.301 195.713 141.357 196.839 138.832 196.498C137.242 196.283 135.432 195.489 133.447 193.737C133.447 193.737 133.445 193.736 133.445 193.735C132.968 193.319 132.443 192.968 131.882 192.687C131.32 192.406 130.724 192.196 130.105 192.064C123.918 190.739 103.768 186.424 88.1229 182.775C80.2607 180.941 73.5381 179.278 70.3105 178.243C67.3543 177.211 64.8032 176.108 62.6922 175.08C58.092 172.841 55.5864 170.96 55.5864 170.96C55.3953 170.816 55.1238 170.854 54.9802 171.045C54.8365 171.236 54.8744 171.507 55.065 171.651C55.065 171.651 57.6145 173.581 62.302 175.879C64.439 176.926 67.0215 178.05 70.0101 179.103C70.0136 179.104 70.0176 179.105 70.0211 179.106C73.2557 180.153 80.0063 181.846 87.9049 183.706C103.549 187.389 123.702 191.735 129.889 193.071H129.889C130.422 193.186 130.936 193.367 131.419 193.609C131.902 193.852 132.354 194.155 132.764 194.514C134.944 196.439 136.945 197.289 138.693 197.526C141.574 197.917 143.797 196.647 145.083 195.6L145.085 195.599C145.54 195.226 146.034 194.906 146.558 194.643C147.077 194.383 147.625 194.18 148.191 194.038C151.7 193.266 156.046 192.61 160.814 192.034C180.379 189.67 207.015 188.662 211.976 186.982C213.51 186.462 214.585 186.176 215.403 186.032C216.439 185.851 217.045 185.908 217.666 185.999C218.701 186.163 219.748 186.205 220.786 186.127C221.825 186.049 222.854 185.852 223.854 185.536C225.784 184.944 227.001 184.429 227.769 184.015C229.476 183.093 229.275 182.432 229.275 182.432C229.254 182.279 229.153 182.149 229.009 182.092L197.704 169.605C197.511 169.527 197.291 169.621 197.213 169.814C197.136 170.007 197.23 170.227 197.423 170.305L228.208 182.697Z" fill="#623FC6"/>
<path fill-rule="evenodd" clip-rule="evenodd" d="M55.2464 170.783C55.2464 170.783 44.8192 171.716 36.3592 178.94C31.8264 182.811 27.8534 188.482 26.3501 196.78C26.3202 196.943 26.376 197.111 26.4983 197.223C26.4983 197.223 41.145 210.654 66.0843 228.037C78.0368 236.367 92.3533 245.608 108.557 254.709C119.644 260.949 131.926 264.197 144.267 264.438C156.609 264.678 169.01 261.911 180.333 256.108C180.333 256.108 180.333 256.108 180.334 256.108C190.25 251.01 201.946 244.379 215.222 235.819C225.352 229.287 236.402 221.633 248.282 212.676C248.387 212.598 248.456 212.48 248.473 212.35C248.473 212.35 249.822 202.203 244.501 193.367C241.641 188.619 236.864 184.243 228.923 182.019C228.65 181.943 228.367 182.103 228.291 182.375C228.215 182.648 228.374 182.931 228.647 183.007C236.282 185.135 240.887 189.325 243.641 193.885C248.36 201.701 247.672 210.585 247.524 212.021C235.739 220.921 224.773 228.535 214.715 235.035C201.478 243.589 189.813 250.215 179.924 255.311C168.737 261.054 156.482 263.801 144.284 263.567C132.085 263.333 119.943 260.119 108.983 253.951C92.8138 244.853 78.5273 235.62 66.6032 227.293C43.4187 211.1 29.1651 198.338 27.3495 196.691C28.8513 188.805 32.6606 183.396 37.0049 179.697C45.2223 172.701 55.3378 171.804 55.3378 171.804C55.6196 171.779 55.8277 171.53 55.8028 171.248C55.7778 170.966 55.5283 170.758 55.2464 170.783Z" fill="#623FC6"/>
<path fill-rule="evenodd" clip-rule="evenodd" d="M126.642 95.0501L124.808 92.8567C124.45 92.4325 124.012 92.094 123.529 91.8447C123.037 91.5915 122.494 91.4458 121.933 91.4006C121.153 91.3455 120.168 91.2631 119.182 91.2075C118.192 91.1519 117.203 91.1232 116.428 91.0903C115.876 91.0795 115.329 91.1517 114.809 91.3164C114.293 91.4797 113.802 91.7249 113.36 92.0499C113.36 92.0499 111.428 93.3306 110.358 93.7704C110.151 93.8555 109.899 93.9398 109.864 94.1611C109.847 94.2641 109.869 94.3732 109.933 94.4654C110.182 94.824 110.732 94.515 111.14 94.3588C112.488 93.8414 113.986 92.9548 113.986 92.9548C114.343 92.7219 114.734 92.5568 115.139 92.4481C115.541 92.3408 115.96 92.298 116.381 92.3217C117.155 92.3487 118.144 92.3968 119.135 92.4176C120.122 92.4382 121.111 92.4314 121.892 92.4371C122.327 92.4354 122.752 92.5142 123.147 92.6747C123.549 92.8386 123.923 93.0727 124.239 93.3835L126.284 95.3818C126.376 95.4807 126.53 95.4866 126.629 95.3951C126.728 95.3035 126.734 95.149 126.642 95.0501Z" fill="#3F4963"/>
<path fill-rule="evenodd" clip-rule="evenodd" d="M151.891 95.0501L153.726 92.8567C154.083 92.4325 154.521 92.094 155.005 91.8447C155.496 91.5915 156.039 91.4458 156.601 91.4006C157.381 91.3455 158.366 91.2631 159.352 91.2075C160.342 91.1519 161.331 91.1232 162.105 91.0903C162.657 91.0795 163.205 91.1517 163.724 91.3164C164.241 91.4797 164.731 91.7249 165.174 92.0499C165.174 92.0499 167.105 93.3306 168.175 93.7704C168.383 93.8555 168.634 93.9398 168.669 94.1611C168.686 94.2641 168.664 94.3732 168.6 94.4654C168.351 94.824 167.801 94.515 167.394 94.3588C166.045 93.8414 164.547 92.9548 164.547 92.9548C164.19 92.7219 163.8 92.5568 163.394 92.4481C162.992 92.3408 162.573 92.298 162.153 92.3217C161.378 92.3487 160.39 92.3968 159.398 92.4176C158.411 92.4382 157.423 92.4314 156.641 92.4371C156.206 92.4354 155.781 92.5142 155.387 92.6747C154.984 92.8386 154.61 93.0727 154.294 93.3835L152.249 95.3818C152.158 95.4807 152.003 95.4866 151.904 95.3951C151.805 95.3035 151.799 95.149 151.891 95.0501Z" fill="#3F4963"/>
<ellipse rx="2.74234" ry="2.46281" transform="matrix(-1 0 0 1 119.167 93.7669)" fill="#3F4963"/>
<ellipse cx="159.366" cy="93.7669" rx="2.74234" ry="2.46281" fill="#3F4963"/>
<path fill-rule="evenodd" clip-rule="evenodd" d="M126.333 92.0956L124.365 90.025C124.005 89.6473 123.577 89.3509 123.109 89.1439C122.637 88.9353 122.124 88.8211 121.598 88.8086L116.086 88.6988C115.562 88.6923 115.043 88.7702 114.551 88.9308C114.058 89.092 113.594 89.338 113.174 89.6533C112.746 90.012 112.247 90.4097 111.811 90.7944C111.077 91.443 110.505 92.0123 110.505 92.0123C110.472 92.0362 110.466 92.0821 110.49 92.114C110.514 92.1465 110.56 92.153 110.593 92.1285C110.593 92.1285 111.298 91.7378 112.125 91.2135C112.616 90.9016 113.137 90.5334 113.601 90.2216C113.959 89.9522 114.357 89.7471 114.776 89.6049C115.196 89.4617 115.637 89.3799 116.086 89.3744L121.598 89.2646C122.069 89.2536 122.531 89.3345 122.961 89.5011C123.396 89.6693 123.798 89.9202 124.142 90.248L126.212 92.2163C126.246 92.2498 126.3 92.2498 126.333 92.2163C126.366 92.1829 126.366 92.1285 126.333 92.0956Z" fill="#3F4963"/>
<path fill-rule="evenodd" clip-rule="evenodd" d="M152.2 92.0957L154.168 90.0251C154.528 89.6474 154.956 89.351 155.424 89.144C155.896 88.9354 156.409 88.8212 156.935 88.8087L162.447 88.6989C162.971 88.6924 163.49 88.7703 163.982 88.9309C164.475 89.0921 164.939 89.3381 165.359 89.6534C165.788 90.0121 166.287 90.4098 166.722 90.7944C167.457 91.4431 168.028 92.0124 168.028 92.0124C168.061 92.0363 168.067 92.0822 168.043 92.1141C168.019 92.1466 167.973 92.1531 167.941 92.1286C167.941 92.1286 167.235 91.7379 166.408 91.2136C165.917 90.9017 165.396 90.5335 164.932 90.2217C164.574 89.9522 164.176 89.7472 163.757 89.605C163.337 89.4618 162.896 89.38 162.447 89.3745L156.935 89.2647C156.465 89.2537 156.002 89.3346 155.572 89.5012C155.137 89.6694 154.735 89.9203 154.391 90.2481L152.321 92.2164C152.287 92.2498 152.233 92.2498 152.2 92.2164C152.167 92.183 152.167 92.1286 152.2 92.0957Z" fill="#3F4963"/>
<path fill-rule="evenodd" clip-rule="evenodd" d="M122.148 97.5831C121.722 97.7118 121.299 97.7901 120.86 97.846C120.579 97.8819 120.3 97.8974 120.012 97.9044C119.805 97.9099 119.597 97.9034 119.385 97.8994C119.179 97.8959 118.971 97.8949 118.755 97.8834C118.445 97.867 118.129 97.8435 117.795 97.7911C117.478 97.7412 117.16 97.6864 116.819 97.5941C116.782 97.5781 116.739 97.5946 116.722 97.6315C116.706 97.6684 116.723 97.7113 116.76 97.7278C117.297 98.0636 117.804 98.313 118.321 98.4742C118.553 98.5465 118.783 98.5959 119.012 98.6259C119.172 98.6463 119.33 98.6553 119.486 98.6523C119.89 98.6433 120.279 98.58 120.652 98.4712C121.213 98.3075 121.721 98.0476 122.219 97.7388C122.262 97.7193 122.281 97.6689 122.262 97.6255C122.242 97.5826 122.191 97.5636 122.148 97.5831Z" fill="#3F4963"/>
<path fill-rule="evenodd" clip-rule="evenodd" d="M156.385 97.5831C156.812 97.7118 157.235 97.7901 157.674 97.846C157.954 97.8819 158.234 97.8974 158.521 97.9044C158.728 97.9099 158.936 97.9034 159.149 97.8994C159.355 97.8959 159.563 97.8949 159.778 97.8834C160.089 97.867 160.404 97.8435 160.739 97.7911C161.055 97.7412 161.373 97.6864 161.715 97.5941C161.751 97.5781 161.794 97.5946 161.811 97.6315C161.827 97.6684 161.81 97.7113 161.774 97.7278C161.236 98.0636 160.73 98.313 160.212 98.4742C159.98 98.5465 159.75 98.5959 159.521 98.6259C159.362 98.6463 159.203 98.6553 159.047 98.6523C158.643 98.6433 158.254 98.58 157.881 98.4712C157.32 98.3075 156.813 98.0476 156.314 97.7388C156.271 97.7193 156.252 97.6689 156.272 97.6255C156.291 97.5826 156.342 97.5636 156.385 97.5831Z" fill="#3F4963"/>
<path fill-rule="evenodd" clip-rule="evenodd" d="M125.595 99.4201C125.326 99.7612 125.043 100.028 124.769 100.261C124.438 100.543 124.104 100.74 123.794 100.904C123.485 101.067 123.198 101.191 122.926 101.274C122.079 101.534 121.419 101.451 121.419 101.451C121.367 101.436 121.316 101.459 121.304 101.503C121.293 101.546 121.325 101.593 121.377 101.607C121.377 101.607 122.113 101.916 123.128 101.765C123.468 101.714 123.837 101.606 124.196 101.408C124.481 101.252 124.755 101.034 125.011 100.755C125.306 100.433 125.566 100.028 125.797 99.5232C125.824 99.4784 125.801 99.4183 125.746 99.3896C125.69 99.3612 125.623 99.3745 125.595 99.4201Z" fill="#3F4963"/>
<path fill-rule="evenodd" clip-rule="evenodd" d="M152.938 99.4201C153.208 99.7612 153.49 100.028 153.764 100.261C154.096 100.543 154.429 100.74 154.739 100.904C155.049 101.067 155.335 101.191 155.607 101.274C156.454 101.534 157.114 101.451 157.114 101.451C157.166 101.436 157.217 101.459 157.229 101.503C157.24 101.546 157.208 101.593 157.156 101.607C157.156 101.607 156.42 101.916 155.405 101.765C155.066 101.714 154.696 101.606 154.337 101.408C154.052 101.252 153.778 101.034 153.522 100.755C153.227 100.433 152.967 100.028 152.737 99.5232C152.709 99.4784 152.732 99.4183 152.787 99.3896C152.843 99.3612 152.911 99.3745 152.938 99.4201Z" fill="#3F4963"/>
<path fill-rule="evenodd" clip-rule="evenodd" d="M106.244 166.338L106.269 166.339H106.277C106.31 166.337 106.448 166.32 106.508 166.161C106.516 166.141 106.532 166.1 106.553 166.043C106.745 165.54 106.876 165.018 106.945 164.487C107.014 163.954 107.019 163.413 106.962 162.875C106.962 162.875 106.962 162.875 106.962 162.875C106.609 159.676 106.225 156.419 105.805 153.269C105.632 151.969 105.453 150.688 105.267 149.437C105.138 148.572 105.005 147.721 104.87 146.888C104.695 145.794 104.517 144.731 104.342 143.708C104.047 141.995 103.759 140.395 103.492 138.947C102.609 134.156 101.966 131.032 101.966 131.032C101.942 130.897 101.812 130.807 101.677 130.831C101.542 130.855 101.452 130.985 101.476 131.12C101.476 131.12 101.96 134.268 102.671 139.083C102.886 140.538 103.123 142.145 103.378 143.862C103.53 144.888 103.689 145.952 103.855 147.047C103.981 147.879 104.109 148.73 104.244 149.593C104.439 150.84 104.643 152.116 104.851 153.41C105.351 156.542 105.872 159.775 106.333 162.955C106.405 163.443 106.42 163.937 106.377 164.426C106.334 164.916 106.236 165.403 106.079 165.874C106.079 165.874 106.079 165.874 106.079 165.875C106.064 165.919 106.061 165.969 106.051 165.987L106.046 165.993C106.044 165.994 106.042 165.995 106.04 165.994C105.93 165.958 105.956 166.015 106.021 166.092C106.022 166.22 106.12 166.325 106.244 166.338Z" fill="#C24353"/>
<path fill-rule="evenodd" clip-rule="evenodd" d="M169.621 165.793L169.648 165.794L169.676 165.785C169.803 165.747 170.302 165.562 170.137 165.098L170.09 164.968C169.77 164.07 169.666 163.11 169.785 162.164C171.733 146.911 174.792 130.564 174.792 130.564C174.843 130.282 174.655 130.011 174.372 129.961C174.09 129.91 173.819 130.098 173.769 130.38C173.769 130.38 170.705 146.755 168.754 162.032V162.033C168.614 163.14 168.736 164.265 169.111 165.316C169.12 165.341 169.13 165.366 169.141 165.389C169.191 165.612 169.385 165.781 169.621 165.793Z" fill="#C24353"/>
<path fill-rule="evenodd" clip-rule="evenodd" d="M178.021 112.378C178.021 112.378 176.928 118.896 174.702 127.081C173.471 131.606 171.894 136.642 169.96 141.364C169.264 143.023 168.427 144.615 167.458 146.122C166.489 147.63 165.39 149.053 164.171 150.375L164.169 150.377C162.411 152.3 160.031 154.683 157.146 157.122C154.838 159.074 152.206 161.063 149.31 162.879C149.013 163.063 148.709 163.235 148.4 163.394C146.851 164.19 145.078 164.357 143.337 164.344C139.421 164.314 136.208 164.247 133.292 164.271C131.176 164.289 128.992 164.142 127.195 163.025C127.053 162.937 126.914 162.846 126.776 162.753C123.672 160.618 118.932 156.965 114.279 151.83C110.874 148.073 107.515 143.522 104.881 138.188C104.877 138.179 103.64 135.657 101.96 129.466C101.043 126.085 99.9961 121.619 98.9464 115.881C98.9 115.624 98.653 115.453 98.3961 115.499C98.1391 115.546 97.968 115.793 98.0144 116.049C99.0462 121.826 100.081 126.323 100.99 129.727C102.68 136.066 103.94 138.645 103.941 138.648L103.942 138.65C106.604 144.089 110.005 148.735 113.459 152.571C118.17 157.802 122.978 161.524 126.125 163.702C126.126 163.702 126.127 163.703 126.128 163.704C126.477 163.941 126.835 164.161 127.201 164.364C128.816 165.256 130.694 165.451 132.538 165.475C136.005 165.52 139.496 165.598 143.928 165.523C145.489 165.496 147.067 165.31 148.478 164.642C148.971 164.409 149.452 164.147 149.918 163.857C149.919 163.856 149.92 163.856 149.921 163.855C152.862 162.003 155.535 159.976 157.878 157.985C160.798 155.502 163.206 153.076 164.984 151.12C166.241 149.75 167.376 148.273 168.374 146.709C169.371 145.145 170.233 143.494 170.947 141.775C170.947 141.774 170.948 141.772 170.949 141.771C172.881 136.999 174.455 131.915 175.679 127.345C177.886 119.098 178.955 112.532 178.955 112.532C178.998 112.275 178.823 112.031 178.565 111.988C178.308 111.945 178.064 112.12 178.021 112.378Z" fill="#C24353"/>
<ellipse cx="120.978" cy="93.7673" rx="0.000188387" ry="0.00034408" fill="#C4C4C4"/>
<circle opacity="0.8" cx="120.978" cy="93.5922" r="0.594707" fill="white"/>
<circle opacity="0.8" r="0.594707" transform="matrix(-1 0 0 1 160.784 93.5923)" fill="white"/>
<path d="M142.942 242.163L147.417 242.104L147.478 246.793L143.003 246.852L142.942 242.163Z" fill="white"/>
<path d="M142.5 208.193L146.975 208.134L147.042 213.281L142.567 213.339L142.5 208.193Z" fill="white"/>
<path fill-rule="evenodd" clip-rule="evenodd" d="M145.199 239.325C146.779 239.304 148.287 238.659 149.39 237.531C150.493 236.402 151.101 234.884 151.08 233.309L155.052 233.257C155.086 235.882 154.073 238.413 152.235 240.293C150.397 242.174 147.884 243.249 145.251 243.284C142.617 243.318 140.078 242.308 138.192 240.476C136.305 238.644 135.226 236.14 135.192 233.515L139.164 233.464C139.185 235.039 139.832 236.541 140.964 237.64C142.096 238.739 143.619 239.345 145.199 239.325Z" fill="white"/>
<path fill-rule="evenodd" clip-rule="evenodd" d="M144.933 227.154C148.039 227.113 150.524 224.571 150.484 221.475C150.443 218.38 147.893 215.903 144.787 215.943C141.681 215.984 139.196 218.526 139.236 221.622C139.277 224.717 141.827 227.194 144.933 227.154ZM144.988 231.425C150.461 231.353 154.839 226.874 154.768 221.42C154.697 215.965 150.204 211.601 144.732 211.673C139.259 211.744 134.881 216.223 134.952 221.677C135.023 227.132 139.516 231.496 144.988 231.425Z" fill="white"/>
<ellipse opacity="0.6" cx="161.379" cy="116.73" rx="9.28879" ry="5.7667" fill="url(#paint31_linear_3129_7087)"/>
<ellipse opacity="0.6" cx="116.424" cy="116.47" rx="9.28879" ry="5.7667" fill="url(#paint32_linear_3129_7087)"/>
<path opacity="0.4" d="M154.407 174.161C149.211 165.532 159.531 159.959 164.612 168.657C172.048 181.389 169.279 198.857 154.407 174.161Z" fill="url(#paint33_linear_3129_7087)"/>
<path d="M142.2 111.972C141.689 111.956 141.201 110.728 141.349 106.012C141.497 101.295 141.436 97.9969 141.946 98.0129C142.457 98.029 142.75 101.866 142.602 106.582C142.453 111.298 142.71 111.988 142.2 111.972Z" fill="url(#paint34_linear_3129_7087)"/>
<path fill-rule="evenodd" clip-rule="evenodd" d="M143.362 119.376C143.362 119.376 141.211 120.504 138.545 120.28C137.69 120.209 136.755 120.026 135.798 119.646C135.251 119.429 134.704 119.135 134.15 118.783L134.149 118.782C133.844 118.574 133.501 118.429 133.14 118.355C132.769 118.278 132.384 118.263 132.004 118.334C132.001 118.334 131.997 118.335 131.994 118.336C131.731 118.373 131.446 118.439 131.144 118.545C130.883 118.637 130.611 118.753 130.33 118.907C130.271 118.945 130.191 118.931 130.15 118.877C130.109 118.821 130.124 118.746 130.183 118.708C130.451 118.504 130.716 118.339 130.975 118.204C131.289 118.04 131.592 117.928 131.877 117.847C132.319 117.711 132.791 117.671 133.253 117.719C133.724 117.769 134.178 117.924 134.592 118.158C135.112 118.469 135.634 118.708 136.136 118.915C137.015 119.277 137.852 119.509 138.634 119.631C141.138 120.023 143.261 119.153 143.261 119.153C143.326 119.128 143.403 119.156 143.431 119.217C143.458 119.279 143.428 119.35 143.362 119.376Z" fill="#C24353"/>
<path fill-rule="evenodd" clip-rule="evenodd" d="M132.988 82.4176C132.988 82.4176 132.83 82.8358 132.489 83.4683C132.394 83.6418 132.285 83.8303 132.168 84.0356C132.1 84.1554 132.028 84.2813 131.956 84.4126C131.855 84.5944 131.753 84.7859 131.639 84.9833C131.481 85.2556 131.318 85.5393 131.117 85.8247C131.053 85.8973 131.061 86.0078 131.134 86.0714C131.206 86.1346 131.317 86.1276 131.38 86.0551C131.703 85.7546 131.989 85.4591 132.227 85.1528C132.407 84.9214 132.562 84.6904 132.686 84.4635C132.832 84.1971 132.936 83.938 133.019 83.705C133.282 82.9789 133.329 82.4957 133.329 82.4957C133.35 82.4016 133.292 82.308 133.198 82.2866C133.104 82.2651 133.01 82.3239 132.988 82.4176Z" fill="#1B2C44"/>
<path fill-rule="evenodd" clip-rule="evenodd" d="M143.246 82.4176C143.246 82.4176 143.404 82.8358 143.746 83.4683C143.84 83.6418 143.949 83.8303 144.066 84.0356C144.135 84.1554 144.206 84.2813 144.279 84.4126C144.38 84.5944 144.482 84.7859 144.596 84.9833C144.753 85.2556 144.917 85.5393 145.117 85.8247C145.181 85.8973 145.173 86.0078 145.101 86.0714C145.028 86.1346 144.918 86.1276 144.854 86.0551C144.531 85.7546 144.245 85.4591 144.007 85.1528C143.827 84.9214 143.673 84.6904 143.548 84.4635C143.402 84.1971 143.299 83.938 143.215 83.705C142.953 82.9789 142.905 82.4957 142.905 82.4957C142.884 82.4016 142.943 82.308 143.037 82.2866C143.13 82.2651 143.225 82.3239 143.246 82.4176Z" fill="#1B2C44"/>
<defs>
<linearGradient id="paint0_linear_3129_7087" x1="180.231" y1="34.6452" x2="160.086" y2="25.2076" gradientUnits="userSpaceOnUse">
<stop stop-color="#C78BB3"/>
<stop offset="1" stop-color="#C78BB3" stop-opacity="0"/>
</linearGradient>
<linearGradient id="paint1_linear_3129_7087" x1="99.0999" y1="78.1545" x2="246.821" y2="88.0761" gradientUnits="userSpaceOnUse">
<stop stop-color="#4B263E"/>
<stop offset="1" stop-color="#623150"/>
</linearGradient>
<linearGradient id="paint2_linear_3129_7087" x1="709.082" y1="117.586" x2="425.812" y2="-200.261" gradientUnits="userSpaceOnUse">
<stop stop-color="#A10BD2"/>
<stop offset="1" stop-color="#16182B"/>
</linearGradient>
<linearGradient id="paint3_linear_3129_7087" x1="709.082" y1="117.586" x2="425.812" y2="-200.261" gradientUnits="userSpaceOnUse">
<stop stop-color="#A10BD2"/>
<stop offset="1" stop-color="#16182B"/>
</linearGradient>
<linearGradient id="paint4_linear_3129_7087" x1="228.196" y1="-18.1993" x2="340.134" y2="154.029" gradientUnits="userSpaceOnUse">
<stop stop-color="#9B55FF"/>
<stop offset="1" stop-color="#8C3CFF" stop-opacity="0.17"/>
</linearGradient>
<linearGradient id="paint5_linear_3129_7087" x1="143.882" y1="63.3021" x2="54.1132" y2="229.922" gradientUnits="userSpaceOnUse">
<stop stop-color="#FFCBA9"/>
<stop offset="1" stop-color="#FF998F"/>
</linearGradient>
<linearGradient id="paint6_linear_3129_7087" x1="159.482" y1="55.1029" x2="54.7843" y2="231.002" gradientUnits="userSpaceOnUse">
<stop stop-color="#FFCBA9"/>
<stop offset="1" stop-color="#FF998F"/>
</linearGradient>
<linearGradient id="paint7_linear_3129_7087" x1="140.122" y1="-3.74992" x2="195.348" y2="374.361" gradientUnits="userSpaceOnUse">
<stop stop-color="#FFDECD"/>
<stop offset="1" stop-color="#FFDECD" stop-opacity="0"/>
</linearGradient>
<linearGradient id="paint8_linear_3129_7087" x1="122.453" y1="-20.8368" x2="94.4468" y2="286.57" gradientUnits="userSpaceOnUse">
<stop stop-color="#E87C72"/>
<stop offset="1" stop-color="#DC6459" stop-opacity="0.46"/>
</linearGradient>
<linearGradient id="paint9_linear_3129_7087" x1="195.349" y1="90.0637" x2="120.782" y2="190.935" gradientUnits="userSpaceOnUse">
<stop stop-color="#765770"/>
<stop offset="1" stop-color="#484362"/>
</linearGradient>
<linearGradient id="paint10_linear_3129_7087" x1="195.349" y1="90.0637" x2="120.782" y2="190.935" gradientUnits="userSpaceOnUse">
<stop stop-color="#765770"/>
<stop offset="1" stop-color="#484362"/>
</linearGradient>
<linearGradient id="paint11_linear_3129_7087" x1="181.644" y1="132.403" x2="154.803" y2="173.373" gradientUnits="userSpaceOnUse">
<stop stop-color="#C78195"/>
<stop offset="1" stop-color="#9C6877" stop-opacity="0"/>
</linearGradient>
<linearGradient id="paint12_linear_3129_7087" x1="116.12" y1="85.8719" x2="116.12" y2="172.523" gradientUnits="userSpaceOnUse">
<stop stop-color="#B4C0EB"/>
<stop offset="1" stop-color="#A6B0D3" stop-opacity="0"/>
</linearGradient>
<linearGradient id="paint13_linear_3129_7087" x1="125.797" y1="83.9479" x2="137.038" y2="96.4923" gradientUnits="userSpaceOnUse">
<stop stop-color="white"/>
<stop offset="1" stop-color="white" stop-opacity="0"/>
<stop offset="1" stop-color="white" stop-opacity="0.277213"/>
</linearGradient>
<linearGradient id="paint14_linear_3129_7087" x1="121.769" y1="82.4634" x2="138.055" y2="99.4343" gradientUnits="userSpaceOnUse">
<stop stop-color="white"/>
<stop offset="1" stop-color="white" stop-opacity="0"/>
<stop offset="1" stop-color="white" stop-opacity="0.277213"/>
</linearGradient>
<linearGradient id="paint15_linear_3129_7087" x1="160.693" y1="85.8719" x2="160.693" y2="172.523" gradientUnits="userSpaceOnUse">
<stop stop-color="#B4C0EB"/>
<stop offset="1" stop-color="#A6B0D3" stop-opacity="0"/>
</linearGradient>
<linearGradient id="paint16_linear_3129_7087" x1="168.247" y1="83.4523" x2="182.453" y2="96.0425" gradientUnits="userSpaceOnUse">
<stop stop-color="white"/>
<stop offset="1" stop-color="white" stop-opacity="0"/>
<stop offset="1" stop-color="white" stop-opacity="0.277213"/>
</linearGradient>
<linearGradient id="paint17_linear_3129_7087" x1="168.246" y1="83.4525" x2="182.452" y2="96.042" gradientUnits="userSpaceOnUse">
<stop stop-color="white"/>
<stop offset="1" stop-color="white" stop-opacity="0"/>
<stop offset="1" stop-color="white" stop-opacity="0.277213"/>
</linearGradient>
<linearGradient id="paint18_linear_3129_7087" x1="283.124" y1="153.548" x2="26.7058" y2="118.549" gradientUnits="userSpaceOnUse">
<stop stop-color="#9526B8"/>
<stop offset="1" stop-color="#210C42"/>
</linearGradient>
<linearGradient id="paint19_linear_3129_7087" x1="283.124" y1="153.548" x2="26.7058" y2="118.549" gradientUnits="userSpaceOnUse">
<stop stop-color="#9526B8"/>
<stop offset="1" stop-color="#210C42"/>
</linearGradient>
<linearGradient id="paint20_linear_3129_7087" x1="283.124" y1="153.548" x2="26.7058" y2="118.549" gradientUnits="userSpaceOnUse">
<stop stop-color="#9526B8"/>
<stop offset="1" stop-color="#210C42"/>
</linearGradient>
<linearGradient id="paint21_linear_3129_7087" x1="283.124" y1="153.548" x2="26.7058" y2="118.549" gradientUnits="userSpaceOnUse">
<stop stop-color="#9526B8"/>
<stop offset="1" stop-color="#210C42"/>
</linearGradient>
<linearGradient id="paint22_linear_3129_7087" x1="182.196" y1="124.212" x2="154.571" y2="191.197" gradientUnits="userSpaceOnUse">
<stop stop-color="#0E112D"/>
<stop offset="1" stop-color="#0E112D" stop-opacity="0"/>
</linearGradient>
<linearGradient id="paint23_linear_3129_7087" x1="198.252" y1="135.305" x2="196.8" y2="198.355" gradientUnits="userSpaceOnUse">
<stop stop-color="#0E112D"/>
<stop offset="1" stop-color="#0E112D" stop-opacity="0"/>
</linearGradient>
<linearGradient id="paint24_linear_3129_7087" x1="92.9536" y1="153.258" x2="67.6378" y2="186.912" gradientUnits="userSpaceOnUse">
<stop stop-color="#0E112D"/>
<stop offset="1" stop-color="#0E112D" stop-opacity="0"/>
</linearGradient>
<linearGradient id="paint25_linear_3129_7087" x1="79.2507" y1="149.708" x2="53.935" y2="183.362" gradientUnits="userSpaceOnUse">
<stop stop-color="#0E112D"/>
<stop offset="1" stop-color="#0E112D" stop-opacity="0"/>
</linearGradient>
<linearGradient id="paint26_linear_3129_7087" x1="6.08651" y1="1.23696" x2="-2.72262" y2="0.887686" gradientUnits="userSpaceOnUse">
<stop stop-color="#FFE0D5"/>
<stop offset="1" stop-color="#FFE0D5" stop-opacity="0"/>
</linearGradient>
<linearGradient id="paint27_linear_3129_7087" x1="167.288" y1="72.3259" x2="169.566" y2="91.4454" gradientUnits="userSpaceOnUse">
<stop stop-color="#3261A8"/>
<stop offset="1" stop-color="#273F63" stop-opacity="0"/>
</linearGradient>
<linearGradient id="paint28_linear_3129_7087" x1="170.67" y1="36.1684" x2="124.568" y2="69.2842" gradientUnits="userSpaceOnUse">
<stop stop-color="#3261A8"/>
<stop offset="1" stop-color="#273F63" stop-opacity="0"/>
</linearGradient>
<linearGradient id="paint29_linear_3129_7087" x1="132.885" y1="70.3459" x2="124.49" y2="89.8004" gradientUnits="userSpaceOnUse">
<stop stop-color="#3261A8"/>
<stop offset="1" stop-color="#273F63" stop-opacity="0"/>
</linearGradient>
<linearGradient id="paint30_linear_3129_7087" x1="123.71" y1="69.4333" x2="115.556" y2="87.1772" gradientUnits="userSpaceOnUse">
<stop stop-color="#3261A8"/>
<stop offset="1" stop-color="#273F63" stop-opacity="0"/>
</linearGradient>
<linearGradient id="paint31_linear_3129_7087" x1="176.064" y1="115.961" x2="141.86" y2="117.251" gradientUnits="userSpaceOnUse">
<stop stop-color="#FFE5D9"/>
<stop offset="1" stop-color="#FFDFD0" stop-opacity="0"/>
</linearGradient>
<linearGradient id="paint32_linear_3129_7087" x1="146.22" y1="109.553" x2="97.0024" y2="117.221" gradientUnits="userSpaceOnUse">
<stop stop-color="#FFE5D9"/>
<stop offset="1" stop-color="#FFDFD0" stop-opacity="0"/>
</linearGradient>
<linearGradient id="paint33_linear_3129_7087" x1="147.522" y1="151.95" x2="178.496" y2="195.274" gradientUnits="userSpaceOnUse">
<stop stop-color="#FFE5D9"/>
<stop offset="1" stop-color="#FFDFD0" stop-opacity="0"/>
</linearGradient>
<linearGradient id="paint34_linear_3129_7087" x1="145.138" y1="121.616" x2="137.223" y2="89.8406" gradientUnits="userSpaceOnUse">
<stop stop-color="#FFE5D9"/>
<stop offset="1" stop-color="#FFDFD0" stop-opacity="0"/>
</linearGradient>
</defs>
</svg>
