<svg width="68" height="68" viewBox="0 0 68 68" fill="none" xmlns="http://www.w3.org/2000/svg">
<g clip-path="url(#clip0_3291_6187)">
<rect width="68" height="68" fill="#13161E"/>
<ellipse rx="10.0105" ry="10.2155" transform="matrix(0.866025 0.5 -2.20305e-08 1 23.0042 49.7032)" fill="#704AB7"/>
<ellipse rx="10.0105" ry="10.2155" transform="matrix(0.866025 0.5 -2.20305e-08 1 23.0042 14.3477)" fill="#704AB7"/>
<ellipse rx="10.0105" ry="10.2155" transform="matrix(0.866025 0.5 -2.20305e-08 1 47.9734 35.5401)" fill="#704AB7"/>
<ellipse rx="10.0105" ry="10.2155" transform="matrix(0.866025 0.5 -2.20305e-08 1 21.8805 14.6988)" fill="#4B146B"/>
<ellipse rx="10.0105" ry="10.2155" transform="matrix(0.866025 0.5 -2.20305e-08 1 21.8805 50.0543)" fill="#4B146B"/>
<path d="M29.4673 19.079C29.4673 24.0546 26.05 26.0716 21.8805 23.6643C17.7111 21.2571 14.2938 15.2941 14.2938 10.3186C14.2938 5.34301 17.7111 3.32601 21.8805 5.73325C26.05 8.1405 29.4673 14.1035 29.4673 19.079Z" stroke="#704AB7" stroke-width="2.5"/>
<ellipse rx="3.76789" ry="3.84508" transform="matrix(0.866025 0.5 -2.20305e-08 1 21.8805 14.6988)" fill="#704AB7"/>
<ellipse rx="3.76789" ry="3.84508" transform="matrix(0.866025 0.5 -2.20305e-08 1 21.8805 50.0542)" fill="#704AB7"/>
<ellipse rx="10.0105" ry="10.2155" transform="matrix(0.866025 0.5 -2.20305e-08 1 46.8496 35.8912)" fill="#4B146B"/>
<path d="M29.4673 54.4345C29.4673 59.41 26.05 61.427 21.8805 59.0198C17.7111 56.6125 14.2938 50.6496 14.2938 45.674C14.2938 40.6985 17.7111 38.6815 21.8805 41.0887C26.05 43.496 29.4673 49.4589 29.4673 54.4345Z" stroke="#704AB7" stroke-width="2.5"/>
<path d="M54.4364 40.2714C54.4364 45.2469 51.0191 47.2639 46.8496 44.8567C42.6802 42.4495 39.2629 36.4865 39.2629 31.5109C39.2629 26.5354 42.6802 24.5184 46.8496 26.9256C51.0191 29.3329 54.4364 35.2959 54.4364 40.2714Z" stroke="#704AB7" stroke-width="2.5"/>
<path d="M21.8805 23.4844L21.8805 39.7723L39.6568 50.0355C42.5266 51.6923 44.853 50.3492 44.853 47.0355L44.853 42.6198" stroke="#704AB7" stroke-width="2.5"/>
<ellipse rx="3.76789" ry="3.84508" transform="matrix(0.866025 0.5 -2.20305e-08 1 46.8496 35.961)" fill="#704AB7"/>
</g>
<defs>
<clipPath id="clip0_3291_6187">
<rect width="68" height="68" fill="white"/>
</clipPath>
</defs>
</svg>
