<svg width="74" height="88" viewBox="0 0 74 88" fill="none" xmlns="http://www.w3.org/2000/svg">
<path d="M75.0023 73.9321C89.1634 58.6127 87.2087 33.775 70.6362 18.4556C54.0638 3.13617 29.1493 3.13617 14.9882 18.4556C0.827031 33.775 2.78179 58.6127 19.3542 73.9321C35.9267 89.2515 60.8412 89.2515 75.0023 73.9321Z" fill="#291D40"/>
<path d="M77.5487 71.593C91.6663 56.3206 89.7176 31.5592 73.196 16.2869C56.6745 1.0145 31.8365 1.0145 17.7189 16.2869C3.60122 31.5592 5.54999 56.3206 22.0715 71.593C38.5931 86.8654 63.4311 86.8654 77.5487 71.593Z" fill="url(#paint0_linear_3307_6479)"/>
<path d="M73.1941 16.2891C89.7145 31.5604 91.6631 56.32 77.5465 71.5912C63.4299 86.8625 38.5938 86.8625 22.0734 71.5912C5.55307 56.32 3.60445 31.5604 17.721 16.2891C31.8376 1.01788 56.6738 1.01788 73.1941 16.2891Z" stroke="#F8E4FF" stroke-width="0.247432"/>
<path d="M83.128 51.6379C85.8769 32.4318 72.2166 13.419 52.6168 9.17165C33.017 4.9243 14.8998 17.0508 12.1508 36.2569C9.40191 55.4631 23.0622 74.4759 42.662 78.7232C62.2618 82.9706 80.379 70.8441 83.128 51.6379Z" fill="url(#paint1_linear_3307_6479)"/>
<path d="M38.9162 34.944H44.0571L43.7276 30.7571M36.4474 41.1139H44.5427L44.8222 44.6658M44.0273 34.9089L45.0131 35.7476C44.4181 36.351 44.0898 37.1511 44.1589 38.029C44.2279 38.9068 44.6822 39.7069 45.3722 40.3103L44.5184 41.149" stroke="#F7CE69" stroke-width="0.371148"/>
<path d="M54.4529 34.944H49.312L48.9825 30.7571M57.8929 41.1139H49.7976L50.0772 44.6658M49.3363 34.9089L48.4825 35.7476C49.1725 36.351 49.6268 37.1511 49.6958 38.029C49.7649 38.9068 49.4366 39.7069 48.8416 40.3103L49.8274 41.149" stroke="#F7CE69" stroke-width="0.371148"/>
<path d="M44.7206 30.8542L44.9932 34.3179C45.9097 35.0899 47.2529 35.0899 48.0479 34.3179L47.7753 30.8542" stroke="#F7CE69" stroke-width="0.371148"/>
<path d="M45.8961 45.791L45.6235 42.3274C46.4185 41.5554 47.7617 41.5554 48.6782 42.3274L48.9508 45.791" stroke="#F7CE69" stroke-width="0.371148"/>
<path d="M37.9659 41.8435H43.7532L43.962 44.4972" stroke="#F7CE69" stroke-width="0.371148"/>
<path d="M56.489 41.8435H50.7018L50.9107 44.4972" stroke="#F7CE69" stroke-width="0.371148"/>
<path d="M45.4526 31.4099L45.6302 33.666C46.1399 34.1689 46.8777 34.1689 47.3083 33.666L47.1307 31.4099" stroke="#F7CE69" stroke-width="0.371148"/>
<path d="M46.5406 45.2356L46.3631 42.9795C46.7936 42.4767 47.5315 42.4767 48.0411 42.9795L48.2187 45.2356" stroke="#F7CE69" stroke-width="0.371148"/>
<path d="M39.5051 36.02H43.295C42.8545 36.5514 42.6162 37.256 42.677 38.029C42.7379 38.802 43.0871 39.5066 43.6112 40.038H38.8593" stroke="#F7CE69" stroke-width="0.371148"/>
<path d="M54.0335 36.02H50.2436C50.7677 36.5514 51.1169 37.256 51.1778 38.029C51.2386 38.802 51.0003 39.5066 50.5598 40.038H55.3117" stroke="#F7CE69" stroke-width="0.371148"/>
<path d="M37.5582 34.1043H43.1441L42.9775 31.9866" stroke="#F7CE69" stroke-width="0.371148"/>
<path d="M55.6788 34.1043H50.0928L49.9261 31.9866" stroke="#F7CE69" stroke-width="0.371148"/>
<path d="M83.2867 51.6745C86.0459 32.3965 72.3344 13.3126 52.6613 9.04933C32.9882 4.78609 14.8032 16.958 12.044 36.2359C9.28476 55.5139 22.9962 74.5979 42.6693 78.8611C62.3425 83.1244 80.5275 70.9525 83.2867 51.6745Z" fill="url(#paint2_linear_3307_6479)"/>
<path d="M71.0205 18.6402C86.1361 32.6129 87.919 55.267 75.0028 69.2397C62.0866 83.2123 39.3624 83.2123 24.2469 69.2397C9.13132 55.267 7.34841 32.6129 20.2646 18.6402C33.1808 4.66752 55.905 4.66753 71.0205 18.6402Z" stroke="url(#paint3_linear_3307_6479)" stroke-width="1.14828"/>
<path d="M71.27 18.3704C86.5467 32.4921 88.3486 55.3878 75.2947 69.5095C62.2407 83.6312 39.2742 83.6312 23.9974 69.5095C8.7207 55.3878 6.91877 32.4921 19.9727 18.3704C33.0267 4.24869 55.9932 4.2487 71.27 18.3704Z" stroke="url(#paint4_linear_3307_6479)" stroke-width="0.382761"/>
<path fill-rule="evenodd" clip-rule="evenodd" d="M44.8437 29.7297H48.1505L48.3692 32.5091C51.657 33.2679 54.2859 36.1499 54.5566 39.5895C54.8728 43.6077 51.8509 46.8651 47.8071 46.8651C43.7632 46.8651 40.2287 43.6077 39.9125 39.5895C39.6396 36.1226 41.8516 33.2221 45.061 32.4914L44.8437 29.7297ZM51.3902 39.5895C51.5697 41.8701 49.8546 43.7189 47.5595 43.7189C45.2643 43.7189 43.2582 41.8701 43.0787 39.5895C42.8993 37.3089 44.6143 35.4601 46.9095 35.4601C49.2046 35.4601 51.2108 37.3089 51.3902 39.5895ZM51.3577 51.4074C50.5965 52.2278 49.5129 52.6887 48.3452 52.6887C47.1776 52.6887 46.0214 52.2278 45.1312 51.4074C44.2409 50.5869 43.6895 49.4741 43.5982 48.3139H40.663C40.8152 50.2476 41.7343 52.1023 43.218 53.4697C44.2631 54.4328 45.528 55.0986 46.8646 55.4081L47.085 58.2077H50.3918L50.1729 55.4271C51.4932 55.1263 52.6833 54.4529 53.5954 53.4697C54.8639 52.1023 55.491 50.2476 55.3388 48.3139H52.4037C52.495 49.4741 52.1188 50.5869 51.3577 51.4074Z" fill="#C79FD5"/>
<path d="M41.4866 47.6088L40.6635 48.314L40.7841 48.4553L41.9184 48.4453L41.4866 47.6088Z" fill="#C79FD4"/>
<path d="M45.6692 29.0284L44.8449 29.7302L44.9376 29.9055C45.0548 29.8897 45.2911 29.858 45.2983 29.8574C45.3055 29.8568 46.088 29.8586 46.1264 29.8017L45.6692 29.0284Z" fill="#C79FD4"/>
<path d="M53.2254 47.6087L52.405 48.3136L52.7416 48.5531L53.8077 48.4239L53.2254 47.6087Z" fill="#C79FD4"/>
<path d="M51.2133 57.5043L50.3936 58.2065L50.1711 58.0806L50.1946 57.1256L51.2133 57.5043Z" fill="#C79FD4"/>
<path fill-rule="evenodd" clip-rule="evenodd" d="M45.6668 29.0266H48.9736L49.1923 31.8059C52.4802 32.5647 55.109 35.4468 55.3797 38.8864C55.6959 42.9046 52.674 46.162 48.6302 46.162C44.5864 46.162 41.0518 42.9046 40.7356 38.8864C40.4627 35.4195 42.6748 32.5189 45.8841 31.7882L45.6668 29.0266ZM52.2134 38.8864C52.3929 41.167 50.6777 43.0157 48.3826 43.0157C46.0874 43.0157 44.0814 41.167 43.9019 38.8864C43.7224 36.6057 45.4375 34.7569 47.7326 34.7569C50.0277 34.7569 52.0339 36.6057 52.2134 38.8864ZM52.1808 50.7042C51.4197 51.5247 50.336 51.9855 49.1684 51.9855C48.0007 51.9855 46.8446 51.5247 45.9543 50.7042C45.0641 49.8838 44.5126 48.771 44.4213 47.6107H41.4861C41.6383 49.5445 42.5574 51.3991 44.0411 52.7666C45.0862 53.7296 46.3511 54.3955 47.6877 54.705L47.9081 57.5046H51.2149L50.996 54.724C52.3163 54.4232 53.5064 53.7498 54.4186 52.7666C55.687 51.3991 56.3141 49.5445 56.162 47.6107H53.2268C53.3181 48.771 52.9419 49.8838 52.1808 50.7042Z" fill="#F6DEFF"/>
<path d="M78.2039 47.0932L65.3087 47.0332C64.567 54.6894 58.7428 60.6485 50.9769 61.5126L51.3305 66.006C60.7694 65.1728 68.0242 58.4355 69.5819 49.4446L78.1332 49.4747M77.7268 41.031L64.8431 40.971C62.9164 33.2737 56.1243 27.2775 48.1876 26.4219L47.834 21.9292C48.7011 22.0036 49.558 22.1265 50.4016 22.2951C58.9077 23.9955 66.0611 30.3473 68.7468 38.5721L77.4859 38.6322" stroke="url(#paint5_linear_3307_6479)" stroke-width="0.742295"/>
<path fill-rule="evenodd" clip-rule="evenodd" d="M72.4844 38.5723C72.4522 38.1636 72.7585 37.8323 73.1684 37.8323H74.3412C74.7512 37.8323 75.1096 38.1636 75.1417 38.5723C75.1739 38.981 74.8676 39.3123 74.4577 39.3123H73.2849C72.875 39.3123 72.5166 38.981 72.4844 38.5723Z" fill="url(#paint6_linear_3307_6479)"/>
<path d="M43.9235 21.9316C32.668 22.9251 24.5259 32.4121 25.4354 43.9688C26.3449 55.5255 35.9803 65.0126 47.3922 66.006L47.0386 61.5127C38.1095 60.5362 30.6356 53.0541 29.9206 43.9688C29.2056 34.8836 35.5017 27.4014 44.2771 26.425L43.9235 21.9316Z" stroke="url(#paint7_linear_3307_6479)" stroke-width="0.742295"/>
<path d="M77.7979 51.8358H74.0496C71.5419 62.8502 61.8964 70.8619 49.7435 70.8619C35.7122 70.8619 23.3425 60.1824 20.9736 46.5321H25.8419M76.9282 36.2108H72.8529C68.6415 25.1405 57.7033 17.0762 45.5104 17.0762C31.4615 17.0762 20.7635 27.7826 20.5694 41.4575H25.0387" stroke="url(#paint8_linear_3307_6479)" stroke-width="0.742295"/>
<path d="M50.0491 74.7458C32.9989 74.7458 18.0926 60.9665 16.7548 43.9689C15.4171 26.9713 28.1545 13.192 45.2047 13.192C59.5316 13.192 72.3457 22.9215 76.8666 36.1148C78.3647 40.9611 78.8267 45.9893 78.2217 50.8633L78.102 51.8278C75.656 65.0187 64.3743 74.7458 50.0491 74.7458Z" stroke="url(#paint9_linear_3307_6479)" stroke-width="0.742295"/>
<path fill-rule="evenodd" clip-rule="evenodd" d="M45.2524 13.8619C44.755 13.8619 44.2615 13.8739 43.7721 13.8976C43.3682 13.9171 42.9991 13.6053 42.9477 13.2011C42.8963 12.7969 43.182 12.4534 43.5859 12.4338C44.0989 12.409 44.616 12.3965 45.137 12.3965C45.6346 12.3965 46.1305 12.4079 46.6244 12.4306C47.0314 12.4492 47.3719 12.7921 47.385 13.1963C47.3981 13.6005 47.0788 13.9131 46.6718 13.8944C46.2006 13.8728 45.7274 13.8619 45.2524 13.8619ZM48.822 13.3284C48.8469 12.9276 49.1965 12.6484 49.6029 12.7046C50.6019 12.8429 51.5899 13.0267 52.5645 13.2537C52.9667 13.3474 53.2417 13.7425 53.1787 14.1361C53.1157 14.5298 52.7386 14.773 52.3363 14.6793C51.4072 14.4629 50.4653 14.2877 49.5128 14.1558C49.1064 14.0996 48.7971 13.7291 48.822 13.3284ZM41.3986 13.3524C41.4892 13.7528 41.2408 14.1251 40.8439 14.184C39.8697 14.3285 38.9149 14.5205 37.9816 14.7574C37.5955 14.8555 37.1777 14.6167 37.0485 14.2241C36.9193 13.8315 37.1275 13.4337 37.5136 13.3357C38.4927 13.0871 39.4942 12.8857 40.5158 12.7342C40.9128 12.6753 41.308 12.9521 41.3986 13.3524ZM54.5856 14.5319C54.6863 14.1488 55.0878 13.944 55.4823 14.0744C56.4491 14.3941 57.3994 14.7567 58.3305 15.1599C58.7138 15.3259 58.9131 15.7596 58.7756 16.1287C58.6382 16.4977 58.2161 16.6624 57.8328 16.4964C56.9451 16.112 56.0393 15.7663 55.1177 15.4616C54.7231 15.3312 54.4849 14.9149 54.5856 14.5319ZM35.5836 14.6773C35.7503 15.0583 35.5844 15.4777 35.213 15.6141C34.3046 15.9475 33.421 16.3255 32.5646 16.7457C32.2114 16.919 31.7608 16.763 31.5583 16.3973C31.3557 16.0316 31.4778 15.5947 31.831 15.4214C32.7293 14.9807 33.6562 14.5841 34.6091 14.2343C34.9805 14.098 35.4168 14.2963 35.5836 14.6773ZM60.1038 16.7751C60.2767 16.4233 60.7157 16.3001 61.0843 16.5C61.9856 16.9888 62.8647 17.5168 63.7188 18.0816C64.0697 18.3136 64.1866 18.7704 63.98 19.102C63.7734 19.4335 63.3215 19.5143 62.9707 19.2823C62.156 18.7437 61.3178 18.2402 60.4584 17.7741C60.0897 17.5742 59.931 17.1269 60.1038 16.7751ZM30.2342 17.1353C30.4705 17.4822 30.3933 17.9323 30.0617 18.1407C29.2527 18.6491 28.474 19.1979 27.728 19.7846C27.4211 20.0259 26.9554 19.9582 26.6878 19.6333C26.4202 19.3085 26.452 18.8495 26.7589 18.6082C27.541 17.9931 28.3576 17.4176 29.206 16.8845C29.5376 16.6761 29.9979 16.7884 30.2342 17.1353ZM65.1825 19.9742C65.4209 19.6657 65.8817 19.6279 66.2118 19.8898C67.0172 20.5289 67.7949 21.2026 68.5421 21.9085C68.8485 22.198 68.8796 22.6619 68.6115 22.9446C68.3434 23.2274 67.8776 23.222 67.5712 22.9325C66.8584 22.2591 66.1166 21.6165 65.3484 21.0069C65.0183 20.745 64.9441 20.2827 65.1825 19.9742ZM25.5544 20.6257C25.8507 20.9254 25.8645 21.3888 25.5852 21.6606C24.9049 22.3228 24.2601 23.0203 23.6534 23.7504C23.4043 24.0502 22.9413 24.0728 22.6192 23.8009C22.2971 23.5291 22.238 23.0657 22.4871 22.766C23.1231 22.0005 23.7991 21.2693 24.5123 20.5751C24.7915 20.3033 25.2581 20.3259 25.5544 20.6257ZM69.6474 24.0114C69.9429 23.7568 70.4095 23.8054 70.6896 24.1199C71.3721 24.8863 72.0217 25.6822 72.6357 26.5054C72.887 26.8424 72.831 27.2972 72.5107 27.5213C72.1903 27.7454 71.7269 27.6539 71.4756 27.317C70.89 26.532 70.2705 25.7728 69.6196 25.0419C69.3395 24.7273 69.3519 24.2659 69.6474 24.0114ZM21.7188 25.0087C22.0637 25.25 22.1677 25.709 21.9512 26.0338C21.4249 26.8235 20.9389 27.6429 20.4955 28.4893C20.3138 28.8362 19.8712 28.9485 19.5068 28.7402C19.1424 28.5318 18.9943 28.0817 19.176 27.7348C19.641 26.8472 20.1507 25.988 20.7025 25.16C20.919 24.8351 21.374 24.7674 21.7188 25.0087ZM73.3434 28.7457C73.6859 28.5541 74.142 28.6878 74.3622 29.0442C74.8977 29.911 75.3956 30.8021 75.8535 31.7151C76.0405 32.088 75.8989 32.5177 75.5373 32.6748C75.1756 32.832 74.7308 32.6571 74.5438 32.2842C74.1073 31.4139 73.6325 30.5644 73.122 29.7379C72.9018 29.3815 73.0009 28.9372 73.3434 28.7457ZM18.8749 30.118C19.2554 30.2913 19.4462 30.7282 19.3012 31.0939C18.9496 31.9807 18.642 32.8912 18.3809 33.8229C18.2741 34.2039 17.869 34.4023 17.4761 34.2659C17.0832 34.1296 16.8512 33.7102 16.958 33.3292C17.2319 32.3517 17.5546 31.3966 17.9234 30.4665C18.0685 30.1008 18.4944 29.9448 18.8749 30.118ZM17.1392 35.7619C17.5407 35.8599 17.8116 36.2577 17.7441 36.6503C17.5811 37.5993 17.4646 38.5662 17.397 39.5487C17.3694 39.949 17.0178 40.2258 16.6115 40.1669C16.2053 40.1081 15.8983 39.7358 15.9259 39.3354C15.9969 38.3051 16.119 37.2908 16.29 36.2952C16.3575 35.9026 16.7376 35.6638 17.1392 35.7619ZM16.5822 41.7231C16.9892 41.7427 17.329 42.0862 17.3412 42.4904C17.356 42.9802 17.3828 43.4731 17.4218 43.9688C17.4608 44.4646 17.5116 44.9575 17.5739 45.4473C17.6253 45.8515 17.3396 46.195 16.9357 46.2146C16.5318 46.2341 16.1627 45.9223 16.1112 45.5181C16.046 45.0047 15.9927 44.4882 15.9518 43.9688C15.911 43.4495 15.8829 42.933 15.8674 42.4196C15.8552 42.0154 16.1752 41.7036 16.5822 41.7231ZM17.21 47.7708C17.6069 47.7119 18.0022 47.9887 18.0927 48.389C18.315 49.3715 18.5837 50.3384 18.8961 51.2874C19.0253 51.68 18.8171 52.0778 18.431 52.1758C18.0449 52.2739 17.6271 52.0351 17.4979 51.6425C17.1701 50.6469 16.8884 49.6326 16.6552 48.6023C16.5647 48.2019 16.813 47.8297 17.21 47.7708ZM19.0034 53.6718C19.3748 53.5354 19.8111 53.7338 19.9779 54.1148C20.3856 55.0465 20.8365 55.957 21.3278 56.8438C21.5304 57.2095 21.4083 57.6464 21.0551 57.8196C20.7019 57.9929 20.2513 57.8369 20.0488 57.4712C19.5335 56.5411 19.0605 55.586 18.6327 54.6085C18.466 54.2275 18.6319 53.8081 19.0034 53.6718ZM77.315 55.2628C77.7014 55.42 77.9106 55.8497 77.7823 56.2226C77.4681 57.1356 77.1104 58.0267 76.7114 58.8935C76.5473 59.2499 76.1122 59.3836 75.7396 59.192C75.367 59.0005 75.1979 58.5562 75.362 58.1998C75.7425 57.3733 76.0835 56.5238 76.383 55.6534C76.5113 55.2805 76.9286 55.1057 77.315 55.2628ZM21.9038 59.1975C22.2354 58.9892 22.6958 59.1015 22.9321 59.4484C23.5087 60.2948 24.1237 61.1142 24.7743 61.9039C25.0419 62.2287 25.0101 62.6877 24.7032 62.929C24.3964 63.1703 23.9307 63.1026 23.6631 62.7777C22.9809 61.9497 22.336 61.0905 21.7313 60.2029C21.495 59.856 21.5723 59.4059 21.9038 59.1975ZM75.0996 60.4164C75.4552 60.6405 75.5828 61.0953 75.3845 61.4323C74.9 62.2554 74.3758 63.0514 73.8139 63.8178C73.5833 64.1323 73.1243 64.1809 72.7888 63.9263C72.4532 63.6717 72.3682 63.2104 72.5988 62.8958C73.1347 62.1649 73.6347 61.4057 74.0967 60.6207C74.2949 60.2838 74.744 60.1923 75.0996 60.4164ZM25.7937 64.1368C26.073 63.8649 26.5396 63.8875 26.8359 64.1873C27.5575 64.9174 28.3121 65.6149 29.0966 66.2771C29.4186 66.5489 29.4778 67.0123 29.2287 67.312C28.9796 67.6118 28.5166 67.6344 28.1945 67.3626C27.3721 66.6684 26.581 65.9372 25.8245 65.1717C25.5282 64.872 25.5144 64.4086 25.7937 64.1368ZM71.9208 64.9931C72.2334 65.2758 72.2754 65.7397 72.0145 66.0292C71.3783 66.7351 70.7067 67.4088 70.0019 68.0479C69.7131 68.3098 69.2463 68.272 68.9593 67.9635C68.6723 67.655 68.6738 67.1926 68.9627 66.9308C69.635 66.3212 70.2756 65.6786 70.8824 65.0052C71.1433 64.7157 71.6082 64.7103 71.9208 64.9931ZM30.5183 68.3044C30.7348 67.9795 31.1899 67.9118 31.5347 68.1531C32.373 68.7398 33.2381 69.2886 34.1272 69.797C34.4915 70.0054 34.6396 70.4555 34.4579 70.8024C34.2762 71.1493 33.8335 71.2616 33.4692 71.0532C32.5368 70.5201 31.6297 69.9446 30.7507 69.3295C30.4059 69.0882 30.3018 68.6292 30.5183 68.3044ZM67.8942 68.8357C68.153 69.1673 68.1079 69.6241 67.7936 69.8561C67.0283 70.4209 66.2324 70.9489 65.408 71.4377C65.0708 71.6376 64.6125 71.5144 64.3842 71.1626C64.156 70.8108 64.2443 70.3635 64.5815 70.1636C65.3676 69.6975 66.1266 69.194 66.8564 68.6554C67.1708 68.4234 67.6354 68.5042 67.8942 68.8357ZM35.8981 71.5404C36.0432 71.1747 36.4691 71.0187 36.8496 71.192C37.7722 71.6121 38.7153 71.9902 39.6761 72.3236C40.069 72.46 40.301 72.8794 40.1942 73.2604C40.0874 73.6414 39.6823 73.8397 39.2894 73.7034C38.2814 73.3536 37.2921 72.957 36.3244 72.5163C35.944 72.343 35.7531 71.9061 35.8981 71.5404ZM63.1578 71.809C63.3533 72.1781 63.2223 72.6118 62.8651 72.7778C61.9975 73.181 61.1043 73.5436 60.1878 73.8633C59.8138 73.9937 59.3801 73.7889 59.2191 73.4058C59.0581 73.0228 59.2308 72.6065 59.6048 72.4761C60.4785 72.1714 61.3299 71.8257 62.1571 71.4413C62.5142 71.2753 62.9622 71.44 63.1578 71.809ZM41.7304 73.7136C41.7979 73.321 42.1781 73.0822 42.5796 73.1803C43.5502 73.4172 44.5352 73.6092 45.5321 73.7537C45.9383 73.8126 46.2453 74.1849 46.2177 74.5852C46.1902 74.9856 45.8385 75.2624 45.4323 75.2035C44.3868 75.052 43.3536 74.8506 42.3354 74.602C41.9338 74.504 41.663 74.1062 41.7304 73.7136ZM57.8745 73.8016C57.9995 74.1952 57.7866 74.5903 57.3991 74.684C56.4603 74.911 55.5012 75.0948 54.524 75.2331C54.1265 75.2893 53.7329 75.0101 53.6449 74.6093C53.557 74.2086 53.8079 73.8381 54.2055 73.7819C55.1373 73.65 56.0516 73.4748 56.9466 73.2584C57.3341 73.1647 57.7495 73.4079 57.8745 73.8016ZM47.7906 74.7366C47.7784 74.3324 48.0985 74.0206 48.5054 74.0401C48.9986 74.0638 49.494 74.0758 49.9913 74.0758C50.4663 74.0758 50.9378 74.0649 51.4056 74.0433C51.8096 74.0246 52.1781 74.3372 52.2287 74.7414C52.2792 75.1456 51.9926 75.4884 51.5886 75.5071C51.0983 75.5298 50.6042 75.5412 50.1066 75.5412C49.5856 75.5412 49.0665 75.5287 48.5497 75.5038C48.1427 75.4843 47.8029 75.1408 47.7906 74.7366Z" fill="url(#paint10_linear_3307_6479)"/>
<path d="M47.6502 70.5231L47.4875 68.4565C37.293 67.662 28.3413 60.7543 24.6331 51.4318H22.3096M51.9579 70.5231L51.7926 68.4227C58.9589 67.7415 64.9728 63.9528 68.5808 58.4128L66.3215 56.7943M20.8799 38.8971H23.0213C24.4953 27.7781 33.735 19.4312 45.5872 19.4312C54.0244 19.4312 61.8034 23.6609 66.7489 30.1094L64.9864 31.6218" stroke="url(#paint11_linear_3307_6479)" stroke-width="0.742295"/>
<path fill-rule="evenodd" clip-rule="evenodd" d="M59.1932 22.5702C59.5327 22.7744 59.6505 23.2046 59.4619 23.5214C59.2733 23.8381 58.8497 23.9214 58.5099 23.7178C57.9885 23.4052 57.4562 23.1104 56.914 22.8341C56.5619 22.6547 56.3887 22.241 56.5318 21.8991C56.675 21.5572 57.0803 21.4165 57.4326 21.5954C58.0313 21.8993 58.6185 22.2246 59.1932 22.5702ZM52.9391 19.7906C53.3136 19.9036 53.5381 20.2971 53.4431 20.6584C53.3482 21.0197 52.9698 21.2118 52.5951 21.0994C52.0223 20.9275 51.4423 20.7754 50.856 20.644C50.4761 20.5589 50.2033 20.1962 50.2483 19.8219C50.2934 19.4475 50.6393 19.2033 51.0192 19.2879C51.6668 19.4319 52.3071 19.5998 52.9391 19.7906Z" fill="url(#paint12_linear_3307_6479)"/>
<path fill-rule="evenodd" clip-rule="evenodd" d="M64.8855 51.7827C65.0396 51.4462 64.8673 51.0306 64.5115 50.8598C64.1557 50.689 63.7511 50.8278 63.5965 51.1641C63.3592 51.68 63.1017 52.1866 62.8244 52.6827C62.6443 53.0047 62.7601 53.4339 63.0939 53.6479C63.4277 53.8619 63.8531 53.7798 64.0337 53.4581C64.3406 52.9113 64.6247 52.3524 64.8855 51.7827Z" fill="url(#paint13_linear_3307_6479)"/>
<path fill-rule="evenodd" clip-rule="evenodd" d="M39.1827 17.1038C39.5818 17.0121 39.9999 17.2781 40.1128 17.6855C40.2258 18.093 39.9907 18.4876 39.5918 18.58C38.9792 18.7219 38.377 18.886 37.7858 19.0716C37.3971 19.1935 36.9526 18.984 36.7877 18.5907C36.6228 18.1973 36.8001 17.7692 37.1886 17.6466C37.8408 17.4407 38.5058 17.2594 39.1827 17.1038ZM32.6145 19.601C32.9676 19.4068 33.4326 19.5605 33.6465 19.9329C33.8604 20.3053 33.742 20.7553 33.3893 20.95C32.8491 21.2482 32.3227 21.5664 31.811 21.9037C31.4756 22.1247 31.0004 22.0332 30.7415 21.688C30.4825 21.3429 30.5379 20.8748 30.8729 20.6533C31.4368 20.2802 32.0177 19.9291 32.6145 19.601Z" fill="url(#paint14_linear_3307_6479)"/>
<path d="M38.9088 50.6054L36.4289 52.6334C34.4403 50.185 33.2159 47.239 32.9295 44.2001C32.6431 41.1613 33.3095 38.186 34.8315 35.6834L37.6859 37.6289C36.5379 39.5506 36.0372 41.8256 36.2561 44.1487C36.4751 46.4718 37.4025 48.7247 38.9088 50.6054Z" stroke="url(#paint15_linear_3307_6479)" stroke-width="0.742295"/>
<path d="M57.6943 50.6054L60.4934 52.6334C62.0967 50.185 62.8573 47.239 62.6654 44.2001C62.4735 41.1613 61.3388 38.186 59.4228 35.6834L56.8747 37.6289C58.3251 39.5506 59.184 41.8256 59.3307 44.1487C59.4774 46.4718 58.9046 48.7247 57.6943 50.6054Z" stroke="url(#paint16_linear_3307_6479)" stroke-width="0.742295"/>
<defs>
<linearGradient id="paint0_linear_3307_6479" x1="-8.07795" y1="-11.8984" x2="86.1895" y2="67.3712" gradientUnits="userSpaceOnUse">
<stop stop-color="#D55FFF"/>
<stop offset="1" stop-color="#4230B1"/>
</linearGradient>
<linearGradient id="paint1_linear_3307_6479" x1="76.2093" y1="18.4791" x2="26.8712" y2="89.2179" gradientUnits="userSpaceOnUse">
<stop stop-color="#995C08"/>
<stop offset="1" stop-color="#683811"/>
</linearGradient>
<linearGradient id="paint2_linear_3307_6479" x1="-40.5275" y1="30.4971" x2="123.084" y2="39.8673" gradientUnits="userSpaceOnUse">
<stop stop-color="#2F2450"/>
<stop offset="1" stop-color="#1E1024"/>
</linearGradient>
<linearGradient id="paint3_linear_3307_6479" x1="78.1171" y1="27.032" x2="23.2577" y2="55.7337" gradientUnits="userSpaceOnUse">
<stop stop-color="#421A92"/>
<stop offset="1" stop-color="#4324A2" stop-opacity="0"/>
</linearGradient>
<linearGradient id="paint4_linear_3307_6479" x1="80.979" y1="27.2572" x2="-9.17314" y2="67.7713" gradientUnits="userSpaceOnUse">
<stop stop-color="#805EDC"/>
<stop offset="0.732417" stop-color="#805EDC" stop-opacity="0"/>
</linearGradient>
<linearGradient id="paint5_linear_3307_6479" x1="61.2265" y1="-6.02428" x2="103.089" y2="59.6086" gradientUnits="userSpaceOnUse">
<stop stop-color="#A55FFF"/>
<stop offset="1" stop-color="white"/>
</linearGradient>
<linearGradient id="paint6_linear_3307_6479" x1="67.8565" y1="35.0714" x2="79.9731" y2="39.249" gradientUnits="userSpaceOnUse">
<stop stop-color="#A55FFF"/>
<stop offset="1" stop-color="white"/>
</linearGradient>
<linearGradient id="paint7_linear_3307_6479" x1="32.6081" y1="-6.02032" x2="79.5369" y2="45.3304" gradientUnits="userSpaceOnUse">
<stop stop-color="#A55FFF"/>
<stop offset="1" stop-color="white"/>
</linearGradient>
<linearGradient id="paint8_linear_3307_6479" x1="47.1471" y1="-17.0347" x2="83.9673" y2="79.4193" gradientUnits="userSpaceOnUse">
<stop stop-color="#A55FFF"/>
<stop offset="1" stop-color="white"/>
</linearGradient>
<linearGradient id="paint9_linear_3307_6479" x1="45.5215" y1="-26.6847" x2="89.5335" y2="83.9553" gradientUnits="userSpaceOnUse">
<stop stop-color="#A55FFF"/>
<stop offset="1" stop-color="white"/>
</linearGradient>
<linearGradient id="paint10_linear_3307_6479" x1="43.777" y1="-27.6499" x2="90.1349" y2="83.0418" gradientUnits="userSpaceOnUse">
<stop stop-color="#A55FFF"/>
<stop offset="1" stop-color="white"/>
</linearGradient>
<linearGradient id="paint11_linear_3307_6479" x1="42.3705" y1="-12.9714" x2="81.5055" y2="75.1191" gradientUnits="userSpaceOnUse">
<stop stop-color="#A55FFF"/>
<stop offset="1" stop-color="white"/>
</linearGradient>
<linearGradient id="paint12_linear_3307_6479" x1="45.4107" y1="15.3778" x2="70.2097" y2="30.5861" gradientUnits="userSpaceOnUse">
<stop stop-color="#A55FFF"/>
<stop offset="1" stop-color="white"/>
</linearGradient>
<linearGradient id="paint13_linear_3307_6479" x1="63.1682" y1="59.0023" x2="65.3013" y2="46.6455" gradientUnits="userSpaceOnUse">
<stop offset="0.161458" stop-color="#A55FFF"/>
<stop offset="1" stop-color="white"/>
</linearGradient>
<linearGradient id="paint14_linear_3307_6479" x1="24.9019" y1="12.8662" x2="66.5035" y2="18.291" gradientUnits="userSpaceOnUse">
<stop stop-color="#A55FFF"/>
<stop offset="1" stop-color="white"/>
</linearGradient>
<linearGradient id="paint15_linear_3307_6479" x1="34.4427" y1="23.7541" x2="53.741" y2="39.6857" gradientUnits="userSpaceOnUse">
<stop stop-color="#A55FFF"/>
<stop offset="1" stop-color="white"/>
</linearGradient>
<linearGradient id="paint16_linear_3307_6479" x1="57.9339" y1="23.7541" x2="41.4296" y2="39.977" gradientUnits="userSpaceOnUse">
<stop stop-color="#A55FFF"/>
<stop offset="1" stop-color="white"/>
</linearGradient>
</defs>
</svg>
