<svg viewBox="0 0 227 210" fill="none" xmlns="http://www.w3.org/2000/svg">
<path d="M178.658 176.109C212.391 139.618 207.734 80.4532 168.258 43.9617C128.782 7.47024 69.4346 7.47024 35.7023 43.9617C1.9699 80.4532 6.62622 139.618 46.1025 176.109C85.5787 212.601 144.926 212.601 178.658 176.109Z" fill="#291D40"/>
<path d="M184.724 170.537C218.353 134.158 213.711 75.1754 174.356 38.796C135.001 2.41656 75.8359 2.41656 42.2071 38.796C8.57836 75.1754 13.2204 134.158 52.5754 170.538C91.9304 206.917 151.095 206.917 184.724 170.537Z" fill="url(#paint0_linear_3513_8736)"/>
<path d="M174.352 38.8013C213.704 75.178 218.345 134.156 184.719 170.533C151.093 206.91 91.932 206.91 52.5799 170.533C13.2277 134.156 8.58606 75.178 42.2124 38.8013C75.8387 2.42454 134.999 2.42454 174.352 38.8013Z" stroke="#F8E4FF" stroke-width="0.589393"/>
<path d="M198.014 123.004C204.562 77.2542 172.023 31.9649 125.335 21.8475C78.6477 11.7302 35.4918 40.616 28.9437 86.3658C22.3957 132.116 54.9351 177.405 101.623 187.522C148.31 197.64 191.466 168.754 198.014 123.004Z" fill="url(#paint1_linear_3513_8736)"/>
<path d="M92.7 83.2379H104.946L104.161 73.2644M86.8192 97.9348H106.102L106.768 106.395M104.875 83.1542L107.223 85.152C105.806 86.5893 105.024 88.4953 105.188 90.5863C105.353 92.6773 106.435 94.5833 108.078 96.0206L106.045 98.0184" stroke="#F7CE69" stroke-width="0.884089"/>
<path d="M129.709 83.2381H117.463L116.678 73.2646M137.903 97.935H118.62L119.286 106.396M117.521 83.1545L115.488 85.1523C117.131 86.5895 118.213 88.4955 118.378 90.5866C118.542 92.6776 117.76 94.5836 116.343 96.0208L118.691 98.0186" stroke="#F7CE69" stroke-width="0.884089"/>
<path d="M106.526 73.4961L107.176 81.7466C109.359 83.5855 112.558 83.5855 114.452 81.7466L113.803 73.4961" stroke="#F7CE69" stroke-width="0.884089"/>
<path d="M109.326 109.076L108.677 100.826C110.571 98.987 113.77 98.987 115.954 100.826L116.603 109.076" stroke="#F7CE69" stroke-width="0.884089"/>
<path d="M90.4365 99.6729H104.222L104.719 105.994" stroke="#F7CE69" stroke-width="0.884089"/>
<path d="M134.559 99.6729H120.774L121.271 105.994" stroke="#F7CE69" stroke-width="0.884089"/>
<path d="M108.27 74.8198L108.693 80.1939C109.907 81.3917 111.665 81.3917 112.69 80.1939L112.267 74.8198" stroke="#F7CE69" stroke-width="0.884089"/>
<path d="M110.862 107.753L110.439 102.379C111.464 101.181 113.222 101.181 114.436 102.379L114.859 107.753" stroke="#F7CE69" stroke-width="0.884089"/>
<path d="M94.1026 85.801H103.13C102.081 87.0667 101.513 88.7451 101.658 90.5865C101.803 92.4278 102.635 94.1063 103.884 95.3719H92.5643" stroke="#F7CE69" stroke-width="0.884089"/>
<path d="M128.71 85.8015H119.682C120.931 87.0672 121.762 88.7456 121.907 90.587C122.052 92.4283 121.485 94.1068 120.435 95.3724H131.755" stroke="#F7CE69" stroke-width="0.884089"/>
<path d="M89.4649 81.2379H102.771L102.374 76.1934" stroke="#F7CE69" stroke-width="0.884089"/>
<path d="M132.629 81.2379H119.323L118.926 76.1934" stroke="#F7CE69" stroke-width="0.884089"/>
<path d="M198.392 123.091C204.965 77.1699 172.304 31.7112 125.441 21.5559C78.5791 11.4007 35.2617 40.3946 28.6891 86.3156C22.1166 132.237 54.7778 177.695 101.64 187.851C148.502 198.006 191.82 169.012 198.392 123.091Z" fill="url(#paint2_linear_3513_8736)"/>
<path d="M184.281 109.608L184.28 109.596H185.034L184.281 109.608Z" fill="url(#paint3_linear_3513_8736)"/>
<path d="M169.174 44.4019C205.18 77.6854 209.427 131.649 178.66 164.932C147.893 198.215 93.7628 198.215 57.757 164.932C21.7512 131.649 17.5042 77.6854 48.2711 44.4019C79.038 11.1185 133.168 11.1185 169.174 44.4019Z" stroke="url(#paint4_linear_3513_8736)" stroke-width="2.73526"/>
<path d="M169.768 43.7592C206.158 77.3976 210.45 131.936 179.355 165.575C148.26 199.213 93.5526 199.213 57.1628 165.575C20.773 131.936 16.4807 77.3976 47.5757 43.7592C78.6708 10.1208 133.378 10.1208 169.768 43.7592Z" stroke="url(#paint5_linear_3513_8736)" stroke-width="0.911754"/>
<path fill-rule="evenodd" clip-rule="evenodd" d="M106.819 70.8174H114.696L115.217 77.4379C123.049 79.2454 129.311 86.1106 129.956 94.3037C130.709 103.875 123.511 111.635 113.878 111.635C104.246 111.635 95.8263 103.875 95.073 94.3037C94.4231 86.0454 99.6923 79.1362 107.337 77.3957L106.819 70.8174ZM122.414 94.3037C122.841 99.7363 118.756 104.14 113.289 104.14C107.821 104.14 103.043 99.7363 102.615 94.3037C102.188 88.8712 106.273 84.4673 111.74 84.4673C117.207 84.4673 121.986 88.8712 122.414 94.3037ZM122.336 122.454C120.523 124.409 117.942 125.506 115.16 125.506C112.379 125.506 109.625 124.409 107.504 122.454C105.384 120.5 104.07 117.849 103.853 115.086H96.861C97.2235 119.692 99.4127 124.11 102.947 127.367C105.436 129.661 108.449 131.247 111.633 131.984L112.158 138.653H120.035L119.514 132.03C122.659 131.313 125.494 129.709 127.667 127.367C130.688 124.11 132.182 119.692 131.819 115.086H124.828C125.045 117.849 124.149 120.5 122.336 122.454Z" fill="#C79FD5"/>
<path d="M98.8228 113.406L96.8622 115.086L97.1496 115.423L99.8515 115.399L98.8228 113.406Z" fill="#C79FD4"/>
<path d="M108.786 69.1472L106.822 70.8188L107.043 71.2363C107.322 71.1988 107.885 71.1233 107.903 71.1218C107.92 71.1203 109.784 71.1247 109.875 70.9891L108.786 69.1472Z" fill="#C79FD4"/>
<path d="M126.785 113.406L124.831 115.085L125.633 115.656L128.172 115.348L126.785 113.406Z" fill="#C79FD4"/>
<path d="M121.992 136.978L120.04 138.651L119.51 138.351L119.566 136.076L121.992 136.978Z" fill="#C79FD4"/>
<path fill-rule="evenodd" clip-rule="evenodd" d="M108.78 69.1428H116.657L117.178 75.7633C125.01 77.5708 131.272 84.436 131.917 92.6291C132.67 102.201 125.472 109.96 115.839 109.96C106.207 109.96 97.7873 102.201 97.034 92.6291C96.384 84.3709 101.653 77.4617 109.298 75.7211L108.78 69.1428ZM124.375 92.6291C124.802 98.0617 120.717 102.465 115.249 102.465C109.782 102.465 105.004 98.0617 104.576 92.6291C104.149 87.1966 108.234 82.7927 113.701 82.7927C119.168 82.7927 123.947 87.1966 124.375 92.6291ZM124.297 120.78C122.484 122.734 119.903 123.832 117.121 123.832C114.34 123.832 111.586 122.734 109.465 120.78C107.345 118.825 106.031 116.175 105.814 113.411H98.8219C99.1844 118.017 101.374 122.435 104.908 125.692C107.397 127.986 110.41 129.572 113.594 130.31L114.119 136.978H121.996L121.475 130.355C124.62 129.639 127.455 128.034 129.627 125.692C132.649 122.435 134.143 118.017 133.78 113.411H126.789C127.006 116.175 126.11 118.825 124.297 120.78Z" fill="#F6DEFF"/>
<path d="M186.285 112.178L155.568 112.035C153.801 130.272 139.928 144.467 121.429 146.525L122.271 157.229C144.755 155.244 162.036 139.196 165.747 117.779L186.116 117.85M185.148 97.7374L154.459 97.5943C149.869 79.2591 133.69 64.976 114.785 62.9379L113.942 52.2361C116.008 52.4134 118.049 52.7061 120.058 53.1077C140.32 57.1581 157.36 72.2884 163.758 91.8802L184.574 92.0233" stroke="url(#paint6_linear_3513_8736)" stroke-width="1.76818"/>
<path fill-rule="evenodd" clip-rule="evenodd" d="M172.661 91.8806C172.584 90.9071 173.314 90.1179 174.29 90.1179H177.084C178.06 90.1179 178.914 90.9071 178.991 91.8806C179.067 92.8542 178.338 93.6434 177.361 93.6434H174.568C173.591 93.6434 172.737 92.8542 172.661 91.8806Z" fill="url(#paint7_linear_3513_8736)"/>
<path d="M104.627 52.2422C77.8164 54.6086 58.4216 77.2071 60.5882 104.736C62.7547 132.264 85.7066 154.863 112.89 157.229L112.048 146.526C90.7783 144.2 72.9753 126.377 71.2721 104.736C69.5689 83.0942 84.5665 65.2714 105.47 62.9455L104.627 52.2422Z" stroke="url(#paint8_linear_3513_8736)" stroke-width="1.76818"/>
<path d="M185.318 123.475H176.389C170.416 149.712 147.44 168.796 118.491 168.796C85.0678 168.796 55.6026 143.357 49.9599 110.841H61.5563M183.246 86.2557H173.538C163.507 59.8858 137.452 40.6763 108.408 40.6763C74.9425 40.6763 49.4595 66.1794 48.997 98.7537H59.6431" stroke="url(#paint9_linear_3513_8736)" stroke-width="1.76818"/>
<path d="M119.219 178.048C78.6049 178.048 43.0973 145.225 39.9108 104.736C36.7242 64.2469 67.0653 31.4241 107.68 31.4241C141.807 31.4241 172.33 54.6 183.099 86.0269C186.668 97.5712 187.769 109.549 186.327 121.159L186.042 123.456C180.216 154.877 153.342 178.048 119.219 178.048Z" stroke="url(#paint10_linear_3513_8736)" stroke-width="1.76818"/>
<path fill-rule="evenodd" clip-rule="evenodd" d="M107.793 33.0197C106.608 33.0197 105.433 33.0483 104.267 33.1047C103.305 33.1512 102.426 32.4084 102.303 31.4456C102.181 30.4828 102.861 29.6646 103.824 29.618C105.045 29.5589 106.277 29.5291 107.518 29.5291C108.704 29.5291 109.885 29.5563 111.061 29.6103C112.031 29.6547 112.842 30.4713 112.873 31.4342C112.904 32.3971 112.144 33.1417 111.174 33.0972C110.052 33.0458 108.924 33.0197 107.793 33.0197ZM116.296 31.7489C116.355 30.7943 117.188 30.1291 118.156 30.2631C120.536 30.5925 122.889 31.0301 125.211 31.5709C126.169 31.7941 126.824 32.7352 126.674 33.6729C126.524 34.6107 125.625 35.1899 124.667 34.9667C122.454 34.4512 120.211 34.0339 117.942 33.7199C116.974 33.5859 116.237 32.7034 116.296 31.7489ZM98.6132 31.8062C98.829 32.7599 98.2374 33.6467 97.2918 33.787C94.9714 34.1312 92.697 34.5884 90.4738 35.153C89.5541 35.3865 88.559 34.8177 88.2511 33.8825C87.9433 32.9473 88.4393 31.9998 89.359 31.7663C91.6912 31.1741 94.0769 30.6945 96.5104 30.3334C97.456 30.1932 98.3974 30.8525 98.6132 31.8062ZM130.025 34.6156C130.265 33.7031 131.221 33.2153 132.161 33.526C134.464 34.2874 136.728 35.1511 138.946 36.1116C139.859 36.507 140.333 37.5401 140.006 38.4192C139.679 39.2984 138.673 39.6905 137.76 39.2952C135.646 38.3795 133.488 37.5561 131.293 36.8304C130.353 36.5197 129.785 35.5281 130.025 34.6156ZM84.7616 34.9621C85.1589 35.8696 84.7636 36.8686 83.8788 37.1934C81.715 37.9877 79.6103 38.8882 77.5702 39.889C76.7289 40.3018 75.6557 39.9302 75.1731 39.0591C74.6906 38.188 74.9814 37.1472 75.8227 36.7345C77.9626 35.6848 80.1704 34.7401 82.4403 33.9069C83.3252 33.5821 84.3644 34.0545 84.7616 34.9621ZM143.17 39.9591C143.582 39.121 144.627 38.8277 145.505 39.3039C147.652 40.4682 149.746 41.7259 151.781 43.0712C152.617 43.6238 152.895 44.712 152.403 45.5018C151.911 46.2916 150.835 46.4839 149.999 45.9314C148.058 44.6483 146.062 43.449 144.014 42.3388C143.136 41.8626 142.758 40.7971 143.17 39.9591ZM72.0192 40.8171C72.5821 41.6434 72.3981 42.7157 71.6083 43.212C69.6812 44.423 67.8262 45.7304 66.0493 47.1278C65.3183 47.7026 64.209 47.5413 63.5715 46.7675C62.934 45.9937 63.0098 44.9004 63.7407 44.3256C65.6039 42.8605 67.549 41.4896 69.5699 40.2196C70.3597 39.7233 71.4563 39.9908 72.0192 40.8171ZM155.267 47.5794C155.835 46.8446 156.933 46.7546 157.719 47.3784C159.638 48.9007 161.49 50.5055 163.27 52.1871C164 52.8766 164.074 53.9816 163.435 54.6552C162.797 55.3288 161.687 55.3158 160.957 54.6263C159.26 53.0223 157.493 51.4915 155.663 50.0395C154.876 49.4157 154.699 48.3142 155.267 47.5794ZM60.8717 49.1313C61.5774 49.8453 61.6103 50.9491 60.945 51.5966C59.3245 53.1739 57.7887 54.8354 56.3434 56.5746C55.7501 57.2886 54.6471 57.3425 53.8799 56.695C53.1127 56.0474 52.9718 54.9436 53.5651 54.2296C55.0803 52.4063 56.6904 50.6645 58.3893 49.0109C59.0545 48.3634 60.166 48.4173 60.8717 49.1313ZM165.903 57.1962C166.607 56.5898 167.718 56.7055 168.386 57.4548C170.011 59.2802 171.559 61.1763 173.021 63.1371C173.62 63.9397 173.487 65.0231 172.723 65.557C171.96 66.0908 170.857 65.8729 170.258 65.0703C168.863 63.2003 167.387 61.392 165.837 59.6509C165.17 58.9016 165.199 57.8026 165.903 57.1962ZM51.7352 59.5719C52.5567 60.1467 52.8045 61.24 52.2888 62.0138C51.0352 63.8949 49.8774 65.8467 48.8213 67.8629C48.3884 68.6892 47.334 68.9567 46.466 68.4604C45.5981 67.9641 45.2454 66.8919 45.6782 66.0655C46.7857 63.9512 47.9998 61.9045 49.3142 59.9322C49.8299 59.1584 50.9138 58.9971 51.7352 59.5719ZM174.707 68.4735C175.523 68.0172 176.609 68.3356 177.134 69.1847C178.409 71.2494 179.596 73.3719 180.686 75.5467C181.132 76.435 180.794 77.4585 179.933 77.8329C179.071 78.2073 178.012 77.7908 177.566 76.9025C176.527 74.8293 175.396 72.8057 174.18 70.8371C173.655 69.988 173.891 68.9298 174.707 68.4735ZM44.9609 71.7426C45.8671 72.1553 46.3218 73.196 45.9763 74.0671C45.1387 76.1794 44.406 78.3483 43.784 80.5677C43.5296 81.4753 42.5647 81.9477 41.6288 81.6229C40.6929 81.2982 40.1403 80.2992 40.3947 79.3916C41.0472 77.0633 41.8158 74.7881 42.6944 72.5725C43.0399 71.7014 44.0546 71.3298 44.9609 71.7426ZM40.8263 85.1864C41.7828 85.4199 42.4279 86.3673 42.2673 87.3026C41.8789 89.5632 41.6015 91.8665 41.4404 94.2067C41.3747 95.1603 40.5371 95.8197 39.5694 95.6794C38.6018 95.5391 37.8706 94.6523 37.9362 93.6987C38.1052 91.2443 38.3962 88.8284 38.8036 86.4569C38.9642 85.5216 39.8698 84.9528 40.8263 85.1864ZM39.4995 99.3863C40.4689 99.4329 41.2784 100.251 41.3075 101.214C41.3427 102.381 41.4065 103.555 41.4995 104.736C41.5924 105.917 41.7134 107.091 41.8618 108.258C41.9843 109.22 41.3036 110.039 40.3415 110.085C39.3794 110.132 38.5002 109.389 38.3777 108.426C38.2222 107.203 38.0954 105.973 37.998 104.736C37.9006 103.499 37.8338 102.268 37.7968 101.045C37.7677 100.083 38.53 99.3398 39.4995 99.3863ZM40.9949 113.792C41.9405 113.652 42.882 114.311 43.0977 115.265C43.6272 117.605 44.2671 119.908 45.0113 122.169C45.3192 123.104 44.8232 124.052 43.9034 124.285C42.9837 124.519 41.9886 123.95 41.6807 123.015C40.9 120.643 40.2288 118.227 39.6735 115.773C39.4577 114.819 40.0494 113.932 40.9949 113.792ZM45.2668 127.849C46.1516 127.524 47.1909 127.996 47.5881 128.904C48.5595 131.123 49.6336 133.292 50.8037 135.404C51.2862 136.275 50.9954 137.316 50.1541 137.729C49.3128 138.142 48.2396 137.77 47.757 136.899C46.5297 134.683 45.403 132.408 44.384 130.08C43.9868 129.172 44.382 128.173 45.2668 127.849ZM184.167 131.639C185.088 132.013 185.586 133.036 185.281 133.925C184.532 136.1 183.68 138.222 182.73 140.287C182.339 141.136 181.302 141.454 180.415 140.998C179.527 140.542 179.125 139.483 179.515 138.634C180.422 136.666 181.234 134.642 181.947 132.569C182.253 131.681 183.247 131.264 184.167 131.639ZM52.1759 141.011C52.9657 140.515 54.0623 140.782 54.6252 141.609C55.9986 143.625 57.4637 145.577 59.0134 147.458C59.6509 148.232 59.5751 149.325 58.8442 149.9C58.1133 150.474 57.0039 150.313 56.3665 149.539C54.7415 147.567 53.2053 145.52 51.765 143.406C51.2021 142.58 51.3861 141.507 52.1759 141.011ZM178.89 143.914C179.737 144.448 180.041 145.532 179.569 146.334C178.415 148.295 177.166 150.191 175.828 152.017C175.279 152.766 174.185 152.882 173.386 152.275C172.587 151.669 172.384 150.57 172.933 149.821C174.21 148.079 175.401 146.271 176.501 144.401C176.974 143.599 178.043 143.381 178.89 143.914ZM61.4417 152.777C62.107 152.129 63.2184 152.183 63.9242 152.897C65.6432 154.636 67.4406 156.298 69.3093 157.875C70.0765 158.522 70.2174 159.626 69.6241 160.34C69.0307 161.054 67.9278 161.108 67.1606 160.461C65.2015 158.807 63.3172 157.065 61.515 155.242C60.8093 154.528 60.7765 153.424 61.4417 152.777ZM171.318 154.816C172.063 155.49 172.163 156.595 171.542 157.284C170.026 158.966 168.426 160.571 166.748 162.093C166.059 162.717 164.948 162.627 164.264 161.892C163.58 161.157 163.584 160.056 164.272 159.432C165.873 157.98 167.399 156.449 168.845 154.845C169.466 154.156 170.574 154.143 171.318 154.816ZM72.6959 162.704C73.2116 161.93 74.2956 161.769 75.117 162.344C77.1139 163.741 79.1747 165.048 81.2924 166.259C82.1603 166.756 82.5131 167.828 82.0802 168.654C81.6474 169.481 80.5929 169.748 79.725 169.252C77.5042 167.982 75.3433 166.611 73.2495 165.146C72.4281 164.571 72.1803 163.478 72.6959 162.704ZM161.727 163.97C162.343 164.759 162.236 165.848 161.487 166.4C159.664 167.746 157.768 169.003 155.805 170.168C155.001 170.644 153.91 170.35 153.366 169.512C152.822 168.674 153.033 167.609 153.836 167.133C155.708 166.022 157.516 164.823 159.255 163.54C160.004 162.988 161.11 163.18 161.727 163.97ZM85.5109 170.412C85.8563 169.541 86.871 169.17 87.7773 169.582C89.9749 170.583 92.2214 171.484 94.5102 172.278C95.4461 172.603 95.9986 173.602 95.7443 174.509C95.4899 175.417 94.525 175.889 93.5891 175.565C91.188 174.731 88.8314 173.787 86.5264 172.737C85.6201 172.324 85.1654 171.283 85.5109 170.412ZM150.444 171.052C150.91 171.931 150.598 172.964 149.747 173.36C147.681 174.32 145.553 175.184 143.37 175.945C142.479 176.256 141.446 175.768 141.062 174.856C140.679 173.943 141.09 172.952 141.981 172.641C144.062 171.915 146.09 171.092 148.061 170.176C148.911 169.781 149.979 170.173 150.444 171.052ZM99.4037 175.589C99.5643 174.654 100.47 174.085 101.426 174.318C103.738 174.883 106.085 175.34 108.459 175.684C109.427 175.825 110.158 176.712 110.093 177.665C110.027 178.619 109.189 179.278 108.222 179.138C105.731 178.777 103.27 178.297 100.845 177.705C99.8882 177.472 99.243 176.524 99.4037 175.589ZM137.86 175.799C138.157 176.736 137.65 177.677 136.727 177.901C134.491 178.441 132.206 178.879 129.879 179.208C128.932 179.342 127.994 178.677 127.785 177.723C127.575 176.768 128.173 175.886 129.12 175.752C131.339 175.437 133.517 175.02 135.649 174.505C136.572 174.282 137.562 174.861 137.86 175.799ZM113.839 178.026C113.81 177.063 114.573 176.32 115.542 176.367C116.717 176.423 117.897 176.452 119.081 176.452C120.213 176.452 121.336 176.426 122.45 176.374C123.413 176.33 124.291 177.074 124.411 178.037C124.531 179 123.849 179.817 122.886 179.861C121.718 179.915 120.541 179.942 119.356 179.942C118.115 179.942 116.879 179.913 115.647 179.853C114.678 179.807 113.868 178.989 113.839 178.026Z" fill="url(#paint11_linear_3513_8736)"/>
<path d="M113.505 167.989L113.117 163.066C88.8334 161.173 67.5101 144.719 58.677 122.512H53.1423M123.766 167.989L123.372 162.986C140.442 161.363 154.768 152.338 163.362 139.142L157.98 135.286M49.7367 92.6542H54.8376C58.3487 66.1683 80.3582 46.2856 108.591 46.2856C128.688 46.2856 147.218 56.3611 158.999 71.7217L154.8 75.3242" stroke="url(#paint12_linear_3513_8736)" stroke-width="1.76818"/>
<path fill-rule="evenodd" clip-rule="evenodd" d="M141.001 53.7631C141.809 54.2495 142.09 55.2742 141.641 56.0288C141.191 56.7833 140.182 56.9817 139.373 56.4966C138.131 55.7521 136.863 55.0498 135.571 54.3917C134.733 53.9644 134.32 52.9789 134.661 52.1644C135.002 51.3499 135.968 51.015 136.807 51.441C138.233 52.165 139.632 52.9399 141.001 53.7631ZM126.103 47.1418C126.995 47.4111 127.53 48.3485 127.304 49.2091C127.077 50.0697 126.176 50.5274 125.284 50.2595C123.919 49.8501 122.538 49.4879 121.141 49.1748C120.236 48.972 119.586 48.1081 119.694 47.2164C119.801 46.3247 120.625 45.743 121.53 45.9444C123.072 46.2876 124.598 46.6875 126.103 47.1418Z" fill="url(#paint13_linear_3513_8736)"/>
<path fill-rule="evenodd" clip-rule="evenodd" d="M154.56 123.349C154.927 122.547 154.516 121.557 153.669 121.15C152.821 120.743 151.858 121.074 151.489 121.875C150.924 123.104 150.311 124.311 149.65 125.492C149.221 126.259 149.497 127.282 150.292 127.791C151.087 128.301 152.101 128.106 152.531 127.339C153.262 126.037 153.938 124.705 154.56 123.349Z" fill="url(#paint14_linear_3513_8736)"/>
<path fill-rule="evenodd" clip-rule="evenodd" d="M93.3346 40.7419C94.2853 40.5233 95.2813 41.1569 95.5503 42.1276C95.8193 43.0982 95.2594 44.038 94.3091 44.2581C92.85 44.5962 91.4154 44.9872 90.0073 45.4291C89.0814 45.7197 88.0224 45.2205 87.6297 44.2836C87.237 43.3467 87.6594 42.3269 88.5846 42.0348C90.1383 41.5444 91.7224 41.1126 93.3346 40.7419ZM77.689 46.6902C78.53 46.2277 79.6378 46.5938 80.1472 47.4808C80.6567 48.3679 80.3748 49.4399 79.5346 49.9037C78.2479 50.614 76.994 51.372 75.775 52.1753C74.9762 52.7018 73.8442 52.4839 73.2274 51.6617C72.6105 50.8395 72.7425 49.7246 73.5404 49.1968C74.8837 48.3082 76.2674 47.4718 77.689 46.6902Z" fill="url(#paint15_linear_3513_8736)"/>
<path d="M92.6822 120.544L86.775 125.375C82.038 119.543 79.1215 112.525 78.4393 105.287C77.7571 98.0481 79.3443 90.9609 82.9699 84.9995L89.7691 89.6337C87.0346 94.2113 85.8419 99.6306 86.3634 105.164C86.8849 110.698 89.0941 116.064 92.6822 120.544Z" stroke="url(#paint16_linear_3513_8736)" stroke-width="1.76818"/>
<path d="M137.43 120.544L144.098 125.375C147.917 119.543 149.729 112.525 149.272 105.286C148.814 98.0477 146.112 90.9604 141.548 84.999L135.478 89.6333C138.933 94.2108 140.979 99.6301 141.328 105.164C141.678 110.697 140.313 116.064 137.43 120.544Z" stroke="url(#paint17_linear_3513_8736)" stroke-width="1.76818"/>
<defs>
<linearGradient id="paint0_linear_3513_8736" x1="-19.2419" y1="-28.3424" x2="205.307" y2="160.481" gradientUnits="userSpaceOnUse">
<stop stop-color="#D55FFF"/>
<stop offset="1" stop-color="#4230B1"/>
</linearGradient>
<linearGradient id="paint1_linear_3513_8736" x1="181.534" y1="44.0183" x2="64.0082" y2="212.521" gradientUnits="userSpaceOnUse">
<stop stop-color="#995C08"/>
<stop offset="1" stop-color="#683811"/>
</linearGradient>
<linearGradient id="paint2_linear_3513_8736" x1="-96.5382" y1="72.6454" x2="293.19" y2="94.9656" gradientUnits="userSpaceOnUse">
<stop stop-color="#2F2450"/>
<stop offset="1" stop-color="#1E1024"/>
</linearGradient>
<linearGradient id="paint3_linear_3513_8736" x1="159.661" y1="104.13" x2="219.515" y2="112.843" gradientUnits="userSpaceOnUse">
<stop stop-color="#DC9327"/>
<stop offset="0.04" stop-color="#E8B744"/>
<stop offset="0.08" stop-color="#F2D35B"/>
<stop offset="0.12" stop-color="#F9E76B"/>
<stop offset="0.16" stop-color="#FEF375"/>
<stop offset="0.2" stop-color="#FFF778"/>
<stop offset="0.28" stop-color="#EAC34A"/>
<stop offset="0.34" stop-color="#D99A26"/>
<stop offset="0.36" stop-color="#CB8E24"/>
<stop offset="0.4" stop-color="#B77E21"/>
<stop offset="0.43" stop-color="#AB741F"/>
<stop offset="0.47" stop-color="#A7711E"/>
<stop offset="0.51" stop-color="#AB7622"/>
<stop offset="0.56" stop-color="#B8852E"/>
<stop offset="0.61" stop-color="#CD9E42"/>
<stop offset="0.66" stop-color="#EBC15E"/>
<stop offset="0.68" stop-color="#F6CE69"/>
<stop offset="0.72" stop-color="#F3C962"/>
<stop offset="0.78" stop-color="#EBBA4F"/>
<stop offset="0.85" stop-color="#DEA231"/>
<stop offset="0.87" stop-color="#D99A26"/>
<stop offset="1" stop-color="#F6CE69"/>
</linearGradient>
<linearGradient id="paint4_linear_3513_8736" x1="186.078" y1="64.3915" x2="55.4008" y2="132.76" gradientUnits="userSpaceOnUse">
<stop stop-color="#421A92"/>
<stop offset="1" stop-color="#4324A2" stop-opacity="0"/>
</linearGradient>
<linearGradient id="paint5_linear_3513_8736" x1="192.895" y1="64.9281" x2="-21.8509" y2="161.434" gradientUnits="userSpaceOnUse">
<stop stop-color="#805EDC"/>
<stop offset="0.732417" stop-color="#805EDC" stop-opacity="0"/>
</linearGradient>
<linearGradient id="paint6_linear_3513_8736" x1="145.844" y1="-14.3502" x2="245.561" y2="141.99" gradientUnits="userSpaceOnUse">
<stop stop-color="#A55FFF"/>
<stop offset="1" stop-color="white"/>
</linearGradient>
<linearGradient id="paint7_linear_3513_8736" x1="161.637" y1="83.5415" x2="190.499" y2="93.4925" gradientUnits="userSpaceOnUse">
<stop stop-color="#A55FFF"/>
<stop offset="1" stop-color="white"/>
</linearGradient>
<linearGradient id="paint8_linear_3513_8736" x1="77.6737" y1="-14.3405" x2="189.46" y2="107.979" gradientUnits="userSpaceOnUse">
<stop stop-color="#A55FFF"/>
<stop offset="1" stop-color="white"/>
</linearGradient>
<linearGradient id="paint9_linear_3513_8736" x1="112.306" y1="-40.5773" x2="200.013" y2="189.18" gradientUnits="userSpaceOnUse">
<stop stop-color="#A55FFF"/>
<stop offset="1" stop-color="white"/>
</linearGradient>
<linearGradient id="paint10_linear_3513_8736" x1="108.434" y1="-63.5639" x2="213.273" y2="199.985" gradientUnits="userSpaceOnUse">
<stop stop-color="#A55FFF"/>
<stop offset="1" stop-color="white"/>
</linearGradient>
<linearGradient id="paint11_linear_3513_8736" x1="104.279" y1="-65.8631" x2="214.705" y2="197.809" gradientUnits="userSpaceOnUse">
<stop stop-color="#A55FFF"/>
<stop offset="1" stop-color="white"/>
</linearGradient>
<linearGradient id="paint12_linear_3513_8736" x1="100.928" y1="-30.8985" x2="194.149" y2="178.937" gradientUnits="userSpaceOnUse">
<stop stop-color="#A55FFF"/>
<stop offset="1" stop-color="white"/>
</linearGradient>
<linearGradient id="paint13_linear_3513_8736" x1="108.17" y1="36.6304" x2="167.242" y2="72.8572" gradientUnits="userSpaceOnUse">
<stop stop-color="#A55FFF"/>
<stop offset="1" stop-color="white"/>
</linearGradient>
<linearGradient id="paint14_linear_3513_8736" x1="150.469" y1="140.546" x2="155.55" y2="111.111" gradientUnits="userSpaceOnUse">
<stop offset="0.161458" stop-color="#A55FFF"/>
<stop offset="1" stop-color="white"/>
</linearGradient>
<linearGradient id="paint15_linear_3513_8736" x1="59.3173" y1="30.6478" x2="158.414" y2="43.5699" gradientUnits="userSpaceOnUse">
<stop stop-color="#A55FFF"/>
<stop offset="1" stop-color="white"/>
</linearGradient>
<linearGradient id="paint16_linear_3513_8736" x1="82.0438" y1="56.5835" x2="128.013" y2="94.5332" gradientUnits="userSpaceOnUse">
<stop stop-color="#A55FFF"/>
<stop offset="1" stop-color="white"/>
</linearGradient>
<linearGradient id="paint17_linear_3513_8736" x1="138.001" y1="56.583" x2="98.6872" y2="95.2265" gradientUnits="userSpaceOnUse">
<stop stop-color="#A55FFF"/>
<stop offset="1" stop-color="white"/>
</linearGradient>
</defs>
</svg>
