<svg width="110" height="102" viewBox="0 0 110 102" fill="none" xmlns="http://www.w3.org/2000/svg">
<g opacity="0.5" filter="url(#filter0_f_3122_6055)">
<path d="M86.8231 80.95C100.689 63.3611 96.5047 36.9425 77.4772 21.9424C58.4497 6.94234 31.7842 9.04096 17.9183 26.6298C4.05234 44.2187 8.23663 70.6373 27.2642 85.6374C46.2917 100.637 72.9571 98.5388 86.8231 80.95Z" fill="#291D40"/>
<path d="M89.3515 78.232C103.175 60.6972 99.0035 34.3597 80.0344 19.4057C61.0653 4.45168 34.4817 6.54385 20.6584 24.0787C6.83499 41.6136 11.0064 67.951 29.9755 82.905C48.9446 97.8591 75.5282 95.7669 89.3515 78.232Z" fill="url(#paint0_linear_3122_6055)"/>
<path d="M80.0325 19.4083C99.0002 34.3612 103.171 60.6967 89.349 78.2303C75.5266 95.7639 48.9451 97.8559 29.9773 82.903C11.0096 67.95 6.83851 41.6145 20.6609 24.0809C34.4832 6.54737 61.0648 4.45536 80.0325 19.4083Z" stroke="#F8E4FF" stroke-width="0.26564"/>
<path d="M93.6419 56.4049C94.9662 35.6174 78.7444 16.4191 57.4094 13.5242C36.0744 10.6293 17.7054 25.1341 16.381 45.9215C15.0567 66.709 31.2786 85.9073 52.6136 88.8022C73.9486 91.6971 92.3176 77.1923 93.6419 56.4049Z" fill="url(#paint1_linear_3122_6055)"/>
<path d="M44.9169 42.2615L50.419 41.8284L49.7136 37.375M42.7942 49.0729L51.4584 48.391L52.0568 52.169M50.3842 41.7934L51.5098 42.608C50.9239 43.3039 50.6399 44.1879 50.7878 45.1216C50.9356 46.0553 51.4892 46.8734 52.2785 47.4611L51.4354 48.4306" stroke="#F7CE69" stroke-width="0.39846"/>
<path d="M61.5455 40.953L56.0434 41.3861L55.338 36.9326M65.7469 47.2668L57.0828 47.9486L57.6812 51.7266M56.0664 41.3464L55.2233 42.316C56.0125 42.9036 56.5661 43.7218 56.714 44.6555C56.8619 45.5892 56.5779 46.4732 55.9919 47.1691L57.1176 47.9837" stroke="#F7CE69" stroke-width="0.39846"/>
<path d="M50.7847 37.3955L51.3682 41.0796C52.4142 41.8286 53.8518 41.7155 54.6376 40.8223L54.0541 37.1382" stroke="#F7CE69" stroke-width="0.39846"/>
<path d="M53.301 53.283L52.7175 49.5989C53.5034 48.7057 54.9409 48.5925 55.9869 49.3416L56.5704 53.0257" stroke="#F7CE69" stroke-width="0.39846"/>
<path d="M44.481 49.7261L50.675 49.2386L51.122 52.0612" stroke="#F7CE69" stroke-width="0.39846"/>
<path d="M64.3058 48.1658L58.1119 48.6532L58.559 51.4759" stroke="#F7CE69" stroke-width="0.39846"/>
<path d="M51.615 37.9287L51.9951 40.3284C52.5829 40.8237 53.3726 40.7615 53.7911 40.1871L53.411 37.7874" stroke="#F7CE69" stroke-width="0.39846"/>
<path d="M53.9441 52.6343L53.564 50.2346C53.9824 49.6601 54.7722 49.598 55.36 50.0932L55.7401 52.4929" stroke="#F7CE69" stroke-width="0.39846"/>
<path d="M45.6377 43.3635L49.694 43.0443C49.2673 43.6501 49.0716 44.4243 49.2018 45.2465C49.332 46.0687 49.7651 46.7935 50.3708 47.318L45.285 47.7183" stroke="#F7CE69" stroke-width="0.39846"/>
<path d="M61.1872 42.1401L57.131 42.4593C57.7367 42.9839 58.1698 43.7086 58.3 44.5308C58.4302 45.353 58.2345 46.1273 57.8078 46.733L62.8937 46.3328" stroke="#F7CE69" stroke-width="0.39846"/>
<path d="M43.3926 41.4774L49.3712 41.0069L49.0144 38.7543" stroke="#F7CE69" stroke-width="0.39846"/>
<path d="M62.7867 39.951L56.8081 40.4216L56.4514 38.169" stroke="#F7CE69" stroke-width="0.39846"/>
<path d="M93.8148 56.4305C95.1441 35.5652 78.8616 16.2951 57.4468 13.3893C36.0319 10.4836 17.5942 25.0427 16.2649 45.9079C14.9356 66.7731 31.2182 86.0433 52.633 88.949C74.0478 91.8548 92.4856 77.2957 93.8148 56.4305Z" fill="url(#paint2_linear_3122_6055)"/>
<path d="M86.9978 50.8716L86.997 50.8662L87.3356 50.8396L86.9978 50.8716Z" fill="url(#paint3_linear_3122_6055)"/>
<path d="M78.0337 21.9436C95.4866 35.7024 99.3246 59.9347 86.6061 76.0681C73.8876 92.2014 49.4289 94.1264 31.9759 80.3676C14.523 66.6088 10.6849 42.3764 23.4034 26.2431C36.1219 10.1097 60.5807 8.18477 78.0337 21.9436Z" stroke="#1B1229" stroke-width="0.796919"/>
<path fill-rule="evenodd" clip-rule="evenodd" d="M50.8217 36.1816L54.3609 35.9031L54.8292 38.8594C58.412 39.3946 61.4683 42.2578 62.0477 45.9163C62.7247 50.1903 59.7648 53.9311 55.4368 54.2717C51.1087 54.6124 47.0514 51.4238 46.3745 47.1498C45.7904 43.4622 47.9136 40.1715 51.287 39.1191L50.8217 36.1816ZM58.6589 46.183C59.0431 48.6088 57.3632 50.7319 54.9067 50.9252C52.4503 51.1186 50.1475 49.3089 49.7633 46.8831C49.3791 44.4573 51.0589 42.3341 53.5154 42.1408C55.9718 41.9474 58.2747 43.7572 58.6589 46.183ZM59.6195 58.8341C58.874 59.7763 57.753 60.3608 56.5033 60.4592C55.2535 60.5575 53.9773 60.1617 52.9554 59.3586C51.9335 58.5554 51.2496 57.4109 51.0541 56.1768L47.9127 56.424C48.2384 58.4809 49.3783 60.3884 51.0815 61.727C52.2811 62.6697 53.691 63.2758 55.1477 63.4945L55.6193 66.4724L59.1585 66.1938L58.69 63.2361C60.0778 62.803 61.2948 61.982 62.1882 60.8529C63.4306 59.2825 63.9456 57.2447 63.6199 55.1878L60.4784 55.4351C60.6739 56.6692 60.365 57.8919 59.6195 58.8341Z" fill="#F6DEFF"/>
<path d="M87.1671 51.9552L74.1824 52.9771C74.0335 61.2339 68.3019 68.1024 60.0631 69.6814L60.82 74.4607C70.8521 72.7739 78.0492 64.9521 78.9591 55.1981L87.7029 54.5099M86.1459 45.5071L73.1735 46.5281C70.463 38.4521 62.6885 32.6067 54.1219 32.3595L53.3651 27.5808C54.2994 27.5874 55.2268 27.6468 56.1439 27.7562C65.3911 28.8595 73.5822 35.0552 77.1495 43.6318L85.6859 42.96" stroke="url(#paint4_linear_3122_6055)" stroke-width="0.796919"/>
<path fill-rule="evenodd" clip-rule="evenodd" d="M81.1498 43.3174C81.081 42.8827 81.3808 42.5023 81.8196 42.4677L83.0748 42.369C83.5135 42.3344 83.9251 42.6588 83.9939 43.0935C84.0628 43.5283 83.7629 43.9086 83.3241 43.9432L82.0689 44.042C81.6302 44.0765 81.2187 43.7521 81.1498 43.3174Z" fill="url(#paint5_linear_3122_6055)"/>
<path d="M49.18 27.9131C37.2172 29.9244 29.302 40.764 31.2489 53.0563C33.1958 65.3486 44.3075 74.6907 56.605 74.7927L55.848 70.0134C46.2092 69.7204 37.5799 62.342 36.0493 52.6785C34.5188 43.015 40.6271 34.4766 49.937 32.6924L49.18 27.9131Z" stroke="url(#paint6_linear_3122_6055)" stroke-width="0.796919"/>
<path d="M87.954 57.0653L83.9422 57.3811C82.186 69.3808 72.5376 78.7679 59.5305 79.7916C44.5132 80.9735 30.3745 70.5854 26.6894 56.1753L31.8998 55.7653M85.707 40.4155L81.3453 40.7587C75.9054 29.2652 63.5192 21.5554 50.4695 22.5825C35.4332 23.7659 24.8852 36.1259 25.8293 50.7782L30.6127 50.4017" stroke="url(#paint7_linear_3122_6055)" stroke-width="0.796919"/>
<path d="M60.1849 83.9229C41.9364 85.3591 24.8218 71.8671 21.9583 53.7876C19.0948 35.7081 31.5667 19.8875 49.8152 18.4513C65.1332 17.2457 79.6533 26.5592 85.6147 40.2758L88.2747 57.0703C86.7516 71.3759 75.5029 82.7174 60.1849 83.9229Z" stroke="url(#paint8_linear_3122_6055)" stroke-width="0.796919"/>
<path fill-rule="evenodd" clip-rule="evenodd" d="M49.9226 19.1642C49.3903 19.2061 48.8631 19.2605 48.3413 19.3271C47.9106 19.382 47.4893 19.0794 47.4003 18.6511C47.3112 18.2228 47.5881 17.8311 48.0187 17.7762C48.5657 17.7064 49.1181 17.6494 49.6757 17.6055C50.2083 17.5636 50.74 17.5341 51.2705 17.5167C51.7076 17.5024 52.1009 17.8407 52.149 18.2722C52.197 18.7038 51.8817 19.0652 51.4445 19.0795C50.9384 19.0961 50.4309 19.1242 49.9226 19.1642ZM53.6982 18.2925C53.6911 17.8615 54.0417 17.5332 54.4814 17.5592C55.5622 17.623 56.6351 17.7365 57.6973 17.8973C58.1357 17.9637 58.4634 18.3634 58.4291 18.7901C58.3948 19.2167 58.0116 19.5087 57.5732 19.4423C56.5606 19.289 55.5378 19.1808 54.5072 19.1199C54.0675 19.094 53.7053 18.7235 53.6982 18.2925ZM45.7551 18.9436C45.8857 19.3645 45.6513 19.7838 45.2314 19.8803C44.201 20.117 43.1952 20.4029 42.2163 20.7351C41.8113 20.8726 41.3441 20.6522 41.1727 20.2429C41.0013 19.8336 41.1906 19.3903 41.5956 19.2529C42.6226 18.9043 43.6775 18.6045 44.7582 18.3562C45.1781 18.2598 45.6244 18.5227 45.7551 18.9436ZM59.9682 19.0951C60.0437 18.6766 60.4561 18.4236 60.8893 18.53C61.951 18.7907 62.9986 19.0987 64.0292 19.4518C64.4534 19.5972 64.7032 20.0446 64.5872 20.4512C64.4712 20.8578 64.0332 21.0695 63.6091 20.9242C62.6266 20.5875 61.628 20.2939 60.6159 20.0454C60.1827 19.939 59.8927 19.5136 59.9682 19.0951ZM39.643 20.8514C39.8536 21.2451 39.7113 21.708 39.3252 21.8852C38.3811 22.3185 37.4672 22.7976 36.586 23.3194C36.2226 23.5346 35.7273 23.4056 35.4796 23.0313C35.232 22.6569 35.3259 22.179 35.6893 21.9638C36.6136 21.4165 37.5722 20.914 38.5627 20.4593C38.9488 20.2821 39.4324 20.4576 39.643 20.8514ZM66.0632 21.0312C66.2185 20.6401 66.678 20.4713 67.0894 20.6542C68.0952 21.1014 69.0805 21.5925 70.0423 22.125C70.4373 22.3437 70.601 22.8228 70.4078 23.1951C70.2146 23.5674 69.7377 23.6918 69.3427 23.4731C68.4254 22.9653 67.4858 22.497 66.5268 22.0706C66.1154 21.8876 65.9078 21.4223 66.0632 21.0312ZM34.1247 23.9327C34.4068 24.2841 34.3621 24.7723 34.0248 25.0233C33.2017 25.6355 32.4145 26.2886 31.6655 26.9793C31.3574 27.2634 30.8533 27.2301 30.5395 26.905C30.2257 26.5799 30.2211 26.086 30.5292 25.8019C31.3145 25.0777 32.14 24.3929 33.0031 23.7508C33.3404 23.4999 33.8426 23.5813 34.1247 23.9327ZM71.7682 24.0273C71.9974 23.677 72.4874 23.5978 72.8627 23.8503C73.7786 24.4664 74.6676 25.122 75.5269 25.8146C75.8792 26.0986 75.9515 26.5925 75.6884 26.9177C75.4253 27.2429 74.9263 27.2763 74.574 26.9923C73.7544 26.3317 72.9063 25.7064 72.0328 25.1187C71.6575 24.8662 71.539 24.3775 71.7682 24.0273ZM29.41 28.0625C29.7524 28.3584 29.8061 28.8532 29.5301 29.1677C28.8578 29.9336 28.2265 30.7345 27.6386 31.567C27.3973 31.9088 26.9036 31.972 26.536 31.7082C26.1684 31.4444 26.066 30.9535 26.3074 30.6117C26.9237 29.7388 27.5855 28.8993 28.2904 28.0962C28.5664 27.7818 29.0677 27.7667 29.41 28.0625ZM76.887 27.9721C77.1818 27.6748 77.6853 27.6875 78.0116 28.0005C78.8066 28.7632 79.5688 29.5604 80.2953 30.3897C80.5927 30.7292 80.5711 31.2207 80.2471 31.4875C79.9232 31.7544 79.4195 31.6955 79.1221 31.3561C78.4293 30.5652 77.7023 29.8049 76.944 29.0774C76.6177 28.7643 76.5922 28.2695 76.887 27.9721ZM25.6741 33.0767C26.0635 33.3059 26.2135 33.7884 26.0092 34.1543C25.5124 35.0438 25.0612 35.9618 24.658 36.905C24.4927 37.2916 24.0284 37.4491 23.6209 37.2568C23.2134 37.0644 23.017 36.5951 23.1822 36.2086C23.6051 35.2194 24.0782 34.2569 24.599 33.3242C24.8034 32.9583 25.2847 32.8475 25.6741 33.0767ZM81.2415 32.7278C81.5919 32.494 82.0914 32.5986 82.3571 32.9616C83.0032 33.8441 83.6112 34.7559 84.1781 35.6945C84.4097 36.0778 84.2944 36.5496 83.9205 36.7483C83.5467 36.947 83.0559 36.7973 82.8243 36.414C82.2838 35.5192 81.7042 34.65 81.0881 33.8085C80.8224 33.4455 80.8911 32.9617 81.2415 32.7278ZM23.0607 38.7847C23.4824 38.9381 23.7235 39.3896 23.5991 39.7932C23.2974 40.7719 23.045 41.7723 22.844 42.7915C22.7618 43.2083 22.3449 43.4547 21.9129 43.3419C21.4809 43.229 21.1973 42.7997 21.2795 42.3829C21.4904 41.3137 21.7552 40.2643 22.0717 39.2377C22.1961 38.8341 22.6389 38.6313 23.0607 38.7847ZM21.6783 44.9713C22.1164 45.0424 22.4397 45.4453 22.4006 45.8712C22.3061 46.9007 22.2629 47.9454 22.2732 49.0026C22.2775 49.4334 21.9244 49.7593 21.4847 49.7304C21.0449 49.7016 20.685 49.329 20.6808 48.8982C20.6699 47.7895 20.7152 46.6937 20.8144 45.6137C20.8535 45.1878 21.2403 44.9002 21.6783 44.9713ZM21.5843 51.3985C22.0216 51.3851 22.4142 51.7241 22.4613 52.1557C22.5184 52.6787 22.5886 53.204 22.6721 53.7313C22.7556 54.2586 22.8515 54.7819 22.9595 55.3009C23.0485 55.7291 22.7716 56.1209 22.341 56.1758C21.9103 56.2307 21.489 55.9281 21.4 55.4998C21.2868 54.9559 21.1863 54.4075 21.0989 53.8551C21.0114 53.3027 20.9378 52.7522 20.878 52.2041C20.8309 51.7725 21.1471 51.4118 21.5843 51.3985ZM22.7657 57.8182C23.1855 57.7218 23.6319 57.9847 23.7625 58.4056C24.0832 59.4384 24.4522 60.4506 24.8665 61.44C25.0379 61.8493 24.8485 62.2926 24.4435 62.43C24.0385 62.5675 23.5713 62.3471 23.3999 61.9378C22.9653 60.8998 22.5783 59.8381 22.242 58.7549C22.1113 58.3341 22.3458 57.9147 22.7657 57.8182ZM25.1821 63.9829C25.5682 63.8057 26.0519 63.9812 26.2624 64.3749C26.7774 65.3378 27.3366 66.2743 27.9371 67.182C28.1847 67.5564 28.0908 68.0343 27.7274 68.2495C27.364 68.4646 26.8687 68.3356 26.621 67.9613C25.9912 67.0092 25.4045 66.0268 24.8643 65.0167C24.6538 64.623 24.7961 64.1601 25.1821 63.9829ZM87.7258 60.774C88.1526 60.9097 88.4127 61.352 88.3068 61.7619C88.0475 62.7655 87.7397 63.7493 87.3856 64.7106C87.24 65.106 86.7856 65.2857 86.3707 65.1121C85.9557 64.9384 85.7374 64.4772 85.883 64.0819C86.2205 63.1653 86.514 62.2273 86.7612 61.2706C86.8671 60.8607 87.299 60.6384 87.7258 60.774ZM28.7519 69.6527C29.0892 69.4017 29.5914 69.4832 29.8735 69.8345C30.5619 70.6919 31.2892 71.517 32.052 72.3074C32.3658 72.6326 32.3704 73.1265 32.0624 73.4106C31.7543 73.6947 31.2501 73.6614 30.9363 73.3363C30.1365 72.5076 29.3739 71.6423 28.652 70.7432C28.3698 70.3919 28.4146 69.9036 28.7519 69.6527ZM85.7888 66.4764C86.1883 66.6863 86.3631 67.1623 86.1793 67.5396C85.7302 68.4615 85.2361 69.3576 84.6993 70.2251C84.479 70.5812 83.9919 70.6718 83.6113 70.4276C83.2307 70.1834 83.1008 69.6968 83.3211 69.3407C83.8331 68.5133 84.3043 67.6586 84.7326 66.7795C84.9165 66.4022 85.3893 66.2665 85.7888 66.4764ZM33.3312 74.6114C33.6072 74.2969 34.1085 74.2818 34.4508 74.5777C35.2847 75.2983 36.151 75.9813 37.0464 76.6239C37.4141 76.8877 37.5164 77.3787 37.2751 77.7205C37.0337 78.0623 36.5401 78.1255 36.1724 77.8617C35.2337 77.188 34.3255 76.472 33.4513 75.7165C33.1089 75.4206 33.0552 74.9258 33.3312 74.6114ZM82.7721 71.6424C83.1305 71.9187 83.2145 72.4117 82.9597 72.7435C82.3383 73.5526 81.6762 74.3303 80.9757 75.0736C80.6887 75.3782 80.1859 75.3771 79.8527 75.0711C79.5196 74.7651 79.4823 74.2701 79.7693 73.9655C80.4375 73.2565 81.069 72.5147 81.6618 71.7429C81.9166 71.4111 82.4137 71.3661 82.7721 71.6424ZM38.7389 78.6739C38.9432 78.308 39.4245 78.1972 39.8139 78.4264C40.7606 78.9837 41.7328 79.4982 42.7271 79.9675C43.1346 80.1598 43.331 80.6291 43.1658 81.0157C43.0005 81.4022 42.5362 81.5597 42.1287 81.3674C41.0859 80.8753 40.0665 80.3358 39.074 79.7515C38.6846 79.5223 38.5345 79.0398 38.7389 78.6739ZM78.7862 76.0943C79.0911 76.4274 79.0814 76.9202 78.7645 77.1949C77.993 77.8638 77.1856 78.496 76.3445 79.0885C76.0004 79.3309 75.4995 79.2377 75.2256 78.8804C74.9517 78.5231 75.0086 78.0369 75.3526 77.7945C76.1546 77.2295 76.9246 76.6267 77.6604 75.9887C77.9772 75.714 78.4813 75.7613 78.7862 76.0943ZM44.7694 81.6842C44.8938 81.2806 45.3366 81.0778 45.7583 81.2312C46.7811 81.6031 47.8224 81.9283 48.8788 82.2043C49.3108 82.3171 49.5944 82.7464 49.5122 83.1632C49.43 83.58 49.0132 83.8264 48.5812 83.7135C47.4729 83.4241 46.3806 83.0829 45.3078 82.6928C44.886 82.5394 44.645 82.0879 44.7694 81.6842ZM73.9674 79.6756C74.2077 80.0541 74.1041 80.5293 73.7358 80.7371C72.8411 81.2417 71.9157 81.705 70.9617 82.1243C70.5724 82.2954 70.091 82.1128 69.8864 81.7163C69.6819 81.3199 69.8316 80.8599 70.2209 80.6888C71.1303 80.2891 72.0125 79.8474 72.8654 79.3663C73.2337 79.1586 73.727 79.297 73.9674 79.6756ZM51.1946 83.5189C51.2337 83.093 51.6205 82.8054 52.0585 82.8765C53.1173 83.0484 54.1877 83.1709 55.2668 83.2416C55.7066 83.2704 56.0665 83.643 56.0707 84.0738C56.0749 84.5046 55.7218 84.8305 55.2821 84.8017C54.1504 84.7275 53.0276 84.5991 51.9169 84.4188C51.4789 84.3477 51.1555 83.9448 51.1946 83.5189ZM68.4807 82.2532C68.6476 82.664 68.4531 83.1047 68.0462 83.2377C67.0605 83.5597 66.0495 83.8372 65.0153 84.0675C64.5946 84.1612 64.1498 83.8954 64.0219 83.4739C63.894 83.0525 64.1314 82.6348 64.5521 82.5411C65.5383 82.3215 66.5021 82.057 67.4418 81.75C67.8486 81.6171 68.3138 81.8424 68.4807 82.2532ZM57.7669 84.1033C57.7198 83.6718 58.036 83.3111 58.4732 83.2977C59.0031 83.2815 59.5343 83.2526 60.0665 83.2107C60.5749 83.1707 61.0786 83.1193 61.5775 83.0567C62.0084 83.0027 62.4291 83.3062 62.5172 83.7346C62.6053 84.163 62.3275 84.554 61.8967 84.608C61.3738 84.6736 60.846 84.7275 60.3134 84.7694C59.7558 84.8133 59.1992 84.8435 58.6439 84.8605C58.2066 84.8739 57.814 84.5349 57.7669 84.1033Z" fill="url(#paint9_linear_3122_6055)"/>
<path d="M57.2616 79.6055L56.9134 77.4074C45.9355 77.4157 35.7728 70.7766 31.0188 61.1113L28.532 61.307M61.8721 79.2427L61.5182 77.0086C69.1307 75.6758 75.2482 71.1143 78.6431 64.8811L76.0886 63.3391M25.946 48.0118L28.2379 47.8314C28.8789 35.8068 38.0649 26.095 50.7501 25.0967C59.7801 24.386 68.4622 28.2578 74.2984 34.7429L72.5394 36.51" stroke="url(#paint10_linear_3122_6055)" stroke-width="0.796919"/>
<path fill-rule="evenodd" clip-rule="evenodd" d="M65.5766 27.3103C65.9572 27.5002 66.1195 27.9507 65.9443 28.3056C65.7691 28.6605 65.3228 28.7853 64.9419 28.596C64.3575 28.3054 63.763 28.0347 63.1595 27.7847C62.7676 27.6223 62.5473 27.1941 62.6717 26.8161C62.7961 26.4381 63.2181 26.2535 63.6102 26.4152C64.2765 26.6901 64.9325 26.9888 65.5766 27.3103ZM58.6489 24.862C59.0592 24.9515 59.3326 25.3538 59.2614 25.7484C59.1902 26.1431 58.8014 26.3806 58.3909 26.2918C57.7634 26.1561 57.1298 26.0422 56.4912 25.951C56.0775 25.8918 55.7549 25.5266 55.7716 25.1222C55.7883 24.7177 56.1379 24.4272 56.5517 24.4857C57.2569 24.5854 57.9563 24.7111 58.6489 24.862Z" fill="url(#paint11_linear_3122_6055)"/>
<path fill-rule="evenodd" clip-rule="evenodd" d="M74.1296 58.0963C74.2661 57.7231 74.0468 57.2928 73.6516 57.14C73.2564 56.9872 72.8351 57.1698 72.6979 57.5427C72.4874 58.1149 72.2545 58.6788 71.9994 59.233C71.8338 59.5929 71.9939 60.0424 72.3692 60.2434C72.7445 60.4444 73.1928 60.3206 73.359 59.9611C73.6415 59.35 73.8984 58.7279 74.1296 58.0963Z" fill="url(#paint12_linear_3122_6055)"/>
<path fill-rule="evenodd" clip-rule="evenodd" d="M43.6993 23.1451C44.1187 23.0133 44.5886 23.2628 44.7438 23.6893C44.899 24.1159 44.6807 24.558 44.2615 24.6905C43.6179 24.894 42.9871 25.1204 42.37 25.3688C41.9643 25.5321 41.4708 25.3453 41.2612 24.9382C41.0517 24.5311 41.2054 24.0579 41.6108 23.894C42.2915 23.6187 42.988 23.3687 43.6993 23.1451ZM36.8799 26.371C37.2414 26.1335 37.7521 26.2588 38.0123 26.6393C38.2726 27.0199 38.1839 27.5115 37.8228 27.7496C37.2697 28.1142 36.7331 28.4991 36.2139 28.9032C35.8735 29.168 35.3572 29.1101 35.051 28.7625C34.7448 28.4149 34.7646 27.9093 35.1045 27.6439C35.6766 27.1972 36.2688 26.7724 36.8799 26.371Z" fill="url(#paint13_linear_3122_6055)"/>
<path d="M46.2281 59.0243L43.7448 61.4037C41.4102 58.9508 39.8516 55.9009 39.2891 52.6726C38.7266 49.4443 39.1892 46.2038 40.6073 43.3971L43.8262 45.2389C42.7594 47.3923 42.4152 49.8694 42.8452 52.3373C43.2752 54.8052 44.4576 57.1384 46.2281 59.0243Z" stroke="url(#paint14_linear_3122_6055)" stroke-width="0.796919"/>
<path d="M66.3339 57.4419L69.5006 59.3766C71.0103 56.6212 71.5762 53.404 71.1148 50.1678C70.6535 46.9315 69.1884 43.8427 66.927 41.3256L64.3637 43.6225C66.0779 45.557 67.1887 47.9196 67.5414 50.3936C67.8942 52.8676 67.4708 55.3271 66.3339 57.4419Z" stroke="url(#paint15_linear_3122_6055)" stroke-width="0.796919"/>
</g>
<defs>
<filter id="filter0_f_3122_6055" x="-3.67773" y="-3.30078" width="117.355" height="108.975" filterUnits="userSpaceOnUse" color-interpolation-filters="sRGB">
<feFlood flood-opacity="0" result="BackgroundImageFix"/>
<feBlend mode="normal" in="SourceGraphic" in2="BackgroundImageFix" result="shape"/>
<feGaussianBlur stdDeviation="2" result="effect1_foregroundBlur_3122_6055"/>
</filter>
<linearGradient id="paint0_linear_3122_6055" x1="-9.32552" y1="-3.91439" x2="98.244" y2="72.9857" gradientUnits="userSpaceOnUse">
<stop stop-color="#D55FFF"/>
<stop offset="1" stop-color="#4230B1"/>
</linearGradient>
<linearGradient id="paint1_linear_3122_6055" x1="83.444" y1="21.4985" x2="36.597" y2="101.365" gradientUnits="userSpaceOnUse">
<stop stop-color="#995C08"/>
<stop offset="1" stop-color="#683811"/>
</linearGradient>
<linearGradient id="paint2_linear_3122_6055" x1="-40.4846" y1="44.194" x2="135.414" y2="40.4413" gradientUnits="userSpaceOnUse">
<stop stop-color="#2F2450"/>
<stop offset="1" stop-color="#1E1024"/>
</linearGradient>
<linearGradient id="paint3_linear_3122_6055" x1="75.742" y1="49.2807" x2="102.943" y2="51.0792" gradientUnits="userSpaceOnUse">
<stop stop-color="#DC9327"/>
<stop offset="0.04" stop-color="#E8B744"/>
<stop offset="0.08" stop-color="#F2D35B"/>
<stop offset="0.12" stop-color="#F9E76B"/>
<stop offset="0.16" stop-color="#FEF375"/>
<stop offset="0.2" stop-color="#FFF778"/>
<stop offset="0.28" stop-color="#EAC34A"/>
<stop offset="0.34" stop-color="#D99A26"/>
<stop offset="0.36" stop-color="#CB8E24"/>
<stop offset="0.4" stop-color="#B77E21"/>
<stop offset="0.43" stop-color="#AB741F"/>
<stop offset="0.47" stop-color="#A7711E"/>
<stop offset="0.51" stop-color="#AB7622"/>
<stop offset="0.56" stop-color="#B8852E"/>
<stop offset="0.61" stop-color="#CD9E42"/>
<stop offset="0.66" stop-color="#EBC15E"/>
<stop offset="0.68" stop-color="#F6CE69"/>
<stop offset="0.72" stop-color="#F3C962"/>
<stop offset="0.78" stop-color="#EBBA4F"/>
<stop offset="0.85" stop-color="#DEA231"/>
<stop offset="0.87" stop-color="#D99A26"/>
<stop offset="1" stop-color="#F6CE69"/>
</linearGradient>
<linearGradient id="paint4_linear_3122_6055" x1="64.9695" y1="-3.43579" x2="115.726" y2="62.3454" gradientUnits="userSpaceOnUse">
<stop stop-color="#A55FFF"/>
<stop offset="1" stop-color="white"/>
</linearGradient>
<linearGradient id="paint5_linear_3122_6055" x1="75.9018" y1="39.9603" x2="89.2218" y2="43.4108" gradientUnits="userSpaceOnUse">
<stop stop-color="#A55FFF"/>
<stop offset="1" stop-color="white"/>
</linearGradient>
<linearGradient id="paint6_linear_3122_6055" x1="34.7149" y1="-1.05018" x2="89.2673" y2="49.9564" gradientUnits="userSpaceOnUse">
<stop stop-color="#A55FFF"/>
<stop offset="1" stop-color="white"/>
</linearGradient>
<linearGradient id="paint7_linear_3122_6055" x1="49.3479" y1="-14.0635" x2="96.8803" y2="86.0677" gradientUnits="userSpaceOnUse">
<stop stop-color="#A55FFF"/>
<stop offset="1" stop-color="white"/>
</linearGradient>
<linearGradient id="paint8_linear_3122_6055" x1="45.7876" y1="-24.1753" x2="103.161" y2="89.6184" gradientUnits="userSpaceOnUse">
<stop stop-color="#A55FFF"/>
<stop offset="1" stop-color="white"/>
</linearGradient>
<linearGradient id="paint9_linear_3122_6055" x1="44.8468" y1="-25.1407" x2="103.787" y2="89.4254" gradientUnits="userSpaceOnUse">
<stop stop-color="#A55FFF"/>
<stop offset="1" stop-color="white"/>
</linearGradient>
<linearGradient id="paint10_linear_3122_6055" x1="44.5779" y1="-9.31209" x2="93.8833" y2="81.6728" gradientUnits="userSpaceOnUse">
<stop stop-color="#A55FFF"/>
<stop offset="1" stop-color="white"/>
</linearGradient>
<linearGradient id="paint11_linear_3122_6055" x1="50.2197" y1="20.7733" x2="78.0425" y2="34.9615" gradientUnits="userSpaceOnUse">
<stop stop-color="#A55FFF"/>
<stop offset="1" stop-color="white"/>
</linearGradient>
<linearGradient id="paint12_linear_3122_6055" x1="72.8997" y1="65.9678" x2="74.1419" y2="52.563" gradientUnits="userSpaceOnUse">
<stop offset="0.161458" stop-color="#A55FFF"/>
<stop offset="1" stop-color="white"/>
</linearGradient>
<linearGradient id="paint13_linear_3122_6055" x1="28.058" y1="19.8126" x2="73.0402" y2="22.1144" gradientUnits="userSpaceOnUse">
<stop stop-color="#A55FFF"/>
<stop offset="1" stop-color="white"/>
</linearGradient>
<linearGradient id="paint14_linear_3122_6055" x1="39.1864" y1="30.6622" x2="61.1829" y2="46.0879" gradientUnits="userSpaceOnUse">
<stop stop-color="#A55FFF"/>
<stop offset="1" stop-color="white"/>
</linearGradient>
<linearGradient id="paint15_linear_3122_6055" x1="64.3286" y1="28.6834" x2="48.0309" y2="47.4365" gradientUnits="userSpaceOnUse">
<stop stop-color="#A55FFF"/>
<stop offset="1" stop-color="white"/>
</linearGradient>
</defs>
</svg>
