<svg width="189" height="173" viewBox="0 0 189 173" fill="none" xmlns="http://www.w3.org/2000/svg">
<path d="M40.739 145.22C12.9233 115.129 16.7629 66.3418 49.315 36.2509C81.8672 6.16001 130.805 6.16001 158.621 36.2509C186.437 66.3418 182.597 115.129 150.045 145.22C117.493 175.311 68.5548 175.311 40.739 145.22Z" fill="#291D40"/>
<path d="M35.7371 140.625C8.00675 110.627 11.8346 61.9898 44.2868 31.9913C76.739 1.99275 125.527 1.99274 153.257 31.9912C180.987 61.9897 177.159 110.627 144.707 140.625C112.255 170.624 63.4674 170.624 35.7371 140.625Z" fill="url(#paint0_linear_3307_6524)"/>
<path d="M44.2905 31.9955C11.8406 61.9918 8.0131 110.625 35.7414 140.622C63.4697 170.618 112.254 170.618 144.704 140.622C177.153 110.625 180.981 61.9918 153.253 31.9955C125.524 1.99916 76.7403 1.99917 44.2905 31.9955Z" stroke="#F8E4FF" stroke-width="0.486014"/>
<path d="M24.7783 101.429C19.3788 63.7039 46.2108 26.3583 84.7094 18.0156C123.208 9.67278 158.794 33.492 164.194 71.2174C169.593 108.943 142.761 146.288 104.263 154.631C65.7643 162.974 30.1778 139.155 24.7783 101.429Z" fill="url(#paint1_linear_3307_6524)"/>
<path d="M111.62 68.6379H101.523L102.17 60.4138M116.47 80.757H100.569L100.02 87.7337M101.581 68.569L99.6449 70.2164C100.814 71.4015 101.458 72.9732 101.323 74.6975C101.187 76.4217 100.295 77.9934 98.9395 79.1786L100.616 80.826" stroke="#F7CE69" stroke-width="0.729021"/>
<path d="M81.1027 68.6382H91.2005L91.8477 60.4141M74.3458 80.7573H90.2467L89.6976 87.734M91.1529 68.5692L92.8298 70.2166C91.4746 71.4018 90.5823 72.9735 90.4466 74.6977C90.3109 76.422 90.9558 77.9937 92.1245 79.1788L90.1882 80.8262" stroke="#F7CE69" stroke-width="0.729021"/>
<path d="M100.219 60.605L99.6838 67.4084C97.8835 68.9247 95.2452 68.9247 93.6836 67.4084L94.2191 60.605" stroke="#F7CE69" stroke-width="0.729021"/>
<path d="M97.9102 89.9443L98.4457 83.141C96.8841 81.6246 94.2458 81.6246 92.4455 83.141L91.9101 89.9443" stroke="#F7CE69" stroke-width="0.729021"/>
<path d="M113.487 82.1902H102.119L101.709 87.4027" stroke="#F7CE69" stroke-width="0.729021"/>
<path d="M77.1033 82.1902H88.4707L88.0605 87.4027" stroke="#F7CE69" stroke-width="0.729021"/>
<path d="M98.7814 61.6965L98.4326 66.128C97.4315 67.1157 95.9822 67.1157 95.1365 66.128L95.4853 61.6965" stroke="#F7CE69" stroke-width="0.729021"/>
<path d="M96.6441 88.8535L96.9929 84.422C96.1473 83.4343 94.6979 83.4343 93.6968 84.422L93.3481 88.8535" stroke="#F7CE69" stroke-width="0.729021"/>
<path d="M110.464 70.7517H103.02C103.885 71.7954 104.353 73.1794 104.233 74.6978C104.114 76.2162 103.428 77.6002 102.399 78.6439H111.732" stroke="#F7CE69" stroke-width="0.729021"/>
<path d="M81.9267 70.752H89.3709C88.3414 71.7956 87.6555 73.1797 87.536 74.698C87.4165 76.2164 87.8846 77.6005 88.7498 78.6441H79.416" stroke="#F7CE69" stroke-width="0.729021"/>
<path d="M114.288 66.9889H103.316L103.643 62.8291" stroke="#F7CE69" stroke-width="0.729021"/>
<path d="M78.6949 66.9889H89.6671L89.9945 62.8291" stroke="#F7CE69" stroke-width="0.729021"/>
<path d="M24.4666 101.501C19.0468 63.6343 45.9793 26.149 84.6219 17.775C123.265 9.40104 158.984 33.3094 164.404 71.1759C169.824 109.042 142.891 146.528 104.249 154.902C65.6059 163.276 29.8863 139.367 24.4666 101.501Z" fill="url(#paint2_linear_3307_6524)"/>
<path d="M36.1025 90.3833L36.1033 90.3733H35.4819L36.1025 90.3833Z" fill="url(#paint3_linear_3307_6524)"/>
<path d="M48.56 36.6137C18.8696 64.0593 15.3675 108.557 40.7379 136.003C66.1084 163.448 110.744 163.449 140.434 136.003C170.125 108.557 173.627 64.0593 148.257 36.6137C122.886 9.16816 78.2505 9.16817 48.56 36.6137Z" stroke="url(#paint4_linear_3307_6524)" stroke-width="2.2555"/>
<path d="M48.0701 36.0838C18.063 63.822 14.5236 108.795 40.1646 136.533C65.8056 164.271 110.917 164.271 140.924 136.533C170.931 108.795 174.471 63.822 148.83 36.0837C123.189 8.34547 78.0772 8.34548 48.0701 36.0838Z" stroke="url(#paint5_linear_3307_6524)" stroke-width="0.751833"/>
<path fill-rule="evenodd" clip-rule="evenodd" d="M99.9775 58.396H93.4822L93.0525 63.8552C86.5945 65.3457 81.4309 71.0068 80.8992 77.7628C80.278 85.6556 86.2136 92.0539 94.1567 92.0539C102.1 92.0539 109.042 85.6556 109.664 77.7628C110.2 70.9531 105.855 65.2557 99.5506 63.8205L99.9775 58.396ZM87.1185 77.7628C86.766 82.2425 90.1349 85.8739 94.6431 85.8739C99.1513 85.8739 103.092 82.2425 103.444 77.7628C103.797 73.2832 100.428 69.6517 95.9198 69.6517C91.4116 69.6517 87.4711 73.2832 87.1185 77.7628ZM87.1826 100.976C88.6776 102.587 90.8061 103.493 93.0996 103.493C95.3932 103.493 97.6641 102.587 99.4128 100.976C101.161 99.3643 102.245 97.1785 102.424 94.8995H108.189C107.89 98.6979 106.085 102.341 103.171 105.027C101.118 106.919 98.6334 108.226 96.0079 108.834L95.5751 114.333H89.0798L89.5096 108.872C86.9163 108.281 84.5787 106.958 82.787 105.027C80.2955 102.341 79.0636 98.6979 79.3626 94.8995H85.1279C84.9486 97.1785 85.6875 99.3643 87.1826 100.976Z" fill="#C79FD5"/>
<path d="M106.571 93.515L108.188 94.9001L107.951 95.1778L105.723 95.158L106.571 93.515Z" fill="#C79FD4"/>
<path d="M98.3558 57.0188L99.975 58.3972L99.793 58.7415C99.5627 58.7105 99.0986 58.6483 99.0844 58.647C99.0701 58.6458 97.5333 58.6495 97.4577 58.5376L98.3558 57.0188Z" fill="#C79FD4"/>
<path d="M83.5137 93.5148L85.1251 94.8994L84.4639 95.3698L82.37 95.116L83.5137 93.5148Z" fill="#C79FD4"/>
<path d="M87.466 112.952L89.0761 114.331L89.5131 114.084L89.4669 112.208L87.466 112.952Z" fill="#C79FD4"/>
<path fill-rule="evenodd" clip-rule="evenodd" d="M98.3605 57.0151H91.8652L91.4355 62.4744C84.9775 63.9648 79.8139 69.6259 79.2822 76.382C78.661 84.2748 84.5966 90.673 92.5397 90.673C100.483 90.673 107.425 84.2748 108.047 76.382C108.583 69.5722 104.238 63.8749 97.9336 62.4396L98.3605 57.0151ZM85.5015 76.382C85.149 80.8617 88.5179 84.4931 93.0261 84.4931C97.5343 84.4931 101.475 80.8617 101.827 76.382C102.18 71.9023 98.811 68.2708 94.3028 68.2708C89.7946 68.2708 85.8541 71.9023 85.5015 76.382ZM85.5655 99.595C87.0605 101.207 89.1891 102.112 91.4826 102.112C93.7762 102.112 96.0471 101.207 97.7958 99.595C99.5444 97.9835 100.628 95.7977 100.807 93.5187H106.572C106.273 97.317 104.468 100.96 101.554 103.646C99.5009 105.538 97.0164 106.846 94.3909 107.454L93.9581 112.952H87.4628L87.8926 107.491C85.2993 106.9 82.9617 105.577 81.17 103.646C78.6785 100.96 77.4466 97.317 77.7456 93.5187H83.5109C83.3316 95.7977 84.0705 97.9835 85.5655 99.595Z" fill="#F6DEFF"/>
<path d="M34.4502 92.502L59.7795 92.384C61.2364 107.423 72.6765 119.128 87.9305 120.825L87.2359 129.651C68.6958 128.015 54.4457 114.781 51.3859 97.1207L34.5892 97.1797M35.3874 80.5944L60.694 80.4764C64.4785 65.3572 77.8198 53.5793 93.4094 51.8987L94.1039 43.074C92.4007 43.2202 90.7176 43.4615 89.0606 43.7927C72.3526 47.1326 58.3016 59.6092 53.0262 75.7646L35.8607 75.8826" stroke="url(#paint6_linear_3307_6524)" stroke-width="1.45804"/>
<path fill-rule="evenodd" clip-rule="evenodd" d="M45.6846 75.7648C45.7478 74.9621 45.1462 74.3113 44.341 74.3113H42.0374C41.2322 74.3113 40.5282 74.9621 40.465 75.7648C40.4018 76.5676 41.0034 77.2184 41.8086 77.2184H44.1122C44.9174 77.2184 45.6214 76.5676 45.6846 75.7648Z" fill="url(#paint7_linear_3307_6524)"/>
<path d="M101.785 43.0789C123.893 45.0302 139.886 63.6649 138.1 86.365C136.313 109.065 117.387 127.7 94.9716 129.651L95.6662 120.825C113.205 118.907 127.885 104.211 129.29 86.365C130.694 68.5195 118.327 53.8228 101.09 51.9048L101.785 43.0789Z" stroke="url(#paint8_linear_3307_6524)" stroke-width="1.45804"/>
<path d="M35.2476 101.818H42.6103C47.5361 123.453 66.4819 139.189 90.3532 139.189C117.914 139.189 142.211 118.212 146.864 91.4001H137.302M36.9559 71.1266H44.9609C53.2331 49.382 74.7182 33.5417 98.6678 33.5417C126.263 33.5417 147.277 54.5717 147.658 81.4325H138.879" stroke="url(#paint9_linear_3307_6524)" stroke-width="1.45804"/>
<path d="M89.7527 146.818C123.243 146.818 152.523 119.753 155.15 86.3653C157.778 52.9781 132.759 25.9123 99.2682 25.9123C71.1269 25.9123 45.957 45.0232 37.0769 70.9379C34.1343 80.4573 33.2268 90.3338 34.4152 99.9075L34.6503 101.802C39.4549 127.712 61.6147 146.818 89.7527 146.818Z" stroke="url(#paint10_linear_3307_6524)" stroke-width="1.45804"/>
<path fill-rule="evenodd" clip-rule="evenodd" d="M99.1747 27.2283C100.152 27.2283 101.121 27.2518 102.082 27.2983C102.876 27.3367 103.601 26.7242 103.702 25.9303C103.803 25.1363 103.241 24.4616 102.448 24.4232C101.44 24.3745 100.425 24.3499 99.4012 24.3499C98.4238 24.3499 97.4498 24.3723 96.4797 24.4168C95.6803 24.4535 95.0115 25.1269 94.9858 25.9209C94.9601 26.7149 95.5872 27.3288 96.3866 27.2922C97.3121 27.2497 98.2417 27.2283 99.1747 27.2283ZM92.163 26.1803C92.1141 25.3932 91.4274 24.8446 90.6291 24.9551C88.667 25.2267 86.7264 25.5876 84.812 26.0336C84.0219 26.2176 83.4817 26.9937 83.6054 27.7669C83.7292 28.5402 84.4701 29.0178 85.2602 28.8338C87.0851 28.4087 88.9352 28.0646 90.8062 27.8056C91.6044 27.6951 92.2119 26.9674 92.163 26.1803ZM106.744 26.2276C106.566 27.014 107.054 27.7453 107.834 27.8609C109.747 28.1448 111.623 28.5218 113.456 28.9873C114.215 29.1799 115.035 28.7109 115.289 27.9397C115.543 27.1685 115.134 26.3872 114.375 26.1947C112.452 25.7063 110.485 25.3109 108.478 25.0132C107.699 24.8975 106.922 25.4412 106.744 26.2276ZM80.842 28.5442C80.6442 27.7918 79.8557 27.3895 79.0808 27.6457C77.1816 28.2736 75.3151 28.9858 73.4861 29.7778C72.7333 30.1038 72.3419 30.9558 72.6118 31.6807C72.8818 32.4056 73.7109 32.729 74.4637 32.403C76.2074 31.648 77.9867 30.969 79.7969 30.3705C80.5719 30.1143 81.0397 29.2967 80.842 28.5442ZM118.166 28.8299C117.839 29.5783 118.165 30.4021 118.894 30.6699C120.679 31.3248 122.414 32.0674 124.096 32.8927C124.79 33.233 125.675 32.9266 126.073 32.2083C126.471 31.49 126.231 30.6318 125.537 30.2915C123.773 29.4259 121.952 28.6469 120.081 27.9598C119.351 27.692 118.494 28.0816 118.166 28.8299ZM70.0029 32.9505C69.6634 32.2594 68.8011 32.0175 68.077 32.4102C66.3067 33.3703 64.58 34.4074 62.9022 35.5167C62.213 35.9724 61.9833 36.8697 62.3892 37.521C62.795 38.1723 63.6826 38.3309 64.3718 37.8752C65.9719 36.8172 67.6185 35.8282 69.3065 34.9128C70.0307 34.5201 70.3424 33.6415 70.0029 32.9505ZM128.674 33.658C128.21 34.3394 128.361 35.2235 129.013 35.6328C130.602 36.6314 132.131 37.7095 133.597 38.8618C134.199 39.3358 135.114 39.2028 135.64 38.5647C136.165 37.9266 136.103 37.0251 135.5 36.5511C133.964 35.343 132.36 34.2125 130.694 33.1653C130.042 32.756 129.138 32.9766 128.674 33.658ZM60.0273 39.2342C59.559 38.6283 58.6538 38.554 58.0055 39.0685C56.4235 40.3237 54.896 41.6471 53.4282 43.0337C52.8263 43.6023 52.7653 44.5135 53.2919 45.0689C53.8185 45.6243 54.7334 45.6136 55.3353 45.0451C56.7354 43.7224 58.1924 42.4601 59.7014 41.2628C60.3497 40.7484 60.4956 39.8401 60.0273 39.2342ZM137.866 40.5139C137.284 41.1027 137.257 42.0128 137.806 42.5468C139.142 43.8474 140.408 45.2175 141.6 46.6516C142.089 47.2404 142.999 47.2848 143.632 46.7509C144.264 46.2169 144.38 45.3067 143.891 44.718C142.642 43.2144 141.314 41.7781 139.913 40.4146C139.365 39.8806 138.448 39.9251 137.866 40.5139ZM51.2571 47.1642C50.6767 46.6641 49.7602 46.7596 49.21 47.3775C47.8694 48.8827 46.5935 50.4462 45.3875 52.0631C44.8939 52.7249 45.0038 53.6183 45.633 54.0585C46.2622 54.4987 47.1725 54.319 47.6661 53.6572C48.8163 52.1152 50.0332 50.6241 51.3118 49.1883C51.862 48.5705 51.8375 47.6643 51.2571 47.1642ZM145.4 49.1232C144.723 49.5972 144.518 50.4987 144.944 51.1368C145.977 52.688 146.932 54.2974 147.803 55.96C148.16 56.6414 149.029 56.862 149.745 56.4527C150.461 56.0434 150.752 55.1593 150.395 54.4779C149.481 52.7344 148.48 51.0467 147.396 49.4203C146.971 48.7822 146.077 48.6492 145.4 49.1232ZM43.9973 56.4635C43.3246 56.0872 42.4286 56.3498 41.9961 57.0499C40.9444 58.7525 39.9663 60.5027 39.0669 62.2961C38.6996 63.0285 38.9777 63.8726 39.6881 64.1813C40.3985 64.49 41.2722 64.1465 41.6395 63.4141C42.4969 61.7045 43.4294 60.0358 44.4322 58.4125C44.8647 57.7123 44.67 56.8397 43.9973 56.4635ZM150.986 59.1591C150.239 59.4995 149.864 60.3577 150.149 61.076C150.84 62.8178 151.444 64.6063 151.957 66.4364C152.166 67.1848 152.962 67.5743 153.734 67.3065C154.506 67.0387 154.961 66.2149 154.751 65.4666C154.213 63.5466 153.58 61.6705 152.855 59.8435C152.57 59.1252 151.733 58.8188 150.986 59.1591ZM154.396 70.2449C153.607 70.4375 153.075 71.2188 153.207 71.9899C153.528 73.8541 153.756 75.7533 153.889 77.6831C153.943 78.4695 154.634 79.0132 155.432 78.8975C156.23 78.7818 156.833 78.0506 156.779 77.2642C156.639 75.2403 156.399 73.2481 156.064 71.2926C155.931 70.5214 155.184 70.0524 154.396 70.2449ZM155.49 81.9542C154.69 81.9926 154.023 82.6673 153.999 83.4613C153.97 84.4233 153.917 85.3915 153.84 86.3654C153.764 87.3392 153.664 88.3074 153.542 89.2694C153.441 90.0634 154.002 90.7381 154.795 90.7765C155.589 90.8148 156.314 90.2024 156.415 89.4084C156.543 88.4001 156.647 87.3855 156.728 86.3654C156.808 85.3452 156.863 84.3306 156.894 83.3223C156.918 82.5284 156.289 81.9159 155.49 81.9542ZM154.256 93.8332C153.477 93.7175 152.7 94.2612 152.523 95.0476C152.086 96.9774 151.558 98.8767 150.945 100.741C150.691 101.512 151.1 102.293 151.858 102.486C152.617 102.678 153.437 102.209 153.691 101.438C154.335 99.4826 154.888 97.4904 155.346 95.4665C155.524 94.6801 155.036 93.9489 154.256 93.8332ZM150.734 105.424C150.004 105.156 149.147 105.546 148.82 106.294C148.019 108.124 147.133 109.913 146.168 111.655C145.77 112.373 146.01 113.231 146.704 113.572C147.398 113.912 148.283 113.605 148.68 112.887C149.693 111.06 150.622 109.184 151.462 107.264C151.789 106.516 151.463 105.692 150.734 105.424ZM36.1962 108.549C35.4372 108.858 35.0262 109.702 35.2783 110.435C35.8954 112.228 36.598 113.978 37.3818 115.681C37.7041 116.381 38.5587 116.643 39.2907 116.267C40.0226 115.891 40.3547 115.018 40.0323 114.318C39.285 112.695 38.6152 111.026 38.0269 109.317C37.7749 108.584 36.9553 108.241 36.1962 108.549ZM145.037 116.278C144.385 115.869 143.481 116.089 143.017 116.771C141.884 118.433 140.676 120.043 139.398 121.594C138.873 122.232 138.935 123.134 139.538 123.608C140.141 124.081 141.055 123.948 141.581 123.31C142.921 121.684 144.188 119.996 145.375 118.253C145.84 117.571 145.688 116.687 145.037 116.278ZM40.5478 118.672C39.8493 119.112 39.5987 120.006 39.9882 120.668C40.9397 122.285 41.9695 123.848 43.0731 125.353C43.5261 125.971 44.4276 126.067 45.0867 125.566C45.7458 125.066 45.9129 124.16 45.46 123.542C44.4073 122.107 43.4252 120.615 42.5178 119.073C42.1283 118.412 41.2463 118.232 40.5478 118.672ZM137.396 125.98C136.847 125.446 135.931 125.49 135.349 126.079C133.932 127.513 132.449 128.883 130.908 130.184C130.276 130.718 130.16 131.628 130.649 132.217C131.138 132.806 132.048 132.85 132.68 132.316C134.296 130.953 135.85 129.516 137.336 128.013C137.918 127.424 137.945 126.514 137.396 125.98ZM46.7917 127.662C46.1776 128.217 46.0952 129.128 46.6076 129.697C47.8572 131.084 49.1764 132.407 50.5608 133.662C51.1281 134.177 52.045 134.102 52.6087 133.497C53.1724 132.891 53.1694 131.982 52.6021 131.468C51.2816 130.271 50.0232 129.008 48.8313 127.686C48.3189 127.117 47.4058 127.106 46.7917 127.662ZM128.116 134.166C127.691 133.528 126.797 133.395 126.119 133.869C124.473 135.021 122.773 136.099 121.027 137.098C120.311 137.507 120.021 138.391 120.377 139.073C120.734 139.754 121.604 139.975 122.32 139.565C124.151 138.518 125.933 137.388 127.659 136.18C128.337 135.706 128.541 134.804 128.116 134.166ZM54.7009 135.21C54.1926 135.861 54.281 136.758 54.8985 137.214C56.4017 138.323 57.9651 139.36 59.5843 140.321C60.2466 140.713 61.1469 140.471 61.5952 139.78C62.0435 139.089 61.87 138.211 61.2077 137.818C59.6638 136.902 58.1729 135.913 56.7392 134.855C56.1218 134.4 55.2092 134.558 54.7009 135.21ZM117.549 140.522C117.264 139.804 116.427 139.498 115.68 139.838C113.868 140.663 112.015 141.406 110.128 142.061C109.356 142.329 108.9 143.152 109.11 143.901C109.32 144.649 110.116 145.039 110.887 144.771C112.867 144.084 114.81 143.305 116.711 142.439C117.459 142.099 117.833 141.241 117.549 140.522ZM64.0043 141.05C63.6202 141.775 63.8776 142.627 64.5791 142.953C66.2834 143.745 68.0378 144.457 69.8381 145.085C70.5727 145.341 71.4245 144.939 71.7407 144.186C72.0569 143.434 71.7178 142.616 70.9831 142.36C69.2671 141.762 67.5947 141.083 65.9699 140.328C65.2684 140.002 64.3884 140.325 64.0043 141.05ZM106.093 144.791C105.96 144.02 105.213 143.551 104.425 143.743C102.518 144.209 100.583 144.586 98.6252 144.87C97.8273 144.985 97.2243 145.717 97.2785 146.503C97.3326 147.289 98.0234 147.833 98.8213 147.718C100.875 147.42 102.904 147.024 104.904 146.536C105.693 146.343 106.225 145.562 106.093 144.791ZM74.3818 144.964C74.1364 145.737 74.5544 146.513 75.3156 146.697C77.1598 147.143 79.0435 147.504 80.9629 147.776C81.7438 147.886 82.5169 147.338 82.6897 146.55C82.8625 145.763 82.3695 145.036 81.5887 144.925C79.7585 144.666 77.9625 144.322 76.2045 143.897C75.4434 143.713 74.6273 144.191 74.3818 144.964ZM94.1889 146.8C94.2129 146.007 93.5843 145.394 92.7849 145.432C91.8162 145.479 90.8431 145.502 89.8663 145.502C88.9333 145.502 88.0071 145.481 87.0882 145.439C86.2947 145.402 85.5709 146.016 85.4716 146.81C85.3723 147.604 85.9352 148.277 86.7288 148.314C87.6919 148.358 88.6624 148.381 89.6398 148.381C90.6631 148.381 91.6827 148.356 92.698 148.307C93.4974 148.269 94.1649 147.594 94.1889 146.8Z" fill="url(#paint11_linear_3307_6524)"/>
<path d="M94.4649 138.524L94.7843 134.465C114.809 132.904 132.392 119.336 139.676 101.024H144.24M86.0035 138.524L86.3282 134.398C72.2519 133.06 60.4392 125.618 53.3522 114.736L57.7901 111.557M147.048 76.4028H142.842C139.946 54.5625 121.797 38.1672 98.5169 38.1672C81.9445 38.1672 66.6646 46.4755 56.9506 59.1418L60.4125 62.1125" stroke="url(#paint12_linear_3307_6524)" stroke-width="1.45804"/>
<path fill-rule="evenodd" clip-rule="evenodd" d="M71.7917 44.3331C71.1248 44.7341 70.8934 45.5792 71.2639 46.2014C71.6344 46.8235 72.4665 46.9872 73.1339 46.5871C74.1581 45.9732 75.2036 45.3941 76.2686 44.8514C76.9601 44.4991 77.3004 43.6864 77.0192 43.0148C76.7381 42.3432 75.9419 42.067 75.2499 42.4183C74.074 43.0153 72.9205 43.6542 71.7917 44.3331ZM84.0762 38.8732C83.3405 39.0952 82.8996 39.8682 83.0862 40.5779C83.2727 41.2875 84.016 41.6649 84.752 41.4441C85.8771 41.1064 87.0163 40.8077 88.168 40.5496C88.9141 40.3824 89.45 39.67 89.3615 38.9347C89.273 38.1994 88.5936 37.7197 87.8473 37.8858C86.5754 38.1688 85.3177 38.4985 84.0762 38.8732Z" fill="url(#paint13_linear_3307_6524)"/>
<path fill-rule="evenodd" clip-rule="evenodd" d="M60.6107 101.713C60.3081 101.052 60.6464 100.236 61.3453 99.9004C62.0442 99.565 62.8389 99.8376 63.1426 100.498C63.6088 101.512 64.1144 102.507 64.6592 103.481C65.0129 104.114 64.7855 104.956 64.1299 105.377C63.4742 105.797 62.6386 105.636 62.2839 105.004C61.6809 103.93 61.123 102.832 60.6107 101.713Z" fill="url(#paint14_linear_3307_6524)"/>
<path fill-rule="evenodd" clip-rule="evenodd" d="M111.097 33.5956C110.313 33.4154 109.492 33.9379 109.27 34.7382C109.048 35.5386 109.51 36.3136 110.294 36.4951C111.497 36.7739 112.68 37.0963 113.841 37.4607C114.604 37.7003 115.478 37.2887 115.801 36.5161C116.125 35.7435 115.777 34.9026 115.014 34.6618C113.733 34.2574 112.427 33.9013 111.097 33.5956ZM123.999 38.5006C123.305 38.1193 122.392 38.4211 121.971 39.1526C121.551 39.884 121.784 40.768 122.477 41.1505C123.538 41.7362 124.572 42.3612 125.577 43.0236C126.236 43.4578 127.169 43.2781 127.678 42.6001C128.186 41.9221 128.077 41.0028 127.419 40.5675C126.312 39.8348 125.171 39.1451 123.999 38.5006Z" fill="url(#paint15_linear_3307_6524)"/>
<path d="M111.635 99.4009L116.506 103.384C120.412 98.5752 122.817 92.7885 123.38 86.8195C123.942 80.8506 122.633 75.0064 119.644 70.0906L114.037 73.912C116.292 77.6867 117.276 82.1555 116.846 86.7185C116.415 91.2815 114.594 95.7068 111.635 99.4009Z" stroke="url(#paint16_linear_3307_6524)" stroke-width="1.45804"/>
<path d="M74.7357 99.4007L69.2376 103.384C66.0885 98.575 64.5944 92.7883 64.9714 86.8193C65.3484 80.8503 67.5771 75.0062 71.3405 70.0904L76.3456 73.9118C73.4966 77.6865 71.8097 82.1552 71.5215 86.7182C71.2333 91.2813 72.3585 95.7066 74.7357 99.4007Z" stroke="url(#paint17_linear_3307_6524)" stroke-width="1.45804"/>
<defs>
<linearGradient id="paint0_linear_3307_6524" x1="203.928" y1="-23.3711" x2="18.7646" y2="132.333" gradientUnits="userSpaceOnUse">
<stop stop-color="#D55FFF"/>
<stop offset="1" stop-color="#4230B1"/>
</linearGradient>
<linearGradient id="paint1_linear_3307_6524" x1="38.3681" y1="36.2976" x2="135.28" y2="175.245" gradientUnits="userSpaceOnUse">
<stop stop-color="#995C08"/>
<stop offset="1" stop-color="#683811"/>
</linearGradient>
<linearGradient id="paint2_linear_3307_6524" x1="267.666" y1="59.9035" x2="-53.7041" y2="78.3087" gradientUnits="userSpaceOnUse">
<stop stop-color="#2F2450"/>
<stop offset="1" stop-color="#1E1024"/>
</linearGradient>
<linearGradient id="paint3_linear_3307_6524" x1="56.4043" y1="85.8658" x2="7.04838" y2="93.0509" gradientUnits="userSpaceOnUse">
<stop stop-color="#DC9327"/>
<stop offset="0.04" stop-color="#E8B744"/>
<stop offset="0.08" stop-color="#F2D35B"/>
<stop offset="0.12" stop-color="#F9E76B"/>
<stop offset="0.16" stop-color="#FEF375"/>
<stop offset="0.2" stop-color="#FFF778"/>
<stop offset="0.28" stop-color="#EAC34A"/>
<stop offset="0.34" stop-color="#D99A26"/>
<stop offset="0.36" stop-color="#CB8E24"/>
<stop offset="0.4" stop-color="#B77E21"/>
<stop offset="0.43" stop-color="#AB741F"/>
<stop offset="0.47" stop-color="#A7711E"/>
<stop offset="0.51" stop-color="#AB7622"/>
<stop offset="0.56" stop-color="#B8852E"/>
<stop offset="0.61" stop-color="#CD9E42"/>
<stop offset="0.66" stop-color="#EBC15E"/>
<stop offset="0.68" stop-color="#F6CE69"/>
<stop offset="0.72" stop-color="#F3C962"/>
<stop offset="0.78" stop-color="#EBBA4F"/>
<stop offset="0.85" stop-color="#DEA231"/>
<stop offset="0.87" stop-color="#D99A26"/>
<stop offset="1" stop-color="#F6CE69"/>
</linearGradient>
<linearGradient id="paint4_linear_3307_6524" x1="34.6208" y1="53.0972" x2="142.377" y2="109.474" gradientUnits="userSpaceOnUse">
<stop stop-color="#421A92"/>
<stop offset="1" stop-color="#4324A2" stop-opacity="0"/>
</linearGradient>
<linearGradient id="paint5_linear_3307_6524" x1="28.9994" y1="53.5396" x2="206.079" y2="133.119" gradientUnits="userSpaceOnUse">
<stop stop-color="#805EDC"/>
<stop offset="0.732417" stop-color="#805EDC" stop-opacity="0"/>
</linearGradient>
<linearGradient id="paint6_linear_3307_6524" x1="67.7978" y1="-11.8332" x2="-14.429" y2="117.085" gradientUnits="userSpaceOnUse">
<stop stop-color="#A55FFF"/>
<stop offset="1" stop-color="white"/>
</linearGradient>
<linearGradient id="paint7_linear_3307_6524" x1="54.7748" y1="68.8884" x2="30.975" y2="77.094" gradientUnits="userSpaceOnUse">
<stop stop-color="#A55FFF"/>
<stop offset="1" stop-color="white"/>
</linearGradient>
<linearGradient id="paint8_linear_3307_6524" x1="124.011" y1="-11.8253" x2="31.8318" y2="89.0395" gradientUnits="userSpaceOnUse">
<stop stop-color="#A55FFF"/>
<stop offset="1" stop-color="white"/>
</linearGradient>
<linearGradient id="paint9_linear_3307_6524" x1="95.4531" y1="-33.46" x2="23.1296" y2="155.998" gradientUnits="userSpaceOnUse">
<stop stop-color="#A55FFF"/>
<stop offset="1" stop-color="white"/>
</linearGradient>
<linearGradient id="paint10_linear_3307_6524" x1="98.646" y1="-52.4149" x2="12.1961" y2="164.908" gradientUnits="userSpaceOnUse">
<stop stop-color="#A55FFF"/>
<stop offset="1" stop-color="white"/>
</linearGradient>
<linearGradient id="paint11_linear_3307_6524" x1="102.073" y1="-54.3106" x2="11.0149" y2="163.114" gradientUnits="userSpaceOnUse">
<stop stop-color="#A55FFF"/>
<stop offset="1" stop-color="white"/>
</linearGradient>
<linearGradient id="paint12_linear_3307_6524" x1="104.835" y1="-25.4789" x2="27.9651" y2="147.551" gradientUnits="userSpaceOnUse">
<stop stop-color="#A55FFF"/>
<stop offset="1" stop-color="white"/>
</linearGradient>
<linearGradient id="paint13_linear_3307_6524" x1="98.8638" y1="30.2054" x2="50.1528" y2="60.0781" gradientUnits="userSpaceOnUse">
<stop stop-color="#A55FFF"/>
<stop offset="1" stop-color="white"/>
</linearGradient>
<linearGradient id="paint14_linear_3307_6524" x1="63.9839" y1="115.894" x2="59.7939" y2="91.6225" gradientUnits="userSpaceOnUse">
<stop offset="0.161458" stop-color="#A55FFF"/>
<stop offset="1" stop-color="white"/>
</linearGradient>
<linearGradient id="paint15_linear_3307_6524" x1="139.148" y1="25.272" x2="57.4326" y2="35.9276" gradientUnits="userSpaceOnUse">
<stop stop-color="#A55FFF"/>
<stop offset="1" stop-color="white"/>
</linearGradient>
<linearGradient id="paint16_linear_3307_6524" x1="120.407" y1="46.6588" x2="82.5011" y2="77.9521" gradientUnits="userSpaceOnUse">
<stop stop-color="#A55FFF"/>
<stop offset="1" stop-color="white"/>
</linearGradient>
<linearGradient id="paint17_linear_3307_6524" x1="74.2651" y1="46.6585" x2="106.683" y2="78.524" gradientUnits="userSpaceOnUse">
<stop stop-color="#A55FFF"/>
<stop offset="1" stop-color="white"/>
</linearGradient>
</defs>
</svg>
