<svg viewBox="0 0 280 280" fill="none" xmlns="http://www.w3.org/2000/svg">
<mask id="mask0_3129_7502" style="mask-type:alpha" maskUnits="userSpaceOnUse" x="46" y="175" width="207" height="91">
<path d="M104.711 178.024H171.244L175.645 177.154L222.838 175.277L224.879 175.459L233.063 177.154L239.479 180.653L244.966 185.921L248.903 192.428L251.546 201.232L252.074 207.903L246.169 211.986L231.496 221.72L217.297 229.138L195.26 240.603L181.662 247.202L162.869 255.513L148.543 261.383C145.48 262.367 139.33 264.343 139.228 264.372C139.126 264.401 131.555 265.101 127.781 265.447C124.744 265.137 118.635 264.532 118.504 264.591C118.372 264.649 112.543 263.072 109.645 262.276L100.714 258.375L85.2204 248.623L70.1645 237.341L55.0722 224.399L46.9066 216.86L47.0019 209.403L47.9142 203.982L50.004 197.978L53.1862 192.749L57.005 188.654L62.1602 185.186L66.1063 183.531L68.3339 183.011L104.711 178.024Z" fill="url(#paint0_linear_3129_7502)"/>
</mask>
<g mask="url(#mask0_3129_7502)">
<path d="M104.711 178.024H171.244L175.645 177.154L222.838 175.277L224.879 175.459L233.063 177.154L239.479 180.653L244.966 185.921L248.903 192.428L251.546 201.232L252.074 207.903L246.169 211.986L231.496 221.72L217.297 229.138L195.26 240.603L181.662 247.202L162.869 255.513L148.543 261.383C145.48 262.367 139.33 264.343 139.228 264.372C139.126 264.401 131.555 265.101 127.781 265.447C124.744 265.137 118.635 264.532 118.504 264.591C118.372 264.649 112.543 263.072 109.645 262.276L100.714 258.375L85.2204 248.623L70.1645 237.341L55.0722 224.399L46.9066 216.86L47.0019 209.403L47.9142 203.982L50.004 197.978L53.1862 192.749L57.005 188.654L62.1602 185.186L66.1063 183.531L68.3339 183.011L104.711 178.024Z" fill="url(#paint1_linear_3129_7502)"/>
<path fill-rule="evenodd" clip-rule="evenodd" d="M87.0464 229.73C101.908 247.266 122.65 263.906 144.216 275.431C179.159 299.093 90.0474 281.645 35.288 270.923C24.0748 268.728 14.302 266.814 7.32984 265.593C-26.785 218.772 -90.7882 123.886 -73.8828 118.913C-56.9773 113.941 56.4004 141.056 87.4766 153.072C56.9834 165.777 60.4217 193.223 79.7111 220.324C71.84 216.525 63.1696 212.054 54.8671 207.279C47.2485 202.897 39.9835 198.285 33.9455 193.725C27.8636 189.132 23.2116 184.729 20.6334 180.802L16.1085 183.773C19.2018 188.485 24.4476 193.336 30.6834 198.045C36.9632 202.787 44.4358 207.524 52.1684 211.971C64.194 218.887 76.954 225.163 87.0464 229.73Z" fill="#0D1029"/>
<path d="M238.931 222.892C246.244 209.03 240.365 181.288 213.173 170.238C222.214 160.818 240.798 141.849 242.802 141.339C245.307 140.7 276.677 203.029 277.725 206.417C278.564 209.127 252.212 218.529 238.931 222.892Z" fill="url(#paint2_linear_3129_7502)"/>
</g>
<mask id="mask1_3129_7502" style="mask-type:alpha" maskUnits="userSpaceOnUse" x="68" y="150" width="156" height="49">
<path d="M81.3585 176.884L68.3143 182.793L69.7453 183.533L75.4687 184.389H81.8483L87.6993 185.027L92.0739 186.996L96.4485 188.381L107.312 191.48L116.609 195.256L122.426 198.165L127.912 198.689L132.141 196.382L141.496 191.948L156.516 188.54L166.178 186.822L180.275 184.464L189.835 181.824L201.548 179.569L212.005 179.287L220.745 177.416L223.693 175.468L207.7 169.599L203.573 167.933L182.992 160.167L181.89 158.808L175.226 154.297L169.17 150.581L106.175 161.158L95.7437 167.59L94.4256 169.317L92.6076 170.407L85.8581 174.202L81.3585 176.884Z" fill="url(#paint3_linear_3129_7502)"/>
</mask>
<g mask="url(#mask1_3129_7502)">
<path d="M81.3585 176.884L68.3143 182.793L69.7453 183.533L75.4687 184.389H81.8483L87.6993 185.027L92.0739 186.996L96.4485 188.381L107.312 191.48L116.609 195.256L122.426 198.165L127.912 198.689L132.141 196.382L141.496 191.948L156.516 188.54L166.178 186.822L180.275 184.464L189.835 181.824L201.548 179.569L212.005 179.287L220.745 177.416L223.693 175.468L207.7 169.599L203.573 167.933L182.992 160.167L181.89 158.808L175.226 154.297L169.17 150.581L106.175 161.158L95.7437 167.59L94.4256 169.317L92.6076 170.407L85.8581 174.202L81.3585 176.884Z" fill="url(#paint4_linear_3129_7502)"/>
<path d="M84.4947 188.523L94.4081 169.394V167.354C94.4081 167.074 92.5032 167.898 91.5507 168.345L77.9636 186.831L84.4947 188.523Z" fill="url(#paint5_linear_3129_7502)"/>
<path d="M115.551 171.164L101.844 154.542L99.9675 153.741C99.7101 153.632 99.7207 155.707 99.7582 156.759L111.433 176.508L115.551 171.164Z" fill="url(#paint6_linear_3129_7502)"/>
<path d="M72.9062 188.459L85.8761 170.015C85.8761 169.452 83.6395 168.209 83.6395 167.929C83.6395 167.649 83.6159 169.569 82.6634 170.015L69.5149 186.436L72.9062 188.459Z" fill="url(#paint7_linear_3129_7502)"/>
<path d="M211.194 181.178L205.072 169.066L203.706 168.317L205.489 181.636L211.194 181.178Z" fill="url(#paint8_linear_3129_7502)"/>
<path d="M187.152 185.945L182.523 159.89L180.853 158.077L179.994 186.279L187.152 185.945Z" fill="url(#paint9_linear_3129_7502)"/>
</g>
<mask id="mask2_3129_7502" style="mask-type:alpha" maskUnits="userSpaceOnUse" x="73" y="17" width="114" height="78">
<path d="M87.8007 87.0988L94.9536 94.4927H97.5345L123.028 92.3546L171.527 83.1906L175.136 80.4565L179.584 76.2277L184.797 69.356L186.529 64.1429L186.893 55.4849L185.089 46.4805L182.373 38.825L177.069 30.4039L170.926 24.2795L163.544 20.4153L150.274 17.7358L136.932 17.1339L127.052 18.4463L114.603 22.2014L103.01 29.4369L94.2612 38.0958L88.4102 47.2456L86.6604 50.5083L83.0149 50.4168L79.6792 51.7476L77.5284 55.3568L77.0216 59.3465C76.5902 59.4667 75.7147 59.7072 75.6638 59.7072C75.6129 59.7072 74.695 60.9163 74.2424 61.5208L73.9454 62.8786L76.1095 62.7517L78.6039 64.3428L79.0413 66.6759L80.3568 75.174L83.5336 82.063L87.8007 87.0988Z" fill="#3A356D"/>
</mask>
<g mask="url(#mask2_3129_7502)">
<path d="M87.8007 87.0988L94.9536 94.4927H97.5345L123.028 92.3546L171.527 83.1906L175.136 80.4565L179.584 76.2277L184.797 69.356L186.529 64.1429L186.893 55.4849L185.089 46.4805L182.373 38.825L177.069 30.4039L170.926 24.2795L163.544 20.4153L150.274 17.7358L136.932 17.1339L127.052 18.4463L114.603 22.2014L103.01 29.4369L94.2612 38.0958L88.4102 47.2456L86.6604 50.5083L83.0149 50.4168L79.6792 51.7476L77.5284 55.3568L77.0216 59.3465C76.5902 59.4667 75.7147 59.7072 75.6638 59.7072C75.6129 59.7072 74.695 60.9163 74.2424 61.5208L73.9454 62.8786L76.1095 62.7517L78.6039 64.3428L79.0413 66.6759L80.3568 75.174L83.5336 82.063L87.8007 87.0988Z" fill="#3A356D"/>
<path d="M97.3625 81.864C82.3343 76.0088 82.7452 51.1671 86.4047 41.9779C82.5419 42.5065 78.4476 39.9025 72.8852 43.1228C65.9322 47.1482 65.3223 57.8826 56.7835 86.0604C48.2448 114.238 81.6678 106.919 96.0617 105.333C110.456 103.748 116.148 89.1829 97.3625 81.864Z" fill="#0E163A"/>
<path d="M99.9923 78.6769C84.9641 72.8217 85.3749 47.9801 89.0344 38.7909C85.1717 39.3194 81.0773 36.7154 75.5149 39.9357C68.562 43.9611 67.952 54.6955 59.4133 82.8733C50.8745 111.051 84.2975 103.732 98.6914 102.146C113.085 100.561 118.778 85.9959 99.9923 78.6769Z" stroke="#0E163A" stroke-width="1.96837"/>
<path fill-rule="evenodd" clip-rule="evenodd" d="M152.939 54.1941C175.39 45.6916 161.388 18.8374 147.668 16.5357C150.529 16.1698 156.492 15.3981 157.45 15.2384C158.284 15.0994 167.531 18.9256 173.312 21.3656H173.27C177.982 36.2806 179.898 63.0971 147.474 64.0337C140.972 64.2216 134.874 61.9073 128.743 59.5805L128.743 59.5804C125.726 58.4355 122.701 57.2875 119.616 56.4331C108.355 53.3142 103.903 60.4699 103.355 69.4493L97.8573 67.3445C99.1799 44.4475 117.547 43.8655 133.232 51.0875C139.504 53.9753 146.481 56.6395 152.939 54.1941ZM142.726 67.6735C178.416 70.4709 184.577 39.9698 176.53 22.7317C177.185 23.0114 177.643 23.2078 177.834 23.2897L177.834 23.2898L177.913 23.3238C178.612 23.6233 199.774 47.8795 200.672 51.3733C201.391 54.1682 187.529 84.2806 180.508 98.9875L107.756 71.1343C107.759 71.1172 107.761 71.1001 107.763 71.083C107.909 70.7862 108.073 70.4614 108.255 70.1057C110.35 66.0145 115.41 65.4754 120.503 66.5172C123.479 67.1259 126.392 68.0887 129.302 69.0505C133.588 70.4671 137.868 71.8816 142.332 72.16C184.218 74.7719 188.732 46.7098 181.277 27.3286H178.7C184.562 40.2339 186.553 70.6075 147.078 70.213C141.025 70.1525 135.176 68.3085 129.382 66.4819C128.628 66.2442 127.875 66.0068 127.122 65.7737C118.25 63.0248 111.924 63.2204 108.919 65.7473C109.237 64.7459 109.609 63.8112 110.042 62.9659C112.361 58.4377 118.313 59.2293 123.922 61.4564C125.306 62.0057 126.682 62.5952 128.058 63.1852C132.82 65.2255 137.595 67.2713 142.726 67.6735Z" fill="#534D99"/>
<path d="M183.765 73.9301C173.075 70.8891 163.799 71.8761 160.497 72.7498L161.677 74.7074L170.259 85.3045C173.1 84.9494 178.823 84.2275 178.984 84.1815C179.186 84.1239 197.126 77.7313 183.765 73.9301Z" fill="#0E163A"/>
<path d="M138.938 12.3405C152.378 14.5951 168.392 40.2237 151.536 48.4606C145.527 51.397 138.635 48.401 132.356 46.0994C115.062 39.7615 92.1369 43.8903 96.5275 69.9403" stroke="#9262C7" stroke-width="1.47627"/>
</g>
<mask id="mask3_3129_7502" style="mask-type:alpha" maskUnits="userSpaceOnUse" x="87" y="59" width="89" height="140">
<path d="M107.595 186.42L107.939 191.908L112.346 193.199L119.514 196.843L124.702 198.725H127.237L130.784 197.35L137.998 193.398L146.715 190.662L163.246 187.424L166.075 178.637L167.489 171.657L168.753 163.021L169.054 155.826V151.376L170.137 142.289L170.919 130.464L170.739 122.437L170.844 110.617L172.42 109.917L173.4 107.658L175.222 99.2878L175.712 93.9819L174.311 88.4484L172.367 86.172C171.789 86.1895 170.553 86.214 170.231 86.172C169.909 86.13 170.54 85.314 170.896 84.9112L171.405 81.6576L172.034 76.9595L170.704 76.1908L165.678 74.1245L161.038 72.8637H157.028L147.186 74.2485L137.621 75.083L129.831 73.9489L120.459 70.1186L113.74 63.9557L110.68 60.7459L107.491 59.6113L104.546 59.7877L100.987 62.3515C99.6344 64.2398 96.8837 68.0392 96.7 68.1311C96.5163 68.223 95.22 73.2986 94.5949 75.8249L93.8677 83.1349L94.1644 90.6114L89.2157 87.9804L88.4641 88.7318C88.297 90.1938 87.9629 93.1552 87.9629 93.3055C87.9629 93.4559 87.587 96.9595 87.3991 98.6925L88.4641 102.138L92.6633 111.719L93.8526 112.637L94.9274 112.938L95.4003 120.518L96.0309 128.156L97.0624 133.271L98.7533 139.878L101.777 149.865L106.047 160.914L108.555 166.802L107.967 170.815L107.595 178.066V186.42Z" fill="url(#paint10_linear_3129_7502)"/>
</mask>
<g mask="url(#mask3_3129_7502)">
<path d="M107.595 186.42L107.939 191.908L112.346 193.199L119.514 196.843L124.702 198.725H127.237L130.784 197.35L137.998 193.398L146.715 190.662L163.246 187.424L166.075 178.637L167.489 171.657L168.753 163.021L169.054 155.826V151.376L170.137 142.289L170.919 130.464L170.739 122.437L170.844 110.617L172.42 109.917L173.4 107.658L175.222 99.2878L175.712 93.9819L174.311 88.4484L172.367 86.172C171.789 86.1895 170.553 86.214 170.231 86.172C169.909 86.13 170.54 85.314 170.896 84.9112L171.405 81.6576L172.034 76.9595L170.704 76.1908L165.678 74.1245L161.038 72.8637H157.028L147.186 74.2485L137.621 75.083L129.831 73.9489L120.459 70.1186L113.74 63.9557L110.68 60.7459L107.491 59.6113L104.546 59.7877L100.987 62.3515C99.6344 64.2398 96.8837 68.0392 96.7 68.1311C96.5163 68.223 95.22 73.2986 94.5949 75.8249L93.8677 83.1349L94.1644 90.6114L89.2157 87.9804L88.4641 88.7318C88.297 90.1938 87.9629 93.1552 87.9629 93.3055C87.9629 93.4559 87.587 96.9595 87.3991 98.6925L88.4641 102.138L92.6633 111.719L93.8526 112.637L94.9274 112.938L95.4003 120.518L96.0309 128.156L97.0624 133.271L98.7533 139.878L101.777 149.865L106.047 160.914L108.555 166.802L107.967 170.815L107.595 178.066V186.42Z" fill="url(#paint11_linear_3129_7502)"/>
<path d="M144.88 108.803C139.095 111.833 131.291 110.108 127.114 108.292V105.636C130.026 105.538 136.262 105.294 137.915 105.105C139.981 104.869 146.513 106.521 146.532 106.757C146.548 106.946 145.437 108.2 144.88 108.803Z" fill="#DC7669"/>
<path d="M162.585 161.691C166.535 154.58 168.878 137.699 169.556 130.147L170.892 127.242C172.499 128.52 175.992 131.134 177.108 131.367C178.223 131.599 184.505 153.422 187.506 164.304C185.415 173.541 182.8 192.148 169.556 189.964C153 187.233 157.647 170.578 162.585 161.691Z" fill="#EDAD98"/>
<path fill-rule="evenodd" clip-rule="evenodd" d="M132.443 89.5191C134.429 88.8893 137.046 88.5004 139.343 89.357C139.196 88.4048 138.852 86.4859 138.647 86.4273C138.442 86.3687 134.434 86.4029 132.456 86.4273L130.714 87.5422L130.039 86.8666L127.988 82.4344C126.168 81.2258 122.471 78.7718 122.237 78.6247C122.002 78.4777 116.01 78.686 113.043 78.8085L101.944 82.8372L99.0134 85.1818C98.7204 86.4028 98.127 88.9472 98.0977 89.357C98.0684 89.7667 99.3797 96.3657 100.039 99.6139C101.919 103.167 105.685 105.312 109.7 105.118L115.071 104.858C121.945 104.525 128.775 101.051 131.274 94.6393C131.963 92.8732 132.367 91.2123 132.443 89.5191ZM109.218 87.532C109.782 88.4628 111.639 90.4788 114.556 91.0964C117.474 91.714 118.564 91.1568 118.745 90.801L120.108 90.0782C120.108 90.0782 121.915 88.2058 121.915 86.6124L120.453 84.9699L117.102 84.3285L112.782 85.1997L110.039 86.9244L109.218 87.532ZM129.908 89.7048C129.908 89.7048 122.673 101.025 102.444 99.7024L104.078 101.336L109.019 103.165L116.41 103.437L122.556 100.87L126.33 97.6797L129.519 92.6226L129.908 89.7048Z" fill="#DB7467"/>
<path fill-rule="evenodd" clip-rule="evenodd" d="M153.35 102.101L158.482 102.695C156.748 102.822 155.007 102.621 153.35 102.101ZM166.347 100.833L168.579 99.4739C170.749 96.5595 170.609 90.6404 170.58 90.2306C170.551 89.8209 170.155 85.9927 169.862 84.7717L166.317 80.5742L156.719 78.8086C153.752 78.686 147.587 79.5355 147.352 79.6825C147.294 79.7189 147.035 79.8317 146.65 79.9992C145.479 80.5088 143.144 81.5247 141.774 82.4344L140.24 84.2935L139.723 86.8666L139.218 88.034C139.218 91.5767 141.788 95.2855 144.474 97.8837C145.931 99.2934 147.783 100.189 149.699 100.849L151.049 101.314L145.027 98.2464L143.941 97.3225L139.981 91.3609V89.8775C144.603 96.5349 154.433 101.536 168.367 99.2248L166.347 100.833ZM144.946 87.1705C145.345 88.098 146.551 90.125 148.185 90.8132C149.82 91.5014 151.474 91.5208 152.097 91.4445L154.1 90.7321C154.1 90.7321 156.425 89.5223 158.078 87.6002L155.054 85.3958L150.78 84.5897H147.459L145.699 85.7987L144.946 87.1705Z" fill="#DB7467"/>
<path d="M144.419 154.755L146.586 153.933C103.487 143.995 95.3358 93.5672 103.487 58.5221L106.58 54.3578C103.05 55.2898 95.8594 57.2251 95.3358 57.5107C94.8123 57.7963 91.6675 74.3498 90.1605 82.5909L88.6872 88.0592L87.5539 97.3241V99.3924L92.5972 111.576L93.6171 112.596L94.9205 112.879L95.6004 123.192L95.9689 126.847L98.1788 131.154L108.01 140.872L121.1 151.044L128.58 154.585L135.182 155.067L144.419 154.755Z" fill="#DD786A"/>
<path d="M141.089 76.7824C121.794 78.8589 112.644 67.1205 110.481 60.9916L134.384 55.2594C148.841 58.432 177.841 64.842 178.187 65.1016C178.533 65.3611 175.807 75.3763 174.401 80.3515C171.337 78.2965 160.384 74.7058 141.089 76.7824Z" fill="#DD786A"/>
<path d="M172.75 88.5039L173.448 87.2559C173.885 86.789 174.604 86.2513 173.986 87.8355C173.213 89.8158 172.521 93.0035 173.358 97.5115C174.028 101.118 172.598 101.934 171.8 101.891C171.954 101.724 172.276 101.379 172.328 101.327C172.379 101.276 172.631 100.275 172.75 99.7816V98.9605L172.119 96.8675L171.8 92.58L172.75 88.5039Z" fill="#DD786A"/>
<path d="M91.8165 100.135C92.2082 95.8497 89.6951 91.5152 88.3896 89.8836L89.1095 87.407L94.0626 90.2579L94.4657 99.0984L94.7537 107.19C93.6114 106.624 91.4248 104.42 91.8165 100.135Z" fill="url(#paint12_radial_3129_7502)"/>
<path opacity="0.6" d="M98.5112 91.2576L100.207 97.3876C101.377 98.6975 103.728 101.343 103.772 101.447C103.817 101.551 108.212 102.948 110.405 103.633L116.574 103.429C118.846 102.398 123.439 100.269 123.632 100.002C123.825 99.7352 126.158 97.6307 127.3 96.6118L129.264 93.3698L129.708 88.3679L128.967 84.1255L124.892 80.161L120.798 78.4752L107.885 79.9572L100.716 83.6247L98.8261 85.8665L98.5112 91.2576Z" fill="url(#paint13_linear_3129_7502)"/>
<path opacity="0.6" fill-rule="evenodd" clip-rule="evenodd" d="M129.493 90.7877L118.658 78.7207L120.797 78.4752L124.892 80.161L128.967 84.1255L129.708 88.3679L129.493 90.7877Z" fill="url(#paint14_linear_3129_7502)"/>
<path opacity="0.6" fill-rule="evenodd" clip-rule="evenodd" d="M127.256 96.651L111.857 79.501L116.455 78.9733L129.274 93.2502L129.264 93.3696L127.3 96.6115C127.285 96.6245 127.271 96.6377 127.256 96.651Z" fill="url(#paint15_linear_3129_7502)"/>
<path opacity="0.6" d="M140.512 83.9279L139.513 87.5474L139.856 90.6673L141.604 94.193L144.162 97.5628L150.309 101.213L156.518 102.711L164.006 102.274L167.969 99.7156L170.309 96.2211L170.746 90.4489L169.81 84.5518L166.471 80.6828L160.2 78.9668L153.679 78.5616L145.254 80.0903L140.512 83.9279Z" fill="url(#paint16_linear_3129_7502)"/>
<path fill-rule="evenodd" clip-rule="evenodd" d="M170.556 92.9567L162.321 79.5469L166.471 80.6826L169.81 84.5515L170.746 90.4486L170.556 92.9567Z" fill="url(#paint17_linear_3129_7502)"/>
<path fill-rule="evenodd" clip-rule="evenodd" d="M168.405 99.0644L167.731 99.4784L154.933 78.6395L160.2 78.9667L160.245 78.9792L170.366 95.46L170.309 96.221L168.405 99.0644Z" fill="url(#paint18_linear_3129_7502)"/>
<path d="M139.218 103.052C143.283 103.023 144.468 101.454 144.552 100.673C145.487 101.12 146.134 101.703 146.341 101.939L147.075 103.052L147.474 104.771L146.949 107.204L146.131 108.19L144.936 108.735L145.67 107.435L144.936 107.015L143.195 106.91L142.041 108.022L139.218 108.903L137.029 109.008L134.491 107.77L131.366 107.015L128.912 107.435L127.36 108.441L126.835 108.19L125.975 106.428V104.163L126.604 103.232C131.902 101.178 134.136 103.088 139.218 103.052Z" fill="#DB7467"/>
<path d="M133.534 107.702C130.233 109.285 128.859 108.393 128.585 107.75L128.986 107.382L131.569 106.92L133.534 107.702Z" fill="#1B2C44"/>
<path d="M141.382 107.852C143.755 109.114 145.392 108.208 145.666 107.565L145.265 107.197L142.682 106.735L141.382 107.852Z" fill="#1B2C44"/>
<path fill-rule="evenodd" clip-rule="evenodd" d="M80.8889 146.147C76.6107 160.376 73.6011 170.386 83.143 175.53C85.7724 187.77 105.656 190.233 123.885 182.131C117.487 180.743 110.119 178.056 102.058 173.24C83.4806 166.296 84.533 166.434 89.8674 167.135C92.352 167.461 95.7655 167.91 98.5571 167.821C99.6502 168.363 100.831 168.973 102.092 169.623C109.04 173.208 118.401 178.037 128.736 179.696C135.371 175.963 141.541 170.749 146.261 164.013C146.565 163.578 146.87 163.142 147.175 162.707C151.123 157.063 155.112 151.36 159.752 146.287C164.769 140.803 169.711 133.958 170.412 128.178L167.634 133.613L160.912 141.493L154.141 149.175L152.144 150.975C148.685 154.735 139.344 155.599 133.381 155.034C125.882 155.973 116.039 147.61 109.884 142.38C109.579 142.12 109.283 141.869 108.997 141.627C104.147 137.521 93.7829 126.721 89.9187 121.026L87.5249 116.093C86.4839 127.539 83.4578 137.603 80.8889 146.147ZM76.1873 129.589L72.9108 137.539L71.5021 139.564L69.7941 140.723C69.4159 140.597 68.3218 140.241 66.9706 139.831C65.2816 139.319 66.1127 133.194 67.2847 132.651C68.2222 132.217 72.1568 130.44 74.007 129.606L76.3054 129.087L76.1873 129.589Z" fill="url(#paint19_linear_3129_7502)"/>
<ellipse opacity="0.2" cx="148.178" cy="130.78" rx="10.9077" ry="8.6004" transform="rotate(-68.5825 148.178 130.78)" fill="url(#paint20_linear_3129_7502)"/>
<ellipse opacity="0.4" rx="8.37937" ry="5.2021" transform="matrix(1 0 0 -1 157.736 109.431)" fill="url(#paint21_linear_3129_7502)"/>
<ellipse opacity="0.4" rx="1.65673" ry="1.39025" transform="matrix(0.957102 -0.289752 -0.289752 -0.957102 141.183 98.7444)" fill="url(#paint22_linear_3129_7502)"/>
<mask id="mask4_3129_7502" style="mask-type:alpha" maskUnits="userSpaceOnUse" x="120" y="116" width="27" height="14">
<path d="M122.772 124.857L120.932 123.948L121.398 123.164L126.034 116.811L144.309 117.498L146.917 122.32L146.297 122.75C145.022 127.263 140.041 129.174 140.041 129.174H134.742C127.843 129.767 124.416 124.857 124.416 124.857H122.772Z" fill="#DF7F6F"/>
</mask>
<g mask="url(#mask4_3129_7502)">
<path d="M122.772 124.857L120.932 123.948L121.398 123.164L126.034 116.811L136.555 119.661L144.309 117.498L146.917 122.32L146.297 122.75C145.022 127.263 140.041 129.174 140.041 129.174H134.742C127.843 129.767 124.416 124.857 124.416 124.857H122.772Z" fill="#DF7F6F"/>
</g>
<ellipse rx="1.71799" ry="1.25323" transform="matrix(-0.969769 0.244026 0.244026 0.969769 141.23 124.952)" fill="url(#paint23_linear_3129_7502)"/>
<mask id="mask5_3129_7502" style="mask-type:alpha" maskUnits="userSpaceOnUse" x="82" y="86" width="89" height="69">
<path fill-rule="evenodd" clip-rule="evenodd" d="M98.5558 115.637L94.4286 89.2913L94.7122 105.781V113.178C90.5661 115.089 82.2497 118.942 82.1521 119.072C82.0546 119.202 91.3249 124.573 95.9722 127.242L99.1021 132.283L113.857 146.062L125.076 152.972L130.441 154.72H139.465L148.001 153.988L155.033 148.054L164.301 137.567L168.934 131.063L170.873 126.511V113.518V109.537C170.873 109.537 170.5 91.7256 170.314 86.5572C170.216 87.5921 170.223 88.9265 170.232 90.3011C170.241 91.8941 170.251 93.5411 170.096 94.8384L168.938 98.4204C167.794 106.43 166.13 114.255 163.64 118.582C161.759 121.848 157.748 120.576 154.795 118.232C147.888 112.749 139.094 108.059 129.605 113.008C128.002 113.844 126.333 114.582 124.578 115.015C118.535 116.506 115.775 118.396 113.941 120.623C113.834 120.753 113.725 120.885 113.616 121.019C110.759 124.498 107.088 128.968 103.445 126.513C99.9179 124.136 99.2141 119.839 98.5558 115.637ZM131.711 118.844C128.693 120.731 123.123 123.662 121.334 124.159L121.22 124.053C120.989 123.839 120.62 123.894 120.482 124.177C119.587 126.012 118.833 128.973 118.725 131.654C118.591 134.991 120.35 138.565 123.563 139.478C125.23 139.951 127.187 140.065 128.926 139.701C131.091 139.248 131.751 136.879 130.975 134.808C130.226 132.807 129.62 130.904 130.849 130.206C132.572 129.186 134.974 129.265 136.06 129.34H140.735L142.52 130.389C140.556 132.363 138.699 136.402 141.985 138.668C146.093 141.502 158.869 133.708 150.935 122.998L147.988 122.739H147.54C146.026 121.893 144.743 121.27 143.657 120.743C142.992 120.42 142.401 120.133 141.876 119.852C140.807 119.021 139.856 118.834 139.514 118.844L137.153 119.636L136.155 119.852C135.624 119.468 134.535 118.715 134.427 118.772C134.32 118.829 132.997 118.796 132.35 118.772L131.711 118.844Z" fill="url(#paint24_linear_3129_7502)"/>
</mask>
<g mask="url(#mask5_3129_7502)">
<path fill-rule="evenodd" clip-rule="evenodd" d="M98.5558 115.637L94.4286 89.2913L94.7122 105.781V113.178C90.5661 115.089 82.2497 118.942 82.1521 119.072C82.0546 119.202 91.3249 124.573 95.9722 127.242L99.1021 132.283L113.857 146.062L125.076 152.972L130.441 154.72H139.465L148.001 153.988L155.033 148.054L164.301 137.567L168.934 131.063L170.873 126.511V113.518V109.537C170.873 109.537 170.5 91.7256 170.314 86.5572C170.216 87.5921 170.223 88.9265 170.232 90.3011C170.241 91.8941 170.251 93.5411 170.096 94.8384L168.938 98.4204C167.794 106.43 166.13 114.255 163.64 118.582C161.759 121.848 157.748 120.576 154.795 118.232C147.888 112.749 139.094 108.059 129.605 113.008C128.002 113.844 126.333 114.582 124.578 115.015C118.535 116.506 115.775 118.396 113.941 120.623C113.834 120.753 113.725 120.885 113.616 121.019C110.759 124.498 107.088 128.968 103.445 126.513C99.9179 124.136 99.2141 119.839 98.5558 115.637ZM131.711 118.844C128.693 120.731 123.123 123.662 121.334 124.159L121.22 124.053C120.989 123.839 120.62 123.894 120.482 124.177C119.587 126.012 118.833 128.973 118.725 131.654C118.591 134.991 120.35 138.565 123.563 139.478C125.23 139.951 127.187 140.065 128.926 139.701C131.091 139.248 131.751 136.879 130.975 134.808C130.226 132.807 129.62 130.904 130.849 130.206C132.572 129.186 134.974 129.265 136.06 129.34H140.735L142.52 130.389C140.556 132.363 138.699 136.402 141.985 138.668C146.093 141.502 158.869 133.708 150.935 122.998L147.988 122.739H147.54C146.026 121.893 144.743 121.27 143.657 120.743C142.992 120.42 142.401 120.133 141.876 119.852C140.807 119.021 139.856 118.834 139.514 118.844L138.539 119.171L136.425 116.619L134.859 118.974C134.635 118.837 134.467 118.751 134.427 118.772C134.32 118.829 132.997 118.796 132.35 118.772L131.711 118.844Z" fill="url(#paint25_linear_3129_7502)"/>
<path d="M143.476 133.538C142.908 134.049 134.484 133.751 130.343 133.538C129.87 131.432 128.838 127.008 128.498 126.156C128.072 125.091 141.276 125.091 141.702 125.162C142.127 125.233 144.186 132.899 143.476 133.538Z" fill="#38334F"/>
<path d="M96.2799 114.199L95.1395 93.8982L94.4264 93.1853L82.9182 128.015C85.9735 139.218 92.5526 162.54 94.4264 166.206C96.7688 170.789 139.542 170.178 143.209 169.465C146.142 168.894 153.134 156.474 155.68 150.737L137.375 152.183C131.804 152.623 126.258 151.074 121.721 147.811L110.149 139.486C101.944 133.584 96.8468 124.29 96.2799 114.199Z" fill="#38334F"/>
<path d="M158.681 148.24C155.482 146.379 156.194 139.19 160.271 132.181C164.348 125.173 170.246 121 173.444 122.86C176.643 124.721 175.93 131.91 171.853 138.919C167.777 145.927 161.879 150.1 158.681 148.24Z" fill="url(#paint26_linear_3129_7502)"/>
<path d="M163.843 113.828L173.844 118.304" stroke="#AE7589" stroke-width="1.96837"/>
<path d="M165.092 109.431L175.093 113.907" stroke="#AE7589" stroke-width="1.96837"/>
</g>
</g>
<path d="M127.58 124.295C126.307 124.528 123.668 124.986 123.561 124.953C127.023 122.501 131.379 122.304 134.359 122.645C135.868 122.818 137.401 122.46 138.813 121.901C141.834 120.704 144.645 121.63 145.874 122.454L143.642 122.36C142.383 122.212 139.639 122.182 138.736 123.247C137.833 124.311 136.322 124.614 135.696 124.016L133.588 123.328L131.505 123.247L127.58 124.295Z" fill="#C05947"/>
<path fill-rule="evenodd" clip-rule="evenodd" d="M94.6336 113.118V112.581C94.2334 112.574 93.8555 112.445 93.5392 112.229C93.2267 112.014 92.9779 111.708 92.8296 111.341L88.512 100.747C88.2909 100.212 88.1421 99.6531 88.0624 99.0849C87.9826 98.5178 87.9747 97.9411 88.04 97.3676C88.1495 96.2593 88.3117 94.7976 88.4366 93.3513C88.5663 91.8498 88.6582 90.3673 88.7353 89.3245C88.7747 88.6799 89.0107 88.3229 89.6584 88.2891H89.6589L89.6584 87.7523C88.6651 87.6995 88.1202 88.2796 87.9763 89.2453C87.8365 90.2812 87.6191 91.7504 87.4352 93.2466C87.2576 94.6871 87.1141 96.1509 86.9913 97.2581C86.9281 97.9203 86.9477 98.5848 87.0519 99.2364C87.1561 99.8865 87.3421 100.524 87.6084 101.131L92.2487 111.589C92.4597 112.061 92.7983 112.45 93.2171 112.716C93.6317 112.98 94.1207 113.127 94.6336 113.118Z" fill="#8C3C46"/>
<mask id="mask6_3129_7502" style="mask-type:alpha" maskUnits="userSpaceOnUse" x="104" y="73" width="22" height="9">
<path fill-rule="evenodd" clip-rule="evenodd" d="M123.354 79.0872C123.364 79.1233 123.382 79.1579 123.407 79.1888C123.506 79.31 123.684 79.3281 123.805 79.2297L124.276 78.788C124.673 78.3485 124.95 77.826 125.101 77.2695C125.253 76.7087 125.269 76.1129 125.147 75.5282L124.942 74.7569C124.817 74.3748 124.58 74.05 124.277 73.8103C123.971 73.5684 123.594 73.4191 123.188 73.3851H123.188C121.366 73.2437 119.662 73.2607 118.083 73.4201C116.238 73.6062 114.564 73.9735 113.07 74.4316C111.218 75.0004 109.645 75.7174 108.361 76.4206C105.612 77.9264 104.185 79.3892 104.185 79.3892C104.103 79.4695 104.072 79.588 104.103 79.6985C104.195 80.0031 104.307 80.2689 104.432 80.4996C104.588 80.7866 104.763 81.0215 104.942 81.2123C105.038 81.3197 105.198 81.3362 105.314 81.256L110.423 79.6753L118.75 78.553L122.835 79.2825L123.354 79.0872Z" fill="#192940"/>
</mask>
<g mask="url(#mask6_3129_7502)">
<path fill-rule="evenodd" clip-rule="evenodd" d="M123.354 79.0872C123.364 79.1233 123.382 79.1579 123.407 79.1888C123.506 79.31 123.684 79.3281 123.805 79.2297L124.276 78.788C124.673 78.3485 124.95 77.826 125.101 77.2695C125.253 76.7087 125.269 76.1129 125.147 75.5282L124.942 74.7569C124.817 74.3748 124.58 74.05 124.277 73.8103C123.971 73.5684 123.594 73.4191 123.188 73.3851H123.188C121.366 73.2437 119.662 73.2607 118.083 73.4201C116.238 73.6062 114.564 73.9735 113.07 74.4316C111.218 75.0004 109.645 75.7174 108.361 76.4206C105.612 77.9264 104.185 79.3892 104.185 79.3892C104.103 79.4695 104.072 79.588 104.103 79.6985C104.195 80.0031 104.307 80.2689 104.432 80.4996C104.588 80.7866 104.763 81.0215 104.942 81.2123C105.038 81.3197 105.198 81.3362 105.314 81.256L110.423 79.6753L118.75 78.553L122.835 79.2825L123.354 79.0872Z" fill="#192940"/>
<path d="M121.156 79.1945C123.374 75.7778 122.055 70.8611 122.055 70.8611C124.213 70.8611 127.768 71.3413 128.32 71.3413C129.009 71.3413 128.02 81.5026 127.87 82.5816C127.72 83.6607 117.889 85.6391 121.156 79.1945Z" fill="url(#paint27_linear_3129_7502)"/>
<path d="M115.039 79.8955C115.039 79.8955 116.945 75.7597 116.565 69.77C118.723 69.77 119.911 70.7207 120.463 70.7207C121.152 70.7207 120.843 76.9481 118.989 81.9395C118.839 83.0186 111.772 86.34 115.039 79.8955Z" fill="url(#paint28_linear_3129_7502)"/>
</g>
<mask id="mask7_3129_7502" style="mask-type:alpha" maskUnits="userSpaceOnUse" x="144" y="72" width="20" height="8">
<path fill-rule="evenodd" clip-rule="evenodd" d="M150.466 78.777L150.821 78.7973L154.822 78.6379C154.877 78.7368 154.992 78.7938 155.11 78.7713C157.092 78.4809 159.129 77.8812 161.124 77.294C161.914 77.0615 162.697 76.8309 163.468 76.6223C163.605 76.5888 163.717 76.4879 163.763 76.3544C164.026 75.5271 163.858 74.2448 163.468 73.487C163.407 73.3499 163.246 73.2882 163.109 73.3488C163.045 73.3774 162.997 73.428 162.971 73.4878L157.963 72.6345L145.292 74.2181L144.628 74.6831C144.596 74.672 144.562 74.6665 144.527 74.6679C144.377 74.6738 144.26 74.8003 144.266 74.9507C144.239 75.9882 144.421 76.8264 144.774 77.4781C145.678 79.1496 148.598 79.7451 150.292 79.1593C150.437 79.1205 150.523 78.9712 150.484 78.8261C150.48 78.8088 150.473 78.7925 150.466 78.777Z" fill="#192940"/>
</mask>
<g mask="url(#mask7_3129_7502)">
<path fill-rule="evenodd" clip-rule="evenodd" d="M150.466 78.777L150.821 78.7973L154.822 78.6379C154.877 78.7368 154.992 78.7938 155.11 78.7713C157.092 78.4809 159.129 77.8812 161.124 77.294C161.914 77.0615 162.697 76.8309 163.468 76.6223C163.605 76.5888 163.717 76.4879 163.763 76.3544C164.026 75.5271 163.858 74.2448 163.468 73.487C163.407 73.3499 163.246 73.2882 163.109 73.3488C163.045 73.3774 162.997 73.428 162.971 73.4878L157.963 72.6345L145.292 74.2181L144.628 74.6831C144.596 74.672 144.562 74.6665 144.527 74.6679C144.377 74.6738 144.26 74.8003 144.266 74.9507C144.239 75.9882 144.421 76.8264 144.774 77.4781C145.678 79.1496 148.598 79.7451 150.292 79.1593C150.437 79.1205 150.523 78.9712 150.484 78.8261C150.48 78.8088 150.473 78.7925 150.466 78.777Z" fill="#192940"/>
<path d="M158.796 83.1102C158.512 83.1102 160.997 76.2953 162.275 72.8878C163.387 71.6811 165.654 69.1965 165.824 68.9126C166.037 68.5576 171.148 77.6442 171.432 78.9929C171.716 80.3417 159.151 83.1103 158.796 83.1102Z" fill="url(#paint29_linear_3129_7502)"/>
<path d="M153.124 81.4133L156.602 70.0557C157.714 68.8489 160.719 70.4811 160.719 70.4811C160.932 70.1262 157.525 81.4133 157.525 81.4133C157.809 82.7621 153.124 81.4133 153.124 81.4133Z" fill="url(#paint30_linear_3129_7502)"/>
</g>
<path fill-rule="evenodd" clip-rule="evenodd" d="M99.7566 84.124C99.7566 84.124 98.9609 84.8564 97.9701 85.8158C97.598 86.1767 97.1973 86.5685 96.8055 86.9692C95.372 88.4357 93.9879 89.9479 93.9879 89.9479C93.8779 90.059 93.8784 90.2381 93.9895 90.3482C94.1006 90.4582 94.2802 90.4577 94.3903 90.3466C94.3903 90.3466 95.8892 88.9481 97.3418 87.5008C97.7389 87.1053 98.1269 86.7008 98.4841 86.325C99.4339 85.3252 100.159 84.5226 100.159 84.5226C100.27 84.4115 100.268 84.2319 100.157 84.1218C100.046 84.0118 99.8666 84.0129 99.7566 84.124Z" fill="#192940"/>
<path fill-rule="evenodd" clip-rule="evenodd" d="M98.1737 87.6532C98.1737 87.6532 97.6257 88.1353 96.9507 88.7763C96.6966 89.0171 96.4244 89.2797 96.1608 89.5508C95.1966 90.5437 94.2824 91.5817 94.2824 91.5817C94.1724 91.6928 94.1729 91.8719 94.284 91.982C94.3951 92.092 94.5747 92.0915 94.6847 91.9804C94.6847 91.9804 95.7138 91.056 96.6971 90.0823C96.9661 89.8165 97.226 89.5417 97.4646 89.2855C98.0993 88.6041 98.5761 88.0518 98.5761 88.0518C98.6861 87.9408 98.6856 87.7611 98.5745 87.6511C98.4634 87.541 98.2837 87.5421 98.1737 87.6532Z" fill="#192940"/>
<path d="M94.2924 92.0538L98.3497 87.8999L98.6394 85.6943L94.4696 89.7836L94.2924 92.0538Z" fill="#192940"/>
<path fill-rule="evenodd" clip-rule="evenodd" d="M94.1122 90.2964C94.1122 90.2964 93.2809 89.9993 92.0121 89.2705C91.1893 88.7985 90.1959 88.1357 89.1115 87.2619C87.264 85.7741 85.166 83.6576 83.4157 80.5753C81.4581 77.1272 79.9055 72.5141 79.5228 66.3622C79.4808 65.6967 79.2831 65.0605 78.9535 64.5013C78.625 63.9443 78.1679 63.4622 77.6077 63.1045C77.605 63.1029 77.6029 63.1013 77.6002 63.0997C77.0873 62.7882 76.4718 62.532 75.7431 62.439C75.3088 62.3837 74.8336 62.3848 74.3159 62.4682C74.4254 61.916 74.7151 61.0124 75.4741 60.4176C76.0716 59.9504 76.9571 59.6873 78.2625 59.9121C78.4369 59.9435 78.6032 59.8276 78.6346 59.6532C78.666 59.4794 78.5501 59.3125 78.3763 59.2812C76.8258 58.9904 75.7728 59.3258 75.0537 59.8722C73.634 60.9502 73.5155 62.9158 73.5155 62.9158C73.5096 63.0322 73.559 63.1443 73.6489 63.2187C73.7387 63.2926 73.8588 63.3197 73.9715 63.2916C74.5945 63.1417 75.1488 63.1241 75.641 63.1943C76.247 63.2804 76.7562 63.502 77.1803 63.7667C77.6279 64.0623 77.9909 64.4561 78.2498 64.9095C78.5076 65.3619 78.659 65.8743 78.6851 66.409C78.9982 72.7432 80.5332 77.5152 82.5169 81.0807C84.3209 84.3236 86.4752 86.6001 88.4482 88.1081C89.381 88.8209 90.2756 89.3561 91.0559 89.7622C92.7663 90.6525 93.9378 90.9124 93.9378 90.9124C94.1079 90.9608 94.2849 90.8619 94.3333 90.6918C94.3811 90.5217 94.2823 90.3442 94.1122 90.2964Z" fill="#623FC6"/>
<path fill-rule="evenodd" clip-rule="evenodd" d="M77.3692 59.261C77.3692 59.261 77.3996 54.4657 80.1061 52.2636C81.4913 51.1368 83.5829 50.5 86.7295 51.0799C86.9294 51.116 87.1266 51.0028 87.1952 50.8115C87.1952 50.8115 94.2842 31.2772 116.407 22.2406C126.675 18.0463 140.178 16.1099 157.719 19.4267C157.72 19.4272 157.721 19.4272 157.722 19.4272C161.887 20.1825 165.808 21.7702 169.275 24.0478C172.743 26.326 175.759 29.2946 178.108 32.8181C178.108 32.8191 178.109 32.8197 178.109 32.8207C180.748 36.7333 183.327 41.6053 184.915 47.2056C186.27 51.9872 186.905 57.2999 186.23 63.0021V63.0037C186.047 64.6036 185.653 66.1642 185.061 67.6461C184.47 69.1296 183.682 70.535 182.713 71.8223C181.481 73.4494 179.743 75.4867 177.385 77.7914C175.701 79.4365 173.703 81.2166 171.346 83.0802C171.181 83.2099 171.153 83.4485 171.282 83.6133C171.411 83.7781 171.65 83.8068 171.815 83.6776C174.207 81.8093 176.238 80.0233 177.948 78.3719C180.357 76.0454 182.132 73.9851 183.394 72.339L183.394 72.3379C184.417 70.9942 185.251 69.5261 185.879 67.9751C186.509 66.4231 186.932 64.787 187.133 63.1095C187.852 57.2791 187.232 51.8378 185.867 46.9382C184.273 41.2168 181.66 36.2358 178.984 32.2329C176.567 28.5828 173.458 25.5005 169.875 23.1362C166.291 20.7715 162.232 19.1253 157.922 18.3381C140.121 15.0129 126.424 17.0135 116.021 21.3025C95.2181 29.8792 87.5699 47.5888 86.5371 50.2045C83.2602 49.6915 81.0709 50.4415 79.6028 51.6481C76.6422 54.0809 76.6102 59.2578 76.6102 59.2578C76.6091 59.4672 76.7786 59.6378 76.9881 59.6389C77.1975 59.64 77.3687 59.4704 77.3692 59.261Z" fill="#623FC6"/>
<path fill-rule="evenodd" clip-rule="evenodd" d="M170.455 71.3498C154.315 72.0769 145.599 74.3019 138.025 74.4071C133.605 74.4682 129.58 73.7959 124.662 71.6506C124.661 71.6506 124.66 71.6501 124.659 71.6495C122.394 70.6753 120.28 69.4076 118.367 67.8863C116.454 66.3656 114.742 64.5914 113.282 62.6045C113.28 62.6024 113.279 62.6003 113.277 62.5981C112.816 61.9927 112.329 61.4873 111.83 61.0668C111.245 60.5746 110.644 60.1978 110.051 59.9118C110.05 59.9113 110.049 59.9113 110.049 59.9107C108.793 59.3138 107.425 59.0831 106.089 59.2059C104.754 59.3287 103.45 59.805 102.324 60.6209C102.324 60.6214 102.323 60.6214 102.323 60.6219C100.236 62.1474 97.3148 65.1543 95.405 70.8289C93.9428 75.1725 93.07 81.0964 93.6425 89.1437C93.6419 89.14 95.0654 123.541 95.0654 123.541C95.1334 125.174 95.4794 126.771 96.0779 128.267C96.6764 129.763 97.5279 131.157 98.6059 132.386C98.6059 132.386 98.6059 132.387 98.6064 132.387C102.693 137.028 106.62 140.768 110.208 143.767C115.705 148.361 120.406 151.215 123.667 152.9C123.668 152.901 123.668 152.901 123.668 152.901C125.569 153.88 127.582 154.601 129.654 155.053C131.725 155.505 133.856 155.687 135.992 155.588C135.994 155.588 135.995 155.587 135.997 155.587C137.565 155.498 139.195 155.336 141.081 155.211C142.117 155.143 143.23 155.085 144.453 155.057C145.609 155.031 146.743 154.803 147.806 154.394C148.869 153.983 149.861 153.391 150.736 152.635C150.736 152.634 150.736 152.634 150.737 152.634C152.899 150.748 156.137 147.729 159.823 143.645C162.358 140.833 165.107 137.517 167.863 133.717V133.716C169.056 132.068 169.961 130.248 170.557 128.331C171.152 126.415 171.437 124.402 171.388 122.37C171.388 122.371 170.754 95.2435 170.754 95.2435C170.749 95.0176 170.562 94.8385 170.336 94.8438C170.11 94.8492 169.931 95.0368 169.936 95.2627L170.523 122.39C170.567 124.327 170.291 126.245 169.721 128.071C169.151 129.896 168.285 131.628 167.146 133.196C164.405 136.963 161.671 140.25 159.15 143.036C155.49 147.08 152.277 150.069 150.13 151.934C149.336 152.619 148.436 153.155 147.471 153.525C146.508 153.895 145.48 154.1 144.433 154.122C143.195 154.149 142.068 154.205 141.02 154.272C139.138 154.394 137.511 154.554 135.946 154.641C133.894 154.733 131.848 154.554 129.859 154.118C127.869 153.681 125.936 152.987 124.111 152.044C120.893 150.377 116.258 147.553 110.837 143.014C107.286 140.04 103.4 136.331 99.3553 131.729C98.3529 130.585 97.562 129.287 97.0055 127.896C96.4489 126.504 96.1274 125.018 96.0652 123.499L94.6513 89.0906C94.6513 89.0858 94.6508 89.081 94.6503 89.0757C94.09 81.2006 94.932 75.4016 96.3628 71.1515C98.178 65.7591 100.936 62.8884 102.919 61.4389C103.894 60.7314 105.024 60.319 106.182 60.2126C107.339 60.1058 108.525 60.3051 109.614 60.8223C110.136 61.0737 110.665 61.4059 111.179 61.8391C111.624 62.2139 112.058 62.6641 112.469 63.2025C113.985 65.2632 115.758 67.1002 117.74 68.6751C119.723 70.2506 121.914 71.564 124.261 72.5733C129.331 74.7834 133.482 75.4744 138.039 75.4101C145.621 75.3033 154.345 73.0762 170.499 72.3448C170.774 72.3326 170.987 72.0992 170.975 71.8244C170.962 71.5501 170.729 71.337 170.455 71.3498Z" fill="#8C3C46"/>
<path fill-rule="evenodd" clip-rule="evenodd" d="M173.026 87.6331C173.026 87.6331 172.141 88.711 171.688 91.0232C171.495 92.006 171.391 93.2131 171.456 94.6519C171.488 95.209 171.561 95.7655 171.691 96.3098C171.819 96.853 172.002 97.3824 172.224 97.8969C172.424 98.3976 172.651 99.1258 172.596 99.888C172.551 100.499 172.33 101.132 171.761 101.69C171.695 101.75 171.691 101.852 171.751 101.918C171.811 101.983 171.913 101.988 171.978 101.929C172.676 101.34 172.981 100.634 173.079 99.9401C173.2 99.0918 172.995 98.2605 172.801 97.6737C172.8 97.6699 172.799 97.6662 172.797 97.6625C172.609 97.1735 172.468 96.6696 172.359 96.1588C172.25 95.6496 172.175 95.1324 172.147 94.6105C172.147 94.6094 172.147 94.6083 172.147 94.6073C171.997 92.8761 172.131 91.4877 172.346 90.4263C172.7 88.6818 173.284 87.8271 173.284 87.8271C173.337 87.7559 173.323 87.6549 173.252 87.6017C173.181 87.5481 173.08 87.5624 173.026 87.6331Z" fill="#8C3C46"/>
<path fill-rule="evenodd" clip-rule="evenodd" d="M170.799 110.363C170.701 110.23 170.635 110.339 170.635 110.463C170.635 110.652 170.788 110.805 170.978 110.805L171.201 110.806C171.708 110.812 172.182 110.639 172.559 110.345C172.939 110.048 173.218 109.624 173.336 109.128L175.695 99.0486C175.998 97.7336 176.138 96.3899 176.107 95.0499C176.077 93.71 175.875 92.3737 175.512 91.0725C175.312 90.338 175.112 89.6938 174.92 89.1341C174.65 88.341 174.399 87.7175 174.194 87.2333C174.185 87.211 174.174 87.1897 174.161 87.1695C173.872 86.7124 173.476 86.3446 173.016 86.0942C172.558 85.845 172.038 85.7078 171.499 85.7131L171.075 85.7169C171.636 82.4126 171.799 79.1407 172.31 77.0786C172.391 76.9377 172.342 76.7575 172.201 76.6772C172.059 76.5965 171.88 76.6459 171.799 76.7873C170.965 79.2875 170.692 82.3287 170.116 85.9943C170.072 86.1187 170.092 86.2569 170.168 86.3643C170.245 86.4722 170.368 86.5359 170.5 86.5359L171.499 86.545C171.892 86.5482 172.27 86.6545 172.6 86.8421C172.918 87.0228 173.191 87.2811 173.393 87.5995C173.582 88.0689 173.809 88.6674 174.056 89.4221C174.234 89.9691 174.422 90.5979 174.609 91.3181C174.61 91.3197 174.61 91.3208 174.61 91.3224C174.949 92.5497 175.128 93.8099 175.16 95.0728C175.191 96.3363 175.075 97.6039 174.798 98.8472L172.611 108.964C172.54 109.296 172.361 109.582 172.112 109.785C171.861 109.99 171.544 110.116 171.201 110.12C171.106 110.12 171.034 110.12 171 110.12C170.821 110.12 170.782 110.231 170.799 110.363Z" fill="#8C3C46"/>
<path fill-rule="evenodd" clip-rule="evenodd" d="M139.612 86.0395L139.626 86.0459L139.629 86.0469C139.761 86.1033 139.842 86.0895 139.842 86.0895L139.879 86.0565C140.039 85.9087 140.647 85.3017 140.077 85.0344C137.633 83.8889 134.843 83.7268 132.284 84.5805C130.797 85.0769 129.438 85.5303 129.438 85.5303C129.148 85.627 128.992 85.9406 129.088 86.2309C129.185 86.5205 129.499 86.6773 129.788 86.5806C129.788 86.5806 131.148 86.1272 132.634 85.6313C134.925 84.8669 137.421 85.0121 139.607 86.0368L139.612 86.0395Z" fill="#192940"/>
<path fill-rule="evenodd" clip-rule="evenodd" d="M139.048 88.3718L139.057 88.3766L139.062 88.3787C139.206 88.4478 139.297 88.4313 139.297 88.4313L139.334 88.3999C139.496 88.258 140.108 87.6744 139.552 87.3858C137.338 86.2377 134.743 86.0756 132.405 86.9393C131.073 87.431 129.863 87.8775 129.863 87.8775C129.576 87.9832 129.429 88.3022 129.535 88.5886C129.641 88.8757 129.96 89.0224 130.246 88.9166L132.788 87.9779C134.835 87.2221 137.105 87.364 139.042 88.3686L139.048 88.3718Z" fill="#192940"/>
<path d="M134.053 86.8998C133.864 86.8869 131.334 88.0939 130.092 88.699L129.619 86.1737L134.542 84.4379C136.173 84.7221 139.485 85.2968 139.687 85.322C139.889 85.3473 139.476 86.9632 139.245 87.768L138.472 87.6417C137.078 87.3998 134.243 86.9127 134.053 86.8998Z" fill="#192940"/>
<path d="M168.492 99.8245C167.222 101.19 165.535 102.17 163.618 102.561C156.334 104.131 150.179 102.675 144.919 98.6471L144.373 97.3347C150.286 101.723 156.814 103.205 163.438 101.723C163.44 101.723 163.442 101.722 163.443 101.721C165.174 101.356 166.694 100.46 167.834 99.2164C168.972 97.9758 169.731 96.3881 169.945 94.6357C169.945 94.6341 169.946 94.633 169.946 94.6314C170.138 93.1655 170.202 91.791 170.179 90.527C170.152 88.9925 169.999 87.62 169.791 86.4443C169.53 85.0586 168.889 83.8058 167.975 82.8012C167.062 81.7977 165.876 81.0424 164.522 80.6523C164.521 80.6517 164.52 80.6517 164.518 80.6512C160.748 79.5334 157.363 79.1523 154.407 79.2012C150.15 79.2719 146.786 80.2398 144.457 81.2194C142.784 81.9699 141.228 83.918 140.659 84.7982L139.767 84.3615C140.631 82.5926 142.112 81.1164 144.058 80.2818L144.06 80.2812C146.477 79.2586 149.968 78.2349 154.39 78.162C157.436 78.1121 160.925 78.516 164.805 79.6758C166.341 80.1244 167.685 80.9855 168.717 82.1294C169.748 83.2721 170.467 84.6956 170.754 86.2673L170.755 86.2684C170.755 86.27 170.755 86.2714 170.755 86.2732C170.964 87.4946 171.118 88.9191 171.137 90.5126C171.152 91.8202 171.078 93.241 170.87 94.7516C170.619 96.6964 169.766 98.4553 168.492 99.8245Z" fill="#192940"/>
<path d="M139.494 91.2055L139.495 91.2039C139.134 90.2897 138.944 89.3496 138.908 88.4188L139.883 88.4948C139.92 89.2843 140.084 90.0809 140.385 90.8574C140.389 90.8691 140.393 90.8802 140.396 90.8919C141.085 92.6561 141.93 93.7989 142.702 94.7827C143.41 95.6842 144.058 96.4624 144.501 97.4218C144.617 97.7173 144.864 98.3762 144.92 98.6475C145.072 99.306 145.137 100.062 145.087 100.972C145.032 101.959 144.863 102.933 144.585 103.874C144.306 104.814 143.919 105.723 143.428 106.579L143.427 106.582C142.894 107.497 142.312 108.122 141.65 108.551C140.927 109.019 140.107 109.257 139.145 109.367C138.449 109.467 137.748 109.449 137.067 109.318C136.388 109.187 135.73 108.945 135.122 108.596C134.2 108.083 132.847 107.46 131.42 107.35C130.6 107.287 129.753 107.395 128.957 107.803C128.787 107.891 128.578 107.825 128.49 107.655C128.402 107.485 128.468 107.276 128.638 107.188C129.552 106.71 130.525 106.573 131.472 106.637C133.016 106.742 134.489 107.391 135.49 107.936C135.492 107.937 135.493 107.938 135.494 107.939C136.032 108.241 136.612 108.449 137.21 108.559C137.807 108.669 138.422 108.68 139.03 108.587C139.034 108.587 139.038 108.587 139.041 108.586C139.877 108.482 140.586 108.282 141.207 107.873C141.771 107.501 142.257 106.956 142.706 106.17C143.157 105.366 143.511 104.515 143.764 103.635C144.017 102.755 144.167 101.847 144.212 100.927C144.275 99.6026 144.073 98.6485 143.702 97.8438C143.282 96.9312 142.655 96.2062 141.977 95.3562C141.145 94.3118 140.239 93.093 139.494 91.2055Z" fill="#8C3C46"/>
<path d="M139.558 84.8236C139.623 84.6677 139.693 84.5137 139.767 84.3619L140.69 84.7294L140.472 85.2073C140.037 86.2343 139.829 87.3573 139.883 88.4949L138.908 88.4189C138.86 87.1758 139.089 85.9494 139.558 84.8236Z" fill="#192940"/>
<path fill-rule="evenodd" clip-rule="evenodd" d="M146.111 101.95H146.111C146.578 102.407 146.893 102.974 147.061 103.581C147.225 104.174 147.238 104.808 147.076 105.425L146.864 106.343C146.798 106.679 146.663 106.993 146.472 107.27C146.278 107.552 146.035 107.802 145.738 107.988L144.797 108.592C144.71 108.64 144.679 108.749 144.727 108.836C144.776 108.923 144.885 108.954 144.972 108.906L145.981 108.426C146.367 108.236 146.702 107.967 146.968 107.642C147.238 107.312 147.428 106.919 147.538 106.497L147.746 105.578C147.889 104.841 147.838 104.093 147.59 103.412C147.346 102.744 146.923 102.143 146.349 101.681C146.201 101.536 145.918 101.781 146.111 101.95Z" fill="#8C3C46"/>
<path fill-rule="evenodd" clip-rule="evenodd" d="M127.609 101.681C126.796 102.233 126.189 102.997 125.84 103.871C125.622 104.415 125.511 104.999 125.511 105.592C125.511 105.982 125.571 106.374 125.67 106.762L125.741 107.004C125.91 107.525 126.194 107.991 126.59 108.344C126.974 108.687 127.445 108.93 127.968 109.035L129.231 109.27C129.281 109.284 129.333 109.255 129.347 109.204C129.362 109.154 129.332 109.102 129.282 109.088L128.082 108.63C127.669 108.479 127.322 108.217 127.043 107.896C126.774 107.587 126.583 107.215 126.494 106.802L126.434 106.557C126.316 106.147 126.268 105.73 126.265 105.318C126.263 104.891 126.308 104.47 126.414 104.061C126.632 103.222 127.064 102.443 127.726 101.829C127.802 101.738 127.677 101.638 127.609 101.681Z" fill="#8C3C46"/>
<path fill-rule="evenodd" clip-rule="evenodd" d="M120.954 124.007C120.954 124.007 121.362 124.56 122.391 124.935C122.833 125.098 123.389 125.219 124.077 125.255C124.615 125.278 125.376 125.132 126.272 124.905C126.903 124.746 127.604 124.556 128.34 124.359C129 124.182 129.688 123.998 130.388 123.858C131.075 123.721 131.769 123.616 132.458 123.592C133.666 123.548 134.847 123.729 135.902 124.355C135.944 124.382 136 124.37 136.028 124.329C136.055 124.287 136.044 124.231 136.002 124.203C134.619 123.182 132.918 122.932 131.202 123.041C130.577 123.08 129.951 123.169 129.341 123.293C128.717 123.418 128.109 123.577 127.536 123.746C126.763 123.974 126.054 124.222 125.438 124.405C124.898 124.566 124.438 124.689 124.077 124.705C123.443 124.738 122.922 124.677 122.5 124.575C121.527 124.338 121.093 123.891 121.093 123.891C121.061 123.852 121.003 123.847 120.965 123.879C120.927 123.911 120.922 123.969 120.954 124.007Z" fill="#192940"/>
<path fill-rule="evenodd" clip-rule="evenodd" d="M143.723 121.841L143.597 121.841C143.011 121.841 142.483 121.878 142.009 121.942C139.169 122.323 138.245 123.504 138.245 123.504C138.202 123.552 138.206 123.626 138.253 123.669C138.301 123.712 138.375 123.708 138.418 123.661C138.418 123.661 139.4 122.732 142.069 122.603C142.589 122.577 143.17 122.582 143.822 122.618C144.189 122.639 144.578 122.671 144.992 122.71C145.45 122.754 145.937 122.805 146.456 122.876C146.919 122.939 147.407 123.01 147.921 123.104L147.922 123.104C148.415 123.187 148.912 123.225 149.409 123.211C149.607 123.205 150.887 123.161 150.967 123.008C150.99 122.963 151.074 122.783 150.94 122.786C150.436 122.807 149.927 122.831 149.421 122.787C148.957 122.746 148.5 122.662 148.05 122.534C147.535 122.392 147.046 122.268 146.578 122.17C146.047 122.06 145.547 121.976 145.073 121.923C144.642 121.874 144.235 121.85 143.851 121.843C143.808 121.842 143.765 121.842 143.723 121.841Z" fill="#192940"/>
<path fill-rule="evenodd" clip-rule="evenodd" d="M142.686 130.681L142.701 130.682L142.71 130.675C142.745 130.645 142.879 130.517 142.768 130.39C142.709 130.323 142.583 130.181 142.437 130.014C142.166 129.71 141.838 129.471 141.478 129.298C141.11 129.122 140.708 129.025 140.292 129.003C139.851 128.984 139.317 128.955 138.736 128.935C138.239 128.918 137.709 128.901 137.179 128.897C136.759 128.893 136.338 128.898 135.933 128.906C135.239 128.918 134.591 128.946 134.064 128.962C133.619 128.982 133.179 129.049 132.753 129.17C132.331 129.29 131.924 129.457 131.539 129.673L130.317 130.365C130.245 130.401 130.215 130.488 130.251 130.561C130.286 130.633 130.375 130.663 130.447 130.627L131.739 130.077C132.107 129.917 132.492 129.805 132.884 129.733C133.273 129.661 133.667 129.635 134.064 129.653C134.591 129.669 135.239 129.697 135.933 129.71C136.338 129.717 136.759 129.723 137.179 129.719C137.709 129.714 138.239 129.697 138.736 129.68C139.317 129.66 139.851 129.632 140.292 129.613C140.635 129.594 140.973 129.64 141.29 129.751C141.615 129.865 141.918 130.037 142.18 130.271C142.347 130.417 142.489 130.543 142.556 130.602C142.567 130.612 142.577 130.62 142.588 130.628C142.611 130.657 142.647 130.677 142.686 130.681Z" fill="#192940"/>
<path fill-rule="evenodd" clip-rule="evenodd" d="M129.254 120.484C129.254 120.484 129.823 120.094 130.866 119.647C131.341 119.442 131.914 119.227 132.578 119.033C132.579 119.033 132.58 119.032 132.581 119.032C132.918 118.925 133.269 118.911 133.607 118.971C133.939 119.029 134.256 119.168 134.531 119.38C134.536 119.383 134.541 119.387 134.547 119.39C134.7 119.495 134.863 119.607 135.037 119.714C135.206 119.819 135.385 119.918 135.568 120.008C135.576 120.012 135.583 120.015 135.59 120.018C135.873 120.132 136.174 120.183 136.471 120.164C136.767 120.146 137.06 120.061 137.325 119.913C137.473 119.831 137.646 119.738 137.835 119.643C137.998 119.562 138.172 119.478 138.355 119.4C138.774 119.222 139.222 119.146 139.666 119.175C140.12 119.203 140.567 119.329 140.97 119.565L142.171 120.256C142.227 120.292 142.302 120.277 142.338 120.221C142.374 120.165 142.358 120.091 142.303 120.055L141.18 119.241C140.743 118.925 140.241 118.728 139.722 118.649C139.193 118.57 138.646 118.623 138.125 118.799C138.124 118.799 138.124 118.799 138.123 118.799C137.963 118.856 137.809 118.915 137.661 118.977C137.412 119.08 137.186 119.188 136.993 119.281C136.992 119.282 136.99 119.283 136.989 119.284C136.814 119.373 136.623 119.417 136.431 119.426C136.246 119.434 136.058 119.407 135.881 119.338C135.75 119.276 135.627 119.21 135.508 119.143C135.307 119.029 135.116 118.913 134.94 118.802C134.562 118.544 134.139 118.381 133.701 118.33C133.264 118.279 132.814 118.332 132.392 118.496C131.729 118.752 131.157 119.021 130.687 119.274C129.652 119.83 129.107 120.292 129.107 120.292C129.054 120.333 129.044 120.408 129.085 120.461C129.125 120.514 129.201 120.524 129.254 120.484Z" fill="#192940"/>
<path fill-rule="evenodd" clip-rule="evenodd" d="M100.947 83.1728C100.945 83.1738 100.944 83.1749 100.942 83.176C99.9389 83.8266 99.1485 84.7217 98.6239 85.7518C98.0972 86.7866 97.8415 87.9592 97.9058 89.1588C97.959 90.165 98.0733 91.3238 98.2901 92.5372C98.4836 93.6194 98.7605 94.7452 99.1459 95.8476C99.78 97.6697 100.836 99.2829 102.198 100.574C103.562 101.869 105.235 102.838 107.093 103.377C109.849 104.173 113.795 104.7 118.109 103.333C121.086 102.389 124.239 100.54 127.293 97.2567C128.454 96.0251 129.321 94.5677 129.85 92.9965C130.379 91.4274 130.572 89.7457 130.393 88.0607V88.0602C130.034 84.6951 128.496 81.7828 125.764 80.0006C123.53 78.5437 120.487 77.8378 116.611 78.2971C113.472 78.5729 110.778 79.1199 108.499 79.7949C105.112 80.7974 102.635 82.0805 100.947 83.1728ZM101.344 83.7851C102.996 82.7359 105.419 81.5096 108.722 80.5608C110.963 79.9172 113.609 79.4011 116.695 79.155C116.699 79.1544 116.703 79.1544 116.708 79.1539C120.332 78.7515 123.176 79.4032 125.252 80.7793C127.731 82.4212 129.098 85.0932 129.405 88.1628C129.559 89.7021 129.372 91.2366 128.88 92.6664C128.388 94.0936 127.592 95.416 126.525 96.5338C126.524 96.5349 126.523 96.5354 126.523 96.5365C123.607 99.6448 120.607 101.39 117.778 102.284C113.709 103.569 109.991 103.085 107.391 102.339C107.39 102.339 107.39 102.339 107.39 102.339C105.692 101.862 104.162 100.988 102.906 99.8208C101.647 98.6498 100.66 97.1855 100.059 95.5223C100.059 95.5218 100.058 95.5212 100.058 95.5212C99.6732 94.4725 99.3941 93.3999 99.1921 92.3682C98.9625 91.1973 98.8323 90.0789 98.7637 89.1057V89.1052C98.6882 88.0543 98.8955 87.0237 99.3399 86.1073C99.7858 85.1873 100.467 84.3815 101.342 83.7867L101.344 83.7851Z" fill="#192940"/>
<path fill-rule="evenodd" clip-rule="evenodd" d="M88.6808 89.1232C88.6808 89.1232 90.1005 90.2038 91.2683 92.7913C91.786 93.9383 92.2601 95.3777 92.5312 97.1562C92.6492 97.8535 92.6837 98.5599 92.6487 99.2626C92.6136 99.9674 92.5099 100.669 92.3228 101.354C92.166 101.942 92.073 102.655 92.2314 103.364C92.3659 103.967 92.6737 104.569 93.2748 105.084C93.3599 105.162 93.4927 105.155 93.5703 105.07C93.6479 104.985 93.6416 104.852 93.5565 104.775C93.0718 104.306 92.8384 103.782 92.7523 103.263C92.6497 102.643 92.7645 102.032 92.9261 101.531C93.1536 100.805 93.3014 100.059 93.3567 99.3062C93.4119 98.5509 93.3731 97.7898 93.2541 97.0371V97.0366C92.9256 95.1932 92.4042 93.7034 91.8253 92.5287C90.5008 89.8402 88.9237 88.7825 88.9237 88.7825C88.8296 88.7155 88.6989 88.7373 88.6319 88.8314C88.5649 88.9255 88.5867 89.0562 88.6808 89.1232Z" fill="#8C3C46"/>
<path fill-rule="evenodd" clip-rule="evenodd" d="M108.275 88.2569L110.972 86.582C111.549 86.2185 112.162 85.9213 112.796 85.6784C113.425 85.4377 114.076 85.2548 114.744 85.1405C115.349 85.0369 116.048 84.9609 116.807 84.9093C117.459 84.8652 118.155 84.8328 118.884 84.8742C119.181 84.8881 119.474 84.9481 119.749 85.0555C120.029 85.165 120.294 85.3133 120.528 85.5089C120.818 85.755 121.161 86.0585 121.5 86.3997C121.805 86.7069 122.108 87.0402 122.365 87.3931C122.402 87.4511 122.479 87.4676 122.536 87.4309C122.594 87.3937 122.611 87.3171 122.574 87.2592C122.398 86.9435 122.192 86.6357 121.974 86.3439C121.619 85.8671 121.233 85.4403 120.912 85.0985C120.911 85.0975 120.91 85.0969 120.909 85.0959C120.648 84.8306 120.345 84.6159 120.016 84.4522C119.683 84.2864 119.322 84.1827 118.947 84.1338C118.947 84.1338 118.946 84.1338 118.946 84.1338C118.18 84.0493 117.445 84.0195 116.756 84.0541C115.961 84.0934 115.231 84.2141 114.59 84.3353C114.588 84.3358 114.586 84.3363 114.583 84.3369C113.873 84.5 113.181 84.7275 112.523 85.0321C111.869 85.3345 111.249 85.7066 110.668 86.1398L108.135 88.0522C108.078 88.091 108.064 88.1681 108.103 88.2245C108.141 88.2813 108.218 88.2957 108.275 88.2569Z" fill="#3F4963"/>
<path fill-rule="evenodd" clip-rule="evenodd" d="M159.086 87.9957L156.538 86.104C155.954 85.675 155.331 85.3067 154.674 85.0085C154.014 84.7087 153.321 84.4849 152.61 84.3265C152.608 84.326 152.605 84.326 152.603 84.3255C151.962 84.2075 151.233 84.0937 150.438 84.0549C149.75 84.0209 149.016 84.0454 148.251 84.1267C148.25 84.1272 148.25 84.1272 148.249 84.1272C147.876 84.1724 147.514 84.2744 147.181 84.436C146.851 84.5965 146.546 84.8086 146.282 85.0712C146.281 85.0717 146.28 85.0728 146.279 85.0739C145.953 85.4114 145.562 85.8339 145.199 86.3054C144.976 86.5951 144.765 86.9013 144.584 87.2154C144.534 87.2941 144.557 87.3982 144.635 87.4482C144.713 87.4987 144.818 87.4753 144.867 87.3972C145.118 87.0426 145.414 86.7056 145.714 86.3958C146.047 86.0508 146.386 85.7436 146.675 85.4911C146.904 85.296 147.166 85.1435 147.444 85.0313C147.72 84.9213 148.013 84.8581 148.312 84.841C149.04 84.7975 149.737 84.824 150.39 84.8687C151.149 84.9208 151.847 85.0042 152.461 85.1127C153.121 85.2296 153.77 85.4172 154.398 85.6623C155.029 85.9089 155.639 86.2108 156.213 86.5781L158.895 88.2737C158.972 88.3263 159.077 88.3066 159.129 88.2301C159.182 88.153 159.162 88.0483 159.086 87.9957Z" fill="#3F4963"/>
<path fill-rule="evenodd" clip-rule="evenodd" d="M113.051 90.8392L114.001 91.2395C114.439 91.418 114.888 91.5509 115.347 91.6264C115.814 91.7035 116.288 91.7274 116.758 91.6854C117.133 91.6514 117.506 91.5738 117.867 91.4595C118.399 91.2905 118.904 91.0385 119.381 90.7281L120.179 90.186C120.248 90.1477 120.273 90.0611 120.234 89.992C120.196 89.9234 120.109 89.8989 120.04 89.9372L119.16 90.3321C118.688 90.5554 118.194 90.7 117.693 90.8089C117.361 90.8812 117.026 90.929 116.688 90.9631C116.266 91.0056 115.843 91.0252 115.417 90.9992C114.99 90.9737 114.564 90.9211 114.142 90.8126L113.14 90.5687C113.066 90.5437 112.985 90.5846 112.96 90.659C112.935 90.734 112.976 90.8148 113.051 90.8392Z" fill="#3F4963"/>
<path fill-rule="evenodd" clip-rule="evenodd" d="M154.057 90.5712L153.063 90.8418C152.229 91.0836 151.368 91.1203 150.523 91.031C150.101 90.9864 149.683 90.9135 149.272 90.8003C148.862 90.6876 148.456 90.5494 148.068 90.3581L147.198 89.944C147.104 89.8914 146.986 89.9249 146.934 90.019C146.882 90.1125 146.915 90.2311 147.009 90.2831L147.818 90.8062C148.218 91.0581 148.638 91.2691 149.078 91.4227C149.524 91.5785 149.988 91.6821 150.457 91.722C151.385 91.8007 152.327 91.646 153.22 91.3148L154.178 90.9406C154.28 90.9066 154.336 90.7966 154.302 90.6951C154.268 90.593 154.158 90.5377 154.057 90.5712Z" fill="#3F4963"/>
<path fill-rule="evenodd" clip-rule="evenodd" d="M107.855 87.0314C107.855 87.0314 108.668 86.0055 110.461 85.0615C111.031 84.7612 111.7 84.4747 112.473 84.2201C113.249 83.9644 114.131 83.7566 115.126 83.6019C115.955 83.4733 116.861 83.3681 117.856 83.3532C117.856 83.3532 117.856 83.3532 117.856 83.3532C118.353 83.3388 118.845 83.4037 119.315 83.5451C119.791 83.6886 120.245 83.9028 120.657 84.193C120.659 84.1946 120.661 84.1962 120.663 84.1978C120.928 84.37 121.213 84.5815 121.515 84.8356C121.769 85.0493 122.034 85.2906 122.308 85.5643C122.353 85.6132 122.429 85.617 122.478 85.5723C122.527 85.5277 122.531 85.4511 122.486 85.4022C122.234 85.0966 121.987 84.825 121.748 84.5837C121.457 84.2903 121.178 84.0452 120.917 83.8422C120.495 83.4882 120.013 83.2075 119.499 83.0087C118.978 82.8078 118.425 82.6983 117.86 82.6755C116.823 82.6452 115.871 82.6829 115.007 82.8105C113.956 82.9652 113.034 83.232 112.231 83.5419C111.43 83.8507 110.751 84.2116 110.179 84.5768C108.388 85.719 107.658 86.8932 107.658 86.8932C107.619 86.9474 107.633 87.0223 107.687 87.0606C107.742 87.0989 107.817 87.0856 107.855 87.0314Z" fill="#3F4963"/>
<path fill-rule="evenodd" clip-rule="evenodd" d="M159.53 86.7745C159.53 86.7745 158.24 84.7334 154.946 83.4588C154.004 83.0942 152.896 82.7901 151.612 82.6423C150.905 82.5605 150.144 82.5414 149.33 82.5616C148.766 82.5834 148.213 82.6913 147.693 82.8911C147.179 83.0894 146.698 83.3695 146.269 83.7277C146.015 83.9265 145.735 84.1716 145.445 84.465C145.206 84.7063 144.96 84.9784 144.707 85.284C144.664 85.3314 144.667 85.4052 144.715 85.4488C144.763 85.4919 144.837 85.4887 144.88 85.4408C145.154 85.1671 145.419 84.9263 145.673 84.7127C145.975 84.4586 146.261 84.2476 146.526 84.0753C146.528 84.0738 146.53 84.0722 146.532 84.0706C146.944 83.7798 147.399 83.5651 147.875 83.421C148.345 83.2786 148.837 83.2121 149.334 83.2254C149.335 83.2254 149.335 83.2254 149.335 83.2254C150.118 83.2334 150.846 83.3004 151.526 83.3801C152.751 83.5242 153.815 83.7602 154.731 84.061C157.944 85.1171 159.339 86.9084 159.339 86.9084C159.376 86.961 159.448 86.9738 159.501 86.9366C159.554 86.8999 159.567 86.8271 159.53 86.7745Z" fill="#3F4963"/>
<path fill-rule="evenodd" clip-rule="evenodd" d="M124.467 92.3216C124.467 92.3216 124.21 92.589 123.708 93.0286C123.528 93.1869 123.315 93.3629 123.075 93.5659C122.882 93.7296 122.669 93.9061 122.444 94.1017C122.21 94.3053 121.966 94.5301 121.699 94.7635C121.346 95.0717 120.972 95.4029 120.547 95.7356C120.49 95.7734 120.474 95.8499 120.511 95.9073C120.549 95.9647 120.626 95.9807 120.683 95.9434C121.188 95.6713 121.649 95.4071 122.06 95.1323C122.377 94.9197 122.667 94.7103 122.919 94.4961C123.22 94.2388 123.47 93.981 123.682 93.7472C124.373 92.9887 124.665 92.4704 124.665 92.4704C124.706 92.4157 124.695 92.3376 124.64 92.2966C124.585 92.2557 124.508 92.2669 124.467 92.3216Z" fill="#3F4963"/>
<path fill-rule="evenodd" clip-rule="evenodd" d="M143.125 92.5713C143.125 92.5713 143.384 92.9896 143.956 93.6338C144.207 93.916 144.512 94.2477 144.898 94.5873C145.146 94.8058 145.427 95.028 145.742 95.2448C146.151 95.5255 146.616 95.7859 147.123 96.0591C147.209 96.1155 147.325 96.0916 147.382 96.0049C147.438 95.9183 147.414 95.8024 147.327 95.7461C146.802 95.34 146.355 94.9297 145.937 94.5671C145.745 94.4008 145.559 94.2466 145.383 94.101C145.072 93.8432 144.79 93.6157 144.548 93.4068C143.805 92.7642 143.424 92.347 143.424 92.347C143.362 92.264 143.245 92.2476 143.162 92.3092C143.08 92.3714 143.063 92.4883 143.125 92.5713Z" fill="#192940"/>
<path fill-rule="evenodd" clip-rule="evenodd" d="M175.546 78.4941C170.683 75.0439 163.075 72.1029 156.806 72.6257C156.657 72.6438 156.55 72.7793 156.568 72.9281C156.586 73.0775 156.722 73.1843 156.871 73.1663C163.44 73.0933 170.366 75.8498 175.242 78.9459C175.367 79.0299 175.536 78.9964 175.62 78.872C175.704 78.7471 175.67 78.5781 175.546 78.4941Z" fill="#8C3C46"/>
<path fill-rule="evenodd" clip-rule="evenodd" d="M108.105 166.914C108.105 166.914 107.726 169.835 107.444 174.509C107.353 176.029 107.27 177.734 107.226 179.585C107.207 180.405 107.198 181.253 107.199 182.126C107.2 182.952 107.212 183.8 107.234 184.667C107.295 187.08 107.431 189.142 107.628 191.784C107.634 191.918 107.748 192.021 107.882 192.014C108.016 192.007 108.119 191.893 108.112 191.759C108.071 190.206 108.06 189.178 108.056 187.697C108.052 186.126 108.064 184.603 108.084 183.143C108.095 182.313 108.108 181.502 108.119 180.715C108.136 179.435 108.154 178.218 108.175 177.073C108.289 170.967 108.588 166.963 108.588 166.963C108.602 166.83 108.505 166.711 108.372 166.697C108.238 166.683 108.119 166.781 108.105 166.914Z" fill="#623FC6"/>
<path fill-rule="evenodd" clip-rule="evenodd" d="M94.0352 169.39C92.9976 169.944 89.5352 171.797 86.4503 173.475C85.2049 174.153 84.0249 174.809 83.0836 175.326C82.3926 175.716 81.7414 176.17 81.1445 176.686C80.5482 177.201 80.0049 177.779 79.5207 178.405L76.6818 182.103C76.5888 182.221 76.609 182.393 76.7265 182.486C76.8445 182.579 77.0162 182.559 77.1092 182.441L80.0469 178.821C80.5157 178.24 81.0409 177.71 81.6096 177.232C82.1778 176.755 82.7902 176.33 83.4423 175.969C84.3768 175.439 85.5541 174.779 86.7846 174.074C89.3912 172.581 92.2508 170.92 93.6599 170.1C93.3032 170.773 92.894 171.546 92.4709 172.354C90.7599 175.626 88.7863 179.462 88.7863 179.462C88.7156 179.595 88.7661 179.76 88.899 179.83C89.0314 179.901 89.1967 179.85 89.2668 179.718C89.2668 179.718 91.3451 175.937 93.1013 172.69C93.7152 171.555 94.2844 170.483 94.7224 169.666C94.9738 169.189 95.2858 168.75 95.6489 168.358C96.0119 167.965 96.4249 167.617 96.881 167.329L106.466 161.196C106.562 161.136 106.591 161.009 106.532 160.913C106.472 160.816 106.345 160.787 106.249 160.847L96.5121 166.736C95.9981 167.051 95.5303 167.43 95.12 167.864C94.7097 168.299 94.3573 168.788 94.0724 169.32L94.0352 169.39Z" fill="#623FC6"/>
<path fill-rule="evenodd" clip-rule="evenodd" d="M206.666 179.082L206.651 179.081L206.37 179.075C203.705 178.995 200.454 179.375 197.235 179.944C191.579 180.943 186.017 182.519 183.917 183.14C183.916 183.14 183.916 183.141 183.915 183.141C183.613 183.232 183.31 183.317 183.006 183.399C182.703 183.48 182.397 183.556 182.091 183.626C171.113 186.149 158.467 187.392 148.026 189.856C142.586 191.141 137.741 192.761 134.023 195.038L134.016 195.043C131.359 196.639 129.274 197.943 126.861 198.235C125.371 198.416 123.757 198.205 121.801 197.446C121.314 197.257 120.836 197.049 120.366 196.822C119.897 196.595 119.437 196.35 118.987 196.086C118.986 196.086 118.985 196.085 118.984 196.085C116.295 194.534 113.05 193.144 109.774 191.951C104.141 189.898 98.4174 188.422 95.3032 187.678C95.3027 187.677 95.3021 187.677 95.3016 187.677C94.5548 187.503 93.8202 187.281 93.1032 187.013C92.3861 186.745 91.6861 186.431 91.0079 186.072C89.7051 185.365 88.4725 184.815 86.4378 184.477C84.764 184.2 82.539 184.067 79.2626 184.114C76.3807 184.157 74.2296 184.022 72.6371 183.819C70.587 183.558 69.4883 183.189 68.9541 182.952C68.9547 182.952 81.0916 177.247 81.0916 177.247C81.2112 177.192 81.2628 177.05 81.207 176.93C81.1517 176.811 81.0093 176.759 80.8897 176.814L68.2185 182.675C68.1313 182.715 68.0707 182.798 68.058 182.893C68.0452 182.988 68.0819 183.083 68.1552 183.145C68.1552 183.145 69.0525 183.937 72.5606 184.405C74.1727 184.62 76.3504 184.771 79.2701 184.745C82.4933 184.716 84.6811 184.856 86.3262 185.139C88.2652 185.472 89.4377 186.004 90.6767 186.686C90.6778 186.686 90.6789 186.687 90.6799 186.687C91.3832 187.064 92.1087 187.395 92.8528 187.678C93.597 187.96 94.3592 188.196 95.1352 188.381C98.2255 189.137 103.908 190.635 109.498 192.703C112.721 193.895 115.914 195.276 118.558 196.816C119.026 197.093 119.505 197.352 119.993 197.59C120.482 197.829 120.98 198.048 121.487 198.248C123.602 199.08 125.351 199.304 126.965 199.115C129.495 198.819 131.697 197.491 134.487 195.829L134.501 195.821C138.152 193.599 142.911 192.042 148.246 190.79C158.689 188.34 171.329 187.08 182.305 184.556C182.306 184.556 182.306 184.556 182.306 184.556C182.623 184.482 182.938 184.403 183.252 184.319C183.566 184.234 183.879 184.145 184.189 184.05C186.273 183.429 191.787 181.853 197.395 180.845C200.549 180.279 203.732 179.891 206.345 179.961C206.344 179.961 206.644 179.967 206.644 179.967L206.604 179.959C206.644 179.964 206.695 179.968 206.755 179.968C206.918 179.968 207.259 179.966 207.737 179.952C209.626 179.899 213.669 179.673 217.442 178.755C220.046 178.121 222.518 177.152 224.1 175.705C224.206 175.608 224.254 175.463 224.225 175.322C224.197 175.181 224.097 175.065 223.961 175.017L203.909 167.894C203.72 167.826 203.511 167.925 203.443 168.115C203.375 168.304 203.474 168.513 203.664 168.581L223.007 175.544C221.516 176.656 219.424 177.41 217.243 177.932C213.537 178.819 209.567 179.024 207.714 179.07C207.247 179.082 206.916 179.083 206.756 179.082C206.711 179.082 206.665 179.082 206.665 179.082H206.666Z" fill="#623FC6"/>
<path fill-rule="evenodd" clip-rule="evenodd" d="M68.3598 182.64C68.3598 182.64 57.4448 184.706 51.0345 195.504C48.0638 200.507 46.0578 207.389 46.5676 216.817C46.5718 216.9 46.6074 216.979 46.6664 217.039C46.6664 217.039 56.9648 227.379 71.9652 239.156C80.1114 245.55 89.6444 252.367 99.6654 258.185L99.6659 258.185C107.217 262.55 115.565 265.046 124.044 265.625C132.526 266.205 141.14 264.867 149.217 261.569C165.882 254.753 189.668 244.435 212.531 232.412C226.799 224.908 240.706 216.738 252.307 208.355C252.423 208.272 252.493 208.139 252.496 207.996C252.496 207.996 252.82 195.113 244.983 185.396C240.753 180.149 234.152 175.814 223.84 174.929C223.607 174.908 223.401 175.081 223.381 175.315C223.361 175.547 223.533 175.753 223.767 175.773C233.78 176.649 240.193 180.849 244.295 185.95C251.315 194.681 251.584 206.019 251.583 207.747C240.044 216.048 226.237 224.125 212.083 231.56C189.245 243.557 165.497 253.875 148.855 260.682H148.854C140.916 263.938 132.448 265.265 124.105 264.711C115.758 264.157 107.536 261.721 100.095 257.442C90.0936 251.669 80.5786 244.897 72.4435 238.545C58.2713 227.48 48.2887 217.688 47.2384 216.65C46.735 207.451 48.6708 200.72 51.5618 195.816C57.7988 185.236 68.4619 183.175 68.4619 183.175C68.6096 183.147 68.7064 183.004 68.6782 182.856C68.65 182.709 68.507 182.612 68.3598 182.64Z" fill="#623FC6"/>
<path fill-rule="evenodd" clip-rule="evenodd" d="M183.316 160.611C185.363 161.426 189.955 163.252 194.418 165.003C196.116 165.669 197.796 166.324 199.311 166.905C200.536 167.376 201.655 167.793 202.584 168.144C203.4 168.448 204.136 168.911 204.753 169.498C205.376 170.091 205.882 170.806 206.23 171.611L208.113 175.94C208.164 176.064 208.306 176.123 208.43 176.073C208.553 176.022 208.613 175.88 208.562 175.756L206.869 171.349C206.516 170.437 205.98 169.619 205.309 168.935C204.633 168.245 203.817 167.696 202.906 167.321C201.986 166.949 200.881 166.495 199.662 166.008C198.155 165.406 196.478 164.746 194.779 164.082C189.42 161.987 183.851 159.844 182.741 159.418C182.718 159.381 182.696 159.344 182.672 159.308C182.16 158.509 181.475 157.822 180.658 157.298L169.604 150.301C169.396 150.168 169.12 150.23 168.987 150.437C168.855 150.645 168.916 150.921 169.123 151.053L180.125 158.133C180.824 158.577 181.407 159.163 181.849 159.84C182.293 160.519 182.597 161.29 182.723 162.11C183.05 164.107 183.489 166.844 183.878 169.174C184.313 171.781 184.678 173.879 184.678 173.879C184.698 174.012 184.821 174.104 184.954 174.084C185.086 174.065 185.178 173.942 185.158 173.809C185.158 173.809 184.906 171.694 184.575 169.072C184.279 166.728 183.915 163.981 183.656 161.973C183.59 161.504 183.476 161.048 183.316 160.611Z" fill="#623FC6"/>
<path fill-rule="evenodd" clip-rule="evenodd" d="M169.017 151.607C169.017 151.607 168.912 154.877 168.483 159.609C168.336 161.233 168.149 163.027 167.924 164.923C167.723 166.622 167.483 168.401 167.215 170.211C167.043 171.373 166.863 172.548 166.663 173.721C166.243 176.183 165.741 178.635 165.115 180.951C164.43 183.484 163.729 185.596 162.714 187.627C162.663 187.723 162.7 187.843 162.796 187.895C162.893 187.946 163.013 187.909 163.064 187.813C164.198 185.805 165.051 183.708 165.859 181.17C166.596 178.855 167.205 176.392 167.696 173.911C167.929 172.731 168.136 171.548 168.31 170.373C168.58 168.548 168.778 166.747 168.934 165.028C169.108 163.115 169.218 161.303 169.292 159.664C169.509 154.895 169.413 151.607 169.413 151.607C169.413 151.498 169.324 151.409 169.215 151.408C169.106 151.408 169.017 151.497 169.017 151.607Z" fill="#623FC6"/>
<path fill-rule="evenodd" clip-rule="evenodd" d="M142.51 107.343L143.957 107.072C144.081 107.043 144.209 107.042 144.333 107.061C144.458 107.08 144.583 107.116 144.694 107.183L145.389 107.584C145.511 107.665 145.675 107.631 145.755 107.508C145.836 107.386 145.802 107.222 145.679 107.142L145.033 106.665C144.856 106.538 144.657 106.452 144.448 106.411C144.238 106.369 144.019 106.378 143.806 106.427L142.389 106.827C142.247 106.86 142.158 107.003 142.191 107.145C142.225 107.288 142.367 107.376 142.51 107.343Z" fill="#8C3C46"/>
<path fill-rule="evenodd" clip-rule="evenodd" d="M170.673 124.5C170.673 124.5 170.673 128.795 170.219 135.188C170.066 137.346 169.862 139.742 169.597 142.294C169.502 143.22 169.4 144.166 169.293 145.13C169.139 146.515 168.972 147.934 168.784 149.378C168.337 152.821 167.777 156.392 167.012 159.93C166.986 160.041 167.054 160.151 167.164 160.178C167.274 160.204 167.385 160.136 167.412 160.026C168.339 156.507 169.092 152.951 169.667 149.508C169.907 148.064 170.116 146.64 170.294 145.249C170.417 144.281 170.524 143.329 170.616 142.397C170.872 139.83 171.035 137.416 171.141 135.244C171.456 128.806 171.277 124.487 171.277 124.487C171.273 124.321 171.135 124.188 170.969 124.192C170.802 124.195 170.67 124.333 170.673 124.5Z" fill="#8C3C46"/>
<path fill-rule="evenodd" clip-rule="evenodd" d="M110.279 177.628C110.258 177.659 110.244 177.695 110.239 177.739V177.74L110.236 177.759V177.759C110.235 177.777 110.235 177.795 110.237 177.813C110.238 177.838 110.243 177.871 110.265 177.912L110.266 177.914L110.268 177.918L110.271 177.924L110.272 177.926C110.288 177.957 110.31 177.984 110.337 178.008C110.461 178.117 110.649 178.104 110.758 177.981C110.764 177.974 110.771 177.966 110.777 177.958C111.34 177.323 111.696 176.554 111.833 175.749C111.972 174.93 111.88 174.072 111.547 173.274L111.546 173.273C110.309 170.341 109.176 167.542 108.122 164.88C106.937 161.887 105.864 159.065 104.885 156.417C104.148 154.426 103.463 152.534 102.83 150.738C102.116 148.71 101.465 146.806 100.876 145.025C96.6065 132.116 95.8634 125.396 95.8634 125.396C95.8427 125.232 95.6928 125.117 95.5296 125.138C95.3664 125.159 95.2511 125.308 95.2724 125.472C95.2724 125.472 95.6567 130.647 98.4988 140.485C99.3115 143.297 100.304 146.511 101.542 150.118C102.54 153.024 103.692 156.185 105.027 159.598C106.692 163.857 108.653 168.503 110.899 173.555C111.197 174.224 111.291 174.949 111.188 175.647C111.086 176.35 110.79 177.025 110.309 177.586C110.298 177.599 110.288 177.613 110.279 177.628ZM110.244 177.855L110.24 177.833V177.831L110.236 177.806L110.237 177.813L110.24 177.836L110.244 177.855L110.246 177.86C110.248 177.869 110.251 177.878 110.254 177.888L110.265 177.912L110.268 177.918L110.272 177.926L110.287 177.95C110.267 177.92 110.252 177.889 110.244 177.855ZM110.236 177.793L110.236 177.799L110.236 177.788V177.793ZM110.236 177.769C110.239 177.704 110.264 177.64 110.31 177.588C110.299 177.601 110.288 177.614 110.279 177.628C110.258 177.662 110.244 177.7 110.239 177.739L110.237 177.754L110.236 177.759V177.769Z" fill="#8C3C46"/>
<path d="M120.019 245.788L124.488 246.008L124.258 250.692L119.788 250.471L120.019 245.788Z" fill="white"/>
<path d="M121.691 211.856L126.161 212.076L125.908 217.217L121.438 216.997L121.691 211.856Z" fill="white"/>
<path fill-rule="evenodd" clip-rule="evenodd" d="M122.449 243.096C124.027 243.174 125.571 242.623 126.742 241.566C127.913 240.508 128.615 239.031 128.692 237.457L132.66 237.653C132.53 240.275 131.361 242.738 129.41 244.5C127.458 246.263 124.884 247.18 122.254 247.05C119.623 246.921 117.152 245.755 115.383 243.809C113.614 241.863 112.693 239.297 112.822 236.675L116.79 236.871C116.712 238.444 117.265 239.984 118.326 241.151C119.387 242.318 120.87 243.018 122.449 243.096Z" fill="white"/>
<path fill-rule="evenodd" clip-rule="evenodd" d="M122.939 230.932C126.042 231.085 128.68 228.702 128.833 225.61C128.985 222.518 126.594 219.887 123.491 219.734C120.389 219.581 117.751 221.964 117.598 225.056C117.446 228.148 119.837 230.779 122.939 230.932ZM122.729 235.198C128.195 235.467 132.844 231.269 133.113 225.821C133.381 220.373 129.168 215.738 123.702 215.468C118.236 215.199 113.587 219.397 113.318 224.845C113.05 230.293 117.263 234.928 122.729 235.198Z" fill="white"/>
<ellipse rx="2.75035" ry="2.58204" transform="matrix(1 0 0.0247811 0.999693 116.733 86.7712)" fill="#3F4963"/>
<circle opacity="0.7" cx="118.125" cy="85.9428" r="0.665826" fill="white"/>
<ellipse rx="2.75035" ry="2.58204" transform="matrix(1 0 0.0247811 0.999693 150.61 86.7712)" fill="#3F4963"/>
<circle opacity="0.7" cx="151.858" cy="85.9428" r="0.665826" fill="white"/>
<defs>
<linearGradient id="paint0_linear_3129_7502" x1="679.263" y1="123.446" x2="403.385" y2="-172.366" gradientUnits="userSpaceOnUse">
<stop stop-color="#A10BD2"/>
<stop offset="1" stop-color="#16182B"/>
</linearGradient>
<linearGradient id="paint1_linear_3129_7502" x1="679.263" y1="123.446" x2="403.385" y2="-172.366" gradientUnits="userSpaceOnUse">
<stop stop-color="#A10BD2"/>
<stop offset="1" stop-color="#16182B"/>
</linearGradient>
<linearGradient id="paint2_linear_3129_7502" x1="233.18" y1="-26.7948" x2="345.118" y2="145.433" gradientUnits="userSpaceOnUse">
<stop stop-color="#9B55FF"/>
<stop offset="1" stop-color="#8C3CFF" stop-opacity="0.17"/>
</linearGradient>
<linearGradient id="paint3_linear_3129_7502" x1="334.212" y1="125.099" x2="-0.175725" y2="108.912" gradientUnits="userSpaceOnUse">
<stop stop-color="#9526B8"/>
<stop offset="1" stop-color="#210C42"/>
</linearGradient>
<linearGradient id="paint4_linear_3129_7502" x1="334.212" y1="125.099" x2="-0.175725" y2="108.912" gradientUnits="userSpaceOnUse">
<stop stop-color="#9526B8"/>
<stop offset="1" stop-color="#210C42"/>
</linearGradient>
<linearGradient id="paint5_linear_3129_7502" x1="94.4081" y1="164.513" x2="73.309" y2="193.335" gradientUnits="userSpaceOnUse">
<stop stop-color="#0E112D"/>
<stop offset="1" stop-color="#0E112D" stop-opacity="0"/>
</linearGradient>
<linearGradient id="paint6_linear_3129_7502" x1="97.3538" y1="152.627" x2="115.59" y2="183.341" gradientUnits="userSpaceOnUse">
<stop stop-color="#0E112D"/>
<stop offset="1" stop-color="#0E112D" stop-opacity="0"/>
</linearGradient>
<linearGradient id="paint7_linear_3129_7502" x1="83.6395" y1="165.088" x2="62.5404" y2="193.91" gradientUnits="userSpaceOnUse">
<stop stop-color="#0E112D"/>
<stop offset="1" stop-color="#0E112D" stop-opacity="0"/>
</linearGradient>
<linearGradient id="paint8_linear_3129_7502" x1="205" y1="149.547" x2="189.304" y2="180.797" gradientUnits="userSpaceOnUse">
<stop stop-color="#0E112D"/>
<stop offset="1" stop-color="#0E112D" stop-opacity="0"/>
</linearGradient>
<linearGradient id="paint9_linear_3129_7502" x1="181.231" y1="119.179" x2="140.828" y2="156.286" gradientUnits="userSpaceOnUse">
<stop stop-color="#0E112D"/>
<stop offset="1" stop-color="#0E112D" stop-opacity="0"/>
</linearGradient>
<linearGradient id="paint10_linear_3129_7502" x1="71.4542" y1="44.9862" x2="329.839" y2="343.344" gradientUnits="userSpaceOnUse">
<stop stop-color="#FFAF96"/>
<stop offset="1" stop-color="#A0533B"/>
</linearGradient>
<linearGradient id="paint11_linear_3129_7502" x1="175.712" y1="64.9009" x2="43.7112" y2="298.175" gradientUnits="userSpaceOnUse">
<stop stop-color="#FFAF96"/>
<stop offset="1" stop-color="#A0533B"/>
</linearGradient>
<radialGradient id="paint12_radial_3129_7502" cx="0" cy="0" r="1" gradientUnits="userSpaceOnUse" gradientTransform="translate(87.5175 81.7038) rotate(64.1064) scale(33.9927 10.9351)">
<stop stop-color="#BC4A3A"/>
<stop offset="1" stop-color="#BC4A3A" stop-opacity="0"/>
</radialGradient>
<linearGradient id="paint13_linear_3129_7502" x1="112.403" y1="78.4752" x2="115.519" y2="113.036" gradientUnits="userSpaceOnUse">
<stop stop-color="#B4C0EB"/>
<stop offset="1" stop-color="#A6B0D3" stop-opacity="0"/>
</linearGradient>
<linearGradient id="paint14_linear_3129_7502" x1="124.181" y1="76.6204" x2="134.047" y2="86.0473" gradientUnits="userSpaceOnUse">
<stop stop-color="white"/>
<stop offset="1" stop-color="white" stop-opacity="0"/>
<stop offset="1" stop-color="white" stop-opacity="0.277213"/>
</linearGradient>
<linearGradient id="paint15_linear_3129_7502" x1="113.953" y1="64.7514" x2="137.218" y2="85.5831" gradientUnits="userSpaceOnUse">
<stop stop-color="white"/>
<stop offset="1" stop-color="white" stop-opacity="0"/>
<stop offset="1" stop-color="white" stop-opacity="0.277213"/>
</linearGradient>
<linearGradient id="paint16_linear_3129_7502" x1="153.42" y1="78.5616" x2="157.516" y2="118.417" gradientUnits="userSpaceOnUse">
<stop stop-color="#B4C0EB"/>
<stop offset="1" stop-color="#A6B0D3" stop-opacity="0"/>
</linearGradient>
<linearGradient id="paint17_linear_3129_7502" x1="161.087" y1="68.9107" x2="179.461" y2="81.3782" gradientUnits="userSpaceOnUse">
<stop stop-color="white"/>
<stop offset="1" stop-color="white" stop-opacity="0"/>
<stop offset="1" stop-color="white" stop-opacity="0.277213"/>
</linearGradient>
<linearGradient id="paint18_linear_3129_7502" x1="151.382" y1="60.8514" x2="181.763" y2="82.8577" gradientUnits="userSpaceOnUse">
<stop stop-color="white"/>
<stop offset="1" stop-color="white" stop-opacity="0"/>
<stop offset="1" stop-color="white" stop-opacity="0.277213"/>
</linearGradient>
<linearGradient id="paint19_linear_3129_7502" x1="96.3903" y1="132.395" x2="216.597" y2="170.096" gradientUnits="userSpaceOnUse">
<stop stop-color="#CE5C52"/>
<stop offset="1" stop-color="#F29289" stop-opacity="0"/>
</linearGradient>
<linearGradient id="paint20_linear_3129_7502" x1="165.423" y1="129.633" x2="125.235" y2="130.827" gradientUnits="userSpaceOnUse">
<stop stop-color="#FFE5D9"/>
<stop offset="1" stop-color="#FFDFD0" stop-opacity="0"/>
</linearGradient>
<linearGradient id="paint21_linear_3129_7502" x1="21.627" y1="4.50858" x2="-9.22849" y2="5.67268" gradientUnits="userSpaceOnUse">
<stop stop-color="#FFE5D9"/>
<stop offset="1" stop-color="#FFDFD0" stop-opacity="0"/>
</linearGradient>
<linearGradient id="paint22_linear_3129_7502" x1="4.27599" y1="1.20491" x2="-1.82854" y2="1.37529" gradientUnits="userSpaceOnUse">
<stop stop-color="#FFE5D9"/>
<stop offset="1" stop-color="#FFDFD0" stop-opacity="0"/>
</linearGradient>
<linearGradient id="paint23_linear_3129_7502" x1="-1.2946" y1="1.06923" x2="5.9376" y2="1.87656" gradientUnits="userSpaceOnUse">
<stop stop-color="#FFB49C"/>
<stop offset="1" stop-color="#FF9C7D" stop-opacity="0"/>
</linearGradient>
<linearGradient id="paint24_linear_3129_7502" x1="73.1372" y1="101.21" x2="217.734" y2="146.235" gradientUnits="userSpaceOnUse">
<stop stop-color="#765770"/>
<stop offset="1" stop-color="#484362"/>
</linearGradient>
<linearGradient id="paint25_linear_3129_7502" x1="73.1372" y1="101.21" x2="217.734" y2="146.235" gradientUnits="userSpaceOnUse">
<stop stop-color="#765770"/>
<stop offset="1" stop-color="#484362"/>
</linearGradient>
<linearGradient id="paint26_linear_3129_7502" x1="190.351" y1="93.674" x2="204.869" y2="142.296" gradientUnits="userSpaceOnUse">
<stop stop-color="#C78195"/>
<stop offset="1" stop-color="#9C6877" stop-opacity="0"/>
</linearGradient>
<linearGradient id="paint27_linear_3129_7502" x1="125.146" y1="60.9056" x2="124.489" y2="85.1531" gradientUnits="userSpaceOnUse">
<stop stop-color="#3261A8"/>
<stop offset="1" stop-color="#273F63" stop-opacity="0"/>
</linearGradient>
<linearGradient id="paint28_linear_3129_7502" x1="118.13" y1="60.2287" x2="117.472" y2="84.4762" gradientUnits="userSpaceOnUse">
<stop stop-color="#3261A8"/>
<stop offset="1" stop-color="#273F63" stop-opacity="0"/>
</linearGradient>
<linearGradient id="paint29_linear_3129_7502" x1="165.44" y1="66.0198" x2="164.051" y2="85.0437" gradientUnits="userSpaceOnUse">
<stop stop-color="#3261A8"/>
<stop offset="1" stop-color="#273F63" stop-opacity="0"/>
</linearGradient>
<linearGradient id="paint30_linear_3129_7502" x1="158.78" y1="66.6525" x2="157.391" y2="85.6764" gradientUnits="userSpaceOnUse">
<stop stop-color="#3261A8"/>
<stop offset="1" stop-color="#273F63" stop-opacity="0"/>
</linearGradient>
</defs>
</svg>
