<svg width="120" height="120" viewBox="0 0 120 120" fill="none" xmlns="http://www.w3.org/2000/svg">
<rect opacity="0.5" width="120" height="120" rx="24" fill="#13181E"/>
<circle cx="60" cy="60" r="38.125" fill="#361651" stroke="#704AB7" stroke-width="3.75"/>
<path fill-rule="evenodd" clip-rule="evenodd" d="M59.3618 59.4604C63.0402 59.4604 66.0222 56.4883 66.0222 52.8218C66.0222 49.1554 63.0402 46.1832 59.3618 46.1832C55.6834 46.1832 52.7015 49.1554 52.7015 52.8218C52.7015 56.4883 55.6834 59.4604 59.3618 59.4604ZM59.3618 64.5184C65.8428 64.5184 71.0968 59.2817 71.0968 52.8218C71.0968 46.362 65.8428 41.1252 59.3618 41.1252C52.8808 41.1252 47.627 46.362 47.627 52.8218C47.627 59.2817 52.8808 64.5184 59.3618 64.5184Z" fill="#704AB7"/>
<path fill-rule="evenodd" clip-rule="evenodd" d="M59.4897 73.8803C61.361 73.8803 63.1559 73.1394 64.4792 71.8204C65.8025 70.5014 66.5458 68.7124 66.5458 66.8472H71.25C71.25 69.956 70.0109 72.9376 67.8055 75.1359C65.6 77.3341 62.6087 78.5691 59.4897 78.5691C56.3706 78.5691 53.3793 77.3341 51.1738 75.1359C48.9683 72.9376 47.7293 69.956 47.7293 66.8472H52.4335C52.4335 68.7124 53.1769 70.5014 54.5002 71.8204C55.8235 73.1394 57.6182 73.8803 59.4897 73.8803Z" fill="#704AB7"/>
<path d="M56.7735 36.9709H62.0732V43.0661H56.7735V36.9709Z" fill="#704AB7"/>
<path d="M56.7735 77.1987H62.0732V82.7521H56.7735V77.1987Z" fill="#704AB7"/>
</svg>
