<svg viewBox="0 0 270 270" fill="none" xmlns="http://www.w3.org/2000/svg">
<mask id="mask0_3164_5966" style="mask-type:alpha" maskUnits="userSpaceOnUse" x="40" y="167" width="190" height="96">
<path d="M220.166 167.462C232.228 173.393 229.699 188.815 227.379 196.906C226.478 200.054 224.705 202.884 222.264 205.067C202.035 223.161 171.362 247.745 151.599 258.797C147.433 261.131 142.77 262.435 137.998 262.601C133.226 262.766 128.483 261.787 124.167 259.746C87.3442 242.284 54.6405 215.298 44.9224 206.946C42.9483 205.235 41.6244 202.896 41.1738 200.322C37.2543 178.433 48.2583 173.702 48.2583 173.702C48.2583 173.702 59.3667 177.384 66.1238 178.494C72.881 179.605 79.9275 183.031 79.9275 183.031C79.9275 183.031 92.189 190.41 120.736 196.218C121.478 196.346 122.209 196.53 122.924 196.768C126.525 197.954 129.837 200.336 131.835 201.404C132.571 201.799 133.397 201.999 134.232 201.985C135.068 201.971 135.886 201.743 136.609 201.323C139.39 199.694 142.262 198.225 145.212 196.925C146.705 196.273 148.237 195.715 149.8 195.254C165.507 190.756 178.366 183.221 190.993 178.936C201.361 175.415 215.378 169.83 220.166 167.462Z" fill="url(#paint0_linear_3164_5966)"/>
</mask>
<g mask="url(#mask0_3164_5966)">
<path d="M220.166 167.462C232.228 173.393 229.699 188.815 227.379 196.906C226.478 200.054 224.705 202.884 222.264 205.067C202.035 223.161 171.362 247.745 151.599 258.797C147.433 261.131 142.77 262.435 137.998 262.601C133.226 262.766 128.483 261.787 124.167 259.746C87.3442 242.284 54.6405 215.298 44.9224 206.946C42.9483 205.235 41.6244 202.896 41.1738 200.322C37.2543 178.433 48.2583 173.702 48.2583 173.702C48.2583 173.702 59.3667 177.384 66.1238 178.494C72.881 179.605 79.9275 183.031 79.9275 183.031C79.9275 183.031 92.189 190.41 120.736 196.218C121.478 196.346 122.209 196.53 122.924 196.768C126.525 197.954 129.837 200.336 131.835 201.404C132.571 201.799 133.397 201.999 134.232 201.985C135.068 201.971 135.886 201.743 136.609 201.323C139.39 199.694 142.262 198.225 145.212 196.925C146.705 196.273 148.237 195.715 149.8 195.254C165.507 190.756 178.366 183.221 190.993 178.936C201.361 175.415 215.378 169.83 220.166 167.462Z" fill="url(#paint1_linear_3164_5966)"/>
<path d="M217.415 216.302C223.864 204.077 225.571 172.563 198.5 160.953C206.474 152.645 219.061 144.825 220.829 144.375C223.038 143.812 250.706 198.783 251.63 201.771C252.369 204.162 229.128 212.454 217.415 216.302Z" fill="url(#paint2_linear_3164_5966)"/>
<path d="M71.4356 207.599C82.7149 226.285 100.608 244.938 120.092 257.883C146.937 280.078 82.2965 259.604 35.5059 244.784C22.061 240.526 10.09 236.734 2.18657 234.556C-23.8213 190.576 -72.0218 101.882 -56.7611 98.9407C-41.5004 95.999 55.7549 129.351 82.026 142.518C55.4366 150.719 54.466 174.25 66.8472 199.255C61.0103 195.65 54.7907 191.594 48.8321 187.362C42.5124 182.874 36.5226 178.213 31.6056 173.701C26.6528 169.157 22.9395 164.899 21.0066 161.235L16.7839 163.462C19.1028 167.859 23.2998 172.559 28.3779 177.219C33.4918 181.911 39.6535 186.699 46.0677 191.255C54.6184 197.328 63.6826 203.033 71.4356 207.599Z" fill="#0D1029"/>
<path d="M133.114 246.339H137.815V251.266H133.114V246.339Z" fill="white"/>
<path d="M133.114 210.646H137.816V216.054H133.114V210.646Z" fill="white"/>
<path fill-rule="evenodd" clip-rule="evenodd" d="M135.524 243.388C137.184 243.388 138.777 242.731 139.951 241.561C141.125 240.391 141.784 238.804 141.784 237.149H145.958C145.958 239.907 144.858 242.552 142.902 244.502C140.945 246.452 138.291 247.548 135.524 247.548C132.757 247.548 130.103 246.452 128.147 244.502C126.19 242.552 125.091 239.907 125.091 237.149H129.264C129.264 238.804 129.924 240.391 131.098 241.561C132.272 242.731 133.864 243.388 135.524 243.388Z" fill="white"/>
<path fill-rule="evenodd" clip-rule="evenodd" d="M135.41 230.599C138.674 230.599 141.319 227.962 141.319 224.709C141.319 221.457 138.674 218.82 135.41 218.82C132.147 218.82 129.502 221.457 129.502 224.709C129.502 227.962 132.147 230.599 135.41 230.599ZM135.41 235.086C141.16 235.086 145.821 230.441 145.821 224.709C145.821 218.979 141.16 214.333 135.41 214.333C129.661 214.333 125 218.979 125 224.709C125 230.441 129.661 235.086 135.41 235.086Z" fill="white"/>
</g>
<mask id="mask1_3164_5966" style="mask-type:alpha" maskUnits="userSpaceOnUse" x="55" y="7" width="164" height="163">
<path d="M103.786 51.3758C99.9069 56.1662 95.7409 60.7172 91.3113 65.004C90.7483 65.5444 90.2997 66.1926 89.9924 66.91C89.6851 67.6274 89.5252 68.3993 89.5224 69.1797C89.4939 75.0352 89.6173 89.9825 91.4204 102.273C92.6751 110.864 95.988 119.025 101.077 126.06C103.018 128.736 104.973 131.147 106.875 133.296C106.932 133.472 108.114 137.358 108.503 145.368C108.403 145.425 105.096 147.323 92.5261 153.278C92.1986 153.433 91.9238 153.681 91.7357 153.99C91.5476 154.3 91.4545 154.658 91.4679 155.02C91.4679 155.02 79.3155 159.57 71.8182 163.48C71.6235 163.581 71.4519 163.721 71.3146 163.892C71.1773 164.063 71.0773 164.26 71.021 164.472H70.9593C66.056 166.58 60.9948 168.3 55.8222 169.616C57.7203 160.273 65.8772 152.092 68.8002 149.843C69.7661 149.11 70.6853 148.318 71.5524 147.47C78.3428 140.756 79.4911 134.763 74.3189 113.148C71.4718 101.257 69.0992 78.243 80.1649 54.0236C91.1168 26.5349 101.338 19.6069 114.126 12.6458C121.277 8.75 126.524 6.68713 139.299 7.4261C139.964 7.48779 140.618 7.62065 141.278 7.69183C144.908 8.09043 160.999 11.4168 176.966 39.1618C188.943 59.9693 185.218 78.9927 187.074 99.5535C187.297 102.016 187.501 104.479 187.657 106.942C188.013 112.432 188.839 124.257 195.183 136.604C195.435 136.993 199.648 143.304 209.822 149.672C219.995 156.04 218.838 165.274 218.785 165.545C217.835 164.862 216.704 164.476 215.535 164.434C203.107 162.935 199.634 161.255 194.656 159.547C194.335 158.979 193.822 158.545 193.209 158.322C186.357 155.822 178.233 153.16 177.982 153.079C177.861 152.658 177.647 152.27 177.358 151.942C177.068 151.613 176.709 151.354 176.307 151.181C167.642 147.451 159.428 143.964 159.428 143.964H159.404C159.083 139.742 159.083 135.502 159.404 131.28H159.381C161.051 129.012 162.584 126.653 164.083 124.162C167.843 117.931 170.184 110.948 170.94 103.71C171.777 94.8623 171.838 85.9579 171.12 77.0994C170.432 68.4919 167.486 60.2181 162.579 53.1126C158.417 47.2333 152.828 42.5546 145.971 40.3006C130.919 35.3989 124.172 29.3867 124.172 29.3867C124.172 29.3867 124.096 29.5623 123.934 29.8613C122.795 32.1437 117.386 41.8523 103.815 51.3379L103.786 51.3758Z" fill="url(#paint3_linear_3164_5966)"/>
</mask>
<g mask="url(#mask1_3164_5966)">
<path d="M103.786 51.3758C99.9069 56.1662 95.7409 60.7172 91.3113 65.004C90.7483 65.5444 90.2997 66.1926 89.9924 66.91C89.6851 67.6274 89.5252 68.3993 89.5224 69.1797C89.4939 75.0352 89.6173 89.9825 91.4204 102.273C92.6751 110.864 95.988 119.025 101.077 126.06C103.018 128.736 104.973 131.147 106.875 133.296C106.932 133.472 108.114 137.358 108.503 145.368C108.403 145.425 105.096 147.323 92.5261 153.278C92.1986 153.433 91.9238 153.681 91.7357 153.99C91.5476 154.3 91.4545 154.658 91.4679 155.02C91.4679 155.02 79.3155 159.57 71.8182 163.48C71.6235 163.581 71.4519 163.721 71.3146 163.892C71.1773 164.063 71.0773 164.26 71.021 164.472H70.9593C66.056 166.58 60.9948 168.3 55.8222 169.616C57.7203 160.273 65.8772 152.092 68.8002 149.843C69.7661 149.11 70.6853 148.318 71.5524 147.47C78.3428 140.756 79.4911 134.763 74.3189 113.148C71.4718 101.257 69.0992 78.243 80.1649 54.0236C91.1168 26.5349 101.338 19.6069 114.126 12.6458C121.277 8.75 126.524 6.68713 139.299 7.4261C139.964 7.48779 140.618 7.62065 141.278 7.69183C144.908 8.09043 160.999 11.4168 176.966 39.1618C188.943 59.9693 185.218 78.9927 187.074 99.5535C187.297 102.016 187.501 104.479 187.657 106.942C188.013 112.432 188.839 124.257 195.183 136.604C195.435 136.993 199.648 143.304 209.822 149.672C219.995 156.04 218.838 165.274 218.785 165.545C217.835 164.862 216.704 164.476 215.535 164.434C203.107 162.935 199.634 161.255 194.656 159.547C194.335 158.979 193.822 158.545 193.209 158.322C186.357 155.822 178.233 153.16 177.982 153.079C177.861 152.658 177.647 152.27 177.358 151.942C177.068 151.613 176.709 151.354 176.307 151.181C167.642 147.451 159.428 143.964 159.428 143.964H159.404C159.083 139.742 159.083 135.502 159.404 131.28H159.381C161.051 129.012 162.584 126.653 164.083 124.162C167.843 117.931 170.184 110.948 170.94 103.71C171.777 94.8623 171.838 85.9579 171.12 77.0994C170.432 68.4919 167.486 60.2181 162.579 53.1126C158.417 47.2333 152.828 42.5546 145.971 40.3006C130.919 35.3989 124.172 29.3867 124.172 29.3867C124.172 29.3867 124.096 29.5623 123.934 29.8613C122.795 32.1437 117.386 41.8523 103.815 51.3379L103.786 51.3758Z" fill="url(#paint4_linear_3164_5966)"/>
<path d="M163.926 25.1019C158.441 28.5953 142.619 27.6388 131.375 2.56747" stroke="#FFB694" stroke-width="1.73604"/>
<path d="M134.032 0.153238C145.276 25.2246 159.057 24.5056 164.542 21.0122L145.87 -6.48366L134.032 0.153238Z" fill="#FFB694"/>
<path d="M218.947 183.861C220.756 168.31 212.137 159.756 198.639 146.725C183.527 132.136 180.406 110.313 182.179 89.3832C185.311 52.4122 170.448 28.3654 152.216 13.3382C154.651 2.98742 158.742 -15.4381 159.273 -16.2352C159.804 -17.0323 183.738 11.33 195.639 25.6107L250.271 102.494C253.814 129.008 260.899 182.4 260.899 183.861C260.899 185.323 239.427 189.563 218.947 183.861Z" fill="url(#paint5_linear_3164_5966)"/>
<path d="M124.015 30.3753C101.135 38.0613 97.7988 25.981 98.9906 18.9801L83.5735 13.171L52.9633 65.6776C42.462 98.0753 20.9678 163.63 19.0016 166.669C16.5438 170.467 51.3994 189.683 60.1133 194.151C67.0844 197.726 102.193 166.893 118.876 151.029L124.015 91.1489V30.3753Z" fill="#6F3D55"/>
<path d="M101.055 15.9908C99.8635 22.9917 103.485 35.2116 123.148 28.0435" stroke="#6F3D55" stroke-width="1.42355"/>
<path d="M29.3466 184.017C27.8569 187.209 60.9488 190.401 61.6937 189.869C53.075 152.415 95.2114 152.521 77.1225 122.089L71.6959 139.965L47.9675 146.243C42.2571 157.77 30.5383 181.463 29.3466 184.017Z" fill="#4C2537"/>
<path opacity="0.8" d="M136.024 78.6584C139.061 78.4897 129.52 21.9786 119.193 26.587C107.687 55.2921 83.4419 52.6793 76.1561 77.1558C72.406 89.7541 79.6049 102.289 86.5816 113.429C103.291 140.11 92.6064 155.756 92.6064 155.756C64.6532 271.969 133.578 78.7943 136.024 78.6584Z" fill="#482234"/>
<path opacity="0.8" d="M218.813 179.599C223.018 124.93 161.95 173.566 170.178 84.5228C129.754 84.5228 134.783 100.224 138.369 133.527C139.777 146.596 145.413 158.766 152.39 169.906C169.1 196.588 158.415 212.234 158.415 212.234C130.462 328.446 218.813 209.951 218.813 179.599Z" fill="#482234"/>
<path opacity="0.8" d="M170.493 82.7023C170.493 171.801 225.873 122.892 221.668 177.561" stroke="#482234" stroke-width="1.42355"/>
<path d="M197.208 139.346L199.409 143.75L202.052 144.455C202.096 144.22 202.157 143.6 202.052 143.001C201.919 142.253 202.14 141.548 200.907 138.201C199.92 135.524 198.03 137.849 197.208 139.346Z" fill="#552B3D"/>
<path opacity="0.8" d="M88.999 155.726C88.999 155.726 97.9357 142.639 86.6817 119.994" stroke="#482234" stroke-width="1.42355"/>
</g>
<mask id="mask2_3164_5966" style="mask-type:alpha" maskUnits="userSpaceOnUse" x="89" y="29" width="83" height="120">
<path d="M123.913 29.8999L124.148 29.4296C124.148 29.4296 130.895 35.4275 145.947 40.3435C152.822 42.5401 158.411 47.2176 162.572 53.0955L162.574 53.0937C167.487 60.1991 170.438 68.4747 171.13 77.0852C171.847 85.9438 171.787 94.8481 170.949 103.696C170.193 110.934 167.852 117.917 164.093 124.148C162.593 126.644 161.06 129.002 159.39 131.266C155.285 136.818 150.37 141.722 144.808 145.814C143.214 147.01 141.369 147.83 139.413 148.211C136.091 148.851 130.668 149.463 125.211 148.135C123.686 147.755 122.247 147.092 120.969 146.18C115.802 142.43 111.076 138.108 106.88 133.296C104.982 131.147 103.022 128.736 101.082 126.06C95.9927 119.025 92.6798 110.864 91.4251 102.273C89.6172 89.9826 89.4939 75.0353 89.5271 69.1798C89.5299 68.3993 89.6898 67.6274 89.9971 66.9101C90.3044 66.1927 90.753 65.5445 91.316 65.004C95.7456 60.7173 99.9116 56.1663 103.791 51.3759C117.362 41.8856 122.772 32.1817 123.911 29.8993L123.913 29.8999Z" fill="url(#paint6_linear_3164_5966)"/>
</mask>
<g mask="url(#mask2_3164_5966)">
<path d="M123.913 29.8999L124.148 29.4296C124.148 29.4296 130.895 35.4275 145.947 40.3435C152.822 42.5401 158.411 47.2176 162.572 53.0955L162.574 53.0937C167.487 60.1991 170.438 68.4747 171.13 77.0852C171.847 85.9438 171.787 94.8481 170.949 103.696C170.193 110.934 167.852 117.917 164.093 124.148C162.593 126.644 161.06 129.002 159.39 131.266C155.285 136.818 150.37 141.722 144.808 145.814C143.214 147.01 141.369 147.83 139.413 148.211C136.091 148.851 130.668 149.463 125.211 148.135C123.686 147.755 122.247 147.092 120.969 146.18C115.802 142.43 111.076 138.108 106.88 133.296C104.982 131.147 103.022 128.736 101.082 126.06C95.9927 119.025 92.6798 110.864 91.4251 102.273C89.6172 89.9826 89.4939 75.0353 89.5271 69.1798C89.5299 68.3993 89.6898 67.6274 89.9971 66.9101C90.3044 66.1927 90.753 65.5445 91.316 65.004C95.7456 60.7173 99.9116 56.1663 103.791 51.3759C117.362 41.8856 122.772 32.1817 123.911 29.8993L123.913 29.8999Z" fill="url(#paint7_linear_3164_5966)"/>
<path opacity="0.3" d="M99.444 83.3412L98.6127 80.7522C105.642 74.2339 121.772 78.6486 117.928 82.824L116.878 82.0794C116.878 82.0794 114.049 80.356 112.777 80.0499C109.558 79.2756 107.384 79.7338 107.384 79.7338C103.805 80.0123 99.444 83.3412 99.444 83.3412Z" fill="#FF7C7C"/>
<path d="M141.542 71.5209C141.581 72.5817 127.681 84.7935 141.125 90.1851C153.226 94.4691 160.065 88.4961 152.671 87.6546C150.556 88.3181 145.037 85.7461 143.68 82.3922L145.256 81.3496L147.433 80.2161L150.55 79.4853L154.413 79.8134L158.649 81.1342L161.753 82.2793C161.753 82.2793 162.631 81.3645 161.244 79.6941C158.888 77.964 155.845 77.442 155.845 77.442C151.236 76.1799 147.729 77.3674 144.764 78.4264L143.847 78.9949C144.621 77.0065 146.175 74.3918 147.791 71.8341C145.703 71.521 142.838 70.7386 141.542 71.5209Z" fill="url(#paint8_linear_3164_5966)"/>
<ellipse opacity="0.1" cx="153.238" cy="103.915" rx="7.22298" ry="5.23927" fill="url(#paint9_linear_3164_5966)"/>
<ellipse opacity="0.1" cx="106.352" cy="105.988" rx="7.22298" ry="5.23927" fill="url(#paint10_linear_3164_5966)"/>
<mask id="mask3_3164_5966" style="mask-type:alpha" maskUnits="userSpaceOnUse" x="115" y="117" width="34" height="5">
<path d="M139.367 120.601L141.754 120.313C144.914 120.165 145.504 120.194 148.06 120.081C140.353 117.049 134.277 117.711 134.277 117.711C133.353 118.341 131.375 118.806 130.206 118.706C128.779 118.431 128.305 118.671 127.18 117.7C127.18 117.7 121.045 118.174 115.282 121.345C117.192 121.177 120.801 120.98 120.801 120.98C123.102 121.363 123.638 121.078 126.994 121.359C126.994 121.359 128.385 121.724 129.952 121.752C130.716 121.788 133.426 122.16 134.971 121.598L136.628 121.162L139.367 120.601Z" fill="#F96C6C"/>
</mask>
<g mask="url(#mask3_3164_5966)">
<path d="M139.367 120.601L141.754 120.313C144.914 120.165 145.504 120.194 148.06 120.081C140.353 117.049 134.277 117.711 134.277 117.711C133.353 118.341 131.375 118.806 130.206 118.706C128.779 118.431 128.305 118.671 127.18 117.7C127.18 117.7 121.045 118.174 115.282 121.345C117.192 121.177 120.801 120.98 120.801 120.98C123.102 121.363 123.638 121.078 126.994 121.359C126.994 121.359 128.385 121.724 129.952 121.752C130.716 121.788 133.426 122.16 134.971 121.598L136.628 121.162L139.367 120.601Z" fill="#F96C6C"/>
<path opacity="0.5" d="M129.808 122.992C126.861 122.204 125.04 123.78 122.341 124.751C106.606 129.237 106.277 120.568 115.281 120.888C121.243 119.215 126.591 118.797 129.931 120.389C130.504 120.661 131.163 120.733 131.765 120.536C138.105 118.459 145.708 121.039 151.65 119.033C149.015 123.838 140.183 122.278 139.041 122.42C137.899 122.562 138.482 122.091 136.543 122.291C134.099 123.787 132.166 123.622 129.808 122.992Z" fill="#AA5548"/>
</g>
<path d="M147.901 86.5985C145.08 85.2896 143.568 82.3614 143.568 82.3614L146.562 80.6377C146.562 80.6377 147.673 80.2699 150.362 80.0246L155.293 79.9312C155.293 79.9312 158.285 80.3559 159.875 81.7684C159.875 81.7684 158.805 85.8335 155.293 86.8566L152.81 87.3415H151.074C151.074 87.3415 149.744 87.4281 147.901 86.5985Z" fill="url(#paint11_linear_3164_5966)"/>
<path opacity="0.4" d="M121.924 101.894C133.017 111.416 132.365 101.04 140.932 105.239C140.932 105.239 141.777 105.263 141.511 106.107C141.825 107.037 140.767 108.782 139.851 109.868C139.029 110.838 137.376 112.246 135.193 113.402C131.245 115.492 126.876 113.813 123.222 111.243C122.454 110.703 121.527 110.121 120.336 109.481L119.481 107.764L119.355 106.29L119.481 104.59C119.481 104.59 120.52 102.428 121.924 101.894Z" fill="url(#paint12_linear_3164_5966)"/>
<path opacity="0.4" d="M178.827 117.733C172.5 124.304 159.37 156.438 136.657 148.528C170.295 128.273 180.896 77.4842 153.359 43.0785L175.273 43.0785L180.947 74.2504L180.811 82.8637L180.308 91.7867L179.95 100.15L178.827 117.733Z" fill="url(#paint13_linear_3164_5966)"/>
<path d="M134.44 109.676C136.087 110.486 137.446 109.355 138.18 108.574C138.356 108.011 137.031 107.929 137.031 107.929L134.904 109.001L134.44 109.676Z" fill="#1B2C44"/>
<path d="M126.184 109.911C124.537 110.721 123.178 109.59 122.444 108.809C122.268 108.246 123.593 108.164 123.593 108.164L125.72 109.236L126.184 109.911Z" fill="#1B2C44"/>
<path d="M113.263 86.5985C116.083 85.2896 117.595 82.3614 117.595 82.3614L114.601 80.6377C114.601 80.6377 113.49 80.2699 110.801 80.0246L105.87 79.9312C105.87 79.9312 102.878 80.3559 101.289 81.7684C101.289 81.7684 102.358 85.8335 105.87 86.8566L108.353 87.3415H110.089C110.089 87.3415 111.419 87.4281 113.263 86.5985Z" fill="url(#paint14_linear_3164_5966)"/>
<path opacity="0.7" fill-rule="evenodd" clip-rule="evenodd" d="M133.652 24.9451C132.269 27.0487 128.924 30.4319 121.906 33.26C110.393 48.5074 109.235 63.8841 112.162 71.6471C125.487 73.7124 125.09 84.7156 124.603 98.1989C124.587 98.646 124.571 99.0959 124.555 99.5483C124.489 101.433 125.035 103.363 126.437 104.624C129.045 106.97 130.703 106.202 132.663 105.294C134.667 104.366 136.986 103.292 140.959 105.246C141.969 106.087 141.788 106.477 141.521 107.051C141.375 107.365 141.204 107.734 141.188 108.262C140.265 110.06 138.067 109.916 136.338 109.802C135.272 109.731 134.384 109.673 134.081 110.088C134.052 110.128 134.014 110.194 133.964 110.28C133.649 110.822 132.887 112.138 131.19 112.401C129.069 112.98 127.27 111.258 125.753 109.805C125.159 109.236 124.608 108.709 124.098 108.377C124.689 110.925 124.342 113.764 123.965 116.839C123.366 121.74 122.693 127.24 125.631 133.11C122.122 136.709 122.343 146.263 133.852 149.222L99.2962 147.454L56.1582 124.03C57.9542 96.256 62.3929 39.746 65.7796 35.8975C69.1664 32.0489 103.239 24.8007 119.852 21.6577L133.652 24.9451ZM117.595 82.3614C117.595 82.3614 116.083 85.2896 113.263 86.5986C111.419 87.4282 110.089 87.3415 110.089 87.3415H108.353L105.87 86.8567C102.358 85.8335 101.289 81.7685 101.289 81.7685C102.878 80.3559 105.87 79.9312 105.87 79.9312L110.801 80.0246C113.49 80.27 114.601 80.6378 114.601 80.6378L117.595 82.3614Z" fill="url(#paint15_linear_3164_5966)"/>
<mask id="mask4_3164_5966" style="mask-type:alpha" maskUnits="userSpaceOnUse" x="115" y="120" width="33" height="7">
<path d="M118.908 123.905L115.902 121.996V121.694L118.406 121.076L121.348 120.978L127.111 121.287L129.834 121.823L132.858 121.898L138.606 120.736L140.99 120.39L143.524 120.163L145.644 120.088L147.65 120.337C147.65 121.272 144.573 122.969 144.573 122.969C144.573 122.969 142.036 124.24 140.745 124.802L135.931 126.172C134.492 126.346 131.789 126.801 131.789 126.801H129.313L126.598 126.476L124.282 125.964L122.064 125.282L119.877 124.45L118.908 123.905Z" fill="url(#paint16_linear_3164_5966)"/>
</mask>
<g mask="url(#mask4_3164_5966)">
<path d="M118.908 123.905L115.902 121.996V121.694L118.406 121.076L121.348 120.978L127.111 121.287L129.834 121.823L132.858 121.898L138.606 120.736L140.99 120.39L143.524 120.163L145.644 120.088L147.65 120.337C147.65 121.272 144.573 122.969 144.573 122.969C144.573 122.969 142.036 124.24 140.745 124.802L135.931 126.172C134.492 126.346 131.789 126.801 131.789 126.801H129.313L126.598 126.476L124.282 125.964L122.064 125.282L119.877 124.45L118.908 123.905Z" fill="url(#paint17_linear_3164_5966)"/>
<path opacity="0.4" d="M121.65 126.927L120.773 120.99L118.71 119.664C118.52 121.992 118.137 126.809 118.125 127.448C118.113 128.087 120.47 127.367 121.65 126.927Z" fill="#FF9C7D"/>
<path opacity="0.4" d="M140.982 125.391L141.859 119.453L143.922 118.127C144.112 120.456 144.494 125.272 144.507 125.911C144.519 126.55 142.162 125.83 140.982 125.391Z" fill="#FF9C7D"/>
<path d="M119.413 120.483L116.998 120.991L116.12 121.48L116.017 122.265L116.524 123.074L118.251 124.183L118.251 125.334L126.224 129.576C132.02 129.676 143.836 129.889 144.727 129.937C145.618 129.985 144.697 125.083 144.125 122.626C131.192 128.377 125.03 125.63 119.883 123.84C119.672 123.073 119.447 121.934 119.413 120.483Z" fill="#19293F"/>
<path d="M145.406 119.96L143.263 119.253C143.826 121.753 142.876 124.239 142.876 124.239L144.083 123.725L146.474 122.536L148.5 121.338L147.425 118.361L145.406 119.96Z" fill="#19293F"/>
</g>
<path opacity="0.3" d="M161.547 82.3411C162.217 79.6021 161.328 79.4965 161.328 79.4965C155.059 75.187 137.963 77.7119 141.772 83.5961L145.131 81.5419C145.131 81.5419 146.426 80.6497 147.698 80.3437C150.907 80.0164 154.759 79.8237 154.759 79.8237C157.993 80.5625 161.547 82.3411 161.547 82.3411Z" fill="#FF7C7C"/>
<path d="M130.883 134.279C127.745 134.304 126.023 133.29 126.023 133.29C126.023 133.29 119.731 129.249 116.786 122.475C119.849 124.593 125.094 126.147 125.094 126.147L126.866 126.509L128.902 126.607L131.614 126.607L134.149 126.509L137.38 125.775L140.751 124.805L146.277 122.042C144.47 128.719 136.86 133.319 136.86 133.319L133.976 134.056L130.883 134.279Z" fill="#E86A61"/>
<ellipse opacity="0.54" rx="2.11203" ry="1.0908" transform="matrix(1 0 0 -1 135.224 128.755)" fill="url(#paint18_linear_3164_5966)"/>
<path d="M141.574 84.5219C141.95 83.3747 142.588 82.3307 143.437 81.4726C144.286 80.6146 145.324 79.966 146.467 79.5783C156.663 76.5423 160.22 83.3177 162.821 80.8484C161.617 85.7363 157.594 80.0995 151.279 80.1248C149.436 80.088 147.608 80.4638 145.929 81.2246C144.25 81.9854 142.762 83.112 141.574 84.5219Z" fill="#192940"/>
<path d="M118.872 84.6236C118.496 83.4764 117.858 82.4324 117.009 81.5743C116.159 80.7163 115.122 80.0677 113.979 79.68C103.783 76.644 100.225 83.4193 97.6246 80.9501C98.8289 85.838 102.852 80.2012 109.166 80.2265C111.01 80.1897 112.838 80.5655 114.517 81.3263C116.196 82.0871 117.684 83.2137 118.872 84.6236Z" fill="#192940"/>
</g>
<mask id="mask5_3164_5966" style="mask-type:alpha" maskUnits="userSpaceOnUse" x="106" y="131" width="54" height="71">
<path d="M108.508 145.373C108.119 137.363 106.937 133.477 106.88 133.301C111.076 138.113 115.802 142.435 120.969 146.184C122.247 147.097 123.687 147.76 125.211 148.139C130.668 149.468 136.125 148.856 139.413 148.215C141.37 147.835 143.214 147.015 144.808 145.819C150.37 141.727 155.285 136.823 159.39 131.27H159.414C159.093 135.492 159.093 139.732 159.414 143.954C159.476 144.756 159.547 145.582 159.637 146.417C159.938 148.761 159.938 151.134 159.637 153.478C158.436 161.483 156.391 171.362 145.193 196.858V196.915C142.243 198.216 139.371 199.684 136.59 201.314C135.867 201.733 135.049 201.961 134.213 201.975C133.378 201.989 132.553 201.789 131.816 201.394C129.818 200.327 126.506 197.945 122.905 196.758L122.947 196.63C109.016 169.203 108.579 153.511 108.617 151.025C108.617 150.46 108.617 149.9 108.617 149.335C108.612 147.926 108.57 146.602 108.508 145.373Z" fill="url(#paint19_linear_3164_5966)"/>
</mask>
<g mask="url(#mask5_3164_5966)">
<path d="M108.508 145.373C108.119 137.363 106.937 133.477 106.88 133.301C111.076 138.113 115.802 142.435 120.969 146.184C122.247 147.097 123.687 147.76 125.211 148.139C130.668 149.468 136.125 148.856 139.413 148.215C141.37 147.835 143.214 147.015 144.808 145.819C150.37 141.727 155.285 136.823 159.39 131.27H159.414C159.093 135.492 159.093 139.732 159.414 143.954C159.476 144.756 159.547 145.582 159.637 146.417C159.938 148.761 159.938 151.134 159.637 153.478C158.436 161.483 156.391 171.362 145.193 196.858V196.915C142.243 198.216 139.371 199.684 136.59 201.314C135.867 201.733 135.049 201.961 134.213 201.975C133.378 201.989 132.553 201.789 131.816 201.394C129.818 200.327 126.506 197.945 122.905 196.758L122.947 196.63C109.016 169.203 108.579 153.511 108.617 151.025C108.617 150.46 108.617 149.9 108.617 149.335C108.612 147.926 108.57 146.602 108.508 145.373Z" fill="url(#paint20_linear_3164_5966)"/>
<g opacity="0.54">
<path d="M146.755 152.345C140.265 157.465 131.451 161.698 120.08 162.54C95.8498 164.335 102.621 191.189 109.035 204.391L86.6857 166.078L100.579 130.613L103.972 126.385L106.433 129.145L112.609 136.051L118.477 141.245L124.654 144.614L130.971 146.832H134.63L146.755 152.345Z" fill="url(#paint21_linear_3164_5966)"/>
<path d="M150.009 149.533L142.365 146.832L143.931 142.333L150.009 135.131L161.497 123.538C160.409 131.078 155.409 144.43 150.009 149.533Z" fill="url(#paint22_linear_3164_5966)"/>
<path d="M102.736 190.091C105.575 190.195 115.378 192.157 122.344 194.471C126.028 195.694 128.751 199.271 132.599 199.781C133.916 199.955 135.24 199.64 136.608 198.986C140.161 197.287 143.421 194.955 147.235 193.972C156.537 191.574 168.986 189.617 176.367 189.388C175.067 196.025 153.168 208.42 144.301 211.13C133.217 214.517 109.099 201.554 108.483 201.005C107.991 200.566 104.446 193.546 102.736 190.091Z" fill="url(#paint23_linear_3164_5966)"/>
</g>
<path opacity="0.54" d="M147.009 156.109C140.519 161.23 131.705 165.463 120.334 166.305C96.1036 168.1 102.875 194.953 109.289 208.156M102.99 193.856C104.7 197.311 108.244 204.331 108.737 204.77" stroke="url(#paint24_linear_3164_5966)" stroke-width="1.42355"/>
</g>
<mask id="mask6_3164_5966" style="mask-type:alpha" maskUnits="userSpaceOnUse" x="48" y="143" width="173" height="54">
<path d="M193.209 158.351C186.357 155.851 178.233 153.188 177.982 153.108L177.958 153.084C177.837 152.663 177.624 152.275 177.334 151.947C177.044 151.618 176.685 151.359 176.283 151.186C167.618 147.456 159.404 143.969 159.404 143.969H159.381C159.442 144.771 159.514 145.596 159.604 146.431C159.905 148.775 159.905 151.148 159.604 153.492C158.422 161.497 156.377 171.377 145.183 196.882V196.939C146.676 196.287 148.209 195.729 149.772 195.269C158.822 192.677 166.927 189.072 174.587 185.665C180.22 183.159 185.613 180.76 190.965 178.95C201.347 175.424 215.359 169.844 220.147 167.471C219.91 166.708 219.433 166.042 218.785 165.573C217.835 164.891 216.704 164.505 215.535 164.463C204.762 163.162 200.722 161.725 196.58 160.251C195.949 160.026 195.316 159.801 194.656 159.575C194.335 159.008 193.822 158.574 193.209 158.351Z" fill="url(#paint25_linear_3164_5966)"/>
<path d="M91.7405 153.995C91.5524 154.305 91.4593 154.663 91.4727 155.025C91.4727 155.025 79.3203 159.575 71.8372 163.466C71.6425 163.567 71.471 163.707 71.3337 163.878C71.1964 164.049 71.0963 164.246 71.04 164.458H70.9783C66.075 166.566 61.0138 168.286 55.8412 169.602C54.4177 169.948 52.9941 170.252 51.5706 170.494C48.4056 171.03 48.249 173.688 48.249 173.688C48.249 173.688 59.3479 177.375 66.124 178.494C72.9001 179.614 79.9182 183.036 79.9182 183.036C79.9182 183.036 92.1987 190.414 120.727 196.222C121.469 196.35 122.2 196.534 122.914 196.773L122.957 196.645C109.025 169.218 108.589 153.525 108.626 151.039V149.35C108.612 147.926 108.57 146.602 108.508 145.373L108.506 145.374C108.371 145.451 105.031 147.361 92.5309 153.283C92.2034 153.438 91.9286 153.686 91.7405 153.995Z" fill="url(#paint26_linear_3164_5966)"/>
</mask>
<g mask="url(#mask6_3164_5966)">
<path d="M193.209 158.351C186.357 155.851 178.233 153.188 177.982 153.108L177.958 153.084C177.837 152.663 177.624 152.275 177.334 151.947C177.044 151.618 176.685 151.359 176.283 151.186C167.618 147.456 159.404 143.969 159.404 143.969H159.381C159.442 144.771 159.514 145.596 159.604 146.431C159.905 148.775 159.905 151.148 159.604 153.492C158.422 161.497 156.377 171.377 145.183 196.882V196.939C146.676 196.287 148.209 195.729 149.772 195.269C158.822 192.677 166.927 189.072 174.587 185.665C180.22 183.159 185.613 180.76 190.965 178.95C201.347 175.424 215.359 169.844 220.147 167.471C219.91 166.708 219.433 166.042 218.785 165.573C217.835 164.891 216.704 164.505 215.535 164.463C204.762 163.162 200.722 161.725 196.58 160.251C195.949 160.026 195.316 159.801 194.656 159.575C194.335 159.008 193.822 158.574 193.209 158.351Z" fill="url(#paint27_linear_3164_5966)"/>
<path d="M91.7405 153.995C91.5524 154.305 91.4593 154.663 91.4727 155.025C91.4727 155.025 79.3203 159.575 71.8372 163.466C71.6425 163.567 71.471 163.707 71.3337 163.878C71.1964 164.049 71.0963 164.246 71.04 164.458H70.9783C66.075 166.566 61.0138 168.286 55.8412 169.602C54.4177 169.948 52.9941 170.252 51.5706 170.494C48.4056 171.03 48.249 173.688 48.249 173.688C48.249 173.688 59.3479 177.375 66.124 178.494C72.9001 179.614 79.9182 183.036 79.9182 183.036C79.9182 183.036 92.1987 190.414 120.727 196.222C121.469 196.35 122.2 196.534 122.914 196.773L122.957 196.645C109.025 169.218 108.589 153.525 108.626 151.039V149.35C108.612 147.926 108.57 146.602 108.508 145.373L108.506 145.374C108.371 145.451 105.031 147.361 92.5309 153.283C92.2034 153.438 91.9286 153.686 91.7405 153.995Z" fill="url(#paint28_linear_3164_5966)"/>
<path d="M102.501 192.798C102.501 192.798 88.7425 175.9 87.1085 156.005L91.6869 154.752C93.1795 171.173 99.9801 182.743 104.998 192.239L102.501 192.798Z" fill="url(#paint29_linear_3164_5966)"/>
<path d="M168.858 192.184C168.858 192.184 181.516 175.394 183.64 155.005L178.653 153.477C177.287 171.015 172.802 181.798 166.362 191.625L168.858 192.184Z" fill="url(#paint30_linear_3164_5966)"/>
<path d="M187.719 195.061C187.719 195.061 200.064 177.391 200.605 156.899L195.514 155.762C195.509 173.352 190.848 184.401 185.187 194.697L187.719 195.061Z" fill="url(#paint31_linear_3164_5966)"/>
<path d="M66.4937 166.365C67.4825 178.405 76.5307 185.366 83.5214 188.986C83.5248 188.993 83.5282 188.999 83.5315 189.005L83.6503 189.053C88.1515 191.365 91.7673 192.287 91.7673 192.287L83.6503 189.053C83.6074 189.031 83.5645 189.008 83.5214 188.986C78.5059 179.512 72.4973 181.183 71.0057 164.773L66.4937 166.365Z" fill="url(#paint32_linear_3164_5966)"/>
</g>
<path d="M159.86 131.444C159.612 135.676 159.661 139.921 160.007 144.146C160.244 146.97 160.667 149.841 160.344 152.711C159.072 162.629 155.831 172.133 152.211 181.41C150.132 186.696 147.916 191.916 145.615 197.136C145.579 197.195 145.523 197.24 145.457 197.261C145.391 197.282 145.319 197.279 145.256 197.251C145.192 197.223 145.141 197.172 145.112 197.109C145.083 197.046 145.078 196.974 145.098 196.908C147.356 191.688 149.544 186.469 151.584 181.182C154.616 173.263 157.392 165.187 158.863 156.816C159.362 154.035 159.784 151.283 159.532 148.46C158.894 142.796 158.823 137.083 159.319 131.406C159.322 131.37 159.333 131.336 159.349 131.304C159.366 131.273 159.389 131.245 159.417 131.222C159.444 131.199 159.476 131.182 159.51 131.172C159.544 131.161 159.58 131.158 159.615 131.161C159.651 131.165 159.686 131.175 159.717 131.192C159.749 131.209 159.776 131.231 159.799 131.259C159.822 131.287 159.839 131.318 159.849 131.352C159.86 131.386 159.863 131.422 159.86 131.458V131.444Z" fill="#712F37"/>
<path d="M127.337 117.611C128.401 118.079 129.552 118.321 130.715 118.321C131.878 118.321 133.029 118.079 134.094 117.611C134.135 117.594 134.18 117.592 134.223 117.606C134.265 117.619 134.301 117.648 134.324 117.686C134.347 117.724 134.355 117.769 134.348 117.813C134.341 117.856 134.318 117.896 134.283 117.924C133.264 118.732 132.001 119.171 130.701 119.171C129.4 119.171 128.138 118.732 127.118 117.924C127.083 117.893 127.061 117.85 127.056 117.803C127.05 117.756 127.062 117.709 127.088 117.67C127.115 117.631 127.155 117.603 127.2 117.592C127.246 117.58 127.294 117.585 127.337 117.607V117.611Z" fill="#192940"/>
<path d="M122.003 102.137C120.366 102.612 119.716 104.448 119.63 106.019C119.379 107.689 120.105 109.341 121.813 109.753C121.883 109.77 121.943 109.814 121.981 109.876C122.018 109.937 122.029 110.011 122.012 110.081C121.995 110.151 121.951 110.211 121.89 110.248C121.829 110.286 121.755 110.297 121.685 110.28C119.559 109.929 118.634 107.907 118.923 105.957C119.07 104.173 119.962 102.019 121.974 101.71C122.031 101.704 122.088 101.72 122.132 101.756C122.177 101.792 122.205 101.843 122.212 101.9C122.218 101.957 122.202 102.014 122.166 102.058C122.13 102.103 122.079 102.131 122.022 102.137H122.003Z" fill="#712F37"/>
<path d="M138.777 101.71C140.794 102.019 141.681 104.173 141.828 105.957C142.118 107.907 141.188 109.929 139.062 110.266C138.999 110.272 138.937 110.254 138.886 110.218C138.835 110.181 138.799 110.127 138.784 110.066C138.77 110.005 138.778 109.94 138.807 109.885C138.836 109.829 138.885 109.786 138.943 109.763C140.67 109.331 141.377 107.694 141.121 106.019C141.017 104.448 140.362 102.612 138.749 102.137C138.721 102.134 138.693 102.126 138.669 102.112C138.644 102.098 138.622 102.08 138.605 102.058C138.587 102.036 138.574 102.011 138.566 101.984C138.558 101.957 138.556 101.928 138.559 101.9C138.562 101.872 138.571 101.845 138.584 101.82C138.598 101.795 138.616 101.774 138.638 101.756C138.66 101.738 138.685 101.725 138.713 101.717C138.74 101.71 138.768 101.707 138.796 101.71H138.777Z" fill="#712F37"/>
<path d="M147.885 86.336C150.452 87.4891 153.422 87.1901 156.023 86.2743C156.095 86.2513 156.173 86.2567 156.242 86.2893C156.31 86.3219 156.364 86.3793 156.391 86.4498C156.419 86.5204 156.419 86.5989 156.391 86.6693C156.363 86.7398 156.31 86.7971 156.241 86.8295C153.593 88.1771 150.186 88.4286 147.605 86.7725C147.555 86.732 147.522 86.6747 147.512 86.6114C147.502 86.5481 147.515 86.4833 147.55 86.4293C147.585 86.3754 147.638 86.336 147.7 86.3188C147.761 86.3016 147.827 86.3077 147.885 86.336Z" fill="#192940"/>
<path d="M113.358 86.7345C110.838 88.476 107.369 88.1581 104.779 86.7345C104.734 86.708 104.701 86.6663 104.685 86.6173C104.669 86.5682 104.672 86.515 104.692 86.4676C104.712 86.4202 104.749 86.3816 104.795 86.3592C104.842 86.3367 104.895 86.3318 104.945 86.3454C107.588 87.1758 110.52 87.4178 113.13 86.3454C113.178 86.3185 113.234 86.311 113.287 86.3243C113.34 86.3377 113.386 86.3711 113.416 86.4174C113.445 86.4637 113.455 86.5195 113.444 86.5732C113.434 86.627 113.403 86.6745 113.358 86.7061V86.7345Z" fill="#19283F"/>
<path d="M98.4296 80.5894C100.53 78.7711 103.069 77.5314 105.794 76.9926C110.316 76.333 115.284 77.5051 118.706 80.5894C118.741 80.6278 118.761 80.6779 118.762 80.7302C118.764 80.7824 118.745 80.8333 118.711 80.8731C118.678 80.9128 118.63 80.9388 118.578 80.946C118.527 80.9532 118.474 80.9411 118.431 80.9121C113.486 77.2868 106.373 76.4517 100.968 79.5313C100.177 79.9432 99.4128 80.4061 98.6811 80.9169C98.6374 80.941 98.5865 80.9487 98.5376 80.9385C98.4887 80.9283 98.445 80.9009 98.4146 80.8613C98.3842 80.8217 98.369 80.7725 98.3717 80.7226C98.3745 80.6727 98.395 80.6255 98.4296 80.5894Z" fill="#19283F"/>
<path d="M161.105 79.764C155.05 76.3142 146.931 76.6179 141.379 80.9408C141.328 80.978 141.265 80.9946 141.202 80.9874C141.139 80.9802 141.082 80.9496 141.04 80.9018C140.999 80.854 140.977 80.7924 140.98 80.7293C140.982 80.6662 141.007 80.6062 141.052 80.5612C146.513 75.6831 155.344 75.2608 161.351 79.3844C161.395 79.4199 161.423 79.4702 161.432 79.5256C161.441 79.581 161.429 79.6376 161.398 79.6846C161.367 79.7316 161.321 79.7657 161.266 79.7804C161.212 79.795 161.155 79.7892 161.105 79.764Z" fill="#192940"/>
<mask id="mask7_3164_5966" style="mask-type:alpha" maskUnits="userSpaceOnUse" x="89" y="26" width="84" height="124">
<path d="M103.748 51.1935C110.036 47.0209 115.562 41.8016 120.086 35.7622C121.592 33.7732 122.893 31.6364 123.968 29.3847C124.01 29.2901 124.088 29.216 124.185 29.1787C124.282 29.1414 124.39 29.1438 124.485 29.1854C130.236 33.7123 137.116 36.7777 143.987 39.2215L146.303 40.0092C157.511 43.6487 165.379 53.8176 169.132 64.6366C170.771 69.3187 171.73 74.2118 171.979 79.1663C172.541 87.3566 172.428 95.5792 171.642 103.751C169.981 120.155 159.514 134.965 146.858 145.034C145.553 146.049 144.234 147.127 142.692 147.786C141.151 148.44 139.521 148.864 137.857 149.044C133.758 149.684 129.577 149.57 125.519 148.707C123.028 148.204 120.902 146.733 118.938 145.195C113.733 141.167 108.989 136.576 104.792 131.505C98.3247 124.018 93.404 115.078 91.6055 105.288C89.5414 93.1693 89.4228 80.7322 89.3943 68.4707C89.5551 67.1573 90.1437 65.9333 91.0693 64.9877L91.9519 64.1193C96.3977 59.6229 100.744 54.9181 104.72 49.9342C110.421 42.7896 115.361 35.0713 118.743 26.5708C118.755 26.5401 118.772 26.512 118.795 26.4881C118.817 26.4642 118.844 26.4451 118.875 26.4318C118.905 26.4186 118.937 26.4114 118.97 26.4109C119.003 26.4103 119.035 26.4163 119.066 26.4285C119.126 26.4519 119.174 26.4975 119.202 26.5558C119.229 26.614 119.233 26.6806 119.213 26.7417C116.202 34.7981 111.744 42.179 106.517 49.007C102.246 54.5858 97.4623 59.7955 92.5356 64.703L91.6625 65.5476C90.8625 66.3742 90.3344 67.4256 90.1488 68.5608C89.9115 70.9571 90.0539 73.4483 90.0776 75.8589C90.2389 82.3882 90.5521 88.9223 91.2307 95.4137C91.9092 101.905 92.901 108.335 95.3922 114.366C97.7363 120.44 101.381 125.897 105.537 130.874C109.661 135.919 114.325 140.497 119.445 144.526C120.676 145.555 122.02 146.442 123.45 147.169C127.939 149.001 132.998 148.896 137.738 148.261C139.329 148.089 140.885 147.681 142.355 147.051C143.84 146.405 145.069 145.38 146.346 144.393C154.076 138.395 160.287 130.661 164.994 122.091C171.481 110.565 171.519 96.9701 171.163 84.1012C171.021 80.8555 170.888 77.5814 170.456 74.3736C168.61 61.7562 161.976 48.9396 150.431 42.7661C147.617 41.2239 144.324 40.3935 141.354 39.2215C135.228 36.8062 129.23 34.0018 124.053 29.8118L124.67 29.6789C121.163 36.4645 115.863 42.135 110.131 47.1032C108.214 48.7545 106.23 50.3236 104.18 51.8104C104.139 51.8435 104.091 51.8679 104.04 51.8818C103.988 51.8958 103.935 51.8991 103.882 51.8915C103.83 51.884 103.779 51.8657 103.734 51.8379C103.688 51.8101 103.649 51.7733 103.619 51.7298C103.588 51.6863 103.567 51.637 103.556 51.585C103.546 51.5329 103.546 51.4793 103.556 51.4272C103.567 51.3752 103.589 51.3259 103.619 51.2825C103.65 51.239 103.689 51.2023 103.734 51.1745L103.748 51.1935Z" fill="#712F37"/>
</mask>
<g mask="url(#mask7_3164_5966)">
<path d="M103.748 51.1935C110.036 47.0209 115.562 41.8016 120.086 35.7622C121.592 33.7732 122.893 31.6364 123.968 29.3847C124.01 29.2901 124.088 29.216 124.185 29.1787C124.282 29.1414 124.39 29.1438 124.485 29.1854C130.236 33.7123 137.116 36.7777 143.987 39.2215L146.303 40.0092C157.511 43.6487 165.379 53.8176 169.132 64.6366C170.771 69.3187 171.73 74.2118 171.979 79.1663C172.541 87.3566 172.428 95.5792 171.642 103.751C169.981 120.155 159.514 134.965 146.858 145.034C145.553 146.049 144.234 147.127 142.692 147.786C141.151 148.44 139.521 148.864 137.857 149.044C133.758 149.684 129.577 149.57 125.519 148.707C123.028 148.204 120.902 146.733 118.938 145.195C113.733 141.167 108.989 136.576 104.792 131.505C98.3247 124.018 93.404 115.078 91.6055 105.288C89.5414 93.1693 89.4228 80.7322 89.3943 68.4707C89.5551 67.1573 90.1437 65.9333 91.0693 64.9877L91.9519 64.1193C96.3977 59.6229 100.744 54.9181 104.72 49.9342C110.421 42.7896 115.361 35.0713 118.743 26.5708C118.755 26.5401 118.772 26.512 118.795 26.4881C118.817 26.4642 118.844 26.4451 118.875 26.4318C118.905 26.4186 118.937 26.4114 118.97 26.4109C119.003 26.4103 119.035 26.4163 119.066 26.4285C119.126 26.4519 119.174 26.4975 119.202 26.5558C119.229 26.614 119.233 26.6806 119.213 26.7417C116.202 34.7981 111.744 42.179 106.517 49.007C102.246 54.5858 97.4623 59.7955 92.5356 64.703L91.6625 65.5476C90.8625 66.3742 90.3344 67.4256 90.1488 68.5608C89.9115 70.9571 90.0539 73.4483 90.0776 75.8589C90.2389 82.3882 90.5521 88.9223 91.2307 95.4137C91.9092 101.905 92.901 108.335 95.3922 114.366C97.7363 120.44 101.381 125.897 105.537 130.874C109.661 135.919 114.325 140.497 119.445 144.526C120.676 145.555 122.02 146.442 123.45 147.169C127.939 149.001 132.998 148.896 137.738 148.261C139.329 148.089 140.885 147.681 142.355 147.051C143.84 146.405 145.069 145.38 146.346 144.393C154.076 138.395 160.287 130.661 164.994 122.091C171.481 110.565 171.519 96.9701 171.163 84.1012C171.021 80.8555 170.888 77.5814 170.456 74.3736C168.61 61.7562 161.976 48.9396 150.431 42.7661C147.617 41.2239 144.324 40.3935 141.354 39.2215C135.228 36.8062 129.23 34.0018 124.053 29.8118L124.67 29.6789C121.163 36.4645 115.863 42.135 110.131 47.1032C108.214 48.7545 106.23 50.3236 104.18 51.8104C104.139 51.8435 104.091 51.8679 104.04 51.8818C103.988 51.8958 103.935 51.8991 103.882 51.8915C103.83 51.884 103.779 51.8657 103.734 51.8379C103.688 51.8101 103.649 51.7733 103.619 51.7298C103.588 51.6863 103.567 51.637 103.556 51.585C103.546 51.5329 103.546 51.4793 103.556 51.4272C103.567 51.3752 103.589 51.3259 103.619 51.2825C103.65 51.239 103.689 51.2023 103.734 51.1745L103.748 51.1935Z" fill="#712F37"/>
<g filter="url(#filter0_f_3164_5966)">
<path d="M85.8928 67.3514L96.2714 66.2589L117.869 57.912L160.097 55.555L163.829 52.9035L165.302 46.0292L125.547 27.9408C131.922 28.4765 144.561 29.5157 144.111 29.3872C143.548 29.2264 108.51 20.8688 107.867 20.9492C107.353 21.0135 87.5759 57.2781 85.8928 67.3514Z" fill="#623FC6"/>
</g>
</g>
<path d="M107.312 133.351C108.811 138.718 109.12 144.265 109.21 149.803C109.167 152.534 109.372 155.265 109.822 157.959C112.048 171.526 117.414 184.338 123.298 196.685C123.31 196.709 123.318 196.735 123.319 196.763C123.321 196.79 123.317 196.817 123.309 196.842C123.3 196.868 123.286 196.892 123.268 196.912C123.25 196.932 123.228 196.948 123.203 196.96C123.155 196.984 123.099 196.987 123.048 196.97C122.996 196.954 122.954 196.918 122.928 196.87C115.773 182.919 108.408 165.699 108.361 149.807C108.299 144.36 108.052 138.822 106.78 133.512C106.765 133.478 106.757 133.44 106.757 133.402C106.757 133.363 106.765 133.326 106.781 133.291C106.796 133.256 106.819 133.225 106.848 133.2C106.876 133.174 106.91 133.155 106.946 133.144C106.982 133.132 107.021 133.129 107.059 133.133C107.097 133.138 107.133 133.15 107.166 133.17C107.199 133.189 107.227 133.215 107.249 133.247C107.271 133.278 107.286 133.314 107.293 133.351H107.312Z" fill="#712F37"/>
<path d="M108.902 145.888C104.19 148.417 99.3164 150.709 94.5096 153.006L93.0575 153.689C92.7463 153.796 92.4779 154.001 92.2923 154.273C92.1068 154.545 92.014 154.869 92.0278 155.198C92.2271 161.315 93.8642 167.274 96.066 172.964C97.6233 176.931 99.4284 180.797 101.471 184.537C101.486 184.604 101.479 184.675 101.45 184.737C101.42 184.799 101.371 184.849 101.309 184.88C101.247 184.91 101.177 184.918 101.11 184.904C101.043 184.889 100.983 184.852 100.939 184.798C98.8654 181.045 97.0317 177.163 95.4491 173.177C93.2948 167.697 91.653 161.922 91.3161 156.005L91.2781 155.198C91.2617 154.877 91.3143 154.557 91.4321 154.258C91.55 153.959 91.7305 153.689 91.9614 153.466C92.379 153.039 93.6459 152.569 94.1821 152.28C98.9273 149.978 103.862 147.634 108.479 145.129C108.576 145.072 108.692 145.056 108.8 145.085C108.909 145.113 109.002 145.184 109.058 145.281C109.115 145.377 109.131 145.493 109.102 145.601C109.074 145.71 109.003 145.803 108.906 145.859L108.902 145.888Z" fill="#623FC6"/>
<path d="M91.7952 155.544C85.299 158.097 78.7792 160.674 72.544 163.82C71.8465 164.119 71.5191 164.503 71.595 165.243C71.6385 166.775 71.8276 168.298 72.1597 169.794C72.8122 172.808 73.933 175.701 75.4813 178.368C75.5109 178.423 75.5184 178.487 75.5022 178.547C75.4861 178.607 75.4475 178.658 75.3945 178.691C75.3415 178.723 75.278 178.734 75.2174 178.72C75.1567 178.707 75.1034 178.671 75.0685 178.62C73.3642 175.964 72.1254 173.037 71.4052 169.965C71.0399 168.424 70.8206 166.853 70.7504 165.272C70.7134 164.907 70.7743 164.539 70.9269 164.205C71.0796 163.871 71.3184 163.584 71.6187 163.374C75.2535 161.428 79.0402 159.82 82.8268 158.211C85.7024 157.001 88.6064 155.867 91.5294 154.775C91.632 154.737 91.7456 154.741 91.8453 154.786C91.945 154.832 92.0225 154.915 92.0609 155.017C92.0993 155.12 92.0954 155.234 92.05 155.333C92.0046 155.433 91.9215 155.511 91.8189 155.549L91.7952 155.544Z" fill="#623FC6"/>
<path d="M71.2724 164.892C65.4547 167.463 59.3909 169.436 53.1744 170.781C51.2478 171.061 49.1505 171.569 48.8563 173.851L48.5668 173.424C53.7833 175.17 59.0858 176.648 64.4536 177.851C67.1837 178.294 69.8792 178.929 72.5204 179.749C75.177 180.603 77.7763 181.625 80.3025 182.81C85.7499 185.79 91.6909 187.963 97.6034 189.928C103.516 191.892 109.613 193.472 115.725 194.853C117.381 195.233 121.049 195.945 122.644 196.367C125.662 197.264 128.456 198.991 131.128 200.609C133.149 202.033 135.228 202.132 137.297 200.709C138.663 199.931 140.049 199.181 141.458 198.474C144.262 197.007 147.2 195.814 150.232 194.91C162.313 191.46 173.483 185.676 185.109 180.936C187.743 179.849 191.278 178.639 193.963 177.704C199.873 175.616 205.725 173.388 211.521 171.018C214.42 169.827 217.329 168.646 220.138 167.274L219.934 167.701C219.459 166.192 217.874 165.291 216.346 165.068C211.236 164.446 206.13 163.701 201.162 162.249C198.955 161.604 196.815 160.788 194.671 160.043C194.629 160.029 194.591 160.008 194.558 159.98C194.525 159.951 194.498 159.917 194.479 159.878C194.459 159.839 194.448 159.796 194.445 159.753C194.442 159.71 194.448 159.666 194.462 159.625C194.476 159.584 194.498 159.545 194.526 159.512C194.555 159.479 194.59 159.452 194.629 159.433C194.669 159.414 194.711 159.402 194.755 159.399C194.799 159.396 194.843 159.402 194.884 159.416C197.048 160.157 199.178 160.959 201.356 161.59C205.738 162.787 210.208 163.635 214.724 164.128L216.441 164.332C218.259 164.627 220.048 165.623 220.65 167.531C220.677 167.616 220.67 167.708 220.631 167.788C220.592 167.868 220.525 167.93 220.442 167.962C211.9 171.939 203.05 175.232 194.182 178.43C185.209 181.349 176.757 185.401 168.107 189.145C162.349 191.685 156.44 193.866 150.412 195.674C147.428 196.567 144.536 197.743 141.776 199.186C140.386 199.888 139.01 200.633 137.653 201.406C135.37 202.963 132.907 202.873 130.677 201.302L128.66 200.092C125.994 198.483 123.213 197.136 120.119 196.633C109.371 194.407 98.6378 191.57 88.4262 187.522C85.4985 186.383 82.6457 185.059 79.8849 183.56C77.4188 182.39 74.8814 181.378 72.2879 180.528C69.668 179.706 66.9929 179.071 64.2828 178.63C61.5638 178.07 58.8923 177.358 56.216 176.608C53.5398 175.858 50.9204 175.047 48.2869 174.183C48.1977 174.155 48.1208 174.097 48.0683 174.02C48.0158 173.942 47.9908 173.85 47.9974 173.756C48.3628 171.018 50.5978 170.231 53.0036 169.936C55.0582 169.543 57.0986 169.04 59.1201 168.465C61.1415 167.891 63.1392 167.241 65.1227 166.539C67.1062 165.837 69.0707 165.082 70.9925 164.261C71.0311 164.244 71.0728 164.234 71.1152 164.233C71.1575 164.231 71.1998 164.238 71.2394 164.253C71.2791 164.268 71.3154 164.291 71.3463 164.32C71.3772 164.349 71.4021 164.384 71.4195 164.423C71.437 164.461 71.4467 164.503 71.448 164.545C71.4493 164.588 71.4423 164.63 71.4273 164.669C71.4123 164.709 71.3897 164.745 71.3607 164.776C71.3317 164.807 71.2968 164.832 71.2582 164.85L71.2724 164.892Z" fill="#623FC6"/>
<path d="M162.517 53.6229C155.874 49.8268 148.638 47.5681 141.501 44.8918C134.203 42.2725 128.276 36.7823 124.129 30.3336C124.09 30.2578 124.081 30.1705 124.103 30.0882C124.124 30.006 124.176 29.9346 124.247 29.8877C124.318 29.8408 124.403 29.8216 124.487 29.8339C124.572 29.8461 124.648 29.8889 124.703 29.954C132.836 42.0495 139.774 43.3307 152.533 48.0331C156.105 49.4093 159.577 51.0296 162.925 52.8827C163.022 52.9368 163.094 53.0272 163.124 53.134C163.154 53.2408 163.141 53.3552 163.087 53.4521C163.033 53.549 162.942 53.6204 162.835 53.6507C162.729 53.681 162.614 53.6676 162.517 53.6134V53.6229Z" fill="#623FC6"/>
<path d="M138.017 108.395C138.017 108.395 138.018 108.423 138.056 108.422L137.956 108.425L136.733 108.474C136.375 108.509 136.032 108.631 135.733 108.83C135.434 109.03 135.189 109.299 135.02 109.616L133.508 111.546C132.969 112.296 132.183 112.833 131.289 113.063C130.395 113.294 129.448 113.203 128.613 112.808C127.173 112.06 126.146 110.397 125.022 109.276C124.689 108.94 124.247 108.736 123.775 108.7C123.429 108.707 122.94 108.718 122.565 108.692L122.446 108.695C123.115 109.352 123.943 109.825 124.848 110.068C124.883 110.083 124.912 110.109 124.929 110.143C124.947 110.176 124.952 110.215 124.943 110.252C124.935 110.289 124.914 110.322 124.884 110.345C124.854 110.368 124.817 110.38 124.779 110.378C123.794 110.197 122.875 109.76 122.113 109.11C121.975 108.995 121.906 108.82 121.915 108.648C121.926 108.416 122.125 108.242 122.344 108.164C122.882 107.974 123.743 108 124.321 108.152C124.762 108.269 125.171 108.482 125.519 108.777C126.488 109.744 127.355 110.793 128.348 111.703C128.685 111.962 129.072 112.151 129.484 112.259C129.896 112.367 130.325 112.391 130.747 112.33C131.168 112.27 131.573 112.125 131.938 111.906C132.303 111.686 132.62 111.396 132.871 111.052C133.199 110.623 134.078 109.532 134.397 109.121C134.645 108.727 134.985 108.397 135.387 108.161C135.789 107.924 136.242 107.788 136.708 107.763L137.538 107.745L137.946 107.737L138.055 107.734C138.148 107.735 138.239 107.756 138.323 107.797C138.406 107.838 138.478 107.898 138.535 107.971C138.591 108.045 138.63 108.13 138.649 108.221C138.667 108.312 138.664 108.406 138.641 108.496C138.364 108.986 137.943 109.379 137.435 109.622C136.927 109.89 136.38 110.079 135.815 110.183C135.787 110.188 135.759 110.188 135.731 110.183C135.703 110.177 135.677 110.166 135.654 110.15C135.631 110.134 135.611 110.114 135.595 110.09C135.58 110.067 135.569 110.04 135.564 110.013C135.555 109.96 135.565 109.905 135.593 109.86C135.621 109.814 135.664 109.779 135.716 109.763C137.292 109.226 137.79 108.66 138.017 108.395Z" fill="#712F37"/>
<path d="M125.329 132.725C129.216 134.452 133.795 134.623 137.667 132.725C137.723 132.693 137.789 132.684 137.851 132.701C137.914 132.718 137.967 132.759 137.999 132.815C138.031 132.871 138.039 132.937 138.023 133C138.006 133.062 137.965 133.115 137.909 133.147C134.113 135.629 128.964 135.415 125.097 133.147C125.049 133.112 125.017 133.061 125.005 133.003C124.992 132.945 125.002 132.885 125.031 132.834C125.06 132.782 125.107 132.743 125.163 132.724C125.219 132.705 125.279 132.707 125.334 132.73L125.329 132.725Z" fill="#192940"/>
<path d="M159.718 143.824C164.885 145.949 170.603 148.393 175.785 150.576L176.454 150.861C177.103 151.097 177.664 151.526 178.062 152.09C178.461 152.654 178.678 153.326 178.684 154.016C178.744 158.412 178.24 162.798 177.185 167.065C176.244 170.846 174.991 174.543 173.441 178.117C173.397 178.194 173.327 178.252 173.243 178.281C173.159 178.309 173.068 178.306 172.986 178.271C172.905 178.236 172.839 178.173 172.801 178.093C172.763 178.013 172.756 177.922 172.781 177.837C174.262 174.28 175.471 170.616 176.397 166.876C177.309 163.147 177.787 159.326 177.82 155.487V154.04C177.82 152.588 176.729 151.795 175.448 151.349C170.28 149.119 164.586 146.666 159.466 144.402C159.429 144.387 159.396 144.364 159.368 144.336C159.34 144.307 159.318 144.274 159.303 144.237C159.288 144.2 159.28 144.16 159.281 144.12C159.281 144.08 159.289 144.041 159.305 144.004C159.32 143.967 159.343 143.934 159.372 143.906C159.4 143.878 159.434 143.856 159.471 143.841C159.508 143.826 159.547 143.818 159.587 143.818C159.627 143.819 159.667 143.827 159.703 143.843L159.718 143.824Z" fill="#623FC6"/>
<path d="M178.224 153.029C182.063 154.292 189.773 156.826 193.603 158.126C195.173 158.7 195.738 160.271 195.577 161.822C195.571 163.182 195.493 164.541 195.344 165.894C195.055 168.596 194.497 171.264 193.679 173.856C193.66 173.919 193.618 173.972 193.561 174.004C193.503 174.035 193.436 174.043 193.373 174.024C193.31 174.006 193.257 173.964 193.225 173.906C193.193 173.849 193.186 173.781 193.204 173.718C193.96 171.141 194.456 168.494 194.685 165.818C194.803 164.486 194.851 163.149 194.827 161.813C194.903 160.617 194.5 159.341 193.299 158.875C189.503 157.528 181.873 154.79 178.086 153.423C178.032 153.405 177.987 153.366 177.962 153.315C177.937 153.264 177.933 153.205 177.951 153.15C177.969 153.096 178.008 153.052 178.059 153.026C178.11 153.001 178.17 152.997 178.224 153.015V153.029Z" fill="#623FC6"/>
<path d="M48.4339 173.827C48.4339 173.827 37.4299 178.573 41.3494 200.443C41.8081 203.014 43.1387 205.348 45.117 207.053C54.8161 215.4 87.5246 242.386 124.361 259.853C128.677 261.893 133.419 262.872 138.19 262.707C142.961 262.542 147.624 261.238 151.788 258.903C171.552 247.852 202.225 223.267 222.453 205.174C224.892 202.997 226.667 200.177 227.573 197.036C229.889 188.969 232.423 173.524 220.356 167.616" stroke="#623FC6" stroke-width="0.84464" stroke-linecap="round" stroke-linejoin="round"/>
<path d="M205.233 151.041C190.446 136.14 187.463 120.007 186.54 96.8226C185.738 85.1733 186.561 73.4195 184.658 61.8888C183.452 54.2176 180.548 46.7578 176.733 39.9941C170.996 29.9153 164.202 20.3543 154.56 13.7395C140.957 4.3132 124.725 7.39153 111.037 15.054C93.3564 25.0048 85.1043 43.0519 77.873 61.2482C71.9708 77.8205 70.906 95.7301 74.8029 112.885C76.6203 121.298 80.6105 133.685 76.895 141.7C75.1868 145.33 71.7944 148.26 68.6721 150.633C62.9447 155.687 58.1899 162.192 56.4437 169.732C56.4406 169.769 56.4297 169.804 56.4118 169.836C56.3939 169.869 56.3694 169.897 56.3398 169.919C56.3103 169.941 56.2764 169.956 56.2405 169.964C56.2045 169.972 56.1672 169.973 55.9319 170.008C55.8958 170.001 55.8617 169.986 55.8318 169.964C55.8019 169.943 55.7769 169.915 55.7585 169.883C55.7401 169.851 55.7286 169.816 55.7249 169.779C55.7211 169.743 55.7252 169.705 55.7368 169.671C56.9326 163.839 60.1973 158.695 64.0456 154.258C66.0006 152.059 68.1598 150.051 70.4943 148.26C76.3593 143.107 77.9062 137.864 77.2087 130.229C76.6155 122.456 74.2287 114.94 72.938 107.276C68.9344 86.0307 73.3176 68.154 81.2486 50.2499C87.6498 35.146 94.6187 24.1545 110.439 13.8796C124.802 5.5278 141.247 3.42566 155.034 13.0657C164.776 19.7564 171.993 29.4888 177.811 39.6387C181.671 46.4962 184.27 53.9904 185.484 61.7654C187.41 73.3863 186.656 85.1448 187.463 96.8226C188.369 108.391 188.692 120.292 193.238 131.149C196.105 138.379 200.288 145.014 205.575 150.718C205.597 150.74 205.615 150.767 205.627 150.796C205.639 150.824 205.645 150.855 205.645 150.887C205.645 150.918 205.639 150.949 205.627 150.978C205.615 151.007 205.597 151.033 205.575 151.055C205.53 151.099 205.469 151.123 205.406 151.123C205.344 151.123 205.283 151.099 205.238 151.055L205.233 151.041Z" fill="#623FC6"/>
<path d="M195.676 136.55C199.43 141.769 204.602 145.888 209.988 149.338C215.654 152.659 220.014 158.97 219.383 165.77C219.368 165.877 219.31 165.972 219.224 166.036C219.138 166.101 219.029 166.128 218.923 166.112C218.817 166.096 218.721 166.039 218.657 165.953C218.593 165.866 218.566 165.758 218.581 165.652C219.099 159.208 214.98 153.234 209.566 150.016C205.401 147.415 201.576 144.307 198.177 140.763C197.037 139.573 195.992 138.296 195.05 136.943C195.023 136.904 195.003 136.859 194.993 136.812C194.984 136.765 194.983 136.716 194.993 136.668C195.002 136.621 195.021 136.576 195.048 136.536C195.075 136.496 195.109 136.462 195.15 136.436C195.191 136.408 195.238 136.389 195.287 136.379C195.336 136.37 195.386 136.371 195.435 136.381C195.484 136.392 195.53 136.412 195.571 136.441C195.611 136.47 195.646 136.507 195.672 136.55H195.676Z" fill="#623FC6"/>
<path d="M114.88 121.671C114.841 121.569 114.836 121.457 114.865 121.351C114.894 121.246 114.956 121.152 115.041 121.084C115.126 121.016 115.231 120.977 115.341 120.972C115.763 120.915 116.736 121.061 117.177 121.014C119.321 120.794 121.477 120.721 123.631 120.795C126.478 120.995 129.268 121.744 132.124 121.664C135.009 121.763 137.681 120.539 140.509 120.212C142.966 119.929 145.442 119.848 147.912 119.97C148.034 119.978 148.15 120.025 148.244 120.104C148.338 120.182 148.405 120.288 148.435 120.407C148.466 120.525 148.458 120.65 148.414 120.764C148.369 120.878 148.29 120.976 148.187 121.042L148.135 121.08L148.025 121.165C143.13 124.59 137.381 126.593 131.417 126.95C125.652 127.211 119.868 125.081 115.084 121.907C114.979 121.83 114.894 121.708 114.88 121.671ZM115.526 121.28C125.491 128.73 138.065 127.728 147.689 120.392C147.656 120.424 147.633 120.464 147.623 120.508C147.612 120.552 147.614 120.598 147.628 120.641C147.643 120.684 147.669 120.723 147.704 120.751C147.739 120.78 147.781 120.799 147.826 120.805H147.693L147.442 120.738C145.154 120.476 142.845 120.45 140.552 120.662C137.705 120.966 135.052 122.186 132.12 122.119C129.244 122.243 126.454 121.493 123.578 121.365C121.454 121.343 119.331 121.468 117.225 121.74C116.878 121.787 115.844 121.669 115.483 121.726H115.417H115.383C115.434 121.717 115.482 121.694 115.52 121.658C115.558 121.623 115.584 121.577 115.596 121.527C115.598 121.517 115.514 121.269 115.526 121.28Z" fill="#192940"/>
<path d="M118.457 70.5483C118.768 70.5996 118.947 70.9343 118.795 71.2101C117.668 73.2487 116.179 73.6165 113.307 73.4457C109.94 73.0503 105.562 70.7181 98.5504 73.2355C103.153 66.5593 110.68 69.2661 118.457 70.5483Z" fill="#192940"/>
<path d="M140.726 69.9252C140.417 69.9877 140.25 70.3292 140.413 70.5994C141.617 72.5953 143.122 72.9087 145.993 72.6339C149.351 72.1167 153.652 69.627 160.769 71.8885C155.911 65.3834 148.47 68.3616 140.726 69.9252Z" fill="#192940"/>
<path d="M109.272 86.0934C111.34 86.0934 113.016 84.4173 113.016 82.3498C113.016 81.5574 112.77 80.8225 112.35 80.2174L109.428 79.5551L106.403 79.9456C105.857 80.596 105.529 81.4345 105.529 82.3498C105.529 84.4173 107.205 86.0934 109.272 86.0934Z" fill="#19283F"/>
<path d="M151.476 86.116C153.544 86.116 155.22 84.4399 155.22 82.3724C155.22 81.5799 154.974 80.845 154.554 80.24L151.632 79.5776L148.607 79.9682C148.061 80.6185 147.733 81.4571 147.733 82.3724C147.733 84.4399 149.409 86.116 151.476 86.116Z" fill="#192940"/>
<circle opacity="0.8" cx="152.874" cy="82.0386" r="1.04955" fill="white"/>
<circle opacity="0.8" cx="110.519" cy="82.0386" r="1.04955" fill="white"/>
<defs>
<filter id="filter0_f_3164_5966" x="83.9947" y="19.0505" width="83.2051" height="50.1988" filterUnits="userSpaceOnUse" color-interpolation-filters="sRGB">
<feFlood flood-opacity="0" result="BackgroundImageFix"/>
<feBlend mode="normal" in="SourceGraphic" in2="BackgroundImageFix" result="shape"/>
<feGaussianBlur stdDeviation="0.949033" result="effect1_foregroundBlur_3164_5966"/>
</filter>
<linearGradient id="paint0_linear_3164_5966" x1="619.684" y1="90.4072" x2="267.918" y2="-183.84" gradientUnits="userSpaceOnUse">
<stop stop-color="#A10BD2"/>
<stop offset="1" stop-color="#16182B"/>
</linearGradient>
<linearGradient id="paint1_linear_3164_5966" x1="619.684" y1="90.4072" x2="267.918" y2="-183.84" gradientUnits="userSpaceOnUse">
<stop stop-color="#A10BD2"/>
<stop offset="1" stop-color="#16182B"/>
</linearGradient>
<linearGradient id="paint2_linear_3164_5966" x1="224.995" y1="84.6005" x2="282.035" y2="184.987" gradientUnits="userSpaceOnUse">
<stop stop-color="#9B55FF"/>
<stop offset="1" stop-color="#8C3CFF" stop-opacity="0.17"/>
</linearGradient>
<linearGradient id="paint3_linear_3164_5966" x1="154.795" y1="2.98518" x2="126.477" y2="199.355" gradientUnits="userSpaceOnUse">
<stop stop-color="#975C70"/>
<stop offset="1" stop-color="#824B5D"/>
</linearGradient>
<linearGradient id="paint4_linear_3164_5966" x1="154.795" y1="2.98518" x2="126.477" y2="199.355" gradientUnits="userSpaceOnUse">
<stop stop-color="#975C70"/>
<stop offset="1" stop-color="#824B5D"/>
</linearGradient>
<linearGradient id="paint5_linear_3164_5966" x1="181.776" y1="30.0101" x2="198.255" y2="126.707" gradientUnits="userSpaceOnUse">
<stop stop-color="#FFB694"/>
<stop offset="1" stop-color="#FFB694" stop-opacity="0"/>
</linearGradient>
<linearGradient id="paint6_linear_3164_5966" x1="204.9" y1="58.4575" x2="-17.5581" y2="204.318" gradientUnits="userSpaceOnUse">
<stop stop-color="#FFA284"/>
<stop offset="1" stop-color="#8B422B"/>
</linearGradient>
<linearGradient id="paint7_linear_3164_5966" x1="219.365" y1="71.4994" x2="-32.6362" y2="182.029" gradientUnits="userSpaceOnUse">
<stop stop-color="#FFA284"/>
<stop offset="1" stop-color="#8B422B"/>
</linearGradient>
<linearGradient id="paint8_linear_3164_5966" x1="137.263" y1="50.2944" x2="129.652" y2="115.028" gradientUnits="userSpaceOnUse">
<stop stop-color="#75261F"/>
<stop offset="1" stop-color="#F29289" stop-opacity="0"/>
</linearGradient>
<linearGradient id="paint9_linear_3164_5966" x1="160.461" y1="100.485" x2="123.572" y2="101.749" gradientUnits="userSpaceOnUse">
<stop stop-color="#FFF5F1"/>
<stop offset="1" stop-color="#FFDFD0" stop-opacity="0"/>
</linearGradient>
<linearGradient id="paint10_linear_3164_5966" x1="113.575" y1="104.332" x2="76.7408" y2="103.823" gradientUnits="userSpaceOnUse">
<stop stop-color="#FFF5F1"/>
<stop offset="1" stop-color="#FFDFD0" stop-opacity="0"/>
</linearGradient>
<linearGradient id="paint11_linear_3164_5966" x1="150.121" y1="71.3228" x2="146.371" y2="107.029" gradientUnits="userSpaceOnUse">
<stop stop-color="#F2FBFC"/>
<stop offset="1" stop-color="#F2FBFC" stop-opacity="0"/>
</linearGradient>
<linearGradient id="paint12_linear_3164_5966" x1="133.862" y1="115.238" x2="134.544" y2="101.333" gradientUnits="userSpaceOnUse">
<stop stop-color="#C25C46"/>
<stop offset="1" stop-color="#8D4030"/>
</linearGradient>
<linearGradient id="paint13_linear_3164_5966" x1="181.934" y1="147.297" x2="229.304" y2="75.3501" gradientUnits="userSpaceOnUse">
<stop stop-color="#FFF5F1" stop-opacity="0"/>
<stop offset="1" stop-color="#FFDFD0"/>
</linearGradient>
<linearGradient id="paint14_linear_3164_5966" x1="111.042" y1="71.3228" x2="114.792" y2="107.029" gradientUnits="userSpaceOnUse">
<stop stop-color="#F2FBFC"/>
<stop offset="1" stop-color="#F2FBFC" stop-opacity="0"/>
</linearGradient>
<linearGradient id="paint15_linear_3164_5966" x1="-38.3256" y1="187.785" x2="254.973" y2="13.9202" gradientUnits="userSpaceOnUse">
<stop stop-color="#390F0B"/>
<stop offset="1" stop-color="#FF8276" stop-opacity="0"/>
</linearGradient>
<linearGradient id="paint16_linear_3164_5966" x1="129.525" y1="115.09" x2="133.222" y2="150.489" gradientUnits="userSpaceOnUse">
<stop stop-color="white"/>
<stop offset="1" stop-color="white" stop-opacity="0"/>
</linearGradient>
<linearGradient id="paint17_linear_3164_5966" x1="129.525" y1="115.09" x2="133.222" y2="150.489" gradientUnits="userSpaceOnUse">
<stop stop-color="white"/>
<stop offset="1" stop-color="white" stop-opacity="0"/>
</linearGradient>
<linearGradient id="paint18_linear_3164_5966" x1="5.98166" y1="1.09096" x2="-2.67244" y2="0.708615" gradientUnits="userSpaceOnUse">
<stop stop-color="#FFE0D5"/>
<stop offset="1" stop-color="#FFE0D5" stop-opacity="0"/>
</linearGradient>
<linearGradient id="paint19_linear_3164_5966" x1="190.572" y1="247.933" x2="66.6177" y2="94.6856" gradientUnits="userSpaceOnUse">
<stop stop-color="#FFA284"/>
<stop offset="1" stop-color="#8B422B"/>
</linearGradient>
<linearGradient id="paint20_linear_3164_5966" x1="190.572" y1="247.933" x2="66.6177" y2="94.6856" gradientUnits="userSpaceOnUse">
<stop stop-color="#FFA284"/>
<stop offset="1" stop-color="#8B422B"/>
</linearGradient>
<linearGradient id="paint21_linear_3164_5966" x1="77.1714" y1="178.656" x2="154.635" y2="-57.3639" gradientUnits="userSpaceOnUse">
<stop stop-color="#831F15"/>
<stop offset="1" stop-color="#F29289" stop-opacity="0"/>
</linearGradient>
<linearGradient id="paint22_linear_3164_5966" x1="77.1714" y1="178.656" x2="154.635" y2="-57.3639" gradientUnits="userSpaceOnUse">
<stop stop-color="#831F15"/>
<stop offset="1" stop-color="#F29289" stop-opacity="0"/>
</linearGradient>
<linearGradient id="paint23_linear_3164_5966" x1="77.1714" y1="178.656" x2="154.635" y2="-57.3639" gradientUnits="userSpaceOnUse">
<stop stop-color="#831F15"/>
<stop offset="1" stop-color="#F29289" stop-opacity="0"/>
</linearGradient>
<linearGradient id="paint24_linear_3164_5966" x1="77.4253" y1="182.421" x2="154.889" y2="-53.5992" gradientUnits="userSpaceOnUse">
<stop stop-color="#831F15"/>
<stop offset="1" stop-color="#F29289" stop-opacity="0"/>
</linearGradient>
<linearGradient id="paint25_linear_3164_5966" x1="301.036" y1="125.02" x2="-90.9106" y2="185.089" gradientUnits="userSpaceOnUse">
<stop stop-color="#9526B8"/>
<stop offset="1" stop-color="#210C42"/>
</linearGradient>
<linearGradient id="paint26_linear_3164_5966" x1="301.036" y1="125.02" x2="-90.9106" y2="185.089" gradientUnits="userSpaceOnUse">
<stop stop-color="#9526B8"/>
<stop offset="1" stop-color="#210C42"/>
</linearGradient>
<linearGradient id="paint27_linear_3164_5966" x1="247.572" y1="143.969" x2="-70.1298" y2="192.657" gradientUnits="userSpaceOnUse">
<stop stop-color="#9526B8"/>
<stop offset="1" stop-color="#210C42"/>
</linearGradient>
<linearGradient id="paint28_linear_3164_5966" x1="247.572" y1="143.969" x2="-70.1298" y2="192.657" gradientUnits="userSpaceOnUse">
<stop stop-color="#9526B8"/>
<stop offset="1" stop-color="#210C42"/>
</linearGradient>
<linearGradient id="paint29_linear_3164_5966" x1="82.5716" y1="111.909" x2="135.764" y2="155.411" gradientUnits="userSpaceOnUse">
<stop stop-color="#0E112D"/>
<stop offset="1" stop-color="#0E112D" stop-opacity="0"/>
</linearGradient>
<linearGradient id="paint30_linear_3164_5966" x1="188.788" y1="111.295" x2="135.596" y2="154.797" gradientUnits="userSpaceOnUse">
<stop stop-color="#0E112D"/>
<stop offset="1" stop-color="#0E112D" stop-opacity="0"/>
</linearGradient>
<linearGradient id="paint31_linear_3164_5966" x1="202.357" y1="112.922" x2="152.688" y2="160.407" gradientUnits="userSpaceOnUse">
<stop stop-color="#0E112D"/>
<stop offset="1" stop-color="#0E112D" stop-opacity="0"/>
</linearGradient>
<linearGradient id="paint32_linear_3164_5966" x1="60.416" y1="113.812" x2="113.608" y2="157.314" gradientUnits="userSpaceOnUse">
<stop stop-color="#0E112D"/>
<stop offset="1" stop-color="#0E112D" stop-opacity="0"/>
</linearGradient>
</defs>
</svg>
