<svg viewBox="0 0 280 280" fill="none" xmlns="http://www.w3.org/2000/svg">
<mask id="mask0_3129_6931" style="mask-type:alpha" maskUnits="userSpaceOnUse" x="60" y="155" width="171" height="28">
<path d="M103.767 168.874L100.016 182.343L99.4226 182.533L80.4465 179.817L77.8166 178.322L74.0695 176.999H68.1739L64.4784 175.262L60.9377 173.08L66.3003 170.862L81.0827 164.52L88.8174 161.116L90.9661 160.944L92.719 161.426L98.6493 157.352L103.767 155.73L106.248 162.494L103.767 168.874Z" fill="url(#paint0_linear_3129_6931)"/>
<path d="M170.636 169.345L176.448 180.294L179.476 180.15L193.54 177.309L198.778 175.472L203.815 174.496L208.163 174.669L213.229 174.826L222.958 173.851L228.799 173.693L230.263 173.535L224.393 171.454C223.714 171.377 222.313 171.227 222.14 171.239C221.968 171.25 220.433 171.559 219.686 171.712L202.365 166.044L188.933 161.351L184.528 160.218L180.983 159.887L176.936 156.659L175.085 155.525L173.191 156.085L171.225 156.903L170.636 169.345Z" fill="url(#paint1_linear_3129_6931)"/>
</mask>
<g mask="url(#mask0_3129_6931)">
<path d="M103.767 168.874L100.016 182.343L99.4226 182.533L80.4465 179.817L77.8166 178.322L74.0695 176.999H68.1739L64.4784 175.262L60.9377 173.08L66.3003 170.862L81.0827 164.52L88.8174 161.116L90.9661 160.944L92.719 161.426L98.6493 157.352L103.767 155.73L106.248 162.494L103.767 168.874Z" fill="url(#paint2_linear_3129_6931)"/>
<path d="M170.636 169.345L176.448 180.294L179.476 180.15L193.54 177.309L198.778 175.472L203.815 174.496L208.163 174.669L213.229 174.826L222.958 173.851L228.799 173.693L230.263 173.535L224.393 171.454C223.714 171.377 222.313 171.227 222.14 171.239C221.968 171.25 220.433 171.559 219.686 171.712L202.365 166.044L188.933 161.351L184.528 160.218L180.983 159.887L176.936 156.659L175.085 155.525L173.191 156.085L171.225 156.903L170.636 169.345Z" fill="url(#paint3_linear_3129_6931)"/>
<path d="M201.889 179.028L175.829 156.056L172.198 150.833L174.784 156.056L194.87 179.028L197.255 182.533L201.889 179.028Z" fill="url(#paint4_linear_3129_6931)"/>
<path d="M75.0344 180.501L93.2219 160.914L65.7939 177.371L75.0344 180.501Z" fill="url(#paint5_linear_3129_6931)"/>
<path d="M107.166 171.38L99.438 155.193L105.704 149.658C110.264 151.782 119.51 156.175 120.011 156.76C120.512 157.344 111.657 166.75 107.166 171.38Z" fill="url(#paint6_linear_3129_6931)"/>
</g>
<mask id="mask1_3129_6931" style="mask-type:alpha" maskUnits="userSpaceOnUse" x="22" y="173" width="232" height="88">
<path d="M58.2777 230.202L22.0129 213.167V209.27L24.1489 196.151L27.6505 186.559L32.4097 181.233L35.1222 179.285L44.3201 175.857L54.4056 174.032L58.3018 173.342L60.7677 173.046L66.9571 176.622L70.2614 176.844L75.7604 177.312L79.2866 179.556L86.3145 180.666L106.584 184.02L114.229 186.042L120.27 187.817L126.681 190.53L133.586 192.946H139.553L143.918 191.319L149.121 188.162L155.335 184.981L160.514 183.748L176.764 180.444L190.813 177.726L195.951 176.707L199.165 175.559L203.355 174.44L207.747 174.712L213.2 174.798L220.074 174.138L225.384 173.634H229.445L232.548 174.41L240.79 179.267L244.975 182.817L249.253 187.93L251.979 193.58L253.483 200.109L253.739 205.87L239.626 215.215L221.673 226.287L202.344 236.912L177.959 248.849L162.982 255.537L151.589 259.857L145.605 260.753L139.108 260.977L130.884 260.177L118.286 255.535L92.3472 245.187L58.2777 230.202Z" fill="url(#paint7_linear_3129_6931)"/>
</mask>
<g mask="url(#mask1_3129_6931)">
<path d="M58.2777 230.202L22.0129 213.167V209.27L24.1489 196.151L27.6505 186.559L32.4097 181.233L35.1222 179.285L44.3201 175.857L54.4056 174.032L58.3018 173.342L60.7677 173.046L66.9571 176.622L70.2614 176.844L75.7604 177.312L79.2866 179.556L86.3145 180.666L106.584 184.02L114.229 186.042L120.27 187.817L126.681 190.53L133.586 192.946H139.553L143.918 191.319L149.121 188.162L155.335 184.981L160.514 183.748L176.764 180.444L190.813 177.726L195.951 176.707L199.165 175.559L203.355 174.44L207.747 174.712L213.2 174.798L220.074 174.138L225.384 173.634H229.445L232.548 174.41L240.79 179.267L244.975 182.817L249.253 187.93L251.979 193.58L253.483 200.109L253.739 205.87L239.626 215.215L221.673 226.287L202.344 236.912L177.959 248.849L162.982 255.537L151.589 259.857L145.605 260.753L139.108 260.977L130.884 260.177L118.286 255.535L92.3472 245.187L58.2777 230.202Z" fill="url(#paint8_linear_3129_6931)"/>
<path d="M250.365 220.119C254.186 204.834 241.805 179.154 212.609 174.875C219.182 163.512 232.786 140.543 234.62 139.565C236.913 138.342 282.464 191.688 284.298 194.745C285.766 197.191 262.287 212.68 250.365 220.119Z" fill="url(#paint9_linear_3129_6931)"/>
<path fill-rule="evenodd" clip-rule="evenodd" d="M91.0179 233.647C108.697 247.31 134.454 259.874 168.058 268.866C210.379 297.524 49.855 276.086 8.61699 268.866C-25.6786 221.796 -90.0212 126.407 -73.0261 121.409C-56.031 116.41 57.9476 143.668 89.1885 155.748C57.5636 168.925 54.0871 195.667 77.3848 221.222C70.5887 217.858 63.3688 214.067 56.4063 210.062C48.7473 205.657 41.4438 201.02 35.3738 196.437C29.2597 191.819 24.583 187.393 21.9912 183.445L17.4423 186.432C20.5519 191.168 25.8255 196.045 32.0944 200.779C38.4075 205.547 45.9198 210.309 53.6934 214.779C66.6999 222.26 80.5611 228.994 91.0179 233.647Z" fill="#0D1029"/>
</g>
<mask id="mask2_3129_6931" style="mask-type:alpha" maskUnits="userSpaceOnUse" x="85" y="44" width="95" height="150">
<path d="M162.811 47.5801L161.311 44.5385L155.42 48.6831L148.308 53.6853L137.731 59.682L128.058 63.8404L121.037 65.9799L114.137 67.2455L108.592 67.4565L101.677 65.5569L99.3839 71.2285L96.1289 81.0428L94.8713 87.7994L94.1662 95.3216L92.0524 93.5366L89.323 92.164L86.3614 93.4231L85.8163 96.149L86.5521 102.991L89.1418 109.343L92.7125 113.949L94.6481 115.258L96.0111 124.39L98.301 131.477L100.018 140.227L104.08 154.893L105.879 162.389C104.643 166.469 102.172 174.661 102.172 174.792C102.172 174.923 100.591 179.844 99.8002 182.288L104.761 183.515L116.81 186.759L124.579 189.567L131.367 192.402L136.001 193.356L142.406 192.156L146.632 189.894L153.201 185.832L158.708 184.197L172.255 181.607L176.373 180.563L174.338 176.686L171.385 170.7L170.641 170.18L171.082 159.604L172.525 127.733L173.23 122.861V115.068L175.018 113.332L177.441 109.086L179.659 103.191L179.521 96.0403L178.696 93.1527C177.774 92.6714 175.908 91.7088 175.826 91.7088C175.743 91.7088 175.092 91.938 174.777 92.0526L172.378 93.8542L171.078 94.8288L170.576 89.1285L170.96 80.5336L168.42 64.5844L165.646 54.7843L162.811 47.5801Z" fill="url(#paint10_linear_3129_6931)"/>
</mask>
<g mask="url(#mask2_3129_6931)">
<path d="M162.811 47.5801L161.311 44.5385L155.42 48.6831L148.308 53.6853L137.731 59.682L128.058 63.8404L121.037 65.9799L114.137 67.2455L108.592 67.4565L101.677 65.5569L99.3839 71.2285L96.1289 81.0428L94.8713 87.7994L94.1662 95.3216L92.0524 93.5366L89.323 92.164L86.3614 93.4231L85.8163 96.149L86.5521 102.991L89.1418 109.343L92.7125 113.949L94.6481 115.258L96.0111 124.39L98.301 131.477L100.018 140.227L104.08 154.893L105.879 162.389C104.643 166.469 102.172 174.661 102.172 174.792C102.172 174.923 100.591 179.844 99.8002 182.288L104.761 183.515L116.81 186.759L124.579 189.567L131.367 192.402L136.001 193.356L142.406 192.156L146.632 189.894L153.201 185.832L158.708 184.197L172.255 181.607L176.373 180.563L174.338 176.686L171.385 170.7L170.641 170.18L171.082 159.604L172.525 127.733L173.23 122.861V115.068L175.018 113.332L177.441 109.086L179.659 103.191L179.521 96.0403L178.696 93.1527C177.774 92.6714 175.908 91.7088 175.826 91.7088C175.743 91.7088 175.092 91.938 174.777 92.0526L172.378 93.8542L171.078 94.8288L170.576 89.1285L170.96 80.5336L168.42 64.5844L165.646 54.7843L162.811 47.5801Z" fill="url(#paint11_linear_3129_6931)"/>
<path d="M168.408 87.7521C169.716 66.3019 159.441 45.9178 159.441 45.9178L159.442 41.3306C160.471 42.1259 162.648 43.8963 163.117 44.6157C163.586 45.3351 166.31 50.0765 167.613 52.3572L172.813 69.404L170.936 79.2177L170.663 87.311V91.8855L172.657 106.039L172.97 115.11V122.148L172.188 128.442L171.791 129.457L172.188 136.164L170.428 177.684C167.399 177.942 164.995 175.029 165.604 172.05C168.202 159.339 170.161 138.751 170.752 132.112L170.428 132.939L166.636 138.725L162.803 142.427C174.111 125.906 171.358 100.437 169.391 90.8987L168.408 87.7521Z" fill="#FFDECD"/>
<path d="M136.812 155.447C97.2721 142.605 92.3722 90.054 105.383 63.0182L101.636 65.604L100.432 67.9234L97.0644 78.2269L94.9011 88.575L94.0313 95.4217L89.0134 92.2771L86.1813 93.8829L86.3371 102.023L88.5006 108.045L92.4705 113.865L94.2384 114.977L97.8912 131.227L100.821 142.098L119.408 153.926L136.812 158.826V155.447Z" fill="url(#paint12_linear_3129_6931)"/>
<path d="M86.0743 93.4809C88.1705 94.6213 92.4219 97.692 93.391 101.39V103.98C93.391 103.98 93.0541 103.459 92.5023 102.647C91.7774 103.899 90.9935 106.076 93.0907 108.295L93.5409 108.56L93.391 109.911C90.97 108.915 89.9555 105.058 92.0288 101.957C90.5537 99.826 88.1518 96.531 86.2128 94.7061L86.0743 93.4809Z" fill="#D77067"/>
<path fill-rule="evenodd" clip-rule="evenodd" d="M99.5159 133.529C99.5159 133.529 98.3058 135.053 99.5161 138.533C99.8628 141.829 100.808 145.09 101.69 148.128C101.798 148.502 101.905 148.872 102.011 149.238C102.371 150.495 102.744 151.78 103.121 153.078L103.121 153.078C103.491 154.353 103.865 155.641 104.235 156.929C114.053 162.089 127.045 168.212 138.721 171.427C151.079 165.815 163.644 153.595 172.097 130.164H171.508L168.944 135.074L164.104 141.474L156.722 148.432L150.924 153.094L147.088 154.454C144.374 154.833 138.912 155.591 138.769 155.591C138.626 155.591 133.491 155.725 130.941 155.792L125.589 154.008L111.566 145.884L102.527 138.532L99.5159 133.529ZM135.508 172.742C124.506 169.612 113.76 164.814 105.237 160.465C105.435 161.173 105.629 161.878 105.818 162.577L104.356 166.91L100.949 178.247C102.846 180.428 105.01 180.173 105.855 179.774L109.042 177.349L108.417 173.996L108.364 173.673C115.303 175.92 125.2 176.515 135.508 172.742ZM170.572 177.728C171.623 178.103 174.076 178.848 175.475 178.832L170.665 169.733V176.521L170.572 177.728Z" fill="#EC8278"/>
<path opacity="0.5" d="M126.277 112.826C126.625 117.106 103.258 123.148 94.3156 113.923L96.5121 126.365L98.4082 133.376L102.728 151.5C131.785 171.233 160.699 157.082 171.524 147.539L172.205 138.792L172.49 128.878L172.975 120.588L173.315 114.332C169.286 120.588 150.137 119.945 146.032 113.356L138.624 112.826H126.277Z" fill="url(#paint13_linear_3129_6931)"/>
<path d="M132.99 134.079L125.678 127.936L122.997 128.229L125.59 133.709C126.666 135.985 129.565 136.69 131.567 135.164L132.99 134.079Z" fill="url(#paint14_linear_3129_6931)"/>
<path d="M143.358 132.242L147.934 127.936L149.923 128.153L149.309 130.092C148.583 132.386 145.995 133.507 143.825 132.467L143.358 132.242Z" fill="url(#paint15_linear_3129_6931)"/>
<path fill-rule="evenodd" clip-rule="evenodd" d="M157.847 160.116C157.888 159.941 157.792 159.763 157.623 159.7V159.7C157.429 159.628 157.213 159.739 157.153 159.937C154.653 168.183 152.073 171.658 151.098 172.921C150.377 173.855 151.108 174.743 151.976 173.618C154.973 169.734 156.719 164.947 157.847 160.116Z" fill="#C24353"/>
<path fill-rule="evenodd" clip-rule="evenodd" d="M132.773 117.233C132.786 117.123 132.876 117.038 132.987 117.03V117.03C133.128 117.02 133.246 117.138 133.24 117.28C133.158 118.99 133.42 119.792 133.518 120.107C133.607 120.591 133.055 120.605 132.963 120.256C132.662 119.293 132.655 118.248 132.773 117.233Z" fill="#C24353"/>
</g>
<path fill-rule="evenodd" clip-rule="evenodd" d="M129.927 85.4542C129.107 82.5675 125.652 79.7334 124.027 78.6772L123.101 77.4588C122.418 76.2559 119.932 73.9381 115.446 74.2891C110.96 74.6402 105.235 77.5352 104.276 79.6968C103.514 81.3232 102.855 83.1967 102.855 83.1967L102.237 84.1025L99.2095 88.965L99.3703 89.4904C97.5193 90.7837 94.7593 92.7169 94.3805 93.001C93.9455 93.3272 93.8822 94.9717 93.9049 95.7532L99.8936 91.2006L101.709 97.1326C102.6 100.044 105.287 102.032 108.331 102.032H124.685C126.933 102.032 128.99 100.656 129.538 98.4761C130.617 94.1913 130.725 90.158 130.671 87.6881C130.721 87.7137 130.699 87.471 130.658 87.2097C130.663 87.3618 130.667 87.5214 130.671 87.6881C130.602 87.6532 130.399 87.1196 129.927 85.4542ZM111.726 90.9491C111.726 90.9491 112.516 92.3109 114.706 93.1837C114.932 93.2501 115.146 93.3167 115.358 93.3823L115.358 93.3824C116.122 93.6201 116.85 93.8461 117.954 94.0095C119.102 93.9446 119.587 93.8175 120.073 93.6901C120.158 93.6679 120.243 93.6456 120.331 93.6237C123.76 92.6775 125.061 90.6786 125.061 90.6786C124.487 89.994 123.283 88.6 123.062 88.5008C122.635 88.3345 121.753 87.993 121.645 87.9568C121.536 87.9206 120.956 88.0234 120.606 88.123C121.645 90.036 121.334 91.6741 119.591 92.2943L119.089 92.2731L118.647 92.161L118.28 91.9987L117.802 91.6741L117.505 91.3665L117.255 91.0141L117.163 90.8475L117.031 90.5165L116.926 90.036V89.4978L117.016 89.1133L117.204 88.6883L117.372 88.4343L116.988 88.4489L115.391 88.5087L114.784 88.5878L114.158 88.7821L113.529 89.1074L111.726 90.9491ZM103.135 92.8394C103.135 92.8394 115.037 100.223 128.431 95.4727L127.992 97.4839L125.739 99.7026L123 100.327L109.653 100.153L106.36 99.4599L104.245 97.2412L103.135 92.8394Z" fill="#F29289"/>
<path d="M145.482 114.047C141.141 115.649 130.692 115.718 127 113.558L125.301 111.519V109.411L125.974 108.196C130.931 108.196 135.644 112.234 146.808 109.411L147.246 110.626L146.354 112.857L145.482 114.047Z" fill="#F29289"/>
<path d="M128.96 111.024L127.993 112.547C129.212 113.559 132.767 114.274 134.392 114.505L133.821 113.407L132.046 111.513L130.086 110.679L128.96 111.024Z" fill="#1B2C44"/>
<path d="M139.302 112.959L138.12 114.776C140.696 114.776 143.14 113.565 144.04 112.959L143.663 112.024L142.482 111.051L141.184 111.323L139.302 112.959Z" fill="#1B2C44"/>
<path d="M132.334 86.392C132.356 86.4976 132.377 86.6037 132.397 86.7101L133.99 85.9667L139.096 85.8401L139.444 88.3954C136.069 87.8047 133.753 87.8744 132.591 87.9849C133.611 96.4373 129.899 107.004 134.914 111.771L126.973 110.115C124.279 107.526 127.411 98.7563 127.411 98.7563L130 89.3379C130 89.3379 129.644 85.5909 132.334 86.392Z" fill="#F29289"/>
<path d="M132.679 134.019L130.226 135.463C135.015 139.635 140.73 137.307 142.99 135.622L141.749 134.294L140.697 134.077L135.813 133.867L132.679 134.019Z" fill="#F29289"/>
<path fill-rule="evenodd" clip-rule="evenodd" d="M139.196 85.269C140.015 82.3824 143.474 79.7333 145.099 78.6771L146.025 77.4587C146.707 76.2559 149.194 73.938 153.68 74.289C159.689 74.7593 163.269 77.7713 166.169 82.9242L166.888 84.1025L169.916 88.9649L169.244 91.1609L171.397 92.7008L171.062 94.8418L168.782 92.6731L167.471 96.9558C166.555 99.9505 163.742 101.958 160.612 101.851L145.365 101.331C143.186 101.257 141.235 99.8956 140.588 97.8132C139.222 93.4194 138.685 89.6193 138.763 87.2011C138.763 87.2011 138.376 88.1557 139.196 85.269ZM178.69 93.2584C175.299 94.4404 172.86 99.2621 172.557 101.064V102.358C174.18 98.5752 177.797 96.6037 179.403 96.0907L178.69 93.2584ZM150.485 93.3158L152.354 93.7719L152.772 93.8442L153.274 93.8809H153.775L154.267 93.8442L154.762 93.7437L155.251 93.5969L155.755 93.4539L156.25 93.3148L156.753 93.1698L156.979 93.1041C156.979 93.1041 158.621 92.4975 160.436 91.2701L159.972 91.0093L159.386 90.5165L158.899 90.0257L158.457 89.531L158.27 89.3764L157.906 89.1599L157.612 89.0266L157.238 88.901L156.944 88.8353L156.731 88.8005L156.291 88.7812L155.473 88.7715C156.075 89.5702 156.89 91.4521 155.335 92.5906L154.955 92.7503L154.756 92.8037L154.464 92.8406H154.265L153.771 92.7871L153.284 92.6306L153.025 92.503L152.783 92.3388L152.407 91.9987L152.063 91.5117L151.848 91.0131L151.755 90.5223L151.767 90.0237L151.893 89.5348L152.153 89.0382L152.416 88.7329L151.786 88.7232H151.293L150.847 88.7561L150.366 88.8411L150.13 88.9087L149.796 89.015L149.351 89.214L148.922 89.4537L148.575 89.7049L148.209 90.0218L147.889 90.3484L147.672 90.5745L147.324 90.9339L146.932 91.3378L146.759 91.5117C146.987 91.8409 148.051 92.6625 150.485 93.3158ZM140.338 91.8828C140.943 93.6076 143.832 97.0841 150.55 97.1912C157.268 97.2983 163.427 96.4293 165.666 95.9814V97.6374L163.135 99.4611L159.967 100.133L145.378 99.877L143.394 98.7252L141.026 95.4298L140.338 91.8828Z" fill="#F29289"/>
<mask id="mask3_3129_6931" style="mask-type:alpha" maskUnits="userSpaceOnUse" x="101" y="81" width="30" height="20">
<path d="M129.697 92.2557L126.931 98.3428L125.14 99.6269L122.216 100.159L112.669 100.28L107.158 99.4578L104.499 97.21L101.551 88.3398L102.251 84.6499L104.265 82.4514L107.085 81.3349L124.212 81.2195L127.93 82.3826L130.005 85.3995L129.697 92.2557Z" fill="url(#paint16_linear_3129_6931)"/>
</mask>
<g mask="url(#mask3_3129_6931)">
<path opacity="0.6" d="M129.697 92.2557L126.931 98.3428L125.14 99.6269L122.216 100.159L112.669 100.28L107.158 99.4578L104.499 97.21L101.551 88.3398L102.251 84.6499L104.265 82.4514L107.085 81.3349L124.212 81.2195L127.93 82.3826L130.005 85.3995L129.697 92.2557Z" fill="url(#paint17_linear_3129_6931)"/>
<rect x="118.756" y="77.7007" width="3.40635" height="19.9194" transform="rotate(-45 118.756 77.7007)" fill="url(#paint18_linear_3129_6931)"/>
<circle r="2.35755" transform="matrix(1 -4.96611e-09 0.0742825 0.997237 119.275 89.9471)" fill="#2C415F"/>
<path fill-rule="evenodd" clip-rule="evenodd" d="M124.994 94.0092C124.994 94.0092 124.592 94.5573 123.866 95.323C123.649 95.5513 123.408 95.8023 123.141 96.0681C122.8 96.4081 122.429 96.7793 121.99 97.1325C121.931 97.1744 121.918 97.2565 121.96 97.3152C122.001 97.374 122.083 97.3878 122.142 97.346C122.62 97.0489 123.049 96.7439 123.417 96.4303C123.597 96.2773 123.763 96.1232 123.91 95.9686C124.204 95.6614 124.437 95.3612 124.625 95.1006C125.038 94.5303 125.221 94.1405 125.221 94.1405C125.257 94.078 125.235 93.998 125.173 93.9615C125.11 93.9255 125.03 93.9467 124.994 94.0092Z" fill="#2C415F"/>
<path fill-rule="evenodd" clip-rule="evenodd" d="M120.949 93.4235L119.428 93.7996C118.94 93.9353 118.439 93.965 117.941 93.9401C117.694 93.9277 117.449 93.9023 117.204 93.8596C116.96 93.8164 116.716 93.7672 116.478 93.6872L114.569 93.1128C114.485 93.0799 114.39 93.1215 114.357 93.2052C114.324 93.2895 114.366 93.3846 114.45 93.4176L116.24 94.2941C116.505 94.4141 116.778 94.5129 117.059 94.5778C117.342 94.6432 117.633 94.6778 117.922 94.6783C118.496 94.6799 119.067 94.5583 119.61 94.346L121.053 93.7343C121.139 93.7056 121.185 93.6127 121.157 93.5273C121.128 93.4414 121.035 93.3949 120.949 93.4235Z" fill="#2C415F"/>
<path fill-rule="evenodd" clip-rule="evenodd" d="M113.426 89.2562C113.7 89.039 114.005 88.8666 114.33 88.7455C114.654 88.624 114.997 88.5526 115.348 88.537L120.166 88.3073C120.814 88.2706 121.453 88.3738 122.046 88.6002C122.644 88.8282 123.198 89.1751 123.662 89.6377L124.87 90.8374C124.988 90.9616 125.185 90.966 125.308 90.8476C125.433 90.7293 125.437 90.5326 125.319 90.4083L124.176 89.1465C123.662 88.5813 123.037 88.1419 122.35 87.8474C121.658 87.5508 120.902 87.4086 120.132 87.4259L115.31 87.5762C114.857 87.5913 114.414 87.6788 113.993 87.8307C113.572 87.9825 113.175 88.2014 112.817 88.4791L110.416 90.3408C110.194 90.5142 110.155 90.8352 110.329 91.0568C111.165 92.1267 112.729 89.8744 113.426 89.2562Z" fill="#2C415F"/>
<path fill-rule="evenodd" clip-rule="evenodd" d="M110.414 88.9544L112.647 87.361C112.879 87.1954 113.13 87.0599 113.395 86.9583C113.659 86.8566 113.936 86.7867 114.221 86.7541L119.169 86.1639C119.673 86.0993 120.18 86.118 120.67 86.2179C121.166 86.3188 121.644 86.4977 122.086 86.7561L123.671 87.682C123.793 87.7568 123.952 87.7194 124.027 87.5987C124.101 87.4775 124.064 87.3185 123.943 87.2436L122.409 86.2361C121.92 85.916 121.384 85.6835 120.825 85.5416C120.262 85.398 119.676 85.3515 119.089 85.3997L114.126 85.8458C113.763 85.8799 113.407 85.9611 113.067 86.085C112.727 86.2091 112.403 86.3776 112.102 86.5854L109.845 88.144C109.622 88.301 109.568 88.6102 109.725 88.8339C109.882 89.0576 110.191 89.1114 110.414 88.9544Z" fill="#2C415F"/>
<rect x="114.006" y="81.0626" width="2.88068" height="19.9194" transform="rotate(-45 114.006 81.0626)" fill="url(#paint19_linear_3129_6931)"/>
</g>
<mask id="mask4_3129_6931" style="mask-type:alpha" maskUnits="userSpaceOnUse" x="139" y="81" width="30" height="20">
<path d="M167.851 92.2557L165.084 98.3428L163.294 99.6269L160.369 100.159L150.822 100.28L145.311 99.4578L142.653 97.21C140.13 95.0438 139.704 88.3398 139.704 88.3398L140.404 84.6499L142.418 82.4514L145.238 81.3349L162.366 81.2195L166.084 82.3826L168.158 85.3995L167.851 92.2557Z" fill="url(#paint20_linear_3129_6931)"/>
</mask>
<g mask="url(#mask4_3129_6931)">
<path opacity="0.6" d="M167.851 92.2557L165.084 98.3428L163.294 99.6269L160.369 100.159L150.822 100.28L145.311 99.4578L142.653 97.21C141.07 95.9618 139.704 88.3398 139.704 88.3398L140.404 84.6499L142.418 82.4514L145.238 81.3349L162.366 81.2195L166.084 82.3826L168.158 85.3995L167.851 92.2557Z" fill="url(#paint21_linear_3129_6931)"/>
<path fill-rule="evenodd" clip-rule="evenodd" d="M147.137 95.503C147.137 95.503 147.549 96.1872 148.468 96.8922C148.775 97.1282 149.139 97.3627 149.563 97.571C149.75 97.6623 149.949 97.7493 150.161 97.822C150.358 97.8898 150.566 97.9469 150.784 97.9907C151.087 98.0511 151.405 98.0911 151.742 98.1034C152.049 98.1141 152.364 98.0997 152.697 98.0671C152.791 98.0687 152.868 97.9939 152.869 97.9005C152.87 97.807 152.796 97.7301 152.702 97.7285C152.388 97.6885 152.097 97.6254 151.813 97.5613C151.509 97.4925 151.227 97.4097 150.955 97.3253C150.722 97.2532 150.501 97.1763 150.289 97.0988C149.934 96.9696 149.608 96.8355 149.316 96.6903C148.063 96.0659 147.413 95.3065 147.413 95.3065C147.358 95.2307 147.253 95.2125 147.176 95.267C147.1 95.3214 147.083 95.4272 147.137 95.503Z" fill="#2C415F"/>
<path fill-rule="evenodd" clip-rule="evenodd" d="M150.43 93.8202L151.969 94.4697C152.493 94.6631 153.044 94.7734 153.593 94.7588C153.815 94.7534 154.036 94.7248 154.253 94.6772C154.574 94.607 154.886 94.4972 155.188 94.354L157.061 93.4035C157.141 93.3722 157.181 93.2814 157.149 93.2009C157.117 93.1209 157.027 93.0815 156.947 93.1128L154.927 93.6894C154.486 93.8353 154.028 93.8753 153.57 93.8823C153.116 93.8888 152.659 93.8596 152.217 93.7278L150.595 93.3235C150.458 93.2782 150.31 93.3522 150.264 93.4889C150.218 93.6262 150.292 93.7742 150.43 93.8202Z" fill="#2C415F"/>
<path fill-rule="evenodd" clip-rule="evenodd" d="M161.241 90.4957L158.999 88.7659C158.623 88.4757 158.205 88.2515 157.76 88.1007C157.317 87.9505 156.849 87.8732 156.375 87.8748L151.526 87.9154C150.781 87.9294 150.054 88.0948 149.392 88.4028C148.736 88.7076 148.142 89.1458 147.654 89.7019L146.202 91.3652C146.108 91.4667 146.115 91.6251 146.216 91.7186C146.318 91.8126 146.476 91.8061 146.57 91.7045L148.11 90.1228C148.559 89.6592 149.097 89.3041 149.681 89.0648C150.26 88.8275 150.886 88.7103 151.525 88.7249L156.373 88.7832C156.746 88.7859 157.113 88.8518 157.461 88.9729C157.807 89.0939 158.134 89.2717 158.427 89.5014C159.145 90.3164 160.65 92.0039 161.324 91.1641C161.486 90.9566 161.449 90.6573 161.241 90.4957Z" fill="#2C415F"/>
<path fill-rule="evenodd" clip-rule="evenodd" d="M161.421 88.2168L159.425 86.2338C159.092 85.9035 158.707 85.6349 158.29 85.4351C157.872 85.2352 157.419 85.1065 156.952 85.054L152.14 84.5483C151.491 84.4917 150.842 84.5509 150.227 84.7279C149.615 84.9042 149.035 85.1917 148.519 85.5823L146.522 87.1085C146.41 87.1893 146.384 87.3463 146.465 87.4584C146.546 87.5705 146.703 87.5957 146.815 87.515L148.894 86.102C149.358 85.7825 149.874 85.5577 150.413 85.4244C150.948 85.2919 151.505 85.2542 152.061 85.3197L156.876 85.798C157.262 85.8335 157.637 85.933 157.985 86.0912C158.335 86.2494 158.659 86.4641 158.942 86.7319L160.989 88.6633C161.112 88.7827 161.309 88.7797 161.428 88.6562C161.547 88.5333 161.544 88.3362 161.421 88.2168Z" fill="#2C415F"/>
<circle r="2.35755" transform="matrix(1 0 0.0742825 0.997237 154.11 90.4964)" fill="#2C415F"/>
<circle cx="155.33" cy="91.0376" r="0.540507" fill="white"/>
<rect x="156.91" y="77.7007" width="3.40635" height="19.9194" transform="rotate(-45 156.91 77.7007)" fill="url(#paint22_linear_3129_6931)"/>
<rect x="152.159" y="81.0626" width="2.88068" height="19.9194" transform="rotate(-45 152.159 81.0626)" fill="url(#paint23_linear_3129_6931)"/>
</g>
<mask id="mask5_3129_6931" style="mask-type:alpha" maskUnits="userSpaceOnUse" x="87" y="10" width="96" height="86">
<path d="M170.545 92.0911L171.096 94.8101L172.342 93.7438L175.037 91.8443H177.065L179.529 80.4221L181.351 71.8233L182.301 64.4053L181.993 55.9862C181.223 54.6258 179.668 51.8844 179.606 51.8023C179.544 51.7201 177.886 49.2355 177.065 48.0034L172.008 45.6933L162.716 36.3758L158.199 26.9043L155.273 21.0777L151.037 16.3548L145.493 12.9153L135.303 10.2457H129.014L119.132 11.7346C118.063 11.8714 115.518 12.2579 113.896 12.7097C112.274 13.1614 108.309 14.6092 106.529 15.2766L102.679 17.2274L97.0577 21.4112C95.5176 23.2848 92.4169 27.0832 92.3348 27.2886C92.2526 27.4939 90.1102 32.474 89.0493 34.9384L88.2535 42.6389L89.3316 50.365L91.2054 55.0109L89.6396 58.6301L87.6631 68.6406L87.8939 79.5238L89.188 92.2462L90.9414 93.2564L93.9885 95.3348V90.8955L95.5827 83.4898L98.5085 73.3599L101.455 65.4901L110.094 67.5582L118.916 66.7472L128.706 63.8398L142.195 57.4118C145.498 55.3219 152.12 51.1223 152.183 51.0432C152.246 50.964 156.426 48.0432 158.508 46.5927L161.196 44.411L165.149 53.8423L169.158 66.9342L170.773 78.811L170.545 87.4558V92.0911Z" fill="#7D505F"/>
</mask>
<g mask="url(#mask5_3129_6931)">
<path d="M170.545 92.0911L171.096 94.8101L172.342 93.7438L175.037 91.8443H177.065L179.529 80.4221L181.351 71.8233L182.301 64.4053L181.993 55.9862C181.223 54.6258 179.668 51.8844 179.606 51.8023C179.544 51.7201 177.886 49.2355 177.065 48.0034L172.008 45.6933L162.716 36.3758L158.199 26.9043L155.273 21.0777L151.037 16.3548L145.493 12.9153L135.303 10.2457H129.014L119.132 11.7346C118.063 11.8714 115.518 12.2579 113.896 12.7097C112.274 13.1614 108.309 14.6092 106.529 15.2766L102.679 17.2274L97.0577 21.4112C95.5176 23.2848 92.4169 27.0832 92.3348 27.2886C92.2526 27.4939 90.1102 32.474 89.0493 34.9384L88.2535 42.6389L89.3316 50.365L91.2054 55.0109L89.6396 58.6301L87.6631 68.6406L87.8939 79.5238L89.188 92.2462L90.9414 93.2564L93.9885 95.3348V90.8955L95.5827 83.4898L98.5085 73.3599L101.455 65.4901L110.094 67.5582L118.916 66.7472L128.706 63.8398L142.195 57.4118C145.498 55.3219 152.12 51.1223 152.183 51.0432C152.246 50.964 156.426 48.0432 158.508 46.5927L161.196 44.411L165.149 53.8423L169.158 66.9342L170.773 78.811L170.545 87.4558V92.0911Z" fill="#7D505F"/>
<ellipse cx="148.924" cy="22.4129" rx="7.58937" ry="11.2424" transform="rotate(-43.6436 148.924 22.4129)" fill="url(#paint24_linear_3129_6931)"/>
<path d="M118.838 51.935C83.8854 52.3101 83.9681 20.0553 107.952 7.42271C103.07 6.81239 92.8292 5.77482 90.9251 6.50715C88.545 7.42257 77.1939 44.2223 78.4755 53.9257C79.757 63.6291 79.5742 83.219 79.3912 99.5134C79.2081 115.808 115.642 124.779 122.416 128.807C129.19 132.835 177.524 128.807 197.297 121.3C217.07 113.794 216.704 64.1784 215.788 56.4889C214.873 48.7994 179.355 17.8583 171.848 31.0403C165.843 41.5859 137.434 50.9387 118.838 51.935Z" fill="#58314A"/>
<path d="M102.104 67.6448C91.6846 66.8186 88.4256 56.0779 88.4256 56.0779L84.7659 53.3773L91.0353 55.0504L96.3118 62.0291L101.523 65.3471L102.104 67.6448Z" fill="#311F2C"/>
<path d="M157.008 57.8259L186.485 50.591V59.7012L159.152 66.6685L157.008 57.8259Z" fill="#7D505F"/>
<path d="M80.766 67.3813L108.554 75.6819L105.607 80.631L79.7464 73.282L80.766 67.3813Z" fill="#7D505F"/>
<path d="M157.491 73.4243L186.969 66.1893L186.137 70.4124L158.803 77.3798L157.491 73.4243Z" fill="#7D505F"/>
<path d="M93.4322 17.3957C88.6979 29.3825 87.308 53.1096 119.622 52.1242" stroke="#AA7C9B" stroke-width="0.989399"/>
<path fill-rule="evenodd" clip-rule="evenodd" d="M90.8217 48.6467C85.8282 38.589 86.6403 26.9377 90.551 20.4853L92.1769 21.5265C88.6605 27.3282 87.4459 38.4059 92.1769 47.935C96.8552 57.3581 107.471 65.3121 126.227 65.4581L126.212 67.4368C106.794 67.2857 95.8678 58.8104 90.8217 48.6467Z" fill="#382232"/>
<path fill-rule="evenodd" clip-rule="evenodd" d="M123.925 31.4166C122.681 20.2567 127.437 9.58929 133.322 4.86781L134.492 6.40308C129.201 10.6485 124.758 20.8432 125.936 31.4166C127.102 41.8723 134.772 52.0133 152.342 58.5783L150.733 61.1972C132.543 54.4007 125.183 42.6942 123.925 31.4166Z" fill="#382232"/>
<path fill-rule="evenodd" clip-rule="evenodd" d="M129.391 30.1121C128.146 18.9522 132.902 8.28481 138.787 3.56332L139.958 5.09859C134.666 9.34398 129.73 19.5388 130.909 30.1121C132.074 40.5679 140.237 50.7088 157.808 57.2738L156.198 59.8927C138.008 53.0962 130.648 41.3897 129.391 30.1121Z" fill="#382232"/>
</g>
<path d="M129.538 124.341C128.594 125.037 124.444 126.964 122.487 127.841L124.807 128.702L125.707 129.132H128.838L136.178 126.362L140.729 127.972L146.949 129.362L147.769 128.682L149.929 127.882L150.459 127.522C147.755 127.314 144.432 124.231 139.969 122.32C139.245 122.614 137.742 123.216 137.518 123.28C137.294 123.344 136.325 123.38 135.868 123.39L133.178 122.501C132.358 122.824 130.482 123.645 129.538 124.341Z" fill="#FFAD93"/>
<path d="M128.354 128.599C125.234 129.573 123.715 128.252 123.269 128.137C127.517 127.332 131.914 125.46 135.849 125.181C140.254 124.95 144.141 127.957 150.311 127.724C149.877 127.982 148.68 128.526 147.373 128.632C146.065 128.737 145.485 128.467 145.359 128.318C144.071 128.12 140.832 127.516 138.177 126.684C134.859 125.644 131.474 127.625 128.354 128.599Z" fill="#E98670"/>
<path d="M136.816 133.892L132.083 134.145C132.083 134.145 128.32 133.375 124.519 128.552L126.747 128.937L128.112 128.415L130.682 127.396L137.813 126.552L142.404 127.907C143.08 127.923 144.55 128.024 145.017 128.29C145.483 128.557 146.647 128.7 147.171 128.739H148.027C147.929 129.594 141.427 134.162 141.427 134.162L140.32 133.977L136.816 133.892Z" fill="#FFAD93"/>
<path d="M93.2347 95.0276L101.234 87.8448L101.495 87.3862L102.213 84.4159L98.0995 87.8448C96.1404 89.7274 92.2027 93.5187 92.1243 93.6232C92.046 93.7277 92.8319 94.603 93.2347 95.0276Z" fill="#1B2C44"/>
<path fill-rule="evenodd" clip-rule="evenodd" d="M90.704 54.7389C90.704 54.7389 89.4996 57.4991 88.4698 61.8772C87.9705 63.9992 87.513 66.5023 87.2513 69.2547V69.2553C87.1817 70.0106 87.136 70.7676 87.1153 71.5252C87.0952 72.2811 87.099 73.0381 87.1278 73.794C87.1697 75.3164 87.2301 77.2175 87.3547 79.2927C87.4254 80.4704 87.5157 81.7038 87.6326 82.955C87.9242 86.0662 88.3708 89.2867 88.9969 92.0519C89.0465 92.2857 89.2717 92.4341 89.4996 92.3833C89.7275 92.3325 89.8722 92.101 89.8227 91.8673C89.387 89.6604 89.0927 87.164 88.8697 84.6727C88.7032 82.8139 88.5813 80.9574 88.4861 79.2236C88.3725 77.1606 88.293 75.2717 88.2479 73.7588C88.2479 73.7561 88.2473 73.7538 88.2473 73.751C88.2142 73.0186 88.2049 72.2856 88.2196 71.5525C88.2343 70.8201 88.2724 70.0876 88.3349 69.3568C88.5672 66.6585 88.9953 64.2023 89.4642 62.1176C90.4276 57.8361 91.5678 55.1288 91.5678 55.1288C91.6723 54.8839 91.564 54.5983 91.3257 54.4906C91.0875 54.3835 90.8084 54.4945 90.704 54.7389Z" fill="#623FC6"/>
<path fill-rule="evenodd" clip-rule="evenodd" d="M114.218 13.5076C114.218 13.5076 131.173 7.5315 144.532 13.1069C150.143 15.4489 155.11 19.849 157.888 27.6272H157.889C158.915 30.4894 160.279 33.2086 161.946 35.7292C163.612 38.2503 165.582 40.5727 167.817 42.644C167.819 42.6445 167.82 42.6456 167.821 42.6467C168.763 43.5069 169.776 44.3449 170.858 45.1288C171.904 45.8862 173.015 46.5937 174.19 47.2238C176.421 48.4284 178.265 50.1602 179.595 52.22C180.926 54.2815 181.743 56.6716 181.917 59.1943C181.917 59.1943 181.917 59.1949 181.917 59.1954C182.132 62.2146 181.86 65.5331 181.325 69.0113C180.201 76.3186 177.916 84.3215 176.452 91.7419C176.4 92.0001 176.569 92.2518 176.829 92.3027C177.088 92.3541 177.34 92.1858 177.392 91.9275C178.89 84.499 181.212 76.4897 182.365 69.1721C182.926 65.6116 183.21 62.213 182.999 59.1207C182.821 56.4123 181.951 53.8425 180.528 51.6251C179.104 49.4066 177.123 47.5411 174.727 46.2407C174.726 46.2402 174.725 46.2397 174.724 46.2397C173.595 45.6323 172.528 44.9507 171.523 44.2209C170.478 43.462 169.499 42.651 168.588 41.8179C166.418 39.8094 164.507 37.5557 162.888 35.1115C161.268 32.6662 159.939 30.0298 158.939 27.2537C156.017 19.1371 150.81 14.5589 144.942 12.1298C131.244 6.45907 113.897 12.6084 113.897 12.6084C113.648 12.6966 113.518 12.9694 113.606 13.2174C113.694 13.4659 113.969 13.5958 114.218 13.5076Z" fill="#623FC6"/>
<path fill-rule="evenodd" clip-rule="evenodd" d="M105.565 161.911C105.565 161.911 104.505 164.812 103.103 169.254C102.633 170.743 102.12 172.405 101.609 174.191C101.379 174.995 101.148 175.826 100.926 176.678C100.783 177.225 100.645 177.781 100.511 178.345C100.186 179.708 99.8845 181.113 99.5853 182.541C99.5434 182.713 99.6538 182.886 99.8317 182.927C100.01 182.969 100.189 182.862 100.231 182.689C100.526 181.644 100.835 180.617 101.13 179.603C101.436 178.553 101.737 177.523 102.027 176.519C102.271 175.675 102.503 174.849 102.731 174.049C103.105 172.74 103.461 171.497 103.799 170.345C105.241 165.442 106.337 162.165 106.337 162.165C106.41 161.959 106.295 161.734 106.082 161.664C105.869 161.594 105.638 161.705 105.565 161.911Z" fill="#623FC6"/>
<path fill-rule="evenodd" clip-rule="evenodd" d="M103.694 155.156L99.1042 156.696C97.9166 157.095 96.7851 157.638 95.7336 158.311C94.6826 158.983 93.7116 159.785 92.842 160.702C91.886 161.713 90.739 162.918 89.5627 164.172C88.8398 164.943 88.103 165.73 87.3935 166.502C86.43 167.55 85.5129 168.565 84.718 169.452C83.1554 171.193 82.074 172.431 82.074 172.431C81.979 172.532 81.9812 172.691 82.0788 172.788C82.177 172.885 82.3333 172.883 82.4282 172.783C82.4282 172.783 83.6121 171.646 85.2755 170.004C86.1216 169.169 87.091 168.205 88.0913 167.195C88.8286 166.449 89.5792 165.676 90.3149 164.917C91.511 163.683 92.6601 162.48 93.6247 161.477C94.4361 160.63 95.3425 159.89 96.321 159.269C97.2994 158.647 98.3493 158.144 99.4526 157.774L104.042 156.232C104.334 156.134 104.492 155.813 104.396 155.516C104.3 155.219 103.986 155.058 103.694 155.156Z" fill="#623FC6"/>
<path d="M96.5559 77.3139C97.677 73.4604 99.1229 69.5877 100.904 65.7195L101.613 64.8893C101.706 64.8828 101.802 64.8991 101.892 64.941C101.977 64.9813 102.048 65.0395 102.101 65.1091C107.526 67.4635 113.892 67.321 120.379 65.8038C140.054 61.2022 160.875 43.9906 160.875 43.9906C161.002 43.8861 161.168 43.8431 161.33 43.8736C161.491 43.9035 161.631 44.0042 161.711 44.1472C161.711 44.1472 165.158 50.2888 168.053 60.9145C169.401 65.8609 170.629 71.7811 171.334 78.5069V78.508C171.432 79.473 171.485 80.4413 171.491 81.4102C171.497 82.3779 171.457 83.3461 171.37 84.3111L171.369 84.3145L171.203 86.423C171.092 87.6584 171.064 88.898 171.117 90.1337L169.957 88.6261C169.965 87.8575 170.004 87.0886 170.073 86.3212L170.24 84.2128C170.323 83.2825 170.363 82.3496 170.357 81.4172C170.352 80.4848 170.302 79.5524 170.207 78.6233C169.514 71.966 168.302 66.1052 166.972 61.2087C164.641 52.6323 161.949 47.0195 161.052 45.2716C157.674 47.9644 138.664 62.6416 120.621 66.8428C113.996 68.385 107.504 68.5194 101.938 66.1862C100.18 70.0061 98.7748 73.8363 97.6444 77.6344C96.3921 81.841 95.33 87.2894 94.7381 91.3878C94.7012 91.6538 94.4553 91.8404 94.1887 91.8034C93.9227 91.7664 93.7361 91.5205 93.7731 91.254C94.3209 87.0985 95.3145 81.5799 96.5559 77.3139Z" fill="#C24353"/>
<path d="M172.387 108.255C171.991 102.501 171.23 97.9902 170.606 95.0544C170.364 93.9263 170.189 92.7861 170.082 91.6402L171.531 93.872C171.588 94.1877 171.65 94.5027 171.718 94.8166L171.718 94.8183C172.35 97.7895 173.122 102.354 173.524 108.176C173.797 112.122 173.9 116.646 173.674 121.643C173.541 124.699 172.918 127.693 171.847 130.517C170.776 133.342 169.256 135.995 167.329 138.371C164.853 141.433 161.692 145.003 158.24 148.152C155.957 150.233 153.547 152.13 151.122 153.58C150.315 154.065 149.456 154.452 148.565 154.737C147.675 155.022 146.751 155.204 145.813 155.278C142.555 155.55 139.802 156.191 136.589 156.398C134.711 156.52 132.677 156.496 130.302 156.171C129.654 156.083 129.015 155.945 128.391 155.757C127.767 155.569 127.158 155.333 126.569 155.049L126.568 155.048C124.418 154.007 120.139 151.828 115.487 148.989C112.003 146.863 108.31 144.366 105.144 141.701H105.144C103.099 139.978 101.334 137.971 99.8954 135.752C98.4571 133.533 97.3452 131.102 96.6075 128.533C96.607 128.532 96.607 128.531 96.607 128.531C95.1279 123.302 93.9496 117.399 93.3752 111.024C92.8698 105.409 92.9299 100.635 93.5675 94.4269C93.599 94.1157 93.8776 93.8894 94.1887 93.921C94.4999 93.9531 94.7267 94.2316 94.6946 94.5427C94.0658 100.675 94.0062 105.376 94.5067 110.922C95.0746 117.221 96.2393 123.054 97.7015 128.219C98.4087 130.68 99.4738 133.008 100.852 135.132C102.23 137.257 103.92 139.179 105.879 140.828C109.002 143.456 112.645 145.917 116.082 148.014C120.693 150.827 124.935 152.987 127.066 154.019C127.601 154.277 128.154 154.492 128.721 154.662C129.287 154.832 129.867 154.958 130.455 155.038H130.456C132.745 155.351 134.705 155.375 136.516 155.257C139.721 155.05 142.467 154.41 145.718 154.139H145.718C145.719 154.139 145.72 154.139 145.721 154.138C146.571 154.071 147.409 153.906 148.216 153.648C149.024 153.39 149.802 153.038 150.534 152.599L150.535 152.599C152.898 151.186 155.245 149.335 157.469 147.306C160.877 144.198 163.995 140.674 166.44 137.651L166.44 137.651C168.29 135.37 169.749 132.822 170.777 130.111C171.806 127.401 172.404 124.527 172.533 121.593V121.593C172.758 116.643 172.657 112.163 172.387 108.255Z" fill="#C24353"/>
<path fill-rule="evenodd" clip-rule="evenodd" d="M168.405 88.8778L172.509 94.374L171.716 94.9659L167.612 89.4698L168.405 88.8778Z" fill="#1B2C44"/>
<path fill-rule="evenodd" clip-rule="evenodd" d="M168.617 85.7126L173.657 93.0731L172.865 93.665L167.824 86.3045L168.617 85.7126Z" fill="#1B2C44"/>
<path d="M168.377 86.7908L172.947 92.8258L171.81 94.2035L168.158 89.2185L168.377 86.7908Z" fill="#1B2C44"/>
<path d="M93.2561 57.5356C95.5903 61.0313 98.4326 63.4047 101.613 64.8887L100.904 65.7188C97.671 64.1488 94.7798 61.6862 92.3977 58.109C91.6431 56.9802 90.9806 55.7954 90.4148 54.566C89.8491 53.3366 89.3802 52.0626 89.0135 50.7554C86.6755 42.5461 87.7934 35.3177 90.6319 29.4943C94.2379 22.0956 100.629 16.9691 106.253 14.9776C106.507 14.8873 106.785 15.02 106.875 15.2735C106.965 15.527 106.832 15.8055 106.579 15.8953C101.154 17.8237 95.0017 22.7875 91.53 29.9317C88.7943 35.5614 87.7292 42.5472 89.9981 50.4763L89.9987 50.4785C90.3523 51.7329 90.8038 52.9558 91.3483 54.1357C91.8928 55.3156 92.5304 56.452 93.2561 57.5351V57.5356Z" fill="#623FC6"/>
<path fill-rule="evenodd" clip-rule="evenodd" d="M171.657 157.427L173.943 156.321C174.342 156.127 174.78 156.068 175.2 156.13C175.618 156.193 176.017 156.38 176.341 156.679C177.649 157.888 179.771 159.863 182.059 161.963C183.324 163.126 184.635 164.332 185.892 165.462C187.053 166.506 188.165 167.486 189.131 168.33C191.061 170.016 192.41 171.153 192.41 171.153C192.532 171.266 192.723 171.258 192.836 171.135C192.948 171.012 192.94 170.822 192.817 170.709C192.817 170.709 191.568 169.463 189.722 167.685C188.799 166.795 187.727 165.771 186.587 164.705C185.353 163.549 184.038 162.347 182.771 161.186C180.482 159.088 178.333 157.142 177.016 155.943C176.538 155.509 175.952 155.242 175.34 155.157C174.729 155.072 174.094 155.166 173.517 155.454L171.245 156.587C171.013 156.701 170.917 156.981 171.031 157.213C171.145 157.445 171.426 157.541 171.657 157.427Z" fill="#623FC6"/>
<path fill-rule="evenodd" clip-rule="evenodd" d="M171.7 95.6445C171.7 95.6445 172.307 94.4863 173.442 93.4816C174.059 92.936 174.833 92.435 175.757 92.2005C175.859 92.1978 176.356 92.2092 177.151 92.5808C177.519 92.7521 177.943 92.9974 178.417 93.3467C178.681 94.1578 180.056 98.8404 178.62 104.648C177.839 107.806 176.234 111.298 173.159 114.687C173.004 114.857 173.012 115.125 173.177 115.284C173.342 115.444 173.602 115.436 173.757 115.267C176.971 111.769 178.667 108.154 179.487 104.877C181.163 98.1784 179.203 92.9001 179.203 92.9001C179.173 92.8179 179.12 92.7461 179.051 92.6939C178.316 92.1423 177.682 91.8116 177.173 91.6135C176.203 91.2355 175.645 91.316 175.645 91.316C175.627 91.3182 175.609 91.3214 175.592 91.3258C174.512 91.5989 173.606 92.1831 172.892 92.825C171.637 93.9521 170.976 95.2479 170.976 95.2479C170.87 95.4535 170.946 95.7098 171.146 95.8191C171.346 95.929 171.594 95.8506 171.7 95.6445Z" fill="#C24353"/>
<path fill-rule="evenodd" clip-rule="evenodd" d="M103.117 82.7782C103.117 82.7782 100.241 85.3061 97.4055 87.8805C96.6306 88.584 95.8633 89.2968 95.1548 89.9577C93.2716 91.7128 91.8093 93.1075 91.8093 93.1075C91.6148 93.2848 91.6013 93.5863 91.7785 93.7803C91.9558 93.9749 92.2573 93.9884 92.4513 93.8111C92.4513 93.8111 93.9725 92.4802 95.8908 90.7634C96.6128 90.1171 97.392 89.4178 98.1626 88.7089C100.982 86.1177 103.759 83.4818 103.759 83.4818C103.953 83.3045 103.967 83.003 103.79 82.8085C103.612 82.6145 103.311 82.6009 103.117 82.7782Z" fill="#1B2C44"/>
<path fill-rule="evenodd" clip-rule="evenodd" d="M93.8667 95.208C93.8667 95.208 95.9071 93.4218 97.9068 91.5894C98.4536 91.0883 98.9923 90.5786 99.4891 90.106C100.811 88.8494 101.832 87.8466 101.832 87.8466C102.024 87.6692 102.036 87.3692 101.859 87.1767C101.681 86.9848 101.381 86.9729 101.189 87.1504C101.189 87.1504 100.109 88.0897 98.752 89.3081C98.2417 89.7667 97.6911 90.2635 97.1486 90.7695C95.1646 92.6185 93.2236 94.5122 93.2236 94.5122C93.0311 94.6897 93.0193 94.9897 93.1967 95.1816C93.3747 95.3736 93.6747 95.3854 93.8667 95.208Z" fill="#1B2C44"/>
<path fill-rule="evenodd" clip-rule="evenodd" d="M94.2596 95.7598C94.2596 95.7598 93.5862 94.4461 92.3016 93.3021C91.5666 92.6477 90.6328 92.0542 89.5196 91.7735C89.4971 91.7681 89.4741 91.7642 89.4511 91.7615C89.4511 91.7615 88.8666 91.6745 87.8493 92.0645C87.3254 92.2653 86.6734 92.6009 85.9181 93.1607C85.8126 93.239 85.7376 93.3527 85.7059 93.4821C85.7059 93.4821 84.372 98.9889 86.9927 105.779C88.2345 108.995 90.3666 112.504 93.958 115.843C94.1262 116.002 94.3898 115.992 94.5457 115.821C94.7021 115.65 94.6924 115.382 94.5242 115.224C91.0994 111.951 89.0841 108.537 87.9216 105.416C85.789 99.6912 86.547 94.9601 86.7484 93.9527C87.1995 93.6307 87.6045 93.4022 87.9564 93.2401C88.7241 92.887 89.2047 92.8674 89.3086 92.8674C90.2257 93.097 90.9939 93.586 91.6068 94.117C92.7478 95.1059 93.3601 96.2456 93.3601 96.2456C93.4919 96.4975 93.801 96.5937 94.049 96.4594C94.2976 96.3256 94.3919 96.0117 94.2596 95.7598Z" fill="#C24353"/>
<path fill-rule="evenodd" clip-rule="evenodd" d="M178.701 92.6804C178.701 92.6804 177.241 93.2212 175.632 94.691C175.086 95.1893 174.522 95.7947 174.01 96.5275C173.573 97.1531 173.177 97.8733 172.845 98.6828C172.423 99.7087 172.112 100.882 171.958 102.209C171.926 102.41 172.064 102.599 172.265 102.631C172.467 102.663 172.656 102.525 172.688 102.324C172.931 101.097 173.325 100.035 173.777 99.0995C174.127 98.3776 174.524 97.7417 174.926 97.1688C175.397 96.4981 175.879 95.9182 176.351 95.4324C177.742 94.0001 178.996 93.3582 178.996 93.3582C179.183 93.2772 179.269 93.0596 179.187 92.8725C179.106 92.6853 178.889 92.5994 178.701 92.6804Z" fill="#C24353"/>
<path fill-rule="evenodd" clip-rule="evenodd" d="M86.1673 94.0008C86.1673 94.0008 88.2858 94.8955 90.3988 97.3188C90.6849 97.6468 90.9709 98.0022 91.2575 98.3834C91.5215 98.735 91.785 99.1082 92.0463 99.5061C92.52 100.228 92.9888 101.02 93.3991 101.922C93.4432 102.037 93.5722 102.095 93.6873 102.051C93.8018 102.007 93.8599 101.878 93.8158 101.763C93.5104 100.781 93.1523 99.8943 92.7372 99.1001C92.5044 98.6549 92.2527 98.2431 91.992 97.8586C91.7086 97.4398 91.4102 97.0575 91.1113 96.7058C88.8584 94.0562 86.5195 93.1367 86.5195 93.1367C86.2813 93.0394 86.0087 93.1545 85.9114 93.3927C85.8146 93.6309 85.9291 93.9035 86.1673 94.0008Z" fill="#C24353"/>
<path d="M170.662 169.46L176.412 180.6" stroke="#623FC6" stroke-width="0.742049"/>
<path fill-rule="evenodd" clip-rule="evenodd" d="M96.9914 129.813C100.769 147.226 103.882 156.407 106.095 164.986C106.614 166.997 107.081 168.975 107.509 171.017C108.105 173.858 108.628 176.821 109.019 180.191C109.038 180.389 109.212 180.534 109.406 180.515C109.601 180.495 109.743 180.319 109.724 180.121C109.46 176.706 109.081 173.689 108.553 170.805C108.174 168.731 107.718 166.728 107.206 164.694C105.052 156.11 101.879 146.956 98.0984 129.565C98.0309 129.254 97.7279 129.058 97.4228 129.126C97.117 129.195 96.9239 129.503 96.9914 129.813Z" fill="#C24353"/>
<path fill-rule="evenodd" clip-rule="evenodd" d="M108.639 176.239C108.639 176.239 108.509 176.839 108.064 177.534C107.911 177.775 107.712 178.019 107.478 178.268C107.278 178.481 107.051 178.693 106.782 178.896C106.43 179.163 106.032 179.431 105.518 179.631C105.385 179.667 105.307 179.804 105.342 179.937C105.378 180.069 105.515 180.147 105.648 180.112C106.27 180.012 106.795 179.837 107.235 179.591C107.595 179.391 107.892 179.144 108.135 178.884C108.419 178.581 108.625 178.252 108.781 177.942C109.226 177.057 109.253 176.308 109.253 176.308C109.272 176.138 109.15 175.985 108.98 175.966C108.811 175.948 108.658 176.07 108.639 176.239Z" fill="#C24353"/>
<path fill-rule="evenodd" clip-rule="evenodd" d="M172.001 126.203C172.127 136.707 171.448 145.77 170.882 154.858C170.754 156.902 170.632 158.946 170.532 161.009C170.432 163.04 170.352 165.088 170.301 167.17C170.218 170.492 170.211 173.896 170.295 177.447C170.297 177.62 170.438 177.758 170.611 177.757C170.783 177.755 170.922 177.614 170.92 177.441C170.938 172.427 171.162 167.714 171.435 163.112C171.564 160.945 171.699 158.803 171.841 156.667C172.174 151.693 172.533 146.753 172.794 141.608C173.042 136.721 173.192 131.65 173.134 126.191C173.13 125.878 172.874 125.627 172.561 125.63C172.249 125.634 171.997 125.89 172.001 126.203Z" fill="#C24353"/>
<path fill-rule="evenodd" clip-rule="evenodd" d="M130.067 87.1141C130.133 85.61 129.582 84.1439 128.54 83.0565C127.498 81.9696 126.056 81.356 124.551 81.3587C119.898 81.3582 113.105 81.3701 107.718 81.3799C105.732 81.3837 103.868 82.3384 102.705 83.9475C101.541 85.5572 101.219 87.6265 101.839 89.5136C102.605 91.8489 103.406 94.2887 104.045 96.2345C104.798 98.5296 106.941 100.082 109.356 100.082H122.695C125.03 100.082 127.15 98.7151 128.113 96.5881C129.437 93.6348 129.924 90.0603 130.067 87.1141Z" stroke="#1B2C44" stroke-width="1.13149" stroke-miterlimit="1.5" stroke-linecap="round" stroke-linejoin="round"/>
<path fill-rule="evenodd" clip-rule="evenodd" d="M130.053 85.5983C130.053 85.5983 130.948 85.3301 132.451 85.1767C133.148 85.1055 133.972 85.0587 134.904 85.0756C135.655 85.0897 136.475 85.1463 137.353 85.2622C138.119 85.3628 138.931 85.4955 139.777 85.7115C140.035 85.7855 140.305 85.6359 140.38 85.3775C140.454 85.1191 140.304 84.8493 140.046 84.7753C139.166 84.4946 138.322 84.283 137.517 84.1508C136.587 83.9985 135.713 83.9408 134.914 83.9424C133.922 83.9435 133.044 84.0349 132.31 84.1644C130.7 84.4494 129.776 84.8884 129.776 84.8884C129.58 84.9651 129.483 85.186 129.559 85.3818C129.636 85.5777 129.858 85.6745 130.053 85.5983Z" fill="#1B2C44"/>
<path d="M131.492 84.7618L129.825 85.5232L130.072 87.3759C131.582 87.1769 134.684 86.7912 135.013 86.8407C135.342 86.8901 138.43 87.2181 139.933 87.3759L140.139 85.2966L137.01 84.7618H131.492Z" fill="#1B2C44"/>
<path fill-rule="evenodd" clip-rule="evenodd" d="M130.053 87.7917C130.053 87.7917 130.948 87.5235 132.451 87.3701C133.148 87.2988 133.972 87.252 134.904 87.2689C135.655 87.283 136.475 87.3396 137.353 87.4555C138.119 87.5561 138.931 87.6889 139.777 87.9048C140.035 87.9788 140.305 87.8292 140.38 87.5708C140.454 87.3124 140.304 87.0426 140.046 86.9686C139.166 86.6879 138.322 86.4763 137.517 86.3441C136.587 86.1918 135.713 86.1341 134.914 86.1358C133.922 86.1369 133.044 86.2283 132.31 86.3577C130.7 86.6428 129.776 87.0818 129.776 87.0818C129.58 87.1585 129.483 87.3793 129.559 87.5752C129.636 87.771 129.858 87.8678 130.053 87.7917Z" fill="#1B2C44"/>
<path fill-rule="evenodd" clip-rule="evenodd" d="M139.833 87.1121C139.767 85.608 140.319 84.142 141.361 83.0545C142.403 81.9677 143.844 81.354 145.35 81.3568C150.003 81.3562 156.795 81.3682 162.182 81.378C164.169 81.3818 166.033 82.3365 167.196 83.9456C168.359 85.5552 168.681 87.6246 168.062 89.5116C167.295 91.847 166.495 94.2867 165.856 96.2326C165.103 98.5276 162.96 100.08 160.545 100.08H147.206C144.871 100.08 142.751 98.7131 141.787 96.5862C140.463 93.6329 139.977 90.0583 139.833 87.1121Z" stroke="#1B2C44" stroke-width="1.13149" stroke-miterlimit="1.5" stroke-linecap="round" stroke-linejoin="round"/>
<mask id="mask6_3129_6931" style="mask-type:alpha" maskUnits="userSpaceOnUse" x="140" y="67" width="23" height="14">
<path d="M142.584 73.7277L140.451 75.6659V76.5578L143.514 80.086L144.057 79.4269H145.763L150.047 77.0812L155.747 74.8325L158.151 75.2396L161.795 77.5271L157.356 68.7265L155.96 67.9704L153.498 68.7265L142.584 73.7277Z" fill="#1B2C44"/>
<path fill-rule="evenodd" clip-rule="evenodd" d="M144.518 79.6183L145.071 79.7554C145.297 79.812 145.53 79.8234 145.757 79.7924C145.984 79.7614 146.206 79.688 146.409 79.5737C147.189 79.1505 148.865 78.278 151.132 77.2857C152.555 76.6634 154.209 75.9932 156.023 75.3589C156.337 75.2496 156.668 75.2153 156.991 75.2534C157.313 75.2915 157.626 75.4025 157.906 75.5825L161.653 77.9842C161.812 78.0859 162.018 78.0745 162.165 77.9559C162.311 77.8379 162.366 77.6388 162.3 77.4625C162.3 77.4625 161.533 75.3943 160.257 72.8533C159.553 71.4515 158.693 69.9071 157.726 68.4841C157.724 68.4819 157.723 68.4797 157.721 68.4775C157.414 68.044 156.982 67.7388 156.501 67.5892C156.02 67.4391 155.492 67.4429 154.993 67.6251C154.992 67.6257 154.991 67.6256 154.99 67.6262C153.439 68.2093 150.741 69.2805 147.779 70.7155C145.522 71.8094 143.111 73.1145 140.933 74.5718C140.931 74.5729 140.93 74.5745 140.928 74.5756C140.692 74.7377 140.497 74.946 140.35 75.1849C140.204 75.4242 140.108 75.6935 140.071 75.9774C140.034 76.2619 140.059 76.547 140.139 76.8157C140.219 77.0845 140.356 77.3369 140.543 77.5545C140.542 77.5534 142.786 80.1683 142.786 80.1683C142.88 80.2776 142.997 80.3609 143.127 80.4147C143.257 80.4686 143.399 80.4914 143.543 80.4805C143.687 80.4697 143.824 80.4245 143.944 80.3522C144.065 80.2793 144.167 80.1781 144.244 80.0557L144.518 79.6183ZM141.358 75.2039C143.515 73.7825 145.901 72.5144 148.132 71.4504C151.073 70.048 153.747 69.0008 155.286 68.4318C155.603 68.3176 155.938 68.3176 156.242 68.4139C156.544 68.5091 156.815 68.7 157.008 68.9715C157.95 70.3668 158.783 71.8791 159.47 73.2483C160.112 74.5294 160.625 75.6875 160.971 76.51L158.373 74.8519C157.981 74.6023 157.541 74.4488 157.09 74.3972C156.64 74.3455 156.177 74.395 155.738 74.55C153.905 75.199 152.232 75.8822 150.794 76.5187C148.502 77.5343 146.808 78.4286 146.015 78.8644C146.013 78.8649 146.011 78.866 146.009 78.8671C145.896 78.9313 145.773 78.9732 145.646 78.9911C145.52 79.0091 145.39 79.0036 145.263 78.9726L144.656 78.8257C144.504 78.7888 144.348 78.8018 144.21 78.8589C144.072 78.9155 143.95 79.014 143.868 79.1472L143.567 79.6341L143.481 79.6874L143.386 79.6499L141.13 77.0469C141.014 76.9131 140.929 76.7586 140.878 76.5927C140.828 76.4268 140.812 76.2505 140.834 76.0748C140.856 75.8986 140.914 75.7316 141.004 75.5831C141.093 75.4351 141.214 75.3051 141.358 75.2039Z" fill="#1B2C44"/>
</mask>
<g mask="url(#mask6_3129_6931)">
<path d="M142.584 73.7277L140.451 75.6659V76.5578L143.514 80.086L144.057 79.4269H145.763L150.047 77.0812L155.747 74.8325L158.151 75.2396L161.795 77.5271L157.356 68.7265L155.96 67.9704L153.498 68.7265L142.584 73.7277Z" fill="#1B2C44"/>
<path fill-rule="evenodd" clip-rule="evenodd" d="M144.518 79.6183L145.071 79.7554C145.297 79.812 145.53 79.8234 145.757 79.7924C145.984 79.7614 146.206 79.688 146.409 79.5737C147.189 79.1505 148.865 78.278 151.132 77.2857C152.555 76.6634 154.209 75.9932 156.023 75.3589C156.337 75.2496 156.668 75.2153 156.991 75.2534C157.313 75.2915 157.626 75.4025 157.906 75.5825L161.653 77.9842C161.812 78.0859 162.018 78.0745 162.165 77.9559C162.311 77.8379 162.366 77.6388 162.3 77.4625C162.3 77.4625 161.533 75.3943 160.257 72.8533C159.553 71.4515 158.693 69.9071 157.726 68.4841C157.724 68.4819 157.723 68.4797 157.721 68.4775C157.414 68.044 156.982 67.7388 156.501 67.5892C156.02 67.4391 155.492 67.4429 154.993 67.6251C154.992 67.6257 154.991 67.6256 154.99 67.6262C153.439 68.2093 150.741 69.2805 147.779 70.7155C145.522 71.8094 143.111 73.1145 140.933 74.5718C140.931 74.5729 140.93 74.5745 140.928 74.5756C140.692 74.7377 140.497 74.946 140.35 75.1849C140.204 75.4242 140.108 75.6935 140.071 75.9774C140.034 76.2619 140.059 76.547 140.139 76.8157C140.219 77.0845 140.356 77.3369 140.543 77.5545C140.542 77.5534 142.786 80.1683 142.786 80.1683C142.88 80.2776 142.997 80.3609 143.127 80.4147C143.257 80.4686 143.399 80.4914 143.543 80.4805C143.687 80.4697 143.824 80.4245 143.944 80.3522C144.065 80.2793 144.167 80.1781 144.244 80.0557L144.518 79.6183ZM141.358 75.2039C143.515 73.7825 145.901 72.5144 148.132 71.4504C151.073 70.048 153.747 69.0008 155.286 68.4318C155.603 68.3176 155.938 68.3176 156.242 68.4139C156.544 68.5091 156.815 68.7 157.008 68.9715C157.95 70.3668 158.783 71.8791 159.47 73.2483C160.112 74.5294 160.625 75.6875 160.971 76.51L158.373 74.8519C157.981 74.6023 157.541 74.4488 157.09 74.3972C156.64 74.3455 156.177 74.395 155.738 74.55C153.905 75.199 152.232 75.8822 150.794 76.5187C148.502 77.5343 146.808 78.4286 146.015 78.8644C146.013 78.8649 146.011 78.866 146.009 78.8671C145.896 78.9313 145.773 78.9732 145.646 78.9911C145.52 79.0091 145.39 79.0036 145.263 78.9726L144.656 78.8257C144.504 78.7888 144.348 78.8018 144.21 78.8589C144.072 78.9155 143.95 79.014 143.868 79.1472L143.567 79.6341L143.481 79.6874L143.386 79.6499L141.13 77.0469C141.014 76.9131 140.929 76.7586 140.878 76.5927C140.828 76.4268 140.812 76.2505 140.834 76.0748C140.856 75.8986 140.914 75.7316 141.004 75.5831C141.093 75.4351 141.214 75.3051 141.358 75.2039Z" fill="#1B2C44"/>
<path d="M158.134 80.6838C158.134 80.6838 157.121 68.9822 157.664 65.4303L160.89 61.5322C162.39 65.0041 165.352 73.3994 165.19 79.2054C165.029 85.0114 160.419 82.6101 158.134 80.6838Z" fill="url(#paint25_linear_3129_6931)"/>
<path d="M152.522 79.1416C152.522 79.1416 151.618 71.8415 152.522 63.8218L155.698 61.2269C154.784 68.9209 155.298 78.5131 155.298 78.5131C155.137 84.3191 154.807 81.068 152.522 79.1416Z" fill="url(#paint26_linear_3129_6931)"/>
</g>
<mask id="mask7_3129_6931" style="mask-type:alpha" maskUnits="userSpaceOnUse" x="103" y="68" width="26" height="13">
<path d="M110.931 75.6001C110.8 75.7051 106.85 77.9073 104.891 78.9953L104.48 78.5147L108.857 73.4378L113.667 69.646L116.466 68.7927L118.896 69.646L124.406 72.2923L127.269 74.4177L127.969 75.83L126.225 78.3621C125.776 78.7905 124.851 79.6599 124.749 79.7108C124.648 79.7617 124.088 79.0789 123.821 78.7311L122.256 78.9983L116.975 76.339L112.522 75.1041C112.046 75.2257 111.061 75.4951 110.931 75.6001Z" fill="#1B2C44"/>
<path fill-rule="evenodd" clip-rule="evenodd" d="M123.816 79.152L124.075 79.5649C124.155 79.6922 124.262 79.7977 124.387 79.8733C124.513 79.949 124.655 79.9957 124.805 80.0072C124.955 80.018 125.103 79.9941 125.238 79.9381C125.373 79.882 125.495 79.7956 125.593 79.6813L127.844 77.0512C128.034 76.8308 128.172 76.5746 128.254 76.301C128.335 76.0274 128.36 75.7374 128.322 75.4486C128.284 75.1597 128.186 74.8861 128.036 74.6435C127.888 74.4014 127.689 74.1898 127.449 74.0255V74.0223H127.448C125.81 72.875 124.221 71.9018 122.774 71.0934C120.772 69.9755 119.039 69.1726 117.817 68.6537C117.813 68.6526 117.81 68.651 117.806 68.6493C117.12 68.3784 116.39 68.2789 115.674 68.3436C114.958 68.4083 114.257 68.6401 113.63 69.0307C113.627 69.0317 113.625 69.0334 113.623 69.0345C111.642 70.3177 109.839 71.8523 108.18 73.5892C106.586 75.2587 105.126 77.1153 103.757 79.0998C103.622 79.294 103.639 79.554 103.797 79.7297C103.954 79.9049 104.212 79.949 104.418 79.8358L111.744 75.8141C112.005 75.6711 112.291 75.5857 112.581 75.5606C112.872 75.5356 113.168 75.5704 113.45 75.6678L113.452 75.6683C115.106 76.2303 116.546 76.7726 117.761 77.2617C119.83 78.0951 121.242 78.7723 121.936 79.1221C122.146 79.2325 122.364 79.3011 122.587 79.3288C122.813 79.3566 123.044 79.3441 123.268 79.288L123.816 79.152ZM126.98 74.7028C127.125 74.8018 127.242 74.9291 127.33 75.0743C127.418 75.219 127.475 75.3828 127.496 75.5547C127.517 75.726 127.501 75.8979 127.452 76.0595C127.403 76.2205 127.319 76.3717 127.206 76.5017L124.937 79.1145L124.873 79.1395L124.816 79.1031L124.515 78.6162C124.429 78.4759 124.301 78.372 124.156 78.3121C124.01 78.2523 123.846 78.2381 123.686 78.2768L123.058 78.4285C122.94 78.4568 122.819 78.4623 122.7 78.447C122.581 78.4312 122.466 78.3937 122.359 78.3361C122.356 78.3344 122.353 78.3328 122.35 78.3312C121.65 77.9716 120.217 77.2704 118.11 76.4044C116.885 75.9006 115.432 75.342 113.763 74.7615C113.355 74.6185 112.925 74.5657 112.501 74.5994C112.078 74.6331 111.661 74.755 111.28 74.9623L105.903 77.8747C106.862 76.6143 107.869 75.4197 108.932 74.3068C110.534 72.6291 112.266 71.1353 114.175 69.8901C114.664 69.5817 115.21 69.3962 115.77 69.3402C116.33 69.2836 116.903 69.3543 117.443 69.5594C118.654 70.0555 120.359 70.8236 122.335 71.892C123.771 72.6677 125.349 73.6012 126.98 74.706V74.7028Z" fill="#1B2C44"/>
</mask>
<g mask="url(#mask7_3129_6931)">
<path d="M110.931 75.6001C110.8 75.7051 106.85 77.9073 104.891 78.9953L104.48 78.5147L108.857 73.4378L113.667 69.646L116.466 68.7927L118.896 69.646L124.406 72.2923L127.269 74.4177L127.969 75.83L126.225 78.3621C125.776 78.7905 124.851 79.6599 124.749 79.7108C124.648 79.7617 124.088 79.0789 123.821 78.7311L122.256 78.9983L116.975 76.339L112.522 75.1041C112.046 75.2257 111.061 75.4951 110.931 75.6001Z" fill="#1B2C44"/>
<path fill-rule="evenodd" clip-rule="evenodd" d="M123.816 79.152L124.075 79.5649C124.155 79.6922 124.262 79.7977 124.387 79.8733C124.513 79.949 124.655 79.9957 124.805 80.0072C124.955 80.018 125.103 79.9941 125.238 79.9381C125.373 79.882 125.495 79.7956 125.593 79.6813L127.844 77.0512C128.034 76.8308 128.172 76.5746 128.254 76.301C128.335 76.0274 128.36 75.7374 128.322 75.4486C128.284 75.1597 128.186 74.8861 128.036 74.6435C127.888 74.4014 127.689 74.1898 127.449 74.0255V74.0223H127.448C125.81 72.875 124.221 71.9018 122.774 71.0934C120.772 69.9755 119.039 69.1726 117.817 68.6537C117.813 68.6526 117.81 68.651 117.806 68.6493C117.12 68.3784 116.39 68.2789 115.674 68.3436C114.958 68.4083 114.257 68.6401 113.63 69.0307C113.627 69.0317 113.625 69.0334 113.623 69.0345C111.642 70.3177 109.839 71.8523 108.18 73.5892C106.586 75.2587 105.126 77.1153 103.757 79.0998C103.622 79.294 103.639 79.554 103.797 79.7297C103.954 79.9049 104.212 79.949 104.418 79.8358L111.744 75.8141C112.005 75.6711 112.291 75.5857 112.581 75.5606C112.872 75.5356 113.168 75.5704 113.45 75.6678L113.452 75.6683C115.106 76.2303 116.546 76.7726 117.761 77.2617C119.83 78.0951 121.242 78.7723 121.936 79.1221C122.146 79.2325 122.364 79.3011 122.587 79.3288C122.813 79.3566 123.044 79.3441 123.268 79.288L123.816 79.152ZM126.98 74.7028C127.125 74.8018 127.242 74.9291 127.33 75.0743C127.418 75.219 127.475 75.3828 127.496 75.5547C127.517 75.726 127.501 75.8979 127.452 76.0595C127.403 76.2205 127.319 76.3717 127.206 76.5017L124.937 79.1145L124.873 79.1395L124.816 79.1031L124.515 78.6162C124.429 78.4759 124.301 78.372 124.156 78.3121C124.01 78.2523 123.846 78.2381 123.686 78.2768L123.058 78.4285C122.94 78.4568 122.819 78.4623 122.7 78.447C122.581 78.4312 122.466 78.3937 122.359 78.3361C122.356 78.3344 122.353 78.3328 122.35 78.3312C121.65 77.9716 120.217 77.2704 118.11 76.4044C116.885 75.9006 115.432 75.342 113.763 74.7615C113.355 74.6185 112.925 74.5657 112.501 74.5994C112.078 74.6331 111.661 74.755 111.28 74.9623L105.903 77.8747C106.862 76.6143 107.869 75.4197 108.932 74.3068C110.534 72.6291 112.266 71.1353 114.175 69.8901C114.664 69.5817 115.21 69.3962 115.77 69.3402C116.33 69.2836 116.903 69.3543 117.443 69.5594C118.654 70.0555 120.359 70.8236 122.335 71.892C123.771 72.6677 125.349 73.6012 126.98 74.706V74.7028Z" fill="#1B2C44"/>
<path d="M120.429 79.4071C120.429 79.4071 124.768 76.8867 127.862 71.686C129.554 73.4796 133.093 77.2995 133.717 78.2296C134.496 79.3922 126.368 83.4151 125.006 83.2772C123.917 83.1668 121.501 80.6511 120.429 79.4071Z" fill="url(#paint27_linear_3129_6931)"/>
<path d="M113.92 76.7942C113.92 76.7942 119.964 72.0141 121.833 68.752C123.642 70.4274 124.62 71.1322 124.62 71.1322C120.508 75.2784 116.885 78.2226 116.885 78.2226C115.791 78.186 115.073 77.9631 113.92 76.7942Z" fill="url(#paint28_linear_3129_6931)"/>
</g>
<path fill-rule="evenodd" clip-rule="evenodd" d="M129.486 77.5197C129.486 77.5197 129.225 77.8852 128.729 78.4114C128.593 78.5557 128.438 78.7106 128.271 78.8798C128.174 78.9785 128.072 79.0825 127.967 79.1912C127.823 79.3419 127.674 79.5015 127.512 79.6639C127.289 79.8877 127.057 80.1211 126.788 80.3466C126.708 80.4007 126.686 80.51 126.74 80.5906C126.795 80.6707 126.904 80.6924 126.984 80.6383C127.375 80.4299 127.73 80.2166 128.04 79.9806C128.275 79.8023 128.485 79.6177 128.664 79.4294C128.875 79.2082 129.042 78.9833 129.184 78.7785C129.626 78.1409 129.797 77.6836 129.797 77.6836C129.842 77.5977 129.809 77.4916 129.723 77.4465C129.638 77.4014 129.531 77.4343 129.486 77.5197Z" fill="#1B2C44"/>
<path fill-rule="evenodd" clip-rule="evenodd" d="M138.478 77.8361C138.478 77.8361 139.018 78.5791 139.989 79.4264C140.197 79.608 140.431 79.7876 140.681 79.965C141.023 80.207 141.4 80.4368 141.799 80.6608C141.899 80.7249 142.032 80.6963 142.097 80.5957C142.161 80.4956 142.132 80.3621 142.032 80.2975C141.519 79.9284 141.069 79.5259 140.651 79.1722C140.315 78.8889 140.003 78.6363 139.742 78.4086C139.158 77.9002 138.805 77.5528 138.805 77.5528C138.726 77.4628 138.59 77.4532 138.5 77.5316C138.41 77.6094 138.4 77.7461 138.478 77.8361Z" fill="#1B2C44"/>
<path fill-rule="evenodd" clip-rule="evenodd" d="M146.148 108.581L146.467 109.1C146.626 109.356 146.723 109.638 146.778 109.929C146.832 110.209 146.826 110.497 146.773 110.783L146.729 111.044C146.696 111.256 146.637 111.46 146.573 111.662C146.508 111.864 146.427 112.059 146.34 112.252C146.162 112.644 145.957 113.024 145.663 113.347L144.892 114.28C144.813 114.353 144.809 114.477 144.882 114.555C144.956 114.634 145.079 114.639 145.158 114.565L146.142 113.86C146.561 113.527 146.919 113.13 147.173 112.668C147.301 112.435 147.395 112.183 147.464 111.924C147.533 111.668 147.572 111.405 147.589 111.138L147.602 110.873C147.614 110.486 147.567 110.105 147.436 109.748C147.309 109.399 147.124 109.075 146.871 108.795L146.459 108.346C146.395 108.259 146.272 108.242 146.186 108.307C146.1 108.372 146.083 108.495 146.148 108.581Z" fill="#C24353"/>
<path fill-rule="evenodd" clip-rule="evenodd" d="M125.912 107.901L125.711 108.137C125.417 108.484 125.2 108.881 125.058 109.305C124.915 109.736 124.863 110.194 124.891 110.655C124.938 111.196 125.068 111.725 125.314 112.199C125.559 112.671 125.912 113.082 126.325 113.431L127.258 114.153C127.359 114.248 127.519 114.242 127.614 114.141C127.709 114.039 127.704 113.879 127.602 113.784L126.818 112.903C126.508 112.583 126.282 112.204 126.092 111.809C125.904 111.418 125.753 111.006 125.696 110.568C125.639 110.206 125.647 109.841 125.725 109.489C125.803 109.128 125.941 108.781 126.149 108.468L126.298 108.243C126.325 108.018 126.06 107.878 125.912 107.901Z" fill="#C24353"/>
<path fill-rule="evenodd" clip-rule="evenodd" d="M128.259 112.556C128.409 112.234 128.6 111.953 128.834 111.712C129.06 111.479 129.331 111.291 129.649 111.148C129.65 111.147 129.651 111.147 129.653 111.146C129.812 111.07 129.985 111.041 130.156 111.047C130.323 111.053 130.489 111.101 130.639 111.185C131.013 111.384 131.344 111.592 131.647 111.79C132.219 112.165 132.677 112.524 133.031 112.863C133.921 113.716 134.18 114.386 134.18 114.386C134.21 114.482 134.313 114.536 134.41 114.506C134.507 114.477 134.561 114.373 134.531 114.276C134.531 114.276 134.286 113.293 133.069 112.099C132.79 111.826 132.462 111.54 132.067 111.262C131.741 111.031 131.368 110.812 130.953 110.593C130.702 110.468 130.43 110.404 130.158 110.411C129.889 110.418 129.621 110.487 129.38 110.625C129.017 110.831 128.712 111.085 128.469 111.391C128.231 111.692 128.048 112.035 127.918 112.42C127.88 112.514 127.927 112.622 128.021 112.659C128.115 112.697 128.222 112.65 128.259 112.556Z" fill="#C24353"/>
<path fill-rule="evenodd" clip-rule="evenodd" d="M144.169 112.869C144.169 112.869 144.125 112.485 143.87 112.017C143.743 111.784 143.561 111.535 143.31 111.299C143.071 111.066 142.766 110.925 142.446 110.874C142.12 110.822 141.78 110.879 141.469 111.031C140.972 111.285 140.533 111.539 140.164 111.81C139.865 112.03 139.611 112.258 139.391 112.479C139.039 112.834 138.779 113.173 138.585 113.472C138.133 114.17 138.038 114.639 138.038 114.639C138.018 114.704 138.055 114.773 138.12 114.794C138.185 114.814 138.254 114.777 138.274 114.713C138.274 114.713 138.562 114.076 139.452 113.245C139.751 112.966 140.119 112.67 140.56 112.352C140.91 112.099 141.297 111.822 141.756 111.56C141.756 111.56 141.757 111.56 141.757 111.56C141.952 111.443 142.171 111.387 142.388 111.401C142.613 111.415 142.836 111.489 143.021 111.635C143.022 111.636 143.024 111.637 143.025 111.638C143.263 111.817 143.442 112.014 143.574 112.201C143.844 112.584 143.926 112.912 143.926 112.912C143.937 112.979 144.002 113.023 144.069 113.012C144.135 113.001 144.181 112.936 144.169 112.869Z" fill="#C24353"/>
<path fill-rule="evenodd" clip-rule="evenodd" d="M121.701 127.74C121.701 127.74 122.592 128.457 124.267 128.87C124.524 128.934 124.8 128.99 125.095 129.024C125.275 129.044 125.462 129.055 125.655 129.056C125.882 129.057 126.114 129.047 126.354 129.022C126.581 128.998 126.806 128.959 127.045 128.914C127.156 128.907 127.242 128.812 127.236 128.7C127.23 128.589 127.134 128.503 127.022 128.509C126.743 128.488 126.484 128.45 126.226 128.419C125.953 128.387 125.694 128.348 125.444 128.315C125.229 128.287 125.021 128.263 124.823 128.235C124.487 128.189 124.178 128.14 123.895 128.08C122.638 127.813 121.93 127.405 121.93 127.405C121.837 127.342 121.711 127.365 121.648 127.458C121.585 127.55 121.608 127.676 121.701 127.74Z" fill="#1B2C44"/>
<path fill-rule="evenodd" clip-rule="evenodd" d="M122.102 126.869L120.935 127.911C120.871 127.95 120.85 128.034 120.89 128.099C120.929 128.163 121.013 128.184 121.078 128.144C121.248 128.068 121.4 127.996 121.535 127.912C121.64 127.848 121.734 127.782 121.812 127.71C122.221 127.336 122.335 127.012 122.335 127.012C122.375 126.947 122.354 126.863 122.29 126.824C122.225 126.784 122.141 126.804 122.102 126.869Z" fill="#1B2C44"/>
<path fill-rule="evenodd" clip-rule="evenodd" d="M150.002 126.973C150.002 126.973 150.115 127.304 150.529 127.684C150.609 127.758 150.706 127.824 150.813 127.89C150.952 127.974 151.107 128.047 151.282 128.124C151.325 128.151 151.382 128.137 151.409 128.094C151.435 128.05 151.422 127.993 151.378 127.967L150.159 126.877C150.133 126.833 150.076 126.82 150.032 126.846C149.989 126.873 149.976 126.93 150.002 126.973Z" fill="#1B2C44"/>
<path fill-rule="evenodd" clip-rule="evenodd" d="M128.354 128.86C128.354 128.86 130.02 128.106 132.225 127.57C133.452 127.272 134.849 127.041 136.218 127.059C137.918 127.06 138.96 127.342 140.04 127.646C140.826 127.868 141.63 128.108 142.684 128.286C143.483 128.421 144.421 128.503 145.602 128.53C145.74 128.542 145.862 128.439 145.874 128.3C145.886 128.161 145.783 128.039 145.644 128.027C144.897 127.914 144.259 127.778 143.689 127.647C142.949 127.477 142.338 127.3 141.786 127.126C141.334 126.982 140.922 126.842 140.518 126.714C140.08 126.575 139.649 126.451 139.188 126.349C138.366 126.166 137.446 126.058 136.213 126.077C134.765 126.114 133.297 126.407 132.014 126.777C129.761 127.429 128.081 128.298 128.081 128.298C127.926 128.373 127.861 128.561 127.936 128.716C128.012 128.871 128.199 128.936 128.354 128.86Z" fill="#1B2C44"/>
<path fill-rule="evenodd" clip-rule="evenodd" d="M147.205 128.774C147.205 128.774 148.001 128.905 149.041 128.646C149.268 128.59 149.504 128.505 149.742 128.397C150.062 128.25 150.382 128.053 150.697 127.818C150.809 127.743 150.839 127.59 150.763 127.478C150.687 127.365 150.534 127.336 150.422 127.412C150.052 127.641 149.67 127.793 149.317 127.935C149.045 128.045 148.789 128.145 148.551 128.226C147.772 128.49 147.208 128.571 147.208 128.571C147.152 128.571 147.106 128.615 147.105 128.671C147.104 128.727 147.149 128.774 147.205 128.774Z" fill="#1B2C44"/>
<path fill-rule="evenodd" clip-rule="evenodd" d="M129.417 124.564L132.166 123.347C132.526 123.18 132.913 123.1 133.301 123.082C133.684 123.065 134.069 123.117 134.437 123.248L135.774 123.666C136.048 123.745 136.331 123.783 136.611 123.765C136.889 123.747 137.163 123.687 137.422 123.575L139.946 122.44C140.024 122.411 140.063 122.325 140.034 122.247C140.005 122.17 139.919 122.131 139.842 122.16L137.192 122.958C136.999 123.019 136.798 123.04 136.598 123.035C136.403 123.029 136.209 122.988 136.024 122.917L134.703 122.45C134.225 122.301 133.728 122.244 133.24 122.298C132.757 122.351 132.287 122.505 131.857 122.752L129.279 124.298C129.206 124.336 129.177 124.426 129.215 124.5C129.253 124.573 129.343 124.602 129.417 124.564Z" fill="#1B2C44"/>
<path fill-rule="evenodd" clip-rule="evenodd" d="M130.471 135.486L131.559 134.819C131.919 134.597 132.308 134.434 132.713 134.327C133.112 134.221 133.527 134.176 133.945 134.191C134.959 134.215 136.387 134.265 137.718 134.28C138.154 134.286 138.579 134.286 138.976 134.28C139.445 134.273 139.874 134.254 140.233 134.245C140.532 134.231 140.828 134.272 141.105 134.37C141.39 134.47 141.659 134.616 141.889 134.82L142.813 135.623C142.885 135.695 143.004 135.695 143.076 135.623C143.149 135.55 143.149 135.432 143.076 135.359L142.273 134.435C142.016 134.145 141.704 133.917 141.361 133.752C141.012 133.585 140.627 133.498 140.233 133.479C139.874 133.469 139.445 133.451 138.976 133.444C138.579 133.438 138.154 133.438 137.718 133.443C136.387 133.459 134.959 133.509 133.945 133.533C133.467 133.55 132.997 133.633 132.549 133.786C132.105 133.938 131.684 134.152 131.299 134.428L130.264 135.176C130.179 135.233 130.155 135.349 130.213 135.435C130.269 135.52 130.385 135.544 130.471 135.486Z" fill="#1B2C44"/>
<path fill-rule="evenodd" clip-rule="evenodd" d="M93.2968 160.43L90.8847 160.352C90.3957 160.336 89.9078 160.375 89.4294 160.466C88.9515 160.557 88.4826 160.702 88.0316 160.896C85.2071 162.124 78.1153 165.166 71.9567 167.879C66.2163 170.408 61.285 172.646 61.285 172.646C61.1009 172.725 61.0139 172.944 61.0909 173.134C61.1685 173.324 61.3805 173.414 61.5646 173.335C61.5646 173.335 66.5713 171.283 72.3465 168.84C78.5431 166.22 85.6222 163.146 88.4515 161.932C88.8307 161.768 89.2253 161.649 89.6272 161.573C90.0291 161.497 90.4385 161.465 90.8494 161.48L93.2614 161.562C93.5647 161.573 93.8184 161.327 93.8285 161.014C93.8385 160.702 93.6001 160.439 93.2968 160.43Z" fill="#623FC6"/>
<path fill-rule="evenodd" clip-rule="evenodd" d="M180.485 160.186L181.763 160.243C182.33 160.268 182.895 160.332 183.452 160.434C184.011 160.536 184.563 160.676 185.104 160.854C188.96 162.115 198.686 165.323 207.18 168.077C215.085 170.641 221.921 172.817 221.921 172.817C222.105 172.877 222.303 172.772 222.362 172.582C222.421 172.392 222.319 172.188 222.135 172.127C222.135 172.127 215.346 169.8 207.468 167.149C199.003 164.3 189.28 161.081 185.432 159.796C184.846 159.602 184.248 159.446 183.644 159.333C183.04 159.22 182.427 159.147 181.812 159.117L180.535 159.054C180.232 159.04 179.975 159.282 179.961 159.594C179.948 159.907 180.182 160.172 180.485 160.186Z" fill="#623FC6"/>
<path fill-rule="evenodd" clip-rule="evenodd" d="M219.898 172.003L223.251 171.644C223.437 171.624 223.623 171.627 223.807 171.65C223.99 171.674 224.171 171.72 224.345 171.787L231.441 174.498C231.444 174.498 231.447 174.499 231.449 174.501C231.449 174.501 241.052 177.972 247.526 186.734C250.999 191.434 253.568 197.662 253.258 205.7C251.115 207.187 231.464 220.691 204.987 234.896C189.454 243.23 171.571 251.807 153.493 258.333C153.493 258.333 153.493 258.333 153.492 258.334C149.362 259.83 145.04 260.595 140.713 260.629C136.386 260.663 132.054 259.965 127.902 258.534C119.089 255.467 105.31 250.225 85.0672 241.471C68.634 234.365 47.9419 224.95 22.1973 212.494C21.94 212.369 21.6305 212.478 21.5064 212.736C21.3824 212.995 21.4907 213.306 21.748 213.431C47.4947 225.926 68.1863 235.38 84.6249 242.503C104.899 251.287 118.706 256.533 127.533 259.608C127.534 259.608 127.534 259.609 127.535 259.609C131.809 261.078 136.269 261.792 140.722 261.754C145.174 261.715 149.62 260.923 153.868 259.38C171.988 252.814 189.913 244.195 205.478 235.818C233.585 220.691 254 206.355 254 206.355C254.122 206.269 254.197 206.131 254.204 205.981C254.574 197.57 251.895 191.07 248.269 186.179C241.68 177.289 231.951 173.727 231.754 173.655C231.755 173.656 224.658 170.956 224.658 170.956C224.419 170.866 224.171 170.804 223.919 170.771C223.667 170.739 223.412 170.736 223.158 170.764L219.804 171.128C219.565 171.153 219.391 171.37 219.416 171.612C219.442 171.853 219.658 172.028 219.898 172.003Z" fill="#623FC6"/>
<path fill-rule="evenodd" clip-rule="evenodd" d="M22.5666 212.932C22.5666 212.932 22.5182 203.927 25.1332 195.162C26.8527 189.396 29.583 183.654 33.9892 180.576C34.5327 180.202 35.112 179.883 35.7191 179.625C35.7202 179.625 35.7207 179.624 35.7218 179.624C46.9219 174.795 58.1453 174.066 58.1453 174.066C58.4575 174.046 58.6947 173.776 58.674 173.464C58.6539 173.153 58.3841 172.915 58.0724 172.935C58.0724 172.935 46.6608 173.674 35.2736 178.583C34.5969 178.871 33.9506 179.227 33.3446 179.644C33.3435 179.644 33.343 179.646 33.3419 179.646C28.7425 182.858 25.842 188.82 24.0468 194.838C21.3895 203.748 21.4335 212.899 21.4335 212.899C21.4248 213.212 21.6712 213.473 21.984 213.482C22.2963 213.491 22.5574 213.244 22.5666 212.932Z" fill="#623FC6"/>
<path fill-rule="evenodd" clip-rule="evenodd" d="M58.3276 174.004L59.4692 173.611C59.7181 173.526 59.9801 173.496 60.2367 173.52C60.4932 173.543 60.7448 173.62 60.9725 173.75L66.0946 176.662C66.6469 176.976 67.2379 177.215 67.8512 177.373C68.4645 177.533 69.1001 177.612 69.7412 177.608L73.3556 177.583C73.9777 177.579 74.5937 177.658 75.1874 177.816C75.7816 177.974 76.3524 178.21 76.884 178.52L79.8934 180.279C79.9571 180.316 80.0279 180.34 80.102 180.35C88.9137 181.446 99.3741 182.707 109.756 185.282C116.181 186.877 122.576 188.974 128.529 191.851C131.173 193.156 134.075 193.75 136.949 193.644C139.824 193.538 142.67 192.731 145.202 191.235C145.203 191.234 145.205 191.233 145.206 191.232C147.838 189.64 150.415 187.753 153.661 186.291C155.472 185.476 157.493 184.794 159.852 184.372C159.856 184.372 159.859 184.371 159.863 184.371L194.477 177.424C194.782 177.363 195.085 177.295 195.387 177.221C195.688 177.148 195.988 177.067 196.286 176.98C196.287 176.98 196.287 176.98 196.287 176.98C199.332 176.086 200.886 175.225 203.334 174.941C204.599 174.794 206.106 174.804 208.188 175.042H208.189C208.869 175.118 209.552 175.169 210.236 175.193C210.92 175.218 211.606 175.217 212.29 175.19C212.292 175.19 212.294 175.19 212.296 175.189C216.433 174.968 221.193 174.215 225.448 174.046C227.453 173.966 229.345 174.016 231.001 174.32C231.214 174.359 231.42 174.225 231.461 174.02C231.501 173.815 231.362 173.617 231.149 173.577C229.44 173.261 227.487 173.202 225.416 173.281C221.158 173.444 216.395 174.189 212.254 174.404C211.592 174.43 210.93 174.43 210.268 174.404C209.606 174.379 208.944 174.329 208.285 174.254C206.119 174.004 204.552 173.996 203.236 174.146C200.738 174.431 199.149 175.296 196.042 176.203C195.756 176.285 195.468 176.362 195.178 176.432C194.889 176.503 194.598 176.567 194.305 176.626L159.683 183.516C157.241 183.947 155.148 184.65 153.272 185.49C149.987 186.962 147.375 188.861 144.71 190.466C142.317 191.875 139.628 192.631 136.914 192.727C134.201 192.822 131.462 192.256 128.969 191.019C128.968 191.018 128.967 191.018 128.966 191.017C122.956 188.099 116.498 185.965 110.009 184.343C99.6323 181.748 89.1751 180.46 80.352 179.346L77.4423 177.638C76.8263 177.276 76.164 177.001 75.475 176.817C74.786 176.632 74.0708 176.54 73.3491 176.543L69.7341 176.562C69.1922 176.564 68.6546 176.496 68.136 176.36C67.6181 176.225 67.1186 176.022 66.6524 175.756L61.5357 172.834C61.167 172.623 60.7595 172.498 60.3429 172.458C59.9267 172.42 59.5013 172.468 59.0972 172.606L57.9545 172.996C57.6653 173.095 57.5144 173.401 57.6173 173.68C57.7203 173.957 58.0384 174.103 58.3276 174.004Z" fill="#623FC6"/>
<path d="M134.355 237.761H138.511V242.115H134.355V237.761Z" fill="white"/>
<path d="M134.355 206.216H138.51V210.995H134.355V206.216Z" fill="white"/>
<path fill-rule="evenodd" clip-rule="evenodd" d="M136.486 235.154C137.953 235.154 139.36 234.573 140.398 233.539C141.435 232.504 142.018 231.102 142.018 229.639H145.707C145.707 232.077 144.735 234.415 143.006 236.138C141.277 237.862 138.931 238.83 136.486 238.83C134.04 238.83 131.695 237.862 129.966 236.138C128.236 234.415 127.265 232.077 127.265 229.639H130.953C130.953 231.102 131.536 232.504 132.574 233.539C133.611 234.573 135.018 235.154 136.486 235.154Z" fill="white"/>
<path fill-rule="evenodd" clip-rule="evenodd" d="M136.385 223.85C139.269 223.85 141.607 221.52 141.607 218.645C141.607 215.771 139.269 213.44 136.385 213.44C133.501 213.44 131.163 215.771 131.163 218.645C131.163 221.52 133.501 223.85 136.385 223.85ZM136.385 227.816C141.467 227.816 145.586 223.71 145.586 218.645C145.586 213.58 141.467 209.474 136.385 209.474C131.303 209.474 127.184 213.58 127.184 218.645C127.184 223.71 131.303 227.816 136.385 227.816Z" fill="white"/>
<ellipse cx="140.842" cy="129.358" rx="1.42335" ry="0.999199" fill="url(#paint29_linear_3129_6931)"/>
<ellipse cx="159.792" cy="109.07" rx="8.03283" ry="5.15183" fill="url(#paint30_linear_3129_6931)"/>
<ellipse cx="112.3" cy="109.07" rx="8.03283" ry="5.15183" fill="url(#paint31_linear_3129_6931)"/>
<path d="M159.255 55.6913C162.12 57.5822 163.014 62.0043 160.724 64.5621C154.811 71.1659 135.075 56.3508 153.87 54.3921C155.961 54.1743 157.814 54.7406 159.255 55.6913Z" fill="url(#paint32_linear_3129_6931)"/>
<path d="M138.114 103.648C137.601 103.67 137.019 102.476 136.816 97.7361C136.613 92.9967 136.305 89.6945 136.818 89.6725C137.331 89.6505 137.911 93.4748 138.115 98.2143C138.318 102.954 138.626 103.626 138.114 103.648Z" fill="url(#paint33_linear_3129_6931)"/>
<circle cx="120.522" cy="90.1119" r="0.497785" fill="white"/>
<defs>
<linearGradient id="paint0_linear_3129_6931" x1="275.287" y1="115.099" x2="95.3955" y2="254.031" gradientUnits="userSpaceOnUse">
<stop stop-color="#9526B8"/>
<stop offset="1" stop-color="#210C42"/>
</linearGradient>
<linearGradient id="paint1_linear_3129_6931" x1="275.287" y1="115.099" x2="95.3955" y2="254.031" gradientUnits="userSpaceOnUse">
<stop stop-color="#9526B8"/>
<stop offset="1" stop-color="#210C42"/>
</linearGradient>
<linearGradient id="paint2_linear_3129_6931" x1="275.287" y1="115.099" x2="95.3955" y2="254.031" gradientUnits="userSpaceOnUse">
<stop stop-color="#9526B8"/>
<stop offset="1" stop-color="#210C42"/>
</linearGradient>
<linearGradient id="paint3_linear_3129_6931" x1="275.287" y1="115.099" x2="95.3955" y2="254.031" gradientUnits="userSpaceOnUse">
<stop stop-color="#9526B8"/>
<stop offset="1" stop-color="#210C42"/>
</linearGradient>
<linearGradient id="paint4_linear_3129_6931" x1="176.467" y1="151.739" x2="207.323" y2="203.24" gradientUnits="userSpaceOnUse">
<stop stop-color="#0E112D"/>
<stop offset="1" stop-color="#0E112D" stop-opacity="0"/>
</linearGradient>
<linearGradient id="paint5_linear_3129_6931" x1="92.9127" y1="149.658" x2="74.7921" y2="212.526" gradientUnits="userSpaceOnUse">
<stop stop-color="#0E112D"/>
<stop offset="1" stop-color="#0E112D" stop-opacity="0"/>
</linearGradient>
<linearGradient id="paint6_linear_3129_6931" x1="92.9127" y1="149.658" x2="74.7921" y2="212.526" gradientUnits="userSpaceOnUse">
<stop stop-color="#0E112D"/>
<stop offset="1" stop-color="#0E112D" stop-opacity="0"/>
</linearGradient>
<linearGradient id="paint7_linear_3129_6931" x1="982.814" y1="-202.162" x2="358.175" y2="-518.186" gradientUnits="userSpaceOnUse">
<stop stop-color="#A10BD2"/>
<stop offset="1" stop-color="#16182B"/>
</linearGradient>
<linearGradient id="paint8_linear_3129_6931" x1="982.814" y1="-202.162" x2="358.175" y2="-518.186" gradientUnits="userSpaceOnUse">
<stop stop-color="#A10BD2"/>
<stop offset="1" stop-color="#16182B"/>
</linearGradient>
<linearGradient id="paint9_linear_3129_6931" x1="184.976" y1="-22.294" x2="335.5" y2="119.069" gradientUnits="userSpaceOnUse">
<stop stop-color="#9B55FF"/>
<stop offset="1" stop-color="#8C3CFF" stop-opacity="0.17"/>
</linearGradient>
<linearGradient id="paint10_linear_3129_6931" x1="153.881" y1="69.5442" x2="7.59489" y2="265.042" gradientUnits="userSpaceOnUse">
<stop stop-color="#FFCFAF"/>
<stop offset="1" stop-color="#F79187"/>
</linearGradient>
<linearGradient id="paint11_linear_3129_6931" x1="153.881" y1="69.5442" x2="7.59489" y2="265.042" gradientUnits="userSpaceOnUse">
<stop stop-color="#FFCBA9"/>
<stop offset="1" stop-color="#FF998F"/>
</linearGradient>
<linearGradient id="paint12_linear_3129_6931" x1="100.122" y1="119.342" x2="131.616" y2="208.032" gradientUnits="userSpaceOnUse">
<stop stop-color="#F29289"/>
<stop offset="1" stop-color="#F29289" stop-opacity="0"/>
</linearGradient>
<linearGradient id="paint13_linear_3129_6931" x1="127.052" y1="112.826" x2="133.815" y2="184.347" gradientUnits="userSpaceOnUse">
<stop stop-color="#BE8371"/>
<stop offset="1" stop-color="#9C391A" stop-opacity="0"/>
</linearGradient>
<linearGradient id="paint14_linear_3129_6931" x1="123.559" y1="126.403" x2="127.993" y2="140.123" gradientUnits="userSpaceOnUse">
<stop stop-color="#ECCDC1"/>
<stop offset="1" stop-color="#ECCDC1" stop-opacity="0"/>
</linearGradient>
<linearGradient id="paint15_linear_3129_6931" x1="149.506" y1="126.799" x2="146.217" y2="136.976" gradientUnits="userSpaceOnUse">
<stop stop-color="#ECCDC1"/>
<stop offset="1" stop-color="#ECCDC1" stop-opacity="0"/>
</linearGradient>
<linearGradient id="paint16_linear_3129_6931" x1="115.778" y1="76.7374" x2="115.778" y2="142.989" gradientUnits="userSpaceOnUse">
<stop stop-color="#A6B0D3"/>
<stop offset="1" stop-color="#A6B0D3" stop-opacity="0.44"/>
</linearGradient>
<linearGradient id="paint17_linear_3129_6931" x1="115.778" y1="76.7374" x2="115.778" y2="142.989" gradientUnits="userSpaceOnUse">
<stop stop-color="#A6B0D3"/>
<stop offset="1" stop-color="#A6B0D3" stop-opacity="0"/>
</linearGradient>
<linearGradient id="paint18_linear_3129_6931" x1="120.459" y1="77.7007" x2="120.459" y2="97.6201" gradientUnits="userSpaceOnUse">
<stop stop-color="white"/>
<stop offset="1" stop-color="white" stop-opacity="0"/>
</linearGradient>
<linearGradient id="paint19_linear_3129_6931" x1="115.446" y1="81.0626" x2="115.446" y2="100.982" gradientUnits="userSpaceOnUse">
<stop stop-color="white"/>
<stop offset="1" stop-color="white" stop-opacity="0"/>
</linearGradient>
<linearGradient id="paint20_linear_3129_6931" x1="153.931" y1="76.7374" x2="153.931" y2="142.989" gradientUnits="userSpaceOnUse">
<stop stop-color="#A6B0D3"/>
<stop offset="1" stop-color="#A6B0D3" stop-opacity="0.4"/>
</linearGradient>
<linearGradient id="paint21_linear_3129_6931" x1="153.931" y1="76.7374" x2="153.931" y2="142.989" gradientUnits="userSpaceOnUse">
<stop stop-color="#A6B0D3"/>
<stop offset="1" stop-color="#A6B0D3" stop-opacity="0"/>
</linearGradient>
<linearGradient id="paint22_linear_3129_6931" x1="158.613" y1="77.7007" x2="158.613" y2="97.6201" gradientUnits="userSpaceOnUse">
<stop stop-color="white"/>
<stop offset="1" stop-color="white" stop-opacity="0"/>
</linearGradient>
<linearGradient id="paint23_linear_3129_6931" x1="153.6" y1="81.0626" x2="153.6" y2="100.982" gradientUnits="userSpaceOnUse">
<stop stop-color="white"/>
<stop offset="1" stop-color="white" stop-opacity="0"/>
</linearGradient>
<linearGradient id="paint24_linear_3129_6931" x1="146.409" y1="-4.75992" x2="152.876" y2="43.0951" gradientUnits="userSpaceOnUse">
<stop stop-color="#B77D90"/>
<stop offset="1" stop-color="#B77D90" stop-opacity="0"/>
</linearGradient>
<linearGradient id="paint25_linear_3129_6931" x1="161.43" y1="61.5322" x2="161.43" y2="82.8543" gradientUnits="userSpaceOnUse">
<stop stop-color="#3261A8"/>
<stop offset="1" stop-color="#273F63" stop-opacity="0"/>
</linearGradient>
<linearGradient id="paint26_linear_3129_6931" x1="155.298" y1="60.6897" x2="155.298" y2="82.0119" gradientUnits="userSpaceOnUse">
<stop stop-color="#3261A8"/>
<stop offset="1" stop-color="#273F63" stop-opacity="0"/>
</linearGradient>
<linearGradient id="paint27_linear_3129_6931" x1="134.196" y1="74.9345" x2="128.261" y2="85.3861" gradientUnits="userSpaceOnUse">
<stop stop-color="#3261A8"/>
<stop offset="1" stop-color="#273F63" stop-opacity="0"/>
</linearGradient>
<linearGradient id="paint28_linear_3129_6931" x1="127.354" y1="71.4009" x2="122.137" y2="82.2291" gradientUnits="userSpaceOnUse">
<stop stop-color="#3261A8"/>
<stop offset="1" stop-color="#273F63" stop-opacity="0"/>
</linearGradient>
<linearGradient id="paint29_linear_3129_6931" x1="144.347" y1="128.713" x2="135.614" y2="129.358" gradientUnits="userSpaceOnUse">
<stop stop-color="#FFDFD0"/>
<stop offset="1" stop-color="#FFDFD0" stop-opacity="0"/>
</linearGradient>
<linearGradient id="paint30_linear_3129_6931" x1="172.491" y1="108.383" x2="142.909" y2="109.463" gradientUnits="userSpaceOnUse">
<stop stop-color="#FFE5D9"/>
<stop offset="1" stop-color="#FFDFD0" stop-opacity="0"/>
</linearGradient>
<linearGradient id="paint31_linear_3129_6931" x1="125" y1="108.383" x2="95.4181" y2="109.463" gradientUnits="userSpaceOnUse">
<stop stop-color="#FFE5D9"/>
<stop offset="1" stop-color="#FFDFD0" stop-opacity="0"/>
</linearGradient>
<linearGradient id="paint32_linear_3129_6931" x1="166.855" y1="58.5681" x2="137.544" y2="62.7087" gradientUnits="userSpaceOnUse">
<stop stop-color="#FFE5D9"/>
<stop offset="1" stop-color="#FFDFD0" stop-opacity="0"/>
</linearGradient>
<linearGradient id="paint33_linear_3129_6931" x1="141.779" y1="113.097" x2="131.472" y2="81.8322" gradientUnits="userSpaceOnUse">
<stop stop-color="#FFE5D9"/>
<stop offset="1" stop-color="#FFDFD0" stop-opacity="0"/>
</linearGradient>
</defs>
</svg>
