<svg width="800" height="576" viewBox="0 0 800 576" fill="none" xmlns="http://www.w3.org/2000/svg">
<mask id="mask0" style="mask-type:alpha" maskUnits="userSpaceOnUse" x="0" y="0" width="800" height="576">
<rect width="800" height="576" fill="url(#paint0_linear)"/>
</mask>
<g mask="url(#mask0)">
<g clip-path="url(#clip0)">
<path d="M-86.9534 315.74C-83.4809 320.601 307.461 549.263 502.498 662.986" stroke="url(#paint1_radial)" stroke-width="1.08178"/>
<path d="M69.4849 206.767C73.3554 212.186 509.11 467.059 726.503 593.818" stroke="url(#paint2_radial)" stroke-width="1.08178"/>
<path d="M8.56909 268.337C12.2365 273.472 425.126 514.971 631.112 635.078" stroke="url(#paint3_radial)" stroke-width="1.08178"/>
<path d="M154.04 147.887C157.716 153.034 571.606 395.118 778.092 515.517" stroke="url(#paint4_radial)" stroke-width="1.08178"/>
<path d="M246.126 110.969C249.703 115.976 652.387 351.506 853.282 468.645" stroke="url(#paint5_radial)" stroke-opacity="0.8" stroke-width="1.08178"/>
<path d="M329.884 96.9685C333.176 101.577 703.751 318.326 888.627 426.125" stroke="url(#paint6_radial)" stroke-width="1.08178"/>
<path d="M883.897 307.733C880.505 312.483 498.556 535.884 308.006 646.991" stroke="url(#paint7_radial)" stroke-width="1.08178"/>
<path d="M852.078 239.149C848.034 244.81 392.758 511.101 165.626 643.538" stroke="url(#paint8_radial)" stroke-width="1.08178"/>
<path d="M745.23 206.767C741.633 211.804 336.562 448.73 134.477 566.563" stroke="url(#paint9_radial)" stroke-width="1.08178"/>
<path d="M708.527 131.181C704.594 136.687 261.819 395.666 40.9237 524.467" stroke="url(#paint10_radial)" stroke-width="1.08178"/>
<path d="M611.945 106.168C608.34 111.216 202.434 348.63 -0.0681156 466.706" stroke="url(#paint11_radial)" stroke-width="1.08178"/>
<path d="M556.848 84.7109C553.092 89.9688 130.269 337.278 -80.6723 460.275" stroke="url(#paint12_radial)" stroke-width="1.08178"/>
<path d="M676.49 63.8967L676.49 181.903C676.49 185.488 673.974 189.847 670.869 191.639L238.266 441.403" stroke="#8D87BA" stroke-width="2.16357"/>
<path d="M318.812 278.953L563.651 260.823L532.249 402.181L287.41 420.311L318.812 278.953Z" stroke="#8D87BA" stroke-width="2.16357"/>
<path d="M641.433 472.268L450.855 362.238" stroke="#8D87BA" stroke-width="2.16357"/>
<path d="M495.725 355.118L521.029 267.39C521.542 265.613 520.194 262.772 518.327 261.694L416.893 203.131C413.925 201.417 411.327 202.219 410.558 205.085L387.285 291.881" stroke="#8D87BA" stroke-width="2.16357"/>
<path d="M509.762 304.714C509.762 305.285 499.766 340.079 494.768 357.405L487.306 362.393L429.555 395.731L423.843 397.708L418.968 396.423L316.435 337.41L314.763 333.905L315.41 332.179L320.533 327.812L386.333 290.833L410.456 202.126L413.597 201.729L514.474 259.734L518.901 262.661L519.757 265.659C516.425 278.44 509.762 304.143 509.762 304.714Z" fill="#2A1D3A"/>
<path d="M494.283 358.575L495.105 354.904L494.283 354.224L428.312 392.469C425.735 392.384 420.441 392.221 419.887 392.25C419.332 392.28 416.912 390.837 415.771 390.112L319.928 335.291L314.892 332.227L315.941 336.718L417.742 395.946L423.348 397.303L427.833 396.772L494.283 358.575Z" fill="#1A0C2A"/>
<path d="M317.317 337.674C313.695 335.583 313.695 332.193 317.317 330.102L383.551 291.861C385.104 290.965 387.62 290.965 389.172 291.861L492.693 351.629C496.315 353.72 496.315 357.11 492.693 359.201L428.332 396.36C425.745 397.854 421.551 397.854 418.964 396.36L317.317 337.674Z" stroke="#8D87BA" stroke-width="2.16357"/>
<path d="M357.536 349.89C357.019 349.591 357.019 349.107 357.536 348.808L374.448 339.044C374.966 338.745 375.804 338.745 376.322 339.044L408.567 357.661C409.084 357.959 409.084 358.444 408.567 358.742L391.655 368.507C391.137 368.805 390.298 368.805 389.781 368.507L357.536 349.89Z" stroke="#8D87BA" stroke-width="2.16357"/>
<path d="M400.062 298.751L396.71 300.686C395.675 301.284 395.675 302.252 396.71 302.85L436.26 325.684L441.438 328.673L444.027 330.168M482.91 346.583L479.557 348.518C478.522 349.116 476.845 349.116 475.81 348.518L456.972 337.642L451.794 334.652L449.205 333.158" stroke="#8D87BA" stroke-width="2.16357"/>
<path d="M315.545 332.482L417.35 391.259C420.972 393.35 426.844 393.35 430.466 391.259L459.654 374.407L464.122 371.828L466.356 370.538M495.4 353.769L477.527 364.088L473.058 366.668L470.824 367.958" stroke="#8D87BA" stroke-width="2.16357"/>
<path d="M495.498 355.973L519.935 266.709C520.423 264.926 519.077 262.114 517.223 261.044L415.745 202.455C412.777 200.742 410.179 201.543 409.41 204.409L386.137 291.206" stroke="#8D87BA" stroke-width="2.16357"/>
<path d="M491.418 350.563L513.081 271.031C513.728 268.653 511.934 264.907 509.465 263.481L415.313 209.123C413.617 208.143 412.132 208.602 411.693 210.241L389.703 292.345" stroke="#8D87BA" stroke-width="2.16357"/>
<rect width="105.081" height="39.5955" transform="matrix(0.866025 0.5 -0.866025 0.5 383.508 299.31)" fill="#1A0C2A"/>
<rect x="-6.44794e-08" y="1.08178" width="104.101" height="37.8823" transform="matrix(0.866025 0.5 -0.866025 0.5 384.467 299.416)" stroke="#8D87BA" stroke-width="2.16357"/>
<rect x="-6.44794e-08" y="1.08178" width="5.27756" height="4.79892" transform="matrix(0.866025 0.5 -0.866025 0.5 361.412 316.13)" stroke="#8D87BA" stroke-width="2.16357"/>
<rect x="-6.44794e-08" y="1.08178" width="14.4196" height="4.79891" transform="matrix(0.866025 0.5 -0.866025 0.5 369.023 311.736)" stroke="#8D87BA" stroke-width="2.16357"/>
<rect x="-6.44794e-08" y="1.08178" width="10.037" height="4.79891" transform="matrix(0.866025 0.5 -0.866025 0.5 376.105 307.648)" stroke="#8D87BA" stroke-width="2.16357"/>
<rect x="-6.44794e-08" y="1.08178" width="5.27756" height="4.79891" transform="matrix(0.866025 0.5 -0.866025 0.5 383.183 303.56)" stroke="#8D87BA" stroke-width="2.16357"/>
<rect x="-6.44794e-08" y="1.08178" width="5.27756" height="4.79891" transform="matrix(0.866025 0.5 -0.866025 0.5 390.528 307.8)" stroke="#8D87BA" stroke-width="2.16357"/>
<rect x="-6.44794e-08" y="1.08178" width="5.27757" height="4.79891" transform="matrix(0.866025 0.5 -0.866025 0.5 397.87 312.04)" stroke="#8D87BA" stroke-width="2.16357"/>
<rect x="-6.44794e-08" y="1.08178" width="5.27756" height="4.79891" transform="matrix(0.866025 0.5 -0.866025 0.5 388.149 314.602)" stroke="#8D87BA" stroke-width="2.16357"/>
<rect x="-6.44794e-08" y="1.08178" width="5.27756" height="4.79891" transform="matrix(0.866025 0.5 -0.866025 0.5 396.072 319.176)" stroke="#8D87BA" stroke-width="2.16357"/>
<rect x="-6.44794e-08" y="1.08178" width="5.27756" height="4.79891" transform="matrix(0.866025 0.5 -0.866025 0.5 403.995 323.749)" stroke="#8D87BA" stroke-width="2.16357"/>
<rect x="-6.44794e-08" y="1.08178" width="5.27757" height="4.79891" transform="matrix(0.866025 0.5 -0.866025 0.5 411.918 328.324)" stroke="#8D87BA" stroke-width="2.16357"/>
<rect x="-6.44794e-08" y="1.08178" width="5.27757" height="4.79891" transform="matrix(0.866025 0.5 -0.866025 0.5 419.839 332.898)" stroke="#8D87BA" stroke-width="2.16357"/>
<rect x="-6.44794e-08" y="1.08178" width="5.27757" height="4.79891" transform="matrix(0.866025 0.5 -0.866025 0.5 427.761 337.472)" stroke="#8D87BA" stroke-width="2.16357"/>
<rect x="-6.44794e-08" y="1.08178" width="5.27756" height="4.79891" transform="matrix(0.866025 0.5 -0.866025 0.5 435.684 342.046)" stroke="#8D87BA" stroke-width="2.16357"/>
<rect x="-6.44794e-08" y="1.08178" width="5.27756" height="4.79891" transform="matrix(0.866025 0.5 -0.866025 0.5 443.609 346.62)" stroke="#8D87BA" stroke-width="2.16357"/>
<rect x="-6.44794e-08" y="1.08178" width="5.27756" height="4.79891" transform="matrix(0.866025 0.5 -0.866025 0.5 405.218 316.281)" stroke="#8D87BA" stroke-width="2.16357"/>
<rect x="-6.44794e-08" y="1.08178" width="5.27757" height="4.79891" transform="matrix(0.866025 0.5 -0.866025 0.5 412.561 320.521)" stroke="#8D87BA" stroke-width="2.16357"/>
<rect x="-6.44794e-08" y="1.08178" width="5.27756" height="4.79891" transform="matrix(0.866025 0.5 -0.866025 0.5 419.905 324.761)" stroke="#8D87BA" stroke-width="2.16357"/>
<rect x="-6.44794e-08" y="1.08178" width="5.27757" height="4.79891" transform="matrix(0.866025 0.5 -0.866025 0.5 427.249 329.001)" stroke="#8D87BA" stroke-width="2.16357"/>
<rect x="-6.44794e-08" y="1.08178" width="5.27757" height="4.79891" transform="matrix(0.866025 0.5 -0.866025 0.5 434.594 333.241)" stroke="#8D87BA" stroke-width="2.16357"/>
<rect x="-6.44794e-08" y="1.08178" width="5.27756" height="4.79891" transform="matrix(0.866025 0.5 -0.866025 0.5 441.938 337.481)" stroke="#8D87BA" stroke-width="2.16357"/>
<rect x="-6.44794e-08" y="1.08178" width="5.27756" height="4.79891" transform="matrix(0.866025 0.5 -0.866025 0.5 449.282 341.722)" stroke="#8D87BA" stroke-width="2.16357"/>
<rect x="-6.44794e-08" y="1.08178" width="11.6749" height="4.79891" transform="matrix(0.866025 0.5 -0.866025 0.5 456.628 345.962)" stroke="#8D87BA" stroke-width="2.16357"/>
<rect x="-6.44794e-08" y="1.08178" width="5.27756" height="4.79892" transform="matrix(0.866025 0.5 -0.866025 0.5 369.332 320.702)" stroke="#8D87BA" stroke-width="2.16357"/>
<rect x="-6.44794e-08" y="1.08178" width="5.27756" height="4.79892" transform="matrix(0.866025 0.5 -0.866025 0.5 377.246 325.273)" stroke="#8D87BA" stroke-width="2.16357"/>
<rect x="-6.44794e-08" y="1.08178" width="5.27756" height="4.79891" transform="matrix(0.866025 0.5 -0.866025 0.5 384.861 320.878)" stroke="#8D87BA" stroke-width="2.16357"/>
<rect x="-6.44794e-08" y="1.08178" width="5.27757" height="4.79891" transform="matrix(0.866025 0.5 -0.866025 0.5 392.281 325.162)" stroke="#8D87BA" stroke-width="2.16357"/>
<rect x="-6.44794e-08" y="1.08178" width="5.27756" height="4.79891" transform="matrix(0.866025 0.5 -0.866025 0.5 399.702 329.447)" stroke="#8D87BA" stroke-width="2.16357"/>
<rect x="-6.44794e-08" y="1.08178" width="5.27757" height="4.79891" transform="matrix(0.866025 0.5 -0.866025 0.5 407.12 333.731)" stroke="#8D87BA" stroke-width="2.16357"/>
<rect x="-6.44794e-08" y="1.08178" width="5.27757" height="4.79891" transform="matrix(0.866025 0.5 -0.866025 0.5 414.543 338.015)" stroke="#8D87BA" stroke-width="2.16357"/>
<rect x="-6.44794e-08" y="1.08178" width="5.27757" height="4.79891" transform="matrix(0.866025 0.5 -0.866025 0.5 421.963 342.299)" stroke="#8D87BA" stroke-width="2.16357"/>
<rect x="-6.44794e-08" y="1.08178" width="5.27756" height="4.79891" transform="matrix(0.866025 0.5 -0.866025 0.5 429.383 346.584)" stroke="#8D87BA" stroke-width="2.16357"/>
<rect x="-6.44794e-08" y="1.08178" width="18.2141" height="4.79891" transform="matrix(0.866025 0.5 -0.866025 0.5 436.804 350.868)" stroke="#8D87BA" stroke-width="2.16357"/>
<rect x="-6.44794e-08" y="1.08178" width="9.5108" height="4.79891" transform="matrix(0.866025 0.5 -0.866025 0.5 451.42 351.132)" stroke="#8D87BA" stroke-width="2.16357"/>
<rect x="-6.44794e-08" y="1.08178" width="5.27757" height="4.79892" transform="matrix(0.866025 0.5 -0.866025 0.5 417.568 348.553)" stroke="#8D87BA" stroke-width="2.16357"/>
<rect x="-6.44794e-08" y="1.08178" width="5.27756" height="4.79892" transform="matrix(0.866025 0.5 -0.866025 0.5 425.487 353.123)" stroke="#8D87BA" stroke-width="2.16357"/>
<rect x="-6.44794e-08" y="1.08178" width="13.35" height="4.79892" transform="matrix(0.866025 0.5 -0.866025 0.5 433.402 357.695)" stroke="#8D87BA" stroke-width="2.16357"/>
<rect x="-6.44794e-08" y="1.08178" width="33.5534" height="4.79892" transform="matrix(0.866025 0.5 -0.866025 0.5 385.163 329.844)" stroke="#8D87BA" stroke-width="2.16357"/>
<rect x="-3.22397e-08" y="0.540892" width="105.183" height="38.9641" transform="matrix(0.866025 0.5 -0.866025 0.5 384 299.145)" stroke="#8D87BA" stroke-width="1.08178"/>
<path d="M356.191 266.039L357.077 275.116L355.833 277.654L325.58 294.363L321.068 293.949L317.095 294.363L291.402 279.208L289.416 277.238L289.029 273.405L288.835 268.522L320.246 248.738L323.374 248.181L327.091 248.086L356.191 266.039Z" fill="#2A1D3A"/>
<path d="M356.47 269.163V275.95L355.381 278.081L334.121 290.865L325.219 294.866L320.905 295.721L315.61 294.483L289.009 278.427L288.687 271.043L316.692 287.202L320.642 287.933L324.345 287.531L356.47 269.163Z" fill="#1A0C2A"/>
<rect x="1.87371" width="45.1826" height="41.3313" rx="6.10214" transform="matrix(0.866025 -0.5 0.866025 0.5 283.795 270.254)" stroke="#8D87BA" stroke-width="2.16357"/>
<path d="M357.202 267.687L357.202 275.131C357.202 276.474 356.28 277.763 354.637 278.715L348.272 282.406L346.039 283.7M288.533 269.519L288.534 276.809C288.534 278.156 289.461 279.448 291.111 280.401L315.248 294.337C318.689 296.323 324.27 296.32 327.704 294.329L339.342 287.582L341.574 286.288" stroke="#8D87BA" stroke-width="2.16357"/>
<rect x="1.87371" width="16.4459" height="15.6092" transform="matrix(0.866025 -0.5 0.866025 0.5 308.068 269.5)" fill="#1A0C2A" stroke="#8D87BA" stroke-width="2.16357"/>
<path d="M327.324 406.661L328.21 415.738L326.966 418.276L296.713 434.985L292.202 434.571L288.228 434.985L262.536 419.83L260.549 417.86L260.162 414.027L259.968 409.144L291.379 389.36L294.507 388.803L298.224 388.708L327.324 406.661Z" fill="#2A1D3A"/>
<path d="M327.603 409.785V416.572L326.515 418.703L305.254 431.488L296.352 435.488L292.038 436.343L286.743 435.105L260.143 419.049L259.82 411.665L287.825 427.824L291.775 428.555L295.478 428.153L327.603 409.785Z" fill="#1A0C2A"/>
<rect x="1.87371" width="45.1826" height="41.3313" rx="6.10214" transform="matrix(0.866025 -0.5 0.866025 0.5 254.928 410.876)" stroke="#8D87BA" stroke-width="2.16357"/>
<path d="M328.335 408.309L328.335 415.753C328.335 417.096 327.413 418.385 325.771 419.337L310.475 428.204L308.243 429.499M259.666 410.141L259.667 417.431C259.667 418.778 260.594 420.07 262.244 421.023L286.381 434.959C289.822 436.945 295.403 436.942 298.837 434.951L301.545 433.381L303.778 432.087" stroke="#8D87BA" stroke-width="2.16357"/>
<circle r="9.69807" transform="matrix(0.866025 0.5 -0.866025 0.5 294.101 407.849)" fill="#1A0C2A" stroke="#8D87BA" stroke-width="2.16357"/>
<path d="M562.693 399.789L563.579 408.866L562.334 411.404L532.081 428.113L527.57 427.699L523.596 428.113L497.904 412.958L495.917 410.988L495.53 407.155L495.336 402.272L526.747 382.488L529.875 381.931L533.592 381.836L562.693 399.789Z" fill="#2A1D3A"/>
<path d="M562.971 402.913V409.7L561.882 411.831L540.622 424.615L531.72 428.616L527.406 429.471L522.111 428.233L495.51 412.177L495.188 404.793L523.193 420.952L527.143 421.683L530.845 421.281L562.971 402.913Z" fill="#1A0C2A"/>
<rect x="1.87371" width="45.1826" height="41.3313" rx="6.10214" transform="matrix(0.866025 -0.5 0.866025 0.5 490.294 404.004)" stroke="#8D87BA" stroke-width="2.16357"/>
<path d="M563.702 401.437L563.702 408.881C563.702 410.224 562.78 411.513 561.138 412.465L534.204 428.079C530.77 430.07 525.189 430.073 521.748 428.087L511.508 422.175L509.449 420.986M495.034 403.269L495.034 410.559C495.034 411.906 495.961 413.198 497.611 414.151L503.271 417.419L505.331 418.608" stroke="#8D87BA" stroke-width="2.16357"/>
<path d="M516.223 399.276L539.192 395.722L533.038 408.984L516.223 399.276Z" fill="#1A0C2A" stroke="#8D87BA" stroke-width="2.16357"/>
<path d="M590.16 249.592L591.046 258.668L589.802 261.206L559.549 277.915L555.037 277.501L551.064 277.915L525.371 262.76L523.385 260.791L522.998 256.958L522.804 252.074L554.215 232.29L557.343 231.733L561.06 231.639L590.16 249.592Z" fill="#2A1D3A"/>
<path d="M590.438 252.716V259.503L589.35 261.633L568.09 274.418L559.187 278.419L554.873 279.274L549.579 278.036L522.978 261.98L522.655 254.595L550.661 270.754L554.61 271.486L558.313 271.083L590.438 252.716Z" fill="#1A0C2A"/>
<rect x="1.87371" width="45.1826" height="41.3313" rx="6.10214" transform="matrix(0.866025 -0.5 0.866025 0.5 517.761 253.806)" stroke="#8D87BA" stroke-width="2.16357"/>
<path d="M591.17 251.239L591.17 258.683C591.17 260.027 590.248 261.316 588.606 262.268L561.672 277.882C558.238 279.873 552.657 279.876 549.216 277.889L547.213 276.733L545.154 275.544M522.502 253.072L522.502 260.362C522.502 261.709 523.429 263.001 525.079 263.953L538.976 271.977L541.035 273.166" stroke="#8D87BA" stroke-width="2.16357"/>
<circle r="9.69807" transform="matrix(0.866025 0.5 -0.866025 0.5 556.546 251.906)" fill="#1A0C2A" stroke="#8D87BA" stroke-width="2.16357"/>
<path d="M688.094 68.8691L688.094 389.523" stroke="#8D87BA" stroke-width="2.16357"/>
<path d="M731.909 436.775C731.947 442.314 731.921 453.632 731.509 454.591L730.939 455.676L649.168 502.786L569.91 457.104L569.281 437.746L576.02 433.349L577.504 432.036L569.281 428.153V408.51L578.532 403.028L569.738 398.06L569.281 379.159L649.567 332.506L731.11 378.017L731.452 395.89L721.916 401.885L731.452 407.882L731.909 425.583L722.83 431.408L731.909 436.775Z" fill="#2A1D3A"/>
<path d="M649.223 455.796L731.163 408.19L721.478 401.679L649.558 443.656L578.981 403.134L572.376 406.157L569.687 409.344L649.223 455.796Z" fill="#1A0C2A"/>
<path d="M722.068 431.632L731.163 437.031V438.806L649.223 485.937L569.72 439.423V437.957L577.511 432.634L649.223 473.518L722.068 431.632Z" fill="#1A0C2A"/>
<path d="M655.738 437.135L655.738 430.291L677.058 417.982" stroke="#8D87BA" stroke-width="2.16357"/>
<path d="M569.793 379.985L648.748 426.379L649.29 426.697L649.835 426.384L731.655 379.343V395.994L649.294 443.91L569.793 398.021V379.985Z" stroke="#8D87BA" stroke-width="2.16357"/>
<path d="M569.32 379.155L650.21 332.51L732.089 378.518" stroke="#8D87BA" stroke-width="2.16357"/>
<path d="M569.793 409.7L648.747 456.094L649.29 456.412L649.835 456.099L731.655 409.059V425.71L649.293 473.625L569.793 427.736V409.7Z" stroke="#8D87BA" stroke-width="2.16357"/>
<path d="M732.123 408.247L721.75 402.24" stroke="#8D87BA" stroke-width="2.16357"/>
<path d="M569.167 408.599L578.248 403.377" stroke="#8D87BA" stroke-width="2.16357"/>
<path d="M656.305 465.509L656.305 458.664L677.624 446.355" stroke="#8D87BA" stroke-width="2.16357"/>
<path d="M569.793 439.032L648.747 485.425L649.29 485.744L649.835 485.43L731.655 438.39V455.041L649.293 502.957L569.793 457.067V439.032Z" stroke="#8D87BA" stroke-width="2.16357"/>
<path d="M732.281 437.313L722.098 431.417" stroke="#8D87BA" stroke-width="2.16357"/>
<path d="M569.167 437.93L578.248 432.708" stroke="#8D87BA" stroke-width="2.16357"/>
<path d="M656.305 494.84L656.305 487.995L677.624 475.686" stroke="#8D87BA" stroke-width="2.16357"/>
<path d="M253.847 464.171C253.885 469.71 253.858 481.028 253.447 481.987L252.877 483.072L171.106 530.182L91.8473 484.499L91.2192 465.142L97.9573 460.745L99.442 459.431L91.2192 455.548V435.905L100.47 430.423L91.676 425.455L91.2192 406.554L171.505 359.902L253.047 405.413L253.39 423.286L243.854 429.281L253.39 435.277L253.847 452.979L244.768 458.803L253.847 464.171Z" fill="#2A1D3A"/>
<path d="M171.165 483.191L253.104 435.585L243.42 429.075L171.5 471.051L100.923 430.53L94.3184 433.552L91.6292 436.739L171.165 483.191Z" fill="#1A0C2A"/>
<path d="M244.01 459.027L253.104 464.427V466.201L171.165 513.333L91.6616 466.818V465.352L99.4526 460.03L171.165 500.913L244.01 459.027Z" fill="#1A0C2A"/>
<path d="M91.7327 407.381L170.687 453.774L171.229 454.093L171.775 453.779L253.594 406.739V423.39L171.233 471.306L91.7327 425.416V407.381Z" stroke="#8D87BA" stroke-width="2.16357"/>
<path d="M91.2593 406.551L172.15 359.906L254.029 405.913" stroke="#8D87BA" stroke-width="2.16357"/>
<path d="M91.7329 437.096L170.688 483.489L171.23 483.808L171.775 483.495L253.595 436.454V453.105L171.233 501.021L91.7329 455.131V437.096Z" stroke="#8D87BA" stroke-width="2.16357"/>
<path d="M254.065 435.642L243.692 429.636" stroke="#8D87BA" stroke-width="2.16357"/>
<path d="M91.1096 435.994L100.191 430.773" stroke="#8D87BA" stroke-width="2.16357"/>
<path d="M91.7329 466.427L170.688 512.821L171.23 513.14L171.775 512.826L253.595 465.786V482.437L171.233 530.353L91.7329 484.463V466.427Z" stroke="#8D87BA" stroke-width="2.16357"/>
<path d="M254.219 464.709L244.036 458.812" stroke="#8D87BA" stroke-width="2.16357"/>
<path d="M91.1096 465.325L100.191 460.104" stroke="#8D87BA" stroke-width="2.16357"/>
<circle r="22.9448" transform="matrix(0.913545 0.406737 -0.285354 0.958422 450.887 279.038)" fill="#1A0C2A"/>
<circle r="21.6687" transform="matrix(0.913545 0.406737 -0.285354 0.958422 448.78 279.303)" fill="#8D87BA" stroke="#8D87BA" stroke-width="2.16357"/>
<path fill-rule="evenodd" clip-rule="evenodd" d="M447.817 278.891C450.355 280.184 452.895 279.021 453.491 276.292C454.087 273.563 452.513 270.303 449.975 269.01C447.437 267.717 444.896 268.88 444.301 271.609C443.705 274.338 445.279 277.598 447.817 278.891ZM447.013 282.573C451.441 284.829 455.875 282.798 456.915 278.036C457.955 273.275 455.208 267.585 450.779 265.328C446.35 263.072 441.917 265.103 440.877 269.865C439.837 274.627 442.584 280.316 447.013 282.573Z" fill="#1B0C2C"/>
<path fill-rule="evenodd" clip-rule="evenodd" d="M445.536 289.333C446.757 289.955 448.043 290.025 449.11 289.529C450.178 289.033 450.94 288.01 451.229 286.687L454.646 288.427C454.142 290.734 452.814 292.515 450.954 293.38C449.094 294.244 446.854 294.121 444.727 293.037C442.6 291.954 440.761 289.998 439.613 287.601C438.466 285.204 438.104 282.562 438.607 280.256L442.024 281.996C441.735 283.32 441.942 284.837 442.601 286.212C443.26 287.588 444.316 288.711 445.536 289.333Z" fill="#1B0C2C"/>
<path d="M449.616 261.133L453.225 262.971L452.291 267.245L448.682 265.407L449.616 261.133Z" fill="#1B0C2C"/>
<path d="M443.082 291.052L446.69 292.891L445.757 297.165L442.148 295.326L443.082 291.052Z" fill="#1B0C2C"/>
<rect x="1.87371" width="35.202" height="13.882" transform="matrix(0.866025 -0.5 0.866025 0.5 149.787 411.543)" fill="#1A0C2A" stroke="#8D87BA" stroke-width="2.16357"/>
<mask id="mask1" style="mask-type:alpha" maskUnits="userSpaceOnUse" x="665" y="13" width="39" height="101">
<path d="M698.279 112.498L698.192 112.467L698.101 112.451C697.568 112.36 696.956 112.139 696.283 111.751L668.402 95.6539C667.829 95.3231 667.25 94.712 666.811 93.9519C666.372 93.1918 666.133 92.3843 666.133 91.7227V19.1391C666.133 17.4862 666.646 16.4901 667.263 16L667.353 15.9286L667.426 15.8398C667.815 15.367 668.336 15.0959 668.991 15.0523C669.667 15.0073 670.542 15.205 671.568 15.7969L697.061 30.5155C698.41 31.2944 699.692 32.6744 700.64 34.3154C701.587 35.9565 702.141 37.7569 702.141 39.3147V109.146C702.141 110.786 701.636 111.78 701.025 112.274C700.439 112.746 699.531 112.941 698.279 112.498Z" fill="#2A1D3A" stroke="#8D87BA" stroke-width="2.16357"/>
</mask>
<g mask="url(#mask1)">
<path d="M698.279 112.498L698.192 112.467L698.101 112.451C697.568 112.36 696.956 112.139 696.283 111.751L668.402 95.6539C667.829 95.3231 667.25 94.712 666.811 93.9519C666.372 93.1918 666.133 92.3843 666.133 91.7227V19.1391C666.133 17.4862 666.646 16.4901 667.263 16L667.353 15.9286L667.426 15.8398C667.815 15.367 668.336 15.0959 668.991 15.0523C669.667 15.0073 670.542 15.205 671.568 15.7969L697.061 30.5155C698.41 31.2944 699.692 32.6744 700.64 34.3154C701.587 35.9565 702.141 37.7569 702.141 39.3147V109.146C702.141 110.786 701.636 111.78 701.025 112.274C700.439 112.746 699.531 112.941 698.279 112.498Z" fill="#2A1D3A" stroke="#8D87BA" stroke-width="2.16357"/>
<rect x="702.005" y="22.6582" width="29.1094" height="98.2115" fill="url(#paint13_linear)" fill-opacity="0.75"/>
</g>
<path fill-rule="evenodd" clip-rule="evenodd" d="M670.134 19.6619C669.1 19.0645 668.261 19.5488 668.261 20.7437V90.1303C668.261 91.3252 669.1 92.7782 670.134 93.3756L696.498 108.597C697.533 109.194 698.372 108.71 698.372 107.515L698.372 38.1284C698.372 36.9334 697.533 35.4804 696.498 34.883L690.1 31.189C690.255 31.5934 690.343 32.0087 690.343 32.3969V32.8766C690.343 34.0715 689.504 34.5558 688.47 33.9583L675.888 26.6945C674.854 26.0971 674.015 24.6441 674.015 23.4492V22.9695C674.015 22.5813 674.103 22.2682 674.258 22.0427L670.134 19.6619Z" fill="#8D87BA"/>
<circle r="22.7847" transform="matrix(0.866025 -0.5 2.20305e-08 1 171.46 380.925)" fill="#1A0C2A"/>
<circle r="22.7847" transform="matrix(0.866025 -0.5 2.20305e-08 1 173.272 381.557)" fill="#8D87BA"/>
<path d="M190.072 372.267C190.072 383.216 182.542 396.419 173.274 401.77C164.006 407.121 156.477 402.612 156.477 391.663C156.477 380.715 164.006 367.512 173.274 362.161C182.542 356.81 190.072 361.319 190.072 372.267Z" stroke="#2A1D3A" stroke-width="1.08178"/>
<path d="M672.715 63.9176L676.512 70.4943L692.511 55.8989" stroke="#2A1D3A" stroke-width="3.24535"/>
<circle r="1.87984" transform="matrix(0.866025 0.5 -0.866025 0.5 171.825 448.166)" fill="#8D87BA"/>
<circle r="1.87984" transform="matrix(0.866025 0.5 -0.866025 0.5 176.53 445.484)" fill="#8D87BA"/>
</g>
</g>
<path fill-rule="evenodd" clip-rule="evenodd" d="M174.454 380.89C176.497 379.71 178.153 376.89 178.153 374.59C178.153 372.291 176.497 371.382 174.454 372.562C172.412 373.741 170.756 376.561 170.756 378.861C170.756 381.161 172.412 382.069 174.454 380.89ZM174.454 383.992C178.019 381.934 180.909 377.012 180.909 372.999C180.909 368.986 178.019 367.401 174.454 369.459C170.89 371.517 168 376.439 168 380.452C168 384.465 170.89 386.05 174.454 383.992Z" fill="#1E0D32"/>
<path fill-rule="evenodd" clip-rule="evenodd" d="M174.454 389.69C175.437 389.122 176.379 388.135 177.074 386.945C177.769 385.755 178.159 384.46 178.159 383.344L180.909 381.757C180.909 383.7 180.229 385.957 179.018 388.03C177.808 390.104 176.166 391.824 174.454 392.812C172.743 393.8 171.101 393.976 169.89 393.3C168.68 392.625 168 391.153 168 389.21L170.75 387.622C170.75 388.738 171.14 389.582 171.835 389.97C172.53 390.358 173.472 390.257 174.454 389.69Z" fill="#1E0D32"/>
<path d="M172.948 367.596L175.853 365.919L175.853 369.521L172.948 371.198L172.948 367.596Z" fill="#1E0D32"/>
<path d="M172.948 392.812L175.853 391.135L175.853 394.737L172.948 396.414L172.948 392.812Z" fill="#1E0D32"/>
<defs>
<linearGradient id="paint0_linear" x1="644.5" y1="298" x2="-3.90534e-06" y2="298" gradientUnits="userSpaceOnUse">
<stop stop-color="#C4C4C4"/>
<stop offset="1" stop-color="#C4C4C4" stop-opacity="0"/>
</linearGradient>
<radialGradient id="paint1_radial" cx="0" cy="0" r="1" gradientUnits="userSpaceOnUse" gradientTransform="translate(207.772 489.363) rotate(90) scale(173.623 294.726)">
<stop stop-color="#8D87BA"/>
<stop offset="1" stop-color="#8D87BA" stop-opacity="0"/>
</radialGradient>
<radialGradient id="paint2_radial" cx="0" cy="0" r="1" gradientUnits="userSpaceOnUse" gradientTransform="translate(397.994 400.292) rotate(90) scale(193.525 328.509)">
<stop stop-color="#8D87BA"/>
<stop offset="1" stop-color="#8D87BA" stop-opacity="0"/>
</radialGradient>
<radialGradient id="paint3_radial" cx="0" cy="0" r="1" gradientUnits="userSpaceOnUse" gradientTransform="translate(319.841 451.708) rotate(90) scale(183.371 311.272)">
<stop stop-color="#8D87BA"/>
<stop offset="1" stop-color="#8D87BA" stop-opacity="0"/>
</radialGradient>
<radialGradient id="paint4_radial" cx="0" cy="0" r="1" gradientUnits="userSpaceOnUse" gradientTransform="translate(466.066 331.702) rotate(90) scale(183.815 312.026)">
<stop stop-color="#8D87BA"/>
<stop offset="1" stop-color="#8D87BA" stop-opacity="0"/>
</radialGradient>
<radialGradient id="paint5_radial" cx="0" cy="0" r="1" gradientUnits="userSpaceOnUse" gradientTransform="translate(549.704 289.807) rotate(90) scale(178.838 303.578)">
<stop stop-color="#8D87BA"/>
<stop offset="1" stop-color="#8D87BA" stop-opacity="0"/>
</radialGradient>
<radialGradient id="paint6_radial" cx="0" cy="0" r="1" gradientUnits="userSpaceOnUse" gradientTransform="translate(609.256 261.547) rotate(90) scale(164.578 279.371)">
<stop stop-color="#8D87BA"/>
<stop offset="1" stop-color="#8D87BA" stop-opacity="0"/>
</radialGradient>
<radialGradient id="paint7_radial" cx="0" cy="0" r="1" gradientUnits="userSpaceOnUse" gradientTransform="translate(595.952 477.362) rotate(90) scale(169.629 287.946)">
<stop stop-color="#8D87BA"/>
<stop offset="1" stop-color="#8D87BA" stop-opacity="0"/>
</radialGradient>
<radialGradient id="paint8_radial" cx="0" cy="0" r="1" gradientUnits="userSpaceOnUse" gradientTransform="translate(508.852 441.343) rotate(90) scale(202.195 343.226)">
<stop stop-color="#8D87BA"/>
<stop offset="1" stop-color="#8D87BA" stop-opacity="0"/>
</radialGradient>
<radialGradient id="paint9_radial" cx="0" cy="0" r="1" gradientUnits="userSpaceOnUse" gradientTransform="translate(439.854 386.665) rotate(90) scale(179.898 305.377)">
<stop stop-color="#8D87BA"/>
<stop offset="1" stop-color="#8D87BA" stop-opacity="0"/>
</radialGradient>
<radialGradient id="paint10_radial" cx="0" cy="0" r="1" gradientUnits="userSpaceOnUse" gradientTransform="translate(374.725 327.824) rotate(90) scale(196.643 333.802)">
<stop stop-color="#8D87BA"/>
<stop offset="1" stop-color="#8D87BA" stop-opacity="0"/>
</radialGradient>
<radialGradient id="paint11_radial" cx="0" cy="0" r="1" gradientUnits="userSpaceOnUse" gradientTransform="translate(305.938 286.437) rotate(90) scale(180.269 306.007)">
<stop stop-color="#8D87BA"/>
<stop offset="1" stop-color="#8D87BA" stop-opacity="0"/>
</radialGradient>
<radialGradient id="paint12_radial" cx="0" cy="0" r="1" gradientUnits="userSpaceOnUse" gradientTransform="translate(238.088 272.493) rotate(90) scale(187.782 318.76)">
<stop stop-color="#8D87BA"/>
<stop offset="1" stop-color="#8D87BA" stop-opacity="0"/>
</radialGradient>
<linearGradient id="paint13_linear" x1="718.524" y1="73.2867" x2="690.825" y2="74.3204" gradientUnits="userSpaceOnUse">
<stop offset="0.41246" stop-color="#2A1D3A"/>
<stop offset="0.68464" stop-color="#2A1D3A" stop-opacity="0"/>
</linearGradient>
<clipPath id="clip0">
<rect width="807" height="582" fill="white" transform="translate(-7 -13)"/>
</clipPath>
</defs>
</svg>
