<svg width="356" height="367" viewBox="0 0 356 367" fill="none" xmlns="http://www.w3.org/2000/svg">
<path d="M62 151H97L139 85.5H264.5V151H342.5" stroke="url(#paint0_linear)"/>
<path d="M65.5 164H110L147.5 104H340.5" stroke="url(#paint1_linear)"/>
<path d="M203 118L119 14" stroke="url(#paint2_linear)" stroke-width="2"/>
<path d="M204 183V269H271" stroke="url(#paint3_linear)" stroke-width="2"/>
<path d="M63 215.5L101 253.5L139 215.5H264.5V146H342.5" stroke="url(#paint4_linear)"/>
<path d="M204 184H346.5" stroke="url(#paint5_linear)" stroke-width="2"/>
<path d="M116.5 355.5L162.5 309.5L343 309.5" stroke="url(#paint6_linear)" stroke-width="2"/>
<path d="M49.5 80L116.5 13H331.5" stroke="url(#paint7_linear)" stroke-width="2"/>
<path d="M49.5 287L116.5 354H331.5" stroke="url(#paint8_linear)" stroke-width="2"/>
<circle cx="343" cy="13" r="12" fill="#19072F" stroke="#F4B3E2" stroke-width="2"/>
<circle cx="343" cy="354" r="12" fill="#19072F" stroke="#F4B3E2" stroke-width="2"/>
<path d="M64 183.5H203.5" stroke="url(#paint9_linear)" stroke-width="2"/>
<path d="M203 118L203 183" stroke="#F4B3E2" stroke-width="2"/>
<path d="M203 118H276" stroke="url(#paint10_linear)" stroke-width="2"/>
<circle cx="203" cy="118" r="8" fill="#19072F" stroke="#F4B3E2" stroke-width="2"/>
<circle cx="117" cy="13" r="8" fill="#19072F" stroke="#F4B3E2" stroke-width="2"/>
<circle cx="271" cy="269" r="8" fill="#19072F" stroke="#F4B3E2" stroke-width="2"/>
<circle cx="343" cy="310" r="8" fill="#19072F" stroke="#F4B3E2" stroke-width="2"/>
<circle cx="276" cy="118" r="8" fill="#19072F" stroke="#F4B3E2" stroke-width="2"/>
<circle cx="118" cy="354" r="8" fill="#19072F" stroke="#F4B3E2" stroke-width="2"/>
<circle cx="204" cy="184" r="12" fill="#19072F" stroke="#F4B3E2" stroke-width="2"/>
<circle cx="343" cy="183" r="12" fill="#19072F" stroke="#F4B3E2" stroke-width="2"/>
<path d="M67 201H170.5V244.5H338.5" stroke="url(#paint11_linear)"/>
<path d="M1 278L87 365" stroke="url(#paint12_linear)"/>
<path d="M48 118L120.5 45.5H342" stroke="url(#paint13_linear)"/>
<path d="M204 231H145L107.5 268.5" stroke="url(#paint14_linear)" stroke-width="2"/>
<circle cx="108" cy="269" r="8" fill="#19072F" stroke="#F4B3E2" stroke-width="2"/>
<defs>
<linearGradient id="paint0_linear" x1="58.5" y1="152.5" x2="299" y2="196" gradientUnits="userSpaceOnUse">
<stop stop-color="#38195E"/>
<stop offset="1" stop-color="#38195E" stop-opacity="0"/>
</linearGradient>
<linearGradient id="paint1_linear" x1="61.0725" y1="102.475" x2="298.181" y2="60.9818" gradientUnits="userSpaceOnUse">
<stop stop-color="#38195E"/>
<stop offset="1" stop-color="#38195E" stop-opacity="0"/>
</linearGradient>
<linearGradient id="paint2_linear" x1="200" y1="112" x2="123.5" y2="19.5" gradientUnits="userSpaceOnUse">
<stop stop-color="#F4B3E2"/>
<stop offset="1" stop-color="#F4B3E2" stop-opacity="0"/>
</linearGradient>
<linearGradient id="paint3_linear" x1="261.5" y1="269" x2="204" y2="192.5" gradientUnits="userSpaceOnUse">
<stop stop-color="#F4B3E2"/>
<stop offset="1" stop-color="#F4B3E2" stop-opacity="0"/>
</linearGradient>
<linearGradient id="paint4_linear" x1="58.5" y1="214" x2="299" y2="170.5" gradientUnits="userSpaceOnUse">
<stop stop-color="#38195E"/>
<stop offset="1" stop-color="#38195E" stop-opacity="0"/>
</linearGradient>
<linearGradient id="paint5_linear" x1="333" y1="184" x2="201" y2="184" gradientUnits="userSpaceOnUse">
<stop stop-color="#F4B3E2"/>
<stop offset="1" stop-color="#F4B3E2" stop-opacity="0"/>
</linearGradient>
<linearGradient id="paint6_linear" x1="271" y1="304.5" x2="87" y2="363.5" gradientUnits="userSpaceOnUse">
<stop stop-color="#F4B3E2"/>
<stop offset="1" stop-color="#F4B3E2" stop-opacity="0"/>
</linearGradient>
<linearGradient id="paint7_linear" x1="343.5" y1="13" x2="50" y2="86" gradientUnits="userSpaceOnUse">
<stop stop-color="#F4B3E2"/>
<stop offset="1" stop-color="#F4B3E2" stop-opacity="0"/>
</linearGradient>
<linearGradient id="paint8_linear" x1="343.5" y1="354" x2="50" y2="281" gradientUnits="userSpaceOnUse">
<stop stop-color="#F4B3E2"/>
<stop offset="1" stop-color="#F4B3E2" stop-opacity="0"/>
</linearGradient>
<linearGradient id="paint9_linear" x1="212" y1="183.5" x2="64" y2="183.5" gradientUnits="userSpaceOnUse">
<stop stop-color="#F4B3E2"/>
<stop offset="1" stop-color="#F4B3E2" stop-opacity="0"/>
</linearGradient>
<linearGradient id="paint10_linear" x1="267" y1="119" x2="208" y2="119" gradientUnits="userSpaceOnUse">
<stop stop-color="#F4B3E2"/>
<stop offset="1" stop-color="#F4B3E2" stop-opacity="0"/>
</linearGradient>
<linearGradient id="paint11_linear" x1="57.0402" y1="199.894" x2="289.449" y2="143.389" gradientUnits="userSpaceOnUse">
<stop stop-color="#38195E"/>
<stop offset="1" stop-color="#38195E" stop-opacity="0"/>
</linearGradient>
<linearGradient id="paint12_linear" x1="-0.384616" y1="333.033" x2="75.6766" y2="327.802" gradientUnits="userSpaceOnUse">
<stop stop-color="#38195E"/>
<stop offset="1" stop-color="#38195E" stop-opacity="0"/>
</linearGradient>
<linearGradient id="paint13_linear" x1="46.6154" y1="62.9674" x2="122.677" y2="68.1979" gradientUnits="userSpaceOnUse">
<stop stop-color="#38195E"/>
<stop offset="1" stop-color="#38195E" stop-opacity="0"/>
</linearGradient>
<linearGradient id="paint14_linear" x1="114" y1="260.5" x2="208" y2="231" gradientUnits="userSpaceOnUse">
<stop stop-color="#F4B3E2"/>
<stop offset="1" stop-color="#F4B3E2" stop-opacity="0"/>
</linearGradient>
</defs>
</svg>
