<svg width="0" height="0" class="hidden">
  <symbol fill="none" xmlns="http://www.w3.org/2000/svg" viewBox="0 0 220 220" id="circle1">
    <g filter="url(#filter1_ii)">
      <circle cx="110" cy="110" r="110" fill="#5957AA"></circle>
    </g>
    <g opacity=".5" fill-rule="evenodd" clip-rule="evenodd" fill="#fff">
      <path d="M111.301 41.329c-.658-.606-.998-.617-1.055-.617-.057 0-.396.011-1.054.617-.676.621-1.483 1.694-2.353 3.349-1.737 3.303-3.399 8.296-4.832 14.739C99.154 72.25 97.361 90.135 97.361 110s1.793 37.75 4.646 50.583c1.433 6.443 3.095 11.436 4.832 14.739.87 1.655 1.677 2.728 2.353 3.349.658.606.997.617 1.054.617.057 0 .397-.011 1.055-.617.676-.621 1.483-1.694 2.353-3.349 1.737-3.303 3.399-8.296 4.831-14.739 2.854-12.833 4.647-30.718 4.647-50.583s-1.793-37.75-4.647-50.583c-1.432-6.443-3.094-11.436-4.831-14.739-.87-1.655-1.677-2.728-2.353-3.35zM126.374 110c0-40.058-7.221-72.53-16.128-72.53S94.119 69.941 94.119 110c0 40.057 7.22 72.53 16.127 72.53s16.128-32.473 16.128-72.53z"></path>
      <path d="M170.282 76.575c.196-.872.036-1.17.008-1.218-.028-.048-.207-.337-1.061-.603-.877-.275-2.211-.437-4.08-.363-3.732.149-8.89 1.207-15.19 3.188-12.547 3.947-28.943 11.339-46.157 21.27-17.215 9.933-31.817 20.428-41.511 29.314-4.867 4.461-8.363 8.396-10.357 11.551-1 1.581-1.525 2.816-1.726 3.711-.195.871-.035 1.17-.008 1.218.028.048.207.336 1.062.603.877.274 2.21.437 4.08.363 3.732-.149 8.89-1.207 15.19-3.189 12.547-3.947 28.943-11.338 46.157-21.27 17.214-9.932 31.817-20.427 41.511-29.313 4.867-4.461 8.362-8.397 10.357-11.551.999-1.58 1.524-2.816 1.725-3.71zm-122.889 69.69c4.454 7.709 36.204-2.278 70.916-22.307 34.712-20.028 59.242-42.514 54.789-50.223-4.454-7.709-36.204 2.278-70.917 22.307-34.712 20.028-59.241 42.514-54.788 50.223z"></path>
      <path d="M173.098 146.265c4.453-7.709-20.077-30.195-54.789-50.223-34.712-20.029-66.462-30.016-70.916-22.307-4.453 7.71 20.076 30.195 54.788 50.223 34.713 20.029 66.463 30.016 70.917 22.307zM50.2 75.357c.028-.049.208-.337 1.062-.603.877-.275 2.21-.437 4.08-.363 3.732.149 8.89 1.207 15.19 3.188 12.547 3.947 28.943 11.339 46.157 21.27 17.214 9.933 31.817 20.428 41.511 29.314 4.867 4.461 8.362 8.396 10.357 11.551.999 1.581 1.524 2.816 1.725 3.711.196.872.036 1.17.008 1.218-.028.048-.207.336-1.061.603-.877.274-2.211.437-4.08.363-3.732-.149-8.89-1.207-15.19-3.189-12.547-3.947-28.943-11.338-46.157-21.27-17.215-9.932-31.817-20.427-41.511-29.313-4.867-4.461-8.363-8.397-10.357-11.551-1-1.58-1.525-2.816-1.726-3.71-.195-.873-.035-1.171-.008-1.219z"></path>
      <path d="M63.887 89.688c2.817 0 5.1 2.285 5.1 5.103a5.102 5.102 0 11-10.2 0 5.102 5.102 0 015.1-5.103zm81.062-17.474a5.102 5.102 0 010 10.206 5.102 5.102 0 110-10.206zm-44.98 80.092a5.102 5.102 0 110 10.201 5.101 5.101 0 110-10.201zm9.993-50.983a8.64 8.64 0 11.001 17.279 8.64 8.64 0 01-.001-17.279z"></path>
    </g>
    <defs>
      <filter id="filter1_ii" x="-41" y="-7" width="265" height="228" filterUnits="userSpaceOnUse" color-interpolation-filters="sRGB">
        <feFlood flood-opacity="0" result="BackgroundImageFix"></feFlood>
        <feBlend in="SourceGraphic" in2="BackgroundImageFix" result="shape"></feBlend>
        <feColorMatrix in="SourceAlpha" values="0 0 0 0 0 0 0 0 0 0 0 0 0 0 0 0 0 0 127 0" result="hardAlpha"></feColorMatrix>
        <feOffset dx="-41" dy="-7"></feOffset>
        <feGaussianBlur stdDeviation="25"></feGaussianBlur>
        <feComposite in2="hardAlpha" operator="arithmetic" k2="-1" k3="1"></feComposite>
        <feColorMatrix values="0 0 0 0 1 0 0 0 0 1 0 0 0 0 1 0 0 0 0.5 0"></feColorMatrix>
        <feBlend in2="shape" result="effect1_innerShadow"></feBlend>
        <feColorMatrix in="SourceAlpha" values="0 0 0 0 0 0 0 0 0 0 0 0 0 0 0 0 0 0 127 0" result="hardAlpha"></feColorMatrix>
        <feOffset dx="4" dy="1"></feOffset>
        <feGaussianBlur stdDeviation="5"></feGaussianBlur>
        <feComposite in2="hardAlpha" operator="arithmetic" k2="-1" k3="1"></feComposite>
        <feColorMatrix values="0 0 0 0 0.418889 0 0 0 0 0.868067 0 0 0 0 0.966667 0 0 0 1 0"></feColorMatrix>
        <feBlend in2="effect1_innerShadow" result="effect2_innerShadow"></feBlend>
      </filter>
    </defs>
  </symbol>
  <symbol fill="none" xmlns="http://www.w3.org/2000/svg" viewBox="0 0 166 166" id="circle2">
    <g filter="url(#filter2_ii)">
      <circle r="83" transform="matrix(-1 0 0 1 83 83)" fill="#AA7057"></circle>
    </g>
    <path opacity=".5" d="M106.977 68.996c-.883-7.589-7.482-10.056-15.829-10.627l-.167-10.59-6.416.109.184 10.308c-1.693.04-3.428.09-5.153.184l-.195-10.352-6.416.108.199 10.535c-1.412.056-2.781.1-4.108.134l-.011-.043-8.885.17.137 6.87s4.743-.167 4.669-.101c2.61-.055 3.476 1.462 3.735 2.774l.192 12.055c.184-.003.41-.017.702.043a3.7 3.7 0 01-.69 0l.284 16.865c-.105.81-.58 2.134-2.37 2.154.067.074-4.668.1-4.668.1l-1.154 7.72 8.39-.13c1.564-.005 3.073-.041 4.594-.034l.19 10.675 6.416-.108-.167-10.589c1.747-.008 3.494-.016 5.144-.044l.199 10.535 6.415-.108-.19-10.675c10.826-.829 18.35-3.674 19.074-13.857.617-8.175-3.294-11.777-9.465-13.162 3.753-1.972 6.014-5.386 5.36-10.919zm-8.608 23.022c.156 7.968-13.554 7.314-17.91 7.377l-.249-14.158c4.357-.062 18.04-1.565 18.159 6.781zm-3.324-19.963c.112 7.29-11.3 6.619-14.923 6.669l-.216-12.832c3.623-.05 15.001-1.395 15.14 6.163z" fill="#fff"></path>
    <defs>
      <filter id="filter2_ii" x="-41" y="-7" width="207" height="174" filterUnits="userSpaceOnUse" color-interpolation-filters="sRGB">
        <feFlood flood-opacity="0" result="BackgroundImageFix"></feFlood>
        <feBlend in="SourceGraphic" in2="BackgroundImageFix" result="shape"></feBlend>
        <feColorMatrix in="SourceAlpha" values="0 0 0 0 0 0 0 0 0 0 0 0 0 0 0 0 0 0 127 0" result="hardAlpha"></feColorMatrix>
        <feOffset dx="-41" dy="-7"></feOffset>
        <feGaussianBlur stdDeviation="25"></feGaussianBlur>
        <feComposite in2="hardAlpha" operator="arithmetic" k2="-1" k3="1"></feComposite>
        <feColorMatrix values="0 0 0 0 1 0 0 0 0 1 0 0 0 0 1 0 0 0 0.5 0"></feColorMatrix>
        <feBlend in2="shape" result="effect1_innerShadow"></feBlend>
        <feColorMatrix in="SourceAlpha" values="0 0 0 0 0 0 0 0 0 0 0 0 0 0 0 0 0 0 127 0" result="hardAlpha"></feColorMatrix>
        <feOffset dx="-7" dy="1"></feOffset>
        <feGaussianBlur stdDeviation="5"></feGaussianBlur>
        <feComposite in2="hardAlpha" operator="arithmetic" k2="-1" k3="1"></feComposite>
        <feColorMatrix values="0 0 0 0 0.966667 0 0 0 0 0.747556 0 0 0 0 0.418889 0 0 0 1 0"></feColorMatrix>
        <feBlend in2="effect1_innerShadow" result="effect2_innerShadow"></feBlend>
      </filter>
    </defs>
  </symbol>
  <symbol fill="none" xmlns="http://www.w3.org/2000/svg" viewBox="0 0 160 160" id="circle3">
    <g filter="url(#filter3_ii)">
      <circle cx="80" cy="80" r="80" fill="#5778AA"></circle>
    </g>
    <g opacity=".5" fill="#fff">
      <path d="M79.493 46.152L58.411 81.137l21.082-9.582V46.152z"></path>
      <path d="M79.493 71.555L58.41 81.137l21.082 12.465V71.555zm21.086 9.582L79.493 46.152v25.403l21.086 9.582z"></path>
      <path d="M79.493 93.602l21.086-12.465-21.086-9.582v22.047zM58.41 85.137l21.083 29.711V97.594L58.41 85.137zm21.083 12.457v17.254l21.097-29.711-21.097 12.457z"></path>
    </g>
    <defs>
      <filter id="filter3_ii" x="-41" y="-7" width="205" height="168" filterUnits="userSpaceOnUse" color-interpolation-filters="sRGB">
        <feFlood flood-opacity="0" result="BackgroundImageFix"></feFlood>
        <feBlend in="SourceGraphic" in2="BackgroundImageFix" result="shape"></feBlend>
        <feColorMatrix in="SourceAlpha" values="0 0 0 0 0 0 0 0 0 0 0 0 0 0 0 0 0 0 127 0" result="hardAlpha"></feColorMatrix>
        <feOffset dx="-41" dy="-7"></feOffset>
        <feGaussianBlur stdDeviation="25"></feGaussianBlur>
        <feComposite in2="hardAlpha" operator="arithmetic" k2="-1" k3="1"></feComposite>
        <feColorMatrix values="0 0 0 0 1 0 0 0 0 1 0 0 0 0 1 0 0 0 0.5 0"></feColorMatrix>
        <feBlend in2="shape" result="effect1_innerShadow"></feBlend>
        <feColorMatrix in="SourceAlpha" values="0 0 0 0 0 0 0 0 0 0 0 0 0 0 0 0 0 0 127 0" result="hardAlpha"></feColorMatrix>
        <feOffset dx="4" dy="1"></feOffset>
        <feGaussianBlur stdDeviation="5"></feGaussianBlur>
        <feComposite in2="hardAlpha" operator="arithmetic" k2="-1" k3="1"></feComposite>
        <feColorMatrix values="0 0 0 0 0.418889 0 0 0 0 0.868067 0 0 0 0 0.966667 0 0 0 1 0"></feColorMatrix>
        <feBlend in2="effect1_innerShadow" result="effect2_innerShadow"></feBlend>
      </filter>
    </defs>
  </symbol>
  
  <symbol fill="none" xmlns="http://www.w3.org/2000/svg" viewBox="0 0 134 134" id="circle4">
    <g filter="url(#filter4_ii)">
      <circle r="67" transform="matrix(-1 0 0 1 67 67)" fill="#AA7057"></circle>
    </g>
    <defs>
      <filter id="filter4_ii" x="-41" y="-7" width="175" height="141" filterUnits="userSpaceOnUse" color-interpolation-filters="sRGB">
        <feFlood flood-opacity="0" result="BackgroundImageFix"></feFlood>
        <feBlend in="SourceGraphic" in2="BackgroundImageFix" result="shape"></feBlend>
        <feColorMatrix in="SourceAlpha" values="0 0 0 0 0 0 0 0 0 0 0 0 0 0 0 0 0 0 127 0" result="hardAlpha"></feColorMatrix>
        <feOffset dx="-41" dy="-7"></feOffset>
        <feGaussianBlur stdDeviation="25"></feGaussianBlur>
        <feComposite in2="hardAlpha" operator="arithmetic" k2="-1" k3="1"></feComposite>
        <feColorMatrix values="0 0 0 0 1 0 0 0 0 1 0 0 0 0 1 0 0 0 0.5 0"></feColorMatrix>
        <feBlend in2="shape" result="effect1_innerShadow"></feBlend>
        <feColorMatrix in="SourceAlpha" values="0 0 0 0 0 0 0 0 0 0 0 0 0 0 0 0 0 0 127 0" result="hardAlpha"></feColorMatrix>
        <feOffset dx="-4" dy="-4"></feOffset>
        <feGaussianBlur stdDeviation="5"></feGaussianBlur>
        <feComposite in2="hardAlpha" operator="arithmetic" k2="-1" k3="1"></feComposite>
        <feColorMatrix values="0 0 0 0 0.966667 0 0 0 0 0.747556 0 0 0 0 0.418889 0 0 0 1 0"></feColorMatrix>
        <feBlend in2="effect1_innerShadow" result="effect2_innerShadow"></feBlend>
      </filter>
    </defs>
  </symbol>
  <symbol fill="none" xmlns="http://www.w3.org/2000/svg" viewBox="0 0 72 72" id="circle5">
    <g filter="url(#filter5_ii)">
      <circle r="36" transform="matrix(-1 0 0 1 36 36)" fill="#AA576B"></circle>
    </g>
    <defs>
      <filter id="filter5_ii" x="-41" y="-7" width="113" height="79" filterUnits="userSpaceOnUse" color-interpolation-filters="sRGB">
        <feFlood flood-opacity="0" result="BackgroundImageFix"></feFlood>
        <feBlend in="SourceGraphic" in2="BackgroundImageFix" result="shape"></feBlend>
        <feColorMatrix in="SourceAlpha" values="0 0 0 0 0 0 0 0 0 0 0 0 0 0 0 0 0 0 127 0" result="hardAlpha"></feColorMatrix>
        <feOffset dx="-41" dy="-7"></feOffset>
        <feGaussianBlur stdDeviation="25"></feGaussianBlur>
        <feComposite in2="hardAlpha" operator="arithmetic" k2="-1" k3="1"></feComposite>
        <feColorMatrix values="0 0 0 0 1 0 0 0 0 1 0 0 0 0 1 0 0 0 0.5 0"></feColorMatrix>
        <feBlend in2="shape" result="effect1_innerShadow"></feBlend>
        <feColorMatrix in="SourceAlpha" values="0 0 0 0 0 0 0 0 0 0 0 0 0 0 0 0 0 0 127 0" result="hardAlpha"></feColorMatrix>
        <feOffset dx="-3" dy="-1"></feOffset>
        <feGaussianBlur stdDeviation="5"></feGaussianBlur>
        <feComposite in2="hardAlpha" operator="arithmetic" k2="-1" k3="1"></feComposite>
        <feColorMatrix values="0 0 0 0 0.889978 0 0 0 0 0.418889 0 0 0 0 0.966667 0 0 0 1 0"></feColorMatrix>
        <feBlend in2="effect1_innerShadow" result="effect2_innerShadow"></feBlend>
      </filter>
    </defs>
  </symbol>
  <symbol fill="none" xmlns="http://www.w3.org/2000/svg" viewBox="0 0 110 110" id="circle7">
    <g opacity=".3" filter="url(#filter6_iif)">
      <circle cx="55" cy="55" r="42" fill="#213A5F"></circle>
    </g>
    <defs>
      <filter id="filter6_iif" x="-17.21" y=".474" width="126.737" height="109.053" filterUnits="userSpaceOnUse" color-interpolation-filters="sRGB">
        <feFlood flood-opacity="0" result="BackgroundImageFix"></feFlood>
        <feBlend in="SourceGraphic" in2="BackgroundImageFix" result="shape"></feBlend>
        <feColorMatrix in="SourceAlpha" values="0 0 0 0 0 0 0 0 0 0 0 0 0 0 0 0 0 0 127 0" result="hardAlpha"></feColorMatrix>
        <feOffset dx="-30.21" dy="-5.158"></feOffset>
        <feGaussianBlur stdDeviation="18.421"></feGaussianBlur>
        <feComposite in2="hardAlpha" operator="arithmetic" k2="-1" k3="1"></feComposite>
        <feColorMatrix values="0 0 0 0 1 0 0 0 0 1 0 0 0 0 1 0 0 0 0.5 0"></feColorMatrix>
        <feBlend in2="shape" result="effect1_innerShadow"></feBlend>
        <feColorMatrix in="SourceAlpha" values="0 0 0 0 0 0 0 0 0 0 0 0 0 0 0 0 0 0 127 0" result="hardAlpha"></feColorMatrix>
        <feOffset dx="2.947" dy=".737"></feOffset>
        <feGaussianBlur stdDeviation="3.684"></feGaussianBlur>
        <feComposite in2="hardAlpha" operator="arithmetic" k2="-1" k3="1"></feComposite>
        <feColorMatrix values="0 0 0 0 0.418889 0 0 0 0 0.868067 0 0 0 0 0.966667 0 0 0 1 0"></feColorMatrix>
        <feBlend in2="effect1_innerShadow" result="effect2_innerShadow"></feBlend>
        <feGaussianBlur stdDeviation="6.263" result="effect3_foregroundBlur"></feGaussianBlur>
      </filter>
    </defs>
  </symbol>
  <symbol fill="none" xmlns="http://www.w3.org/2000/svg" viewBox="0 0 148 148" id="circle6">
    <g opacity=".3" filter="url(#filter7_iif)">
      <circle cx="74" cy="74" r="57" fill="#5778AA"></circle>
    </g>
    <defs>
      <filter id="filter7_iif" x="-24" y="0" width="172" height="148" filterUnits="userSpaceOnUse" color-interpolation-filters="sRGB">
        <feFlood flood-opacity="0" result="BackgroundImageFix"></feFlood>
        <feBlend in="SourceGraphic" in2="BackgroundImageFix" result="shape"></feBlend>
        <feColorMatrix in="SourceAlpha" values="0 0 0 0 0 0 0 0 0 0 0 0 0 0 0 0 0 0 127 0" result="hardAlpha"></feColorMatrix>
        <feOffset dx="-41" dy="-7"></feOffset>
        <feGaussianBlur stdDeviation="25"></feGaussianBlur>
        <feComposite in2="hardAlpha" operator="arithmetic" k2="-1" k3="1"></feComposite>
        <feColorMatrix values="0 0 0 0 1 0 0 0 0 1 0 0 0 0 1 0 0 0 0.5 0"></feColorMatrix>
        <feBlend in2="shape" result="effect1_innerShadow"></feBlend>
        <feColorMatrix in="SourceAlpha" values="0 0 0 0 0 0 0 0 0 0 0 0 0 0 0 0 0 0 127 0" result="hardAlpha"></feColorMatrix>
        <feOffset dx="4" dy="1"></feOffset>
        <feGaussianBlur stdDeviation="5"></feGaussianBlur>
        <feComposite in2="hardAlpha" operator="arithmetic" k2="-1" k3="1"></feComposite>
        <feColorMatrix values="0 0 0 0 0.418889 0 0 0 0 0.868067 0 0 0 0 0.966667 0 0 0 1 0"></feColorMatrix>
        <feBlend in2="effect1_innerShadow" result="effect2_innerShadow"></feBlend>
        <feGaussianBlur stdDeviation="8.5" result="effect3_foregroundBlur"></feGaussianBlur>
      </filter>
    </defs>
  </symbol>
  <symbol fill="none" xmlns="http://www.w3.org/2000/svg" viewBox="0 0 1600 610" id="ellipse">
    <mask id="mask0" mask-type="alpha" maskUnits="userSpaceOnUse" x="0" y="0" width="1600" height="610">
    <rect width="1600" height="609" transform="matrix(1 0 0 -1 0 609.021)" fill="url(#paint0_linear)"/>
    </mask>
    <g mask="url(#mask0)">
    <g filter="url(#filter0_i)">
    <path d="M-148.084 781.512C-148.084 608.17 -48.197 441.927 129.603 319.355C307.404 196.783 548.553 127.923 800.001 127.923C1051.45 127.923 1292.6 196.783 1470.4 319.355C1648.2 441.926 1748.09 608.169 1748.09 781.512L800.001 781.512L-148.084 781.512Z" fill="#19072F"/>
    </g>
    </g>
    <defs>
    <filter id="filter0_i" x="-148.084" y="127.923" width="1896.17" height="657.59" filterUnits="userSpaceOnUse" color-interpolation-filters="sRGB">
    <feFlood flood-opacity="0" result="BackgroundImageFix"/>
    <feBlend mode="normal" in="SourceGraphic" in2="BackgroundImageFix" result="shape"/>
    <feColorMatrix in="SourceAlpha" type="matrix" values="0 0 0 0 0 0 0 0 0 0 0 0 0 0 0 0 0 0 127 0" result="hardAlpha"/>
    <feOffset dy="4"/>
    <feGaussianBlur stdDeviation="40"/>
    <feComposite in2="hardAlpha" operator="arithmetic" k2="-1" k3="1"/>
    <feColorMatrix type="matrix" values="0 0 0 0 0.533333 0 0 0 0 0.231373 0 0 0 0 0.901961 0 0 0 1 0"/>
    <feBlend mode="normal" in2="shape" result="effect1_innerShadow"/>
    </filter>
    <linearGradient id="paint0_linear" x1="800" y1="481.098" x2="800" y2="180.118" gradientUnits="userSpaceOnUse">
    <stop stop-color="#C4C4C4"/>
    <stop offset="1" stop-color="#C4C4C4" stop-opacity="0"/>
    </linearGradient>
    </defs>
  </symbol>
  <symbol fill="none" xmlns="http://www.w3.org/2000/svg" viewBox="0 0 396 324" id="wings">
    <g>
    <path d="M95.5 148h50l48-76h69v65.5h78" stroke="url(#paint0_linear)" stroke-width="2"></path>
    <path d="M94 160.5h75.5l27-43.5h193" stroke="url(#paint1_linear)" stroke-width="2"></path>
    <path d="M100 193l81 70v-54.5h105.5v-33h78" stroke="url(#paint2_linear)" stroke-width="2"></path>
    <path d="M387.5 235.5h-168V192H81v-15.5" stroke="url(#paint3_linear)" stroke-width="2"></path>
    <path d="M110 98.5h122.5V55h155" stroke="url(#paint4_linear)" stroke-width="2"></path>
    <path d="M89.5 172.5h143V129h155" stroke="url(#paint5_linear)" stroke-width="2"></path>
    <path d="M1 178l155 145" stroke="url(#paint6_linear)" stroke-width="2"></path>
    <path d="M109.5 93.5l60-92H391" stroke="url(#paint7_linear)" stroke-width="2"></path>
    <path d="M51.5 177.5l123 107H396" stroke="url(#paint8_linear)" stroke-width="2"></path>
    </g>
    <defs>
      <linearGradient id="paint0_linear" x1="107.5" y1="139" x2="348" y2="182.5" gradientUnits="userSpaceOnUse">
        <stop stop-color="#38195E"></stop>
        <stop offset="1" stop-color="#38195E" stop-opacity="0"></stop>
      </linearGradient>
      <linearGradient id="paint1_linear" x1="110.072" y1="88.975" x2="347.181" y2="47.482" gradientUnits="userSpaceOnUse">
        <stop stop-color="#38195E"></stop>
        <stop offset="1" stop-color="#38195E" stop-opacity="0"></stop>
      </linearGradient>
      <linearGradient id="paint2_linear" x1="107.5" y1="200.5" x2="348" y2="157" gradientUnits="userSpaceOnUse">
        <stop stop-color="#38195E"></stop>
        <stop offset="1" stop-color="#38195E" stop-opacity="0"></stop>
      </linearGradient>
      <linearGradient id="paint3_linear" x1="106.04" y1="190.894" x2="338.449" y2="134.389" gradientUnits="userSpaceOnUse">
        <stop stop-color="#38195E"></stop>
        <stop offset="1" stop-color="#38195E" stop-opacity="0"></stop>
      </linearGradient>
      <linearGradient id="paint4_linear" x1="106.04" y1="99.606" x2="338.449" y2="156.111" gradientUnits="userSpaceOnUse">
        <stop stop-color="#38195E"></stop>
        <stop offset="1" stop-color="#38195E" stop-opacity="0"></stop>
      </linearGradient>
      <linearGradient id="paint5_linear" x1="106.04" y1="173.606" x2="338.449" y2="230.111" gradientUnits="userSpaceOnUse">
        <stop stop-color="#38195E"></stop>
        <stop offset="1" stop-color="#38195E" stop-opacity="0"></stop>
      </linearGradient>
      <linearGradient id="paint6_linear" x1="59.939" y1="290.811" x2="143.477" y2="284.539" gradientUnits="userSpaceOnUse">
        <stop stop-color="#38195E"></stop>
        <stop offset="1" stop-color="#38195E" stop-opacity="0"></stop>
      </linearGradient>
      <linearGradient id="paint7_linear" x1="95.615" y1="49.467" x2="260.835" y2="-46.11" gradientUnits="userSpaceOnUse">
        <stop stop-color="#38195E"></stop>
        <stop offset="1" stop-color="#38195E" stop-opacity="0"></stop>
      </linearGradient>
      <linearGradient id="paint8_linear" x1="95.615" y1="271.532" x2="260.835" y2="367.109" gradientUnits="userSpaceOnUse">
        <stop stop-color="#38195E"></stop>
        <stop offset="1" stop-color="#38195E" stop-opacity="0"></stop>
      </linearGradient>
    </defs>
  </symbol>
</svg>