<svg width="800" height="576" viewBox="0 0 800 576" fill="none" xmlns="http://www.w3.org/2000/svg">
<mask id="mask0" mask-type="alpha" maskUnits="userSpaceOnUse" x="0" y="0" width="800" height="576">
<rect width="800" height="576" fill="url(#paint0_linear)"/>
</mask>
<g mask="url(#mask0)">
<g clip-path="url(#clip0)">
<path d="M-86.9535 315.74C-83.481 320.601 307.461 549.263 502.498 662.986" stroke="url(#paint1_radial)" stroke-width="1.08178"/>
<path d="M69.4847 206.767C73.3552 212.186 509.11 467.059 726.503 593.818" stroke="url(#paint2_radial)" stroke-width="1.08178"/>
<path d="M8.56897 268.337C12.2364 273.472 425.126 514.971 631.112 635.078" stroke="url(#paint3_radial)" stroke-width="1.08178"/>
<path d="M154.039 147.887C157.716 153.034 571.606 395.118 778.092 515.517" stroke="url(#paint4_radial)" stroke-width="1.08178"/>
<path d="M246.126 110.969C249.703 115.976 652.387 351.506 853.282 468.645" stroke="url(#paint5_radial)" stroke-opacity="0.8" stroke-width="1.08178"/>
<path d="M329.884 96.9684C333.176 101.577 703.751 318.326 888.627 426.125" stroke="url(#paint6_radial)" stroke-width="1.08178"/>
<path d="M883.897 307.733C880.505 312.482 498.556 535.884 308.006 646.991" stroke="url(#paint7_radial)" stroke-width="1.08178"/>
<path d="M852.078 239.149C848.034 244.81 392.758 511.101 165.626 643.538" stroke="url(#paint8_radial)" stroke-width="1.08178"/>
<path d="M745.23 206.767C741.632 211.804 336.562 448.73 134.477 566.563" stroke="url(#paint9_radial)" stroke-width="1.08178"/>
<path d="M708.527 131.181C704.594 136.687 261.819 395.666 40.9236 524.467" stroke="url(#paint10_radial)" stroke-width="1.08178"/>
<path d="M611.945 106.168C608.34 111.216 202.434 348.63 -0.0682377 466.706" stroke="url(#paint11_radial)" stroke-width="1.08178"/>
<path d="M556.848 84.7109C553.092 89.9688 130.269 337.278 -80.6723 460.275" stroke="url(#paint12_radial)" stroke-width="1.08178"/>
<path d="M676.49 63.8965L676.49 181.903C676.49 185.488 673.974 189.847 670.869 191.639L238.266 441.403" stroke="#8D87BA" stroke-width="2.16357"/>
<path d="M318.812 278.953L563.651 260.823L532.249 402.181L287.41 420.311L318.812 278.953Z" stroke="#8D87BA" stroke-width="2.16357"/>
<path d="M641.433 472.268L450.855 362.238" stroke="#8D87BA" stroke-width="2.16357"/>
<path d="M495.724 355.118L521.029 267.39C521.542 265.613 520.194 262.772 518.327 261.694L416.892 203.131C413.925 201.417 411.327 202.219 410.558 205.085L387.285 291.881" stroke="#8D87BA" stroke-width="2.16357"/>
<path d="M509.762 304.714C509.762 305.285 499.766 340.079 494.768 357.405L487.306 362.392L429.555 395.73L423.843 397.707L418.968 396.423L316.435 337.41L314.763 333.905L315.41 332.179L320.533 327.812L386.333 290.833L410.456 202.126L413.597 201.729L514.474 259.734L518.901 262.661L519.757 265.659C516.425 278.44 509.762 304.143 509.762 304.714Z" fill="#2A1D3A"/>
<path d="M494.283 358.575L495.105 354.904L494.283 354.224L428.312 392.469C425.735 392.384 420.441 392.221 419.887 392.25C419.332 392.28 416.912 390.837 415.771 390.112L319.928 335.291L314.892 332.227L315.941 336.718L417.742 395.946L423.348 397.303L427.833 396.772L494.283 358.575Z" fill="#1A0C2A"/>
<path d="M317.317 337.675C313.695 335.584 313.695 332.193 317.317 330.102L383.551 291.862C385.104 290.965 387.62 290.965 389.172 291.862L492.693 351.629C496.315 353.72 496.315 357.111 492.693 359.202L428.332 396.36C425.745 397.854 421.551 397.854 418.964 396.36L317.317 337.675Z" stroke="#8D87BA" stroke-width="2.16357"/>
<path d="M357.536 349.89C357.019 349.591 357.019 349.107 357.536 348.808L374.448 339.044C374.966 338.745 375.804 338.745 376.322 339.044L408.567 357.661C409.084 357.959 409.084 358.444 408.567 358.743L391.655 368.507C391.137 368.805 390.298 368.805 389.781 368.507L357.536 349.89Z" stroke="#8D87BA" stroke-width="2.16357"/>
<path d="M400.062 298.751L396.71 300.686C395.675 301.284 395.675 302.252 396.71 302.85L436.26 325.684L441.438 328.674L444.027 330.168M482.91 346.583L479.557 348.518C478.522 349.116 476.845 349.116 475.81 348.518L456.972 337.642L451.794 334.653L449.205 333.158" stroke="#8D87BA" stroke-width="2.16357"/>
<path d="M315.545 332.482L417.35 391.259C420.972 393.35 426.844 393.35 430.466 391.259L459.654 374.407L464.122 371.828L466.356 370.538M495.4 353.769L477.527 364.088L473.059 366.668L470.824 367.958" stroke="#8D87BA" stroke-width="2.16357"/>
<path d="M495.498 355.973L519.935 266.709C520.423 264.926 519.077 262.114 517.223 261.044L415.745 202.455C412.777 200.742 410.179 201.543 409.41 204.41L386.137 291.206" stroke="#8D87BA" stroke-width="2.16357"/>
<path d="M491.418 350.563L513.081 271.031C513.728 268.653 511.934 264.907 509.465 263.481L415.313 209.123C413.617 208.144 412.132 208.602 411.693 210.241L389.703 292.345" stroke="#8D87BA" stroke-width="2.16357"/>
<rect width="105.081" height="39.5955" transform="matrix(0.866025 0.5 -0.866025 0.5 383.508 299.31)" fill="#1A0C2A"/>
<rect x="-6.44794e-08" y="1.08178" width="104.101" height="37.8823" transform="matrix(0.866025 0.5 -0.866025 0.5 384.467 299.416)" stroke="#8D87BA" stroke-width="2.16357"/>
<rect x="-6.44794e-08" y="1.08178" width="5.27756" height="4.79892" transform="matrix(0.866025 0.5 -0.866025 0.5 361.413 316.131)" stroke="#8D87BA" stroke-width="2.16357"/>
<rect x="-6.44794e-08" y="1.08178" width="14.4196" height="4.79891" transform="matrix(0.866025 0.5 -0.866025 0.5 369.023 311.736)" stroke="#8D87BA" stroke-width="2.16357"/>
<rect x="-6.44794e-08" y="1.08178" width="10.037" height="4.79891" transform="matrix(0.866025 0.5 -0.866025 0.5 376.105 307.648)" stroke="#8D87BA" stroke-width="2.16357"/>
<rect x="-6.44794e-08" y="1.08178" width="5.27756" height="4.79891" transform="matrix(0.866025 0.5 -0.866025 0.5 383.183 303.56)" stroke="#8D87BA" stroke-width="2.16357"/>
<rect x="-6.44794e-08" y="1.08178" width="5.27756" height="4.79891" transform="matrix(0.866025 0.5 -0.866025 0.5 390.528 307.8)" stroke="#8D87BA" stroke-width="2.16357"/>
<rect x="-6.44794e-08" y="1.08178" width="5.27757" height="4.79891" transform="matrix(0.866025 0.5 -0.866025 0.5 397.87 312.04)" stroke="#8D87BA" stroke-width="2.16357"/>
<rect x="-6.44794e-08" y="1.08178" width="5.27756" height="4.79891" transform="matrix(0.866025 0.5 -0.866025 0.5 388.149 314.602)" stroke="#8D87BA" stroke-width="2.16357"/>
<rect x="-6.44794e-08" y="1.08178" width="5.27756" height="4.79891" transform="matrix(0.866025 0.5 -0.866025 0.5 396.072 319.176)" stroke="#8D87BA" stroke-width="2.16357"/>
<rect x="-6.44794e-08" y="1.08178" width="5.27756" height="4.79891" transform="matrix(0.866025 0.5 -0.866025 0.5 403.995 323.75)" stroke="#8D87BA" stroke-width="2.16357"/>
<rect x="-6.44794e-08" y="1.08178" width="5.27757" height="4.79891" transform="matrix(0.866025 0.5 -0.866025 0.5 411.918 328.324)" stroke="#8D87BA" stroke-width="2.16357"/>
<rect x="-6.44794e-08" y="1.08178" width="5.27757" height="4.79891" transform="matrix(0.866025 0.5 -0.866025 0.5 419.839 332.898)" stroke="#8D87BA" stroke-width="2.16357"/>
<rect x="-6.44794e-08" y="1.08178" width="5.27757" height="4.79891" transform="matrix(0.866025 0.5 -0.866025 0.5 427.761 337.471)" stroke="#8D87BA" stroke-width="2.16357"/>
<rect x="-6.44794e-08" y="1.08178" width="5.27756" height="4.79891" transform="matrix(0.866025 0.5 -0.866025 0.5 435.684 342.046)" stroke="#8D87BA" stroke-width="2.16357"/>
<rect x="-6.44794e-08" y="1.08178" width="5.27756" height="4.79891" transform="matrix(0.866025 0.5 -0.866025 0.5 443.609 346.62)" stroke="#8D87BA" stroke-width="2.16357"/>
<rect x="-6.44794e-08" y="1.08178" width="5.27756" height="4.79891" transform="matrix(0.866025 0.5 -0.866025 0.5 405.218 316.281)" stroke="#8D87BA" stroke-width="2.16357"/>
<rect x="-6.44794e-08" y="1.08178" width="5.27757" height="4.79891" transform="matrix(0.866025 0.5 -0.866025 0.5 412.561 320.521)" stroke="#8D87BA" stroke-width="2.16357"/>
<rect x="-6.44794e-08" y="1.08178" width="5.27756" height="4.79891" transform="matrix(0.866025 0.5 -0.866025 0.5 419.905 324.761)" stroke="#8D87BA" stroke-width="2.16357"/>
<rect x="-6.44794e-08" y="1.08178" width="5.27757" height="4.79891" transform="matrix(0.866025 0.5 -0.866025 0.5 427.249 329.001)" stroke="#8D87BA" stroke-width="2.16357"/>
<rect x="-6.44794e-08" y="1.08178" width="5.27757" height="4.79891" transform="matrix(0.866025 0.5 -0.866025 0.5 434.594 333.241)" stroke="#8D87BA" stroke-width="2.16357"/>
<rect x="-6.44794e-08" y="1.08178" width="5.27756" height="4.79891" transform="matrix(0.866025 0.5 -0.866025 0.5 441.938 337.481)" stroke="#8D87BA" stroke-width="2.16357"/>
<rect x="-6.44794e-08" y="1.08178" width="5.27756" height="4.79891" transform="matrix(0.866025 0.5 -0.866025 0.5 449.282 341.721)" stroke="#8D87BA" stroke-width="2.16357"/>
<rect x="-6.44794e-08" y="1.08178" width="11.6749" height="4.79891" transform="matrix(0.866025 0.5 -0.866025 0.5 456.628 345.962)" stroke="#8D87BA" stroke-width="2.16357"/>
<rect x="-6.44794e-08" y="1.08178" width="5.27756" height="4.79892" transform="matrix(0.866025 0.5 -0.866025 0.5 369.332 320.702)" stroke="#8D87BA" stroke-width="2.16357"/>
<rect x="-6.44794e-08" y="1.08178" width="5.27756" height="4.79892" transform="matrix(0.866025 0.5 -0.866025 0.5 377.246 325.273)" stroke="#8D87BA" stroke-width="2.16357"/>
<rect x="-6.44794e-08" y="1.08178" width="5.27756" height="4.79891" transform="matrix(0.866025 0.5 -0.866025 0.5 384.861 320.878)" stroke="#8D87BA" stroke-width="2.16357"/>
<rect x="-6.44794e-08" y="1.08178" width="5.27757" height="4.79891" transform="matrix(0.866025 0.5 -0.866025 0.5 392.281 325.162)" stroke="#8D87BA" stroke-width="2.16357"/>
<rect x="-6.44794e-08" y="1.08178" width="5.27756" height="4.79891" transform="matrix(0.866025 0.5 -0.866025 0.5 399.702 329.447)" stroke="#8D87BA" stroke-width="2.16357"/>
<rect x="-6.44794e-08" y="1.08178" width="5.27757" height="4.79891" transform="matrix(0.866025 0.5 -0.866025 0.5 407.12 333.731)" stroke="#8D87BA" stroke-width="2.16357"/>
<rect x="-6.44794e-08" y="1.08178" width="5.27757" height="4.79891" transform="matrix(0.866025 0.5 -0.866025 0.5 414.543 338.015)" stroke="#8D87BA" stroke-width="2.16357"/>
<rect x="-6.44794e-08" y="1.08178" width="5.27757" height="4.79891" transform="matrix(0.866025 0.5 -0.866025 0.5 421.963 342.299)" stroke="#8D87BA" stroke-width="2.16357"/>
<rect x="-6.44794e-08" y="1.08178" width="5.27756" height="4.79891" transform="matrix(0.866025 0.5 -0.866025 0.5 429.383 346.584)" stroke="#8D87BA" stroke-width="2.16357"/>
<rect x="-6.44794e-08" y="1.08178" width="18.2141" height="4.79891" transform="matrix(0.866025 0.5 -0.866025 0.5 436.804 350.868)" stroke="#8D87BA" stroke-width="2.16357"/>
<rect x="-6.44794e-08" y="1.08178" width="9.5108" height="4.79891" transform="matrix(0.866025 0.5 -0.866025 0.5 451.42 351.132)" stroke="#8D87BA" stroke-width="2.16357"/>
<rect x="-6.44794e-08" y="1.08178" width="5.27757" height="4.79892" transform="matrix(0.866025 0.5 -0.866025 0.5 417.568 348.553)" stroke="#8D87BA" stroke-width="2.16357"/>
<rect x="-6.44794e-08" y="1.08178" width="5.27756" height="4.79892" transform="matrix(0.866025 0.5 -0.866025 0.5 425.487 353.124)" stroke="#8D87BA" stroke-width="2.16357"/>
<rect x="-6.44794e-08" y="1.08178" width="13.35" height="4.79892" transform="matrix(0.866025 0.5 -0.866025 0.5 433.402 357.695)" stroke="#8D87BA" stroke-width="2.16357"/>
<rect x="-6.44794e-08" y="1.08178" width="33.5534" height="4.79892" transform="matrix(0.866025 0.5 -0.866025 0.5 385.163 329.844)" stroke="#8D87BA" stroke-width="2.16357"/>
<rect x="-3.22397e-08" y="0.540892" width="105.183" height="38.9641" transform="matrix(0.866025 0.5 -0.866025 0.5 384 299.145)" stroke="#8D87BA" stroke-width="1.08178"/>
<path d="M356.191 266.039L357.077 275.116L355.833 277.654L325.58 294.363L321.068 293.949L317.095 294.363L291.402 279.208L289.415 277.238L289.029 273.405L288.834 268.522L320.246 248.738L323.374 248.181L327.09 248.086L356.191 266.039Z" fill="#2A1D3A"/>
<path d="M356.47 269.164V275.951L355.381 278.081L334.121 290.866L325.219 294.866L320.905 295.721L315.61 294.483L289.009 278.427L288.687 271.043L316.692 287.202L320.642 287.933L324.344 287.531L356.47 269.164Z" fill="#1A0C2A"/>
<rect x="1.87371" width="45.1826" height="41.3313" rx="6.10214" transform="matrix(0.866025 -0.5 0.866025 0.5 283.795 270.254)" stroke="#8D87BA" stroke-width="2.16357"/>
<path d="M357.202 267.687L357.202 275.131C357.202 276.474 356.28 277.763 354.637 278.715L348.272 282.406L346.039 283.7M288.533 269.519L288.533 276.809C288.533 278.156 289.46 279.448 291.11 280.401L315.248 294.337C318.689 296.324 324.27 296.32 327.704 294.33L339.342 287.583L341.574 286.288" stroke="#8D87BA" stroke-width="2.16357"/>
<rect x="1.87371" width="16.4459" height="15.6092" transform="matrix(0.866025 -0.5 0.866025 0.5 308.067 269.5)" fill="#1A0C2A" stroke="#8D87BA" stroke-width="2.16357"/>
<path d="M327.324 406.661L328.21 415.737L326.966 418.276L296.713 434.984L292.201 434.571L288.228 434.984L262.535 419.83L260.549 417.86L260.162 414.027L259.968 409.144L291.379 389.359L294.507 388.802L298.224 388.708L327.324 406.661Z" fill="#2A1D3A"/>
<path d="M327.603 409.785V416.572L326.514 418.703L305.254 431.488L296.352 435.488L292.038 436.343L286.743 435.105L260.142 419.049L259.82 411.665L287.825 427.824L291.775 428.555L295.478 428.153L327.603 409.785Z" fill="#1A0C2A"/>
<rect x="1.87371" width="45.1826" height="41.3313" rx="6.10214" transform="matrix(0.866025 -0.5 0.866025 0.5 254.928 410.875)" stroke="#8D87BA" stroke-width="2.16357"/>
<path d="M328.335 408.309L328.335 415.753C328.335 417.096 327.413 418.385 325.771 419.337L310.475 428.204L308.243 429.499M259.666 410.141L259.667 417.431C259.667 418.778 260.594 420.07 262.244 421.023L286.381 434.959C289.822 436.945 295.403 436.942 298.837 434.951L301.545 433.381L303.778 432.087" stroke="#8D87BA" stroke-width="2.16357"/>
<circle r="9.69807" transform="matrix(0.866025 0.5 -0.866025 0.5 294.101 407.848)" fill="#1A0C2A" stroke="#8D87BA" stroke-width="2.16357"/>
<path d="M562.693 399.789L563.579 408.866L562.334 411.404L532.081 428.113L527.57 427.699L523.596 428.113L497.904 412.958L495.917 410.988L495.53 407.155L495.336 402.272L526.747 382.488L529.875 381.931L533.592 381.836L562.693 399.789Z" fill="#2A1D3A"/>
<path d="M562.971 402.913V409.7L561.882 411.831L540.622 424.615L531.72 428.616L527.406 429.471L522.111 428.233L495.51 412.177L495.188 404.793L523.193 420.952L527.143 421.683L530.845 421.281L562.971 402.913Z" fill="#1A0C2A"/>
<rect x="1.87371" width="45.1826" height="41.3313" rx="6.10214" transform="matrix(0.866025 -0.5 0.866025 0.5 490.293 404.003)" stroke="#8D87BA" stroke-width="2.16357"/>
<path d="M563.702 401.437L563.702 408.881C563.702 410.224 562.78 411.513 561.138 412.465L534.204 428.079C530.77 430.07 525.189 430.073 521.748 428.087L511.508 422.175L509.449 420.986M495.034 403.269L495.034 410.559C495.034 411.906 495.961 413.198 497.611 414.151L503.271 417.419L505.331 418.608" stroke="#8D87BA" stroke-width="2.16357"/>
<path d="M516.223 399.276L539.192 395.722L533.038 408.984L516.223 399.276Z" fill="#1A0C2A" stroke="#8D87BA" stroke-width="2.16357"/>
<path d="M590.16 249.592L591.046 258.668L589.802 261.206L559.549 277.915L555.037 277.501L551.064 277.915L525.371 262.76L523.385 260.791L522.998 256.958L522.804 252.074L554.215 232.29L557.343 231.733L561.06 231.639L590.16 249.592Z" fill="#2A1D3A"/>
<path d="M590.438 252.716V259.503L589.35 261.634L568.09 274.418L559.187 278.419L554.873 279.274L549.579 278.036L522.978 261.98L522.655 254.595L550.661 270.754L554.61 271.486L558.313 271.083L590.438 252.716Z" fill="#1A0C2A"/>
<rect x="1.87371" width="45.1826" height="41.3313" rx="6.10214" transform="matrix(0.866025 -0.5 0.866025 0.5 517.761 253.806)" stroke="#8D87BA" stroke-width="2.16357"/>
<path d="M591.17 251.239L591.17 258.683C591.17 260.027 590.248 261.316 588.606 262.268L561.672 277.882C558.238 279.873 552.657 279.876 549.216 277.889L547.213 276.733L545.154 275.544M522.502 253.072L522.502 260.362C522.502 261.709 523.429 263.001 525.079 263.954L538.976 271.977L541.035 273.166" stroke="#8D87BA" stroke-width="2.16357"/>
<circle r="9.69807" transform="matrix(0.866025 0.5 -0.866025 0.5 556.546 251.906)" fill="#1A0C2A" stroke="#8D87BA" stroke-width="2.16357"/>
<path d="M688.094 68.8691L688.094 389.523" stroke="#8D87BA" stroke-width="2.16357"/>
<path d="M731.909 436.775C731.947 442.314 731.921 453.632 731.51 454.591L730.939 455.676L649.168 502.786L569.91 457.104L569.282 437.746L576.02 433.349L577.504 432.036L569.282 428.153V408.51L578.532 403.028L569.738 398.06L569.282 379.159L649.567 332.506L731.11 378.017L731.452 395.89L721.916 401.885L731.452 407.882L731.909 425.583L722.83 431.408L731.909 436.775Z" fill="#2A1D3A"/>
<path d="M649.223 455.796L731.163 408.19L721.478 401.679L649.558 443.656L578.981 403.134L572.376 406.157L569.687 409.344L649.223 455.796Z" fill="#1A0C2A"/>
<path d="M722.068 431.632L731.163 437.031V438.806L649.223 485.937L569.72 439.423V437.957L577.511 432.635L649.223 473.518L722.068 431.632Z" fill="#1A0C2A"/>
<path d="M655.738 437.135L655.738 430.291L677.058 417.982" stroke="#8D87BA" stroke-width="2.16357"/>
<path d="M569.793 379.985L648.748 426.379L649.29 426.697L649.835 426.384L731.655 379.343V395.994L649.294 443.91L569.793 398.021V379.985Z" stroke="#8D87BA" stroke-width="2.16357"/>
<path d="M569.32 379.155L650.21 332.51L732.089 378.518" stroke="#8D87BA" stroke-width="2.16357"/>
<path d="M569.793 409.7L648.747 456.094L649.29 456.413L649.835 456.099L731.655 409.059V425.71L649.293 473.626L569.793 427.736V409.7Z" stroke="#8D87BA" stroke-width="2.16357"/>
<path d="M732.123 408.247L721.75 402.24" stroke="#8D87BA" stroke-width="2.16357"/>
<path d="M569.167 408.598L578.248 403.377" stroke="#8D87BA" stroke-width="2.16357"/>
<path d="M656.305 465.508L656.305 458.664L677.624 446.355" stroke="#8D87BA" stroke-width="2.16357"/>
<path d="M569.793 439.032L648.747 485.425L649.29 485.744L649.835 485.431L731.655 438.39V455.041L649.293 502.957L569.793 457.068V439.032Z" stroke="#8D87BA" stroke-width="2.16357"/>
<path d="M732.281 437.313L722.098 431.417" stroke="#8D87BA" stroke-width="2.16357"/>
<path d="M569.167 437.93L578.248 432.708" stroke="#8D87BA" stroke-width="2.16357"/>
<path d="M656.305 494.84L656.305 487.995L677.624 475.687" stroke="#8D87BA" stroke-width="2.16357"/>
<path d="M253.847 464.171C253.885 469.71 253.858 481.028 253.447 481.987L252.877 483.072L171.106 530.182L91.8473 484.499L91.2192 465.142L97.9573 460.745L99.442 459.431L91.2192 455.548V435.905L100.47 430.423L91.676 425.455L91.2192 406.554L171.505 359.902L253.047 405.413L253.39 423.286L243.854 429.281L253.39 435.277L253.847 452.979L244.768 458.803L253.847 464.171Z" fill="#2A1D3A"/>
<path d="M171.165 483.191L253.104 435.585L243.42 429.075L171.5 471.052L100.923 430.53L94.3184 433.552L91.6292 436.74L171.165 483.191Z" fill="#1A0C2A"/>
<path d="M244.01 459.027L253.104 464.427V466.201L171.165 513.333L91.6616 466.818V465.353L99.4526 460.03L171.165 500.913L244.01 459.027Z" fill="#1A0C2A"/>
<path d="M91.7327 407.381L170.687 453.774L171.229 454.093L171.775 453.779L253.594 406.739V423.39L171.233 471.306L91.7327 425.416V407.381Z" stroke="#8D87BA" stroke-width="2.16357"/>
<path d="M91.2594 406.551L172.15 359.906L254.029 405.913" stroke="#8D87BA" stroke-width="2.16357"/>
<path d="M91.7329 437.096L170.688 483.49L171.23 483.808L171.775 483.495L253.595 436.454V453.105L171.233 501.021L91.7329 455.132V437.096Z" stroke="#8D87BA" stroke-width="2.16357"/>
<path d="M254.065 435.642L243.692 429.636" stroke="#8D87BA" stroke-width="2.16357"/>
<path d="M91.1096 435.994L100.191 430.773" stroke="#8D87BA" stroke-width="2.16357"/>
<path d="M91.7329 466.428L170.688 512.821L171.23 513.14L171.775 512.826L253.595 465.786V482.437L171.233 530.353L91.7329 484.463V466.428Z" stroke="#8D87BA" stroke-width="2.16357"/>
<path d="M254.219 464.709L244.036 458.812" stroke="#8D87BA" stroke-width="2.16357"/>
<path d="M91.1096 465.325L100.191 460.104" stroke="#8D87BA" stroke-width="2.16357"/>
<circle r="22.9448" transform="matrix(0.913545 0.406737 -0.285354 0.958422 450.887 279.038)" fill="#1A0C2A"/>
<circle r="21.6687" transform="matrix(0.913545 0.406737 -0.285354 0.958422 448.78 279.303)" fill="#8D87BA" stroke="#8D87BA" stroke-width="2.16357"/>
<path d="M454.642 281.772C456.196 281.852 457.464 281.064 458.037 278.782C458.825 275.665 456.892 273.233 454.11 271.133L455.555 267.033L453.323 265.624L451.915 269.616C451.327 269.246 450.724 268.881 450.123 268.518L451.54 264.5L449.309 263.092L447.864 267.191C447.377 266.897 446.898 266.608 446.435 266.316L446.439 266.304L443.36 264.36L442.421 267.025C442.421 267.025 444.082 268.031 444.043 268.047C444.946 268.618 445.035 269.391 444.941 269.952L443.295 274.623L440.981 281.185C440.83 281.478 440.483 281.88 439.851 281.482C439.869 281.529 438.227 280.457 438.227 280.457L436.733 283.158L439.638 284.991C440.179 285.333 440.707 285.678 441.227 286.012L439.767 290.16L441.997 291.568L443.443 287.464C444.051 287.865 444.641 288.244 445.22 288.609L443.779 292.692L446.012 294.101L447.472 289.962C451.31 292.088 454.309 292.688 456.025 288.954C457.407 285.947 456.571 283.688 454.642 281.772ZM449.142 271.486C450.401 272.28 454.519 274.33 453.482 277.272C452.488 280.091 448.646 277.264 447.386 276.469L449.142 271.486ZM444.561 284.479L446.499 278.985C448.011 279.939 452.927 282.446 451.788 285.679C450.696 288.78 446.075 285.432 444.561 284.479Z" fill="#1A0C2A"/>
<rect x="1.87371" width="35.202" height="13.882" transform="matrix(0.866025 -0.5 0.866025 0.5 149.787 411.543)" fill="#1A0C2A" stroke="#8D87BA" stroke-width="2.16357"/>
<mask id="mask1" mask-type="alpha" maskUnits="userSpaceOnUse" x="665" y="13" width="39" height="101">
<path d="M698.279 112.498L698.192 112.467L698.101 112.451C697.568 112.36 696.956 112.139 696.283 111.751L668.402 95.6539C667.829 95.3231 667.25 94.712 666.811 93.9519C666.372 93.1918 666.133 92.3843 666.133 91.7227V19.1391C666.133 17.4862 666.646 16.4901 667.263 16L667.353 15.9286L667.426 15.8398C667.815 15.367 668.336 15.0959 668.991 15.0523C669.667 15.0073 670.542 15.205 671.568 15.7969L697.061 30.5155C698.41 31.2944 699.692 32.6744 700.64 34.3154C701.587 35.9565 702.141 37.7569 702.141 39.3147V109.146C702.141 110.786 701.636 111.78 701.025 112.274C700.439 112.746 699.531 112.941 698.279 112.498Z" fill="#2A1D3A" stroke="#8D87BA" stroke-width="2.16357"/>
</mask>
<g mask="url(#mask1)">
<path d="M698.279 112.498L698.192 112.467L698.101 112.451C697.568 112.36 696.956 112.139 696.283 111.751L668.402 95.6539C667.829 95.3231 667.25 94.712 666.811 93.9519C666.372 93.1918 666.133 92.3843 666.133 91.7227V19.1391C666.133 17.4862 666.646 16.4901 667.263 16L667.353 15.9286L667.426 15.8398C667.815 15.367 668.336 15.0959 668.991 15.0523C669.667 15.0073 670.542 15.205 671.568 15.7969L697.061 30.5155C698.41 31.2944 699.692 32.6744 700.64 34.3154C701.587 35.9565 702.141 37.7569 702.141 39.3147V109.146C702.141 110.786 701.636 111.78 701.025 112.274C700.439 112.746 699.531 112.941 698.279 112.498Z" fill="#2A1D3A" stroke="#8D87BA" stroke-width="2.16357"/>
<rect x="702.005" y="22.6583" width="29.1094" height="98.2115" fill="url(#paint13_linear)" fill-opacity="0.75"/>
</g>
<path fill-rule="evenodd" clip-rule="evenodd" d="M670.134 19.6619C669.1 19.0645 668.261 19.5488 668.261 20.7437V90.1303C668.261 91.3252 669.1 92.7782 670.134 93.3756L696.498 108.597C697.533 109.194 698.372 108.71 698.372 107.515L698.372 38.1284C698.372 36.9334 697.533 35.4804 696.498 34.883L690.1 31.189C690.255 31.5934 690.343 32.0087 690.343 32.3969V32.8766C690.343 34.0715 689.504 34.5558 688.47 33.9583L675.888 26.6945C674.854 26.0971 674.015 24.6441 674.015 23.4492V22.9695C674.015 22.5813 674.103 22.2682 674.258 22.0427L670.134 19.6619Z" fill="#8D87BA"/>
<circle r="22.7847" transform="matrix(0.866025 -0.5 2.20305e-08 1 171.46 380.925)" fill="#1A0C2A"/>
<circle r="22.7847" transform="matrix(0.866025 -0.5 2.20305e-08 1 173.273 381.557)" fill="#8D87BA"/>
<path d="M190.071 372.267C190.071 383.216 182.542 396.419 173.274 401.77C164.006 407.121 156.477 402.612 156.477 391.663C156.477 380.715 164.006 367.512 173.274 362.161C182.542 356.81 190.071 361.319 190.071 372.267Z" stroke="#2A1D3A" stroke-width="1.08178"/>
<path d="M178.866 378.613C179.894 377.414 180.537 375.975 180.387 374.283C180.184 371.969 178.372 372.2 176.084 373.289L176.083 369.917L174.31 370.941L174.31 374.224C173.843 374.493 173.368 374.779 172.895 375.063L172.894 371.759L171.123 372.781L171.123 376.152C170.739 376.383 170.362 376.609 169.994 376.822L169.994 376.812L167.549 378.222L167.549 380.414C167.549 380.414 168.858 379.63 168.837 379.67C169.554 379.256 169.789 379.603 169.856 379.981L169.857 383.822L169.857 389.218C169.825 389.498 169.692 389.992 169.19 390.283C169.213 390.293 167.901 391.027 167.901 391.027L167.549 393.681L169.856 392.349C170.285 392.102 170.708 391.866 171.122 391.63L171.124 395.04L172.894 394.018L172.894 390.644C173.381 390.374 173.851 390.107 174.311 389.842L174.31 393.2L176.083 392.177L176.084 388.772C179.064 386.853 181.15 384.78 181.409 381.389C181.618 378.659 180.558 378.107 178.866 378.613ZM172.937 377.451C173.937 376.874 177.081 374.69 177.082 377.108C177.081 379.427 173.938 380.971 172.937 381.549L172.937 377.451ZM172.936 388.137L172.937 383.618C174.138 382.924 177.906 380.349 177.907 383.007C177.907 385.556 174.138 387.442 172.936 388.137Z" fill="#2A1D3A"/>
<path d="M672.715 63.9176L676.512 70.4943L692.511 55.8989" stroke="#2A1D3A" stroke-width="3.24535"/>
<circle r="1.87984" transform="matrix(0.866025 0.5 -0.866025 0.5 171.825 448.166)" fill="#8D87BA"/>
<circle r="1.87984" transform="matrix(0.866025 0.5 -0.866025 0.5 176.53 445.484)" fill="#8D87BA"/>
</g>
</g>
<defs>
<linearGradient id="paint0_linear" x1="644.5" y1="298" x2="-3.90534e-06" y2="298" gradientUnits="userSpaceOnUse">
<stop stop-color="#C4C4C4"/>
<stop offset="1" stop-color="#C4C4C4" stop-opacity="0"/>
</linearGradient>
<radialGradient id="paint1_radial" cx="0" cy="0" r="1" gradientUnits="userSpaceOnUse" gradientTransform="translate(207.772 489.363) rotate(90) scale(173.623 294.726)">
<stop stop-color="#8D87BA"/>
<stop offset="1" stop-color="#8D87BA" stop-opacity="0"/>
</radialGradient>
<radialGradient id="paint2_radial" cx="0" cy="0" r="1" gradientUnits="userSpaceOnUse" gradientTransform="translate(397.994 400.292) rotate(90) scale(193.525 328.509)">
<stop stop-color="#8D87BA"/>
<stop offset="1" stop-color="#8D87BA" stop-opacity="0"/>
</radialGradient>
<radialGradient id="paint3_radial" cx="0" cy="0" r="1" gradientUnits="userSpaceOnUse" gradientTransform="translate(319.841 451.708) rotate(90) scale(183.371 311.272)">
<stop stop-color="#8D87BA"/>
<stop offset="1" stop-color="#8D87BA" stop-opacity="0"/>
</radialGradient>
<radialGradient id="paint4_radial" cx="0" cy="0" r="1" gradientUnits="userSpaceOnUse" gradientTransform="translate(466.066 331.702) rotate(90) scale(183.815 312.026)">
<stop stop-color="#8D87BA"/>
<stop offset="1" stop-color="#8D87BA" stop-opacity="0"/>
</radialGradient>
<radialGradient id="paint5_radial" cx="0" cy="0" r="1" gradientUnits="userSpaceOnUse" gradientTransform="translate(549.704 289.807) rotate(90) scale(178.838 303.578)">
<stop stop-color="#8D87BA"/>
<stop offset="1" stop-color="#8D87BA" stop-opacity="0"/>
</radialGradient>
<radialGradient id="paint6_radial" cx="0" cy="0" r="1" gradientUnits="userSpaceOnUse" gradientTransform="translate(609.256 261.547) rotate(90) scale(164.578 279.371)">
<stop stop-color="#8D87BA"/>
<stop offset="1" stop-color="#8D87BA" stop-opacity="0"/>
</radialGradient>
<radialGradient id="paint7_radial" cx="0" cy="0" r="1" gradientUnits="userSpaceOnUse" gradientTransform="translate(595.952 477.362) rotate(90) scale(169.629 287.946)">
<stop stop-color="#8D87BA"/>
<stop offset="1" stop-color="#8D87BA" stop-opacity="0"/>
</radialGradient>
<radialGradient id="paint8_radial" cx="0" cy="0" r="1" gradientUnits="userSpaceOnUse" gradientTransform="translate(508.852 441.343) rotate(90) scale(202.195 343.226)">
<stop stop-color="#8D87BA"/>
<stop offset="1" stop-color="#8D87BA" stop-opacity="0"/>
</radialGradient>
<radialGradient id="paint9_radial" cx="0" cy="0" r="1" gradientUnits="userSpaceOnUse" gradientTransform="translate(439.853 386.665) rotate(90) scale(179.898 305.377)">
<stop stop-color="#8D87BA"/>
<stop offset="1" stop-color="#8D87BA" stop-opacity="0"/>
</radialGradient>
<radialGradient id="paint10_radial" cx="0" cy="0" r="1" gradientUnits="userSpaceOnUse" gradientTransform="translate(374.725 327.824) rotate(90) scale(196.643 333.802)">
<stop stop-color="#8D87BA"/>
<stop offset="1" stop-color="#8D87BA" stop-opacity="0"/>
</radialGradient>
<radialGradient id="paint11_radial" cx="0" cy="0" r="1" gradientUnits="userSpaceOnUse" gradientTransform="translate(305.938 286.437) rotate(90) scale(180.269 306.007)">
<stop stop-color="#8D87BA"/>
<stop offset="1" stop-color="#8D87BA" stop-opacity="0"/>
</radialGradient>
<radialGradient id="paint12_radial" cx="0" cy="0" r="1" gradientUnits="userSpaceOnUse" gradientTransform="translate(238.088 272.493) rotate(90) scale(187.782 318.76)">
<stop stop-color="#8D87BA"/>
<stop offset="1" stop-color="#8D87BA" stop-opacity="0"/>
</radialGradient>
<linearGradient id="paint13_linear" x1="718.524" y1="73.2867" x2="690.825" y2="74.3204" gradientUnits="userSpaceOnUse">
<stop offset="0.41246" stop-color="#2A1D3A"/>
<stop offset="0.68464" stop-color="#2A1D3A" stop-opacity="0"/>
</linearGradient>
<clipPath id="clip0">
<rect width="807" height="582" fill="white" transform="translate(-7 -13)"/>
</clipPath>
</defs>
</svg>
