<svg width="800" height="577" viewBox="0 0 800 577" fill="none" xmlns="http://www.w3.org/2000/svg">
<mask id="mask0_3088_7186" style="mask-type:alpha" maskUnits="userSpaceOnUse" x="0" y="0" width="800" height="577">
<rect y="0.5" width="800" height="576" fill="url(#paint0_linear_3088_7186)"/>
</mask>
<g mask="url(#mask0_3088_7186)">
<g clip-path="url(#clip0_3088_7186)">
<g opacity="0.4">
<path d="M-79.6009 292.057C-76.2307 296.775 303.197 518.702 492.489 629.076" stroke="url(#paint1_radial_3088_7186)" stroke-width="2.09984"/>
<path d="M72.2291 186.294C75.9856 191.554 498.906 438.919 709.896 561.945" stroke="url(#paint2_radial_3088_7186)" stroke-width="2.09984"/>
<path d="M13.1078 246.051C16.6672 251.034 417.396 485.42 617.315 601.99" stroke="url(#paint3_radial_3088_7186)" stroke-width="2.09984"/>
<path d="M154.295 129.148C157.863 134.144 559.563 369.098 759.967 485.951" stroke="url(#paint4_radial_3088_7186)" stroke-width="2.09984"/>
<path d="M243.668 93.3174C247.139 98.1774 637.963 326.77 832.941 440.459" stroke="url(#paint5_radial_3088_7186)" stroke-width="2.09984"/>
<path d="M324.96 79.7295C328.155 84.202 687.815 294.567 867.246 399.191" stroke="url(#paint6_radial_3088_7186)" stroke-width="2.09984"/>
<path d="M862.653 284.286C859.361 288.896 488.662 505.718 303.724 613.552" stroke="url(#paint7_radial_3088_7186)" stroke-width="2.09984"/>
<path d="M831.774 217.722C827.849 223.217 385.983 481.664 165.541 610.201" stroke="url(#paint8_radial_3088_7186)" stroke-width="2.09984"/>
<path d="M728.073 186.294C724.581 191.183 331.442 421.131 135.309 535.493" stroke="url(#paint9_radial_3088_7186)" stroke-width="2.09984"/>
<path d="M692.447 112.935C688.63 118.278 258.897 369.63 44.5069 494.637" stroke="url(#paint10_radial_3088_7186)" stroke-width="2.09984"/>
<path d="M598.713 88.6587C595.214 93.5576 201.264 323.979 4.72617 438.578" stroke="url(#paint11_radial_3088_7186)" stroke-width="2.09984"/>
<path d="M545.239 67.833C541.594 72.936 131.225 312.961 -73.5035 432.335" stroke="url(#paint12_radial_3088_7186)" stroke-width="2.09984"/>
</g>
<path d="M661.358 47.6319L661.358 162.163C661.358 165.642 658.916 169.872 655.903 171.612L236.041 414.019" stroke="#704AB7" stroke-width="3.14977"/>
<path d="M314.79 256.686L551.1 239.188L520.792 375.621L284.482 393.119L314.79 256.686Z" stroke="#704AB7" stroke-width="3.14977"/>
<path d="M627.336 443.975L442.372 337.186" stroke="#704AB7" stroke-width="3.14977"/>
<path d="M485.24 330.834L510.457 245.134C510.964 243.411 509.655 240.642 507.837 239.593L409.408 182.765C406.528 181.102 404.006 181.88 403.26 184.662L380.672 268.902" stroke="#704AB7" stroke-width="3.14977"/>
<path d="M499.542 281.356C499.542 281.911 489.84 315.68 484.989 332.496L477.748 337.336L421.697 369.692L416.154 371.611L411.422 370.364L311.909 313.089L310.286 309.688L310.914 308.013L315.886 303.774L379.748 267.884L403.16 181.79L406.209 181.405L504.115 237.701L508.411 240.542L509.243 243.452C506.009 255.856 499.542 280.802 499.542 281.356Z" fill="url(#paint13_linear_3088_7186)"/>
<g style="mix-blend-mode:multiply" opacity="0.67">
<path d="M484.521 333.631L485.319 330.069L484.521 329.409L420.493 366.527C417.991 366.445 412.854 366.286 412.316 366.315C411.778 366.343 409.429 364.943 408.321 364.239L315.301 311.033L310.413 308.06L311.432 312.418L410.234 369.902L415.675 371.219L420.028 370.703L484.521 333.631Z" fill="url(#paint14_linear_3088_7186)"/>
</g>
<path d="M313.22 313.084C309.956 311.199 309.956 308.144 313.22 306.259L377.504 269.145C378.76 268.42 380.795 268.42 382.05 269.145L482.522 327.152C485.786 329.037 485.786 332.092 482.522 333.977L420.057 370.041C417.797 371.346 414.133 371.346 411.873 370.041L313.22 313.084Z" stroke="#704AB7" stroke-width="3.14977"/>
<path d="M355.16 323.973C354.909 323.828 354.909 323.593 355.16 323.448L368.352 315.832C368.603 315.687 369.01 315.687 369.261 315.832L396.881 331.778C397.132 331.923 397.132 332.158 396.881 332.303L383.689 339.919C383.438 340.064 383.031 340.064 382.78 339.919L355.16 323.973Z" stroke="#704AB7" stroke-width="3.14977"/>
<path d="M393.075 275.569L389.821 277.447C388.817 278.027 388.817 278.967 389.821 279.547L466.592 323.87C467.596 324.45 469.224 324.45 470.229 323.87L473.482 321.992" stroke="#704AB7" stroke-width="3.14977"/>
<path d="M311.776 307.885L408.982 364.007C412.497 366.036 418.197 366.036 421.712 364.007L449.675 347.862L453.966 345.384L456.112 344.146M484.004 328.042L466.839 337.952L462.548 340.43L460.403 341.668" stroke="#704AB7" stroke-width="3.14977"/>
<path d="M484.915 331.889L509.416 244.471C509.889 242.74 508.583 240.011 506.784 238.972L408.294 182.109C405.414 180.446 402.892 181.224 402.146 184.006L379.558 268.246" stroke="#704AB7" stroke-width="3.14977"/>
<path d="M482.144 325.854L502.765 249.275C503.381 246.985 501.673 243.378 499.323 242.005L409.7 189.664C408.086 188.721 406.672 189.163 406.255 190.741L384.457 270.135" stroke="#704AB7" stroke-width="3.14977"/>
<rect width="101.986" height="38.4293" transform="matrix(0.866025 0.5 -0.866025 0.5 376.309 276.929)" fill="#1A0C2A"/>
<rect x="-9.38703e-08" y="1.57488" width="99.9849" height="35.7166" transform="matrix(0.866025 0.5 -0.866025 0.5 377.7 277.295)" stroke="#704AB7" stroke-width="3.14977"/>
<rect width="6.65964" height="6.23127" transform="matrix(0.866025 0.5 -0.866025 0.5 357.911 293.201)" fill="#704AB7"/>
<rect width="14.8416" height="6.23126" transform="matrix(0.866025 0.5 -0.866025 0.5 364.723 289.268)" fill="#704AB7"/>
<rect width="10.9193" height="6.23126" transform="matrix(0.866025 0.5 -0.866025 0.5 371.06 285.609)" fill="#704AB7"/>
<rect width="6.65964" height="6.23126" transform="matrix(0.866025 0.5 -0.866025 0.5 377.397 281.951)" fill="#704AB7"/>
<rect width="6.65964" height="6.23126" transform="matrix(0.866025 0.5 -0.866025 0.5 383.97 285.745)" fill="#704AB7"/>
<rect width="6.65964" height="6.23126" transform="matrix(0.866025 0.5 -0.866025 0.5 390.543 289.54)" fill="#704AB7"/>
<rect width="6.65965" height="6.23126" transform="matrix(0.866025 0.5 -0.866025 0.5 381.839 291.833)" fill="#704AB7"/>
<rect width="6.65965" height="6.23126" transform="matrix(0.866025 0.5 -0.866025 0.5 388.93 295.926)" fill="#704AB7"/>
<rect width="6.65965" height="6.23126" transform="matrix(0.866025 0.5 -0.866025 0.5 396.02 300.02)" fill="#704AB7"/>
<rect width="6.65964" height="6.23126" transform="matrix(0.866025 0.5 -0.866025 0.5 403.11 304.113)" fill="#704AB7"/>
<rect width="6.65964" height="6.23126" transform="matrix(0.866025 0.5 -0.866025 0.5 410.201 308.207)" fill="#704AB7"/>
<rect width="6.65964" height="6.23126" transform="matrix(0.866025 0.5 -0.866025 0.5 417.291 312.3)" fill="#704AB7"/>
<rect width="6.65964" height="6.23126" transform="matrix(0.866025 0.5 -0.866025 0.5 424.382 316.394)" fill="#704AB7"/>
<rect width="6.65964" height="6.23126" transform="matrix(0.866025 0.5 -0.866025 0.5 431.472 320.488)" fill="#704AB7"/>
<rect width="6.65964" height="6.23126" transform="matrix(0.866025 0.5 -0.866025 0.5 397.116 293.335)" fill="#704AB7"/>
<rect width="6.65964" height="6.23126" transform="matrix(0.866025 0.5 -0.866025 0.5 403.688 297.13)" fill="#704AB7"/>
<rect width="6.65964" height="6.23126" transform="matrix(0.866025 0.5 -0.866025 0.5 410.261 300.924)" fill="#704AB7"/>
<rect width="6.65965" height="6.23126" transform="matrix(0.866025 0.5 -0.866025 0.5 416.834 304.719)" fill="#704AB7"/>
<rect width="6.65965" height="6.23126" transform="matrix(0.866025 0.5 -0.866025 0.5 423.407 308.514)" fill="#704AB7"/>
<rect width="6.65964" height="6.23126" transform="matrix(0.866025 0.5 -0.866025 0.5 429.98 312.309)" fill="#704AB7"/>
<rect width="6.65964" height="6.23126" transform="matrix(0.866025 0.5 -0.866025 0.5 436.553 316.104)" fill="#704AB7"/>
<rect width="12.3851" height="6.23126" transform="matrix(0.866025 0.5 -0.866025 0.5 443.126 319.899)" fill="#704AB7"/>
<rect width="6.65965" height="6.23127" transform="matrix(0.866025 0.5 -0.866025 0.5 364.996 297.292)" fill="#704AB7"/>
<rect width="6.65965" height="6.23127" transform="matrix(0.866025 0.5 -0.866025 0.5 372.082 301.383)" fill="#704AB7"/>
<rect width="6.65965" height="6.23126" transform="matrix(0.866025 0.5 -0.866025 0.5 378.895 297.45)" fill="#704AB7"/>
<rect width="6.65965" height="6.23126" transform="matrix(0.866025 0.5 -0.866025 0.5 385.536 301.284)" fill="#704AB7"/>
<rect width="6.65964" height="6.23126" transform="matrix(0.866025 0.5 -0.866025 0.5 392.177 305.118)" fill="#704AB7"/>
<rect width="6.65964" height="6.23126" transform="matrix(0.866025 0.5 -0.866025 0.5 398.818 308.953)" fill="#704AB7"/>
<rect width="6.65964" height="6.23126" transform="matrix(0.866025 0.5 -0.866025 0.5 405.46 312.787)" fill="#704AB7"/>
<rect width="6.65965" height="6.23126" transform="matrix(0.866025 0.5 -0.866025 0.5 412.101 316.621)" fill="#704AB7"/>
<rect width="6.65964" height="6.23126" transform="matrix(0.866025 0.5 -0.866025 0.5 418.742 320.456)" fill="#704AB7"/>
<rect width="18.2375" height="6.23126" transform="matrix(0.866025 0.5 -0.866025 0.5 425.383 324.29)" fill="#704AB7"/>
<rect width="10.4483" height="6.23126" transform="matrix(0.866025 0.5 -0.866025 0.5 438.466 324.526)" fill="#704AB7"/>
<rect width="6.65965" height="6.23127" transform="matrix(0.866025 0.5 -0.866025 0.5 408.169 322.218)" fill="#704AB7"/>
<rect width="6.65965" height="6.23127" transform="matrix(0.866025 0.5 -0.866025 0.5 415.255 326.309)" fill="#704AB7"/>
<rect width="13.8843" height="6.23127" transform="matrix(0.866025 0.5 -0.866025 0.5 422.341 330.4)" fill="#704AB7"/>
<rect width="31.9659" height="6.23127" transform="matrix(0.866025 0.5 -0.866025 0.5 379.168 305.474)" fill="#704AB7"/>
<path d="M350.494 243.821L351.354 252.63L350.147 255.093L320.785 271.31L316.406 270.908L312.55 271.31L287.614 256.601L285.685 254.69L285.31 250.97L285.122 246.23L315.608 227.029L318.644 226.488L322.251 226.396L350.494 243.821Z" fill="url(#paint15_linear_3088_7186)"/>
<path d="M350.764 246.853V253.44L349.708 255.508L329.074 267.916L320.434 271.799L316.247 272.629L311.108 271.427L285.291 255.844L284.978 248.677L312.158 264.36L315.992 265.07L319.585 264.68L350.764 246.853Z" fill="#1A0C2A"/>
<rect x="2.72778" width="42.8019" height="39.064" rx="5.39745" transform="matrix(0.866025 -0.5 0.866025 0.5 280.351 248.365)" stroke="#704AB7" stroke-width="3.14977"/>
<path d="M350.835 245.526L350.835 252.572C350.835 253.876 349.94 255.127 348.347 256.051L322.873 270.819C319.54 272.751 314.124 272.754 310.784 270.826L287.973 257.656C286.371 256.731 285.472 255.477 285.471 254.17L285.471 247.27" stroke="#704AB7" stroke-width="3.14977"/>
<rect x="2.72778" width="14.9116" height="14.0995" transform="matrix(0.866025 -0.5 0.866025 0.5 303.909 247.634)" stroke="#704AB7" stroke-width="3.14977"/>
<path d="M322.478 380.301L323.337 389.11L322.13 391.573L292.768 407.79L288.389 407.388L284.533 407.79L259.597 393.081L257.669 391.17L257.293 387.45L257.105 382.71L287.591 363.509L290.627 362.968L294.234 362.876L322.478 380.301Z" fill="url(#paint16_linear_3088_7186)"/>
<path d="M322.748 383.333V389.92L321.691 391.988L301.057 404.396L292.417 408.279L288.23 409.109L283.091 407.907L257.274 392.324L256.961 385.157L284.142 400.84L287.975 401.55L291.568 401.16L322.748 383.333Z" fill="#1A0C2A"/>
<rect x="2.72778" width="42.8019" height="39.064" rx="5.39745" transform="matrix(0.866025 -0.5 0.866025 0.5 252.334 384.845)" stroke="#704AB7" stroke-width="3.14977"/>
<path d="M322.824 382.005L322.824 389.053C322.824 390.357 321.929 391.608 320.335 392.532L294.856 407.303C291.523 409.235 286.107 409.238 282.767 407.31L259.95 394.137C258.349 393.212 257.449 391.958 257.449 390.65L257.449 383.749" stroke="#704AB7" stroke-width="3.14977"/>
<circle r="8.88746" transform="matrix(0.866025 0.5 -0.866025 0.5 290.232 381.453)" stroke="#704AB7" stroke-width="3.14977"/>
<path d="M550.911 373.631L551.771 382.44L550.564 384.903L521.202 401.12L516.823 400.718L512.967 401.12L488.031 386.411L486.103 384.5L485.727 380.78L485.539 376.04L516.025 356.839L519.061 356.298L522.668 356.207L550.911 373.631Z" fill="url(#paint17_linear_3088_7186)"/>
<path d="M551.181 376.663V383.25L550.125 385.318L529.491 397.726L520.851 401.609L516.664 402.439L511.525 401.237L485.708 385.654L485.395 378.487L512.575 394.17L516.409 394.88L520.002 394.49L551.181 376.663Z" fill="#1A0C2A"/>
<rect x="2.72778" width="42.8019" height="39.064" rx="5.39745" transform="matrix(0.866025 -0.5 0.866025 0.5 480.768 378.175)" stroke="#704AB7" stroke-width="3.14977"/>
<path d="M551.324 375.324L551.324 382.39C551.324 383.694 550.429 384.945 548.835 385.869L523.287 400.68C519.954 402.612 514.538 402.615 511.198 400.687L488.318 387.477C486.717 386.553 485.817 385.299 485.817 383.991L485.817 377.072" stroke="#704AB7" stroke-width="3.14977"/>
<path d="M507.051 373.325L527.192 370.209L521.795 381.838L507.051 373.325Z" stroke="#704AB7" stroke-width="3.14977"/>
<path d="M577.572 227.857L578.432 236.666L577.224 239.13L547.862 255.347L543.483 254.945L539.627 255.347L514.691 240.638L512.763 238.726L512.388 235.006L512.199 230.267L542.685 211.065L545.721 210.525L549.328 210.433L577.572 227.857Z" fill="url(#paint18_linear_3088_7186)"/>
<path d="M577.842 230.89V237.477L576.785 239.545L556.151 251.953L547.511 255.835L543.324 256.665L538.185 255.464L512.368 239.881L512.055 232.714L539.236 248.397L543.069 249.107L546.663 248.716L577.842 230.89Z" fill="#1A0C2A"/>
<rect x="2.72778" width="42.8019" height="39.064" rx="5.39745" transform="matrix(0.866025 -0.5 0.866025 0.5 507.428 232.402)" stroke="#704AB7" stroke-width="3.14977"/>
<path d="M577.923 229.561L577.923 236.61C577.923 237.914 577.028 239.165 575.434 240.089L549.95 254.863C546.617 256.795 541.201 256.798 537.861 254.87L515.04 241.694C513.438 240.77 512.539 239.516 512.539 238.208L512.539 231.306" stroke="#704AB7" stroke-width="3.14977"/>
<circle r="8.88746" transform="matrix(0.866025 0.5 -0.866025 0.5 544.948 230.104)" stroke="#704AB7" stroke-width="3.14977"/>
<path d="M672.619 52.458L672.619 363.668" stroke="#704AB7" stroke-width="3.14977"/>
<path d="M715.145 409.528C715.182 414.904 715.156 425.888 714.757 426.819L714.203 427.872L634.841 473.594L557.917 429.258L557.308 410.47L563.847 406.203L565.288 404.928L557.308 401.16V382.095L566.286 376.774L557.751 371.953L557.308 353.609L635.228 308.33L714.369 352.5L714.702 369.847L705.447 375.666L714.702 381.485L715.145 398.665L706.333 404.318L715.145 409.528Z" fill="url(#paint19_linear_3088_7186)"/>
<rect x="2.72778" width="33.1153" height="12.4232" transform="matrix(0.866025 -0.5 0.866025 0.5 613.527 359.954)" fill="#1A0C2A" stroke="#704AB7" stroke-width="3.14977"/>
<path d="M634.897 427.988L714.424 381.785L705.024 375.466L635.222 416.206L566.724 376.878L560.314 379.811L557.704 382.905L634.897 427.988Z" fill="#1A0C2A"/>
<path d="M705.597 404.536L714.424 409.777V411.499L634.897 457.242L557.736 412.098V410.675L565.297 405.509L634.897 445.189L705.597 404.536Z" fill="#1A0C2A"/>
<path d="M659.984 393.218L639.292 405.164" stroke="#704AB7" stroke-width="3.14977"/>
<path d="M558.33 355.327L634.169 399.89L634.958 400.354L635.751 399.897L714.375 354.695V369.646L634.963 415.846L558.33 371.611V355.327Z" stroke="#704AB7" stroke-width="3.14977"/>
<path d="M557.546 354.044L635.873 308.877L715.158 353.427" stroke="#704AB7" stroke-width="3.14977"/>
<path d="M558.33 384.168L634.169 428.73L634.958 429.194L635.751 428.738L714.375 383.535V398.486L634.963 444.686L558.33 400.452V384.168Z" stroke="#704AB7" stroke-width="3.14977"/>
<path d="M715.158 382.189L704.444 375.985" stroke="#704AB7" stroke-width="3.14977"/>
<path d="M557.543 382.785L567.139 377.267" stroke="#704AB7" stroke-width="3.14977"/>
<path d="M662.462 420.515L641.77 432.462" stroke="#704AB7" stroke-width="3.14977"/>
<path d="M558.33 412.636L634.169 457.198L634.958 457.662L635.751 457.205L714.375 412.003V426.954L634.963 473.154L558.33 428.919V412.636Z" stroke="#704AB7" stroke-width="3.14977"/>
<path d="M715.158 410.633L705.084 404.8" stroke="#704AB7" stroke-width="3.14977"/>
<path d="M557.54 411.251L566.767 405.947" stroke="#704AB7" stroke-width="3.14977"/>
<path d="M662.462 448.919L641.77 460.865" stroke="#704AB7" stroke-width="3.14977"/>
<circle r="22.269" transform="matrix(0.913545 0.406737 -0.285354 0.958422 442.398 256.436)" fill="#1A0C2A"/>
<circle r="20.5055" transform="matrix(0.913545 0.406737 -0.285354 0.958422 440.356 256.693)" fill="#704AB7" stroke="#704AB7" stroke-width="3.14977"/>
<mask id="mask1_3088_7186" style="mask-type:alpha" maskUnits="userSpaceOnUse" x="650" y="-1" width="38" height="98">
<path d="M682.679 94.3061L682.552 94.2613L682.419 94.2385C681.973 94.1621 681.438 93.9734 680.829 93.6219L653.769 77.9988C653.311 77.7346 652.809 77.2181 652.417 76.539C652.025 75.86 651.829 75.1663 651.829 74.638V4.19224C651.829 2.68715 652.294 1.90032 652.727 1.55686L652.858 1.45283L652.965 1.32359C653.248 0.979508 653.618 0.78261 654.113 0.749653C654.639 0.71456 655.386 0.865856 656.316 1.40309L681.059 15.6882C682.269 16.3873 683.454 17.6501 684.34 19.1841C685.226 20.7181 685.727 22.3756 685.727 23.7736V91.5478C685.727 93.0416 685.268 93.8284 684.838 94.1752C684.446 94.4918 683.768 94.6914 682.679 94.3061Z" fill="#2A1D3A" stroke="#8D87BA" stroke-width="3.14977"/>
</mask>
<g mask="url(#mask1_3088_7186)">
<path d="M682.679 94.3061L682.552 94.2613L682.419 94.2385C681.973 94.1621 681.438 93.9734 680.829 93.6219L653.769 77.9988C653.311 77.7346 652.809 77.2181 652.417 76.539C652.025 75.86 651.829 75.1663 651.829 74.638V4.19224C651.829 2.68715 652.294 1.90032 652.727 1.55686L652.858 1.45283L652.965 1.32359C653.248 0.979508 653.618 0.78261 654.113 0.749653C654.639 0.71456 655.386 0.865856 656.316 1.40309L681.059 15.6882C682.269 16.3873 683.454 17.6501 684.34 19.1841C685.226 20.7181 685.727 22.3756 685.727 23.7736V91.5478C685.727 93.0416 685.268 93.8284 684.838 94.1752C684.446 94.4918 683.768 94.6914 682.679 94.3061Z" fill="#2A1D3A" stroke="#704AB7" stroke-width="3.14977"/>
<rect x="686.12" y="7.60791" width="28.252" height="95.3188" fill="url(#paint20_linear_3088_7186)" fill-opacity="0.75"/>
</g>
<path fill-rule="evenodd" clip-rule="evenodd" d="M656.677 9.18831C655.673 8.60845 654.858 9.07852 654.858 10.2382L654.858 70.3176C654.858 71.4773 655.673 72.8875 656.677 73.4674L679.297 86.5271C680.301 87.107 681.116 86.6369 681.116 85.4772L681.116 25.3978C681.116 24.2381 680.301 22.8279 679.297 22.2481L673.827 19.09C674.011 19.5239 674.118 19.9763 674.118 20.3959C674.118 21.5534 673.305 22.0225 672.303 21.4438L661.694 15.3188C660.692 14.7401 659.879 13.3326 659.879 12.1751C659.879 11.7555 659.986 11.4264 660.17 11.2049L656.677 9.18831Z" fill="#704AB7"/>
<path d="M251.164 436.117C251.201 441.493 251.175 452.477 250.776 453.408L250.222 454.461L170.86 500.183L93.9357 455.847L93.3261 437.059L99.8657 432.792L101.307 431.517L93.3261 427.748V408.684L102.304 403.363L93.7695 398.542L93.3261 380.197L171.247 334.919L250.388 379.089L250.72 396.436L241.465 402.255L250.72 408.074L251.164 425.254L242.352 430.907L251.164 436.117Z" fill="url(#paint21_linear_3088_7186)"/>
<g style="mix-blend-mode:multiply" opacity="0.67">
<path d="M170.916 454.577L250.442 408.373L241.043 402.054L171.241 442.795L102.743 403.467L96.3329 406.4L93.7229 409.493L170.916 454.577Z" fill="url(#paint22_linear_3088_7186)"/>
<path d="M241.616 431.125L250.442 436.365V438.087L170.916 483.831L93.7544 438.686V437.264L101.316 432.098L170.916 471.777L241.616 431.125Z" fill="url(#paint23_linear_3088_7186)"/>
</g>
<path d="M94.3488 381.916L170.187 426.479L170.976 426.942L171.77 426.486L250.393 381.284V396.235L170.982 442.435L94.3488 398.2V381.916Z" stroke="#704AB7" stroke-width="3.14977"/>
<path d="M93.3652 380.194L171.873 334.922L251.34 379.575" stroke="#704AB7" stroke-width="3.14977"/>
<path d="M94.3488 410.757L170.187 455.319L170.976 455.783L171.77 455.326L250.393 410.124V425.075L170.982 471.275L94.3488 427.041V410.757Z" stroke="#704AB7" stroke-width="3.14977"/>
<path d="M251.375 408.429L241.307 402.599" stroke="#704AB7" stroke-width="3.14977"/>
<path d="M93.5531 409.368L103.09 403.884" stroke="#704AB7" stroke-width="3.14977"/>
<path d="M94.3488 439.224L170.187 483.787L170.976 484.25L171.77 483.794L250.393 438.591V453.543L170.982 499.742L94.3488 455.508V439.224Z" stroke="#704AB7" stroke-width="3.14977"/>
<path d="M251.525 436.639L241.642 430.916" stroke="#704AB7" stroke-width="3.14977"/>
<path d="M93.5672 437.84L102.776 432.545" stroke="#704AB7" stroke-width="3.14977"/>
<rect x="2.72778" width="33.1153" height="12.4232" transform="matrix(0.866025 -0.5 0.866025 0.5 150.29 385.493)" fill="#1A0C2A" stroke="#704AB7" stroke-width="3.14977"/>
<circle r="22.1136" transform="matrix(0.866025 -0.5 2.20305e-08 1 171.203 355.323)" fill="#704AB7"/>
<circle r="22.1136" transform="matrix(0.866025 -0.5 2.20305e-08 1 172.964 355.936)" fill="#704AB7"/>
<path d="M188.357 347.445C188.357 357.511 181.439 369.61 172.964 374.504C164.488 379.397 157.57 375.286 157.57 365.22C157.57 355.154 164.488 343.055 172.964 338.161C181.439 333.268 188.357 337.379 188.357 347.445Z" stroke="#2A1D3A" stroke-width="3.14977"/>
<path d="M178.391 353.079C179.388 351.915 180.012 350.518 179.866 348.876C179.67 346.63 177.911 346.855 175.69 347.911L175.69 344.639L173.969 345.632L173.969 348.819C173.516 349.081 173.055 349.357 172.595 349.633L172.595 346.426L170.876 347.419L170.875 350.691C170.503 350.915 170.137 351.134 169.78 351.34L169.78 351.331L167.407 352.7L167.407 354.827C167.407 354.827 168.677 354.066 168.657 354.105C169.353 353.703 169.581 354.04 169.646 354.407L169.647 358.135L169.647 363.372C169.616 363.643 169.487 364.123 169 364.405C169.022 364.415 167.748 365.127 167.748 365.127L167.407 367.703L169.646 366.411C170.063 366.17 170.473 365.941 170.875 365.713L170.876 369.022L172.595 368.03L172.594 364.755C173.067 364.493 173.524 364.235 173.969 363.977L173.969 367.237L175.689 366.243L175.69 362.939C178.582 361.076 180.607 359.064 180.859 355.773C181.062 353.124 180.033 352.588 178.391 353.079ZM172.636 351.951C173.607 351.391 176.659 349.271 176.659 351.618C176.659 353.869 173.608 355.368 172.636 355.929L172.636 351.951ZM172.636 362.322L172.636 357.936C173.802 357.263 177.459 354.763 177.46 357.343C177.46 359.817 173.802 361.648 172.636 362.322Z" fill="#2A1D3A"/>
<path d="M657.831 48.2515L662.073 53.0816L675.783 40.5737" stroke="#2A1D3A" stroke-width="5.24961"/>
<circle r="1.82447" transform="matrix(0.866025 0.5 -0.866025 0.5 171.558 420.583)" fill="#704AB7"/>
<circle r="1.82447" transform="matrix(0.866025 0.5 -0.866025 0.5 176.124 417.98)" fill="#704AB7"/>
</g>
<path fill-rule="evenodd" clip-rule="evenodd" d="M440.129 256.352C442.327 257.509 444.635 256.509 445.282 254.119C445.93 251.729 444.673 248.853 442.474 247.696C440.275 246.54 437.968 247.539 437.32 249.93C436.672 252.32 437.93 255.195 440.129 256.352ZM439.235 259.65C443.109 261.688 447.175 259.926 448.316 255.715C449.457 251.504 447.241 246.437 443.367 244.399C439.493 242.361 435.428 244.122 434.287 248.334C433.146 252.545 435.361 257.611 439.235 259.65Z" fill="#191925"/>
<path fill-rule="evenodd" clip-rule="evenodd" d="M437.658 265.793C438.777 266.381 439.98 266.463 441.004 266.019C442.028 265.575 442.789 264.643 443.118 263.427L445.93 264.906C445.381 266.933 444.114 268.487 442.407 269.227C440.7 269.966 438.694 269.831 436.83 268.85C434.965 267.869 433.395 266.123 432.465 263.996C431.535 261.869 431.321 259.536 431.871 257.509L434.682 258.989C434.353 260.205 434.481 261.605 435.039 262.881C435.597 264.157 436.539 265.204 437.658 265.793Z" fill="#191925"/>
<path d="M442.554 240.876L445.722 242.543L444.645 246.517L441.477 244.85L442.554 240.876Z" fill="#191925"/>
<path d="M435.448 267.102L438.616 268.769L437.635 272.389L434.467 270.722L435.448 267.102Z" fill="#191925"/>
</g>
<defs>
<linearGradient id="paint0_linear_3088_7186" x1="644.5" y1="298.5" x2="-3.90534e-06" y2="298.5" gradientUnits="userSpaceOnUse">
<stop stop-color="#C4C4C4"/>
<stop offset="1" stop-color="#C4C4C4" stop-opacity="0"/>
</linearGradient>
<radialGradient id="paint1_radial_3088_7186" cx="0" cy="0" r="1" gradientUnits="userSpaceOnUse" gradientTransform="translate(206.444 460.567) rotate(90) scale(168.51 286.045)">
<stop offset="0.515625" stop-color="#704AB7"/>
<stop offset="1" stop-color="#704AB7" stop-opacity="0"/>
</radialGradient>
<radialGradient id="paint2_radial_3088_7186" cx="0" cy="0" r="1" gradientUnits="userSpaceOnUse" gradientTransform="translate(391.063 374.12) rotate(90) scale(187.825 318.833)">
<stop offset="0.515625" stop-color="#704AB7"/>
<stop offset="1" stop-color="#704AB7" stop-opacity="0"/>
</radialGradient>
<radialGradient id="paint3_radial_3088_7186" cx="0" cy="0" r="1" gradientUnits="userSpaceOnUse" gradientTransform="translate(315.211 424.021) rotate(90) scale(177.97 302.104)">
<stop offset="0.515625" stop-color="#704AB7"/>
<stop offset="1" stop-color="#704AB7" stop-opacity="0"/>
</radialGradient>
<radialGradient id="paint4_radial_3088_7186" cx="0" cy="0" r="1" gradientUnits="userSpaceOnUse" gradientTransform="translate(457.131 307.55) rotate(90) scale(178.401 302.836)">
<stop offset="0.515625" stop-color="#704AB7"/>
<stop offset="1" stop-color="#704AB7" stop-opacity="0"/>
</radialGradient>
<radialGradient id="paint5_radial_3088_7186" cx="0" cy="0" r="1" gradientUnits="userSpaceOnUse" gradientTransform="translate(538.304 266.888) rotate(90) scale(173.571 294.637)">
<stop offset="0.515625" stop-color="#704AB7"/>
<stop offset="1" stop-color="#704AB7" stop-opacity="0"/>
</radialGradient>
<radialGradient id="paint6_radial_3088_7186" cx="0" cy="0" r="1" gradientUnits="userSpaceOnUse" gradientTransform="translate(596.103 239.46) rotate(90) scale(159.731 271.143)">
<stop offset="0.515625" stop-color="#704AB7"/>
<stop offset="1" stop-color="#704AB7" stop-opacity="0"/>
</radialGradient>
<radialGradient id="paint7_radial_3088_7186" cx="0" cy="0" r="1" gradientUnits="userSpaceOnUse" gradientTransform="translate(583.189 448.919) rotate(90) scale(164.633 279.465)">
<stop offset="0.515625" stop-color="#704AB7"/>
<stop offset="1" stop-color="#704AB7" stop-opacity="0"/>
</radialGradient>
<radialGradient id="paint8_radial_3088_7186" cx="0" cy="0" r="1" gradientUnits="userSpaceOnUse" gradientTransform="translate(498.657 413.962) rotate(90) scale(196.239 333.116)">
<stop offset="0.515625" stop-color="#704AB7"/>
<stop offset="1" stop-color="#704AB7" stop-opacity="0"/>
</radialGradient>
<radialGradient id="paint9_radial_3088_7186" cx="0" cy="0" r="1" gradientUnits="userSpaceOnUse" gradientTransform="translate(431.691 360.894) rotate(90) scale(174.599 296.382)">
<stop offset="0.515625" stop-color="#704AB7"/>
<stop offset="1" stop-color="#704AB7" stop-opacity="0"/>
</radialGradient>
<radialGradient id="paint10_radial_3088_7186" cx="0" cy="0" r="1" gradientUnits="userSpaceOnUse" gradientTransform="translate(368.477 303.786) rotate(90) scale(190.851 323.97)">
<stop offset="0.515625" stop-color="#704AB7"/>
<stop offset="1" stop-color="#704AB7" stop-opacity="0"/>
</radialGradient>
<radialGradient id="paint11_radial_3088_7186" cx="0" cy="0" r="1" gradientUnits="userSpaceOnUse" gradientTransform="translate(301.72 263.618) rotate(90) scale(174.959 296.994)">
<stop offset="0.515625" stop-color="#704AB7"/>
<stop offset="1" stop-color="#704AB7" stop-opacity="0"/>
</radialGradient>
<radialGradient id="paint12_radial_3088_7186" cx="0" cy="0" r="1" gradientUnits="userSpaceOnUse" gradientTransform="translate(235.868 250.084) rotate(90) scale(182.251 309.371)">
<stop offset="0.515625" stop-color="#704AB7"/>
<stop offset="1" stop-color="#704AB7" stop-opacity="0"/>
</radialGradient>
<linearGradient id="paint13_linear_3088_7186" x1="82.9979" y1="-286.079" x2="429.849" y2="447.313" gradientUnits="userSpaceOnUse">
<stop stop-color="#A10BD2"/>
<stop offset="1" stop-color="#16182B"/>
</linearGradient>
<linearGradient id="paint14_linear_3088_7186" x1="448.004" y1="347.707" x2="430.088" y2="138.869" gradientUnits="userSpaceOnUse">
<stop stop-color="#2E1648"/>
<stop offset="1" stop-color="#2E1648" stop-opacity="0"/>
</linearGradient>
<linearGradient id="paint15_linear_3088_7186" x1="200.128" y1="92.4013" x2="256.331" y2="303.229" gradientUnits="userSpaceOnUse">
<stop stop-color="#A10BD2"/>
<stop offset="1" stop-color="#16182B"/>
</linearGradient>
<linearGradient id="paint16_linear_3088_7186" x1="172.112" y1="228.881" x2="228.315" y2="439.709" gradientUnits="userSpaceOnUse">
<stop stop-color="#A10BD2"/>
<stop offset="1" stop-color="#16182B"/>
</linearGradient>
<linearGradient id="paint17_linear_3088_7186" x1="400.546" y1="222.211" x2="456.748" y2="433.039" gradientUnits="userSpaceOnUse">
<stop stop-color="#A10BD2"/>
<stop offset="1" stop-color="#16182B"/>
</linearGradient>
<linearGradient id="paint18_linear_3088_7186" x1="427.206" y1="76.4379" x2="483.409" y2="287.266" gradientUnits="userSpaceOnUse">
<stop stop-color="#A10BD2"/>
<stop offset="1" stop-color="#16182B"/>
</linearGradient>
<linearGradient id="paint19_linear_3088_7186" x1="376.98" y1="-97.8527" x2="696.031" y2="503.107" gradientUnits="userSpaceOnUse">
<stop stop-color="#A10BD2"/>
<stop offset="1" stop-color="#16182B"/>
</linearGradient>
<linearGradient id="paint20_linear_3088_7186" x1="702.153" y1="56.7452" x2="675.27" y2="57.7485" gradientUnits="userSpaceOnUse">
<stop offset="0.41246" stop-color="#2A1D3A"/>
<stop offset="0.68464" stop-color="#2A1D3A" stop-opacity="0"/>
</linearGradient>
<linearGradient id="paint21_linear_3088_7186" x1="-255.853" y1="314.071" x2="259.3" y2="492.698" gradientUnits="userSpaceOnUse">
<stop stop-color="#A10BD2"/>
<stop offset="1" stop-color="#16182B"/>
</linearGradient>
<linearGradient id="paint22_linear_3088_7186" x1="217.008" y1="453.388" x2="184.428" y2="274.597" gradientUnits="userSpaceOnUse">
<stop stop-color="#2E1648"/>
<stop offset="1" stop-color="#2E1648" stop-opacity="0"/>
</linearGradient>
<linearGradient id="paint23_linear_3088_7186" x1="217.008" y1="453.388" x2="184.428" y2="274.597" gradientUnits="userSpaceOnUse">
<stop stop-color="#2E1648"/>
<stop offset="1" stop-color="#2E1648" stop-opacity="0"/>
</linearGradient>
<clipPath id="clip0_3088_7186">
<rect width="818.939" height="673" fill="white" transform="translate(-2 -27)"/>
</clipPath>
</defs>
</svg>
