<svg width="939" height="518" viewBox="0 0 939 518" fill="none" xmlns="http://www.w3.org/2000/svg">
<g filter="url(#filter0_iif_3827_11910)">
<circle cx="306.907" cy="295.907" r="21.9069" fill="#AA5775"/>
</g>
<path d="M490.267 227.017L476.135 209.813L490.267 192.604H504.054L489.921 209.808L504.059 227.017H490.267Z" fill="#AE55F5"/>
<path d="M463.601 227.017L449.469 209.813L463.601 192.604H477.382L463.25 209.808L477.388 227.017H463.601Z" fill="#AE55F5"/>
<path d="M436.929 227.017L422.797 209.813L436.929 192.604H450.716L436.583 209.808L450.721 227.017H436.929Z" fill="#AE55F5"/>
<path d="M410.263 227.017L396.125 209.813L410.263 192.604H424.044L409.911 209.808L424.049 227.017H410.263Z" fill="#AE55F5"/>
<path d="M383.591 227.017L369.459 209.813L383.591 192.604H397.378L383.245 209.808L397.383 227.017H383.591Z" fill="#AE55F5"/>
<path d="M356.927 227.017L342.789 209.813L356.927 192.604H370.708L356.575 209.808L370.713 227.017H356.927Z" fill="#AE55F5"/>
<path d="M330.256 227.017L316.123 209.813L330.256 192.604H344.042L329.909 209.808L344.042 227.017H330.256Z" fill="#AE55F5"/>
<path d="M303.589 227.017L289.451 209.813L303.589 192.604H317.37L303.237 209.808L317.375 227.017H303.589Z" fill="#AE55F5"/>
<path d="M276.918 227.017L262.785 209.813L276.918 192.604H290.704L276.571 209.808L290.704 227.017H276.918Z" fill="#AE55F5"/>
<path d="M250.251 227.017L236.113 209.813L250.251 192.604H264.032L249.9 209.808L264.038 227.017H250.251Z" fill="#AE55F5"/>
<path d="M467.215 347.36L481.348 330.156L467.215 312.946H453.429L467.561 330.15L453.423 347.36H467.215Z" fill="#AE55F5"/>
<path d="M493.881 347.36L508.014 330.156L493.881 312.946H480.1L494.233 330.15L480.095 347.36H493.881Z" fill="#AE55F5"/>
<path d="M520.553 347.36L534.686 330.156L520.553 312.946H506.767L520.899 330.15L506.761 347.36H520.553Z" fill="#AE55F5"/>
<path d="M547.219 347.36L561.357 330.156L547.219 312.946H533.439L547.571 330.15L533.433 347.36H547.219Z" fill="#AE55F5"/>
<path d="M573.891 347.36L588.023 330.156L573.891 312.946H560.105L574.237 330.15L560.099 347.36H573.891Z" fill="#AE55F5"/>
<path d="M600.555 347.36L614.693 330.156L600.555 312.946H586.775L600.907 330.15L586.769 347.36H600.555Z" fill="#AE55F5"/>
<path d="M627.227 347.36L641.359 330.156L627.227 312.946H613.441L627.573 330.15L613.441 347.36H627.227Z" fill="#AE55F5"/>
<path d="M653.893 347.36L668.031 330.156L653.893 312.946H640.112L654.245 330.15L640.107 347.36H653.893Z" fill="#AE55F5"/>
<path d="M680.565 347.36L694.697 330.156L680.565 312.946H666.778L680.911 330.15L666.778 347.36H680.565Z" fill="#AE55F5"/>
<path d="M707.231 347.36L721.369 330.156L707.231 312.946H693.45L707.583 330.15L693.445 347.36H707.231Z" fill="#AE55F5"/>
<path d="M594.925 390.415C659.89 325.45 659.89 220.121 594.925 155.155C529.959 90.1902 424.63 90.1902 359.665 155.155C294.7 220.12 294.7 325.45 359.665 390.415C424.63 455.38 529.959 455.38 594.925 390.415Z" fill="url(#paint0_linear_3827_11910)"/>
<path d="M594.991 155.089C659.992 220.091 659.992 325.479 594.991 390.481C529.989 455.483 424.601 455.483 359.599 390.481C294.597 325.479 294.597 220.091 359.599 155.089C424.601 90.0876 529.989 90.0876 594.991 155.089Z" stroke="#F8E4FF" stroke-width="0.837996"/>
<path d="M626.617 305.843C644.839 223.446 592.815 141.878 510.417 123.656C428.02 105.434 346.452 157.459 328.23 239.856C310.008 322.253 362.033 403.822 444.43 422.043C526.828 440.265 608.396 388.24 626.617 305.843Z" fill="url(#paint1_linear_3827_11910)"/>
<path d="M463.738 184.209L463.738 237.896C469.667 245.073 485.789 245.801 492.446 237.896L492.446 184.211" stroke="#704AB7"/>
<path d="M564.74 258.209L503.854 258.209V185.701M559.517 303.353L501.717 303.353V356.676M504.051 257.953L494.463 264.089C504.262 273.321 504.262 288.241 494.463 297.473L501.914 303.609" stroke="#704AB7"/>
<path d="M553.672 316.556H513.628V352.949" stroke="#704AB7"/>
<path d="M559.658 239.336H515.889V191.542" stroke="#704AB7"/>
<path d="M389.211 258.209L452.861 258.209V185.701M394.434 303.353L455.081 303.353V356.676M452.664 257.953L462.335 264.089C452.536 273.321 452.536 288.241 462.335 297.473L454.884 303.609" stroke="#704AB7"/>
<path d="M403.127 316.556H443.171V352.949" stroke="#704AB7"/>
<path d="M388.504 269.629H442.574C436.152 275.877 436.152 285.684 442.574 291.933H391.605" stroke="#704AB7"/>
<path d="M565.143 269.629H511.072C517.495 275.877 517.495 285.684 511.072 291.933H562.042" stroke="#704AB7"/>
<path d="M394.242 239.336H440.909V191.542" stroke="#704AB7"/>
<path d="M695.115 339.21V339.173H697.423L695.115 339.21Z" fill="#704AB7"/>
<path d="M585.747 164.333C645.644 224.23 645.644 321.341 585.747 381.237C525.851 441.134 428.739 441.134 368.843 381.237C308.947 321.341 308.947 224.229 368.843 164.333C428.739 104.437 525.851 104.437 585.747 164.333Z" stroke="#1B1229" stroke-width="2.51399"/>
<path d="M411.37 182.049L416.613 189.255M402.336 189.443L408.305 196.058M442.372 166.077L445.115 174.547M453.611 163.039L455.467 171.751M431.482 170.353L435.112 178.5M394.135 197.752L400.776 203.721M386.848 206.867L394.054 212.11M366.467 260.804L375.313 261.746M368.215 249.269L376.899 251.125M375.313 227.06L383.433 230.69M371.172 238.003L379.615 240.746M368.43 295.598L377.115 293.742M366.574 284.09L375.421 283.175M394.914 346.847L401.502 340.904M412.311 362.334L417.554 355.128M403.196 355.048L409.138 348.433M387.52 337.839L394.699 332.623M371.549 306.837L379.992 304.094M375.743 317.7L383.837 314.097M454.687 380.968L456.542 372.31M432.477 373.869L436.08 365.749M443.394 377.983L446.136 369.54" stroke="#A14EE4" stroke-width="3"/>
<path d="M559.036 196.651L552.415 202.605M578.018 225.592L569.902 229.223M566.378 205.622L559.17 210.855M582.237 236.405L573.773 239.155M550.786 188.482L544.806 195.103M510.792 165.681L508.042 174.145M499.606 162.718L497.764 171.395M521.632 169.766L518.028 177.882M541.762 181.246L536.503 188.455M567.019 335.722L559.81 330.489M551.614 352.942L545.687 346.348M559.757 344.719L553.162 338.766M542.617 360.311L537.411 353.129M511.86 376.17L509.11 367.733M522.646 371.952L519.042 363.835M500.674 379.214L498.832 370.537M582.557 304.726L574.121 301.976M578.446 315.565L570.329 311.961M587.11 260.113L578.327 261.047M585.375 248.659L576.752 250.501M585.161 294.66L576.538 292.818M587.004 283.233L578.22 282.326" stroke="#A14EE4" stroke-width="3"/>
<path d="M573.463 217.146L571.804 214.257L554.444 224.289C555.005 225.252 555.567 226.188 556.102 227.177L573.463 217.146ZM474.917 180.286C475.479 180.286 476.041 180.232 476.576 180.232C477.111 180.232 477.673 180.259 478.234 180.286V160.304H474.891V180.286H474.917ZM474.917 361.995V382.004H478.261V361.995C477.699 361.995 477.164 362.048 476.603 362.048C476.041 362.048 475.479 362.022 474.944 361.995H474.917Z" fill="#A14EE4"/>
<path d="M381.556 327.997L379.77 324.884L398.388 314.134C398.964 315.171 399.541 316.238 400.175 317.246L381.556 327.997Z" fill="url(#paint2_linear_3827_11910)"/>
<path d="M523.218 193.756C522.231 193.18 521.245 192.605 520.258 192.056L530.537 174.267L533.497 175.966L523.218 193.756Z" fill="#704AB7"/>
<path d="M386.707 269.469C386.679 270.004 386.679 270.565 386.679 271.127C386.679 271.689 386.707 272.224 386.707 272.786H365.406V269.469H386.707Z" fill="#704AB7"/>
<path d="M588.793 269.469C588.765 270.004 588.765 270.565 588.765 271.127C588.765 271.689 588.793 272.224 588.793 272.786H567.492V269.469H588.793Z" fill="#704AB7"/>
<path d="M422.77 367.934L419.732 366.19L430.222 348.023C431.234 348.614 432.247 349.205 433.259 349.767L422.77 367.934Z" fill="#704AB7"/>
<path d="M530.334 367.987L519.469 349.162C520.544 348.581 521.59 347.97 522.606 347.36L533.472 366.186L530.334 367.987Z" fill="#704AB7"/>
<path d="M571.682 327.996L553.355 317.419C553.949 316.401 554.543 315.382 555.109 314.364L573.436 324.942L571.682 327.996Z" fill="url(#paint3_linear_3827_11910)"/>
<path d="M397.761 227.633L379.77 217.261H379.797L381.521 214.258L399.485 224.63C398.901 225.631 398.318 226.632 397.761 227.633Z" fill="#704AB7"/>
<path d="M422.729 174.294L433.202 192.412C432.194 192.972 431.186 193.56 430.178 194.148L419.705 176.03L422.729 174.294Z" fill="#704AB7"/>
<path d="M417.98 240.699L458.083 257.947C458.083 257.947 452.748 263.228 451.417 269.218L417.98 240.699Z" fill="#A14EE4"/>
<path d="M491.391 257.704L547.045 225.462L499.363 268.285C499.363 268.285 497.739 260.752 491.391 257.704Z" fill="#A14EE4"/>
<path fill-rule="evenodd" clip-rule="evenodd" d="M474.627 252.313H481.048V257.727C487.317 259.205 491.982 264.819 491.982 271.519C491.982 279.346 485.616 285.691 477.763 285.691C469.911 285.691 463.545 279.346 463.545 271.519C463.545 264.766 468.283 259.116 474.627 257.693V252.313ZM485.833 271.519C485.833 275.961 482.22 279.562 477.763 279.562C473.306 279.562 469.693 275.961 469.693 271.519C469.693 267.076 473.306 263.475 477.763 263.475C482.22 263.475 485.833 267.076 485.833 271.519ZM483.965 294.538C482.361 296.137 480.187 297.034 477.919 297.034C475.652 297.034 473.477 296.137 471.874 294.538C470.27 292.94 469.37 290.773 469.37 288.513H463.67C463.67 292.279 465.171 295.892 467.843 298.556C469.725 300.431 472.079 301.728 474.627 302.331V307.784H481.048V302.369C483.659 301.783 486.073 300.471 487.995 298.556C490.667 295.892 492.168 292.279 492.168 288.513H486.469C486.469 290.773 485.568 292.94 483.965 294.538Z" fill="#A14EE4"/>
<path d="M465.182 160.902C408.368 165.898 365.092 213.016 365.092 271.128C365.092 329.24 408.184 376.774 464.998 381.769L466.465 359.345C422.089 354.435 387.576 316.812 387.576 271.128C387.576 225.443 422.089 187.82 466.465 182.91L465.182 160.902Z" stroke="url(#paint4_linear_3827_11910)" stroke-width="3"/>
<path d="M488.703 160.902C545.517 165.898 588.793 213.016 588.793 271.128C588.793 329.24 545.701 376.774 488.886 381.769L487.42 359.345C531.795 354.435 566.309 316.812 566.309 271.128C566.309 225.443 531.795 187.82 487.42 182.91L488.703 160.902Z" stroke="url(#paint5_linear_3827_11910)" stroke-width="3"/>
<circle cx="477.294" cy="271.66" r="141.444" stroke="url(#paint6_linear_3827_11910)" stroke-width="3"/>
<circle cx="460.657" cy="210.534" r="0.723356" fill="#A14EE4"/>
<circle cx="466.444" cy="210.534" r="0.723356" fill="#A14EE4"/>
<circle cx="472.231" cy="210.534" r="0.723356" fill="#A14EE4"/>
<circle cx="478.018" cy="210.534" r="0.723356" fill="#A14EE4"/>
<circle cx="483.803" cy="210.534" r="0.723356" fill="#A14EE4"/>
<circle cx="489.591" cy="210.534" r="0.723356" fill="#A14EE4"/>
<circle cx="495.378" cy="210.534" r="0.723356" fill="#A14EE4"/>
<circle cx="501.165" cy="210.534" r="0.723356" fill="#A14EE4"/>
<circle cx="460.657" cy="216.321" r="0.723356" fill="#A14EE4"/>
<circle cx="454.87" cy="216.321" r="0.723356" fill="#A14EE4"/>
<circle cx="466.444" cy="216.321" r="0.723356" fill="#A14EE4"/>
<circle cx="472.231" cy="216.321" r="0.723356" fill="#A14EE4"/>
<circle cx="478.016" cy="216.321" r="0.723356" fill="#A14EE4"/>
<circle cx="483.803" cy="216.321" r="0.723356" fill="#A14EE4"/>
<circle cx="489.591" cy="216.321" r="0.723356" fill="#A14EE4"/>
<circle cx="495.378" cy="216.321" r="0.723356" fill="#A14EE4"/>
<circle cx="501.165" cy="216.321" r="0.723356" fill="#A14EE4"/>
<circle cx="506.952" cy="216.321" r="0.723356" fill="#A14EE4"/>
<circle cx="460.657" cy="222.107" r="0.723356" fill="#A14EE4"/>
<circle cx="454.87" cy="222.107" r="0.723356" fill="#A14EE4"/>
<circle cx="449.083" cy="222.107" r="0.723356" fill="#A14EE4"/>
<circle cx="466.444" cy="222.107" r="0.723356" fill="#A14EE4"/>
<circle cx="472.229" cy="222.107" r="0.723356" fill="#A14EE4"/>
<circle cx="478.016" cy="222.107" r="0.723356" fill="#A14EE4"/>
<circle cx="483.803" cy="222.107" r="0.723356" fill="#A14EE4"/>
<circle cx="489.591" cy="222.107" r="0.723356" fill="#A14EE4"/>
<circle cx="495.378" cy="222.107" r="0.723356" fill="#A14EE4"/>
<circle cx="501.165" cy="222.107" r="0.723356" fill="#A14EE4"/>
<circle cx="506.952" cy="222.107" r="0.723356" fill="#A14EE4"/>
<circle cx="512.739" cy="222.107" r="0.723356" fill="#A14EE4"/>
<circle cx="460.657" cy="227.894" r="0.723356" fill="#A14EE4"/>
<circle cx="454.87" cy="227.894" r="0.723356" fill="#A14EE4"/>
<circle cx="449.083" cy="227.894" r="0.723356" fill="#A14EE4"/>
<circle cx="443.296" cy="227.894" r="0.723356" fill="#A14EE4"/>
<circle cx="466.442" cy="227.894" r="0.723356" fill="#A14EE4"/>
<circle cx="472.229" cy="227.894" r="0.723356" fill="#A14EE4"/>
<circle cx="478.016" cy="227.894" r="0.723356" fill="#A14EE4"/>
<circle cx="483.803" cy="227.894" r="0.723356" fill="#A14EE4"/>
<circle cx="489.591" cy="227.894" r="0.723356" fill="#A14EE4"/>
<circle cx="495.378" cy="227.894" r="0.723356" fill="#A14EE4"/>
<circle cx="501.165" cy="227.894" r="0.723356" fill="#A14EE4"/>
<circle cx="506.952" cy="227.894" r="0.723356" fill="#A14EE4"/>
<circle cx="512.737" cy="227.894" r="0.723356" fill="#A14EE4"/>
<circle cx="518.524" cy="227.894" r="0.723356" fill="#A14EE4"/>
<circle r="0.723356" transform="matrix(1 0 0 -1 458.487 341.35)" fill="#A14EE4"/>
<circle r="0.723356" transform="matrix(1 0 0 -1 464.274 341.35)" fill="#A14EE4"/>
<circle r="0.723356" transform="matrix(1 0 0 -1 470.061 341.35)" fill="#A14EE4"/>
<circle r="0.723356" transform="matrix(1 0 0 -1 475.848 341.35)" fill="#A14EE4"/>
<circle r="0.723356" transform="matrix(1 0 0 -1 481.634 341.35)" fill="#A14EE4"/>
<circle r="0.723356" transform="matrix(1 0 0 -1 487.421 341.35)" fill="#A14EE4"/>
<circle r="0.723356" transform="matrix(1 0 0 -1 493.208 341.35)" fill="#A14EE4"/>
<circle r="0.723356" transform="matrix(1 0 0 -1 498.995 341.35)" fill="#A14EE4"/>
<circle r="0.723356" transform="matrix(1 0 0 -1 458.487 335.563)" fill="#A14EE4"/>
<circle r="0.723356" transform="matrix(1 0 0 -1 452.7 335.563)" fill="#A14EE4"/>
<circle r="0.723356" transform="matrix(1 0 0 -1 464.274 335.563)" fill="#A14EE4"/>
<circle r="0.723356" transform="matrix(1 0 0 -1 470.061 335.563)" fill="#A14EE4"/>
<circle r="0.723356" transform="matrix(1 0 0 -1 475.846 335.563)" fill="#A14EE4"/>
<circle r="0.723356" transform="matrix(1 0 0 -1 481.634 335.563)" fill="#A14EE4"/>
<circle r="0.723356" transform="matrix(1 0 0 -1 487.421 335.563)" fill="#A14EE4"/>
<circle r="0.723356" transform="matrix(1 0 0 -1 493.208 335.563)" fill="#A14EE4"/>
<circle r="0.723356" transform="matrix(1 0 0 -1 498.995 335.563)" fill="#A14EE4"/>
<circle r="0.723356" transform="matrix(1 0 0 -1 504.782 335.563)" fill="#A14EE4"/>
<circle r="0.723356" transform="matrix(1 0 0 -1 458.487 329.777)" fill="#A14EE4"/>
<circle r="0.723356" transform="matrix(1 0 0 -1 452.7 329.777)" fill="#A14EE4"/>
<circle r="0.723356" transform="matrix(1 0 0 -1 446.913 329.777)" fill="#A14EE4"/>
<circle r="0.723356" transform="matrix(1 0 0 -1 464.274 329.777)" fill="#A14EE4"/>
<circle r="0.723356" transform="matrix(1 0 0 -1 470.059 329.777)" fill="#A14EE4"/>
<circle r="0.723356" transform="matrix(1 0 0 -1 475.846 329.777)" fill="#A14EE4"/>
<circle r="0.723356" transform="matrix(1 0 0 -1 481.634 329.777)" fill="#A14EE4"/>
<circle r="0.723356" transform="matrix(1 0 0 -1 487.421 329.777)" fill="#A14EE4"/>
<circle r="0.723356" transform="matrix(1 0 0 -1 493.208 329.777)" fill="#A14EE4"/>
<circle r="0.723356" transform="matrix(1 0 0 -1 498.995 329.777)" fill="#A14EE4"/>
<circle r="0.723356" transform="matrix(1 0 0 -1 504.782 329.777)" fill="#A14EE4"/>
<circle r="0.723356" transform="matrix(1 0 0 -1 510.569 329.777)" fill="#A14EE4"/>
<circle r="0.723356" transform="matrix(1 0 0 -1 458.487 323.99)" fill="#A14EE4"/>
<circle r="0.723356" transform="matrix(1 0 0 -1 452.7 323.99)" fill="#A14EE4"/>
<circle r="0.723356" transform="matrix(1 0 0 -1 446.913 323.99)" fill="#A14EE4"/>
<circle r="0.723356" transform="matrix(1 0 0 -1 441.126 323.99)" fill="#A14EE4"/>
<circle r="0.723356" transform="matrix(1 0 0 -1 464.272 323.99)" fill="#A14EE4"/>
<circle r="0.723356" transform="matrix(1 0 0 -1 470.059 323.99)" fill="#A14EE4"/>
<circle r="0.723356" transform="matrix(1 0 0 -1 475.846 323.99)" fill="#A14EE4"/>
<circle r="0.723356" transform="matrix(1 0 0 -1 481.634 323.99)" fill="#A14EE4"/>
<circle r="0.723356" transform="matrix(1 0 0 -1 487.421 323.99)" fill="#A14EE4"/>
<circle r="0.723356" transform="matrix(1 0 0 -1 493.208 323.99)" fill="#A14EE4"/>
<circle r="0.723356" transform="matrix(1 0 0 -1 498.995 323.99)" fill="#A14EE4"/>
<circle r="0.723356" transform="matrix(1 0 0 -1 504.782 323.99)" fill="#A14EE4"/>
<circle r="0.723356" transform="matrix(1 0 0 -1 510.567 323.99)" fill="#A14EE4"/>
<circle r="0.723356" transform="matrix(1 0 0 -1 516.354 323.99)" fill="#A14EE4"/>
<path d="M465.418 412.034V397.373C413.563 393.294 370.531 357.832 355.308 309.972H343.417M487.464 412.034V397.199C524.415 393.702 556.72 374.252 577.417 345.811L566.506 337.502M341.148 245.622H352.108C364.13 188.54 414.78 145.689 475.439 145.689C518.62 145.689 556.728 167.404 579.441 200.509L569.812 208.273" stroke="url(#paint7_linear_3827_11910)" stroke-width="3"/>
<path style="mix-blend-mode:screen" d="M462.084 301.798C479.136 310.49 500.038 303.65 508.769 286.521C517.501 269.391 510.756 248.459 493.704 239.767C476.652 231.075 455.75 237.915 447.018 255.044C438.287 272.174 445.032 293.106 462.084 301.798Z" fill="url(#paint8_radial_3827_11910)"/>
<path style="mix-blend-mode:screen" d="M490.357 280.82C495.908 273.905 494.834 263.807 487.958 258.267C481.082 252.726 471.007 253.84 465.456 260.755C459.905 267.67 460.979 277.767 467.855 283.308C474.731 288.849 484.806 287.735 490.357 280.82Z" fill="url(#paint9_radial_3827_11910)"/>
<g style="mix-blend-mode:screen">
<path d="M480.675 272.2C480.394 272.751 479.957 273.207 479.419 273.511C478.88 273.814 478.265 273.952 477.65 273.906C477.035 273.86 476.449 273.632 475.964 273.252C475.479 272.872 475.117 272.356 474.925 271.769C474.733 271.182 474.719 270.551 474.883 269.955C475.048 269.358 475.386 268.824 475.852 268.418C476.319 268.012 476.895 267.754 477.507 267.675C478.119 267.596 478.739 267.7 479.291 267.974C479.662 268.157 479.992 268.411 480.263 268.723C480.534 269.035 480.74 269.399 480.869 269.792C480.998 270.186 481.047 270.601 481.014 271.015C480.981 271.428 480.865 271.831 480.675 272.2Z" fill="white"/>
</g>
<path style="mix-blend-mode:screen" d="M401.049 271.318C401.057 269.802 435.862 268.254 478.844 267.849C521.826 267.445 556.6 268.461 556.599 269.998C556.598 271.535 521.806 273.056 478.845 273.42C435.884 273.783 401.068 272.849 401.049 271.318Z" fill="url(#paint10_radial_3827_11910)"/>
<path style="mix-blend-mode:color-dodge" d="M718.274 198.703C752.764 225.023 727.484 316.143 661.814 402.233C596.134 488.323 514.924 536.773 480.424 510.453C445.934 484.133 471.214 393.013 536.894 306.923C602.574 220.843 683.784 172.393 718.274 198.703Z" fill="url(#paint11_radial_3827_11910)"/>
<path style="mix-blend-mode:color-dodge" d="M464.28 7.16123C498.77 33.4812 473.49 124.601 407.82 210.691C342.14 296.781 260.93 345.231 226.43 318.911C191.94 292.591 217.21 201.471 282.9 115.381C348.58 29.3012 429.79 -19.1488 464.28 7.16123Z" fill="url(#paint12_radial_3827_11910)"/>
<path d="M257.112 399.286C257.112 390.589 249.956 383.503 241.085 383.503C232.214 383.503 225.059 390.589 225.059 399.286C225.059 407.983 232.214 415.069 241.085 415.069C249.956 415.069 257.112 407.983 257.112 399.286Z" stroke="url(#paint13_linear_3827_11910)" stroke-width="3"/>
<ellipse rx="3.48982" ry="3.50963" transform="matrix(1 0 0 -1 241.086 399.041)" fill="#FFAB2E"/>
<path d="M719.375 121.629C719.375 131.094 711.588 138.803 701.938 138.803C692.287 138.803 684.5 131.094 684.5 121.629C684.5 112.163 692.287 104.454 701.938 104.454C711.588 104.454 719.375 112.163 719.375 121.629Z" stroke="url(#paint14_linear_3827_11910)" stroke-width="3"/>
<path d="M701.937 128.203L696.471 118.734H707.404L701.937 128.203Z" fill="#66CE67"/>
<path d="M234.553 147.283C234.553 138.586 227.397 131.5 218.526 131.5C209.655 131.5 202.5 138.586 202.5 147.283C202.5 155.98 209.655 163.066 218.526 163.066C227.397 163.066 234.553 155.98 234.553 147.283Z" stroke="url(#paint15_linear_3827_11910)" stroke-width="3"/>
<circle r="9" transform="matrix(1 0 0 -1 786.5 180.5)" stroke="url(#paint16_linear_3827_11910)" stroke-width="3"/>
<g filter="url(#filter1_ii_3827_11910)">
<circle cx="109" cy="158" r="28" fill="#5957AA"/>
</g>
<g filter="url(#filter2_ii_3827_11910)">
<circle cx="895" cy="136" r="44" fill="#5957AA"/>
</g>
<g filter="url(#filter3_f_3827_11910)">
<g filter="url(#filter4_ii_3827_11910)">
<circle cx="876.212" cy="338.212" r="30.2124" fill="#57AA9B"/>
</g>
</g>
<g opacity="0.5" filter="url(#filter5_f_3827_11910)">
<g filter="url(#filter6_ii_3827_11910)">
<circle cx="741.788" cy="233.788" r="19.7876" fill="#68AA57"/>
</g>
</g>
<g opacity="0.5" filter="url(#filter7_f_3827_11910)">
<g filter="url(#filter8_ii_3827_11910)">
<circle cx="19.7876" cy="289.788" r="19.7876" fill="#68AA57"/>
</g>
</g>
<defs>
<filter id="filter0_iif_3827_11910" x="275.835" y="269" width="57.9796" height="53.8135" filterUnits="userSpaceOnUse" color-interpolation-filters="sRGB">
<feFlood flood-opacity="0" result="BackgroundImageFix"/>
<feBlend mode="normal" in="SourceGraphic" in2="BackgroundImageFix" result="shape"/>
<feColorMatrix in="SourceAlpha" type="matrix" values="0 0 0 0 0 0 0 0 0 0 0 0 0 0 0 0 0 0 127 0" result="hardAlpha"/>
<feOffset dx="-9.16514" dy="-1.56478"/>
<feGaussianBlur stdDeviation="5.5885"/>
<feComposite in2="hardAlpha" operator="arithmetic" k2="-1" k3="1"/>
<feColorMatrix type="matrix" values="0 0 0 0 1 0 0 0 0 1 0 0 0 0 1 0 0 0 0.5 0"/>
<feBlend mode="normal" in2="shape" result="effect1_innerShadow_3827_11910"/>
<feColorMatrix in="SourceAlpha" type="matrix" values="0 0 0 0 0 0 0 0 0 0 0 0 0 0 0 0 0 0 127 0" result="hardAlpha"/>
<feOffset dx="0.894161" dy="0.22354"/>
<feGaussianBlur stdDeviation="1.1177"/>
<feComposite in2="hardAlpha" operator="arithmetic" k2="-1" k3="1"/>
<feColorMatrix type="matrix" values="0 0 0 0 0.966667 0 0 0 0 0.418889 0 0 0 0 0.418889 0 0 0 1 0"/>
<feBlend mode="normal" in2="effect1_innerShadow_3827_11910" result="effect2_innerShadow_3827_11910"/>
<feGaussianBlur stdDeviation="2.5" result="effect3_foregroundBlur_3827_11910"/>
</filter>
<filter id="filter1_ii_3827_11910" x="67.8069" y="127.748" width="70.4803" height="58.5743" filterUnits="userSpaceOnUse" color-interpolation-filters="sRGB">
<feFlood flood-opacity="0" result="BackgroundImageFix"/>
<feBlend mode="normal" in="SourceGraphic" in2="BackgroundImageFix" result="shape"/>
<feColorMatrix in="SourceAlpha" type="matrix" values="0 0 0 0 0 0 0 0 0 0 0 0 0 0 0 0 0 0 127 0" result="hardAlpha"/>
<feOffset dx="-13.1931" dy="-2.25249"/>
<feGaussianBlur stdDeviation="8.0446"/>
<feComposite in2="hardAlpha" operator="arithmetic" k2="-1" k3="1"/>
<feColorMatrix type="matrix" values="0 0 0 0 1 0 0 0 0 1 0 0 0 0 1 0 0 0 0.5 0"/>
<feBlend mode="normal" in2="shape" result="effect1_innerShadow_3827_11910"/>
<feColorMatrix in="SourceAlpha" type="matrix" values="0 0 0 0 0 0 0 0 0 0 0 0 0 0 0 0 0 0 127 0" result="hardAlpha"/>
<feOffset dx="1.28714" dy="0.321784"/>
<feGaussianBlur stdDeviation="1.60892"/>
<feComposite in2="hardAlpha" operator="arithmetic" k2="-1" k3="1"/>
<feColorMatrix type="matrix" values="0 0 0 0 0.418889 0 0 0 0 0.868067 0 0 0 0 0.966667 0 0 0 1 0"/>
<feBlend mode="normal" in2="effect1_innerShadow_3827_11910" result="effect2_innerShadow_3827_11910"/>
</filter>
<filter id="filter2_ii_3827_11910" x="832.592" y="88.8571" width="108.204" height="91.5918" filterUnits="userSpaceOnUse" color-interpolation-filters="sRGB">
<feFlood flood-opacity="0" result="BackgroundImageFix"/>
<feBlend mode="normal" in="SourceGraphic" in2="BackgroundImageFix" result="shape"/>
<feColorMatrix in="SourceAlpha" type="matrix" values="0 0 0 0 0 0 0 0 0 0 0 0 0 0 0 0 0 0 127 0" result="hardAlpha"/>
<feOffset dx="-18.4082" dy="-3.14286"/>
<feGaussianBlur stdDeviation="11.2245"/>
<feComposite in2="hardAlpha" operator="arithmetic" k2="-1" k3="1"/>
<feColorMatrix type="matrix" values="0 0 0 0 1 0 0 0 0 1 0 0 0 0 1 0 0 0 0.5 0"/>
<feBlend mode="normal" in2="shape" result="effect1_innerShadow_3827_11910"/>
<feColorMatrix in="SourceAlpha" type="matrix" values="0 0 0 0 0 0 0 0 0 0 0 0 0 0 0 0 0 0 127 0" result="hardAlpha"/>
<feOffset dx="1.79592" dy="0.44898"/>
<feGaussianBlur stdDeviation="2.2449"/>
<feComposite in2="hardAlpha" operator="arithmetic" k2="-1" k3="1"/>
<feColorMatrix type="matrix" values="0 0 0 0 0.418889 0 0 0 0 0.868067 0 0 0 0 0.966667 0 0 0 1 0"/>
<feBlend mode="normal" in2="effect1_innerShadow_3827_11910" result="effect2_innerShadow_3827_11910"/>
</filter>
<filter id="filter3_f_3827_11910" x="842" y="304" width="68.4238" height="68.4248" filterUnits="userSpaceOnUse" color-interpolation-filters="sRGB">
<feFlood flood-opacity="0" result="BackgroundImageFix"/>
<feBlend mode="normal" in="SourceGraphic" in2="BackgroundImageFix" result="shape"/>
<feGaussianBlur stdDeviation="2" result="effect1_foregroundBlur_3827_11910"/>
</filter>
<filter id="filter4_ii_3827_11910" x="833.36" y="305.842" width="74.2969" height="62.8911" filterUnits="userSpaceOnUse" color-interpolation-filters="sRGB">
<feFlood flood-opacity="0" result="BackgroundImageFix"/>
<feBlend mode="normal" in="SourceGraphic" in2="BackgroundImageFix" result="shape"/>
<feColorMatrix in="SourceAlpha" type="matrix" values="0 0 0 0 0 0 0 0 0 0 0 0 0 0 0 0 0 0 127 0" result="hardAlpha"/>
<feOffset dx="-12.6399" dy="-2.15803"/>
<feGaussianBlur stdDeviation="7.70724"/>
<feComposite in2="hardAlpha" operator="arithmetic" k2="-1" k3="1"/>
<feColorMatrix type="matrix" values="0 0 0 0 1 0 0 0 0 1 0 0 0 0 1 0 0 0 0.5 0"/>
<feBlend mode="normal" in2="shape" result="effect1_innerShadow_3827_11910"/>
<feColorMatrix in="SourceAlpha" type="matrix" values="0 0 0 0 0 0 0 0 0 0 0 0 0 0 0 0 0 0 127 0" result="hardAlpha"/>
<feOffset dx="1.23316" dy="0.308289"/>
<feGaussianBlur stdDeviation="1.54145"/>
<feComposite in2="hardAlpha" operator="arithmetic" k2="-1" k3="1"/>
<feColorMatrix type="matrix" values="0 0 0 0 0.418889 0 0 0 0 0.868067 0 0 0 0 0.966667 0 0 0 1 0"/>
<feBlend mode="normal" in2="effect1_innerShadow_3827_11910" result="effect2_innerShadow_3827_11910"/>
</filter>
<filter id="filter5_f_3827_11910" x="718" y="210" width="47.5762" height="47.5752" filterUnits="userSpaceOnUse" color-interpolation-filters="sRGB">
<feFlood flood-opacity="0" result="BackgroundImageFix"/>
<feBlend mode="normal" in="SourceGraphic" in2="BackgroundImageFix" result="shape"/>
<feGaussianBlur stdDeviation="2" result="effect1_foregroundBlur_3827_11910"/>
</filter>
<filter id="filter6_ii_3827_11910" x="709.36" y="211.842" width="53.4492" height="42.0415" filterUnits="userSpaceOnUse" color-interpolation-filters="sRGB">
<feFlood flood-opacity="0" result="BackgroundImageFix"/>
<feBlend mode="normal" in="SourceGraphic" in2="BackgroundImageFix" result="shape"/>
<feColorMatrix in="SourceAlpha" type="matrix" values="0 0 0 0 0 0 0 0 0 0 0 0 0 0 0 0 0 0 127 0" result="hardAlpha"/>
<feOffset dx="-12.6399" dy="-2.15803"/>
<feGaussianBlur stdDeviation="7.70724"/>
<feComposite in2="hardAlpha" operator="arithmetic" k2="-1" k3="1"/>
<feColorMatrix type="matrix" values="0 0 0 0 1 0 0 0 0 1 0 0 0 0 1 0 0 0 0.5 0"/>
<feBlend mode="normal" in2="shape" result="effect1_innerShadow_3827_11910"/>
<feColorMatrix in="SourceAlpha" type="matrix" values="0 0 0 0 0 0 0 0 0 0 0 0 0 0 0 0 0 0 127 0" result="hardAlpha"/>
<feOffset dx="1.23316" dy="0.308289"/>
<feGaussianBlur stdDeviation="1.54145"/>
<feComposite in2="hardAlpha" operator="arithmetic" k2="-1" k3="1"/>
<feColorMatrix type="matrix" values="0 0 0 0 0.418889 0 0 0 0 0.868067 0 0 0 0 0.966667 0 0 0 1 0"/>
<feBlend mode="normal" in2="effect1_innerShadow_3827_11910" result="effect2_innerShadow_3827_11910"/>
</filter>
<filter id="filter7_f_3827_11910" x="-4" y="266" width="47.5762" height="47.5752" filterUnits="userSpaceOnUse" color-interpolation-filters="sRGB">
<feFlood flood-opacity="0" result="BackgroundImageFix"/>
<feBlend mode="normal" in="SourceGraphic" in2="BackgroundImageFix" result="shape"/>
<feGaussianBlur stdDeviation="2" result="effect1_foregroundBlur_3827_11910"/>
</filter>
<filter id="filter8_ii_3827_11910" x="-12.6399" y="267.842" width="53.4492" height="42.0415" filterUnits="userSpaceOnUse" color-interpolation-filters="sRGB">
<feFlood flood-opacity="0" result="BackgroundImageFix"/>
<feBlend mode="normal" in="SourceGraphic" in2="BackgroundImageFix" result="shape"/>
<feColorMatrix in="SourceAlpha" type="matrix" values="0 0 0 0 0 0 0 0 0 0 0 0 0 0 0 0 0 0 127 0" result="hardAlpha"/>
<feOffset dx="-12.6399" dy="-2.15803"/>
<feGaussianBlur stdDeviation="7.70724"/>
<feComposite in2="hardAlpha" operator="arithmetic" k2="-1" k3="1"/>
<feColorMatrix type="matrix" values="0 0 0 0 1 0 0 0 0 1 0 0 0 0 1 0 0 0 0.5 0"/>
<feBlend mode="normal" in2="shape" result="effect1_innerShadow_3827_11910"/>
<feColorMatrix in="SourceAlpha" type="matrix" values="0 0 0 0 0 0 0 0 0 0 0 0 0 0 0 0 0 0 127 0" result="hardAlpha"/>
<feOffset dx="1.23316" dy="0.308289"/>
<feGaussianBlur stdDeviation="1.54145"/>
<feComposite in2="hardAlpha" operator="arithmetic" k2="-1" k3="1"/>
<feColorMatrix type="matrix" values="0 0 0 0 0.418889 0 0 0 0 0.868067 0 0 0 0 0.966667 0 0 0 1 0"/>
<feBlend mode="normal" in2="effect1_innerShadow_3827_11910" result="effect2_innerShadow_3827_11910"/>
</filter>
<linearGradient id="paint0_linear_3827_11910" x1="259.676" y1="35.2619" x2="630.468" y2="375.192" gradientUnits="userSpaceOnUse">
<stop stop-color="#D55FFF"/>
<stop offset="1" stop-color="#4230B1"/>
</linearGradient>
<linearGradient id="paint1_linear_3827_11910" x1="106.148" y1="215.327" x2="792.961" y2="308.427" gradientUnits="userSpaceOnUse">
<stop stop-color="#2F2450"/>
<stop offset="1" stop-color="#1E1024"/>
</linearGradient>
<linearGradient id="paint2_linear_3827_11910" x1="484.116" y1="147.318" x2="484.116" y2="386.186" gradientUnits="userSpaceOnUse">
<stop stop-color="#704AB7"/>
<stop offset="1" stop-color="#9D69FF"/>
</linearGradient>
<linearGradient id="paint3_linear_3827_11910" x1="563.396" y1="314.364" x2="563.396" y2="327.996" gradientUnits="userSpaceOnUse">
<stop stop-color="#704AB7"/>
<stop offset="1" stop-color="#9D69FF"/>
</linearGradient>
<linearGradient id="paint4_linear_3827_11910" x1="415.778" y1="160.902" x2="415.778" y2="381.769" gradientUnits="userSpaceOnUse">
<stop stop-color="#704AB7"/>
<stop offset="1" stop-color="#9D69FF"/>
</linearGradient>
<linearGradient id="paint5_linear_3827_11910" x1="538.107" y1="160.902" x2="538.107" y2="381.769" gradientUnits="userSpaceOnUse">
<stop stop-color="#704AB7"/>
<stop offset="1" stop-color="#9D69FF"/>
</linearGradient>
<linearGradient id="paint6_linear_3827_11910" x1="477.294" y1="130.216" x2="477.294" y2="413.105" gradientUnits="userSpaceOnUse">
<stop stop-color="#704AB7"/>
<stop offset="1" stop-color="#9D69FF"/>
</linearGradient>
<linearGradient id="paint7_linear_3827_11910" x1="460.295" y1="145.689" x2="460.295" y2="407.982" gradientUnits="userSpaceOnUse">
<stop stop-color="#704AB7"/>
<stop offset="1" stop-color="#9D69FF"/>
</linearGradient>
<radialGradient id="paint8_radial_3827_11910" cx="0" cy="0" r="1" gradientUnits="userSpaceOnUse" gradientTransform="translate(477.894 270.782) rotate(27.0094) scale(34.6553 34.8127)">
<stop stop-color="#2E00A7"/>
<stop offset="0.09" stop-color="#280091"/>
<stop offset="0.31" stop-color="#1A005E"/>
<stop offset="0.52" stop-color="#0F0035"/>
<stop offset="0.71" stop-color="#070018"/>
<stop offset="0.88" stop-color="#020006"/>
<stop offset="1"/>
</radialGradient>
<radialGradient id="paint9_radial_3827_11910" cx="0" cy="0" r="1" gradientUnits="userSpaceOnUse" gradientTransform="translate(477.906 270.78) rotate(27.0094) scale(15.9866 16.0592)">
<stop stop-color="#8647A7"/>
<stop offset="0.09" stop-color="#743E91"/>
<stop offset="0.31" stop-color="#4B285E"/>
<stop offset="0.52" stop-color="#2B1735"/>
<stop offset="0.71" stop-color="#130A18"/>
<stop offset="0.88" stop-color="#050306"/>
<stop offset="1"/>
</radialGradient>
<radialGradient id="paint10_radial_3827_11910" cx="0" cy="0" r="1" gradientUnits="userSpaceOnUse" gradientTransform="translate(478.204 270.863) rotate(179.588) scale(77.6898 2.72515)">
<stop stop-color="#592097"/>
<stop offset="0.08" stop-color="#4D1C83"/>
<stop offset="0.3" stop-color="#321254"/>
<stop offset="0.5" stop-color="#1C0A30"/>
<stop offset="0.7" stop-color="#0D0515"/>
<stop offset="0.87" stop-color="#030106"/>
<stop offset="1"/>
</radialGradient>
<radialGradient id="paint11_radial_3827_11910" cx="0" cy="0" r="1" gradientUnits="userSpaceOnUse" gradientTransform="translate(608.17 363.173) rotate(-52.66) scale(195.213 79.4088)">
<stop stop-color="white"/>
<stop offset="0.02" stop-color="#EFEFEF"/>
<stop offset="0.12" stop-color="#B0B0B0"/>
<stop offset="0.21" stop-color="#7B7B7B"/>
<stop offset="0.3" stop-color="#4E4E4E"/>
<stop offset="0.38" stop-color="#2C2C2C"/>
<stop offset="0.47" stop-color="#131313"/>
<stop offset="0.54" stop-color="#050505"/>
<stop offset="0.6"/>
</radialGradient>
<radialGradient id="paint12_radial_3827_11910" cx="0" cy="0" r="1" gradientUnits="userSpaceOnUse" gradientTransform="translate(354.527 172.13) rotate(-52.66) scale(195.213 79.4088)">
<stop stop-color="white"/>
<stop offset="0.02" stop-color="#EFEFEF"/>
<stop offset="0.12" stop-color="#B0B0B0"/>
<stop offset="0.21" stop-color="#7B7B7B"/>
<stop offset="0.3" stop-color="#4E4E4E"/>
<stop offset="0.38" stop-color="#2C2C2C"/>
<stop offset="0.47" stop-color="#131313"/>
<stop offset="0.54" stop-color="#050505"/>
<stop offset="0.6"/>
</radialGradient>
<linearGradient id="paint13_linear_3827_11910" x1="241.085" y1="383.973" x2="241.085" y2="429.615" gradientUnits="userSpaceOnUse">
<stop stop-color="#4E2A7B"/>
<stop offset="1" stop-color="#4E2A7B" stop-opacity="0"/>
</linearGradient>
<linearGradient id="paint14_linear_3827_11910" x1="701.938" y1="102.954" x2="701.938" y2="164.114" gradientUnits="userSpaceOnUse">
<stop stop-color="#4E2A7B"/>
<stop offset="1" stop-color="#4E2A7B" stop-opacity="0"/>
</linearGradient>
<linearGradient id="paint15_linear_3827_11910" x1="218.526" y1="131.97" x2="218.526" y2="177.612" gradientUnits="userSpaceOnUse">
<stop stop-color="#4E2A7B"/>
<stop offset="1" stop-color="#4E2A7B" stop-opacity="0"/>
</linearGradient>
<linearGradient id="paint16_linear_3827_11910" x1="10.5" y1="19.8034" x2="10.5" y2="-7.92572" gradientUnits="userSpaceOnUse">
<stop stop-color="#4E2A7B"/>
<stop offset="1" stop-color="#4E2A7B" stop-opacity="0"/>
</linearGradient>
</defs>
</svg>
