<svg xmlns="http://www.w3.org/2000/svg" viewBox="0 300 1200 600">
  <defs>
    <style>
      .a {
        fill: #63a3ff;
      }

      .a, .b {
        opacity: 0.8;
      }

      .b {
        fill: #3791f4;
      }

      .c {
        fill: #378cff;
      }
    </style>
  </defs>
  <g>
    <g>
      <path class="a" d="M289.45,462.71c-1.93,10.81-14.74,28.71-22.54,33.69a50.35,50.35,0,0,1-30.76,7.81,48.12,48.12,0,0,1-5.31-.66,50.39,50.39,0,0,1-31.2-19,7.83,7.83,0,0,1,2.11-11.45l2.91-1.79A7.84,7.84,0,0,1,215,473.22a31.4,31.4,0,0,0,55.62-13.54,7.84,7.84,0,0,1,8.26-6.4h0l3.42.26a7.81,7.81,0,0,1,7.11,9.17Z"/>
      <path class="b" d="M298.85,628.64c-1.41,17.24-8.77,34.47-19.67,46.08a73.93,73.93,0,0,1-54.07,23.42c-1.88,0-3.77-.07-5.66-.21H219a6,6,0,0,1-1.5-.26,74.43,74.43,0,0,1-44.21-20.57,30.09,30.09,0,0,1-2.61-3.05c-1.14-1.43-3-3.72-5-6.57-3.54-4.81-8.35-11.8-11.19-17.82a8.5,8.5,0,0,1,7.14-12.08c1.44-.1,3-.26,4.81-.47l.13,0a8.53,8.53,0,0,1,8.92,5.16,51.26,51.26,0,0,0,9.24,14.69c.51.5,2.69,2.82,3.12,3.32a52.19,52.19,0,0,0,38.79,15.62c15.24-.48,29.33-7,38.65-17.93,8.91-10.43,12.83-24,11-38.19C274,601.39,260.4,582.93,244,575.85c-16.11-5.73-35.2-3.54-48.64,5.6l-2,1.33-1.79-1.53c-3.58-3-7.42-6-11.12-8.8l-5.2-4,3.06-2.47a74,74,0,0,1,84.47-6l.18.11.9.54a74.38,74.38,0,0,1,14.66,11.78C297.52,592.07,300.06,613.84,298.85,628.64Z"/>
      <path class="c" d="M225,455.05a73.95,73.95,0,1,0,74,73.94A74,74,0,0,0,225,455.05Zm52.28,74.09A52.28,52.28,0,1,1,225,476.86,52.34,52.34,0,0,1,277.26,529.14Z"/>
    </g>
    <path class="c" d="M366.71,523a13.3,13.3,0,0,1-4.29,9.93A14.64,14.64,0,0,1,351.89,537a14.3,14.3,0,0,1-10.24-4.09,13.34,13.34,0,0,1-4.29-9.93,13.68,13.68,0,0,1,4.29-10.21,14.34,14.34,0,0,1,10.24-4.09,14.69,14.69,0,0,1,10.53,4.09A13.64,13.64,0,0,1,366.71,523ZM355,554.93h-5.65c-5.41,0-8.77,3.18-8.77,8.29V686.1c0,5.11,3.36,8.29,8.77,8.29H355c5.41,0,8.77-3.18,8.77-8.29V563.22C363.77,558.11,360.41,554.93,355,554.93Z"/>
    <path class="c" d="M464.76,576.13c5.67,0,9.06-3.2,9.06-8.57v-4.34c0-5.36-3.39-8.56-9.06-8.56H443.62V517.93a14,14,0,0,0-1.14-5.73c-.46-1-2.33-4.26-7.36-3.33l-6.94,1.07c-4.85.57-7.75,3.56-7.75,8v36.73H404.37a10,10,0,0,0-6.14,1.63c-1.74,1.32-2.63,3.56-2.63,6.66v4.89c0,3.11.89,5.35,2.63,6.65a10,10,0,0,0,6.14,1.64h16.06V656c0,7.78.93,14.28,2.75,19.33a29.55,29.55,0,0,0,8.16,12.53,28.54,28.54,0,0,0,12.31,6.31,60.56,60.56,0,0,0,14.06,1.59h4.23a18.25,18.25,0,0,0,5.91-.87c1.28-.44,4.27-2,4.27-6.61v-7c0-5-3-6.41-4.28-6.8a18,18,0,0,0-5-.68h-5.2c-4.83-.48-8.38-2-10.57-4.52-1.55-1.79-3.4-6.2-3.4-17V576.13Z"/>
    <path class="c" d="M640.74,596.47a74.68,74.68,0,0,0-15.38-23.16,71.35,71.35,0,0,0-23.26-15.67A74.43,74.43,0,0,0,573,552a73.43,73.43,0,0,0-29,5.7,71.63,71.63,0,0,0-23.11,15.66,74.53,74.53,0,0,0-15.37,23.16,73.95,73.95,0,0,0,0,56.65,74.48,74.48,0,0,0,15.37,23.16A71.5,71.5,0,0,0,544,692a73.42,73.42,0,0,0,29,5.69A74.43,74.43,0,0,0,602.1,692a71.09,71.09,0,0,0,23.26-15.67,74.62,74.62,0,0,0,15.38-23.16,74.07,74.07,0,0,0,0-56.65Zm-17,28.33a51.3,51.3,0,0,1-3.84,19.72,50,50,0,0,1-10.57,16.13,50.9,50.9,0,0,1-16,10.93,51.66,51.66,0,0,1-40.15,0,50.84,50.84,0,0,1-16-10.93,50.16,50.16,0,0,1-10.57-16.14,52.66,52.66,0,0,1,0-39.43,50.16,50.16,0,0,1,10.57-16.14,51.06,51.06,0,0,1,16-10.93,51.78,51.78,0,0,1,40.15,0,51.17,51.17,0,0,1,16,10.93,50.11,50.11,0,0,1,10.57,16.14A51.3,51.3,0,0,1,623.75,624.8Z"/>
    <path class="c" d="M812.83,595.15a74.55,74.55,0,0,0-14.79-23,69.48,69.48,0,0,0-22.1-15.55,66.7,66.7,0,0,0-27.35-5.72,74.25,74.25,0,0,0-22.35,3,62.61,62.61,0,0,0-15.81,7.34A50.06,50.06,0,0,0,700.2,570l-.13-7.86c0-4.45-2.93-7.21-7.64-7.21h-6.77c-4,0-8.21,2-8.21,7.48V739a10.34,10.34,0,0,0,.95,4.83c.69,1.33,2.27,2.92,5.85,2.92H693c3.31,0,5.49-1.07,6.49-3.2a10.93,10.93,0,0,0,.87-4.55V673.17a67.57,67.57,0,0,0,13.94,13.26c9.1,6.54,20.64,9.86,34.3,9.86a66.7,66.7,0,0,0,27.35-5.72A69.39,69.39,0,0,0,798,675a75,75,0,0,0,20.27-51.58A73.51,73.51,0,0,0,812.83,595.15Zm-21.54,48.09A52.45,52.45,0,0,1,781,659.38a49.42,49.42,0,0,1-15.19,10.89,43.83,43.83,0,0,1-36.63,0,51.46,51.46,0,0,1,0-93.38,43.73,43.73,0,0,1,36.63,0A49.39,49.39,0,0,1,781,587.77a52.57,52.57,0,0,1,10.33,16.14,52.27,52.27,0,0,1,0,39.33Z"/>
    <path class="c" d="M875.92,523a13.33,13.33,0,0,1-4.28,9.93A14.66,14.66,0,0,1,861.11,537a14.32,14.32,0,0,1-10.25-4.09,13.33,13.33,0,0,1-4.28-9.93,13.67,13.67,0,0,1,4.28-10.21,14.36,14.36,0,0,1,10.25-4.09,14.7,14.7,0,0,1,10.53,4.09A13.67,13.67,0,0,1,875.92,523Zm-11.71,31.95h-5.64c-5.41,0-8.77,3.18-8.77,8.29V686.1c0,5.11,3.36,8.29,8.77,8.29h5.64c5.41,0,8.77-3.18,8.77-8.29V563.22C873,558.11,869.62,554.93,864.21,554.93Z"/>
    <path class="c" d="M1041,554.93h-5.93c-3.31,0-5.61,1-6.84,3a12.7,12.7,0,0,0-1.63,5.52l-.25,9.81c-.35-.46-.71-.91-1.09-1.35a51.66,51.66,0,0,0-12.38-10.6,60.67,60.67,0,0,0-16.14-6.91A71.58,71.58,0,0,0,978.11,552a70,70,0,0,0-28.18,5.71,70.74,70.74,0,0,0-22.67,15.67,71.47,71.47,0,0,0-15,23.35A76.41,76.41,0,0,0,907,625.07a73.64,73.64,0,0,0,20.43,51.32,70,70,0,0,0,50.71,21.25c13,0,24.5-3,34.22-8.9a47.05,47.05,0,0,0,13.73-12.46v9.82a10.12,10.12,0,0,0,1.25,5.64c1.53,2.38,4.54,2.65,6.67,2.65h6.78c5.06,0,8.2-3,8.2-7.75V563.77C1049,559.5,1046.88,554.93,1041,554.93ZM978.11,675.64a46,46,0,0,1-19.32-4,48.9,48.9,0,0,1-15.31-10.91,51.17,51.17,0,0,1-10.19-16,52.06,52.06,0,0,1-3.7-19.6,54.86,54.86,0,0,1,3.59-19.8,50.44,50.44,0,0,1,10-16.27,47.71,47.71,0,0,1,15.41-11,47.1,47.1,0,0,1,19.48-4,45.78,45.78,0,0,1,34.44,15,51.86,51.86,0,0,1,9.93,16.29,56.88,56.88,0,0,1,0,39.72,50.3,50.3,0,0,1-9.91,16,45.68,45.68,0,0,1-15.11,10.73A47.35,47.35,0,0,1,978.11,675.64Z"/>
  </g>
</svg>
