<svg width="314" height="95" viewBox="0 0 314 95" fill="none" xmlns="http://www.w3.org/2000/svg">
<path d="M198.631 57.6277H205.75C217.387 57.6277 226.82 48.1943 226.82 36.5577V36.5577C226.82 24.921 217.387 15.4877 205.75 15.4877V15.4877C194.114 15.4877 184.68 24.921 184.68 36.5577V62.9723" stroke="#19192F" stroke-width="10.535"/>
<path d="M293.786 57.6277H286.667C275.031 57.6277 265.597 48.1943 265.597 36.5577V36.5577C265.597 24.921 275.031 15.4877 286.667 15.4877V15.4877C298.304 15.4877 307.737 24.921 307.737 36.5577V62.9723" stroke="#19192F" stroke-width="10.535"/>
<circle cx="26.7031" cy="36.5583" r="21.07" stroke="#19192F" stroke-width="10.535"/>
<path d="M47.7763 68.163C47.7763 73.7511 45.5565 79.1103 41.6051 83.0617C37.6537 87.0131 32.2944 89.233 26.7063 89.233C21.1182 89.233 15.759 87.0131 11.8076 83.0617C7.85622 79.1103 5.63635 73.7511 5.63635 68.163" stroke="#19192F" stroke-width="10.535"/>
<rect x="65.5493" y="22.9054" width="11.2387" height="40.4593" fill="#19192F"/>
<path d="M94.7711 11.6667V41.9226C94.7711 50.6613 101.855 57.7454 110.594 57.7454H112.753" stroke="#19192F" stroke-width="11.2387"/>
<rect width="11.2387" height="11.2387" transform="matrix(1 0 0 -1 65.5493 11.6667)" fill="#19192F"/>
<rect x="240.873" y="22.9054" width="11.2387" height="40.4593" fill="#19192F"/>
<rect width="11.2387" height="11.2387" transform="matrix(1 0 0 -1 240.873 11.6667)" fill="#19192F"/>
<path fill-rule="evenodd" clip-rule="evenodd" d="M161.636 38.0042C161.636 46.7317 154.561 53.8067 145.833 53.8067C137.106 53.8067 130.031 46.7317 130.031 38.0042C130.031 29.2768 137.106 22.2017 145.833 22.2017C154.561 22.2017 161.636 29.2768 161.636 38.0042ZM172.171 38.0042C172.171 52.55 160.379 64.3417 145.833 64.3417C131.287 64.3417 119.496 52.55 119.496 38.0042C119.496 23.4584 131.287 11.6667 145.833 11.6667C160.379 11.6667 172.171 23.4584 172.171 38.0042Z" fill="#19192F"/>
<rect x="100.39" y="22.9054" width="11.2387" height="11.2387" fill="#19192F"/>
</svg>
