<svg width="308" height="95" viewBox="0 0 308 95" fill="none" xmlns="http://www.w3.org/2000/svg">
<path d="M192.898 57.2506H200.205C211.738 57.2506 221.087 47.9017 221.087 36.3691V36.3691C221.087 24.8366 211.644 15.4877 200.111 15.4877V15.4877C188.475 15.4877 178.947 24.921 178.947 36.5577V89.9236" stroke="white" stroke-width="11.3645"/>
<path d="M288.053 57.2506H280.745C269.213 57.2506 259.864 47.9017 259.864 36.3691V36.3691C259.864 24.8366 269.306 15.4877 280.839 15.4877V15.4877C292.476 15.4877 302.004 24.921 302.004 36.5577V62.9723" stroke="white" stroke-width="11.3645"/>
<circle cx="29.4351" cy="36.6524" r="20.5982" stroke="white" stroke-width="11.3645"/>
<path d="M50.566 68.163C50.566 73.7511 48.3461 79.1103 44.3947 83.0617C40.4434 87.0131 35.0841 89.233 29.496 89.233C23.9079 89.233 18.5487 87.0131 14.5973 83.0617C10.6459 79.1103 8.42602 73.7511 8.42602 68.163" stroke="white" stroke-width="10.535"/>
<path d="M89.8091 10.3719V41.4278C89.8091 50.1665 96.8933 57.2506 105.632 57.2506H107.791" stroke="white" stroke-width="11.2387"/>
<rect x="234.707" y="30.2599" width="11.3645" height="33.3833" fill="white"/>
<rect width="11.3645" height="11.3645" transform="matrix(1 0 0 -1 234.707 21.7365)" fill="white"/>
<rect x="64.239" y="30.2599" width="11.3645" height="32.673" fill="white"/>
<rect width="11.3645" height="11.3645" transform="matrix(1 0 0 -1 64.239 21.7365)" fill="white"/>
<path fill-rule="evenodd" clip-rule="evenodd" d="M156.576 37.3627C156.576 45.9928 149.58 52.9889 140.949 52.9889C132.319 52.9889 125.323 45.9928 125.323 37.3627C125.323 28.7326 132.319 21.7365 140.949 21.7365C149.58 21.7365 156.576 28.7326 156.576 37.3627ZM167.94 37.3627C167.94 52.2693 155.856 64.3535 140.949 64.3535C126.043 64.3535 113.959 52.2693 113.959 37.3627C113.959 22.4561 126.043 10.3719 140.949 10.3719C155.856 10.3719 167.94 22.4561 167.94 37.3627Z" fill="white"/>
<rect x="95.4276" y="22.9053" width="11.2387" height="11.2387" fill="white"/>
</svg>
