<svg width="313" height="95" viewBox="0 0 313 95" fill="none" xmlns="http://www.w3.org/2000/svg">
<path d="M198.58 57.6277H205.699C217.335 57.6277 226.769 48.1943 226.769 36.5577V36.5577C226.769 24.921 217.335 15.4877 205.699 15.4877V15.4877C194.062 15.4877 184.629 24.921 184.629 36.5577V62.9723" stroke="white" stroke-width="10.535"/>
<path d="M293.735 57.6277H286.616C274.979 57.6277 265.546 48.1943 265.546 36.5577V36.5577C265.546 24.921 274.979 15.4877 286.616 15.4877V15.4877C298.252 15.4877 307.686 24.921 307.686 36.5577V62.9723" stroke="white" stroke-width="10.535"/>
<circle cx="26.6513" cy="36.5583" r="21.07" stroke="white" stroke-width="10.535"/>
<path d="M47.7246 68.163C47.7246 73.7511 45.5047 79.1103 41.5533 83.0617C37.6019 87.0131 32.2427 89.233 26.6546 89.233C21.0665 89.233 15.7072 87.0131 11.7558 83.0617C7.80446 79.1103 5.58459 73.7511 5.58459 68.163" stroke="white" stroke-width="10.535"/>
<rect x="65.4976" y="22.9054" width="11.2387" height="40.4593" fill="white"/>
<path d="M94.7194 11.6667V41.9226C94.7194 50.6613 101.803 57.7454 110.542 57.7454H112.701" stroke="white" stroke-width="11.2387"/>
<rect width="11.2387" height="11.2387" transform="matrix(1 0 0 -1 65.4976 11.6667)" fill="white"/>
<rect x="240.821" y="22.9054" width="11.2387" height="40.4593" fill="white"/>
<rect width="11.2387" height="11.2387" transform="matrix(1 0 0 -1 240.821 11.6667)" fill="white"/>
<path fill-rule="evenodd" clip-rule="evenodd" d="M161.584 38.0042C161.584 46.7317 154.509 53.8067 145.782 53.8067C137.054 53.8067 129.979 46.7317 129.979 38.0042C129.979 29.2768 137.054 22.2017 145.782 22.2017C154.509 22.2017 161.584 29.2768 161.584 38.0042ZM172.119 38.0042C172.119 52.55 160.327 64.3417 145.782 64.3417C131.236 64.3417 119.444 52.55 119.444 38.0042C119.444 23.4584 131.236 11.6667 145.782 11.6667C160.327 11.6667 172.119 23.4584 172.119 38.0042Z" fill="white"/>
<rect x="100.338" y="22.9054" width="11.2387" height="11.2387" fill="white"/>
</svg>
