<svg width="375" height="812" viewBox="0 0 375 812" fill="none" xmlns="http://www.w3.org/2000/svg">
<g opacity="0.47">
<path opacity="0.89" d="M56.3707 26.1699L57.3747 28.0049L59.2097 29.009L57.3747 30.013L56.3707 31.848L55.3666 30.013L53.5316 29.009L55.3666 28.0049L56.3707 26.1699Z" fill="#FEA7AF"/>
<path opacity="0.33" d="M84.1035 801.542L85.9385 804.9L89.3316 806.77L85.9385 808.605L84.1035 811.998L82.2685 808.605L78.8756 806.77L82.2685 804.9L84.1035 801.542Z" fill="#FEA7AF"/>
<path d="M8.41852 468.855L10.1496 472.041L13.3349 473.772L10.1496 475.503L8.41852 478.688L6.65274 475.503L3.46753 473.772L6.65274 472.041L8.41852 468.855Z" fill="#FEA7AF"/>
<path opacity="0.29" d="M158.888 188.966L160.516 191.943L163.493 193.571L160.516 195.198L158.888 198.21L157.261 195.198L154.249 193.571L157.261 191.943L158.888 188.966Z" fill="#FEA7AF"/>
<path opacity="0.29" d="M345.988 474.082L347.615 477.06L350.627 478.687L347.615 480.314L345.988 483.326L344.361 480.314L341.383 478.687L344.361 477.06L345.988 474.082Z" fill="white"/>
<path opacity="0.29" d="M231.803 73.2207L233.465 76.2329L236.442 77.8601L233.465 79.4874L231.803 82.4649L230.176 79.4874L227.198 77.8601L230.176 76.2329L231.803 73.2207Z" fill="white"/>
<path opacity="0.32" d="M156.306 577.335L158.248 580.935L161.848 582.924L158.248 584.866L156.306 588.466L154.317 584.866L150.717 582.924L154.317 580.935L156.306 577.335Z" fill="white"/>
<path opacity="0.33" d="M207.706 257.831L209.16 260.462L211.791 261.917L209.16 263.336L207.706 265.967L206.286 263.336L203.655 261.917L206.286 260.462L207.706 257.831Z" fill="white"/>
<path opacity="0.33" d="M99.7877 704.876L101.657 708.269L105.016 710.104L101.657 711.974L99.7877 715.367L97.9528 711.974L94.5598 710.104L97.9528 708.269L99.7877 704.876Z" fill="#FEA7AF"/>
<path opacity="0.33" d="M89.3315 325.171L91.2012 328.564L94.5596 330.399L91.2012 332.269L89.3315 335.627L87.4966 332.269L84.1035 330.399L87.4966 328.564L89.3315 325.171Z" fill="#FEA7AF"/>
</g>
</svg>
