<svg width="414" height="443" viewBox="0 0 414 443" fill="none" xmlns="http://www.w3.org/2000/svg">
<g opacity="0.2">
<path opacity="0.3" fill-rule="evenodd" clip-rule="evenodd" d="M370.713 312.114C360.09 286.469 354.622 258.982 354.622 231.223L354.633 231.223C354.624 211.816 350.797 192.601 343.37 174.67C335.934 156.718 325.035 140.407 311.296 126.667C297.556 112.927 281.244 102.029 263.293 94.5926C245.341 87.1567 226.1 83.3295 206.669 83.3295C187.239 83.3297 167.999 87.1569 150.047 94.5926C132.095 102.028 115.784 112.927 102.044 126.667C88.3043 140.407 77.4054 156.718 69.9694 174.67C62.5336 192.622 58.7064 211.863 58.7064 231.294L-4.70692 231.294C-4.70692 203.535 0.760491 176.049 11.3832 150.403C22.0059 124.758 37.5759 101.455 57.2041 81.8273C76.8323 62.1991 100.134 46.6291 125.78 36.0064C151.425 25.3837 178.912 19.9162 206.671 19.9162L206.669 19.9163L401.956 150.403C412.579 176.049 418.047 203.535 418.047 231.294L418.036 231.294C418.045 250.701 421.872 269.917 429.299 287.847C436.735 305.799 447.634 322.11 461.373 335.85C475.113 349.59 491.425 360.489 509.377 367.925C527.328 375.361 546.569 379.188 566 379.188L566 442.601C538.241 442.601 510.755 437.134 485.109 426.511C459.464 415.888 436.162 400.318 416.534 380.69C396.905 361.062 381.335 337.76 370.713 312.114ZM401.956 150.403C391.334 124.758 375.764 101.456 356.136 81.8273C336.507 62.1991 313.205 46.6291 287.56 36.0064C261.915 25.3839 234.429 19.9164 206.671 19.9162L401.956 150.403ZM58.6884 231.294C58.6884 259.053 53.2209 286.539 42.5982 312.185C31.9754 337.83 16.4055 361.132 -3.22273 380.761C-22.8509 400.389 -46.153 415.959 -71.7985 426.581C-97.444 437.204 -124.931 442.672 -152.689 442.672L-152.689 379.258C-133.258 379.258 -114.018 375.431 -96.0657 367.995C-78.1138 360.559 -61.8024 349.66 -48.0626 335.921C-34.3229 322.181 -23.4239 305.869 -15.988 287.918C-8.55213 269.966 -4.72492 250.725 -4.72492 231.294L58.6884 231.294Z" fill="url(#paint0_linear_3325_6983)"/>
<mask id="mask0_3325_6983" style="mask-type:alpha" maskUnits="userSpaceOnUse" x="-153" y="19" width="719" height="424">
<path opacity="0.3" fill-rule="evenodd" clip-rule="evenodd" d="M370.713 312.114C360.09 286.469 354.622 258.982 354.622 231.223L354.633 231.223C354.624 211.816 350.797 192.601 343.37 174.67C335.934 156.718 325.035 140.407 311.296 126.667C297.556 112.927 281.244 102.029 263.293 94.5926C245.341 87.1567 226.1 83.3295 206.669 83.3295C187.239 83.3297 167.999 87.1569 150.047 94.5926C132.095 102.028 115.784 112.927 102.044 126.667C88.3043 140.407 77.4054 156.718 69.9694 174.67C62.5336 192.622 58.7064 211.863 58.7064 231.294L-4.70692 231.294C-4.70692 203.535 0.760491 176.049 11.3832 150.403C22.0059 124.758 37.5759 101.455 57.2041 81.8273C76.8323 62.1991 100.134 46.6291 125.78 36.0064C151.425 25.3837 178.912 19.9162 206.671 19.9162L206.669 19.9163L401.956 150.403C412.579 176.049 418.047 203.535 418.047 231.294L418.036 231.294C418.045 250.701 421.872 269.917 429.299 287.847C436.735 305.799 447.634 322.11 461.373 335.85C475.113 349.59 491.425 360.489 509.377 367.925C527.328 375.361 546.569 379.188 566 379.188L566 442.601C538.241 442.601 510.755 437.134 485.109 426.511C459.464 415.888 436.162 400.318 416.534 380.69C396.905 361.062 381.335 337.76 370.713 312.114ZM401.956 150.403C391.334 124.758 375.764 101.456 356.136 81.8273C336.507 62.1991 313.205 46.6291 287.56 36.0064C261.915 25.3839 234.429 19.9164 206.671 19.9162L401.956 150.403ZM58.6884 231.294C58.6884 259.053 53.2209 286.539 42.5982 312.185C31.9754 337.83 16.4055 361.132 -3.22273 380.761C-22.8509 400.389 -46.153 415.959 -71.7985 426.581C-97.444 437.204 -124.931 442.672 -152.689 442.672L-152.689 379.258C-133.258 379.258 -114.018 375.431 -96.0657 367.995C-78.1138 360.559 -61.8024 349.66 -48.0626 335.921C-34.3229 322.181 -23.4239 305.869 -15.988 287.918C-8.55213 269.966 -4.72492 250.725 -4.72492 231.294L58.6884 231.294Z" fill="url(#paint1_linear_3325_6983)"/>
</mask>
<g mask="url(#mask0_3325_6983)">
<g filter="url(#filter0_f_3325_6983)">
<circle cx="522.255" cy="399.418" r="87.0027" transform="rotate(90 522.255 399.418)" fill="#8C49E1"/>
</g>
<g filter="url(#filter1_f_3325_6983)">
<circle cx="346.623" cy="152.856" r="87.0027" transform="rotate(90 346.623 152.856)" fill="#2EDDE9"/>
</g>
</g>
<path opacity="0.3" fill-rule="evenodd" clip-rule="evenodd" d="M370.713 312.114C360.09 286.469 354.622 258.982 354.622 231.223L354.633 231.223C354.624 211.816 350.797 192.601 343.37 174.67C335.934 156.718 325.035 140.407 311.296 126.667C297.556 112.927 281.244 102.029 263.293 94.5926C245.341 87.1567 226.1 83.3295 206.669 83.3295C187.239 83.3297 167.999 87.1569 150.047 94.5926C132.095 102.028 115.784 112.927 102.044 126.667C88.3043 140.407 77.4054 156.718 69.9694 174.67C62.5336 192.622 58.7064 211.863 58.7064 231.294L-4.70692 231.294C-4.70692 203.535 0.760491 176.049 11.3832 150.403C22.0059 124.758 37.5759 101.455 57.2041 81.8273C76.8323 62.1991 100.134 46.6291 125.78 36.0064C151.425 25.3837 178.912 19.9162 206.671 19.9162L206.669 19.9163L401.956 150.403C412.579 176.049 418.047 203.535 418.047 231.294L418.036 231.294C418.045 250.701 421.872 269.917 429.299 287.847C436.735 305.799 447.634 322.11 461.373 335.85C475.113 349.59 491.425 360.489 509.377 367.925C527.328 375.361 546.569 379.188 566 379.188L566 442.601C538.241 442.601 510.755 437.134 485.109 426.511C459.464 415.888 436.162 400.318 416.534 380.69C396.905 361.062 381.335 337.76 370.713 312.114ZM401.956 150.403C391.334 124.758 375.764 101.456 356.136 81.8273C336.507 62.1991 313.205 46.6291 287.56 36.0064C261.915 25.3839 234.429 19.9164 206.671 19.9162L401.956 150.403ZM58.6884 231.294C58.6884 259.053 53.2209 286.539 42.5982 312.185C31.9754 337.83 16.4055 361.132 -3.22273 380.761C-22.8509 400.389 -46.153 415.959 -71.7985 426.581C-97.444 437.204 -124.931 442.672 -152.689 442.672L-152.689 379.258C-133.258 379.258 -114.018 375.431 -96.0657 367.995C-78.1138 360.559 -61.8024 349.66 -48.0626 335.921C-34.3229 322.181 -23.4239 305.869 -15.988 287.918C-8.55213 269.966 -4.72492 250.725 -4.72492 231.294L58.6884 231.294Z" fill="url(#paint2_linear_3325_6983)"/>
<mask id="mask1_3325_6983" style="mask-type:alpha" maskUnits="userSpaceOnUse" x="-153" y="19" width="719" height="424">
<path opacity="0.3" fill-rule="evenodd" clip-rule="evenodd" d="M370.713 312.114C360.09 286.469 354.622 258.982 354.622 231.223L354.633 231.223C354.624 211.816 350.797 192.601 343.37 174.67C335.934 156.718 325.035 140.407 311.296 126.667C297.556 112.927 281.244 102.029 263.293 94.5926C245.341 87.1567 226.1 83.3295 206.669 83.3295C187.239 83.3297 167.999 87.1569 150.047 94.5926C132.095 102.028 115.784 112.927 102.044 126.667C88.3043 140.407 77.4054 156.718 69.9694 174.67C62.5336 192.622 58.7064 211.863 58.7064 231.294L-4.70692 231.294C-4.70692 203.535 0.760491 176.049 11.3832 150.403C22.0059 124.758 37.5759 101.455 57.2041 81.8273C76.8323 62.1991 100.134 46.6291 125.78 36.0064C151.425 25.3837 178.912 19.9162 206.671 19.9162L206.669 19.9163L401.956 150.403C412.579 176.049 418.047 203.535 418.047 231.294L418.036 231.294C418.045 250.701 421.872 269.917 429.299 287.847C436.735 305.799 447.634 322.11 461.373 335.85C475.113 349.59 491.425 360.489 509.377 367.925C527.328 375.361 546.569 379.188 566 379.188L566 442.601C538.241 442.601 510.755 437.134 485.109 426.511C459.464 415.888 436.162 400.318 416.534 380.69C396.905 361.062 381.335 337.76 370.713 312.114ZM401.956 150.403C391.334 124.758 375.764 101.456 356.136 81.8273C336.507 62.1991 313.205 46.6291 287.56 36.0064C261.915 25.3839 234.429 19.9164 206.671 19.9162L401.956 150.403ZM58.6884 231.294C58.6884 259.053 53.2209 286.539 42.5982 312.185C31.9754 337.83 16.4055 361.132 -3.22273 380.761C-22.8509 400.389 -46.153 415.959 -71.7985 426.581C-97.444 437.204 -124.931 442.672 -152.689 442.672L-152.689 379.258C-133.258 379.258 -114.018 375.431 -96.0657 367.995C-78.1138 360.559 -61.8024 349.66 -48.0626 335.921C-34.3229 322.181 -23.4239 305.869 -15.988 287.918C-8.55213 269.966 -4.72492 250.725 -4.72492 231.294L58.6884 231.294Z" fill="url(#paint3_linear_3325_6983)"/>
</mask>
<g mask="url(#mask1_3325_6983)">
<g filter="url(#filter2_f_3325_6983)">
<circle cx="-8.42254" cy="328.294" r="87.0027" transform="rotate(90 -8.42254 328.294)" fill="#49B4E1"/>
</g>
</g>
<path opacity="0.3" fill-rule="evenodd" clip-rule="evenodd" d="M371.068 151.004C360.464 176.603 355.007 204.039 355.007 231.747L355.018 231.747C355.008 251.119 351.188 270.3 343.775 288.198C336.353 306.117 325.474 322.399 311.759 336.114C298.044 349.829 281.762 360.708 263.843 368.13C245.924 375.552 226.719 379.372 207.324 379.373C187.928 379.373 168.722 375.552 150.803 368.13C132.884 360.708 116.602 349.828 102.887 336.114C89.1727 322.399 78.2936 306.117 70.8712 288.198C63.4488 270.279 59.6285 251.073 59.6285 231.677L-3.66942 231.677C-3.66943 259.385 1.78803 286.822 12.3914 312.421C22.9949 338.02 38.5365 361.28 58.1291 380.872C77.7216 400.465 100.981 416.006 126.58 426.61C152.179 437.213 179.615 442.67 207.322 442.671L207.322 442.671C235.03 442.671 262.467 437.213 288.066 426.61C313.665 416.006 336.925 400.465 356.517 380.872C376.11 361.28 391.651 338.02 402.255 312.421C412.858 286.822 418.316 259.385 418.316 231.677L418.305 231.677C418.314 212.306 422.134 193.125 429.547 175.227C436.97 157.308 447.849 141.026 461.564 127.311C475.278 113.596 491.56 102.717 509.479 95.2948C527.399 87.8725 546.604 84.0522 566 84.0522L566 20.7542C538.292 20.7542 510.855 26.2118 485.256 36.8152C459.658 47.4185 436.398 62.9602 416.805 82.5527C397.213 102.145 381.671 125.405 371.068 151.004ZM59.6105 231.677C59.6105 203.969 54.153 176.533 43.5496 150.934C32.9462 125.335 17.4046 102.075 -2.18797 82.4825C-21.7805 62.89 -45.0403 47.3484 -70.6391 36.745C-96.238 26.1416 -123.675 20.6841 -151.383 20.6841L-151.383 83.982C-131.987 83.982 -112.781 87.8023 -94.8622 95.2246C-76.943 102.647 -60.6612 113.526 -46.9464 127.241C-33.2316 140.956 -22.3525 157.238 -14.9301 175.157C-7.50774 193.076 -3.68749 212.282 -3.68749 231.677L59.6105 231.677Z" fill="url(#paint4_linear_3325_6983)"/>
<path opacity="0.3" fill-rule="evenodd" clip-rule="evenodd" d="M42.5998 131.437C53.2225 157.082 58.69 184.569 58.69 212.327L58.6784 212.327C58.6876 231.734 62.5145 250.95 69.9415 268.88C77.3774 286.832 88.2763 303.144 102.016 316.884C115.756 330.623 132.067 341.522 150.019 348.958C167.971 356.394 187.212 360.221 206.643 360.221C226.072 360.221 245.312 356.394 263.263 348.958C281.215 341.522 297.526 330.623 311.266 316.884C325.006 303.144 335.905 286.832 343.34 268.881C350.776 250.929 354.604 231.688 354.604 212.257L418.017 212.257C418.017 240.016 412.549 267.502 401.927 293.148C391.304 318.793 375.734 342.095 356.106 361.724C336.478 381.352 313.175 396.922 287.53 407.544C261.884 418.167 234.398 423.635 206.639 423.635L206.643 423.635L11.3553 293.148C0.732551 267.502 -4.73489 240.015 -4.73488 212.257L-4.72332 212.257C-4.73253 192.85 -8.55947 173.634 -15.9864 155.704C-23.4223 137.752 -34.3213 121.441 -48.061 107.701C-61.8008 93.961 -78.1122 83.062 -96.0641 75.6261C-114.016 68.1902 -133.257 64.363 -152.688 64.363L-152.688 0.949768C-124.929 0.949769 -97.4424 6.41721 -71.7969 17.04C-46.1514 27.6627 -22.8493 43.2326 -3.22107 62.8608C16.4071 82.4891 31.9771 105.791 42.5998 131.437ZM11.3553 293.148C21.978 318.793 37.5479 342.095 57.1761 361.723C76.8044 381.352 100.106 396.922 125.752 407.544C151.396 418.167 178.882 423.634 206.639 423.635L11.3553 293.148ZM354.623 212.257C354.623 184.498 360.09 157.012 370.713 131.366C381.335 105.721 396.905 82.4185 416.534 62.7902C436.162 43.162 459.464 27.5921 485.109 16.9694C510.755 6.34665 538.242 0.879211 566 0.879212L566 64.2925C546.569 64.2925 527.328 68.1197 509.377 75.5556C491.425 82.9915 475.113 93.8904 461.374 107.63C447.634 121.37 436.735 137.681 429.299 155.633C421.863 173.585 418.036 192.826 418.036 212.257L354.623 212.257Z" fill="url(#paint5_linear_3325_6983)"/>
<path opacity="0.3" fill-rule="evenodd" clip-rule="evenodd" d="M42.5998 131.437C53.2225 157.082 58.69 184.569 58.69 212.327L58.6784 212.327C58.6876 231.734 62.5145 250.95 69.9415 268.88C77.3774 286.832 88.2763 303.144 102.016 316.884C115.756 330.623 132.067 341.522 150.019 348.958C167.971 356.394 187.212 360.221 206.643 360.221C226.072 360.221 245.312 356.394 263.263 348.958C281.215 341.522 297.526 330.623 311.266 316.884C325.006 303.144 335.905 286.832 343.34 268.881C350.776 250.929 354.604 231.688 354.604 212.257L418.017 212.257C418.017 240.016 412.549 267.502 401.927 293.148C391.304 318.793 375.734 342.095 356.106 361.724C336.478 381.352 313.175 396.922 287.53 407.544C261.884 418.167 234.398 423.635 206.639 423.635L206.643 423.635L11.3553 293.148C0.732551 267.502 -4.73489 240.015 -4.73488 212.257L-4.72332 212.257C-4.73253 192.85 -8.55947 173.634 -15.9864 155.704C-23.4223 137.752 -34.3213 121.441 -48.061 107.701C-61.8008 93.961 -78.1122 83.062 -96.0641 75.6261C-114.016 68.1902 -133.257 64.363 -152.688 64.363L-152.688 0.949768C-124.929 0.949769 -97.4424 6.41721 -71.7969 17.04C-46.1514 27.6627 -22.8493 43.2326 -3.22107 62.8608C16.4071 82.4891 31.9771 105.791 42.5998 131.437ZM11.3553 293.148C21.978 318.793 37.5479 342.095 57.1761 361.723C76.8044 381.352 100.106 396.922 125.752 407.544C151.396 418.167 178.882 423.634 206.639 423.635L11.3553 293.148ZM354.623 212.257C354.623 184.498 360.09 157.012 370.713 131.366C381.335 105.721 396.905 82.4185 416.534 62.7902C436.162 43.162 459.464 27.5921 485.109 16.9694C510.755 6.34665 538.242 0.879211 566 0.879212L566 64.2925C546.569 64.2925 527.328 68.1197 509.377 75.5556C491.425 82.9915 475.113 93.8904 461.374 107.63C447.634 121.37 436.735 137.681 429.299 155.633C421.863 173.585 418.036 192.826 418.036 212.257L354.623 212.257Z" fill="url(#paint6_linear_3325_6983)"/>
</g>
<defs>
<filter id="filter0_f_3325_6983" x="359.922" y="237.085" width="324.666" height="324.665" filterUnits="userSpaceOnUse" color-interpolation-filters="sRGB">
<feFlood flood-opacity="0" result="BackgroundImageFix"/>
<feBlend mode="normal" in="SourceGraphic" in2="BackgroundImageFix" result="shape"/>
<feGaussianBlur stdDeviation="37.665" result="effect1_foregroundBlur_3325_6983"/>
</filter>
<filter id="filter1_f_3325_6983" x="184.29" y="-9.47727" width="324.666" height="324.665" filterUnits="userSpaceOnUse" color-interpolation-filters="sRGB">
<feFlood flood-opacity="0" result="BackgroundImageFix"/>
<feBlend mode="normal" in="SourceGraphic" in2="BackgroundImageFix" result="shape"/>
<feGaussianBlur stdDeviation="37.665" result="effect1_foregroundBlur_3325_6983"/>
</filter>
<filter id="filter2_f_3325_6983" x="-170.755" y="165.961" width="324.666" height="324.665" filterUnits="userSpaceOnUse" color-interpolation-filters="sRGB">
<feFlood flood-opacity="0" result="BackgroundImageFix"/>
<feBlend mode="normal" in="SourceGraphic" in2="BackgroundImageFix" result="shape"/>
<feGaussianBlur stdDeviation="37.665" result="effect1_foregroundBlur_3325_6983"/>
</filter>
<linearGradient id="paint0_linear_3325_6983" x1="588.003" y1="411.514" x2="206.656" y2="185.836" gradientUnits="userSpaceOnUse">
<stop stop-color="white"/>
<stop offset="1" stop-color="white" stop-opacity="0"/>
</linearGradient>
<linearGradient id="paint1_linear_3325_6983" x1="588.003" y1="411.514" x2="206.656" y2="185.836" gradientUnits="userSpaceOnUse">
<stop stop-color="white"/>
<stop offset="1" stop-color="white" stop-opacity="0"/>
</linearGradient>
<linearGradient id="paint2_linear_3325_6983" x1="-152.689" y1="490.796" x2="169.722" y2="112.655" gradientUnits="userSpaceOnUse">
<stop stop-color="white"/>
<stop offset="1" stop-color="white" stop-opacity="0"/>
</linearGradient>
<linearGradient id="paint3_linear_3325_6983" x1="-152.689" y1="490.796" x2="169.722" y2="112.655" gradientUnits="userSpaceOnUse">
<stop stop-color="white"/>
<stop offset="1" stop-color="white" stop-opacity="0"/>
</linearGradient>
<linearGradient id="paint4_linear_3325_6983" x1="-119.9" y1="44.9767" x2="10.8691" y2="118.823" gradientUnits="userSpaceOnUse">
<stop stop-color="white"/>
<stop offset="1" stop-color="white" stop-opacity="0"/>
</linearGradient>
<linearGradient id="paint5_linear_3325_6983" x1="490.445" y1="-25.948" x2="398.658" y2="141.205" gradientUnits="userSpaceOnUse">
<stop stop-color="white"/>
<stop offset="1" stop-color="white" stop-opacity="0"/>
</linearGradient>
<linearGradient id="paint6_linear_3325_6983" x1="46.3902" y1="326.438" x2="364.252" y2="316.914" gradientUnits="userSpaceOnUse">
<stop stop-color="white" stop-opacity="0"/>
<stop offset="0.489583" stop-color="white"/>
<stop offset="0.96875" stop-color="white" stop-opacity="0"/>
</linearGradient>
</defs>
</svg>
