<svg width="978" height="229" viewBox="0 0 978 229" fill="none" xmlns="http://www.w3.org/2000/svg">
<g clip-path="url(#clip0)">
<rect x="0.677101" y="1.48199" width="53.3582" height="34.9606" transform="matrix(0.866025 0.5 -0.188924 0.981992 566.353 46.6881)" fill="#1A2028" stroke="#5B6482" stroke-width="2"/>
<rect width="36.8842" height="2.06898" transform="matrix(0.866025 0.5 -0.188924 0.981992 567.508 57.8047)" fill="#5B6482"/>
<rect width="32.6746" height="2.06898" transform="matrix(0.866025 0.5 -0.188924 0.981992 566.486 63.1211)" fill="#5B6482"/>
<path d="M565.186 52.5352L612.538 79.8736" stroke="#5B6482" stroke-width="2"/>
<path d="M179.007 96.3809C181.378 99.6996 448.262 255.8 581.408 333.436" stroke="url(#paint0_radial)"/>
<path d="M244.79 41.8574C247.16 45.1762 514.045 201.277 647.19 278.912" stroke="url(#paint1_radial)"/>
<path d="M333.686 1.55859C336.056 4.87736 602.941 160.978 736.086 238.613" stroke="url(#paint2_radial)"/>
<path d="M423.765 -56.5195C426.136 -53.2008 693.02 102.9 826.166 180.535" stroke="url(#paint3_radial)"/>
<path d="M832.565 99.5469C830.195 102.866 563.31 258.966 430.165 336.602" stroke="url(#paint4_radial)"/>
<path d="M736.718 33.2324C734.347 36.5512 467.463 192.652 334.317 270.287" stroke="url(#paint5_radial)"/>
<path d="M652.68 -15.0879C650.309 -11.7691 383.425 144.331 250.279 221.967" stroke="url(#paint6_radial)"/>
<path d="M573.922 -64.125C571.551 -60.8062 304.667 95.2943 171.521 172.93" stroke="url(#paint7_radial)"/>
<path d="M519.815 146.401L331.417 37.6289L173.608 128.74" stroke="#5B6482" stroke-width="2"/>
<path d="M47.3407 128.197L110.144 91.9375C114.927 89.1761 122.682 89.1761 127.465 91.9375L232.454 152.553" stroke="#5B6482" stroke-width="2"/>
<path d="M47.3407 128.197L110.144 91.9375C114.927 89.1761 122.682 89.1761 127.465 91.9375L232.454 152.553" stroke="#5B6482" stroke-width="2"/>
<path d="M798.822 89.6875L861.625 53.4277C866.408 50.6663 874.163 50.6663 878.946 53.4277L931.155 83.5705" stroke="#5B6482" stroke-width="2"/>
<path d="M755.561 99.3528L603.606 187.084C598.823 189.845 591.068 189.845 586.285 187.084L463.857 116.4" stroke="#5B6482" stroke-width="2"/>
<path d="M498.291 156.482L342.868 66.748C339.041 64.5389 332.838 64.5389 329.011 66.748L196.825 143.066" stroke="#5B6482" stroke-width="2"/>
<rect width="134.571" height="112.631" transform="matrix(0.866025 0.5 -0.866025 0.5 215.732 53.3281)" fill="#1A2028"/>
<rect width="92.4765" height="4.19193" transform="matrix(0.866025 0.5 -0.866025 0.5 223.365 70.3672)" fill="#5B6482"/>
<rect width="74.7171" height="4.19192" transform="matrix(0.866025 0.5 -0.866025 0.5 162.375 105.58)" fill="#5B6482"/>
<rect width="54.6901" height="4.19193" transform="matrix(0.866025 0.5 -0.866025 0.5 213.706 75.9434)" fill="#5B6482"/>
<rect width="26.5753" height="4.19192" transform="matrix(0.866025 0.5 -0.866025 0.5 204.047 81.5195)" fill="#5B6482"/>
<rect width="26.505" height="4.19193" transform="matrix(0.866025 0.5 -0.866025 0.5 184.73 92.6738)" fill="#5B6482"/>
<rect x="-5.96046e-08" y="1" width="133.299" height="111.332" transform="matrix(0.866025 0.5 -0.866025 0.5 216.614 53.3926)" stroke="#5B6482" stroke-width="2"/>
<path d="M131.851 117.38L223.155 64.666" stroke="#5B6482" stroke-width="2"/>
<path d="M325.662 123.788L209.379 56.758" stroke="#5B6482" stroke-width="2"/>
<circle r="1.32603" transform="matrix(0.866025 0.5 0.866025 -0.5 215.953 57.0742)" fill="#5B6482"/>
<circle r="1.32603" transform="matrix(0.866025 0.5 0.866025 -0.5 219.032 58.9805)" fill="#5B6482"/>
<circle r="1.32603" transform="matrix(0.866025 0.5 0.866025 -0.5 222.327 60.832)" fill="#5B6482"/>
<path d="M808.068 99.422L609.759 213.916C604.976 216.677 597.221 216.677 592.438 213.916L474.867 146.036" stroke="#5B6482" stroke-width="2"/>
<path d="M556.031 155.53L577.575 82.2107C578.057 80.5699 576.81 77.9333 575.08 76.9343L490.621 28.1716C487.877 26.5877 485.476 27.3287 484.765 29.9783L465.323 102.484" stroke="#5B6482" stroke-width="2"/>
<path d="M568.213 113.265C568.213 113.745 559.816 142.975 555.617 157.53L549.349 161.72L500.833 189.727L496.035 191.388L491.939 190.309L405.803 140.733L404.399 137.788L404.942 136.339L409.246 132.669L464.523 101.604L484.788 27.0837L487.427 26.75L572.172 75.4783L575.891 77.9373L576.61 80.4565C573.811 91.1929 568.213 112.786 568.213 113.265Z" fill="#1A2028"/>
<path d="M555.212 158.513L555.902 155.429L555.212 154.858L499.791 186.987C497.625 186.915 493.178 186.779 492.713 186.803C492.247 186.828 490.214 185.616 489.255 185.007L408.739 138.953L404.509 136.379L405.39 140.151L490.911 189.908L495.621 191.048L499.388 190.602L555.212 158.513Z" fill="#142030"/>
<path d="M407.256 141.275C403.908 139.342 403.908 136.208 407.256 134.275L461.95 102.697C463.385 101.869 465.711 101.869 467.146 102.697L553.164 152.36C556.512 154.293 556.512 157.427 553.164 159.36L500.202 189.938C497.81 191.318 493.933 191.318 491.541 189.938L407.256 141.275Z" stroke="#5B6482" stroke-width="2"/>
<path d="M440.569 151.262C440.091 150.986 440.091 150.538 440.569 150.262L454.461 142.241C454.939 141.965 455.714 141.965 456.193 142.241L482.965 157.698C483.443 157.975 483.443 158.422 482.965 158.698L469.074 166.719C468.595 166.995 467.82 166.995 467.342 166.719L440.569 151.262Z" stroke="#5B6482" stroke-width="2"/>
<path d="M476.059 108.256L473.4 109.791C472.444 110.343 472.444 111.239 473.4 111.791L506.467 130.882L510.817 133.394L512.992 134.649M545.657 148.439L542.999 149.974C542.042 150.526 540.491 150.526 539.535 149.974L523.867 140.928L519.517 138.417L517.342 137.161" stroke="#5B6482" stroke-width="2"/>
<path d="M405.057 136.592L490.029 185.65C493.377 187.583 498.805 187.583 502.153 185.65L526.12 171.813L529.874 169.645L531.751 168.562M556.15 154.475L541.135 163.144L537.381 165.311L535.504 166.395" stroke="#5B6482" stroke-width="2"/>
<path d="M555.803 156.38L576.66 81.6389C577.12 79.9927 575.875 77.3831 574.157 76.3913L489.659 27.6065C486.914 26.0217 484.512 26.7644 483.803 29.4169L464.34 102.222" stroke="#5B6482" stroke-width="2"/>
<path d="M552.802 151.781L570.893 85.3661C571.491 83.168 569.833 79.7051 567.55 78.3871L489.111 33.1002C487.543 32.1949 486.17 32.6187 485.764 34.1334L467.354 102.874" stroke="#5B6482" stroke-width="2"/>
<rect width="88.2768" height="33.2634" transform="matrix(0.866025 0.5 -0.866025 0.5 462.149 108.725)" fill="#142030"/>
<rect x="-5.96046e-08" y="1" width="87.2707" height="31.6417" transform="matrix(0.866025 0.5 -0.866025 0.5 463.037 108.859)" stroke="#5B6482" stroke-width="2"/>
<rect x="-5.96046e-08" y="1" width="4.25115" height="3.84904" transform="matrix(0.866025 0.5 -0.866025 0.5 443.669 122.9)" stroke="#5B6482" stroke-width="2"/>
<rect x="-5.96046e-08" y="1" width="11.9312" height="3.84905" transform="matrix(0.866025 0.5 -0.866025 0.5 450.064 119.209)" stroke="#5B6482" stroke-width="2"/>
<rect x="-5.96046e-08" y="1" width="8.24949" height="3.84905" transform="matrix(0.866025 0.5 -0.866025 0.5 456.012 115.775)" stroke="#5B6482" stroke-width="2"/>
<rect x="-5.96046e-08" y="1" width="4.25115" height="3.84905" transform="matrix(0.866025 0.5 -0.866025 0.5 461.96 112.34)" stroke="#5B6482" stroke-width="2"/>
<rect x="-5.96046e-08" y="1" width="4.25115" height="3.84905" transform="matrix(0.866025 0.5 -0.866025 0.5 468.129 115.902)" stroke="#5B6482" stroke-width="2"/>
<rect x="-5.96046e-08" y="1" width="4.25115" height="3.84905" transform="matrix(0.866025 0.5 -0.866025 0.5 474.299 119.465)" stroke="#5B6482" stroke-width="2"/>
<rect x="-5.96046e-08" y="1" width="4.25115" height="3.84905" transform="matrix(0.866025 0.5 -0.866025 0.5 466.13 121.617)" stroke="#5B6482" stroke-width="2"/>
<rect x="-5.96046e-08" y="1" width="4.25115" height="3.84905" transform="matrix(0.866025 0.5 -0.866025 0.5 472.785 125.459)" stroke="#5B6482" stroke-width="2"/>
<rect x="-5.96046e-08" y="1" width="4.25115" height="3.84905" transform="matrix(0.866025 0.5 -0.866025 0.5 479.441 129.301)" stroke="#5B6482" stroke-width="2"/>
<rect x="-5.96046e-08" y="1" width="4.25115" height="3.84905" transform="matrix(0.866025 0.5 -0.866025 0.5 486.096 133.145)" stroke="#5B6482" stroke-width="2"/>
<rect x="-5.96046e-08" y="1" width="4.25115" height="3.84905" transform="matrix(0.866025 0.5 -0.866025 0.5 492.752 136.986)" stroke="#5B6482" stroke-width="2"/>
<rect x="-5.96046e-08" y="1" width="4.25115" height="3.84905" transform="matrix(0.866025 0.5 -0.866025 0.5 499.407 140.83)" stroke="#5B6482" stroke-width="2"/>
<rect x="-5.96046e-08" y="1" width="4.25115" height="3.84905" transform="matrix(0.866025 0.5 -0.866025 0.5 506.062 144.672)" stroke="#5B6482" stroke-width="2"/>
<rect x="-5.96046e-08" y="1" width="4.25114" height="3.84905" transform="matrix(0.866025 0.5 -0.866025 0.5 512.718 148.514)" stroke="#5B6482" stroke-width="2"/>
<rect x="-5.96046e-08" y="1" width="4.25115" height="3.84905" transform="matrix(0.866025 0.5 -0.866025 0.5 480.469 123.027)" stroke="#5B6482" stroke-width="2"/>
<rect x="-5.96046e-08" y="1" width="4.25115" height="3.84905" transform="matrix(0.866025 0.5 -0.866025 0.5 486.639 126.59)" stroke="#5B6482" stroke-width="2"/>
<rect x="-5.96046e-08" y="1" width="4.25115" height="3.84905" transform="matrix(0.866025 0.5 -0.866025 0.5 492.808 130.15)" stroke="#5B6482" stroke-width="2"/>
<rect x="-5.96046e-08" y="1" width="4.25116" height="3.84905" transform="matrix(0.866025 0.5 -0.866025 0.5 498.978 133.713)" stroke="#5B6482" stroke-width="2"/>
<rect x="-5.96046e-08" y="1" width="4.25114" height="3.84905" transform="matrix(0.866025 0.5 -0.866025 0.5 505.148 137.275)" stroke="#5B6482" stroke-width="2"/>
<rect x="-5.96046e-08" y="1" width="4.25114" height="3.84905" transform="matrix(0.866025 0.5 -0.866025 0.5 511.317 140.838)" stroke="#5B6482" stroke-width="2"/>
<rect x="-5.96046e-08" y="1" width="4.25114" height="3.84905" transform="matrix(0.866025 0.5 -0.866025 0.5 517.487 144.398)" stroke="#5B6482" stroke-width="2"/>
<rect x="-5.96046e-08" y="1" width="9.62543" height="3.84905" transform="matrix(0.866025 0.5 -0.866025 0.5 523.657 147.961)" stroke="#5B6482" stroke-width="2"/>
<rect x="-5.96046e-08" y="1" width="4.25115" height="3.84904" transform="matrix(0.866025 0.5 -0.866025 0.5 450.32 126.74)" stroke="#5B6482" stroke-width="2"/>
<rect x="-5.96046e-08" y="1" width="4.25115" height="3.84904" transform="matrix(0.866025 0.5 -0.866025 0.5 456.971 130.582)" stroke="#5B6482" stroke-width="2"/>
<rect x="-5.96046e-08" y="1" width="4.25115" height="3.84905" transform="matrix(0.866025 0.5 -0.866025 0.5 463.366 126.889)" stroke="#5B6482" stroke-width="2"/>
<rect x="-5.96046e-08" y="1" width="4.25115" height="3.84905" transform="matrix(0.866025 0.5 -0.866025 0.5 469.6 130.488)" stroke="#5B6482" stroke-width="2"/>
<rect x="-5.96046e-08" y="1" width="4.25115" height="3.84905" transform="matrix(0.866025 0.5 -0.866025 0.5 475.834 134.088)" stroke="#5B6482" stroke-width="2"/>
<rect x="-5.96046e-08" y="1" width="4.25116" height="3.84905" transform="matrix(0.866025 0.5 -0.866025 0.5 482.067 137.688)" stroke="#5B6482" stroke-width="2"/>
<rect x="-5.96046e-08" y="1" width="4.25115" height="3.84905" transform="matrix(0.866025 0.5 -0.866025 0.5 488.301 141.285)" stroke="#5B6482" stroke-width="2"/>
<rect x="-5.96046e-08" y="1" width="4.25116" height="3.84905" transform="matrix(0.866025 0.5 -0.866025 0.5 494.535 144.885)" stroke="#5B6482" stroke-width="2"/>
<rect x="-5.96046e-08" y="1" width="4.25115" height="3.84905" transform="matrix(0.866025 0.5 -0.866025 0.5 500.769 148.484)" stroke="#5B6482" stroke-width="2"/>
<rect x="-5.96046e-08" y="1" width="15.1189" height="3.84905" transform="matrix(0.866025 0.5 -0.866025 0.5 507.003 152.084)" stroke="#5B6482" stroke-width="2"/>
<rect x="-5.96046e-08" y="1" width="7.80741" height="3.84905" transform="matrix(0.866025 0.5 -0.866025 0.5 519.283 152.305)" stroke="#5B6482" stroke-width="2"/>
<rect x="-5.96046e-08" y="1" width="4.25115" height="3.84904" transform="matrix(0.866025 0.5 -0.866025 0.5 490.845 150.139)" stroke="#5B6482" stroke-width="2"/>
<rect x="-5.96046e-08" y="1" width="4.25114" height="3.84904" transform="matrix(0.866025 0.5 -0.866025 0.5 497.496 153.979)" stroke="#5B6482" stroke-width="2"/>
<rect x="-5.96046e-08" y="1" width="11.0327" height="3.84904" transform="matrix(0.866025 0.5 -0.866025 0.5 504.147 157.818)" stroke="#5B6482" stroke-width="2"/>
<rect x="-5.96046e-08" y="1" width="28.0051" height="3.84904" transform="matrix(0.866025 0.5 -0.866025 0.5 463.622 134.422)" stroke="#5B6482" stroke-width="2"/>
<rect x="-5.96046e-08" y="1" width="87.2707" height="31.6417" transform="matrix(0.866025 0.5 -0.866025 0.5 463.037 108.859)" stroke="#5B6482" stroke-width="2"/>
<rect width="134.571" height="112.631" transform="matrix(0.866025 0.5 -0.866025 0.5 788.133 36.2129)" fill="#1A2028"/>
<rect width="74.7171" height="4.19193" transform="matrix(0.866025 0.5 -0.866025 0.5 795.766 53.252)" fill="#5B6482"/>
<rect width="74.7171" height="4.19192" transform="matrix(0.866025 0.5 -0.866025 0.5 734.775 88.4648)" fill="#5B6482"/>
<rect width="44.677" height="4.19193" transform="matrix(0.866025 0.5 -0.866025 0.5 786.107 58.8281)" fill="#5B6482"/>
<rect width="44.677" height="4.19192" transform="matrix(0.866025 0.5 -0.866025 0.5 776.448 64.4043)" fill="#5B6482"/>
<rect width="26.505" height="4.19193" transform="matrix(0.866025 0.5 -0.866025 0.5 757.131 75.5586)" fill="#5B6482"/>
<rect x="-5.96046e-08" y="1" width="133.299" height="111.332" transform="matrix(0.866025 0.5 -0.866025 0.5 789.015 36.2773)" stroke="#5B6482" stroke-width="2"/>
<path d="M704.252 100.265L795.555 47.5508" stroke="#5B6482" stroke-width="2"/>
<path d="M898.064 106.674L782.489 39.959" stroke="#5B6482" stroke-width="2"/>
<circle r="1.32603" transform="matrix(0.866025 0.5 0.866025 -0.5 788.354 39.959)" fill="#5B6482"/>
<circle r="1.32603" transform="matrix(0.866025 0.5 0.866025 -0.5 791.433 41.8652)" fill="#5B6482"/>
<circle r="1.32603" transform="matrix(0.866025 0.5 0.866025 -0.5 794.728 43.7168)" fill="#5B6482"/>
<rect x="-5.96046e-08" y="1" width="88.4343" height="58.3795" transform="matrix(0.866025 0.5 -0.866025 0.5 118.64 64.5547)" fill="#1A2028" stroke="#5B6482" stroke-width="2"/>
<rect width="73.9213" height="3.37992" transform="matrix(0.866025 0.5 -0.866025 0.5 108.724 73.0859)" fill="#5B6482"/>
<rect width="38.3086" height="3.37992" transform="matrix(0.866025 0.5 -0.866025 0.5 101.066 77.5078)" fill="#5B6482"/>
<rect width="19.572" height="3.37993" transform="matrix(0.866025 0.5 -0.866025 0.5 83.5509 87.6191)" fill="#5B6482"/>
<path d="M111.375 68.2305L188.729 112.891" stroke="#5B6482" stroke-width="2"/>
<ellipse rx="1.07976" ry="1.15783" transform="matrix(0.866025 0.5 -0.866025 0.5 117.581 68.1051)" fill="#5B6482"/>
<ellipse rx="1.07976" ry="1.15783" transform="matrix(0.866025 0.5 -0.866025 0.5 120.009 69.5075)" fill="#5B6482"/>
<ellipse rx="1.07976" ry="1.15783" transform="matrix(0.866025 0.5 -0.866025 0.5 122.437 70.9098)" fill="#5B6482"/>
<rect x="-5.96046e-08" y="1" width="88.4343" height="58.3795" transform="matrix(0.866025 0.5 -0.866025 0.5 791.489 115.098)" fill="#1A2028" stroke="#5B6482" stroke-width="2"/>
<rect width="60.2548" height="3.37992" transform="matrix(0.866025 0.5 -0.866025 0.5 781.573 123.629)" fill="#5B6482"/>
<rect width="53.3779" height="3.37992" transform="matrix(0.866025 0.5 -0.866025 0.5 773.915 128.051)" fill="#5B6482"/>
<rect width="19.572" height="3.37993" transform="matrix(0.866025 0.5 -0.866025 0.5 756.4 138.162)" fill="#5B6482"/>
<path d="M784.224 118.773L861.578 163.434" stroke="#5B6482" stroke-width="2"/>
<ellipse rx="1.07976" ry="1.15783" transform="matrix(0.866025 0.5 -0.866025 0.5 790.43 118.648)" fill="#5B6482"/>
<ellipse rx="1.07976" ry="1.15783" transform="matrix(0.866025 0.5 -0.866025 0.5 792.858 120.05)" fill="#5B6482"/>
<ellipse rx="1.07976" ry="1.15783" transform="matrix(0.866025 0.5 -0.866025 0.5 795.285 121.453)" fill="#5B6482"/>
<path d="M345.752 32.8071C345.798 37.5795 345.902 47.1835 345.957 47.421L332.028 56.1665L318.83 48.4028L318.624 33.0582L332.279 25.4316L345.752 32.8071Z" fill="#1A2028"/>
<path d="M332 45.0067L328.098 42.7182V38.8767L332.633 36.2586L336.51 38.4971V42.4027L332 45.0067Z" stroke="#5B6482" stroke-width="1.5"/>
<path d="M332.128 25.3535L345.961 33.0167V47.5357L332.237 56.225L318.721 48.4217V40.746V39.7325V38.7189V37.7053V36.6917V33.0711L332.128 25.3535Z" stroke="#5B6482" stroke-width="1.5"/>
<path d="M317.276 70.6649L318.001 78.6824L308.351 83.4713L300.733 79.4806L301.277 72.0434L309.984 66.8555L317.276 70.6649Z" fill="#1A2028"/>
<path d="M308.738 84.2836L301 79.7446V72.0562L309.929 66.9008L313.776 69.1219L317.624 71.343V79.1537L308.738 84.2836Z" stroke="#5B6482" stroke-width="2"/>
<path d="M393.677 95.5909L393.226 100.567L399.216 103.539L403.944 101.062L403.607 96.4465L398.203 93.2266L393.677 95.5909Z" fill="#1A2028"/>
<path d="M398.974 103.779L403.548 101.096V96.5879L398.236 93.5206L395.963 94.8329L393.69 96.1453V100.728L398.974 103.779Z" stroke="#5B6482" stroke-width="1.7"/>
<path d="M564.531 196.489L564.08 201.465L570.07 204.438L574.798 201.961L574.461 197.345L569.057 194.125L564.531 196.489Z" fill="#1A2028"/>
<path d="M569.828 204.678L574.403 201.994V197.486L569.09 194.419L566.817 195.731L564.544 197.044V201.627L569.828 204.678Z" stroke="#5B6482" stroke-width="1.7"/>
<path d="M677.415 140.671L678.141 148.688L668.491 153.477L660.872 149.486L661.417 142.049L670.123 136.861L677.415 140.671Z" fill="#1A2028"/>
<path d="M668.878 154.289L661.14 149.75V142.062L670.069 136.907L673.916 139.128L677.763 141.349V149.16L668.878 154.289Z" stroke="#5B6482" stroke-width="2"/>
<rect width="59.6152" height="3.01975" transform="matrix(0.85264 0.522499 -0.25342 0.967356 495.774 56.9141)" fill="#5B6482"/>
<rect width="59.6152" height="3.01975" transform="matrix(0.85264 0.522499 -0.25342 0.967356 497.963 51.4102)" fill="#5B6482"/>
<rect width="1.66624" height="67.5437" transform="matrix(0.85264 0.522499 -0.25342 0.967356 492.702 41.459)" fill="#5B6482"/>
<rect width="32.6746" height="3.01975" transform="matrix(0.85264 0.522499 -0.25342 0.967356 493.772 64.5566)" fill="#5B6482"/>
<rect width="12.8768" height="3.01975" transform="matrix(0.85264 0.522499 -0.25342 0.967356 490.474 77.752)" fill="#5B6482"/>
<path d="M485.196 37.3633L570.052 86.0638" stroke="#5B6482" stroke-width="2"/>
<ellipse rx="0.834603" ry="0.834603" transform="matrix(0.892001 0.389359 -0.299511 0.921168 488.346 36.1133)" fill="#5B6482"/>
<ellipse rx="0.834603" ry="0.834603" transform="matrix(0.892001 0.389359 -0.299511 0.921168 490.597 37.3613)" fill="#5B6482"/>
<ellipse rx="0.834603" ry="0.834603" transform="matrix(0.892001 0.389359 -0.299511 0.921168 492.848 38.4571)" fill="#5B6482"/>
<rect width="56.0747" height="3.01975" transform="matrix(0.85264 0.522499 -0.25342 0.967356 485.319 94.7441)" fill="#5B6482"/>
<path d="M56.3955 112.99L56.5524 131.844L29.2281 147.946L26.7327 147.233L25.5446 145.727L25.6754 123.232L31.2587 120.543V97.116L51.3081 85.6758V109.922L56.3955 112.99Z" fill="#1A2028"/>
<path d="M26.158 147.179C32.1484 147.629 47.6105 137.429 57.0658 131.663L56.5419 130.92L56.2578 112.792C54.9413 111.959 52.2459 110.275 51.9959 110.207C51.7458 110.138 47.8192 112.262 45.8871 113.332L35.8858 119.27L35.0334 121.799H28.0945C23.6796 124.294 25.5934 147.137 26.158 147.179Z" fill="#142030"/>
<path d="M29.0965 125.14V148.059M29.0965 125.14L25.5243 123.354M29.0965 125.14L34.7148 122.051M56.6296 112.861L50.2511 116.594C45.8082 119.194 40.9346 120.975 35.8622 121.853L34.7148 122.051M56.6296 112.861V132.06L29.0965 148.059M56.6296 112.861L51.3509 109.856M29.0965 148.059L26.6601 146.892C25.966 146.559 25.5243 145.858 25.5243 145.088V123.354M25.5243 123.354L31.2988 120.128M31.2988 122.02V97.0054L51.3509 85.5996V109.856M51.3509 109.856V110.792L38.5327 117.97L36.7187 118.985C35.5892 119.618 34.8407 120.763 34.7148 122.051V122.051" stroke="#5B6482" stroke-width="2"/>
<path d="M49.5052 93.476L33.3677 102.793" stroke="#5B6482" stroke-width="2"/>
<path d="M49.592 98.1342L33.4545 107.451" stroke="#5B6482" stroke-width="2"/>
<path d="M49.592 103.05L33.4545 112.367" stroke="#5B6482" stroke-width="2"/>
<rect x="0.866025" y="0.5" width="15.9795" height="8.42399" rx="1" transform="matrix(0.866025 -0.5 2.20305e-08 1 36.3571 131.015)" stroke="#5B6482" stroke-width="2"/>
<path d="M939.763 73.6411C939.809 78.4135 939.913 88.0175 939.968 88.255L926.039 97.0005L912.841 89.2368L912.635 73.8922L926.29 66.2656L939.763 73.6411Z" fill="#1A2028"/>
<path d="M926.011 85.8407L922.109 83.5522V79.7107L926.644 77.0926L930.521 79.3311V83.2367L926.011 85.8407Z" stroke="#5B6482" stroke-width="1.5"/>
<path d="M926.139 66.1875L939.972 73.8507V88.3697L926.247 97.059L912.732 89.2557V81.58V80.5665V79.5529V78.5393V77.5257V73.9051L926.139 66.1875Z" stroke="#5B6482" stroke-width="1.5"/>
<path d="M775.203 52.0547L775.203 53.94L771.937 53.94" stroke="#5B6482"/>
<path d="M774.097 51.416L770.831 51.416L770.831 53.3013" stroke="#5B6482"/>
<path d="M765.028 60.1342L766.542 56.8707L760.89 57.7451L765.028 60.1342Z" stroke="#5B6482"/>
<rect x="-2.08616e-08" y="0.35" width="1.6554" height="1.6554" transform="matrix(0.866025 0.5 -0.866025 0.5 781.54 45.2687)" stroke="#5B6482" stroke-width="0.7"/>
<rect x="-2.08616e-08" y="0.35" width="1.6554" height="1.6554" transform="matrix(0.866025 0.5 -0.866025 0.5 779.178 46.632)" stroke="#5B6482" stroke-width="0.7"/>
<rect x="-2.08616e-08" y="0.35" width="1.6554" height="1.6554" transform="matrix(0.866025 0.5 -0.866025 0.5 783.937 46.6516)" stroke="#5B6482" stroke-width="0.7"/>
<rect x="-2.08616e-08" y="0.35" width="1.6554" height="1.6554" transform="matrix(0.866025 0.5 -0.866025 0.5 781.574 48.0168)" stroke="#5B6482" stroke-width="0.7"/>
<rect x="-2.68221e-08" y="0.45" width="1.87141" height="5.55507" transform="matrix(0.866025 0.5 -0.866025 0.5 757.079 63.0023)" stroke="#5B6482" stroke-width="0.9"/>
<rect x="-2.68221e-08" y="0.45" width="1.87141" height="4.28678" transform="matrix(0.866025 0.5 -0.866025 0.5 753.213 62.0375)" stroke="#5B6482" stroke-width="0.9"/>
<path d="M203.359 68.5664L203.359 70.4517L200.094 70.4517" stroke="#5B6482"/>
<path d="M202.253 67.9277L198.988 67.9277L198.988 69.8131" stroke="#5B6482"/>
<path d="M193.184 76.6459L194.699 73.3824L189.046 74.2569L193.184 76.6459Z" stroke="#5B6482"/>
<rect x="-2.08616e-08" y="0.35" width="1.6554" height="1.6554" transform="matrix(0.866025 0.5 -0.866025 0.5 209.697 61.7805)" stroke="#5B6482" stroke-width="0.7"/>
<rect x="-2.08616e-08" y="0.35" width="1.6554" height="1.6554" transform="matrix(0.866025 0.5 -0.866025 0.5 207.334 63.1437)" stroke="#5B6482" stroke-width="0.7"/>
<rect x="-2.08616e-08" y="0.35" width="1.6554" height="1.6554" transform="matrix(0.866025 0.5 -0.866025 0.5 212.093 63.1633)" stroke="#5B6482" stroke-width="0.7"/>
<rect x="-2.08616e-08" y="0.35" width="1.6554" height="1.6554" transform="matrix(0.866025 0.5 -0.866025 0.5 209.731 64.5285)" stroke="#5B6482" stroke-width="0.7"/>
<rect x="-2.68221e-08" y="0.45" width="1.87141" height="5.55507" transform="matrix(0.866025 0.5 -0.866025 0.5 185.235 79.5141)" stroke="#5B6482" stroke-width="0.9"/>
<rect x="-2.68221e-08" y="0.45" width="1.87141" height="4.28678" transform="matrix(0.866025 0.5 -0.866025 0.5 181.369 78.5492)" stroke="#5B6482" stroke-width="0.9"/>
</g>
<defs>
<radialGradient id="paint0_radial" cx="0" cy="0" r="1" gradientUnits="userSpaceOnUse" gradientTransform="translate(380.208 214.908) rotate(90) scale(118.527 201.2)">
<stop stop-color="#303E50"/>
<stop offset="1" stop-color="#8D87BA" stop-opacity="0"/>
</radialGradient>
<radialGradient id="paint1_radial" cx="0" cy="0" r="1" gradientUnits="userSpaceOnUse" gradientTransform="translate(445.99 160.385) rotate(90) scale(118.527 201.2)">
<stop stop-color="#303E50"/>
<stop offset="1" stop-color="#8D87BA" stop-opacity="0"/>
</radialGradient>
<radialGradient id="paint2_radial" cx="0" cy="0" r="1" gradientUnits="userSpaceOnUse" gradientTransform="translate(534.886 120.086) rotate(90) scale(118.527 201.2)">
<stop stop-color="#303E50"/>
<stop offset="1" stop-color="#8D87BA" stop-opacity="0"/>
</radialGradient>
<radialGradient id="paint3_radial" cx="0" cy="0" r="1" gradientUnits="userSpaceOnUse" gradientTransform="translate(624.965 62.0079) rotate(90) scale(118.527 201.2)">
<stop stop-color="#303E50"/>
<stop offset="1" stop-color="#8D87BA" stop-opacity="0"/>
</radialGradient>
<radialGradient id="paint4_radial" cx="0" cy="0" r="1" gradientUnits="userSpaceOnUse" gradientTransform="translate(631.365 218.074) rotate(90) scale(118.527 201.2)">
<stop stop-color="#303E50"/>
<stop offset="1" stop-color="#8D87BA" stop-opacity="0"/>
</radialGradient>
<radialGradient id="paint5_radial" cx="0" cy="0" r="1" gradientUnits="userSpaceOnUse" gradientTransform="translate(535.517 151.76) rotate(90) scale(118.527 201.2)">
<stop stop-color="#303E50"/>
<stop offset="1" stop-color="#8D87BA" stop-opacity="0"/>
</radialGradient>
<radialGradient id="paint6_radial" cx="0" cy="0" r="1" gradientUnits="userSpaceOnUse" gradientTransform="translate(451.479 103.439) rotate(90) scale(118.527 201.2)">
<stop stop-color="#303E50"/>
<stop offset="1" stop-color="#8D87BA" stop-opacity="0"/>
</radialGradient>
<radialGradient id="paint7_radial" cx="0" cy="0" r="1" gradientUnits="userSpaceOnUse" gradientTransform="translate(372.722 54.4024) rotate(90) scale(118.527 201.2)">
<stop stop-color="#303E50"/>
<stop offset="1" stop-color="#8D87BA" stop-opacity="0"/>
</radialGradient>
<clipPath id="clip0">
<rect width="978" height="229" fill="white"/>
</clipPath>
</defs>
</svg>
