<svg width="253" height="187" viewBox="0 0 253 187" fill="none" xmlns="http://www.w3.org/2000/svg">
<mask id="mask0_1489_4640" style="mask-type:alpha" maskUnits="userSpaceOnUse" x="34" y="26" width="184" height="128">
<path d="M34.1641 134.833L66.308 153.505H67.2388L95.3451 137.482L98.4337 139.296L107.618 141.095L210.403 80.3327L213.887 78.7216L217.065 72.7997L217.762 59.3014L217.457 50.5057L214.888 45.8031L188.196 29.6206L179.011 26.5879L167.931 27.8962L62.2058 88.7904L59.8791 91.9125L59.573 102.568L34.6532 118.669L34.1641 134.833Z" fill="#303E50"/>
</mask>
<g mask="url(#mask0_1489_4640)">
<path d="M34.1641 134.833L66.308 153.505H67.2388L95.3451 137.482L98.4337 139.296L107.618 141.095L210.403 80.3327L213.887 78.7216L217.065 72.7997L217.762 59.3014L217.457 50.5057L214.888 45.8031L188.196 29.6206L179.011 26.5879L167.931 27.8962L62.2058 88.7904L59.8791 91.9125L59.573 102.568L34.6532 118.669L34.1641 134.833Z" fill="#303E50"/>
<path d="M67.2428 138.11V153.756L34.1992 135.61V119.701L67.2428 138.11Z" fill="#142030"/>
<path d="M104.278 118.166V141.345L97.2326 138.11V122.394L61.9354 102.385H58.6946V92.8027L104.278 118.166Z" fill="#142030"/>
</g>
<path fill-rule="evenodd" clip-rule="evenodd" d="M164.715 28.9756C171.278 25.1867 181.918 25.1867 188.48 28.9756L210.673 41.7884C216.096 44.9198 219.143 49.167 219.143 53.5956L219.143 71.0074C219.143 74.3179 216.905 77.4975 212.904 79.869L110.949 140.302C107.745 142.2 102.459 142.197 99.2622 140.295L95.4225 138.009L97.1807 137.024L101.02 139.31C103.256 140.641 106.954 140.643 109.194 139.315L211.149 78.8822C214.704 76.7748 216.694 73.9492 216.694 71.0074L216.694 53.5956C216.694 49.5421 213.905 45.6546 208.94 42.7884L186.748 29.9756C181.142 26.739 172.053 26.739 166.447 29.9756L64.1862 89.016C61.8188 90.3829 60.4888 92.2367 60.4888 94.1697L60.4888 103.526L58.0393 103.526L58.0393 94.1697C58.0393 91.8616 59.6274 89.6481 62.4541 88.016L164.715 28.9756Z" fill="#7A85AA"/>
<path fill-rule="evenodd" clip-rule="evenodd" d="M216.444 46.6304C220.248 50.6487 219.008 55.6336 213.4 58.8716L110.439 118.316C108.27 119.568 104.753 119.568 102.584 118.316L58.6073 92.9264L60.3394 91.9264L104.316 117.316C105.528 118.016 107.494 118.016 108.707 117.316L211.668 57.8716C216.507 55.0775 217.577 50.776 214.295 47.3087L216.444 46.6304Z" fill="#7A85AA"/>
<path fill-rule="evenodd" clip-rule="evenodd" d="M112.527 138.055V115.346H114.527V138.055H112.527Z" fill="#7A85AA"/>
<path fill-rule="evenodd" clip-rule="evenodd" d="M103.232 140.684V117.918H105.232V140.684H103.232Z" fill="#7A85AA"/>
<path fill-rule="evenodd" clip-rule="evenodd" d="M98.2424 121.491L70.6285 137.535C69.8896 137.964 69.475 138.544 69.475 139.15L69.4749 152.838L67.0255 152.838L67.0255 139.15C67.0255 138.171 67.6961 137.232 68.891 136.538L94.7584 121.509L62.1242 103.21L36.654 117.915C35.9098 118.344 35.4917 118.927 35.4917 119.535L35.4917 135.674L33.0422 135.674L33.0422 119.535C33.0422 118.552 33.7184 117.61 34.922 116.915L62.0991 101.224L98.2424 121.491Z" fill="#7A85AA"/>
<path fill-rule="evenodd" clip-rule="evenodd" d="M34.832 118.227L67.8304 137.278L67.8304 139.278L34.832 120.227L34.832 118.227Z" fill="#7A85AA"/>
<path d="M59.2539 120.861L54.0854 117.877L63.279 112.569L68.4476 115.553L59.2539 120.861Z" fill="#7A85AA"/>
<path d="M68.2266 126.172L63.058 123.188L72.2517 117.88L77.4202 120.864L68.2266 126.172Z" fill="#7A85AA"/>
<path fill-rule="evenodd" clip-rule="evenodd" d="M96.4119 135.813L96.4119 122.5L98.144 121.5L98.144 136.813L66.584 155.034L66.584 153.034L96.4119 135.813Z" fill="#7A85AA"/>
<path d="M119.953 79.1562L125.49 82.353L119.688 85.7027L114.151 82.506L119.953 79.1562Z" fill="#7A85AA"/>
<path d="M161.98 54.8965L167.517 58.0932L161.149 61.7697L155.613 58.573L161.98 54.8965Z" fill="#7A85AA"/>
<path fill-rule="evenodd" clip-rule="evenodd" d="M126.261 78.7969C128.216 79.9257 130.865 80.5614 133.626 80.564C136.386 80.5666 139.032 79.9359 140.981 78.8108L145.895 81.6483C142.648 83.5234 138.238 84.5745 133.637 84.5703C129.037 84.5658 124.621 83.5064 121.362 81.6251C118.104 79.7437 116.269 77.1945 116.261 74.5383C116.254 71.8819 118.074 69.3361 121.322 67.4609L126.237 70.2984C124.288 71.4235 123.196 72.951 123.2 74.5448C123.205 76.1386 124.306 77.6681 126.261 78.7969Z" fill="#7A85AA"/>
<path fill-rule="evenodd" clip-rule="evenodd" d="M141.19 70.0206C145.033 72.2394 151.254 72.2453 155.084 70.0338C158.915 67.8222 158.905 64.2308 155.062 62.012C151.219 59.7933 144.998 59.7874 141.168 61.9989C137.337 64.2105 137.347 67.8019 141.19 70.0206ZM135.906 73.0715C142.677 76.9808 153.637 76.9912 160.386 73.0947C167.135 69.1982 167.117 62.8704 160.346 58.9611C153.575 55.0519 142.615 55.0415 135.866 58.938C129.117 62.8345 129.135 69.1623 135.906 73.0715Z" fill="#7A85AA"/>
<path fill-rule="evenodd" clip-rule="evenodd" d="M33 133.645L66.5851 153.035L66.5851 155.021L33 135.631L33 133.645Z" fill="#7A85AA"/>
<path fill-rule="evenodd" clip-rule="evenodd" d="M155.277 101.256L173.587 90.6849L173.587 92.6849L155.277 103.256L155.277 101.256Z" fill="#7A85AA"/>
</svg>
