<svg width="179" height="131" viewBox="0 0 179 131" fill="none" xmlns="http://www.w3.org/2000/svg">
<g clip-path="url(#clip0)">
<circle r="34.28" transform="matrix(0.866025 0.5 -0.866025 0.5 118.196 51.5537)" fill="#142030" stroke="#7A85AA" stroke-width="2"/>
<circle r="34.28" transform="matrix(0.866025 0.5 -0.866025 0.5 118.196 47.956)" fill="#142030" stroke="#7A85AA" stroke-width="2"/>
<rect width="31.6425" height="6.47234" rx="3.23617" transform="matrix(-0.866025 0.5 -0.866025 -0.5 136.906 37.5284)" fill="#7A85AA"/>
<rect width="31.6425" height="6.47234" rx="3.23617" transform="matrix(0.866025 0.5 -0.866025 0.5 109.503 34.2922)" fill="#7A85AA"/>
<path d="M149.556 82.6465L152.725 78.9629V73.053C152.725 72.2992 148.672 69.998 146.645 68.9416L82.4906 32.8817L73.2401 27.8287L68.4435 28.5998L17.1374 58.1498L15.4238 61.918L17.9077 66.8863L87.1157 107.571L96.8797 110.912L102.362 109.627L116.752 100.976C117.751 101.005 119.835 101.045 120.178 100.976C120.52 100.908 128.657 95.9797 132.682 93.5244L137.993 89.3274L149.556 82.6465Z" fill="#303E50"/>
<path d="M117.916 96.1598L101.743 105.497C98.9526 107.108 94.4288 107.108 91.6386 105.497L18.4481 63.2408C15.6579 61.6299 15.6579 59.018 18.4481 57.4071L67.0313 29.3576C69.8215 27.7467 74.3453 27.7467 77.1355 29.3576L150.326 71.6142C153.116 73.2251 153.116 75.8369 150.326 77.4478L138.092 84.4179" stroke="#7A85AA" stroke-width="2"/>
<path d="M117.074 101.545C119.432 102.376 120.244 100.911 120.336 99.3383C120.399 98.2594 119.473 97.2653 118.15 96.502L101.571 86.9299C99.6579 85.8253 99.6579 84.0345 101.571 82.9299L114.571 75.4244C116.475 74.3253 119.558 74.3191 121.475 75.4105L137.046 84.2758C137.648 84.6184 138.101 85.0435 138.271 85.5215C138.846 87.1355 138.719 88.8355 137.522 90.0861C137.392 90.2228 137.235 90.3402 137.054 90.4566C134.948 91.8137 120.813 100.913 119.946 101.21" stroke="#7A85AA" stroke-width="2"/>
<path d="M17.2943 58.4697C14.5041 60.0806 15.7107 65.8471 18.5009 67.458L91.6914 109.715C94.4816 111.326 99.0054 111.326 101.796 109.715L119.724 99.3639M151.963 73.3868C154.753 74.9977 153.169 80.0541 150.379 81.665L138.652 88.3451" stroke="#7A85AA" stroke-width="2"/>
<circle r="4.08079" transform="matrix(0.866025 0.5 -0.866025 0.5 114.909 82.8425)" stroke="#7A85AA" stroke-width="2"/>
<path d="M100.819 83.2207V83.2207C99.2058 82.2891 99.2058 80.7787 100.819 79.8471L109.721 74.7077C111.335 73.7761 113.951 73.7761 115.564 74.7077V74.7077" stroke="#7A85AA" stroke-width="2"/>
</g>
<defs>
<clipPath id="clip0">
<rect width="179" height="131" fill="white"/>
</clipPath>
</defs>
</svg>
