<svg width="155" height="174" viewBox="0 0 155 174" fill="none" xmlns="http://www.w3.org/2000/svg">
<circle opacity="0.5" r="30.5" transform="matrix(0.866025 0.5 -0.866025 0.5 54.5596 142.5)" stroke="#7A85AA" stroke-width="2"/>
<circle opacity="0.5" r="22.364" transform="matrix(0.866025 0.5 -0.866025 0.5 114.304 110.579)" stroke="#7A85AA" stroke-width="2"/>
<path d="M132.454 14.538L130.9 19.5661L130.577 33.4163L128.752 38.8533L124.727 41.6974L124.245 44.8897L130.201 45.2392L134.011 46.5272L136.48 50.6056L136.751 107.102L136.202 111.81L129.757 118.255L118.055 121.501H109.416L102.468 119.398L94.514 114.781L92.5942 109.387L92.2285 75.5615L91.9999 58.9228L94.0112 50.3293L100.685 45.9868L109.233 44.8897L108.364 37.1189L106.582 33.4163L102.696 28.891L99.3593 23.1772L98.9479 16.0463L100.776 9.00691L105.485 3.33881L112.661 1.46484L123.449 2.37907L129.208 6.85858L132.454 14.538Z" fill="#303E50"/>
<path d="M109.198 45.1621H105.042C98.0265 45.1621 92.3391 50.7395 92.3391 57.6195L92.3781 109.022C92.3781 112.243 94.5336 115.464 98.8445 117.921C107.467 122.836 121.446 122.836 130.067 117.921C135.025 115.095 136.309 109.771 136.389 107.576V51.957C136.389 48.2043 133.286 45.1621 129.46 45.1621H124.286" stroke="#7A85AA" stroke-width="2.30967"/>
<path d="M130.604 20.1469L130.195 34.3362C130.12 36.9589 128.719 39.3643 126.476 40.725V40.725C124.433 41.9644 121.931 42.1892 119.699 41.3341L113.796 39.0722M130.604 20.1469V20.1469C132.217 18.3424 132.756 15.8196 132.021 13.5137L131.096 10.6124C129.586 5.87699 125.348 2.53579 120.391 2.17298L113.255 1.65065C107.941 1.26178 102.972 4.30472 100.903 9.21396V9.21396L99.7648 12.7689C97.3202 20.4034 100.041 28.7453 106.518 33.4698V33.4698M130.604 20.1469L123.319 20.5198C120.824 20.6475 118.501 21.8288 116.929 23.7696L113.856 27.5627C113.614 27.8611 113.421 28.1961 113.285 28.5551L112.56 30.4609C112.372 30.9549 111.709 31.04 111.403 30.6095L110.659 29.5659C110.177 28.8883 109.279 28.6519 108.525 29.0037V29.0037C108.089 29.2072 107.758 29.5837 107.612 30.0422L106.518 33.4698M106.518 33.4698V33.4698C108.206 35.6728 109.12 38.3708 109.12 41.1461V43.7514C109.12 45.0014 109.719 46.1758 110.73 46.9105L111.602 47.5445C112.344 48.0835 113.165 48.5041 114.036 48.7915V48.7915C116.293 49.5364 118.724 49.5799 121.006 48.9162L122.214 48.5652C123.474 48.1988 124.34 47.0442 124.34 45.732V42.0203" stroke="#7A85AA" stroke-width="2.30967"/>
<path d="M46.0699 68.7019C46.0697 66.8479 46.0694 63.0779 46.0699 62.8291L52.7981 59.9894L59.2935 54.1163L63.0663 49.877L63.416 65.8628C61.212 67.4963 56.6951 70.8491 56.2595 71.1914C55.8239 71.5336 50.7366 71.0487 48.2475 70.7635L46.0699 68.7019Z" fill="#885656"/>
<path d="M79.7322 76.2178L80.5381 139.931C80.4041 140.659 80.2171 141.263 80.2171 142.31C80.2171 143.899 77.9912 146.045 76.7447 147.389L70.54 150.829L60.7218 153.863L50.8886 153.089L45.8062 152.702L37.9065 149.388L31.4431 142.372V137.29L33.929 125.247L32.3603 110.628L29.3256 101.228V89.887L32.3603 69.539L35.6439 67.1235L45.3437 66.1799L46.5137 61.9527L40.7014 62.6699L36.2855 58.5182L32.7377 43.006V29.6074C32.7377 29.396 35.6564 24.7638 37.1158 22.474L46.476 18.6621L53.4583 19.5301L60.3275 22.0211L61.7994 20.3982C62.982 19.1653 65.385 16.6843 65.5359 16.624C65.6869 16.5636 68.5679 16.3977 69.9896 16.3223C71.2728 18.1591 73.8393 21.9081 73.8393 22.2101C73.8393 22.512 73.2354 25.934 72.9335 27.6073L68.2534 29.6826C68.1024 30.3998 67.8911 31.9173 68.2534 32.2494C68.7063 32.6646 67.0079 46.3653 66.8947 46.6295C66.8041 46.8408 64.1898 50.4916 62.894 52.2906L63.7243 65.576L75.5377 68.8596L79.7322 76.2178Z" fill="#303E50"/>
<path d="M63.0418 66.3027H66.789C74.7729 66.3027 81.2451 72.6775 81.2451 80.5412V139.499H81.2025C81.2024 143.191 78.7378 146.882 73.8087 149.699C63.9504 155.333 47.9668 155.333 38.1084 149.699C31.7433 146.062 29.4879 140.965 31.3421 136.294L32.784 126.316C33.6714 120.176 33.0928 113.916 31.094 108.034C29.4194 103.106 28.7385 97.9036 29.0897 92.7185L30.3879 73.5522C30.6642 69.4727 34.1044 66.3027 38.2555 66.3027H45.3889" stroke="#7A85AA" stroke-width="2.62837"/>
<path d="M32.8624 39.6353L34.7581 54.2193C35.0972 56.8285 36.2966 59.2501 38.1664 61.1011V61.1011C39.2605 62.1843 40.7987 62.6925 42.3228 62.4746L45.8945 61.9637M32.8624 39.6353L35.2609 40.694C37.0864 41.4998 39.0744 41.8696 41.0675 41.7742L49.3 41.3803C50.8991 41.3038 52.3151 42.405 52.6349 43.9737L52.6551 44.0729C53.0742 46.1291 55.3407 47.217 57.2074 46.2584V46.2584C58.0056 45.8486 58.9403 45.7964 59.779 46.1151V46.1151C61.0083 46.5822 61.8209 47.7604 61.8209 49.0754V49.5981C61.8209 50.2059 61.6991 50.8076 61.4625 51.3675L60.8132 52.9042M32.8624 39.6353L32.4187 36.7145C31.8803 33.1697 32.5712 29.5473 34.3766 26.4495V26.4495C36.3829 23.007 39.6291 20.454 43.4462 19.3112V19.3112C46.02 18.5406 48.7525 18.4408 51.3752 19.0236L55.7003 19.9848C60.0317 20.9474 63.7672 23.669 66.0111 27.497V27.497C67.4465 29.9457 68.2031 32.7329 68.2031 35.5713V39.0696C68.2031 41.3911 67.7126 43.6863 66.7636 45.8049L66.1184 47.2454C65.0317 49.6713 63.1641 51.6635 60.8132 52.9042V52.9042M54.7178 58.6027L50.407 60.6184C48.9774 61.2869 47.4568 61.7402 45.8945 61.9637V61.9637M58.6966 55.1696L60.8132 52.9042M45.8945 61.9637V67.619C45.8945 68.5874 46.4467 69.471 47.3171 69.8954V69.8954C52.2436 72.2978 58.1505 71.3228 62.0437 67.4647L62.3288 67.1822C62.8297 66.6857 63.1116 66.0097 63.1116 65.3044V50.5191" stroke="#7A85AA" stroke-width="2.62837"/>
<path d="M67.1681 29.4943C68.4883 29.5797 69.8036 29.2662 70.9433 28.5945C72.083 27.9228 72.9944 26.924 73.5592 25.7277C74.124 24.5315 74.3161 23.193 74.1106 21.8862C73.9051 20.5794 73.3114 19.3645 72.4066 18.3994C71.5019 17.4342 70.3279 16.7634 69.037 16.474C67.7462 16.1846 66.3981 16.2899 65.1679 16.7764C63.9377 17.2629 62.8822 18.1079 62.1383 19.2019C61.3945 20.2959 60.9968 21.5882 60.9968 22.9111" stroke="#7A85AA" stroke-width="2.62837"/>
</svg>
