<svg viewBox="0 0 570 570" fill="none" xmlns="http://www.w3.org/2000/svg">
<mask id="mask0_1161_1760" style="mask-type:alpha" maskUnits="userSpaceOnUse" x="190" y="48" width="185" height="173">
<path d="M194.196 183.878L190.617 172.329L191.111 114.266L192.379 106.279L197.197 93.664L205.767 84.0072L217.548 72.1586L232.628 61.9931L255.72 52.0295L275.188 48.3169L294.362 48.6635L315.973 53.7798L329.773 60.1742L339.333 67.3776L353.201 79.4282L366.464 96.2586L372.859 111.743L374.103 122.318V156.549V174.931C364.126 183.39 345.748 206.656 344.576 207.046C343.112 207.534 232.91 220.803 231.934 220.803C231.154 220.803 206.45 196.186 194.196 183.878Z" fill="#3A356D"/>
</mask>
<g mask="url(#mask0_1161_1760)">
<path d="M194.196 183.878L190.617 172.329L191.111 114.266L192.379 106.279L197.197 93.664L205.767 84.0072L217.548 72.1586L232.628 61.9931L255.72 52.0295L275.188 48.3169L294.362 48.6635L315.973 53.7798L329.773 60.1742L339.333 67.3776L353.201 79.4282L366.464 96.2586L372.859 111.743L374.103 122.318V156.549V174.931C364.145 187.095 345.136 217.969 343.965 218.359C342.501 218.847 232.91 220.803 231.934 220.803C231.154 220.803 206.45 196.186 194.196 183.878Z" fill="#3A356D"/>
<circle cx="265.202" cy="60.9888" r="30.9121" fill="url(#paint0_linear_1161_1760)"/>
<circle cx="183.582" cy="75.6548" r="30.9121" fill="url(#paint1_linear_1161_1760)"/>
<path d="M220.402 166.947L177.784 145.281C171.117 150.122 168.07 118.52 165.403 121.948C162.07 126.234 188.736 197.66 193.498 212.422C198.26 227.183 223.735 200.279 224.687 197.66C225.449 195.565 218.497 190.359 220.402 166.947Z" fill="#534C99"/>
<path d="M182.335 135.764L206.831 148.138L212.822 133.071L184.265 113.456L182.335 135.764Z" fill="#534C99"/>
<path d="M346.379 157.489L384.509 136.007C391.849 157.22 404.38 185.04 405.454 195.352C406.797 208.241 359 204.75 354.703 203.944C351.266 203.3 347.632 174.674 346.379 157.489Z" fill="#0E163A"/>
<path d="M347.539 143.393C358.233 137.826 380.148 126.209 382.257 124.276L377.863 109.115L346.379 126.474L347.539 143.393Z" fill="#0E163A"/>
<path d="M340.463 53.6015C334.406 72.4963 325.364 84.865 321.701 89.8531C322.957 93.3066 325.51 100.318 325.678 100.737C325.887 101.26 296.586 123.593 325.678 117.732C335.41 118.363 370.436 100.737 375.48 77.6966C372.41 73.2319 349.743 54.2956 346.379 51.0306C342.174 46.9494 343.184 40.8346 340.463 53.6015Z" fill="#0E163A"/>
<path d="M239.774 87.0797C236.396 82.7367 231.205 68.4935 229.976 60.9995C219.733 60.9995 233.523 94.6197 234.629 94.4186C235.734 94.2176 243.996 92.5085 239.774 87.0797Z" fill="#0E163A"/>
<path d="M230.71 55.7056C235.664 101.334 261.656 110.94 298.742 106.464L311.784 105.231" stroke="#9263C7" stroke-width="3"/>
<path d="M325.025 19.7898C340.761 87.6352 297.658 112.203 238.385 100.021" stroke="#9263C7" stroke-width="3"/>
</g>
<mask id="mask1_1161_1760" style="mask-type:alpha" maskUnits="userSpaceOnUse" x="179" y="85" width="206" height="323">
<path d="M194.233 234.289L198.661 236.129L203.92 261.557L204.556 269.765L212.764 323.069L179.547 384.084L228.701 392.888L265.383 406.582C268.038 411.045 278.676 393.568 279.106 393.764C279.535 393.959 297.026 403.432 298.117 405.142C299.289 403.806 303.544 396.297 306.233 394.605C308.393 393.246 309.48 388.951 310.718 386.834H334.011L370.622 380.654L361.045 345.014L354.302 320.626L357.185 301.669L360.849 274.163L362.999 261.823L365.674 236.668L369.809 236.112L372.727 231.977L378.148 216.515L384.019 202.27L384.367 191.533L382.386 177.114L379.155 174.578L374.082 175.168C372.449 176.859 369.121 180.387 368.87 180.971C368.62 181.555 367.562 182.766 367.064 183.299L366.438 169.296L363.659 152.514L358.586 134.169L348.058 114.26L337.252 101.439L329.469 94.5244L322.451 89.1737C319.798 91.7216 314.466 96.8454 314.355 96.9566C314.244 97.0678 306.248 101.172 302.264 103.211L286.837 105.851L270.993 104.357L254.836 99.1108L244.517 92.544L237.776 85.2812L233.815 86.8799C229.97 89.6247 222.217 95.1697 221.967 95.3921C221.654 95.67 212.134 108.84 211.717 109.569C211.384 110.153 208.405 116.669 206.957 119.854L203.274 132.779L201.224 146.99L200.558 166.307L201.057 189.139L200.005 187.774C198.024 184.154 194.04 176.89 193.949 176.799C193.858 176.708 191.712 174.657 190.651 173.643L184.651 174.352L182.263 177.821L181.013 193.988C181.212 196.456 181.61 201.463 181.61 201.75C181.61 202.036 183.941 208.417 185.106 211.571L190.309 226.3L194.233 234.289Z" fill="url(#paint2_linear_1161_1760)"/>
</mask>
<g mask="url(#mask1_1161_1760)">
<path d="M194.233 234.289L198.661 236.129L203.92 261.557L204.556 269.765L213.534 323.099L179.547 384.084L228.701 392.888L265.383 406.582C268.038 411.045 278.676 393.568 279.106 393.764C279.535 393.959 297.026 403.432 298.117 405.142C299.289 403.806 303.544 396.297 306.233 394.605C308.393 393.246 309.48 388.951 310.718 386.834H334.011L345.344 379.089L352.638 351.833L354.302 320.626L357.185 301.669L360.849 274.163L362.999 261.823L365.674 236.668L369.809 236.112L372.727 231.977L378.148 216.515L384.019 202.27L384.367 191.533L382.386 177.114L379.155 174.578L374.082 175.168C372.449 176.859 369.121 180.387 368.87 180.971C368.62 181.555 367.562 182.766 367.064 183.299L366.438 169.296L363.659 152.514L358.586 134.169L348.058 114.26L337.252 101.439L329.469 94.5244L322.451 89.1737C319.798 91.7216 314.466 96.8454 314.355 96.9566C314.244 97.0678 306.248 101.172 302.264 103.211L286.837 105.851L270.993 104.357L254.836 99.1108L244.517 92.544L237.776 85.2812L233.815 86.8799C229.97 89.6247 222.217 95.1697 221.967 95.3921C221.654 95.67 212.134 108.84 211.717 109.569C211.384 110.153 208.405 116.669 206.957 119.854L203.274 132.779L201.224 146.99L200.558 166.307L201.057 189.139L200.005 187.774C198.024 184.154 194.04 176.89 193.949 176.799C193.858 176.708 191.712 174.657 190.651 173.643L184.651 174.352L182.263 177.821L181.013 193.988C181.212 196.456 181.61 201.463 181.61 201.75C181.61 202.036 183.941 208.417 185.106 211.571L190.309 226.3L194.233 234.289Z" fill="url(#paint3_linear_1161_1760)"/>
<path d="M219.696 341.295C223.459 304.084 208.397 280.719 209.832 263.501C214.603 181.336 188.538 126.4 240.177 87.8438L235.021 73.0464L200.271 115.642L202.738 229.082C200.272 264.13 195.519 336.29 196.236 344.54C196.954 352.79 211.326 346.302 219.696 341.295Z" fill="url(#paint4_linear_1161_1760)"/>
<path d="M184.994 203.074C182.403 196.596 182.449 187.65 182.796 183.987C180.058 187.457 174.467 195.069 174.005 197.753C173.426 201.107 178.863 224.822 182.102 234.655C184.693 242.521 194.518 243.022 199.107 242.29C195.482 231.917 187.585 209.552 184.994 203.074Z" fill="url(#paint5_linear_1161_1760)"/>
<path d="M270.809 259.797C263.854 261.509 249.723 265.124 248.838 265.883C251.894 274.023 258.812 290.889 262.037 293.229C266.067 296.153 301.396 286.195 306.217 284.851C310.074 283.776 317.466 272.759 320.68 267.385C311.591 263.064 293.255 254.407 292.623 254.344C291.991 254.281 288.882 258.217 287.407 260.193L282.428 261.299L275.631 259.797H270.809Z" fill="#DF7F6F"/>
<path d="M296.476 266.097L310.102 265.488C304.237 264.488 296.015 263.175 288.602 263.841C283.485 264.3 278.265 264.734 273.177 264.018C264.027 262.729 259.554 264.056 252.343 265.488H258.444L265.562 265.792C269.511 266.521 277.49 267.999 277.816 268.08C278.142 268.161 283.646 267.877 286.358 267.724L296.476 266.097Z" fill="#C05947"/>
<path fill-rule="evenodd" clip-rule="evenodd" d="M274.516 349.504C339.757 319.315 363.107 281.704 363.107 281.704C364.031 280.73 365.069 279.578 366.15 278.361L361.459 269.975L356.848 276.171L347.082 288.034L326.449 308.666L305.105 327.402L282.813 332.382L266.212 330.485L250.56 321.394L218.402 290.314C229.932 320.213 251.046 339.871 274.516 349.504ZM283.926 352.798C323.638 364.375 367.194 348.503 381.698 306.161L369.693 284.696C369.652 284.775 369.61 284.855 369.568 284.934C354.75 313.142 308.692 342.221 283.926 352.798Z" fill="url(#paint6_linear_1161_1760)"/>
<path d="M243.655 202.335L223.71 191.772L222.84 182.453C233.714 183.323 255.957 185.224 257.945 185.87C260.431 186.678 257.697 194.072 257.448 195.004C257.25 195.749 248.17 200.202 243.655 202.335Z" fill="url(#paint7_linear_1161_1760)"/>
<path d="M321.901 202.334L302.216 193.903L303.883 185.869C317.664 182.012 334.203 185.223 336.191 185.87C338.677 186.677 335.943 194.071 335.694 195.003C335.496 195.749 326.416 200.201 321.901 202.334Z" fill="url(#paint8_linear_1161_1760)"/>
<path fill-rule="evenodd" clip-rule="evenodd" d="M298.52 190.39L303.136 183.39L312.522 175.636C312.623 169.35 315.073 163.12 317.675 156.507C324.508 139.135 332.381 119.119 301.449 88.4783C305.032 85.3478 321.317 80.2969 322.771 80.2969C324.589 80.2969 371.844 96.3516 390.928 115.133C410.012 133.913 411.526 183.39 407.589 198.435C406.297 203.371 400.36 210.153 393.394 218.112C383.372 229.561 371.221 243.443 367.707 257.759L338.984 293.544C336.001 293.042 332.896 292.721 329.903 292.412L329.903 292.412C315.448 290.919 303.633 289.698 320.954 269.621C343.989 236.628 341.329 208.105 339.659 199.019C333.64 202.868 325.659 205.016 318.521 204.911L313.72 203.566L310.204 202.1C309.913 206.196 308.635 208.932 307.367 211.648C305.546 215.548 303.745 219.405 304.918 227.183L307.079 228.532C307.457 230.135 308.256 233.555 308.429 234.419C308.645 235.5 307.025 237.552 306.701 237.714C306.441 237.844 305.404 238.92 304.918 239.442L301.449 237.208L299.463 236.31L295.143 238.578L288.878 243.925C286.825 244.141 282.591 244.562 282.073 244.519C281.554 244.476 279.192 244.105 278.076 243.925L272.783 239.766L267.976 236.688L263.709 239.766L260.793 238.146L259.303 234.984C258.897 223.243 270.385 224.973 280.65 226.97C289.721 228.735 295.087 222.365 294.993 213.123L294.888 202.723C294.844 198.342 296.108 194.047 298.52 190.39ZM249.449 204.47C265.036 197.31 264.906 190.228 264.748 181.606C264.742 181.249 264.735 180.889 264.73 180.527L238.903 171.439C233.041 167.151 220.42 162.965 216.832 180.527C212.347 202.479 230.445 208.231 249.449 204.47ZM242.47 199.199C242.193 199.173 238.626 198.1 236.877 197.566C231.346 194.392 229.083 190.527 229.083 190.527L234.206 188.358L241.276 187.197L250.955 187.636L255.48 190.275C255.48 190.275 254.191 194.14 249.446 197.189L245.581 198.917L242.47 199.199ZM306.493 192.464C309.457 194.825 313.025 196.872 317.722 198.342C319.547 198.572 322.488 198.577 323.729 198.551L328.347 196.872C333.463 194.458 335.588 190.916 335.588 190.916L328.583 187.978L313.314 187.846L309.326 189.526L306.493 192.464Z" fill="#E27B6C"/>
<path d="M375.821 185.496L381.22 176.182L383.052 178.937C375.583 190.78 374.647 198.318 375.424 203.551C375.739 205.668 376.949 207.573 377.259 209.691C378.046 215.071 372.658 219.921 370.489 219.219L374.075 214.5L374.869 211.906L374.551 208.784L373.493 205.979L371.958 201.427L372.54 195.499L375.821 185.496Z" fill="#D9695C"/>
<path d="M188.578 182.117C186.987 178.841 184.639 176.462 183.664 175.682L182.666 179.448C190.824 186.068 192.029 195.677 189.305 208.287C187.944 215.696 192.983 218.343 195.672 218.74L192.029 214.348L191.314 211.249L191.68 209.381L193.142 204.701L194.078 198.031L192.382 190.659C191.777 189.177 190.17 185.394 188.578 182.117Z" fill="#D9695C"/>
<mask id="mask2_1161_1760" style="mask-type:alpha" maskUnits="userSpaceOnUse" x="198" y="178" width="170" height="154">
<path fill-rule="evenodd" clip-rule="evenodd" d="M238.959 255.272C244.28 248.146 253.068 240.296 264.106 239.874C266.289 237.439 267.852 236.546 267.852 236.546L270.979 238.082L278.05 243.618L284.824 244.883L290.109 242.724L293.459 239.449L297.478 236.546L301.721 236.993L305.203 239.449C305.203 239.449 318.452 242.98 331.753 260.585C335.091 265.004 341.055 266.197 343.897 261.444C357.464 238.752 366.808 178.773 366.808 178.773L367.855 181.964L365.801 236.09L362.831 267.195L342.698 292.985C327.713 308.788 300.213 330.118 300.213 330.118C295.628 329.721 291.72 330.221 287.748 330.729C281.835 331.485 275.779 332.26 267.132 330.118C266.507 330.118 250.605 323.952 239.833 311.949L220.906 292.985L209.329 277.428L205.191 268.057C204.129 263.206 202.004 253.401 202.004 252.982C202.004 252.563 199.561 235.991 198.34 227.757L200.039 188.362L201.97 189.181C202.056 190.142 202.142 191.103 202.227 192.063C204.64 219.152 206.984 245.468 224.342 259.184C228.918 262.8 235.47 259.945 238.959 255.272ZM253.389 265.35L266.882 278.328L272.04 281.124L279.56 282.491C283.372 282.408 291.045 282.193 291.244 281.994C291.443 281.795 294.517 280.709 296.029 280.192L299.199 277.457C299.199 277.457 309.453 269.769 312.873 265.835C312.873 265.835 302.949 261.544 289.515 259.286L286.754 260.298L281.836 254.476L277.191 260.138C276.158 259.894 273.648 259.461 272.351 259.248L267.501 261.416C267.501 261.416 262.209 262.805 253.389 265.35Z" fill="url(#paint9_linear_1161_1760)"/>
</mask>
<g mask="url(#mask2_1161_1760)">
<path fill-rule="evenodd" clip-rule="evenodd" d="M238.959 255.272C244.28 248.146 253.068 240.296 264.106 239.874C266.289 237.439 267.852 236.546 267.852 236.546L270.979 238.082L278.05 243.618L284.824 244.883L290.109 242.724L293.459 239.449L297.478 236.546L301.721 236.993L305.203 239.449C305.203 239.449 318.452 242.98 331.753 260.585C335.091 265.004 341.055 266.197 343.897 261.444C357.464 238.752 366.808 178.773 366.808 178.773L367.855 181.964L365.801 236.09L362.831 267.195L342.698 292.985C327.713 308.788 300.213 330.118 300.213 330.118C295.628 329.721 291.72 330.221 287.748 330.729C281.835 331.485 275.779 332.26 267.132 330.118C266.507 330.118 250.605 323.952 239.833 311.949L220.906 292.985L209.329 277.428L205.191 268.057C204.129 263.206 202.004 253.401 202.004 252.982C202.004 252.563 199.561 235.991 198.34 227.757L200.039 188.362L201.885 189.209C201.962 190.072 202.039 190.935 202.116 191.797C204.542 218.989 206.901 245.427 224.34 259.187C228.918 262.799 235.47 259.945 238.959 255.272ZM265.4 276.794L272.04 281.124L279.56 282.491C283.372 282.408 291.045 282.193 291.244 281.994C291.443 281.795 294.517 280.709 296.029 280.192L299.199 277.457C299.199 277.457 309.453 269.769 312.873 265.835C312.873 265.835 302.949 261.544 289.515 259.286L286.754 260.298L281.836 254.476L277.191 260.138C276.158 259.894 273.648 259.461 272.351 259.248L267.501 261.416C267.501 261.416 262.246 262.789 253.426 265.335C253.426 265.335 255.306 269.096 265.4 276.794Z" fill="url(#paint10_linear_1161_1760)"/>
<path d="M299.003 252.794C290.838 253.51 279.366 252.514 263.383 238.072L296.511 232.025C297.332 231.875 298.186 231.915 298.941 232.271C301.237 233.355 303.439 235.281 304.933 236.768C306.172 238.002 306.49 239.842 305.909 241.492L303.072 249.554C302.446 251.331 300.88 252.63 299.003 252.794Z" fill="#38334F"/>
<path d="M233.428 317.522C227.19 321.721 214.676 314.044 205.476 300.375C196.276 286.706 193.875 272.222 200.113 268.024C206.35 263.825 218.865 271.502 228.065 285.171C237.265 298.84 239.666 313.324 233.428 317.522Z" fill="url(#paint11_linear_1161_1760)"/>
<path d="M196.254 252.122L214.752 242.889" stroke="url(#paint12_linear_1161_1760)" stroke-width="5"/>
<path d="M199.345 238.657L217.843 229.424" stroke="url(#paint13_linear_1161_1760)" stroke-width="5"/>
<path d="M360.136 241.975L367.602 181.08C384.097 187.934 418.76 204.01 425.451 213.489C433.814 225.338 409.072 297.126 400.708 327.792C394.017 352.326 319.627 355.671 283.269 354.277L255.859 323.959C259.852 321.103 264.638 319.567 269.547 319.567H286.083C298.759 319.567 310.897 314.448 319.744 305.37L339.407 285.193C350.858 273.442 358.139 258.261 360.136 241.975Z" fill="#38334F"/>
<path d="M266.145 283.343L264.183 275.473L265.895 277.438L273.629 281.241L289.603 282.319L295.372 280.417L299.746 276.93L298.593 282.92C297.868 286.686 294.573 289.408 290.737 289.408H273.907C270.234 289.408 267.033 286.907 266.145 283.343Z" fill="#38334F"/>
</g>
<path d="M273.135 240.126C270.209 236.483 269.23 236.361 267.793 236.627C263.835 236.175 263.533 239.704 263.533 239.704C267.021 239.704 268.63 239.958 273.135 240.781V240.126Z" fill="#1B2C44"/>
<path d="M293.233 240.126C296.159 236.483 297.138 236.361 298.575 236.627C302.533 236.175 302.835 239.704 302.835 239.704C296.835 240.914 293.233 240.781 293.233 240.781V240.126Z" fill="#1B2C44"/>
</g>
<mask id="mask3_1161_1760" style="mask-type:alpha" maskUnits="userSpaceOnUse" x="124" y="317" width="344" height="56">
<path d="M210.281 344.742L202.593 372.33L164.234 366.84L158.918 363.817L151.343 361.142H139.426L131.955 357.633L124.798 353.22L135.638 348.738L165.52 335.917L181.155 329.037L185.499 328.69L189.042 329.663L201.03 321.428L212.784 317.97L215.396 330.742L210.281 344.742Z" fill="url(#paint14_linear_1161_1760)"/>
<path d="M351.714 328.033C351.714 328.033 353.918 355.017 347.28 370.611L364.415 367.514L392.844 361.77L403.432 358.057L413.614 356.084L422.404 356.432L432.644 356.751L452.312 354.779L464.118 354.46L467.077 354.141L455.212 349.934C453.839 349.78 451.006 349.476 450.658 349.499C450.31 349.522 447.206 350.147 445.698 350.456L410.684 338.998L383.532 329.512L374.626 327.22L367.461 326.553L359.281 320.026L355.539 317.735L353.918 318.617L352.104 322.413L351.714 328.033Z" fill="url(#paint15_linear_1161_1760)"/>
</mask>
<g mask="url(#mask3_1161_1760)">
<path d="M210.281 344.742L202.593 372.33L164.234 366.84L158.918 363.817L151.343 361.142H139.426L131.955 357.633L124.798 353.22L135.638 348.738L165.52 335.917L181.155 329.037L185.499 328.69L189.042 329.663L201.03 321.428L212.784 317.97L215.396 330.742L210.281 344.742Z" fill="url(#paint16_linear_1161_1760)"/>
<path d="M351.714 328.033C351.714 328.033 353.918 355.017 347.28 370.611L364.415 367.514L392.844 361.77L403.432 358.057L413.614 356.084L422.404 356.432L432.644 356.751L452.312 354.779L464.118 354.46L467.077 354.141L455.212 349.934C453.839 349.78 451.006 349.476 450.658 349.499C450.31 349.522 447.206 350.147 445.698 350.456L410.684 338.998L383.532 329.512L374.626 327.22L367.461 326.553L359.281 320.026L355.539 317.735L353.918 318.617L352.104 322.413L351.714 328.033Z" fill="url(#paint17_linear_1161_1760)"/>
<path d="M409.722 365.246L357.043 318.807L349.703 308.25L354.931 318.807L395.533 365.246L400.353 372.329L409.722 365.246Z" fill="url(#paint18_linear_1161_1760)"/>
<path d="M153.294 368.222L190.058 328.628L134.615 361.895L153.294 368.222Z" fill="url(#paint19_linear_1161_1760)"/>
<path d="M218.245 349.784L202.624 317.065L215.29 305.876C224.508 310.168 243.198 319.048 244.211 320.231C245.224 321.413 227.323 340.425 218.245 349.784Z" fill="url(#paint20_linear_1161_1760)"/>
</g>
<mask id="mask4_1161_1760" style="mask-type:alpha" maskUnits="userSpaceOnUse" x="46" y="353" width="469" height="178">
<path d="M119.422 468.688L46.115 434.254V426.376L50.4328 399.858L57.511 380.468L67.1314 369.701L72.6145 365.763L91.2073 358.834L111.595 355.146L119.47 353.75L124.455 353.153L136.966 360.381L143.646 360.829L154.762 361.777L161.89 366.313L176.096 368.556L217.07 375.335L232.522 379.422L244.735 383.011L257.695 388.494L271.652 393.379H283.715L292.537 390.089L303.055 383.709L315.616 377.279L326.084 374.786L358.933 368.107L387.332 362.612L397.718 360.553L404.216 358.232L412.686 355.969L421.563 356.52L432.586 356.694L446.481 355.36L457.214 354.342H465.424L471.697 355.909L488.358 365.728L496.817 372.904L505.464 383.239L510.975 394.661L514.016 407.858L514.533 419.503L486.005 438.393L449.714 460.775L410.642 482.252L361.348 506.382L331.073 519.902L308.044 528.635L295.947 530.446L282.815 530.899L266.19 529.282L240.724 519.898L188.291 498.979L119.422 468.688Z" fill="url(#paint21_linear_1161_1760)"/>
</mask>
<g mask="url(#mask4_1161_1760)">
<path d="M119.422 468.688L46.115 434.254V426.376L50.4328 399.858L57.511 380.468L67.1314 369.701L72.6145 365.763L91.2073 358.834L111.595 355.146L119.47 353.75L124.455 353.153L136.966 360.381L143.646 360.829L154.762 361.777L161.89 366.313L176.096 368.556L217.07 375.335L232.522 379.422L244.735 383.011L257.695 388.494L271.652 393.379H283.715L292.537 390.089L303.055 383.709L315.616 377.279L326.084 374.786L358.933 368.107L387.332 362.612L397.718 360.553L404.216 358.232L412.686 355.969L421.563 356.52L432.586 356.694L446.481 355.36L457.214 354.342H465.424L471.697 355.909L488.358 365.728L496.817 372.904L505.464 383.239L510.975 394.661L514.016 407.858L514.533 419.503L486.005 438.393L449.714 460.775L410.642 482.252L361.348 506.382L331.073 519.902L308.044 528.635L295.947 530.446L282.815 530.899L266.19 529.282L240.724 519.898L188.291 498.979L119.422 468.688Z" fill="url(#paint22_linear_1161_1760)"/>
<path d="M507.712 448.306C515.436 417.409 490.409 365.499 431.392 356.849C444.679 333.881 472.178 287.45 475.886 285.472C480.521 283 572.599 390.836 576.306 397.016C579.273 401.96 531.813 433.269 507.712 448.306Z" fill="url(#paint23_linear_1161_1760)"/>
<path fill-rule="evenodd" clip-rule="evenodd" d="M185.604 475.654C221.342 503.271 273.407 528.67 341.335 546.845C426.884 604.776 102.396 561.44 19.0362 546.845C-50.29 451.697 -180.354 258.875 -145.999 248.771C-111.645 238.667 118.755 293.767 181.906 318.186C117.978 344.822 110.951 398.878 158.045 450.537C144.308 443.737 129.713 436.072 115.639 427.978C100.157 419.074 85.3931 409.701 73.123 400.435C60.7637 391.101 51.3103 382.154 46.071 374.174L36.8758 380.211C43.1617 389.785 53.8219 399.643 66.494 409.213C79.2554 418.85 94.4409 428.476 110.155 437.513C136.447 452.634 164.466 466.248 185.604 475.654Z" fill="#0D1029"/>
</g>
<path fill-rule="evenodd" clip-rule="evenodd" d="M214.292 329.119C214.292 329.119 212.149 334.983 209.314 343.961C208.364 346.972 207.327 350.33 206.295 353.942C205.829 355.568 205.363 357.246 204.915 358.968C204.625 360.074 204.346 361.198 204.074 362.339C203.419 365.094 202.54 368.658 201.935 371.543C201.85 371.893 202.073 372.242 202.433 372.326C202.794 372.409 203.154 372.192 203.24 371.843C203.837 369.732 204.73 366.931 205.327 364.882C205.946 362.759 206.554 360.677 207.14 358.647C207.633 356.941 208.101 355.271 208.563 353.654C209.319 351.008 210.038 348.496 210.722 346.168C213.636 336.256 215.853 329.631 215.853 329.631C215.999 329.215 215.768 328.761 215.337 328.619C214.907 328.478 214.438 328.702 214.292 329.119Z" fill="#623FC6"/>
<path fill-rule="evenodd" clip-rule="evenodd" d="M211.228 316.988L201.949 320.103C199.549 320.91 197.261 322.006 195.136 323.366C193.011 324.725 191.048 326.347 189.291 328.199C187.358 330.243 185.039 332.679 182.662 335.214C181.2 336.773 179.711 338.364 178.277 339.924C176.329 342.043 174.475 344.095 172.868 345.887C169.71 349.408 167.524 351.91 167.524 351.91C167.332 352.113 167.336 352.435 167.533 352.632C167.732 352.827 168.048 352.823 168.24 352.621C168.24 352.621 170.633 350.323 173.995 347.004C175.706 345.316 177.665 343.367 179.687 341.324C181.178 339.818 182.695 338.255 184.182 336.721C186.6 334.226 188.923 331.794 190.873 329.767C192.513 328.054 194.345 326.56 196.323 325.303C198.301 324.046 200.423 323.029 202.653 322.281L211.931 319.164C212.52 318.967 212.84 318.318 212.646 317.718C212.452 317.117 211.817 316.791 211.228 316.988Z" fill="#623FC6"/>
<path fill-rule="evenodd" clip-rule="evenodd" d="M353.808 319.731C358.732 318.652 361.216 323.018 369.636 330.749C372.194 333.099 374.844 335.538 377.384 337.822C379.731 339.932 381.978 341.913 383.931 343.619C387.834 347.027 390.56 349.326 390.56 349.326C390.807 349.554 391.193 349.537 391.421 349.29C391.647 349.042 391.631 348.657 391.383 348.429C391.383 348.429 388.858 345.911 385.128 342.315C383.26 340.516 381.093 338.447 378.789 336.291C376.295 333.956 373.638 331.526 371.077 329.179C362.164 321.008 359.434 314.309 352.975 318.033C352.505 318.263 352.312 318.83 352.543 319.299C352.772 319.768 353.34 319.962 353.808 319.731Z" fill="#623FC6"/>
<path d="M352.066 326.617C355.307 353.335 347.51 370.916 347.51 370.916" stroke="#623FC6" stroke-width="1.5"/>
<path fill-rule="evenodd" clip-rule="evenodd" d="M190.21 327.65L185.334 327.492C184.346 327.46 183.36 327.538 182.392 327.723C181.426 327.908 180.479 328.199 179.567 328.593C173.857 331.074 159.522 337.224 147.073 342.709C135.469 347.82 125.501 352.344 125.501 352.344C125.128 352.504 124.953 352.946 125.108 353.331C125.265 353.715 125.694 353.896 126.066 353.736C126.066 353.736 136.186 349.588 147.86 344.651C160.387 339.354 174.696 333.14 180.416 330.686C181.182 330.356 181.98 330.114 182.792 329.96C183.605 329.807 184.432 329.743 185.263 329.772L190.139 329.939C190.752 329.96 191.265 329.463 191.285 328.832C191.305 328.199 190.823 327.669 190.21 327.65Z" fill="#623FC6"/>
<path fill-rule="evenodd" clip-rule="evenodd" d="M366.455 327.158L369.038 327.273C370.184 327.324 371.326 327.452 372.453 327.659C373.582 327.865 374.698 328.148 375.792 328.507C383.587 331.057 403.247 337.54 420.417 343.109C436.396 348.291 450.215 352.689 450.215 352.689C450.587 352.812 450.986 352.6 451.106 352.215C451.225 351.83 451.018 351.418 450.647 351.294C450.647 351.294 436.923 346.59 420.999 341.232C403.887 335.473 384.234 328.965 376.454 326.369C375.269 325.976 374.062 325.662 372.841 325.433C371.619 325.204 370.381 325.057 369.138 324.997L366.555 324.869C365.944 324.841 365.424 325.33 365.397 325.961C365.369 326.592 365.843 327.129 366.455 327.158Z" fill="#623FC6"/>
<path fill-rule="evenodd" clip-rule="evenodd" d="M446.126 351.043L452.904 350.319C453.279 350.278 453.656 350.284 454.026 350.332C454.398 350.38 454.763 350.472 455.115 350.607L469.46 356.087C469.465 356.088 469.471 356.091 469.475 356.093C469.475 356.093 488.887 363.11 501.974 380.821C508.994 390.323 514.187 402.913 513.56 419.161C509.228 422.165 469.506 449.463 415.985 478.177C384.585 495.024 348.436 512.362 311.892 525.554C311.892 525.554 311.892 525.554 311.891 525.556C303.543 528.58 294.806 530.127 286.059 530.196C277.312 530.264 268.555 528.854 260.162 525.961C242.347 519.761 214.495 509.164 173.575 491.469C140.356 477.104 98.5285 458.073 46.4876 432.894C45.9675 432.642 45.3418 432.861 45.0911 433.384C44.8404 433.907 45.0592 434.536 45.5793 434.788C97.6246 460.046 139.451 479.156 172.681 493.554C213.664 511.311 241.572 521.917 259.417 528.132C259.418 528.132 259.419 528.133 259.42 528.133C268.06 531.103 277.075 532.547 286.077 532.469C295.077 532.39 304.064 530.789 312.65 527.67C349.279 514.398 385.512 496.976 416.977 480.041C473.792 449.463 515.06 420.484 515.06 420.484C515.306 420.31 515.459 420.032 515.472 419.729C516.22 402.726 510.804 389.587 503.475 379.699C490.156 361.73 470.49 354.529 470.092 354.384C470.094 354.385 455.748 348.929 455.748 348.929C455.265 348.745 454.763 348.62 454.254 348.554C453.745 348.489 453.228 348.483 452.714 348.54L445.936 349.275C445.451 349.327 445.1 349.766 445.151 350.254C445.203 350.742 445.639 351.095 446.126 351.043Z" fill="#623FC6"/>
<path fill-rule="evenodd" clip-rule="evenodd" d="M47.2341 433.778C47.2341 433.778 47.1362 415.576 52.4221 397.858C55.898 386.204 61.4171 374.595 70.324 368.375C71.4225 367.618 72.5936 366.974 73.8208 366.451C73.823 366.451 73.8241 366.45 73.8263 366.449C96.4665 356.689 119.154 355.215 119.154 355.215C119.785 355.175 120.264 354.629 120.223 353.998C120.182 353.368 119.636 352.888 119.006 352.929C119.006 352.929 95.9387 354.421 72.9202 364.344C71.5523 364.927 70.2459 365.646 69.021 366.49C69.0188 366.491 69.0177 366.493 69.0155 366.494C59.7181 372.986 53.8549 385.039 50.2262 397.203C44.8545 415.214 44.9436 433.713 44.9436 433.713C44.926 434.345 45.4241 434.872 46.0564 434.891C46.6876 434.909 47.2154 434.411 47.2341 433.778Z" fill="#623FC6"/>
<path fill-rule="evenodd" clip-rule="evenodd" d="M119.522 355.089L121.83 354.295C122.333 354.123 122.863 354.062 123.381 354.11C123.9 354.158 124.409 354.313 124.869 354.575L135.223 360.461C136.339 361.096 137.534 361.579 138.774 361.9C140.013 362.222 141.298 362.383 142.594 362.374L149.901 362.324C151.158 362.315 152.403 362.475 153.603 362.794C154.804 363.113 155.958 363.591 157.033 364.218L163.116 367.774C163.245 367.849 163.388 367.898 163.538 367.917C181.35 370.132 202.495 372.681 223.482 377.887C236.468 381.11 249.395 385.35 261.429 391.165C266.775 393.803 272.641 395.005 278.451 394.791C284.261 394.576 290.015 392.945 295.132 389.919C295.136 389.917 295.138 389.916 295.141 389.914C300.461 386.697 305.671 382.882 312.232 379.927C315.893 378.279 319.978 376.9 324.748 376.048C324.754 376.047 324.761 376.046 324.769 376.045L394.739 362.002C395.355 361.879 395.968 361.742 396.578 361.593C397.187 361.444 397.793 361.28 398.396 361.106C398.397 361.106 398.397 361.106 398.398 361.105C404.553 359.298 407.694 357.556 412.643 356.983C415.201 356.687 418.245 356.707 422.455 357.187H422.456C423.831 357.341 425.212 357.443 426.595 357.493C427.978 357.543 429.363 357.541 430.746 357.486C430.75 357.486 430.755 357.487 430.758 357.485C439.121 357.037 448.743 355.516 457.344 355.174C461.398 355.013 465.222 355.113 468.57 355.728C469 355.807 469.417 355.535 469.499 355.121C469.581 354.706 469.299 354.306 468.869 354.227C465.414 353.587 461.465 353.468 457.279 353.628C448.673 353.956 439.044 355.463 430.674 355.898C429.335 355.949 427.997 355.949 426.659 355.898C425.32 355.848 423.982 355.747 422.651 355.595C418.272 355.089 415.105 355.072 412.444 355.376C407.394 355.952 404.183 357.701 397.902 359.533C397.324 359.7 396.742 359.855 396.156 359.997C395.571 360.14 394.983 360.271 394.39 360.388L324.405 374.316C319.468 375.189 315.238 376.609 311.446 378.307C304.806 381.282 299.524 385.121 294.138 388.365C289.3 391.213 283.865 392.743 278.379 392.936C272.895 393.129 267.359 391.983 262.32 389.483C262.318 389.482 262.316 389.481 262.312 389.48C250.164 383.581 237.11 379.268 223.992 375.988C203.017 370.742 181.878 368.139 164.043 365.888L158.161 362.435C156.916 361.704 155.577 361.148 154.185 360.775C152.792 360.402 151.346 360.215 149.887 360.222L142.58 360.259C141.484 360.264 140.398 360.126 139.349 359.852C138.302 359.578 137.293 359.168 136.35 358.63L126.007 352.724C125.262 352.298 124.438 352.044 123.596 351.965C122.755 351.886 121.895 351.984 121.078 352.262L118.768 353.052C118.184 353.252 117.879 353.871 118.087 354.433C118.295 354.995 118.938 355.289 119.522 355.089Z" fill="#623FC6"/>
<path d="M277.357 493.221H287.735V504.095H277.357V493.221Z" fill="white"/>
<path d="M277.357 414.439H287.735V426.375H277.357V414.439Z" fill="white"/>
<path fill-rule="evenodd" clip-rule="evenodd" d="M282.677 486.709C286.342 486.709 289.856 485.258 292.448 482.675C295.039 480.092 296.495 476.589 296.495 472.937H305.706C305.706 479.024 303.28 484.863 298.961 489.167C294.643 493.472 288.785 495.89 282.677 495.89C276.57 495.89 270.712 493.472 266.394 489.167C262.075 484.863 259.649 479.024 259.649 472.937H268.86C268.86 476.589 270.316 480.092 272.907 482.675C275.498 485.258 279.013 486.709 282.677 486.709Z" fill="white"/>
<path fill-rule="evenodd" clip-rule="evenodd" d="M282.426 458.479C289.629 458.479 295.468 452.659 295.468 445.48C295.468 438.301 289.629 432.481 282.426 432.481C275.223 432.481 269.384 438.301 269.384 445.48C269.384 452.659 275.223 458.479 282.426 458.479ZM282.426 468.384C295.117 468.384 305.405 458.13 305.405 445.48C305.405 432.831 295.117 422.576 282.426 422.576C269.735 422.576 259.447 432.831 259.447 445.48C259.447 458.13 269.735 468.384 282.426 468.384Z" fill="white"/>
<path fill-rule="evenodd" clip-rule="evenodd" d="M191.511 174.049L191.72 119.044C191.741 112.991 192.883 107.049 195.032 101.498C197.179 95.9521 200.333 90.7972 204.388 86.3138C208.762 81.4687 214.433 76.1035 221.652 70.7895C227.288 66.641 233.866 62.5241 241.511 58.7179C254.608 52.2366 268.054 49.6452 280.904 49.5559C295.412 49.4554 309.17 52.5473 320.826 56.9488C329.65 61.4768 337.216 66.6968 343.636 72.0406C351.747 78.7926 358.031 85.7418 362.696 91.7553C366.184 96.2684 368.876 101.296 370.703 106.621C372.532 111.951 373.495 117.579 373.512 123.29L373.692 174.684C373.692 174.975 373.926 175.209 374.216 175.209C374.506 175.209 374.741 174.975 374.741 174.684L374.902 123.289C374.921 117.42 373.969 111.629 372.123 106.139C370.274 100.644 367.528 95.4508 363.961 90.7805L363.96 90.7795C359.265 84.6619 352.939 77.5843 344.754 70.7039C338.256 65.2421 330.585 59.9057 321.636 55.267C321.604 55.2512 321.572 55.2364 321.54 55.2243C309.681 50.7046 295.672 47.4881 280.891 47.5821C267.763 47.6649 254.032 50.3614 240.659 57.0009C240.658 57.0009 240.657 57.0018 240.656 57.0027C232.919 60.8917 226.262 65.0895 220.566 69.3217C213.261 74.7501 207.534 80.2325 203.12 85.1735C198.955 89.8336 195.724 95.1801 193.543 100.926C191.363 106.666 190.23 112.802 190.252 119.044L190.461 174.049C190.461 174.338 190.696 174.574 190.986 174.574C191.276 174.574 191.511 174.338 191.511 174.049Z" fill="#623FC6"/>
<path fill-rule="evenodd" clip-rule="evenodd" d="M225.899 192.373C225.899 192.614 226.095 192.809 226.335 192.809L226.583 192.731C229.519 190.821 232.749 189.494 236.103 188.691C238.107 188.212 240.157 187.933 242.227 187.843C243.595 187.782 244.971 187.787 246.349 187.905L248.154 188.047C249.564 188.15 250.942 188.465 252.246 188.972C253.56 189.483 254.801 190.18 255.92 191.065L258.834 193.355C259.019 193.509 259.295 193.484 259.448 193.3C259.602 193.114 259.577 192.84 259.392 192.685L256.611 190.233C255.45 189.213 254.147 188.383 252.75 187.761C251.344 187.135 249.842 186.731 248.296 186.55L246.498 186.347C245.047 186.195 243.595 186.131 242.153 186.198C239.972 186.299 237.815 186.658 235.727 187.25C233.706 187.822 225.899 190.764 225.899 192.373Z" fill="#1B2C44"/>
<path fill-rule="evenodd" clip-rule="evenodd" d="M337.936 192.731C338.305 192.992 338.771 192.309 338.432 192.014C335.5 189.854 332.243 188.227 328.792 187.25C326.703 186.658 324.546 186.299 322.366 186.198C320.924 186.131 319.471 186.195 318.02 186.347L316.222 186.55C314.677 186.731 313.174 187.135 311.768 187.761C310.371 188.383 309.069 189.213 307.907 190.233L305.127 192.685C304.941 192.84 304.916 193.114 305.07 193.3C305.225 193.484 305.499 193.509 305.685 193.355L308.6 191.065C309.719 190.18 310.959 189.483 312.273 188.972C313.577 188.465 314.954 188.15 316.365 188.047L318.17 187.905C319.547 187.787 320.924 187.782 322.292 187.843C324.362 187.933 326.411 188.212 328.415 188.691C331.77 189.494 335 190.821 337.936 192.731Z" fill="#1B2C44"/>
<path fill-rule="evenodd" clip-rule="evenodd" d="M257.33 186.506C257.519 186.181 257.098 185.876 256.785 185.668C255.202 184.612 253.494 183.776 251.701 183.194C249.718 182.549 247.634 182.224 245.527 182.195L241.276 182.214C238.278 182.265 235.317 182.736 232.487 183.63C229.669 184.52 226.984 185.823 224.511 187.496C224.511 187.496 224.332 187.609 224.332 187.824C224.332 188.194 224.626 188.309 224.936 188.152C227.394 186.623 230.047 185.474 232.806 184.701C235.551 183.931 238.402 183.538 241.282 183.566L245.532 183.552C247.516 183.51 249.48 183.771 251.373 184.288C253.281 184.81 255.12 185.585 256.819 186.639C257.014 186.77 257.23 186.678 257.33 186.506Z" fill="#1B2C44"/>
<path fill-rule="evenodd" clip-rule="evenodd" d="M307.639 186.639C309.338 185.585 311.177 184.81 313.085 184.288C314.978 183.771 316.943 183.51 318.926 183.552L323.176 183.566C326.056 183.538 328.908 183.931 331.652 184.701C334.411 185.474 337.064 186.623 339.522 188.152C339.744 188.297 340.007 188.113 340.054 187.865C340.103 187.605 339.837 187.42 339.617 187.275C337.236 185.708 334.664 184.481 331.971 183.63C329.141 182.736 326.18 182.265 323.182 182.214L318.931 182.195C316.824 182.224 314.74 182.549 312.758 183.194C311.369 183.644 307.033 185.577 307.033 186.314C307.033 186.695 307.332 186.788 307.639 186.639Z" fill="#1B2C44"/>
<path fill-rule="evenodd" clip-rule="evenodd" d="M235.554 196.889C235.554 196.889 236.493 197.802 238.186 198.634C238.57 198.823 238.992 198.996 239.452 199.154C239.998 199.342 240.594 199.499 241.234 199.601C241.628 199.664 242.039 199.704 242.462 199.707C243.421 199.714 244.443 199.582 245.496 199.271C246.802 198.887 248.134 198.23 249.491 197.235C249.606 197.167 249.644 197.018 249.576 196.903C249.507 196.788 249.359 196.751 249.244 196.819C247.823 197.49 246.481 197.811 245.221 197.983C244.258 198.114 243.358 198.113 242.511 198.069C242.14 198.05 241.781 198.029 241.433 197.998C240.859 197.947 240.319 197.876 239.813 197.786C237.421 197.36 235.844 196.502 235.844 196.502C235.737 196.421 235.585 196.443 235.505 196.55C235.425 196.657 235.446 196.809 235.554 196.889Z" fill="#1B2C44"/>
<path fill-rule="evenodd" clip-rule="evenodd" d="M328.561 196.889C328.561 196.889 327.622 197.802 325.928 198.634C325.545 198.823 325.123 198.996 324.663 199.154C324.116 199.342 323.52 199.499 322.881 199.601C322.487 199.664 322.076 199.704 321.652 199.707C320.694 199.714 319.671 199.582 318.618 199.271C317.312 198.887 315.98 198.23 314.623 197.235C314.508 197.167 314.47 197.018 314.539 196.903C314.607 196.788 314.756 196.751 314.871 196.819C316.292 197.49 317.634 197.811 318.894 197.983C319.857 198.114 320.757 198.113 321.604 198.069C321.975 198.05 322.334 198.029 322.681 197.998C323.256 197.947 323.795 197.876 324.302 197.786C326.694 197.36 328.271 196.502 328.271 196.502C328.377 196.421 328.529 196.443 328.61 196.55C328.69 196.657 328.668 196.809 328.561 196.889Z" fill="#1B2C44"/>
<path fill-rule="evenodd" clip-rule="evenodd" d="M255.018 200.542C255.018 200.542 253.866 201.778 251.347 202.815C250.969 202.971 250.561 203.125 250.125 203.28C249.734 203.421 249.321 203.561 248.882 203.7C247.76 204.054 246.484 204.396 244.989 204.583C244.834 204.591 244.715 204.724 244.723 204.879C244.733 205.034 244.865 205.152 245.02 205.144C246.301 205.165 247.45 205.096 248.483 204.916C249.318 204.769 250.073 204.562 250.741 204.31C251.564 203.999 252.255 203.621 252.839 203.25C254.72 202.055 255.466 200.884 255.466 200.884C255.559 200.761 255.536 200.584 255.413 200.49C255.289 200.395 255.113 200.419 255.018 200.542Z" fill="#1B2C44"/>
<path fill-rule="evenodd" clip-rule="evenodd" d="M309.163 200.884C309.163 200.884 309.907 202.055 311.789 203.25C312.373 203.621 313.064 203.999 313.886 204.31C314.555 204.562 315.31 204.769 316.145 204.916C317.177 205.096 318.327 205.165 319.607 205.144C319.762 205.152 319.895 205.034 319.904 204.879C319.913 204.724 319.794 204.591 319.639 204.583C318.144 204.396 316.867 204.054 315.745 203.7C315.306 203.561 314.893 203.421 314.503 203.28C314.066 203.125 313.659 202.971 313.281 202.815C310.761 201.778 309.61 200.542 309.61 200.542C309.515 200.419 309.339 200.395 309.215 200.49C309.092 200.584 309.068 200.761 309.163 200.884Z" fill="#1B2C44"/>
<path fill-rule="evenodd" clip-rule="evenodd" d="M301.684 237.527L301.735 237.529L301.769 237.498C301.912 237.356 302.454 236.772 301.92 236.537C301.909 236.531 301.884 236.521 301.849 236.505C300.755 236.025 299.573 235.872 298.428 236.013C297.268 236.156 296.151 236.617 295.192 237.359L289.829 241.54C288.896 242.277 287.847 242.832 286.739 243.212C285.636 243.59 284.472 243.787 283.289 243.778L281.203 243.788C280.273 243.799 279.361 243.625 278.512 243.288C277.659 242.948 276.866 242.452 276.193 241.801L272.465 238.24C271.621 237.439 270.641 236.814 269.574 236.408C268.518 236.006 267.386 235.807 266.236 235.844C266.006 235.852 265.832 235.857 265.748 235.86C265.298 235.844 265.181 236.233 265.181 236.375C265.181 236.658 265.411 236.889 265.695 236.889L266.236 236.907C267.232 236.938 268.196 237.175 269.087 237.578C269.966 237.975 270.764 238.546 271.436 239.263L274.976 243.011C275.787 243.859 276.753 244.524 277.808 244.982C278.869 245.443 280.024 245.683 281.203 245.697L283.289 245.707C284.692 245.696 286.072 245.451 287.367 244.969C288.657 244.49 289.862 243.784 290.926 242.881L296.082 238.445C296.816 237.808 297.69 237.391 298.613 237.224C299.552 237.052 300.534 237.121 301.462 237.463L301.499 237.472C301.556 237.502 301.618 237.52 301.684 237.527Z" fill="#8C3C46"/>
<path fill-rule="evenodd" clip-rule="evenodd" d="M303.107 226.377L303.105 226.376C304.307 226.929 305.27 227.816 305.977 228.873C307.533 231.195 308.194 235.368 306.208 237.666C305.79 238.157 305.286 238.556 304.718 238.833C304.418 238.979 304.104 239.097 303.78 239.181C303.264 239.314 302.691 239.926 303.174 240.15C303.478 240.291 304.056 240.248 305.15 239.847C305.899 239.572 306.579 239.13 307.165 238.565C307.756 237.986 308.205 237.291 308.502 236.538C309.518 233.968 308.746 230.125 307.074 228.064C306.142 226.915 304.885 226.038 303.421 225.564C302.995 225.422 302.526 226.099 303.107 226.377Z" fill="#8C3C46"/>
<path fill-rule="evenodd" clip-rule="evenodd" d="M264.119 240.211C264.361 240.211 264.546 240.006 264.545 239.763C264.543 239.516 264.347 239.315 264.102 239.28C263.6 239.209 263.117 239.054 262.665 238.833C262.097 238.556 261.592 238.157 261.174 237.666C260.761 237.188 260.471 236.629 260.285 236.04C260.103 235.461 260.04 234.845 260.104 234.229L260.246 232.381C260.297 231.099 260.718 229.898 261.405 228.873C262.034 227.933 262.865 227.128 263.886 226.572C264.142 226.434 264.448 226.313 264.45 226.022C264.453 225.548 263.727 225.629 263.29 225.816C262.112 226.319 261.095 227.095 260.309 228.064C259.357 229.237 258.782 230.7 258.617 232.263L258.49 234.111C258.454 234.948 258.579 235.776 258.88 236.538C259.178 237.291 259.626 237.986 260.218 238.565C260.804 239.13 261.485 239.572 262.233 239.847C262.875 240.083 263.468 240.212 264.119 240.211Z" fill="#8C3C46"/>
<path fill-rule="evenodd" clip-rule="evenodd" d="M266.6 233.052L270.382 233.225C271.07 233.254 271.747 233.371 272.405 233.557C273.058 233.741 273.686 234.002 274.283 234.334H274.284C275.548 235.018 276.869 235.558 278.234 235.91C279.617 236.268 281.04 236.447 282.46 236.443C285.265 236.436 288.06 235.731 290.618 234.408L294.063 232.589C294.271 232.489 294.358 232.24 294.258 232.032C294.159 231.826 293.91 231.739 293.702 231.838L290.131 233.399C287.696 234.489 285.079 234.939 282.481 234.862C281.184 234.824 279.893 234.651 278.624 234.345C277.369 234.043 276.131 233.627 274.948 233.047H274.947C274.232 232.706 273.486 232.447 272.717 232.286C271.953 232.126 271.172 232.056 270.387 232.082L266.603 232.22C266.374 232.218 266.186 232.404 266.185 232.634C266.184 232.864 266.37 233.051 266.6 233.052Z" fill="#8C3C46"/>
<path d="M197.841 181.058C198.792 182.805 199.694 184.808 200.394 187.031L201.112 188.262L200.578 190.43C199.436 190.305 198.961 188.902 198.935 188.805C198.251 186.218 197.254 183.913 196.196 181.95C194.699 179.175 193.08 177.08 192.024 175.832C191.743 175.538 191.409 175.307 191.044 175.147C190.667 174.984 190.258 174.895 189.839 174.894L187.58 174.889C186.496 174.887 185.498 175.291 184.74 175.967C183.981 176.643 183.463 177.59 183.341 178.669L182.049 190.126C181.731 192.93 181.746 195.752 182.086 198.534C182.428 201.319 183.094 204.063 184.08 206.71L193.27 231.387C193.728 232.615 194.542 233.639 195.57 234.357C196.6 235.075 197.845 235.488 199.159 235.492V236.886C197.552 236.89 196.027 236.396 194.76 235.526C193.493 234.653 192.485 233.402 191.913 231.897L182.565 207.281C181.517 204.518 180.803 201.652 180.429 198.743C180.055 195.831 180.022 192.875 180.337 189.937L181.575 178.474C181.739 176.942 182.47 175.595 183.543 174.629C184.617 173.663 186.037 173.081 187.58 173.077L189.839 173.072C190.51 173.07 191.166 173.208 191.77 173.468C192.374 173.728 192.925 174.11 193.386 174.599C193.396 174.61 193.406 174.621 193.415 174.632C194.524 175.93 196.249 178.131 197.841 181.058Z" fill="#8C3C46"/>
<path fill-rule="evenodd" clip-rule="evenodd" d="M364.822 234.035L362.751 254.845C362.202 260.374 360.727 265.729 358.425 270.7C356.127 275.666 353.003 280.248 349.148 284.238C342.413 291.219 333.697 300.054 325.185 308.153C319.248 313.803 313.411 319.095 308.408 323.128C306.186 324.907 303.721 326.329 301.104 327.366C298.487 328.401 295.717 329.048 292.88 329.271L280.91 330.305C275.674 330.605 270.477 329.92 265.572 328.336C260.66 326.751 256.038 324.268 251.962 320.959C248.013 317.756 243.646 313.837 239.24 309.683C232.886 303.693 226.452 297.214 221.075 291.655C216.843 287.274 213.303 282.317 210.543 276.959C207.781 271.594 205.798 265.829 204.688 259.832L198.795 228.052C198.703 227.547 198.219 227.211 197.714 227.302C197.209 227.394 196.873 227.878 196.964 228.383L202.609 260.209C203.712 266.424 205.72 272.409 208.54 277.982C211.363 283.561 215.002 288.726 219.361 293.3C219.362 293.3 219.362 293.301 219.362 293.301C224.73 298.917 231.151 305.467 237.499 311.519C241.933 315.744 246.333 319.726 250.311 322.985C254.629 326.519 259.529 329.183 264.745 330.883C269.963 332.585 275.495 333.319 281.07 333.008C281.072 333.008 281.074 333.008 281.077 333.007C282.261 332.934 283.47 332.84 284.712 332.73C287.314 332.5 290.071 332.212 293.096 331.962C296.199 331.715 299.233 331.004 302.095 329.863C304.957 328.723 307.647 327.154 310.072 325.198C310.073 325.197 310.075 325.196 310.076 325.196C315.11 321.1 320.987 315.738 326.951 309.999C335.444 301.827 344.12 292.897 350.83 285.849C354.828 281.644 358.059 276.825 360.42 271.614C362.778 266.408 364.269 260.81 364.792 255.039L366.674 234.211C366.722 233.701 366.348 233.246 365.836 233.197C365.325 233.149 364.871 233.525 364.822 234.035Z" fill="#8C3C46"/>
<path d="M201.162 190.417C200.932 190.488 200.68 190.495 200.405 190.4L200.394 187.032C200.393 186.212 200.351 185.183 200.291 183.969C199.964 177.26 198.95 165.218 199.806 151.618C200.451 141.354 202.165 130.209 205.999 119.792C211.361 105.223 220.871 92.0807 237.402 84.7101C237.752 84.552 238.165 84.7083 238.324 85.059C238.481 85.4096 238.324 85.8226 237.974 85.9807C221.923 93.2797 212.777 106.165 207.64 120.391C203.931 130.663 202.315 141.635 201.707 151.735C200.892 165.25 201.889 177.211 202.206 183.877C202.328 186.434 202.334 188.252 202.138 189.138C201.958 189.95 201.52 190.307 201.162 190.417Z" fill="#623FC6"/>
<path fill-rule="evenodd" clip-rule="evenodd" d="M235.204 81.3897C237.686 88.285 245.235 95.0175 255.203 99.7818C259.978 102.063 265.307 103.896 270.883 105.079C274.464 105.84 278.148 106.334 281.85 106.501C289.272 106.837 296.769 105.894 303.674 103.32C313.461 99.6729 322.067 92.733 327.645 81.4297C327.776 81.1721 327.672 80.8558 327.413 80.7247C327.154 80.5935 326.838 80.6977 326.708 80.9563C321.083 91.7908 312.621 98.3242 303.087 101.704C296.369 104.087 289.121 104.886 281.944 104.531C278.345 104.353 274.764 103.891 271.276 103.182C265.833 102.077 260.617 100.375 255.922 98.2405C246.226 93.8334 238.737 87.6097 236.187 81.0223C236.085 80.7507 235.783 80.6131 235.512 80.7145C235.24 80.8158 235.102 81.1181 235.204 81.3897Z" fill="#623FC6"/>
<path fill-rule="evenodd" clip-rule="evenodd" d="M366.238 237.253C367.87 237.255 369.416 236.751 370.699 235.865C371.983 234.979 373.001 233.71 373.578 232.183L382.871 207.546C383.912 204.78 384.621 201.909 384.986 198.996C385.351 196.084 385.372 193.127 385.045 190.19L383.79 178.957C383.614 177.387 382.844 176.021 381.723 175.068C380.604 174.115 379.134 173.572 377.558 173.65L376.966 173.68C376.174 173.719 375.398 173.876 374.662 174.144C373.926 174.411 373.229 174.788 372.598 175.265C372.595 175.268 372.591 175.269 372.588 175.272C371.549 176.08 370.249 177.253 368.993 178.841C368.045 180.04 367.122 181.474 366.355 183.166C366.175 183.562 366.35 184.029 366.745 184.209C367.14 184.389 367.608 184.214 367.789 183.818C368.502 182.259 369.361 180.936 370.241 179.832C371.405 178.372 372.609 177.294 373.571 176.552C374.074 176.175 374.627 175.879 375.212 175.669C375.797 175.459 376.415 175.337 377.043 175.308L377.635 175.281C378.779 175.228 379.845 175.626 380.655 176.32C381.463 177.013 382.017 178.003 382.141 179.139L383.365 190.375C383.673 193.181 383.645 196.003 383.295 198.784C382.945 201.565 382.272 204.305 381.279 206.947L372.035 231.603C371.582 232.811 370.779 233.816 369.766 234.519C368.753 235.223 367.53 235.625 366.238 235.626V237.253C365.79 235.626 365.425 235.991 365.425 236.44C365.425 236.889 365.79 237.253 366.238 237.253Z" fill="#8C3C46"/>
<path fill-rule="evenodd" clip-rule="evenodd" d="M367.334 183.685C367.334 183.685 368.461 170.699 364.447 152.243C363.005 145.614 360.912 138.45 357.871 131.247C355.129 124.751 351.602 118.227 347.152 112.012C341.115 103.58 333.339 95.7353 323.393 89.3116C323.152 89.1516 322.825 89.2186 322.666 89.4604C322.506 89.7023 322.573 90.0278 322.815 90.1878C332.474 96.7101 339.936 104.607 345.746 113.002C350.018 119.174 353.372 125.628 356.054 132.012C359.036 139.111 361.174 146.133 362.694 152.639C366.942 170.818 366.285 183.627 366.285 183.627C366.269 183.916 366.491 184.163 366.78 184.18C367.069 184.196 367.317 183.975 367.334 183.685Z" fill="#623FC6"/>
<path fill-rule="evenodd" clip-rule="evenodd" d="M380.823 176.227C380.823 176.227 377.504 180.095 374.828 186.155C373.416 189.352 372.192 193.16 371.709 197.319C371.708 197.32 371.708 197.32 371.708 197.321C371.517 199.109 371.558 200.907 371.845 202.665C372.133 204.418 372.66 206.13 373.408 207.758C373.41 207.761 373.411 207.764 373.412 207.767C374.277 209.559 374.886 211.403 374.069 213.714C373.536 215.226 372.423 216.924 370.438 218.925C370.323 219.035 370.319 219.218 370.43 219.332C370.539 219.448 370.723 219.451 370.837 219.341C373.663 216.756 374.919 214.6 375.316 212.697C375.733 210.709 375.215 208.976 374.483 207.277C373.841 205.736 373.416 204.114 373.193 202.464C372.972 200.821 372.958 199.151 373.17 197.492C373.658 193.498 374.871 189.849 376.234 186.778C378.819 180.95 381.974 177.205 381.974 177.205C382.244 176.887 382.205 176.411 381.887 176.14C381.57 175.871 381.093 175.91 380.823 176.227Z" fill="#8C3C46"/>
<path fill-rule="evenodd" clip-rule="evenodd" d="M184.212 176.689C184.212 176.689 187.367 180.435 189.952 186.262C191.314 189.333 192.527 192.981 193.016 196.977C193.228 198.635 193.214 200.305 192.993 201.948C192.77 203.597 192.345 205.22 191.699 206.769C190.969 208.46 190.453 210.192 190.87 212.182C191.267 214.084 192.523 216.239 195.349 218.825C195.463 218.935 195.646 218.931 195.756 218.817C195.867 218.701 195.863 218.519 195.748 218.408C193.763 216.408 192.649 214.709 192.116 213.198C191.3 210.887 191.909 209.043 192.774 207.25C192.775 207.247 192.776 207.244 192.778 207.243C193.525 205.614 194.053 203.902 194.34 202.149C194.628 200.39 194.669 198.592 194.478 196.804C194.478 196.804 194.478 196.803 194.477 196.803C193.993 192.645 192.769 188.837 191.357 185.64C188.681 179.58 185.362 175.711 185.362 175.711C185.093 175.394 184.616 175.355 184.298 175.625C183.981 175.894 183.942 176.372 184.212 176.689Z" fill="#8C3C46"/>
<path d="M356.816 295.639C359.557 276.71 361.931 259.655 361.931 259.655C362.02 259.02 362.609 258.576 363.244 258.666C363.879 258.755 364.323 259.343 364.234 259.979C364.234 259.979 361.818 277.034 359.03 295.962C357.941 303.36 350.152 339.432 348.552 348.714C348.453 349.284 347.943 349.676 347.366 349.633C346.724 349.584 346.257 349.021 346.366 348.387C348.016 338.828 355.744 303.037 356.816 295.639Z" fill="#8C3C46"/>
<path fill-rule="evenodd" clip-rule="evenodd" d="M202.658 260.985C202.658 260.985 203.736 269.179 205.179 279.845C205.713 283.794 206.297 288.078 206.906 292.41C207.141 294.083 207.383 295.762 207.631 297.43C208.012 299.981 208.401 302.506 208.782 304.95C209.98 312.639 213.846 324.972 216.202 334.183C216.25 334.637 216.659 334.966 217.113 334.918C217.568 334.869 217.898 334.461 217.848 334.006C215.676 321.921 211.872 310.297 210.123 298.343C209.758 295.843 209.365 293.317 208.963 290.818C208.553 288.264 208.128 285.742 207.709 283.307C205.581 270.927 203.696 260.819 203.696 260.819C203.65 260.533 203.38 260.337 203.095 260.384C202.808 260.429 202.613 260.698 202.658 260.985Z" fill="#8C3C46"/>
<path fill-rule="evenodd" clip-rule="evenodd" d="M250.782 265.778C255.363 265.761 258.474 265.788 262.114 266.179C265.107 266.5 268.459 267.061 273.28 268.081C273.281 268.082 273.283 268.082 273.283 268.082C276.005 268.612 278.766 268.885 281.524 268.842C284.282 268.799 287.032 268.443 289.735 267.829C292.361 267.216 295.14 266.727 298.868 266.438C302.436 266.162 306.861 266.061 312.838 266.24C313.011 266.249 313.159 266.116 313.168 265.942C313.177 265.769 313.043 265.621 312.87 265.612C306.859 265.186 302.399 265.092 298.797 265.238C294.977 265.396 292.121 265.821 289.416 266.362C289.416 266.362 289.416 266.362 289.415 266.362C286.805 266.905 284.154 267.163 281.501 267.195C278.85 267.226 276.194 267.032 273.573 266.551C268.664 265.684 265.256 265.212 262.216 265.011C258.526 264.767 255.385 264.912 250.764 265.15C250.591 265.155 250.455 265.299 250.459 265.473C250.464 265.646 250.609 265.783 250.782 265.778Z" fill="#192940"/>
<path fill-rule="evenodd" clip-rule="evenodd" d="M266.628 262.162L270.905 260.662C271.971 260.281 273.089 260.147 274.197 260.211C275.28 260.272 276.349 260.549 277.343 261.039C278.2 261.438 279.241 261.824 280.478 261.994C281.446 262.126 282.533 262.138 283.719 261.964C284.68 261.823 285.704 261.566 286.79 261.147C287.688 260.802 288.61 260.349 289.588 259.779C289.748 259.706 289.819 259.516 289.746 259.355C289.673 259.195 289.483 259.124 289.323 259.197C288.299 259.545 287.346 259.773 286.444 259.949C285.403 260.153 284.451 260.241 283.567 260.271C282.527 260.307 281.598 260.224 280.76 260.09C279.72 259.924 278.825 259.681 278.09 259.365C278.09 259.365 278.089 259.364 278.088 259.364C276.842 258.867 275.527 258.615 274.214 258.659C272.922 258.704 271.643 259.009 270.453 259.582L266.381 261.573C266.218 261.64 266.141 261.829 266.209 261.991C266.278 262.154 266.465 262.231 266.628 262.162Z" fill="#192940"/>
<path fill-rule="evenodd" clip-rule="evenodd" d="M299.318 276.632L298.847 277.071C297.34 278.478 295.585 279.546 293.693 280.262C291.827 280.968 289.826 281.314 287.793 281.257C286.034 281.224 284.088 281.168 282.157 281.153C280.877 281.143 279.604 281.158 278.4 281.16C276.093 281.228 273.829 280.823 271.705 280.039C269.544 279.241 267.521 278.073 265.78 276.496L264.384 275.248C264.274 275.139 264.096 275.139 263.987 275.248C263.877 275.357 263.877 275.535 263.987 275.646L265.234 277.043C266.912 278.894 268.918 280.37 271.14 281.404C272.269 281.93 273.454 282.33 274.674 282.611C275.888 282.889 277.137 283.03 278.4 283.059C279.604 283.06 280.877 283.076 282.157 283.066C284.088 283.05 286.034 282.995 287.793 282.962C290.029 282.899 292.209 282.41 294.209 281.507C296.186 280.615 297.987 279.337 299.496 277.721L299.936 277.249C300.112 276.987 299.701 276.386 299.318 276.632Z" fill="#192940"/>
<path fill-rule="evenodd" clip-rule="evenodd" d="M293.103 180.38C293.103 180.38 293.432 181.104 294.157 182.122C294.496 182.598 294.915 183.145 295.445 183.688C295.803 184.054 296.213 184.414 296.665 184.763C297.273 185.233 297.96 185.669 298.713 186.073C298.851 186.159 299.032 186.117 299.119 185.979C299.204 185.842 299.162 185.66 299.024 185.573C298.361 185.098 297.783 184.58 297.246 184.079C296.85 183.71 296.489 183.341 296.148 182.997C295.639 182.484 295.185 182.017 294.819 181.597C294.04 180.708 293.617 180.092 293.617 180.092C293.537 179.95 293.358 179.9 293.216 179.979C293.074 180.059 293.024 180.238 293.103 180.38Z" fill="#1B2C44"/>
<path fill-rule="evenodd" clip-rule="evenodd" d="M270.479 180.966C270.26 181.214 269.997 181.498 269.7 181.823C269.506 182.036 269.299 182.265 269.081 182.507C268.791 182.829 268.486 183.177 268.145 183.529C267.482 184.212 266.721 184.926 265.819 185.571C265.687 185.654 265.647 185.827 265.729 185.959C265.811 186.091 265.984 186.131 266.116 186.048C267.195 185.466 268.137 184.806 268.925 184.129C269.319 183.79 269.679 183.455 269.983 183.114C270.39 182.656 270.71 182.207 270.961 181.813C271.509 180.95 271.722 180.36 271.722 180.36C271.798 180.224 271.749 180.052 271.613 179.976C271.396 179.882 270.992 180.384 270.479 180.966Z" fill="#1B2C44"/>
<mask id="mask5_1161_1760" style="mask-type:alpha" maskUnits="userSpaceOnUse" x="296" y="165" width="54" height="19">
<path fill-rule="evenodd" clip-rule="evenodd" d="M298.766 174.762C298.769 174.76 298.772 174.759 298.775 174.757C303.424 172.09 312.165 168.213 321.134 166.524C326.656 165.484 332.263 165.275 337.07 166.667C341.65 167.988 344.601 170.118 346.51 172.391C350.622 177.29 349.896 182.903 349.896 182.903C349.869 183.113 349.723 183.29 349.521 183.355C349.319 183.421 349.097 183.363 348.951 183.208C347.839 182.021 346.696 181.007 345.665 180.183C343.608 178.537 342.004 177.65 342.004 177.65C341.863 177.572 341.762 177.435 341.729 177.276L341.288 175.145L339.817 176.272C339.705 176.358 339.567 176.398 339.426 176.387C332.31 175.804 326.274 176.194 321.271 177.067C312.63 178.574 307.087 181.509 304.392 183.265C303.633 183.784 302.739 183.978 301.883 183.871C301.023 183.764 300.203 183.349 299.597 182.659C299.17 182.182 298.8 181.725 298.476 181.292C298.078 180.759 297.754 180.262 297.487 179.81C297.486 179.809 297.486 179.808 297.485 179.808C297.484 179.806 297.483 179.805 297.483 179.803C296.981 178.931 296.873 177.938 297.101 177.031C297.33 176.121 297.901 175.299 298.758 174.767C298.761 174.765 298.764 174.764 298.766 174.762Z" fill="#1B2C44"/>
</mask>
<g mask="url(#mask5_1161_1760)">
<path fill-rule="evenodd" clip-rule="evenodd" d="M298.766 174.762C298.769 174.76 298.772 174.759 298.775 174.757C303.424 172.09 312.165 168.213 321.134 166.524C326.656 165.484 332.263 165.275 337.07 166.667C341.65 167.988 344.601 170.118 346.51 172.391C350.622 177.29 349.896 182.903 349.896 182.903C349.869 183.113 349.723 183.29 349.521 183.355C349.319 183.421 349.097 183.363 348.951 183.208C347.839 182.021 346.696 181.007 345.665 180.183C343.608 178.537 342.004 177.65 342.004 177.65C341.863 177.572 341.762 177.435 341.729 177.276L341.288 175.145L339.817 176.272C339.705 176.358 339.567 176.398 339.426 176.387C332.31 175.804 326.274 176.194 321.271 177.067C312.63 178.574 307.087 181.509 304.392 183.265C303.633 183.784 302.739 183.978 301.883 183.871C301.023 183.764 300.203 183.349 299.597 182.659C299.17 182.182 298.8 181.725 298.476 181.292C298.078 180.759 297.754 180.262 297.487 179.81C297.486 179.809 297.486 179.808 297.485 179.808C297.484 179.806 297.483 179.805 297.483 179.803C296.981 178.931 296.873 177.938 297.101 177.031C297.33 176.121 297.901 175.299 298.758 174.767C298.761 174.765 298.764 174.764 298.766 174.762Z" fill="#1B2C44"/>
<path d="M304.556 185.429C301.754 170.569 303.367 168.445 303.112 167.128C301.357 166.93 297.227 166.551 294.747 166.619C291.648 166.704 291.308 174.007 291.096 175.111C290.926 175.994 293.884 186.689 295.384 191.925C299.375 194.713 306.797 197.318 304.556 185.429Z" fill="url(#paint24_linear_1161_1760)"/>
<path d="M315.736 182.122C315.736 182.122 317.45 161.869 317.63 160.541C316.03 159.791 314.626 161.269 312.255 160.54C309.292 159.628 308.715 164.007 308.161 164.985L307.687 185.246C310.576 189.165 314.054 194.103 315.736 182.122Z" fill="url(#paint25_linear_1161_1760)"/>
</g>
<mask id="mask6_1161_1760" style="mask-type:alpha" maskUnits="userSpaceOnUse" x="214" y="165" width="54" height="19">
<path fill-rule="evenodd" clip-rule="evenodd" d="M265.678 174.735C265.684 174.739 265.689 174.742 265.696 174.746C266.561 175.284 267.136 176.115 267.367 177.034C267.597 177.95 267.487 178.952 266.979 179.832C266.978 179.835 266.976 179.837 266.976 179.84C266.708 180.292 266.381 180.789 265.982 181.323C265.658 181.756 265.285 182.213 264.862 182.685C264.247 183.385 263.42 183.803 262.553 183.91C261.691 184.017 260.791 183.822 260.027 183.297C257.334 181.539 251.797 178.599 243.162 177.085C238.159 176.209 232.123 175.816 225.006 176.394C224.867 176.406 224.729 176.366 224.618 176.281L223.141 175.147L222.697 177.286C222.665 177.444 222.565 177.578 222.425 177.656C222.425 177.656 220.821 178.544 218.764 180.189C217.733 181.014 216.589 182.028 215.476 183.215C215.333 183.369 215.114 183.425 214.915 183.36C214.715 183.296 214.57 183.122 214.543 182.914C214.543 182.914 213.815 177.303 217.924 172.403C219.83 170.128 222.782 167.996 227.36 166.671C232.168 165.276 237.777 165.484 243.302 166.519C252.276 168.201 261.024 172.071 265.678 174.735Z" fill="#18273E"/>
</mask>
<g mask="url(#mask6_1161_1760)">
<path fill-rule="evenodd" clip-rule="evenodd" d="M265.678 174.735C265.684 174.739 265.689 174.742 265.696 174.746C266.561 175.284 267.136 176.115 267.367 177.034C267.597 177.95 267.487 178.952 266.979 179.832C266.978 179.835 266.976 179.837 266.976 179.84C266.708 180.292 266.381 180.789 265.982 181.323C265.658 181.756 265.285 182.213 264.862 182.685C264.247 183.385 263.42 183.803 262.553 183.91C261.691 184.017 260.791 183.822 260.027 183.297C257.334 181.539 251.797 178.599 243.162 177.085C238.159 176.209 232.123 175.816 225.006 176.394C224.867 176.406 224.729 176.366 224.618 176.281L223.141 175.147L222.697 177.286C222.665 177.444 222.565 177.578 222.425 177.656C222.425 177.656 220.821 178.544 218.764 180.189C217.733 181.014 216.589 182.028 215.476 183.215C215.333 183.369 215.114 183.425 214.915 183.36C214.715 183.296 214.57 183.122 214.543 182.914C214.543 182.914 213.815 177.303 217.924 172.403C219.83 170.128 222.782 167.996 227.36 166.671C232.168 165.276 237.777 165.484 243.302 166.519C252.276 168.201 261.024 172.071 265.678 174.735Z" fill="#18273E"/>
<path d="M218.215 198.08L221.708 162.842L207.279 168.233L208.57 184.637C208.205 189.315 214.848 195.548 218.215 198.08Z" fill="url(#paint26_linear_1161_1760)"/>
<path d="M231.103 189.655L233.84 160.187L225.566 164.47L223.611 181.957C223.09 186.62 227.823 187.012 231.103 189.655Z" fill="url(#paint27_linear_1161_1760)"/>
</g>
<path d="M250.933 187.194C250.933 189.421 250.159 191.557 248.781 193.132C247.402 194.707 245.533 195.591 243.584 195.591C241.635 195.591 239.766 194.707 238.388 193.132C237.01 191.557 236.236 189.421 236.236 187.194L243.584 187.194H250.933Z" fill="#1B2C44"/>
<path d="M328.93 187.574C328.93 189.801 328.156 191.937 326.778 193.512C325.4 195.087 323.53 195.971 321.581 195.971C319.632 195.971 317.763 195.087 316.385 193.512C315.007 191.937 314.233 189.801 314.233 187.574L321.581 187.574H328.93Z" fill="#1B2C44"/>
<ellipse rx="4.00379" ry="2.36762" transform="matrix(-0.97922 -0.202803 -0.202803 0.97922 269.146 270.561)" fill="url(#paint28_linear_1161_1760)"/>
<circle opacity="0.7" r="1.38196" transform="matrix(-1 0 0 1 239.766 190.47)" fill="white"/>
<circle opacity="0.7" r="1.38196" transform="matrix(-1 0 0 1 317.775 190.471)" fill="white"/>
<ellipse opacity="0.4" rx="20.4009" ry="12.6653" transform="matrix(-1 0 0 1 234.894 223.779)" fill="url(#paint29_linear_1161_1760)"/>
<ellipse opacity="0.4" rx="27.9029" ry="17.3227" transform="matrix(0.315543 -0.948911 -0.948911 -0.315543 224.332 131.332)" fill="url(#paint30_linear_1161_1760)"/>
<path opacity="0.6" d="M272.367 216.718C270.812 216.574 269.435 213.973 270.325 204.425C271.214 194.877 271.332 188.163 272.887 188.308C274.442 188.453 274.982 196.311 274.092 205.859C273.203 215.407 273.922 216.863 272.367 216.718Z" fill="url(#paint31_linear_1161_1760)"/>
<defs>
<linearGradient id="paint0_linear_1161_1760" x1="253.051" y1="24.2958" x2="265.202" y2="95.4913" gradientUnits="userSpaceOnUse">
<stop stop-color="#534C99"/>
<stop offset="1" stop-color="#534C99" stop-opacity="0"/>
</linearGradient>
<linearGradient id="paint1_linear_1161_1760" x1="171.43" y1="38.9618" x2="183.582" y2="110.157" gradientUnits="userSpaceOnUse">
<stop stop-color="#534C99"/>
<stop offset="1" stop-color="#534C99" stop-opacity="0"/>
</linearGradient>
<linearGradient id="paint2_linear_1161_1760" x1="181.013" y1="103.479" x2="831.297" y2="801.489" gradientUnits="userSpaceOnUse">
<stop stop-color="#FFAF96"/>
<stop offset="1" stop-color="#A0533B"/>
</linearGradient>
<linearGradient id="paint3_linear_1161_1760" x1="181.013" y1="103.479" x2="831.297" y2="801.489" gradientUnits="userSpaceOnUse">
<stop stop-color="#FFAF96"/>
<stop offset="1" stop-color="#A0533B"/>
</linearGradient>
<linearGradient id="paint4_linear_1161_1760" x1="162.647" y1="-63.6601" x2="374.018" y2="827.286" gradientUnits="userSpaceOnUse">
<stop stop-color="#FFDECD"/>
<stop offset="1" stop-color="#FFDECD" stop-opacity="0"/>
</linearGradient>
<linearGradient id="paint5_linear_1161_1760" x1="162.647" y1="-63.6601" x2="374.018" y2="827.286" gradientUnits="userSpaceOnUse">
<stop stop-color="#FFDECD"/>
<stop offset="1" stop-color="#FFDECD" stop-opacity="0"/>
</linearGradient>
<linearGradient id="paint6_linear_1161_1760" x1="264.039" y1="191.356" x2="256.672" y2="404.527" gradientUnits="userSpaceOnUse">
<stop stop-color="#CE5448"/>
<stop offset="1" stop-color="#DC6459" stop-opacity="0.46"/>
</linearGradient>
<linearGradient id="paint7_linear_1161_1760" x1="243.27" y1="159.755" x2="240.083" y2="202.334" gradientUnits="userSpaceOnUse">
<stop stop-color="#F2FBFC"/>
<stop offset="1" stop-color="#F2FBFC" stop-opacity="0"/>
</linearGradient>
<linearGradient id="paint8_linear_1161_1760" x1="317.507" y1="167.072" x2="319.157" y2="202.335" gradientUnits="userSpaceOnUse">
<stop stop-color="#F2FBFC"/>
<stop offset="1" stop-color="#F2FBFC" stop-opacity="0"/>
</linearGradient>
<linearGradient id="paint9_linear_1161_1760" x1="181.117" y1="211.607" x2="464.22" y2="286.773" gradientUnits="userSpaceOnUse">
<stop stop-color="#765770"/>
<stop offset="1" stop-color="#484362"/>
</linearGradient>
<linearGradient id="paint10_linear_1161_1760" x1="181.117" y1="211.607" x2="464.22" y2="286.773" gradientUnits="userSpaceOnUse">
<stop stop-color="#765770"/>
<stop offset="1" stop-color="#484362"/>
</linearGradient>
<linearGradient id="paint11_linear_1161_1760" x1="193.209" y1="267.131" x2="253.495" y2="274.864" gradientUnits="userSpaceOnUse">
<stop stop-color="#C78195"/>
<stop offset="1" stop-color="#9C6877" stop-opacity="0"/>
</linearGradient>
<linearGradient id="paint12_linear_1161_1760" x1="183.683" y1="259.841" x2="236.987" y2="289.046" gradientUnits="userSpaceOnUse">
<stop stop-color="#C78195"/>
<stop offset="1" stop-color="#9C6877" stop-opacity="0"/>
</linearGradient>
<linearGradient id="paint13_linear_1161_1760" x1="186.774" y1="246.376" x2="240.078" y2="275.581" gradientUnits="userSpaceOnUse">
<stop stop-color="#C78195"/>
<stop offset="1" stop-color="#9C6877" stop-opacity="0"/>
</linearGradient>
<linearGradient id="paint14_linear_1161_1760" x1="558.089" y1="236.017" x2="194.452" y2="516.858" gradientUnits="userSpaceOnUse">
<stop stop-color="#9526B8"/>
<stop offset="1" stop-color="#210C42"/>
</linearGradient>
<linearGradient id="paint15_linear_1161_1760" x1="558.089" y1="236.017" x2="194.452" y2="516.858" gradientUnits="userSpaceOnUse">
<stop stop-color="#9526B8"/>
<stop offset="1" stop-color="#210C42"/>
</linearGradient>
<linearGradient id="paint16_linear_1161_1760" x1="558.089" y1="236.017" x2="194.452" y2="516.858" gradientUnits="userSpaceOnUse">
<stop stop-color="#9526B8"/>
<stop offset="1" stop-color="#210C42"/>
</linearGradient>
<linearGradient id="paint17_linear_1161_1760" x1="558.089" y1="236.017" x2="194.452" y2="516.858" gradientUnits="userSpaceOnUse">
<stop stop-color="#9526B8"/>
<stop offset="1" stop-color="#210C42"/>
</linearGradient>
<linearGradient id="paint18_linear_1161_1760" x1="358.332" y1="310.082" x2="420.705" y2="414.187" gradientUnits="userSpaceOnUse">
<stop stop-color="#0E112D"/>
<stop offset="1" stop-color="#0E112D" stop-opacity="0"/>
</linearGradient>
<linearGradient id="paint19_linear_1161_1760" x1="189.433" y1="305.876" x2="152.804" y2="432.96" gradientUnits="userSpaceOnUse">
<stop stop-color="#0E112D"/>
<stop offset="1" stop-color="#0E112D" stop-opacity="0"/>
</linearGradient>
<linearGradient id="paint20_linear_1161_1760" x1="189.433" y1="305.876" x2="152.804" y2="432.96" gradientUnits="userSpaceOnUse">
<stop stop-color="#0E112D"/>
<stop offset="1" stop-color="#0E112D" stop-opacity="0"/>
</linearGradient>
<linearGradient id="paint21_linear_1161_1760" x1="1988.31" y1="-405.305" x2="725.642" y2="-1044.12" gradientUnits="userSpaceOnUse">
<stop stop-color="#A10BD2"/>
<stop offset="1" stop-color="#16182B"/>
</linearGradient>
<linearGradient id="paint22_linear_1161_1760" x1="1328.13" y1="-20.8343" x2="515.627" y2="-489.265" gradientUnits="userSpaceOnUse">
<stop stop-color="#A10BD2"/>
<stop offset="1" stop-color="#16182B"/>
</linearGradient>
<linearGradient id="paint23_linear_1161_1760" x1="486.788" y1="274.825" x2="570.211" y2="373.249" gradientUnits="userSpaceOnUse">
<stop stop-color="#9B55FF"/>
<stop offset="1" stop-color="#8C3CFF" stop-opacity="0.17"/>
</linearGradient>
<linearGradient id="paint24_linear_1161_1760" x1="298.029" y1="159.738" x2="292.438" y2="198.458" gradientUnits="userSpaceOnUse">
<stop stop-color="#3261A8"/>
<stop offset="1" stop-color="#273F63" stop-opacity="0"/>
</linearGradient>
<linearGradient id="paint25_linear_1161_1760" x1="318.987" y1="154.695" x2="301.296" y2="189.588" gradientUnits="userSpaceOnUse">
<stop stop-color="#3261A8"/>
<stop offset="1" stop-color="#273F63" stop-opacity="0"/>
</linearGradient>
<linearGradient id="paint26_linear_1161_1760" x1="216.3" y1="157.358" x2="215.943" y2="194.736" gradientUnits="userSpaceOnUse">
<stop stop-color="#3261A8"/>
<stop offset="1" stop-color="#273F63" stop-opacity="0"/>
</linearGradient>
<linearGradient id="paint27_linear_1161_1760" x1="229.369" y1="151.614" x2="218.878" y2="192.529" gradientUnits="userSpaceOnUse">
<stop stop-color="#3261A8"/>
<stop offset="1" stop-color="#273F63" stop-opacity="0"/>
</linearGradient>
<linearGradient id="paint28_linear_1161_1760" x1="22.0642" y1="2.36719" x2="-8.28029" y2="2.43245" gradientUnits="userSpaceOnUse">
<stop stop-color="#FFE0D5"/>
<stop offset="1" stop-color="#FFE0D5" stop-opacity="0"/>
</linearGradient>
<linearGradient id="paint29_linear_1161_1760" x1="52.6544" y1="10.9768" x2="-22.4682" y2="13.811" gradientUnits="userSpaceOnUse">
<stop stop-color="#FFE5D9"/>
<stop offset="1" stop-color="#FFDFD0" stop-opacity="0"/>
</linearGradient>
<linearGradient id="paint30_linear_1161_1760" x1="72.0169" y1="15.0133" x2="-30.7304" y2="18.8897" gradientUnits="userSpaceOnUse">
<stop stop-color="#FFE5D9"/>
<stop offset="1" stop-color="#FFDFD0" stop-opacity="0"/>
</linearGradient>
<linearGradient id="paint31_linear_1161_1760" x1="273.717" y1="253.103" x2="277.441" y2="173.055" gradientUnits="userSpaceOnUse">
<stop stop-color="#FFE5D9"/>
<stop offset="1" stop-color="#FFDFD0" stop-opacity="0"/>
</linearGradient>
</defs>
</svg>
