<svg width="169" height="247" viewBox="0 0 169 247" fill="none" xmlns="http://www.w3.org/2000/svg">
<rect width="93.7559" height="78.4701" transform="matrix(0.866025 0.5 -0.866025 0.5 75.6615 141.819)" fill="#303E50"/>
<rect width="64.4285" height="2.92052" transform="matrix(0.866025 0.5 -0.866025 0.5 80.9777 153.691)" fill="#7A85AA"/>
<rect width="52.0555" height="2.92052" transform="matrix(0.866025 0.5 -0.866025 0.5 38.4863 178.223)" fill="#7A85AA"/>
<rect width="38.1027" height="2.92052" transform="matrix(0.866025 0.5 -0.866025 0.5 74.2487 157.575)" fill="#7A85AA"/>
<rect width="18.515" height="2.92052" transform="matrix(0.866025 0.5 -0.866025 0.5 67.5197 161.461)" fill="#7A85AA"/>
<rect width="18.466" height="2.92052" transform="matrix(0.866025 0.5 -0.866025 0.5 54.0609 169.231)" fill="#7A85AA"/>
<rect x="-5.4326e-08" y="0.911439" width="92.4405" height="77.6192" transform="matrix(0.866025 0.5 -0.866025 0.5 76.8798 141.729)" stroke="#7A85AA" stroke-width="1.82288"/>
<path d="M17.2216 186.444L80.8328 149.718" stroke="#7A85AA" stroke-width="1.82288"/>
<path d="M152.25 190.908L71.2353 144.208" stroke="#7A85AA" stroke-width="1.82288"/>
<circle r="0.923849" transform="matrix(0.866025 0.5 0.866025 -0.5 75.8152 144.428)" fill="#7A85AA"/>
<circle r="0.923849" transform="matrix(0.866025 0.5 0.866025 -0.5 77.9603 145.756)" fill="#7A85AA"/>
<circle r="0.923849" transform="matrix(0.866025 0.5 0.866025 -0.5 80.2558 147.045)" fill="#7A85AA"/>
<path d="M67.0396 152.436L67.0396 153.749L64.7645 153.749" stroke="#7A85AA" stroke-width="0.911439"/>
<path d="M66.2697 151.991L63.9946 151.991L63.9946 153.304" stroke="#7A85AA" stroke-width="0.911439"/>
<path d="M59.8832 157.919L60.8205 155.9L57.3224 156.441L59.8832 157.919Z" stroke="#7A85AA" stroke-width="0.911439"/>
<rect x="-1.90141e-08" y="0.319004" width="1.00301" height="1.00301" transform="matrix(0.866025 0.5 -0.866025 0.5 71.5204 147.746)" stroke="#7A85AA" stroke-width="0.638007"/>
<rect x="-1.90141e-08" y="0.319004" width="1.00301" height="1.00301" transform="matrix(0.866025 0.5 -0.866025 0.5 69.8747 148.696)" stroke="#7A85AA" stroke-width="0.638007"/>
<rect x="-1.90141e-08" y="0.319004" width="1.00301" height="1.00301" transform="matrix(0.866025 0.5 -0.866025 0.5 73.1902 148.71)" stroke="#7A85AA" stroke-width="0.638007"/>
<rect x="-1.90141e-08" y="0.319004" width="1.00301" height="1.00301" transform="matrix(0.866025 0.5 -0.866025 0.5 71.5445 149.661)" stroke="#7A85AA" stroke-width="0.638007"/>
<rect x="-2.44467e-08" y="0.410148" width="1.11055" height="3.67696" transform="matrix(0.866025 0.5 -0.866025 0.5 54.497 160.112)" stroke="#7A85AA" stroke-width="0.820295"/>
<rect x="-2.44467e-08" y="0.410148" width="1.11055" height="2.79334" transform="matrix(0.866025 0.5 -0.866025 0.5 51.8036 159.441)" stroke="#7A85AA" stroke-width="0.820295"/>
<rect width="93.7559" height="78.4701" transform="matrix(0.866025 0.5 -0.866025 0.5 75.6615 90.7782)" fill="#303E50"/>
<rect x="-5.4326e-08" y="0.911439" width="92.4405" height="77.6192" transform="matrix(0.866025 0.5 -0.866025 0.5 76.8798 90.6882)" stroke="#7A85AA" stroke-width="1.82288"/>
<path d="M17.2216 135.403L80.8328 98.6771" stroke="#7A85AA" stroke-width="1.82288"/>
<path d="M152.25 139.867L71.2353 93.1671" stroke="#7A85AA" stroke-width="1.82288"/>
<circle r="0.923849" transform="matrix(0.866025 0.5 0.866025 -0.5 75.8152 93.3874)" fill="#7A85AA"/>
<circle r="0.923849" transform="matrix(0.866025 0.5 0.866025 -0.5 77.9603 94.715)" fill="#7A85AA"/>
<circle r="0.923849" transform="matrix(0.866025 0.5 0.866025 -0.5 80.2558 96.0047)" fill="#7A85AA"/>
<path d="M67.0396 101.395L67.0396 102.708L64.7645 102.708" stroke="#7A85AA" stroke-width="0.911439"/>
<path d="M66.2697 100.95L63.9946 100.95L63.9946 102.263" stroke="#7A85AA" stroke-width="0.911439"/>
<path d="M59.8832 106.879L60.8205 104.859L57.3224 105.4L59.8832 106.879Z" stroke="#7A85AA" stroke-width="0.911439"/>
<rect x="-1.90141e-08" y="0.319004" width="1.00301" height="1.00301" transform="matrix(0.866025 0.5 -0.866025 0.5 71.5205 96.7058)" stroke="#7A85AA" stroke-width="0.638007"/>
<rect x="-1.90141e-08" y="0.319004" width="1.00301" height="1.00301" transform="matrix(0.866025 0.5 -0.866025 0.5 69.8747 97.6556)" stroke="#7A85AA" stroke-width="0.638007"/>
<rect x="-1.90141e-08" y="0.319004" width="1.00301" height="1.00301" transform="matrix(0.866025 0.5 -0.866025 0.5 73.1902 97.6694)" stroke="#7A85AA" stroke-width="0.638007"/>
<rect x="-1.90141e-08" y="0.319004" width="1.00301" height="1.00301" transform="matrix(0.866025 0.5 -0.866025 0.5 71.5445 98.6205)" stroke="#7A85AA" stroke-width="0.638007"/>
<rect x="-2.44467e-08" y="0.410148" width="1.11055" height="3.67696" transform="matrix(0.866025 0.5 -0.866025 0.5 54.497 109.072)" stroke="#7A85AA" stroke-width="0.820295"/>
<rect x="-2.44467e-08" y="0.410148" width="1.11055" height="2.79334" transform="matrix(0.866025 0.5 -0.866025 0.5 51.8036 108.4)" stroke="#7A85AA" stroke-width="0.820295"/>
<g clip-path="url(#clip0)">
<path d="M94.8221 144.377C94.8221 144.377 96.1265 143.76 96.7686 143.389C97.3912 143.03 98.4605 142.254 98.4605 142.254L105.511 142.775C106.136 142.821 106.759 142.575 106.933 142.225L109.632 136.325C109.825 135.942 109.471 135.58 108.904 135.41L102.355 133.786L101.01 130.897L105.247 127.637C105.636 127.322 105.575 126.905 105.105 126.634L97.5826 122.291C97.1125 122.019 96.4096 121.995 95.8642 122.22L90.2169 124.666L85.2146 123.89L82.4008 120.108C82.1255 119.77 81.4801 119.577 80.817 119.688L70.6157 121.258C69.9721 121.358 69.5445 121.695 69.6639 122.079L70.5662 126.149L66.869 128.239L59.8183 127.718C59.1933 127.671 58.57 127.918 58.3963 128.267L55.6976 134.168C55.5046 134.551 55.8581 134.912 56.4253 135.083L62.9748 136.707L64.3192 139.595L60.0823 142.856C59.7133 143.182 59.7547 143.588 60.2248 143.859L67.7469 148.202C68.217 148.474 68.9395 148.509 69.4653 148.273L75.1126 145.827L80.1149 146.603L82.9287 150.384C83.204 150.723 83.8494 150.916 84.5125 150.805L94.7333 149.246C95.3965 149.135 95.785 148.798 95.6852 148.425L94.8221 144.377ZM75.6601 139.29C71.7816 137.051 71.7603 133.399 75.6128 131.175C79.4653 128.951 85.7908 128.963 89.6693 131.202C93.5479 133.442 93.5692 137.094 89.7167 139.318C85.8641 141.542 79.5387 141.53 75.6601 139.29Z" fill="#7A85AA"/>
</g>
<rect width="93.7559" height="78.4701" transform="matrix(0.866025 0.5 -0.866025 0.5 75.6603 39.7377)" fill="#303E50"/>
<rect width="64.4285" height="2.92052" transform="matrix(0.866025 0.5 -0.866025 0.5 80.9786 51.6091)" fill="#7A85AA"/>
<rect width="52.0555" height="2.92052" transform="matrix(0.866025 0.5 -0.866025 0.5 38.4872 76.1418)" fill="#7A85AA"/>
<rect width="38.1027" height="2.92052" transform="matrix(0.866025 0.5 -0.866025 0.5 74.2497 55.4938)" fill="#7A85AA"/>
<rect width="18.515" height="2.92052" transform="matrix(0.866025 0.5 -0.866025 0.5 67.5207 59.3795)" fill="#7A85AA"/>
<rect width="18.466" height="2.92052" transform="matrix(0.866025 0.5 -0.866025 0.5 54.0618 67.1498)" fill="#7A85AA"/>
<rect x="-5.4326e-08" y="0.911439" width="92.4405" height="77.6192" transform="matrix(0.866025 0.5 -0.866025 0.5 76.8798 39.6476)" stroke="#7A85AA" stroke-width="1.82288"/>
<path d="M17.2216 84.3624L80.8328 47.6365" stroke="#7A85AA" stroke-width="1.82288"/>
<path d="M152.25 88.8265L71.2353 42.1264" stroke="#7A85AA" stroke-width="1.82288"/>
<circle r="0.923849" transform="matrix(0.866025 0.5 0.866025 -0.5 75.8152 42.3467)" fill="#7A85AA"/>
<circle r="0.923849" transform="matrix(0.866025 0.5 0.866025 -0.5 77.9603 43.6743)" fill="#7A85AA"/>
<circle r="0.923849" transform="matrix(0.866025 0.5 0.866025 -0.5 80.2558 44.964)" fill="#7A85AA"/>
<path d="M67.0396 50.3541L67.0396 51.6676L64.7645 51.6676" stroke="#7A85AA" stroke-width="0.911439"/>
<path d="M66.2697 49.9091L63.9946 49.9091L63.9946 51.2226" stroke="#7A85AA" stroke-width="0.911439"/>
<path d="M59.8832 55.8379L60.8205 53.8183L57.3224 54.3594L59.8832 55.8379Z" stroke="#7A85AA" stroke-width="0.911439"/>
<rect x="-1.90141e-08" y="0.319004" width="1.00301" height="1.00301" transform="matrix(0.866025 0.5 -0.866025 0.5 71.5201 45.6649)" stroke="#7A85AA" stroke-width="0.638007"/>
<rect x="-1.90141e-08" y="0.319004" width="1.00301" height="1.00301" transform="matrix(0.866025 0.5 -0.866025 0.5 69.8747 46.6149)" stroke="#7A85AA" stroke-width="0.638007"/>
<rect x="-1.90141e-08" y="0.319004" width="1.00301" height="1.00301" transform="matrix(0.866025 0.5 -0.866025 0.5 73.1902 46.6287)" stroke="#7A85AA" stroke-width="0.638007"/>
<rect x="-1.90141e-08" y="0.319004" width="1.00301" height="1.00301" transform="matrix(0.866025 0.5 -0.866025 0.5 71.5445 47.5797)" stroke="#7A85AA" stroke-width="0.638007"/>
<rect x="-2.44467e-08" y="0.410148" width="1.11055" height="3.67696" transform="matrix(0.866025 0.5 -0.866025 0.5 54.4979 58.0308)" stroke="#7A85AA" stroke-width="0.820295"/>
<rect x="-2.44467e-08" y="0.410148" width="1.11055" height="2.79334" transform="matrix(0.866025 0.5 -0.866025 0.5 51.8045 57.3587)" stroke="#7A85AA" stroke-width="0.820295"/>
<defs>
<clipPath id="clip0">
<rect width="54.2857" height="53.9214" fill="white" transform="matrix(0.866025 0.5 -0.866025 0.5 82.5084 108.195)"/>
</clipPath>
</defs>
</svg>
