<?xml version="1.0" encoding="UTF-8" standalone="no"?><!-- Generator: Gravit.io --><svg xmlns="http://www.w3.org/2000/svg" xmlns:xlink="http://www.w3.org/1999/xlink" style="isolation:isolate" viewBox="0 0 388 1364" width="388pt" height="1364pt"><path d=" M 120.51 11 L 118 11 L 118 9 L 120.51 9 L 120.51 11 Z  M 130.55 11 L 125.53 11 L 125.53 9 L 130.55 9 L 130.55 11 Z  M 140.59 11 L 135.57 11 L 135.57 9 L 140.59 9 L 140.59 11 Z  M 150.63 11 L 145.61 11 L 145.61 9 L 150.63 9 L 150.63 11 Z  M 160.67 11 L 155.65 11 L 155.65 9 L 160.67 9 L 160.67 11 Z  M 170.71 11 L 165.69 11 L 165.69 9 L 170.71 9 L 170.71 11 Z  M 180.75 11 L 175.73 11 L 175.73 9 L 180.75 9 L 180.75 11 Z  M 190.79 11 L 185.77 11 L 185.77 9 L 190.79 9 L 190.79 11 Z  M 200.83 11 L 195.81 11 L 195.81 9 L 200.83 9 L 200.83 11 Z  M 210.87 11 L 205.85 11 L 205.85 9 L 210.87 9 L 210.87 11 Z  M 220.91 11 L 215.89 11 L 215.89 9 L 220.91 9 L 220.91 11 Z  M 230.95 11 L 225.93 11 L 225.93 9 L 230.95 9 L 230.95 11 Z  M 240.99 11 L 235.97 11 L 235.97 9 L 240.99 9 L 240.99 11 Z  M 251.03 11 L 246.01 11 L 246.01 9 L 251.03 9 L 251.03 11 Z  M 261.07 11 L 256.05 11 L 256.05 9 L 261.07 9 L 261.07 11 Z  M 271.11 11 L 266.09 11 L 266.09 9 L 271.11 9 L 271.11 11 Z  M 281.15 11 L 276.13 11 L 276.13 9 L 281.15 9 L 281.15 11 Z  M 291.19 11 L 286.17 11 L 286.17 9 L 291.19 9 L 291.19 11 Z  M 301.23 11 L 296.21 11 L 296.21 9 L 301.23 9 L 301.23 11 Z  M 311.27 11 L 306.25 11 L 306.25 9 L 311.27 9 L 311.27 11 Z  M 321.31 11 L 316.29 11 L 316.29 9 L 321.31 9 L 321.31 11 Z  M 331.35 11 L 326.33 11 L 326.33 9 L 331.35 9 L 331.35 11 Z  M 341.39 11 L 336.37 11 L 336.37 9 L 341.39 9 L 341.39 11 Z  M 351.43 11 L 346.41 11 L 346.41 9 L 351.43 9 L 351.43 11 Z  M 361.47 11 L 356.45 11 L 356.45 9 L 361.47 9 L 361.47 11 Z  M 369 11 L 366.49 11 L 366.49 9 L 369 9 L 369 11 Z " fill-rule="evenodd" fill="rgb(77,96,114)"/><path d=" M 109.519 113 L 107 113 L 107 111 L 109.519 111 L 109.519 113 Z  M 119.596 113 L 114.558 113 L 114.558 111 L 119.596 111 L 119.596 113 Z  M 129.673 113 L 124.635 113 L 124.635 111 L 129.673 111 L 129.673 113 Z  M 139.75 113 L 134.712 113 L 134.712 111 L 139.75 111 L 139.75 113 Z  M 149.827 113 L 144.788 113 L 144.788 111 L 149.827 111 L 149.827 113 Z  M 159.904 113 L 154.865 113 L 154.865 111 L 159.904 111 L 159.904 113 Z  M 169.981 113 L 164.942 113 L 164.942 111 L 169.981 111 L 169.981 113 Z  M 180.058 113 L 175.019 113 L 175.019 111 L 180.058 111 L 180.058 113 Z  M 190.135 113 L 185.096 113 L 185.096 111 L 190.135 111 L 190.135 113 Z  M 200.212 113 L 195.173 113 L 195.173 111 L 200.212 111 L 200.212 113 Z  M 210.288 113 L 205.25 113 L 205.25 111 L 210.288 111 L 210.288 113 Z  M 220.365 113 L 215.327 113 L 215.327 111 L 220.365 111 L 220.365 113 Z  M 230.442 113 L 225.404 113 L 225.404 111 L 230.442 111 L 230.442 113 Z  M 240.519 113 L 235.481 113 L 235.481 111 L 240.519 111 L 240.519 113 Z  M 250.596 113 L 245.558 113 L 245.558 111 L 250.596 111 L 250.596 113 Z  M 260.673 113 L 255.635 113 L 255.635 111 L 260.673 111 L 260.673 113 Z  M 270.75 113 L 265.712 113 L 265.712 111 L 270.75 111 L 270.75 113 Z  M 280.827 113 L 275.788 113 L 275.788 111 L 280.827 111 L 280.827 113 Z  M 290.904 113 L 285.865 113 L 285.865 111 L 290.904 111 L 290.904 113 Z  M 300.981 113 L 295.942 113 L 295.942 111 L 300.981 111 L 300.981 113 Z  M 311.058 113 L 306.019 113 L 306.019 111 L 311.058 111 L 311.058 113 Z  M 321.135 113 L 316.096 113 L 316.096 111 L 321.135 111 L 321.135 113 Z  M 331.212 113 L 326.173 113 L 326.173 111 L 331.212 111 L 331.212 113 Z  M 341.289 113 L 336.25 113 L 336.25 111 L 341.289 111 L 341.289 113 Z  M 351.365 113 L 346.327 113 L 346.327 111 L 351.365 111 L 351.365 113 Z  M 361.442 113 L 356.404 113 L 356.404 111 L 361.442 111 L 361.442 113 Z  M 369 113 L 366.481 113 L 366.481 111 L 369 111 L 369 113 Z " fill-rule="evenodd" fill="rgb(77,96,114)"/><path d=" M 30.5 217 L 28 217 L 28 215 L 30.5 215 L 30.5 217 Z  M 40.5 217 L 35.5 217 L 35.5 215 L 40.5 215 L 40.5 217 Z  M 50.5 217 L 45.5 217 L 45.5 215 L 50.5 215 L 50.5 217 Z  M 60.5 217 L 55.5 217 L 55.5 215 L 60.5 215 L 60.5 217 Z  M 70.5 217 L 65.5 217 L 65.5 215 L 70.5 215 L 70.5 217 Z  M 80.5 217 L 75.5 217 L 75.5 215 L 80.5 215 L 80.5 217 Z  M 90.5 217 L 85.5 217 L 85.5 215 L 90.5 215 L 90.5 217 Z  M 100.5 217 L 95.5 217 L 95.5 215 L 100.5 215 L 100.5 217 Z  M 110.5 217 L 105.5 217 L 105.5 215 L 110.5 215 L 110.5 217 Z  M 120.5 217 L 115.5 217 L 115.5 215 L 120.5 215 L 120.5 217 Z  M 130.5 217 L 125.5 217 L 125.5 215 L 130.5 215 L 130.5 217 Z  M 140.5 217 L 135.5 217 L 135.5 215 L 140.5 215 L 140.5 217 Z  M 150.5 217 L 145.5 217 L 145.5 215 L 150.5 215 L 150.5 217 Z  M 160.5 217 L 155.5 217 L 155.5 215 L 160.5 215 L 160.5 217 Z  M 170.5 217 L 165.5 217 L 165.5 215 L 170.5 215 L 170.5 217 Z  M 180.5 217 L 175.5 217 L 175.5 215 L 180.5 215 L 180.5 217 Z  M 190.5 217 L 185.5 217 L 185.5 215 L 190.5 215 L 190.5 217 Z  M 200.5 217 L 195.5 217 L 195.5 215 L 200.5 215 L 200.5 217 Z  M 210.5 217 L 205.5 217 L 205.5 215 L 210.5 215 L 210.5 217 Z  M 220.5 217 L 215.5 217 L 215.5 215 L 220.5 215 L 220.5 217 Z  M 230.5 217 L 225.5 217 L 225.5 215 L 230.5 215 L 230.5 217 Z  M 240.5 217 L 235.5 217 L 235.5 215 L 240.5 215 L 240.5 217 Z  M 250.5 217 L 245.5 217 L 245.5 215 L 250.5 215 L 250.5 217 Z  M 260.5 217 L 255.5 217 L 255.5 215 L 260.5 215 L 260.5 217 Z  M 270.5 217 L 265.5 217 L 265.5 215 L 270.5 215 L 270.5 217 Z  M 280.5 217 L 275.5 217 L 275.5 215 L 280.5 215 L 280.5 217 Z  M 290.5 217 L 285.5 217 L 285.5 215 L 290.5 215 L 290.5 217 Z  M 300.5 217 L 295.5 217 L 295.5 215 L 300.5 215 L 300.5 217 Z  M 310.5 217 L 305.5 217 L 305.5 215 L 310.5 215 L 310.5 217 Z  M 320.5 217 L 315.5 217 L 315.5 215 L 320.5 215 L 320.5 217 Z  M 330.5 217 L 325.5 217 L 325.5 215 L 330.5 215 L 330.5 217 Z  M 340.5 217 L 335.5 217 L 335.5 215 L 340.5 215 L 340.5 217 Z  M 350.5 217 L 345.5 217 L 345.5 215 L 350.5 215 L 350.5 217 Z  M 360.5 217 L 355.5 217 L 355.5 215 L 360.5 215 L 360.5 217 Z  M 368 217 L 365.5 217 L 365.5 215 L 368 215 L 368 217 Z " fill-rule="evenodd" fill="rgb(77,96,114)"/><path d=" M 94.473 318 L 92 318 L 92 320 L 94.473 320 L 94.473 318 Z  M 104.366 318 L 99.42 318 L 99.42 320 L 104.366 320 L 104.366 318 Z  M 114.259 318 L 109.312 318 L 109.312 320 L 114.259 320 L 114.259 318 Z  M 124.152 318 L 119.205 318 L 119.205 320 L 124.152 320 L 124.152 318 Z  M 134.045 318 L 129.098 318 L 129.098 320 L 134.045 320 L 134.045 318 Z  M 143.938 318 L 138.991 318 L 138.991 320 L 143.938 320 L 143.938 318 Z  M 153.83 318 L 148.884 318 L 148.884 320 L 153.83 320 L 153.83 318 Z  M 163.723 318 L 158.777 318 L 158.777 320 L 163.723 320 L 163.723 318 Z  M 173.616 318 L 168.67 318 L 168.67 320 L 173.616 320 L 173.616 318 Z  M 183.509 318 L 178.562 318 L 178.562 320 L 183.509 320 L 183.509 318 Z  M 193.402 318 L 188.455 318 L 188.455 320 L 193.402 320 L 193.402 318 Z  M 203.295 318 L 198.348 318 L 198.348 320 L 203.295 320 L 203.295 318 Z  M 213.187 318 L 208.241 318 L 208.241 320 L 213.187 320 L 213.187 318 Z  M 223.08 318 L 218.134 318 L 218.134 320 L 223.08 320 L 223.08 318 Z  M 232.973 318 L 228.027 318 L 228.027 320 L 232.973 320 L 232.973 318 Z  M 242.866 318 L 237.92 318 L 237.92 320 L 242.866 320 L 242.866 318 Z  M 252.759 318 L 247.812 318 L 247.812 320 L 252.759 320 L 252.759 318 Z  M 262.652 318 L 257.705 318 L 257.705 320 L 262.652 320 L 262.652 318 Z  M 272.545 318 L 267.598 318 L 267.598 320 L 272.545 320 L 272.545 318 Z  M 282.437 318 L 277.491 318 L 277.491 320 L 282.437 320 L 282.437 318 Z  M 292.33 318 L 287.384 318 L 287.384 320 L 292.33 320 L 292.33 318 Z  M 302.223 318 L 297.277 318 L 297.277 320 L 302.223 320 L 302.223 318 Z  M 312.116 318 L 307.17 318 L 307.17 320 L 312.116 320 L 312.116 318 Z  M 322.009 318 L 317.062 318 L 317.062 320 L 322.009 320 L 322.009 318 Z  M 331.902 318 L 326.955 318 L 326.955 320 L 331.902 320 L 331.902 318 Z  M 341.795 318 L 336.848 318 L 336.848 320 L 341.795 320 L 341.795 318 Z  M 351.687 318 L 346.741 318 L 346.741 320 L 351.687 320 L 351.687 318 Z  M 361.58 318 L 356.634 318 L 356.634 320 L 361.58 320 L 361.58 318 Z  M 369 318 L 366.527 318 L 366.527 320 L 369 320 L 369 318 Z " fill-rule="evenodd" fill="rgb(77,96,114)"/><path d=" M 168.525 423 L 166 423 L 166 421 L 168.525 421 L 168.525 423 Z  M 178.625 423 L 173.575 423 L 173.575 421 L 178.625 421 L 178.625 423 Z  M 188.725 423 L 183.675 423 L 183.675 421 L 188.725 421 L 188.725 423 Z  M 198.825 423 L 193.775 423 L 193.775 421 L 198.825 421 L 198.825 423 Z  M 208.925 423 L 203.875 423 L 203.875 421 L 208.925 421 L 208.925 423 Z  M 219.025 423 L 213.975 423 L 213.975 421 L 219.025 421 L 219.025 423 Z  M 229.125 423 L 224.075 423 L 224.075 421 L 229.125 421 L 229.125 423 Z  M 239.225 423 L 234.175 423 L 234.175 421 L 239.225 421 L 239.225 423 Z  M 249.325 423 L 244.275 423 L 244.275 421 L 249.325 421 L 249.325 423 Z  M 259.425 423 L 254.375 423 L 254.375 421 L 259.425 421 L 259.425 423 Z  M 269.525 423 L 264.475 423 L 264.475 421 L 269.525 421 L 269.525 423 Z  M 279.625 423 L 274.575 423 L 274.575 421 L 279.625 421 L 279.625 423 Z  M 289.725 423 L 284.675 423 L 284.675 421 L 289.725 421 L 289.725 423 Z  M 299.825 423 L 294.775 423 L 294.775 421 L 299.825 421 L 299.825 423 Z  M 309.925 423 L 304.875 423 L 304.875 421 L 309.925 421 L 309.925 423 Z  M 320.025 423 L 314.975 423 L 314.975 421 L 320.025 421 L 320.025 423 Z  M 330.125 423 L 325.075 423 L 325.075 421 L 330.125 421 L 330.125 423 Z  M 340.225 423 L 335.175 423 L 335.175 421 L 340.225 421 L 340.225 423 Z  M 350.325 423 L 345.275 423 L 345.275 421 L 350.325 421 L 350.325 423 Z  M 360.425 423 L 355.375 423 L 355.375 421 L 360.425 421 L 360.425 423 Z  M 368 423 L 365.475 423 L 365.475 421 L 368 421 L 368 423 Z " fill-rule="evenodd" fill="rgb(77,96,114)"/><path d=" M 21.493 526 L 19 526 L 19 524 L 21.493 524 L 21.493 526 Z  M 31.464 526 L 26.479 526 L 26.479 524 L 31.464 524 L 31.464 526 Z  M 41.436 526 L 36.45 526 L 36.45 524 L 41.436 524 L 41.436 526 Z  M 51.407 526 L 46.421 526 L 46.421 524 L 51.407 524 L 51.407 526 Z  M 61.379 526 L 56.393 526 L 56.393 524 L 61.379 524 L 61.379 526 Z  M 71.35 526 L 66.364 526 L 66.364 524 L 71.35 524 L 71.35 526 Z  M 81.321 526 L 76.336 526 L 76.336 524 L 81.321 524 L 81.321 526 Z  M 91.293 526 L 86.307 526 L 86.307 524 L 91.293 524 L 91.293 526 Z  M 101.264 526 L 96.279 526 L 96.279 524 L 101.264 524 L 101.264 526 Z  M 111.236 526 L 106.25 526 L 106.25 524 L 111.236 524 L 111.236 526 Z  M 121.207 526 L 116.221 526 L 116.221 524 L 121.207 524 L 121.207 526 Z  M 131.179 526 L 126.193 526 L 126.193 524 L 131.179 524 L 131.179 526 Z  M 141.15 526 L 136.164 526 L 136.164 524 L 141.15 524 L 141.15 526 Z  M 151.121 526 L 146.136 526 L 146.136 524 L 151.121 524 L 151.121 526 Z  M 161.093 526 L 156.107 526 L 156.107 524 L 161.093 524 L 161.093 526 Z  M 171.064 526 L 166.079 526 L 166.079 524 L 171.064 524 L 171.064 526 Z  M 181.036 526 L 176.05 526 L 176.05 524 L 181.036 524 L 181.036 526 Z  M 191.007 526 L 186.021 526 L 186.021 524 L 191.007 524 L 191.007 526 Z  M 200.979 526 L 195.993 526 L 195.993 524 L 200.979 524 L 200.979 526 Z  M 210.95 526 L 205.964 526 L 205.964 524 L 210.95 524 L 210.95 526 Z  M 220.922 526 L 215.936 526 L 215.936 524 L 220.922 524 L 220.922 526 Z  M 230.893 526 L 225.907 526 L 225.907 524 L 230.893 524 L 230.893 526 Z  M 240.864 526 L 235.879 526 L 235.879 524 L 240.864 524 L 240.864 526 Z  M 250.836 526 L 245.85 526 L 245.85 524 L 250.836 524 L 250.836 526 Z  M 260.807 526 L 255.822 526 L 255.822 524 L 260.807 524 L 260.807 526 Z  M 270.779 526 L 265.793 526 L 265.793 524 L 270.779 524 L 270.779 526 Z  M 280.75 526 L 275.764 526 L 275.764 524 L 280.75 524 L 280.75 526 Z  M 290.722 526 L 285.736 526 L 285.736 524 L 290.722 524 L 290.722 526 Z  M 300.693 526 L 295.707 526 L 295.707 524 L 300.693 524 L 300.693 526 Z  M 310.664 526 L 305.679 526 L 305.679 524 L 310.664 524 L 310.664 526 Z  M 320.636 526 L 315.65 526 L 315.65 524 L 320.636 524 L 320.636 526 Z  M 330.607 526 L 325.622 526 L 325.622 524 L 330.607 524 L 330.607 526 Z  M 340.579 526 L 335.593 526 L 335.593 524 L 340.579 524 L 340.579 526 Z  M 350.55 526 L 345.564 526 L 345.564 524 L 350.55 524 L 350.55 526 Z  M 360.522 526 L 355.536 526 L 355.536 524 L 360.522 524 L 360.522 526 Z  M 368 526 L 365.507 526 L 365.507 524 L 368 524 L 368 526 Z " fill-rule="evenodd" fill="rgb(77,96,114)"/><path d=" M 84.466 629 L 82 629 L 82 627 L 84.466 627 L 84.466 629 Z  M 94.328 629 L 89.397 629 L 89.397 627 L 94.328 627 L 94.328 629 Z  M 104.19 629 L 99.259 629 L 99.259 627 L 104.19 627 L 104.19 629 Z  M 114.052 629 L 109.121 629 L 109.121 627 L 114.052 627 L 114.052 629 Z  M 123.914 629 L 118.983 629 L 118.983 627 L 123.914 627 L 123.914 629 Z  M 133.776 629 L 128.845 629 L 128.845 627 L 133.776 627 L 133.776 629 Z  M 143.638 629 L 138.707 629 L 138.707 627 L 143.638 627 L 143.638 629 Z  M 153.5 629 L 148.569 629 L 148.569 627 L 153.5 627 L 153.5 629 Z  M 163.362 629 L 158.431 629 L 158.431 627 L 163.362 627 L 163.362 629 Z  M 173.224 629 L 168.293 629 L 168.293 627 L 173.224 627 L 173.224 629 Z  M 183.086 629 L 178.155 629 L 178.155 627 L 183.086 627 L 183.086 629 Z  M 192.948 629 L 188.017 629 L 188.017 627 L 192.948 627 L 192.948 629 Z  M 202.81 629 L 197.879 629 L 197.879 627 L 202.81 627 L 202.81 629 Z  M 212.672 629 L 207.741 629 L 207.741 627 L 212.672 627 L 212.672 629 Z  M 222.535 629 L 217.603 629 L 217.603 627 L 222.535 627 L 222.535 629 Z  M 232.397 629 L 227.466 629 L 227.466 627 L 232.397 627 L 232.397 629 Z  M 242.259 629 L 237.328 629 L 237.328 627 L 242.259 627 L 242.259 629 Z  M 252.121 629 L 247.19 629 L 247.19 627 L 252.121 627 L 252.121 629 Z  M 261.983 629 L 257.052 629 L 257.052 627 L 261.983 627 L 261.983 629 Z  M 271.845 629 L 266.914 629 L 266.914 627 L 271.845 627 L 271.845 629 Z  M 281.707 629 L 276.776 629 L 276.776 627 L 281.707 627 L 281.707 629 Z  M 291.569 629 L 286.638 629 L 286.638 627 L 291.569 627 L 291.569 629 Z  M 301.431 629 L 296.5 629 L 296.5 627 L 301.431 627 L 301.431 629 Z  M 311.293 629 L 306.362 629 L 306.362 627 L 311.293 627 L 311.293 629 Z  M 321.155 629 L 316.224 629 L 316.224 627 L 321.155 627 L 321.155 629 Z  M 331.017 629 L 326.086 629 L 326.086 627 L 331.017 627 L 331.017 629 Z  M 340.879 629 L 335.948 629 L 335.948 627 L 340.879 627 L 340.879 629 Z  M 350.741 629 L 345.81 629 L 345.81 627 L 350.741 627 L 350.741 629 Z  M 360.603 629 L 355.672 629 L 355.672 627 L 360.603 627 L 360.603 629 Z  M 368 629 L 365.534 629 L 365.534 627 L 368 627 L 368 629 Z " fill-rule="evenodd" fill="rgb(77,96,114)"/><path d=" M 98.537 731 L 96 731 L 96 729 L 98.537 729 L 98.537 731 Z  M 108.685 731 L 103.611 731 L 103.611 729 L 108.685 729 L 108.685 731 Z  M 118.833 731 L 113.759 731 L 113.759 729 L 118.833 729 L 118.833 731 Z  M 128.981 731 L 123.907 731 L 123.907 729 L 128.981 729 L 128.981 731 Z  M 139.13 731 L 134.056 731 L 134.056 729 L 139.13 729 L 139.13 731 Z  M 149.278 731 L 144.204 731 L 144.204 729 L 149.278 729 L 149.278 731 Z  M 159.426 731 L 154.352 731 L 154.352 729 L 159.426 729 L 159.426 731 Z  M 169.574 731 L 164.5 731 L 164.5 729 L 169.574 729 L 169.574 731 Z  M 179.722 731 L 174.648 731 L 174.648 729 L 179.722 729 L 179.722 731 Z  M 189.87 731 L 184.796 731 L 184.796 729 L 189.87 729 L 189.87 731 Z  M 200.019 731 L 194.944 731 L 194.944 729 L 200.019 729 L 200.019 731 Z  M 210.167 731 L 205.093 731 L 205.093 729 L 210.167 729 L 210.167 731 Z  M 220.315 731 L 215.241 731 L 215.241 729 L 220.315 729 L 220.315 731 Z  M 230.463 731 L 225.389 731 L 225.389 729 L 230.463 729 L 230.463 731 Z  M 240.611 731 L 235.537 731 L 235.537 729 L 240.611 729 L 240.611 731 Z  M 250.759 731 L 245.685 731 L 245.685 729 L 250.759 729 L 250.759 731 Z  M 260.907 731 L 255.833 731 L 255.833 729 L 260.907 729 L 260.907 731 Z  M 271.056 731 L 265.982 731 L 265.982 729 L 271.056 729 L 271.056 731 Z  M 281.204 731 L 276.13 731 L 276.13 729 L 281.204 729 L 281.204 731 Z  M 291.352 731 L 286.278 731 L 286.278 729 L 291.352 729 L 291.352 731 Z  M 301.5 731 L 296.426 731 L 296.426 729 L 301.5 729 L 301.5 731 Z  M 311.648 731 L 306.574 731 L 306.574 729 L 311.648 729 L 311.648 731 Z  M 321.796 731 L 316.722 731 L 316.722 729 L 321.796 729 L 321.796 731 Z  M 331.945 731 L 326.871 731 L 326.871 729 L 331.945 729 L 331.945 731 Z  M 342.093 731 L 337.019 731 L 337.019 729 L 342.093 729 L 342.093 731 Z  M 352.241 731 L 347.167 731 L 347.167 729 L 352.241 729 L 352.241 731 Z  M 362.389 731 L 357.315 731 L 357.315 729 L 362.389 729 L 362.389 731 Z  M 370 731 L 367.463 731 L 367.463 729 L 370 729 L 370 731 Z " fill-rule="evenodd" fill="rgb(77,96,114)"/><path d=" M 17.529 835 L 15 835 L 15 833 L 17.529 833 L 17.529 835 Z  M 27.643 835 L 22.586 835 L 22.586 833 L 27.643 833 L 27.643 835 Z  M 37.757 835 L 32.7 835 L 32.7 833 L 37.757 833 L 37.757 835 Z  M 47.871 835 L 42.814 835 L 42.814 833 L 47.871 833 L 47.871 835 Z  M 57.986 835 L 52.929 835 L 52.929 833 L 57.986 833 L 57.986 835 Z  M 68.1 835 L 63.043 835 L 63.043 833 L 68.1 833 L 68.1 835 Z  M 78.214 835 L 73.157 835 L 73.157 833 L 78.214 833 L 78.214 835 Z  M 88.329 835 L 83.271 835 L 83.271 833 L 88.329 833 L 88.329 835 Z  M 98.443 835 L 93.386 835 L 93.386 833 L 98.443 833 L 98.443 835 Z  M 108.557 835 L 103.5 835 L 103.5 833 L 108.557 833 L 108.557 835 Z  M 118.671 835 L 113.614 835 L 113.614 833 L 118.671 833 L 118.671 835 Z  M 128.786 835 L 123.729 835 L 123.729 833 L 128.786 833 L 128.786 835 Z  M 138.9 835 L 133.843 835 L 133.843 833 L 138.9 833 L 138.9 835 Z  M 149.014 835 L 143.957 835 L 143.957 833 L 149.014 833 L 149.014 835 Z  M 159.129 835 L 154.071 835 L 154.071 833 L 159.129 833 L 159.129 835 Z  M 169.243 835 L 164.186 835 L 164.186 833 L 169.243 833 L 169.243 835 Z  M 179.357 835 L 174.3 835 L 174.3 833 L 179.357 833 L 179.357 835 Z  M 189.471 835 L 184.414 835 L 184.414 833 L 189.471 833 L 189.471 835 Z  M 199.586 835 L 194.529 835 L 194.529 833 L 199.586 833 L 199.586 835 Z  M 209.7 835 L 204.643 835 L 204.643 833 L 209.7 833 L 209.7 835 Z  M 219.814 835 L 214.757 835 L 214.757 833 L 219.814 833 L 219.814 835 Z  M 229.929 835 L 224.871 835 L 224.871 833 L 229.929 833 L 229.929 835 Z  M 240.043 835 L 234.986 835 L 234.986 833 L 240.043 833 L 240.043 835 Z  M 250.157 835 L 245.1 835 L 245.1 833 L 250.157 833 L 250.157 835 Z  M 260.271 835 L 255.214 835 L 255.214 833 L 260.271 833 L 260.271 835 Z  M 270.386 835 L 265.329 835 L 265.329 833 L 270.386 833 L 270.386 835 Z  M 280.5 835 L 275.443 835 L 275.443 833 L 280.5 833 L 280.5 835 Z  M 290.614 835 L 285.557 835 L 285.557 833 L 290.614 833 L 290.614 835 Z  M 300.729 835 L 295.671 835 L 295.671 833 L 300.729 833 L 300.729 835 Z  M 310.843 835 L 305.786 835 L 305.786 833 L 310.843 833 L 310.843 835 Z  M 320.957 835 L 315.9 835 L 315.9 833 L 320.957 833 L 320.957 835 Z  M 331.071 835 L 326.014 835 L 326.014 833 L 331.071 833 L 331.071 835 Z  M 341.186 835 L 336.128 835 L 336.128 833 L 341.186 833 L 341.186 835 Z  M 351.3 835 L 346.243 835 L 346.243 833 L 351.3 833 L 351.3 835 Z  M 361.414 835 L 356.357 835 L 356.357 833 L 361.414 833 L 361.414 835 Z  M 369 835 L 366.471 835 L 366.471 833 L 369 833 L 369 835 Z " fill-rule="evenodd" fill="rgb(77,96,114)"/><path d=" M 82.458 938 L 82.458 936 L 82.458 938 Z  M 92.425 938 L 87.442 938 L 87.442 936 L 92.425 936 L 92.425 938 Z  M 102.392 938 L 97.408 938 L 97.408 936 L 102.392 936 L 102.392 938 Z  M 112.358 938 L 107.375 938 L 107.375 936 L 112.358 936 L 112.358 938 Z  M 122.325 938 L 117.342 938 L 117.342 936 L 122.325 936 L 122.325 938 Z  M 132.292 938 L 127.308 938 L 127.308 936 L 132.292 936 L 132.292 938 Z  M 142.258 938 L 137.275 938 L 137.275 936 L 142.258 936 L 142.258 938 Z  M 152.225 938 L 147.242 938 L 147.242 936 L 152.225 936 L 152.225 938 Z  M 162.192 938 L 157.208 938 L 157.208 936 L 162.192 936 L 162.192 938 Z  M 172.158 938 L 167.175 938 L 167.175 936 L 172.158 936 L 172.158 938 Z  M 182.125 938 L 177.142 938 L 177.142 936 L 182.125 936 L 182.125 938 Z  M 192.092 938 L 187.108 938 L 187.108 936 L 192.092 936 L 192.092 938 Z  M 202.058 938 L 197.075 938 L 197.075 936 L 202.058 936 L 202.058 938 Z  M 212.025 938 L 207.042 938 L 207.042 936 L 212.025 936 L 212.025 938 Z  M 221.992 938 L 217.008 938 L 217.008 936 L 221.992 936 L 221.992 938 Z  M 231.958 938 L 226.975 938 L 226.975 936 L 231.958 936 L 231.958 938 Z  M 241.925 938 L 236.942 938 L 236.942 936 L 241.925 936 L 241.925 938 Z  M 251.892 938 L 246.908 938 L 246.908 936 L 251.892 936 L 251.892 938 Z  M 261.858 938 L 256.875 938 L 256.875 936 L 261.858 936 L 261.858 938 Z  M 271.825 938 L 266.842 938 L 266.842 936 L 271.825 936 L 271.825 938 Z  M 281.792 938 L 276.808 938 L 276.808 936 L 281.792 936 L 281.792 938 Z  M 291.758 938 L 286.775 938 L 286.775 936 L 291.758 936 L 291.758 938 Z  M 301.725 938 L 296.742 938 L 296.742 936 L 301.725 936 L 301.725 938 Z  M 311.692 938 L 306.708 938 L 306.708 936 L 311.692 936 L 311.692 938 Z  M 321.658 938 L 316.675 938 L 316.675 936 L 321.658 936 L 321.658 938 Z  M 331.625 938 L 326.642 938 L 326.642 936 L 331.625 936 L 331.625 938 Z  M 341.592 938 L 336.608 938 L 336.608 936 L 341.592 936 L 341.592 938 Z  M 351.558 938 L 346.575 938 L 346.575 936 L 351.558 936 L 351.558 938 Z  M 361.525 938 L 356.542 938 L 356.542 936 L 361.525 936 L 361.525 938 Z  M 369 938 L 366.508 938 L 366.508 936 L 369 936 L 369 938 Z " fill-rule="evenodd" fill="rgb(77,96,114)"/><path d=" M 17.521 1041 L 15 1041 L 15 1039 L 17.521 1039 L 17.521 1041 Z  M 27.607 1041 L 22.564 1041 L 22.564 1039 L 27.607 1039 L 27.607 1041 Z  M 37.693 1041 L 32.65 1041 L 32.65 1039 L 37.693 1039 L 37.693 1041 Z  M 47.779 1041 L 42.736 1041 L 42.736 1039 L 47.779 1039 L 47.779 1041 Z  M 57.864 1041 L 52.821 1041 L 52.821 1039 L 57.864 1039 L 57.864 1041 Z  M 67.95 1041 L 62.907 1041 L 62.907 1039 L 67.95 1039 L 67.95 1041 Z  M 78.036 1041 L 72.993 1041 L 72.993 1039 L 78.036 1039 L 78.036 1041 Z  M 88.121 1041 L 83.079 1041 L 83.079 1039 L 88.121 1039 L 88.121 1041 Z  M 98.207 1041 L 93.164 1041 L 93.164 1039 L 98.207 1039 L 98.207 1041 Z  M 108.293 1041 L 103.25 1041 L 103.25 1039 L 108.293 1039 L 108.293 1041 Z  M 118.379 1041 L 113.336 1041 L 113.336 1039 L 118.379 1039 L 118.379 1041 Z  M 128.464 1041 L 123.421 1041 L 123.421 1039 L 128.464 1039 L 128.464 1041 Z  M 138.55 1041 L 133.507 1041 L 133.507 1039 L 138.55 1039 L 138.55 1041 Z  M 148.636 1041 L 143.593 1041 L 143.593 1039 L 148.636 1039 L 148.636 1041 Z  M 158.721 1041 L 153.679 1041 L 153.679 1039 L 158.721 1039 L 158.721 1041 Z  M 168.807 1041 L 163.764 1041 L 163.764 1039 L 168.807 1039 L 168.807 1041 Z  M 178.893 1041 L 173.85 1041 L 173.85 1039 L 178.893 1039 L 178.893 1041 Z  M 188.979 1041 L 183.936 1041 L 183.936 1039 L 188.979 1039 L 188.979 1041 Z  M 199.064 1041 L 194.021 1041 L 194.021 1039 L 199.064 1039 L 199.064 1041 Z  M 209.15 1041 L 204.107 1041 L 204.107 1039 L 209.15 1039 L 209.15 1041 Z  M 219.236 1041 L 214.193 1041 L 214.193 1039 L 219.236 1039 L 219.236 1041 Z  M 229.321 1041 L 224.279 1041 L 224.279 1039 L 229.321 1039 L 229.321 1041 Z  M 239.407 1041 L 234.364 1041 L 234.364 1039 L 239.407 1039 L 239.407 1041 Z  M 249.493 1041 L 244.45 1041 L 244.45 1039 L 249.493 1039 L 249.493 1041 Z  M 259.579 1041 L 254.536 1041 L 254.536 1039 L 259.579 1039 L 259.579 1041 Z  M 269.664 1041 L 264.622 1041 L 264.622 1039 L 269.664 1039 L 269.664 1041 Z  M 279.75 1041 L 274.707 1041 L 274.707 1039 L 279.75 1039 L 279.75 1041 Z  M 289.836 1041 L 284.793 1041 L 284.793 1039 L 289.836 1039 L 289.836 1041 Z  M 299.921 1041 L 294.879 1041 L 294.879 1039 L 299.921 1039 L 299.921 1041 Z  M 310.007 1041 L 304.964 1041 L 304.964 1039 L 310.007 1039 L 310.007 1041 Z  M 320.093 1041 L 315.05 1041 L 315.05 1039 L 320.093 1039 L 320.093 1041 Z  M 330.179 1041 L 325.136 1041 L 325.136 1039 L 330.179 1039 L 330.179 1041 Z  M 340.264 1041 L 335.221 1041 L 335.221 1039 L 340.264 1039 L 340.264 1041 Z  M 350.35 1041 L 345.307 1041 L 345.307 1039 L 350.35 1039 L 350.35 1041 Z  M 360.436 1041 L 355.393 1041 L 355.393 1039 L 360.436 1039 L 360.436 1041 Z  M 368 1041 L 365.478 1041 L 365.478 1039 L 368 1039 L 368 1041 Z " fill-rule="evenodd" fill="rgb(77,96,114)"/><path d=" M 18.521 1144 L 16 1144 L 16 1142 L 18.521 1142 L 18.521 1144 Z  M 28.607 1144 L 23.564 1144 L 23.564 1142 L 28.607 1142 L 28.607 1144 Z  M 38.693 1144 L 33.65 1144 L 33.65 1142 L 38.693 1142 L 38.693 1144 Z  M 48.779 1144 L 43.736 1144 L 43.736 1142 L 48.779 1142 L 48.779 1144 Z  M 58.864 1144 L 53.821 1144 L 53.821 1142 L 58.864 1142 L 58.864 1144 Z  M 68.95 1144 L 63.907 1144 L 63.907 1142 L 68.95 1142 L 68.95 1144 Z  M 79.036 1144 L 73.993 1144 L 73.993 1142 L 79.036 1142 L 79.036 1144 Z  M 89.121 1144 L 84.079 1144 L 84.079 1142 L 89.121 1142 L 89.121 1144 Z  M 99.207 1144 L 94.164 1144 L 94.164 1142 L 99.207 1142 L 99.207 1144 Z  M 109.293 1144 L 104.25 1144 L 104.25 1142 L 109.293 1142 L 109.293 1144 Z  M 119.379 1144 L 114.336 1144 L 114.336 1142 L 119.379 1142 L 119.379 1144 Z  M 129.464 1144 L 124.421 1144 L 124.421 1142 L 129.464 1142 L 129.464 1144 Z  M 139.55 1144 L 134.507 1144 L 134.507 1142 L 139.55 1142 L 139.55 1144 Z  M 149.636 1144 L 144.593 1144 L 144.593 1142 L 149.636 1142 L 149.636 1144 Z  M 159.721 1144 L 154.679 1144 L 154.679 1142 L 159.721 1142 L 159.721 1144 Z  M 169.807 1144 L 164.764 1144 L 164.764 1142 L 169.807 1142 L 169.807 1144 Z  M 179.893 1144 L 174.85 1144 L 174.85 1142 L 179.893 1142 L 179.893 1144 Z  M 189.979 1144 L 184.936 1144 L 184.936 1142 L 189.979 1142 L 189.979 1144 Z  M 200.064 1144 L 195.021 1144 L 195.021 1142 L 200.064 1142 L 200.064 1144 Z  M 210.15 1144 L 205.107 1144 L 205.107 1142 L 210.15 1142 L 210.15 1144 Z  M 220.236 1144 L 215.193 1144 L 215.193 1142 L 220.236 1142 L 220.236 1144 Z  M 230.322 1144 L 225.279 1144 L 225.279 1142 L 230.322 1142 L 230.322 1144 Z  M 240.407 1144 L 235.364 1144 L 235.364 1142 L 240.407 1142 L 240.407 1144 Z  M 250.493 1144 L 245.45 1144 L 245.45 1142 L 250.493 1142 L 250.493 1144 Z  M 260.579 1144 L 255.536 1144 L 255.536 1142 L 260.579 1142 L 260.579 1144 Z  M 270.664 1144 L 265.622 1144 L 265.622 1142 L 270.664 1142 L 270.664 1144 Z  M 280.75 1144 L 275.707 1144 L 275.707 1142 L 280.75 1142 L 280.75 1144 Z  M 290.836 1144 L 285.793 1144 L 285.793 1142 L 290.836 1142 L 290.836 1144 Z  M 300.921 1144 L 295.879 1144 L 295.879 1142 L 300.921 1142 L 300.921 1144 Z  M 311.007 1144 L 305.964 1144 L 305.964 1142 L 311.007 1142 L 311.007 1144 Z  M 321.093 1144 L 316.05 1144 L 316.05 1142 L 321.093 1142 L 321.093 1144 Z  M 331.179 1144 L 326.136 1144 L 326.136 1142 L 331.179 1142 L 331.179 1144 Z  M 341.264 1144 L 336.221 1144 L 336.221 1142 L 341.264 1142 L 341.264 1144 Z  M 351.35 1144 L 346.307 1144 L 346.307 1142 L 351.35 1142 L 351.35 1144 Z  M 361.436 1144 L 356.393 1144 L 356.393 1142 L 361.436 1142 L 361.436 1144 Z  M 369 1144 L 366.478 1144 L 366.478 1142 L 369 1142 L 369 1144 Z " fill-rule="evenodd" fill="rgb(77,96,114)"/><path d=" M 94.473 1247 L 92 1247 L 92 1245 L 94.473 1245 L 94.473 1247 Z  M 104.366 1247 L 99.42 1247 L 99.42 1245 L 104.366 1245 L 104.366 1247 Z  M 114.259 1247 L 109.312 1247 L 109.313 1245 L 114.259 1245 L 114.259 1247 Z  M 124.152 1247 L 119.205 1247 L 119.205 1245 L 124.152 1245 L 124.152 1247 Z  M 134.045 1247 L 129.098 1247 L 129.098 1245 L 134.045 1245 L 134.045 1247 Z  M 143.938 1247 L 138.991 1247 L 138.991 1245 L 143.938 1245 L 143.938 1247 Z  M 153.83 1247 L 148.884 1247 L 148.884 1245 L 153.83 1245 L 153.83 1247 Z  M 163.723 1247 L 158.777 1247 L 158.777 1245 L 163.723 1245 L 163.723 1247 Z  M 173.616 1247 L 168.67 1247 L 168.67 1245 L 173.616 1245 L 173.616 1247 Z  M 183.509 1247 L 178.562 1247 L 178.563 1245 L 183.509 1245 L 183.509 1247 Z  M 193.402 1247 L 188.455 1247 L 188.455 1245 L 193.402 1245 L 193.402 1247 Z  M 203.295 1247 L 198.348 1247 L 198.348 1245 L 203.295 1245 L 203.295 1247 Z  M 213.187 1247 L 208.241 1247 L 208.241 1245 L 213.187 1245 L 213.187 1247 Z  M 223.08 1247 L 218.134 1247 L 218.134 1245 L 223.08 1245 L 223.08 1247 Z  M 232.973 1247 L 228.027 1247 L 228.027 1245 L 232.973 1245 L 232.973 1247 Z  M 242.866 1247 L 237.92 1247 L 237.92 1245 L 242.866 1245 L 242.866 1247 Z  M 252.759 1247 L 247.812 1247 L 247.812 1245 L 252.759 1245 L 252.759 1247 Z  M 262.652 1247 L 257.705 1247 L 257.705 1245 L 262.652 1245 L 262.652 1247 Z  M 272.545 1247 L 267.598 1247 L 267.598 1245 L 272.545 1245 L 272.545 1247 Z  M 282.437 1247 L 277.491 1247 L 277.491 1245 L 282.437 1245 L 282.437 1247 Z  M 292.33 1247 L 287.384 1247 L 287.384 1245 L 292.33 1245 L 292.33 1247 Z  M 302.223 1247 L 297.277 1247 L 297.277 1245 L 302.223 1245 L 302.223 1247 Z  M 312.116 1247 L 307.17 1247 L 307.17 1245 L 312.116 1245 L 312.116 1247 Z  M 322.009 1247 L 317.062 1247 L 317.062 1245 L 322.009 1245 L 322.009 1247 Z  M 331.902 1247 L 326.955 1247 L 326.955 1245 L 331.902 1245 L 331.902 1247 Z  M 341.795 1247 L 336.848 1247 L 336.848 1245 L 341.795 1245 L 341.795 1247 Z  M 351.687 1247 L 346.741 1247 L 346.741 1245 L 351.687 1245 L 351.687 1247 Z  M 361.58 1247 L 356.634 1247 L 356.634 1245 L 361.58 1245 L 361.58 1247 Z  M 369 1247 L 366.527 1247 L 366.527 1245 L 369 1245 L 369 1247 Z " fill-rule="evenodd" fill="rgb(77,96,114)"/><path d=" M 94.464 1350 L 92 1350 L 92 1348 L 94.464 1348 L 94.464 1350 Z  M 104.321 1350 L 99.393 1350 L 99.393 1348 L 104.321 1348 L 104.321 1350 Z  M 114.179 1350 L 109.25 1350 L 109.25 1348 L 114.179 1348 L 114.179 1350 Z  M 124.036 1350 L 119.107 1350 L 119.107 1348 L 124.036 1348 L 124.036 1350 Z  M 133.893 1350 L 128.964 1350 L 128.964 1348 L 133.893 1348 L 133.893 1350 Z  M 143.75 1350 L 138.821 1350 L 138.821 1348 L 143.75 1348 L 143.75 1350 Z  M 153.607 1350 L 148.679 1350 L 148.679 1348 L 153.607 1348 L 153.607 1350 Z  M 163.464 1350 L 158.536 1350 L 158.536 1348 L 163.464 1348 L 163.464 1350 Z  M 173.321 1350 L 168.393 1350 L 168.393 1348 L 173.321 1348 L 173.321 1350 Z  M 183.179 1350 L 178.25 1350 L 178.25 1348 L 183.179 1348 L 183.179 1350 Z  M 193.036 1350 L 188.107 1350 L 188.107 1348 L 193.036 1348 L 193.036 1350 Z  M 202.893 1350 L 197.964 1350 L 197.964 1348 L 202.893 1348 L 202.893 1350 Z  M 212.75 1350 L 207.821 1350 L 207.821 1348 L 212.75 1348 L 212.75 1350 Z  M 222.607 1350 L 217.679 1350 L 217.679 1348 L 222.607 1348 L 222.607 1350 Z  M 232.464 1350 L 227.536 1350 L 227.536 1348 L 232.464 1348 L 232.464 1350 Z  M 242.321 1350 L 237.393 1350 L 237.393 1348 L 242.321 1348 L 242.321 1350 Z  M 252.179 1350 L 247.25 1350 L 247.25 1348 L 252.179 1348 L 252.179 1350 Z  M 262.036 1350 L 257.107 1350 L 257.107 1348 L 262.036 1348 L 262.036 1350 Z  M 271.893 1350 L 266.964 1350 L 266.964 1348 L 271.893 1348 L 271.893 1350 Z  M 281.75 1350 L 276.821 1350 L 276.821 1348 L 281.75 1348 L 281.75 1350 Z  M 291.607 1350 L 286.679 1350 L 286.679 1348 L 291.607 1348 L 291.607 1350 Z  M 301.464 1350 L 296.536 1350 L 296.536 1348 L 301.464 1348 L 301.464 1350 Z  M 311.321 1350 L 306.393 1350 L 306.393 1348 L 311.321 1348 L 311.321 1350 Z  M 321.179 1350 L 316.25 1350 L 316.25 1348 L 321.179 1348 L 321.179 1350 Z  M 331.036 1350 L 326.107 1350 L 326.107 1348 L 331.036 1348 L 331.036 1350 Z  M 340.893 1350 L 335.964 1350 L 335.964 1348 L 340.893 1348 L 340.893 1350 Z  M 350.75 1350 L 345.822 1350 L 345.822 1348 L 350.75 1348 L 350.75 1350 Z  M 360.607 1350 L 355.679 1350 L 355.679 1348 L 360.607 1348 L 360.607 1350 Z  M 368 1350 L 365.536 1350 L 365.536 1348 L 368 1348 L 368 1350 Z " fill-rule="evenodd" fill="rgb(77,96,114)"/><path d=" M 94 343 C 92.619 343 91.5 344.119 91.5 345.5 L 91.5 374.367 C 91.5 389.002 103.365 400.867 118 400.867 L 148 400.867 C 152.287 400.867 156.28 402.121 159.633 404.283 C 162.372 406.048 161.507 409.94 159.431 412.451 C 157.288 415.045 156 418.372 156 422 C 156 428.201 159.763 433.523 165.129 435.808 C 167.494 436.814 169.5 438.884 169.5 441.454 L 169.5 550.128 C 169.5 562.002 159.874 571.628 148 571.628 L 118 571.628 C 103.364 571.628 91.5 583.493 91.5 598.128 L 91.5 625 C 91.5 626.381 92.619 627.5 94 627.5 L 94 627.5 C 95.381 627.5 96.5 626.381 96.5 625 L 96.5 598.128 C 96.5 586.254 106.126 576.628 118 576.628 L 148 576.628 C 162.636 576.628 174.5 564.764 174.5 550.128 L 174.5 440.535 C 174.5 438.222 176.141 436.285 178.172 435.177 C 182.836 432.634 186 427.686 186 422 C 186 413.716 179.284 407 171 407 L 171 407 C 170.154 407 169.341 406.631 168.817 405.967 C 163.965 399.816 156.443 395.867 148 395.867 L 118 395.867 C 106.126 395.867 96.5 386.241 96.5 374.367 L 96.5 345.5 C 96.5 344.119 95.381 343 94 343 L 94 343 Z " fill-rule="evenodd" fill="rgb(255,171,46)"/><path d=" M 9.129 229.808 C 11.494 230.814 13.5 232.884 13.5 235.454 L 13.5 242.628 C 13.5 257.264 25.364 269.128 40 269.128 L 70 269.128 C 81.874 269.128 91.5 278.754 91.5 290.628 L 91.5 317.5 C 91.5 318.881 92.619 320 94 320 L 94 320 C 95.381 320 96.5 318.881 96.5 317.5 L 96.5 290.628 C 96.5 275.993 84.636 264.128 70 264.128 L 40 264.128 C 28.126 264.128 18.5 254.502 18.5 242.628 L 18.5 234.535 C 18.5 232.222 20.141 230.285 22.173 229.177 C 26.836 226.634 30 221.686 30 216 C 30 210.314 26.836 205.366 22.173 202.823 C 20.141 201.715 18.5 199.778 18.5 197.465 L 18.5 191.367 C 18.5 179.493 28.126 169.867 40 169.867 L 70 169.867 C 84.636 169.867 96.5 158.002 96.5 143.367 L 96.5 114.5 C 96.5 113.119 95.381 112 94 112 L 94 112 C 92.619 112 91.5 113.119 91.5 114.5 L 91.5 143.367 C 91.5 155.241 81.874 164.867 70 164.867 L 40 164.867 C 25.364 164.867 13.5 176.731 13.5 191.367 L 13.5 196.546 C 13.5 199.116 11.494 201.186 9.129 202.192 C 3.763 204.477 0 209.799 0 216 C 0 222.201 3.763 227.523 9.129 229.808 Z  M 96.5 963.367 L 96.5 932.5 L 96.5 903.128 C 96.5 888.493 84.636 876.628 70 876.628 L 40 876.628 C 28.126 876.628 18.5 867.002 18.5 855.128 L 18.5 852.535 C 18.5 850.222 20.141 848.285 22.172 847.177 C 26.836 844.633 30 839.686 30 834 C 30 828.314 26.836 823.367 22.172 820.823 C 20.141 819.715 18.5 817.778 18.5 815.465 L 18.5 809.367 C 18.5 797.493 28.126 787.867 40 787.867 L 70 787.867 C 84.636 787.867 96.5 776.003 96.5 761.367 L 96.5 732.5 C 96.5 731.119 95.381 730 94 730 L 94 730 C 92.619 730 91.5 731.119 91.5 732.5 L 91.5 761.367 C 91.5 773.241 81.874 782.867 70 782.867 L 40 782.867 C 25.364 782.867 13.5 794.731 13.5 809.367 L 13.5 814.546 C 13.5 817.116 11.494 819.186 9.129 820.192 C 3.763 822.477 0 827.799 0 834 C 0 840.201 3.763 845.523 9.129 847.808 C 11.494 848.814 13.5 850.884 13.5 853.454 L 13.5 855.128 C 13.5 869.764 25.364 881.628 40 881.628 L 70 881.628 C 81.874 881.628 91.5 891.254 91.5 903.128 L 91.5 932 L 91.5 963.367 C 91.5 975.241 81.874 984.867 70 984.867 L 40 984.867 C 25.364 984.867 13.5 996.73 13.5 1011.37 L 13.5 1020.55 C 13.5 1023.12 11.494 1025.19 9.129 1026.19 C 3.763 1028.48 0 1033.8 0 1040 C 0 1046.2 3.763 1051.52 9.129 1053.81 C 11.494 1054.81 13.5 1056.88 13.5 1059.45 L 13.5 1123.55 C 13.5 1126.12 11.494 1128.19 9.129 1129.19 C 3.763 1131.48 0 1136.8 0 1143 C 0 1149.2 3.763 1154.52 9.129 1156.81 C 11.494 1157.81 13.5 1159.88 13.5 1162.45 L 13.5 1172 C 13.5 1186.64 25.364 1198.5 40 1198.5 L 70 1198.5 C 81.874 1198.5 91.5 1208.13 91.5 1220 L 91.5 1246.87 C 91.5 1248.25 92.619 1249.37 94 1249.37 L 94 1249.37 C 95.381 1249.37 96.5 1248.25 96.5 1246.87 L 96.5 1220 C 96.5 1205.36 84.635 1193.5 70 1193.5 L 40 1193.5 C 28.126 1193.5 18.5 1183.87 18.5 1172 L 18.5 1161.54 C 18.5 1159.22 20.141 1157.29 22.172 1156.18 C 26.836 1153.63 30 1148.69 30 1143 C 30 1137.31 26.836 1132.37 22.172 1129.82 C 20.141 1128.71 18.5 1126.78 18.5 1124.46 L 18.5 1058.54 C 18.5 1056.22 20.141 1054.29 22.172 1053.18 C 26.836 1050.63 30 1045.69 30 1040 C 30 1034.31 26.836 1029.37 22.172 1026.82 C 20.141 1025.71 18.5 1023.78 18.5 1021.46 L 18.5 1011.37 C 18.5 999.49 28.126 989.867 40 989.867 L 70 989.867 C 84.635 989.867 96.5 978.003 96.5 963.367 Z  M 96.5 371.367 L 96.5 342.5 C 96.5 341.119 95.381 340 94 340 L 94 340 C 92.619 340 91.5 341.119 91.5 342.5 L 91.5 371.367 C 91.5 383.241 81.874 392.867 70 392.867 L 40 392.867 C 25.364 392.867 13.5 404.731 13.5 419.367 L 13.5 505.546 C 13.5 508.116 11.494 510.186 9.129 511.192 C 3.763 513.477 0 518.799 0 525 C 0 531.201 3.763 536.523 9.129 538.808 C 11.494 539.814 13.5 541.884 13.5 544.454 L 13.5 551.628 C 13.5 566.264 25.364 578.128 40 578.128 L 70 578.128 C 81.874 578.128 91.5 587.754 91.5 599.628 L 91.5 626.5 C 91.5 627.881 92.619 629 94 629 L 94 629 C 95.381 629 96.5 627.881 96.5 626.5 L 96.5 599.628 C 96.5 584.993 84.636 573.128 70 573.128 L 40 573.128 C 28.126 573.128 18.5 563.502 18.5 551.628 L 18.5 543.535 C 18.5 541.222 20.141 539.285 22.172 538.177 C 26.836 535.634 30 530.686 30 525 C 30 519.314 26.836 514.366 22.172 511.823 C 20.141 510.715 18.5 508.778 18.5 506.465 L 18.5 419.367 C 18.5 407.493 28.126 397.867 40 397.867 L 70 397.867 C 84.636 397.867 96.5 386.002 96.5 371.367 Z " fill-rule="evenodd" fill="rgb(102,206,103)"/><path d=" M 90 98 C 85.871 99.59 87.662 98.647 84 100.999 C 80.357 103.736 78 108.093 78 113 C 78 117.907 80.357 122.264 84 125.001 C 87.699 127.779 91.5 131.45 91.5 136.077 L 91.5 295.923 C 91.5 300.55 87.699 304.221 84 306.999 C 80.356 309.736 78 314.093 78 319 C 78 323.907 80.356 328.264 84 331.001 C 87.699 333.779 91.5 337.45 91.5 342.077 L 91.5 604.923 C 91.5 609.55 87.698 613.221 84 615.999 C 80.356 618.736 78 623.093 78 628 C 78 632.907 80.356 637.264 84 640.001 C 87.698 642.779 91.5 646.45 91.5 651.077 L 91.5 707.923 C 91.5 712.55 87.698 716.221 84 718.999 C 80.356 721.736 78 726.093 78 731 C 78 735.907 80.356 740.264 84 743.001 C 87.698 745.779 91.5 749.45 91.5 754.077 L 91.5 913.923 C 91.5 918.55 87.698 922.221 84 924.999 C 80.356 927.736 78 932.093 78 937 C 78 941.907 80.356 946.264 84 949.001 C 87.698 951.779 91.5 955.45 91.5 960.077 L 91.5 1222.92 C 91.5 1227.55 87.698 1231.22 84 1234 C 80.356 1236.74 78 1241.09 78 1246 C 78 1250.91 80.356 1255.26 84 1258 C 87.698 1260.78 91.5 1264.45 91.5 1269.08 L 91.5 1325.92 C 91.5 1330.55 87.698 1334.22 84 1337 C 80.356 1339.74 78 1344.09 78 1349 C 78 1357.28 84.716 1364 93 1364 C 101.284 1364 108 1357.28 108 1349 C 108 1344.45 105.97 1340.36 102.765 1337.61 C 99.605 1334.9 96.5 1331.47 96.5 1327.31 L 96.5 1267.69 C 96.5 1263.53 99.605 1260.1 102.765 1257.39 C 105.97 1254.64 108 1250.55 108 1246 C 108 1241.45 105.97 1237.36 102.765 1234.61 C 99.605 1231.9 96.5 1228.47 96.5 1224.31 L 96.5 958.692 C 96.5 954.527 99.605 951.099 102.765 948.386 C 105.97 945.635 108 941.555 108 937 C 108 932.445 105.97 928.365 102.765 925.614 C 99.605 922.901 96.5 919.473 96.5 915.308 L 96.5 752.692 C 96.5 748.527 99.605 745.099 102.765 742.386 C 105.97 739.635 108 735.555 108 731 C 108 726.445 105.97 722.365 102.765 719.614 C 99.605 716.901 96.5 713.473 96.5 709.308 L 96.5 649.692 C 96.5 645.527 99.605 642.099 102.765 639.386 C 105.97 636.635 108 632.555 108 628 C 108 623.445 105.97 619.365 102.765 616.614 C 99.605 613.901 96.5 610.473 96.5 606.308 L 96.5 340.692 C 96.5 336.527 99.605 333.099 102.765 330.386 C 105.97 327.635 108 323.555 108 319 C 108 314.445 105.97 310.365 102.765 307.614 C 99.605 304.901 96.5 301.473 96.5 297.308 L 96.5 134.692 C 96.5 130.527 99.605 127.099 102.765 124.386 C 105.97 121.635 108 117.555 108 113 C 108 108.445 105.97 104.365 102.765 101.614 C 99.031 98.969 100.406 99.656 96 98 C 93.982 97.449 91.992 97.459 90 98 Z " fill-rule="evenodd" fill="rgb(136,59,230)"/><path d=" M 388 730 C 388 735.523 383.52 740 378 740 C 372.477 740 368 735.523 368 730 C 368 724.477 372.477 720 378 720 C 383.52 720 388 724.477 388 730 Z " fill="rgb(25,7,47)"/><path d=" M 378 738 C 382.42 738 386 734.418 386 730 C 386 725.582 382.42 722 378 722 C 373.582 722 370 725.582 370 730 C 370 734.418 373.582 738 378 738 Z  M 378 740 C 383.52 740 388 735.523 388 730 C 388 724.477 383.52 720 378 720 C 372.477 720 368 724.477 368 730 C 368 735.523 372.477 740 378 740 Z " fill-rule="evenodd" fill="rgb(77,96,114)"/><path d=" M 388 834 C 388 839.523 383.52 844 378 844 C 372.477 844 368 839.523 368 834 C 368 828.477 372.477 824 378 824 C 383.52 824 388 828.477 388 834 Z " fill="rgb(25,7,47)"/><path d=" M 378 842 C 382.42 842 386 838.418 386 834 C 386 829.582 382.42 826 378 826 C 373.582 826 370 829.582 370 834 C 370 838.418 373.582 842 378 842 Z  M 378 844 C 383.52 844 388 839.523 388 834 C 388 828.477 383.52 824 378 824 C 372.477 824 368 828.477 368 834 C 368 839.523 372.477 844 378 844 Z " fill-rule="evenodd" fill="rgb(77,96,114)"/><path d=" M 388 937 C 388 942.523 383.52 947 378 947 C 372.477 947 368 942.523 368 937 C 368 931.477 372.477 927 378 927 C 383.52 927 388 931.477 388 937 Z " fill="rgb(25,7,47)"/><path d=" M 378 945 C 382.42 945 386 941.418 386 937 C 386 932.582 382.42 929 378 929 C 373.582 929 370 932.582 370 937 C 370 941.418 373.582 945 378 945 Z  M 378 947 C 383.52 947 388 942.523 388 937 C 388 931.477 383.52 927 378 927 C 372.477 927 368 931.477 368 937 C 368 942.523 372.477 947 378 947 Z " fill-rule="evenodd" fill="rgb(77,96,114)"/><path d=" M 388 1040 C 388 1045.52 383.52 1050 378 1050 C 372.477 1050 368 1045.52 368 1040 C 368 1034.48 372.477 1030 378 1030 C 383.52 1030 388 1034.48 388 1040 Z " fill="rgb(25,7,47)"/><path d=" M 378 1048 C 382.42 1048 386 1044.42 386 1040 C 386 1035.58 382.42 1032 378 1032 C 373.582 1032 370 1035.58 370 1040 C 370 1044.42 373.582 1048 378 1048 Z  M 378 1050 C 383.52 1050 388 1045.52 388 1040 C 388 1034.48 383.52 1030 378 1030 C 372.477 1030 368 1034.48 368 1040 C 368 1045.52 372.477 1050 378 1050 Z " fill-rule="evenodd" fill="rgb(77,96,114)"/><path d=" M 388 1143 C 388 1148.52 383.52 1153 378 1153 C 372.477 1153 368 1148.52 368 1143 C 368 1137.48 372.477 1133 378 1133 C 383.52 1133 388 1137.48 388 1143 Z " fill="rgb(25,7,47)"/><path d=" M 378 1151 C 382.42 1151 386 1147.42 386 1143 C 386 1138.58 382.42 1135 378 1135 C 373.582 1135 370 1138.58 370 1143 C 370 1147.42 373.582 1151 378 1151 Z  M 378 1153 C 383.52 1153 388 1148.52 388 1143 C 388 1137.48 383.52 1133 378 1133 C 372.477 1133 368 1137.48 368 1143 C 368 1148.52 372.477 1153 378 1153 Z " fill-rule="evenodd" fill="rgb(77,96,114)"/><path d=" M 388 1246 C 388 1251.52 383.52 1256 378 1256 C 372.477 1256 368 1251.52 368 1246 C 368 1240.48 372.477 1236 378 1236 C 383.52 1236 388 1240.48 388 1246 Z " fill="rgb(25,7,47)"/><path d=" M 378 1254 C 382.42 1254 386 1250.42 386 1246 C 386 1241.58 382.42 1238 378 1238 C 373.582 1238 370 1241.58 370 1246 C 370 1250.42 373.582 1254 378 1254 Z  M 378 1256 C 383.52 1256 388 1251.52 388 1246 C 388 1240.48 383.52 1236 378 1236 C 372.477 1236 368 1240.48 368 1246 C 368 1251.52 372.477 1256 378 1256 Z " fill-rule="evenodd" fill="rgb(77,96,114)"/><path d=" M 388 1349 C 388 1354.52 383.52 1359 378 1359 C 372.477 1359 368 1354.52 368 1349 C 368 1343.48 372.477 1339 378 1339 C 383.52 1339 388 1343.48 388 1349 Z " fill="rgb(25,7,47)"/><path d=" M 378 1357 C 382.42 1357 386 1353.42 386 1349 C 386 1344.58 382.42 1341 378 1341 C 373.582 1341 370 1344.58 370 1349 C 370 1353.42 373.582 1357 378 1357 Z  M 378 1359 C 383.52 1359 388 1354.52 388 1349 C 388 1343.48 383.52 1339 378 1339 C 372.477 1339 368 1343.48 368 1349 C 368 1354.52 372.477 1359 378 1359 Z " fill-rule="evenodd" fill="rgb(77,96,114)"/><path d=" M 388 628 C 388 633.523 383.52 638 378 638 C 372.477 638 368 633.523 368 628 C 368 622.477 372.477 618 378 618 C 383.52 618 388 622.477 388 628 Z " fill="rgb(25,7,47)"/><path d=" M 378 636 C 382.42 636 386 632.418 386 628 C 386 623.582 382.42 620 378 620 C 373.582 620 370 623.582 370 628 C 370 632.418 373.582 636 378 636 Z  M 378 638 C 383.52 638 388 633.523 388 628 C 388 622.477 383.52 618 378 618 C 372.477 618 368 622.477 368 628 C 368 633.523 372.477 638 378 638 Z " fill-rule="evenodd" fill="rgb(77,96,114)"/><path d=" M 388 525 C 388 530.523 383.52 535 378 535 C 372.477 535 368 530.523 368 525 C 368 519.477 372.477 515 378 515 C 383.52 515 388 519.477 388 525 Z " fill="rgb(25,7,47)"/><path d=" M 378 533 C 382.42 533 386 529.418 386 525 C 386 520.582 382.42 517 378 517 C 373.582 517 370 520.582 370 525 C 370 529.418 373.582 533 378 533 Z  M 378 535 C 383.52 535 388 530.523 388 525 C 388 519.477 383.52 515 378 515 C 372.477 515 368 519.477 368 525 C 368 530.523 372.477 535 378 535 Z " fill-rule="evenodd" fill="rgb(77,96,114)"/><path d=" M 388 420 C 388 425.523 383.52 430 378 430 C 372.477 430 368 425.523 368 420 C 368 414.477 372.477 410 378 410 C 383.52 410 388 414.477 388 420 Z " fill="rgb(25,7,47)"/><path d=" M 378 428 C 382.42 428 386 424.418 386 420 C 386 415.582 382.42 412 378 412 C 373.582 412 370 415.582 370 420 C 370 424.418 373.582 428 378 428 Z  M 378 430 C 383.52 430 388 425.523 388 420 C 388 414.477 383.52 410 378 410 C 372.477 410 368 414.477 368 420 C 368 425.523 372.477 430 378 430 Z " fill-rule="evenodd" fill="rgb(77,96,114)"/><path d=" M 388 319 C 388 324.523 383.52 329 378 329 C 372.477 329 368 324.523 368 319 C 368 313.477 372.477 309 378 309 C 383.52 309 388 313.477 388 319 Z " fill="rgb(25,7,47)"/><path d=" M 378 327 C 382.42 327 386 323.418 386 319 C 386 314.582 382.42 311 378 311 C 373.582 311 370 314.582 370 319 C 370 323.418 373.582 327 378 327 Z  M 378 329 C 383.52 329 388 324.523 388 319 C 388 313.477 383.52 309 378 309 C 372.477 309 368 313.477 368 319 C 368 324.523 372.477 329 378 329 Z " fill-rule="evenodd" fill="rgb(77,96,114)"/><path d=" M 388 216 C 388 221.523 383.52 226 378 226 C 372.477 226 368 221.523 368 216 C 368 210.477 372.477 206 378 206 C 383.52 206 388 210.477 388 216 Z " fill="rgb(25,7,47)"/><path d=" M 378 224 C 382.42 224 386 220.418 386 216 C 386 211.582 382.42 208 378 208 C 373.582 208 370 211.582 370 216 C 370 220.418 373.582 224 378 224 Z  M 378 226 C 383.52 226 388 221.523 388 216 C 388 210.477 383.52 206 378 206 C 372.477 206 368 210.477 368 216 C 368 221.523 372.477 226 378 226 Z " fill-rule="evenodd" fill="rgb(77,96,114)"/><path d=" M 388 112 C 388 117.523 383.52 122 378 122 C 372.477 122 368 117.523 368 112 C 368 106.477 372.477 102 378 102 C 383.52 102 388 106.477 388 112 Z " fill="rgb(25,7,47)"/><path d=" M 378 120 C 382.42 120 386 116.418 386 112 C 386 107.582 382.42 104 378 104 C 373.582 104 370 107.582 370 112 C 370 116.418 373.582 120 378 120 Z  M 378 122 C 383.52 122 388 117.523 388 112 C 388 106.477 383.52 102 378 102 C 372.477 102 368 106.477 368 112 C 368 117.523 372.477 122 378 122 Z " fill-rule="evenodd" fill="rgb(77,96,114)"/><path d=" M 388 10 C 388 15.523 383.52 20 378 20 C 372.477 20 368 15.523 368 10 C 368 4.477 372.477 0 378 0 C 383.52 0 388 4.477 388 10 Z " fill="rgb(25,7,47)"/><path d=" M 378 18 C 382.42 18 386 14.418 386 10 C 386 5.582 382.42 2 378 2 C 373.582 2 370 5.582 370 10 C 370 14.418 373.582 18 378 18 Z  M 378 20 C 383.52 20 388 15.523 388 10 C 388 4.477 383.52 0 378 0 C 372.477 0 368 4.477 368 10 C 368 15.523 372.477 20 378 20 Z " fill-rule="evenodd" fill="rgb(77,96,114)"/></svg>