<svg width="1436" height="1369" viewBox="620 0 1436 1369" fill="none" xmlns="http://www.w3.org/2000/svg">
<path fill-rule="evenodd" clip-rule="evenodd" d="M745.51 16H743V14H745.51V16ZM755.55 16H750.53V14H755.55V16ZM765.59 16H760.57V14H765.59V16ZM775.63 16L770.61 16V14H775.63V16ZM785.67 16H780.65V14L785.67 14V16ZM795.71 16H790.69V14H795.71V16ZM805.75 16H800.73V14H805.75V16ZM815.79 16H810.77V14H815.79V16ZM825.83 16H820.81V14H825.83V16ZM835.87 16H830.85V14H835.87V16ZM845.91 16H840.89V14L845.91 14V16ZM855.95 16H850.93V14H855.95V16ZM865.99 16H860.97V14H865.99V16ZM876.03 16H871.01V14L876.03 14V16ZM886.07 16H881.05V14H886.07V16ZM896.11 16H891.09V14H896.11V16ZM906.15 16H901.13V14H906.15V16ZM916.19 16H911.17V14H916.19V16ZM926.23 16H921.21V14H926.23V16ZM936.27 16H931.25V14L936.27 14V16ZM946.31 16L941.29 16V14H946.31V16ZM956.35 16H951.33V14H956.35V16ZM966.39 16H961.37V14H966.39V16ZM976.43 16H971.41V14H976.43V16ZM986.47 16H981.45V14H986.47V16ZM994 16H991.49V14H994V16Z" fill="#4D6072"/>
<path fill-rule="evenodd" clip-rule="evenodd" d="M734.519 118H732V116H734.519V118ZM744.596 118H739.558V116H744.596V118ZM754.673 118H749.635V116H754.673V118ZM764.75 118H759.712V116H764.75V118ZM774.827 118H769.788V116H774.827V118ZM784.904 118H779.865V116H784.904V118ZM794.981 118H789.942V116H794.981V118ZM805.058 118H800.019V116H805.058V118ZM815.135 118H810.096V116H815.135V118ZM825.212 118H820.173V116H825.212V118ZM835.288 118H830.25V116H835.288V118ZM845.365 118H840.327V116H845.365V118ZM855.442 118H850.404V116H855.442V118ZM865.519 118H860.481V116H865.519V118ZM875.596 118H870.558V116H875.596V118ZM885.673 118H880.635V116H885.673V118ZM895.75 118H890.712V116H895.75V118ZM905.827 118H900.788V116H905.827V118ZM915.904 118H910.865V116H915.904V118ZM925.981 118H920.942V116H925.981V118ZM936.058 118H931.019V116H936.058V118ZM946.135 118H941.096V116H946.135V118ZM956.212 118H951.173V116H956.212V118ZM966.289 118H961.25V116H966.289V118ZM976.365 118H971.327V116H976.365V118ZM986.442 118H981.404V116H986.442V118ZM994 118H991.481V116H994V118Z" fill="#4D6072"/>
<path fill-rule="evenodd" clip-rule="evenodd" d="M655.5 222H653V220H655.5V222ZM665.5 222H660.5V220H665.5V222ZM675.5 222H670.5V220H675.5V222ZM685.5 222H680.5V220H685.5V222ZM695.5 222H690.5V220H695.5V222ZM705.5 222H700.5V220H705.5V222ZM715.5 222H710.5V220H715.5V222ZM725.5 222H720.5V220H725.5V222ZM735.5 222H730.5V220H735.5V222ZM745.5 222H740.5V220H745.5V222ZM755.5 222H750.5V220H755.5V222ZM765.5 222H760.5V220H765.5V222ZM775.5 222H770.5V220H775.5V222ZM785.5 222H780.5V220H785.5V222ZM795.5 222H790.5V220H795.5V222ZM805.5 222H800.5V220H805.5V222ZM815.5 222H810.5V220H815.5V222ZM825.5 222H820.5V220H825.5V222ZM835.5 222H830.5V220H835.5V222ZM845.5 222H840.5V220H845.5V222ZM855.5 222H850.5V220H855.5V222ZM865.5 222H860.5V220H865.5V222ZM875.5 222H870.5V220H875.5V222ZM885.5 222L880.5 222V220H885.5V222ZM895.5 222H890.5V220H895.5V222ZM905.5 222H900.5V220H905.5V222ZM915.5 222H910.5V220H915.5V222ZM925.5 222H920.5V220H925.5V222ZM935.5 222H930.5V220H935.5V222ZM945.5 222H940.5V220H945.5V222ZM955.5 222H950.5V220H955.5V222ZM965.5 222H960.5V220H965.5V222ZM975.5 222H970.5V220H975.5V222ZM985.5 222H980.5V220H985.5V222ZM993 222H990.5V220H993V222Z" fill="#4D6072"/>
<path fill-rule="evenodd" clip-rule="evenodd" d="M719.473 323L717 323L717 325L719.473 325L719.473 323ZM729.366 323L724.42 323L724.42 325L729.366 325L729.366 323ZM739.259 323L734.312 323L734.312 325L739.259 325L739.259 323ZM749.152 323L744.205 323L744.205 325L749.152 325L749.152 323ZM759.045 323L754.098 323L754.098 325L759.045 325L759.045 323ZM768.938 323L763.991 323L763.991 325L768.938 325L768.938 323ZM778.83 323L773.884 323L773.884 325L778.83 325L778.83 323ZM788.723 323L783.777 323L783.777 325L788.723 325L788.723 323ZM798.616 323L793.67 323L793.67 325L798.616 325L798.616 323ZM808.509 323L803.562 323L803.562 325L808.509 325L808.509 323ZM818.402 323L813.455 323L813.455 325L818.402 325L818.402 323ZM828.295 323L823.348 323L823.348 325L828.295 325L828.295 323ZM838.187 323L833.241 323L833.241 325L838.187 325L838.187 323ZM848.08 323L843.134 323L843.134 325L848.08 325L848.08 323ZM857.973 323L853.027 323L853.027 325L857.973 325L857.973 323ZM867.866 323L862.92 323L862.92 325L867.866 325L867.866 323ZM877.759 323L872.812 323L872.812 325L877.759 325L877.759 323ZM887.652 323L882.705 323L882.705 325L887.652 325L887.652 323ZM897.545 323L892.598 323L892.598 325L897.545 325L897.545 323ZM907.437 323L902.491 323L902.491 325L907.437 325L907.437 323ZM917.33 323L912.384 323L912.384 325L917.33 325L917.33 323ZM927.223 323L922.277 323L922.277 325L927.223 325L927.223 323ZM937.116 323L932.17 323L932.17 325L937.116 325L937.116 323ZM947.009 323L942.062 323L942.062 325L947.009 325L947.009 323ZM956.902 323L951.955 323L951.955 325L956.902 325L956.902 323ZM966.795 323L961.848 323L961.848 325L966.795 325L966.795 323ZM976.687 323L971.741 323L971.741 325L976.687 325L976.687 323ZM986.58 323L981.634 323L981.634 325L986.58 325L986.58 323ZM994 323L991.527 323L991.527 325L994 325L994 323Z" fill="#4D6072"/>
<path fill-rule="evenodd" clip-rule="evenodd" d="M793.525 428H791V426H793.525V428ZM803.625 428H798.575V426H803.625V428ZM813.725 428H808.675V426H813.725V428ZM823.825 428H818.775V426H823.825V428ZM833.925 428H828.875V426H833.925V428ZM844.025 428H838.975V426H844.025V428ZM854.125 428H849.075V426H854.125V428ZM864.225 428H859.175V426H864.225V428ZM874.325 428H869.275V426H874.325V428ZM884.425 428H879.375V426H884.425V428ZM894.525 428H889.475V426H894.525V428ZM904.625 428H899.575V426H904.625V428ZM914.725 428H909.675V426H914.725V428ZM924.825 428H919.775V426H924.825V428ZM934.925 428H929.875V426H934.925V428ZM945.025 428H939.975V426H945.025V428ZM955.125 428H950.075V426H955.125V428ZM965.225 428H960.175V426H965.225V428ZM975.325 428H970.275V426H975.325V428ZM985.425 428H980.375V426H985.425V428ZM993 428H990.475V426H993V428Z" fill="#4D6072"/>
<path fill-rule="evenodd" clip-rule="evenodd" d="M646.493 531H644V529H646.493V531ZM656.464 531H651.479V529H656.464V531ZM666.436 531H661.45V529H666.436V531ZM676.407 531H671.421V529H676.407V531ZM686.379 531H681.393V529H686.379V531ZM696.35 531H691.364V529H696.35V531ZM706.321 531H701.336V529H706.321V531ZM716.293 531H711.307V529H716.293V531ZM726.264 531H721.279V529H726.264V531ZM736.236 531H731.25V529H736.236V531ZM746.207 531H741.221V529H746.207V531ZM756.179 531H751.193V529H756.179V531ZM766.15 531H761.164V529H766.15V531ZM776.121 531H771.136V529H776.121V531ZM786.093 531H781.107V529H786.093V531ZM796.064 531H791.079V529H796.064V531ZM806.036 531H801.05V529H806.036V531ZM816.007 531H811.021V529H816.007V531ZM825.979 531H820.993V529H825.979V531ZM835.95 531H830.964V529H835.95V531ZM845.922 531H840.936V529H845.922V531ZM855.893 531H850.907V529H855.893V531ZM865.864 531H860.879V529H865.864V531ZM875.836 531H870.85V529H875.836V531ZM885.807 531H880.822V529H885.807V531ZM895.779 531H890.793V529H895.779V531ZM905.75 531H900.764V529H905.75V531ZM915.722 531H910.736V529H915.722V531ZM925.693 531H920.707V529H925.693V531ZM935.664 531H930.679V529H935.664V531ZM945.636 531H940.65V529H945.636V531ZM955.607 531H950.622V529H955.607V531ZM965.579 531H960.593V529H965.579V531ZM975.55 531H970.564V529H975.55V531ZM985.522 531H980.536V529H985.522V531ZM993 531H990.507V529H993V531Z" fill="#4D6072"/>
<path fill-rule="evenodd" clip-rule="evenodd" d="M709.466 634H707V632H709.466V634ZM719.328 634H714.397V632H719.328V634ZM729.19 634H724.259V632H729.19V634ZM739.052 634H734.121V632H739.052V634ZM748.914 634H743.983V632H748.914V634ZM758.776 634H753.845V632H758.776V634ZM768.638 634H763.707V632H768.638V634ZM778.5 634H773.569V632H778.5V634ZM788.362 634H783.431V632H788.362V634ZM798.224 634H793.293V632H798.224V634ZM808.086 634H803.155V632H808.086V634ZM817.948 634H813.017V632H817.948V634ZM827.81 634H822.879V632H827.81V634ZM837.672 634H832.741V632H837.672V634ZM847.535 634H842.603V632H847.535V634ZM857.397 634H852.466V632H857.397V634ZM867.259 634H862.328V632H867.259V634ZM877.121 634H872.19V632H877.121V634ZM886.983 634H882.052V632H886.983V634ZM896.845 634H891.914V632H896.845V634ZM906.707 634H901.776V632H906.707V634ZM916.569 634H911.638V632H916.569V634ZM926.431 634H921.5V632H926.431V634ZM936.293 634H931.362V632H936.293V634ZM946.155 634H941.224V632H946.155V634ZM956.017 634H951.086V632H956.017V634ZM965.879 634H960.948V632H965.879V634ZM975.741 634H970.81V632H975.741V634ZM985.603 634H980.672V632H985.603V634ZM993 634H990.534V632H993V634Z" fill="#4D6072"/>
<path fill-rule="evenodd" clip-rule="evenodd" d="M723.537 736H721V734H723.537V736ZM733.685 736H728.611V734H733.685V736ZM743.833 736H738.759V734H743.833V736ZM753.981 736H748.907V734H753.981V736ZM764.13 736H759.056V734H764.13V736ZM774.278 736H769.204V734H774.278V736ZM784.426 736H779.352V734H784.426V736ZM794.574 736H789.5V734H794.574V736ZM804.722 736H799.648V734H804.722V736ZM814.87 736H809.796V734H814.87V736ZM825.019 736H819.944V734H825.019V736ZM835.167 736H830.093V734H835.167V736ZM845.315 736H840.241V734H845.315V736ZM855.463 736H850.389V734H855.463V736ZM865.611 736H860.537V734H865.611V736ZM875.759 736H870.685V734H875.759V736ZM885.907 736H880.833V734H885.907V736ZM896.056 736H890.982V734H896.056V736ZM906.204 736H901.13V734H906.204V736ZM916.352 736H911.278V734H916.352V736ZM926.5 736H921.426V734H926.5V736ZM936.648 736H931.574V734H936.648V736ZM946.796 736H941.722V734H946.796V736ZM956.945 736H951.871V734H956.945V736ZM967.093 736H962.019V734H967.093V736ZM977.241 736H972.167V734H977.241V736ZM987.389 736H982.315V734H987.389V736ZM995 736H992.463V734H995V736Z" fill="#4D6072"/>
<path fill-rule="evenodd" clip-rule="evenodd" d="M642.529 840H640V838H642.529V840ZM652.643 840H647.586V838H652.643V840ZM662.757 840H657.7V838H662.757V840ZM672.871 840H667.814V838H672.871V840ZM682.986 840H677.929V838H682.986V840ZM693.1 840H688.043V838H693.1V840ZM703.214 840H698.157V838H703.214V840ZM713.329 840H708.271V838H713.329V840ZM723.443 840H718.386V838H723.443V840ZM733.557 840H728.5V838H733.557V840ZM743.671 840H738.614V838H743.671V840ZM753.786 840H748.729V838H753.786V840ZM763.9 840H758.843V838H763.9V840ZM774.014 840H768.957V838H774.014V840ZM784.129 840H779.071V838H784.129V840ZM794.243 840H789.186V838H794.243V840ZM804.357 840H799.3V838H804.357V840ZM814.471 840H809.414V838H814.471V840ZM824.586 840H819.529V838H824.586V840ZM834.7 840H829.643V838H834.7V840ZM844.814 840H839.757V838H844.814V840ZM854.929 840H849.871V838H854.929V840ZM865.043 840H859.986V838H865.043V840ZM875.157 840H870.1V838H875.157V840ZM885.271 840H880.214V838H885.271V840ZM895.386 840H890.329V838H895.386V840ZM905.5 840H900.443V838H905.5V840ZM915.614 840H910.557V838H915.614V840ZM925.729 840H920.671V838H925.729V840ZM935.843 840H930.786V838H935.843V840ZM945.957 840H940.9V838H945.957V840ZM956.071 840H951.014V838H956.071V840ZM966.186 840H961.128V838H966.186V840ZM976.3 840H971.243V838H976.3V840ZM986.414 840H981.357V838H986.414V840ZM994 840H991.471V838H994V840Z" fill="#4D6072"/>
<path fill-rule="evenodd" clip-rule="evenodd" d="M697.492 943H695V941H697.492V943ZM707.458 943H702.475V941H707.458V943ZM717.425 943H712.442V941H717.425V943ZM727.392 943H722.408V941H727.392V943ZM737.358 943H732.375V941H737.358V943ZM747.325 943H742.342V941H747.325V943ZM757.292 943H752.308V941H757.292V943ZM767.258 943H762.275V941H767.258V943ZM777.225 943H772.242V941H777.225V943ZM787.192 943H782.208V941H787.192V943ZM797.158 943H792.175V941H797.158V943ZM807.125 943H802.142V941H807.125V943ZM817.092 943H812.108V941H817.092V943ZM827.058 943H822.075V941H827.058V943ZM837.025 943H832.042V941H837.025V943ZM846.992 943H842.008V941H846.992V943ZM856.958 943H851.975V941H856.958V943ZM866.925 943H861.942V941H866.925V943ZM876.892 943H871.908V941H876.892V943ZM886.858 943H881.875V941H886.858V943ZM896.825 943H891.842V941H896.825V943ZM906.792 943H901.808V941H906.792V943ZM916.758 943H911.775V941H916.758V943ZM926.725 943H921.742V941H926.725V943ZM936.692 943H931.708V941H936.692V943ZM946.658 943H941.675V941H946.658V943ZM956.625 943H951.642V941H956.625V943ZM966.592 943H961.608V941H966.592V943ZM976.558 943H971.575V941H976.558V943ZM986.525 943H981.542V941H986.525V943ZM994 943H991.508V941H994V943Z" fill="#4D6072"/>
<path fill-rule="evenodd" clip-rule="evenodd" d="M642.521 1046H640V1044H642.521V1046ZM652.607 1046H647.564V1044H652.607V1046ZM662.693 1046H657.65V1044H662.693V1046ZM672.779 1046H667.736V1044H672.779V1046ZM682.864 1046H677.821V1044H682.864V1046ZM692.95 1046H687.907V1044H692.95V1046ZM703.036 1046H697.993V1044H703.036V1046ZM713.121 1046H708.079V1044H713.121V1046ZM723.207 1046H718.164V1044H723.207V1046ZM733.293 1046H728.25V1044H733.293V1046ZM743.379 1046H738.336V1044H743.379V1046ZM753.464 1046H748.421V1044H753.464V1046ZM763.55 1046H758.507V1044H763.55V1046ZM773.636 1046H768.593V1044H773.636V1046ZM783.721 1046H778.679V1044H783.721V1046ZM793.807 1046H788.764V1044H793.807V1046ZM803.893 1046H798.85V1044H803.893V1046ZM813.979 1046H808.936V1044H813.979V1046ZM824.064 1046H819.021V1044H824.064V1046ZM834.15 1046H829.107V1044H834.15V1046ZM844.236 1046H839.193V1044H844.236V1046ZM854.321 1046H849.279V1044H854.321V1046ZM864.407 1046H859.364V1044H864.407V1046ZM874.493 1046H869.45V1044H874.493V1046ZM884.579 1046H879.536V1044H884.579V1046ZM894.664 1046H889.622V1044H894.664V1046ZM904.75 1046H899.707V1044H904.75V1046ZM914.836 1046H909.793V1044H914.836V1046ZM924.921 1046H919.879V1044H924.921V1046ZM935.007 1046H929.964V1044H935.007V1046ZM945.093 1046H940.05V1044H945.093V1046ZM955.179 1046H950.136V1044H955.179V1046ZM965.264 1046H960.221V1044H965.264V1046ZM975.35 1046H970.307V1044H975.35V1046ZM985.436 1046H980.393V1044H985.436V1046ZM993 1046H990.478V1044H993V1046Z" fill="#4D6072"/>
<path fill-rule="evenodd" clip-rule="evenodd" d="M643.521 1149H641V1147H643.521V1149ZM653.607 1149H648.564V1147H653.607V1149ZM663.693 1149H658.65V1147H663.693V1149ZM673.779 1149H668.736V1147H673.779V1149ZM683.864 1149H678.821V1147H683.864V1149ZM693.95 1149H688.907V1147H693.95V1149ZM704.036 1149H698.993V1147H704.036V1149ZM714.121 1149H709.079V1147H714.121V1149ZM724.207 1149H719.164V1147H724.207V1149ZM734.293 1149H729.25V1147H734.293V1149ZM744.379 1149H739.336V1147H744.379V1149ZM754.464 1149H749.421V1147H754.464V1149ZM764.55 1149H759.507V1147H764.55V1149ZM774.636 1149H769.593V1147H774.636V1149ZM784.721 1149H779.679V1147H784.721V1149ZM794.807 1149H789.764V1147H794.807V1149ZM804.893 1149H799.85V1147H804.893V1149ZM814.979 1149H809.936V1147H814.979V1149ZM825.064 1149H820.021V1147H825.064V1149ZM835.15 1149H830.107V1147H835.15V1149ZM845.236 1149H840.193V1147H845.236V1149ZM855.322 1149H850.279V1147H855.322V1149ZM865.407 1149H860.364V1147H865.407V1149ZM875.493 1149H870.45V1147H875.493V1149ZM885.579 1149H880.536V1147H885.579V1149ZM895.664 1149H890.622V1147H895.664V1149ZM905.75 1149H900.707V1147H905.75V1149ZM915.836 1149H910.793V1147H915.836V1149ZM925.921 1149H920.879V1147H925.921V1149ZM936.007 1149H930.964V1147H936.007V1149ZM946.093 1149H941.05V1147H946.093V1149ZM956.179 1149H951.136V1147H956.179V1149ZM966.264 1149H961.221V1147H966.264V1149ZM976.35 1149H971.307V1147H976.35V1149ZM986.436 1149H981.393V1147H986.436V1149ZM994 1149H991.478V1147H994V1149Z" fill="#4D6072"/>
<path fill-rule="evenodd" clip-rule="evenodd" d="M719.473 1252L717 1252L717 1250L719.473 1250L719.473 1252ZM729.366 1252L724.42 1252L724.42 1250L729.366 1250L729.366 1252ZM739.259 1252L734.312 1252L734.313 1250L739.259 1250L739.259 1252ZM749.152 1252L744.205 1252L744.205 1250L749.152 1250L749.152 1252ZM759.045 1252L754.098 1252L754.098 1250L759.045 1250L759.045 1252ZM768.938 1252L763.991 1252L763.991 1250L768.938 1250L768.938 1252ZM778.83 1252L773.884 1252L773.884 1250L778.83 1250L778.83 1252ZM788.723 1252L783.777 1252L783.777 1250L788.723 1250L788.723 1252ZM798.616 1252L793.67 1252L793.67 1250L798.616 1250L798.616 1252ZM808.509 1252L803.562 1252L803.563 1250L808.509 1250L808.509 1252ZM818.402 1252L813.455 1252L813.455 1250L818.402 1250L818.402 1252ZM828.295 1252L823.348 1252L823.348 1250L828.295 1250L828.295 1252ZM838.187 1252L833.241 1252L833.241 1250L838.187 1250L838.187 1252ZM848.08 1252L843.134 1252L843.134 1250L848.08 1250L848.08 1252ZM857.973 1252L853.027 1252L853.027 1250L857.973 1250L857.973 1252ZM867.866 1252L862.92 1252L862.92 1250L867.866 1250L867.866 1252ZM877.759 1252L872.812 1252L872.812 1250L877.759 1250L877.759 1252ZM887.652 1252L882.705 1252L882.705 1250L887.652 1250L887.652 1252ZM897.545 1252L892.598 1252L892.598 1250L897.545 1250L897.545 1252ZM907.437 1252L902.491 1252L902.491 1250L907.437 1250L907.437 1252ZM917.33 1252L912.384 1252L912.384 1250L917.33 1250L917.33 1252ZM927.223 1252L922.277 1252L922.277 1250L927.223 1250L927.223 1252ZM937.116 1252L932.17 1252L932.17 1250L937.116 1250L937.116 1252ZM947.009 1252L942.062 1252L942.062 1250L947.009 1250L947.009 1252ZM956.902 1252L951.955 1252L951.955 1250L956.902 1250L956.902 1252ZM966.795 1252L961.848 1252L961.848 1250L966.795 1250L966.795 1252ZM976.687 1252L971.741 1252L971.741 1250L976.687 1250L976.687 1252ZM986.58 1252L981.634 1252L981.634 1250L986.58 1250L986.58 1252ZM994 1252L991.527 1252L991.527 1250L994 1250L994 1252Z" fill="#4D6072"/>
<path opacity="0.3" fill-rule="evenodd" clip-rule="evenodd" d="M719.464 1355L717 1355L717 1353L719.464 1353L719.464 1355ZM729.321 1355L724.393 1355L724.393 1353L729.321 1353L729.321 1355ZM739.179 1355L734.25 1355L734.25 1353L739.179 1353L739.179 1355ZM749.036 1355L744.107 1355L744.107 1353L749.036 1353L749.036 1355ZM758.893 1355L753.964 1355L753.964 1353L758.893 1353L758.893 1355ZM768.75 1355L763.821 1355L763.821 1353L768.75 1353L768.75 1355ZM778.607 1355L773.679 1355L773.679 1353L778.607 1353L778.607 1355ZM788.464 1355L783.536 1355L783.536 1353L788.464 1353L788.464 1355ZM798.321 1355L793.393 1355L793.393 1353L798.321 1353L798.321 1355ZM808.179 1355L803.25 1355L803.25 1353L808.179 1353L808.179 1355ZM818.036 1355L813.107 1355L813.107 1353L818.036 1353L818.036 1355ZM827.893 1355L822.964 1355L822.964 1353L827.893 1353L827.893 1355ZM837.75 1355L832.821 1355L832.821 1353L837.75 1353L837.75 1355ZM847.607 1355L842.679 1355L842.679 1353L847.607 1353L847.607 1355ZM857.464 1355L852.536 1355L852.536 1353L857.464 1353L857.464 1355ZM867.321 1355L862.393 1355L862.393 1353L867.321 1353L867.321 1355ZM877.179 1355L872.25 1355L872.25 1353L877.179 1353L877.179 1355ZM887.036 1355L882.107 1355L882.107 1353L887.036 1353L887.036 1355ZM896.893 1355L891.964 1355L891.964 1353L896.893 1353L896.893 1355ZM906.75 1355L901.821 1355L901.821 1353L906.75 1353L906.75 1355ZM916.607 1355L911.679 1355L911.679 1353L916.607 1353L916.607 1355ZM926.464 1355L921.536 1355L921.536 1353L926.464 1353L926.464 1355ZM936.321 1355L931.393 1355L931.393 1353L936.321 1353L936.321 1355ZM946.179 1355L941.25 1355L941.25 1353L946.179 1353L946.179 1355ZM956.036 1355L951.107 1355L951.107 1353L956.036 1353L956.036 1355ZM965.893 1355L960.964 1355L960.964 1353L965.893 1353L965.893 1355ZM975.75 1355L970.822 1355L970.822 1353L975.75 1353L975.75 1355ZM985.607 1355L980.679 1355L980.679 1353L985.607 1353L985.607 1355ZM993 1355L990.536 1355L990.536 1353L993 1353L993 1355Z" fill="white"/>
<g opacity="0.3">
<path d="M183.66 214.203C185.613 211.501 188.836 208.441 193.328 205.023C197.82 201.638 202.101 198.871 206.17 196.723C206.04 195.03 205.975 193.712 205.975 192.768C205.975 181.993 209.23 173.48 215.74 167.23C222.283 161.013 231.3 157.904 242.791 157.904C254.347 157.904 263.364 161.029 269.842 167.279C276.32 173.529 279.559 182.042 279.559 192.816C279.559 203.591 276.303 212.087 269.793 218.305C263.315 224.522 254.298 227.631 242.742 227.631C234.539 227.631 227.54 225.987 221.746 222.699C215.984 219.411 211.769 214.757 209.1 208.734C201.027 213.715 195.005 218.37 191.033 222.699L183.66 214.203ZM223.553 177.094C219.028 180.642 216.766 185.883 216.766 192.816C216.766 199.75 219.012 204.975 223.504 208.49C228.029 212.038 234.409 213.813 242.645 213.813C250.978 213.813 257.439 212.038 262.029 208.49C266.619 204.975 268.914 199.766 268.914 192.865C268.914 185.932 266.603 180.674 261.98 177.094C257.391 173.546 250.945 171.771 242.645 171.771C234.441 171.771 228.077 173.546 223.553 177.094Z" fill="white"/>
<path d="M207 236.615L217.547 236.322L243.133 258.93C246.128 261.729 248.878 263.764 251.385 265.033C253.924 266.335 256.593 266.986 259.393 266.986C262.485 266.986 264.943 265.977 266.766 263.959C268.621 261.941 269.549 259.288 269.549 256C269.549 252.973 268.979 249.978 267.84 247.016C266.733 244.086 265.333 241.677 263.641 239.789L273.309 236.127C277.605 241.01 279.754 247.878 279.754 256.732C279.754 263.764 277.98 269.411 274.432 273.676C270.916 277.973 265.936 280.121 259.49 280.121C254.933 280.121 250.587 278.9 246.453 276.459C242.319 274.05 238.071 270.746 233.709 266.547L216.619 250.434L216.619 279.291L207 278.412L207 236.615Z" fill="white"/>
</g>
<g opacity="0.3">
<path d="M183.66 627.617C185.613 624.915 188.836 621.855 193.328 618.438C197.82 615.052 202.101 612.285 206.17 610.137C206.04 608.444 205.975 607.126 205.975 606.182C205.975 595.407 209.23 586.895 215.74 580.645C222.283 574.427 231.3 571.318 242.791 571.318C254.347 571.318 263.364 574.443 269.842 580.693C276.32 586.943 279.559 595.456 279.559 606.23C279.559 617.005 276.303 625.501 269.793 631.719C263.315 637.936 254.298 641.045 242.742 641.045C234.539 641.045 227.54 639.401 221.746 636.113C215.984 632.826 211.769 628.171 209.1 622.148C201.027 627.129 195.005 631.784 191.033 636.113L183.66 627.617ZM223.553 590.508C219.028 594.056 216.766 599.297 216.766 606.23C216.766 613.164 219.012 618.389 223.504 621.904C228.029 625.452 234.409 627.227 242.645 627.227C250.978 627.227 257.439 625.452 262.029 621.904C266.619 618.389 268.914 613.18 268.914 606.279C268.914 599.346 266.603 594.089 261.98 590.508C257.391 586.96 250.945 585.186 242.645 585.186C234.441 585.186 228.077 586.96 223.553 590.508Z" fill="white"/>
<path d="M205.975 669.561C205.975 665.361 206.512 661.406 207.586 657.695C208.693 654.017 210.174 651.104 212.029 648.955L221.258 652.471C219.76 654.261 218.523 656.735 217.547 659.893C216.603 663.05 216.131 666.289 216.131 669.609C216.131 673.353 217.14 676.364 219.158 678.643C221.176 680.954 223.813 682.109 227.068 682.109C229.087 682.109 230.828 681.784 232.293 681.133C233.758 680.514 234.93 679.684 235.809 678.643C236.688 677.601 237.387 676.201 237.908 674.443C238.462 672.718 238.836 670.944 239.031 669.121C239.227 667.298 239.34 665.101 239.373 662.529C239.373 662.432 239.373 661.96 239.373 661.113C239.406 660.267 239.422 659.795 239.422 659.697L249.285 659.697L249.285 662.432C249.285 665.264 249.432 667.689 249.725 669.707C250.018 671.758 250.522 673.646 251.238 675.371C251.954 677.129 253.012 678.447 254.412 679.326C255.812 680.238 257.537 680.693 259.588 680.693C262.355 680.693 264.715 679.652 266.668 677.568C268.621 675.485 269.598 672.555 269.598 668.779C269.598 662.66 268.068 657.207 265.008 652.422L274.285 648.906C277.931 654.831 279.754 661.862 279.754 670C279.754 676.803 277.964 682.354 274.383 686.65C270.802 690.98 266.212 693.145 260.613 693.145C256.707 693.145 253.37 692.135 250.604 690.117C247.869 688.132 245.867 685.234 244.598 681.426C243.751 685.788 241.652 689.157 238.299 691.533C234.946 693.942 230.991 695.147 226.434 695.147C222.104 695.147 218.361 693.991 215.203 691.68C212.078 689.369 209.751 686.309 208.221 682.5C206.723 678.691 205.975 674.378 205.975 669.561Z" fill="white"/>
</g>
<g opacity="0.3">
<path d="M183.66 933.82C185.613 931.118 188.836 928.059 193.328 924.641C197.82 921.255 202.101 918.488 206.17 916.34C206.04 914.647 205.975 913.329 205.975 912.385C205.975 901.61 209.23 893.098 215.74 886.848C222.283 880.63 231.3 877.521 242.791 877.521C254.347 877.521 263.364 880.646 269.842 886.896C276.32 893.146 279.559 901.659 279.559 912.434C279.559 923.208 276.303 931.704 269.793 937.922C263.315 944.139 254.298 947.248 242.742 947.248C234.539 947.248 227.54 945.604 221.746 942.316C215.984 939.029 211.769 934.374 209.1 928.352C201.027 933.332 195.005 937.987 191.033 942.316L183.66 933.82ZM223.553 896.711C219.028 900.259 216.766 905.5 216.766 912.434C216.766 919.367 219.012 924.592 223.504 928.107C228.029 931.656 234.409 933.43 242.645 933.43C250.978 933.43 257.439 931.656 262.029 928.107C266.619 924.592 268.914 919.383 268.914 912.482C268.914 905.549 266.603 900.292 261.98 896.711C257.391 893.163 250.945 891.389 242.645 891.389C234.441 891.389 228.077 893.163 223.553 896.711Z" fill="white"/>
<path d="M207 988.85L222.869 988.85L222.869 956.574L231.561 956.574L278.191 985.529L278.191 1001.79L232.537 1001.79L232.537 1010.58L222.869 1009.94L222.869 1001.79L207 1001.79L207 988.85ZM232.488 969.27L232.488 988.85L265.691 988.85L232.488 969.27Z" fill="white"/>
</g>
<g opacity="0.3">
<path d="M183.66 1206.69C185.613 1203.99 188.836 1200.93 193.328 1197.51C197.82 1194.12 202.101 1191.36 206.17 1189.21C206.04 1187.51 205.975 1186.2 205.975 1185.25C205.975 1174.48 209.23 1165.96 215.74 1159.71C222.283 1153.5 231.3 1150.39 242.791 1150.39C254.347 1150.39 263.364 1153.51 269.842 1159.76C276.32 1166.01 279.559 1174.53 279.559 1185.3C279.559 1196.08 276.303 1204.57 269.793 1210.79C263.315 1217.01 254.298 1220.12 242.742 1220.12C234.539 1220.12 227.54 1218.47 221.746 1215.18C215.984 1211.9 211.769 1207.24 209.1 1201.22C201.027 1206.2 195.005 1210.85 191.033 1215.18L183.66 1206.69ZM223.553 1169.58C219.028 1173.13 216.766 1178.37 216.766 1185.3C216.766 1192.23 219.012 1197.46 223.504 1200.97C228.029 1204.52 234.409 1206.3 242.645 1206.3C250.978 1206.3 257.439 1204.52 262.029 1200.97C266.619 1197.46 268.914 1192.25 268.914 1185.35C268.914 1178.42 266.603 1173.16 261.98 1169.58C257.391 1166.03 250.945 1164.26 242.645 1164.26C234.441 1164.26 228.077 1166.03 223.553 1169.58Z" fill="white"/>
<path d="M207.049 1239.74L266.57 1239.74C266.277 1239.29 265.333 1237.17 263.738 1233.4C262.176 1229.65 261.329 1227.54 261.199 1227.05L270.965 1227.05C271.323 1227.83 272.544 1230.3 274.627 1234.47C276.743 1238.64 277.947 1240.93 278.24 1241.36L278.24 1252.1L207.049 1252.1L207.049 1239.74Z" fill="white"/>
</g>
<path fill-rule="evenodd" clip-rule="evenodd" d="M719 348C717.619 348 716.5 349.119 716.5 350.5L716.5 379.367C716.5 394.002 728.365 405.867 743 405.867L773 405.867C777.287 405.867 781.28 407.121 784.633 409.283C787.372 411.048 786.507 414.94 784.431 417.451C782.288 420.045 781 423.372 781 427C781 433.201 784.763 438.523 790.129 440.808C792.494 441.814 794.5 443.884 794.5 446.454L794.5 555.128C794.5 567.002 784.874 576.628 773 576.628L743 576.628C728.364 576.628 716.5 588.493 716.5 603.128L716.5 630C716.5 631.381 717.619 632.5 719 632.5V632.5C720.381 632.5 721.5 631.381 721.5 630L721.5 603.128C721.5 591.254 731.126 581.628 743 581.628L773 581.628C787.636 581.628 799.5 569.764 799.5 555.128L799.5 445.535C799.5 443.222 801.141 441.285 803.172 440.177C807.836 437.634 811 432.686 811 427C811 418.716 804.284 412 796 412V412C795.154 412 794.341 411.631 793.817 410.967C788.965 404.816 781.443 400.867 773 400.867L743 400.867C731.126 400.867 721.5 391.241 721.5 379.367L721.5 350.5C721.5 349.119 720.381 348 719 348V348Z" fill="#FFAB2E"/>
<path fill-rule="evenodd" clip-rule="evenodd" d="M634.129 234.808C636.494 235.814 638.5 237.884 638.5 240.454L638.5 247.628C638.5 262.264 650.364 274.128 665 274.128L695 274.128C706.874 274.128 716.5 283.754 716.5 295.628L716.5 322.5C716.5 323.881 717.619 325 719 325V325C720.381 325 721.5 323.881 721.5 322.5L721.5 295.628C721.5 280.993 709.636 269.128 695 269.128L665 269.128C653.126 269.128 643.5 259.502 643.5 247.628L643.5 239.535C643.5 237.222 645.141 235.285 647.173 234.177C651.836 231.634 655 226.686 655 221C655 215.314 651.836 210.366 647.173 207.823C645.141 206.715 643.5 204.778 643.5 202.465L643.5 196.367C643.5 184.493 653.126 174.867 665 174.867L695 174.867C709.636 174.867 721.5 163.002 721.5 148.367L721.5 119.5C721.5 118.119 720.381 117 719 117V117C717.619 117 716.5 118.119 716.5 119.5L716.5 148.367C716.5 160.241 706.874 169.867 695 169.867L665 169.867C650.364 169.867 638.5 181.731 638.5 196.367L638.5 201.546C638.5 204.116 636.494 206.186 634.129 207.192C628.763 209.477 625 214.799 625 221C625 227.201 628.763 232.523 634.129 234.808ZM721.5 968.367L721.5 937.5L721.5 908.128C721.5 893.493 709.636 881.628 695 881.628L665 881.628C653.126 881.628 643.5 872.002 643.5 860.128L643.5 857.535C643.5 855.222 645.141 853.285 647.172 852.177C651.836 849.633 655 844.686 655 839C655 833.314 651.836 828.367 647.172 825.823C645.141 824.715 643.5 822.778 643.5 820.465L643.5 814.367C643.5 802.493 653.126 792.867 665 792.867L695 792.867C709.636 792.867 721.5 781.003 721.5 766.367L721.5 737.5C721.5 736.119 720.381 735 719 735V735C717.619 735 716.5 736.119 716.5 737.5L716.5 766.367C716.5 778.241 706.874 787.867 695 787.867L665 787.867C650.364 787.867 638.5 799.731 638.5 814.367L638.5 819.546C638.5 822.116 636.494 824.186 634.129 825.192C628.763 827.477 625 832.799 625 839C625 845.201 628.763 850.523 634.129 852.808C636.494 853.814 638.5 855.884 638.5 858.454L638.5 860.128C638.5 874.764 650.364 886.628 665 886.628L695 886.628C706.874 886.628 716.5 896.254 716.5 908.128L716.5 937L716.5 968.367C716.5 980.241 706.874 989.867 695 989.867L665 989.867C650.364 989.867 638.5 1001.73 638.5 1016.37L638.5 1025.55C638.5 1028.12 636.494 1030.19 634.129 1031.19C628.763 1033.48 625 1038.8 625 1045C625 1051.2 628.763 1056.52 634.129 1058.81C636.494 1059.81 638.5 1061.88 638.5 1064.45L638.5 1128.55C638.5 1131.12 636.494 1133.19 634.129 1134.19C628.763 1136.48 625 1141.8 625 1148C625 1154.2 628.763 1159.52 634.129 1161.81C636.494 1162.81 638.5 1164.88 638.5 1167.45L638.5 1177C638.5 1191.64 650.364 1203.5 665 1203.5L695 1203.5C706.874 1203.5 716.5 1213.13 716.5 1225L716.5 1251.87C716.5 1253.25 717.619 1254.37 719 1254.37V1254.37C720.381 1254.37 721.5 1253.25 721.5 1251.87L721.5 1225C721.5 1210.36 709.635 1198.5 695 1198.5L665 1198.5C653.126 1198.5 643.5 1188.87 643.5 1177L643.5 1166.54C643.5 1164.22 645.141 1162.29 647.172 1161.18C651.836 1158.63 655 1153.69 655 1148C655 1142.31 651.836 1137.37 647.172 1134.82C645.141 1133.71 643.5 1131.78 643.5 1129.46L643.5 1063.54C643.5 1061.22 645.141 1059.29 647.172 1058.18C651.836 1055.63 655 1050.69 655 1045C655 1039.31 651.836 1034.37 647.172 1031.82C645.141 1030.71 643.5 1028.78 643.5 1026.46L643.5 1016.37C643.5 1004.49 653.126 994.867 665 994.867L695 994.867C709.635 994.867 721.5 983.003 721.5 968.367ZM721.5 376.367L721.5 347.5C721.5 346.119 720.381 345 719 345V345C717.619 345 716.5 346.119 716.5 347.5L716.5 376.367C716.5 388.241 706.874 397.867 695 397.867L665 397.867C650.364 397.867 638.5 409.731 638.5 424.367L638.5 510.546C638.5 513.116 636.494 515.186 634.129 516.192C628.763 518.477 625 523.799 625 530C625 536.201 628.763 541.523 634.129 543.808C636.494 544.814 638.5 546.884 638.5 549.454L638.5 556.628C638.5 571.264 650.364 583.128 665 583.128L695 583.128C706.874 583.128 716.5 592.754 716.5 604.628L716.5 631.5C716.5 632.881 717.619 634 719 634V634C720.381 634 721.5 632.881 721.5 631.5L721.5 604.628C721.5 589.993 709.636 578.128 695 578.128L665 578.128C653.126 578.128 643.5 568.502 643.5 556.628L643.5 548.535C643.5 546.222 645.141 544.285 647.172 543.177C651.836 540.634 655 535.686 655 530C655 524.314 651.836 519.366 647.172 516.823C645.141 515.715 643.5 513.778 643.5 511.465L643.5 424.367C643.5 412.493 653.126 402.867 665 402.867L695 402.867C709.636 402.867 721.5 391.002 721.5 376.367Z" fill="#66CE67"/>
<path fill-rule="evenodd" clip-rule="evenodd" d="M721.5 36.6918C721.5 32.5272 724.605 29.0991 727.765 26.3865C730.97 23.6355 733 19.5548 733 15C733 6.71573 726.284 1.01779e-06 718 6.55671e-07C709.716 2.93554e-07 703 6.71573 703 15C703 19.9073 705.357 24.2642 709 27.0008C712.699 29.7793 716.5 33.4504 716.5 38.0766L716.5 94.9234C716.5 99.5496 712.699 103.221 709 105.999C705.357 108.736 703 113.093 703 118C703 122.907 705.357 127.264 709 130.001C712.699 132.779 716.5 136.45 716.5 141.077L716.5 300.923C716.5 305.55 712.699 309.221 709 311.999C705.356 314.736 703 319.093 703 324C703 328.907 705.356 333.264 709 336.001C712.699 338.779 716.5 342.45 716.5 347.077L716.5 609.923C716.5 614.55 712.698 618.221 709 620.999C705.356 623.736 703 628.093 703 633C703 637.907 705.356 642.264 709 645.001C712.698 647.779 716.5 651.45 716.5 656.077L716.5 712.923C716.5 717.55 712.698 721.221 709 723.999C705.356 726.736 703 731.093 703 736C703 740.907 705.356 745.264 709 748.001C712.698 750.779 716.5 754.45 716.5 759.077L716.5 918.923C716.5 923.55 712.698 927.221 709 929.999C705.356 932.736 703 937.093 703 942C703 946.907 705.356 951.264 709 954.001C712.698 956.779 716.5 960.45 716.5 965.077L716.5 1227.92C716.5 1232.55 712.698 1236.22 709 1239C705.356 1241.74 703 1246.09 703 1251C703 1255.91 705.356 1260.26 709 1263C712.698 1265.78 716.5 1269.45 716.5 1274.08L716.5 1330.92C716.5 1335.55 712.698 1339.22 709 1342C705.356 1344.74 703 1349.09 703 1354C703 1362.28 709.716 1369 718 1369C726.284 1369 733 1362.28 733 1354C733 1349.45 730.97 1345.36 727.765 1342.61C724.605 1339.9 721.5 1336.47 721.5 1332.31L721.5 1272.69C721.5 1268.53 724.605 1265.1 727.765 1262.39C730.97 1259.64 733 1255.55 733 1251C733 1246.45 730.97 1242.36 727.765 1239.61C724.605 1236.9 721.5 1233.47 721.5 1229.31L721.5 963.692C721.5 959.527 724.605 956.099 727.765 953.386C730.97 950.635 733 946.555 733 942C733 937.445 730.97 933.365 727.765 930.614C724.605 927.901 721.5 924.473 721.5 920.308L721.5 757.692C721.5 753.527 724.605 750.099 727.765 747.386C730.97 744.635 733 740.555 733 736C733 731.445 730.97 727.365 727.765 724.614C724.605 721.901 721.5 718.473 721.5 714.308L721.5 654.692C721.5 650.527 724.605 647.099 727.765 644.386C730.97 641.635 733 637.555 733 633C733 628.445 730.97 624.365 727.765 621.614C724.605 618.901 721.5 615.473 721.5 611.308L721.5 345.692C721.5 341.527 724.605 338.099 727.765 335.386C730.97 332.635 733 328.555 733 324C733 319.445 730.97 315.365 727.765 312.614C724.605 309.901 721.5 306.473 721.5 302.308L721.5 139.692C721.5 135.527 724.605 132.099 727.765 129.386C730.97 126.635 733 122.555 733 118C733 113.445 730.97 109.365 727.765 106.614C724.605 103.901 721.5 100.473 721.5 96.3082L721.5 36.6918Z" fill="#883BE6"/>
<path d="M1013 735C1013 740.523 1008.52 745 1003 745C997.477 745 993 740.523 993 735C993 729.477 997.477 725 1003 725C1008.52 725 1013 729.477 1013 735Z" fill="#19072F"/>
<path fill-rule="evenodd" clip-rule="evenodd" d="M1003 743C1007.42 743 1011 739.418 1011 735C1011 730.582 1007.42 727 1003 727C998.582 727 995 730.582 995 735C995 739.418 998.582 743 1003 743ZM1003 745C1008.52 745 1013 740.523 1013 735C1013 729.477 1008.52 725 1003 725C997.477 725 993 729.477 993 735C993 740.523 997.477 745 1003 745Z" fill="#4D6072"/>
<path d="M1013 839C1013 844.523 1008.52 849 1003 849C997.477 849 993 844.523 993 839C993 833.477 997.477 829 1003 829C1008.52 829 1013 833.477 1013 839Z" fill="#19072F"/>
<path fill-rule="evenodd" clip-rule="evenodd" d="M1003 847C1007.42 847 1011 843.418 1011 839C1011 834.582 1007.42 831 1003 831C998.582 831 995 834.582 995 839C995 843.418 998.582 847 1003 847ZM1003 849C1008.52 849 1013 844.523 1013 839C1013 833.477 1008.52 829 1003 829C997.477 829 993 833.477 993 839C993 844.523 997.477 849 1003 849Z" fill="#4D6072"/>
<path d="M1013 942C1013 947.523 1008.52 952 1003 952C997.477 952 993 947.523 993 942C993 936.477 997.477 932 1003 932C1008.52 932 1013 936.477 1013 942Z" fill="#19072F"/>
<path fill-rule="evenodd" clip-rule="evenodd" d="M1003 950C1007.42 950 1011 946.418 1011 942C1011 937.582 1007.42 934 1003 934C998.582 934 995 937.582 995 942C995 946.418 998.582 950 1003 950ZM1003 952C1008.52 952 1013 947.523 1013 942C1013 936.477 1008.52 932 1003 932C997.477 932 993 936.477 993 942C993 947.523 997.477 952 1003 952Z" fill="#4D6072"/>
<path d="M1013 1045C1013 1050.52 1008.52 1055 1003 1055C997.477 1055 993 1050.52 993 1045C993 1039.48 997.477 1035 1003 1035C1008.52 1035 1013 1039.48 1013 1045Z" fill="#19072F"/>
<path fill-rule="evenodd" clip-rule="evenodd" d="M1003 1053C1007.42 1053 1011 1049.42 1011 1045C1011 1040.58 1007.42 1037 1003 1037C998.582 1037 995 1040.58 995 1045C995 1049.42 998.582 1053 1003 1053ZM1003 1055C1008.52 1055 1013 1050.52 1013 1045C1013 1039.48 1008.52 1035 1003 1035C997.477 1035 993 1039.48 993 1045C993 1050.52 997.477 1055 1003 1055Z" fill="#4D6072"/>
<path d="M1013 1148C1013 1153.52 1008.52 1158 1003 1158C997.477 1158 993 1153.52 993 1148C993 1142.48 997.477 1138 1003 1138C1008.52 1138 1013 1142.48 1013 1148Z" fill="#19072F"/>
<path fill-rule="evenodd" clip-rule="evenodd" d="M1003 1156C1007.42 1156 1011 1152.42 1011 1148C1011 1143.58 1007.42 1140 1003 1140C998.582 1140 995 1143.58 995 1148C995 1152.42 998.582 1156 1003 1156ZM1003 1158C1008.52 1158 1013 1153.52 1013 1148C1013 1142.48 1008.52 1138 1003 1138C997.477 1138 993 1142.48 993 1148C993 1153.52 997.477 1158 1003 1158Z" fill="#4D6072"/>
<path d="M1013 1251C1013 1256.52 1008.52 1261 1003 1261C997.477 1261 993 1256.52 993 1251C993 1245.48 997.477 1241 1003 1241C1008.52 1241 1013 1245.48 1013 1251Z" fill="#19072F"/>
<path fill-rule="evenodd" clip-rule="evenodd" d="M1003 1259C1007.42 1259 1011 1255.42 1011 1251C1011 1246.58 1007.42 1243 1003 1243C998.582 1243 995 1246.58 995 1251C995 1255.42 998.582 1259 1003 1259ZM1003 1261C1008.52 1261 1013 1256.52 1013 1251C1013 1245.48 1008.52 1241 1003 1241C997.477 1241 993 1245.48 993 1251C993 1256.52 997.477 1261 1003 1261Z" fill="#4D6072"/>
<path d="M1013 1354C1013 1359.52 1008.52 1364 1003 1364C997.477 1364 993 1359.52 993 1354C993 1348.48 997.477 1344 1003 1344C1008.52 1344 1013 1348.48 1013 1354Z" fill="#19072F"/>
<path fill-rule="evenodd" clip-rule="evenodd" d="M1003 1362C1007.42 1362 1011 1358.42 1011 1354C1011 1349.58 1007.42 1346 1003 1346C998.582 1346 995 1349.58 995 1354C995 1358.42 998.582 1362 1003 1362ZM1003 1364C1008.52 1364 1013 1359.52 1013 1354C1013 1348.48 1008.52 1344 1003 1344C997.477 1344 993 1348.48 993 1354C993 1359.52 997.477 1364 1003 1364Z" fill="#4D6072"/>
<path d="M1013 633C1013 638.523 1008.52 643 1003 643C997.477 643 993 638.523 993 633C993 627.477 997.477 623 1003 623C1008.52 623 1013 627.477 1013 633Z" fill="#19072F"/>
<path fill-rule="evenodd" clip-rule="evenodd" d="M1003 641C1007.42 641 1011 637.418 1011 633C1011 628.582 1007.42 625 1003 625C998.582 625 995 628.582 995 633C995 637.418 998.582 641 1003 641ZM1003 643C1008.52 643 1013 638.523 1013 633C1013 627.477 1008.52 623 1003 623C997.477 623 993 627.477 993 633C993 638.523 997.477 643 1003 643Z" fill="#4D6072"/>
<path d="M1013 530C1013 535.523 1008.52 540 1003 540C997.477 540 993 535.523 993 530C993 524.477 997.477 520 1003 520C1008.52 520 1013 524.477 1013 530Z" fill="#19072F"/>
<path fill-rule="evenodd" clip-rule="evenodd" d="M1003 538C1007.42 538 1011 534.418 1011 530C1011 525.582 1007.42 522 1003 522C998.582 522 995 525.582 995 530C995 534.418 998.582 538 1003 538ZM1003 540C1008.52 540 1013 535.523 1013 530C1013 524.477 1008.52 520 1003 520C997.477 520 993 524.477 993 530C993 535.523 997.477 540 1003 540Z" fill="#4D6072"/>
<path d="M1013 425C1013 430.523 1008.52 435 1003 435C997.477 435 993 430.523 993 425C993 419.477 997.477 415 1003 415C1008.52 415 1013 419.477 1013 425Z" fill="#19072F"/>
<path fill-rule="evenodd" clip-rule="evenodd" d="M1003 433C1007.42 433 1011 429.418 1011 425C1011 420.582 1007.42 417 1003 417C998.582 417 995 420.582 995 425C995 429.418 998.582 433 1003 433ZM1003 435C1008.52 435 1013 430.523 1013 425C1013 419.477 1008.52 415 1003 415C997.477 415 993 419.477 993 425C993 430.523 997.477 435 1003 435Z" fill="#4D6072"/>
<path d="M1013 324C1013 329.523 1008.52 334 1003 334C997.477 334 993 329.523 993 324C993 318.477 997.477 314 1003 314C1008.52 314 1013 318.477 1013 324Z" fill="#19072F"/>
<path fill-rule="evenodd" clip-rule="evenodd" d="M1003 332C1007.42 332 1011 328.418 1011 324C1011 319.582 1007.42 316 1003 316C998.582 316 995 319.582 995 324C995 328.418 998.582 332 1003 332ZM1003 334C1008.52 334 1013 329.523 1013 324C1013 318.477 1008.52 314 1003 314C997.477 314 993 318.477 993 324C993 329.523 997.477 334 1003 334Z" fill="#4D6072"/>
<path d="M1013 221C1013 226.523 1008.52 231 1003 231C997.477 231 993 226.523 993 221C993 215.477 997.477 211 1003 211C1008.52 211 1013 215.477 1013 221Z" fill="#19072F"/>
<path fill-rule="evenodd" clip-rule="evenodd" d="M1003 229C1007.42 229 1011 225.418 1011 221C1011 216.582 1007.42 213 1003 213C998.582 213 995 216.582 995 221C995 225.418 998.582 229 1003 229ZM1003 231C1008.52 231 1013 226.523 1013 221C1013 215.477 1008.52 211 1003 211C997.477 211 993 215.477 993 221C993 226.523 997.477 231 1003 231Z" fill="#4D6072"/>
<path d="M1013 117C1013 122.523 1008.52 127 1003 127C997.477 127 993 122.523 993 117C993 111.477 997.477 107 1003 107C1008.52 107 1013 111.477 1013 117Z" fill="#19072F"/>
<path fill-rule="evenodd" clip-rule="evenodd" d="M1003 125C1007.42 125 1011 121.418 1011 117C1011 112.582 1007.42 109 1003 109C998.582 109 995 112.582 995 117C995 121.418 998.582 125 1003 125ZM1003 127C1008.52 127 1013 122.523 1013 117C1013 111.477 1008.52 107 1003 107C997.477 107 993 111.477 993 117C993 122.523 997.477 127 1003 127Z" fill="#4D6072"/>
<path d="M1013 15C1013 20.5228 1008.52 25 1003 25C997.477 25 993 20.5228 993 15C993 9.47715 997.477 5 1003 5C1008.52 5 1013 9.47715 1013 15Z" fill="#19072F"/>
<path fill-rule="evenodd" clip-rule="evenodd" d="M1003 23C1007.42 23 1011 19.4183 1011 15C1011 10.5817 1007.42 7 1003 7C998.582 7 995 10.5817 995 15C995 19.4183 998.582 23 1003 23ZM1003 25C1008.52 25 1013 20.5228 1013 15C1013 9.47715 1008.52 5 1003 5C997.477 5 993 9.47715 993 15C993 20.5228 997.477 25 1003 25Z" fill="#4D6072"/>
<defs>
<linearGradient id="paint0_linear" x1="-1.09004e-05" y1="943.488" x2="1436" y2="943.488" gradientUnits="userSpaceOnUse">
<stop stop-color="#B5C7F8"/>
<stop offset="1" stop-color="#B3C5F4" stop-opacity="0"/>
</linearGradient>
<linearGradient id="paint1_linear" x1="37" y1="219.502" x2="1399" y2="219.502" gradientUnits="userSpaceOnUse">
<stop stop-color="#B5C7F8"/>
<stop offset="1" stop-color="#B3C5F4" stop-opacity="0"/>
</linearGradient>
<linearGradient id="paint2_linear" x1="51" y1="633.498" x2="1385" y2="633.498" gradientUnits="userSpaceOnUse">
<stop stop-color="#F8C5B5"/>
<stop offset="1" stop-color="#B3C5F4" stop-opacity="0"/>
</linearGradient>
<linearGradient id="paint3_linear" x1="51" y1="1202.75" x2="1385" y2="1202.75" gradientUnits="userSpaceOnUse">
<stop stop-color="#F8C5B5"/>
<stop offset="1" stop-color="#B3C5F4" stop-opacity="0"/>
</linearGradient>
</defs>
</svg>
