<svg width="115" height="102" viewBox="0 0 115 102" fill="none" xmlns="http://www.w3.org/2000/svg">
<path opacity="0.6" d="M6.78161 1.10806L113.579 99.1957C113.718 99.3295 113.83 99.4903 113.906 99.6683C113.982 99.8462 114.021 100.038 114.021 100.231C114.021 100.425 113.982 100.616 113.906 100.794C113.83 100.972 113.718 101.133 113.579 101.267C113.452 101.412 113.298 101.531 113.125 101.617C112.952 101.702 112.763 101.753 112.571 101.765C112.378 101.777 112.185 101.752 112.003 101.689C111.82 101.626 111.652 101.528 111.508 101.4L1.39131 7.05595C0.990772 6.71273 0.662369 6.29337 0.425221 5.82221C0.188073 5.35105 0.0468948 4.83746 0.00984033 4.31129C-0.0272142 3.78512 0.0406123 3.25684 0.209387 2.7571C0.378161 2.25735 0.644505 1.79607 0.992986 1.4001C1.34496 0.986925 1.77766 0.65005 2.26453 0.41015C2.75141 0.17025 3.28219 0.0324133 3.82427 0.00506063C4.36635 -0.0222921 4.90829 0.0614484 5.41684 0.25112C5.92539 0.440793 6.38984 0.732407 6.78161 1.10806Z" fill="url(#paint0_linear_3169_6497)"/>
<defs>
<linearGradient id="paint0_linear_3169_6497" x1="113.729" y1="101.013" x2="1.19966" y2="1.07045" gradientUnits="userSpaceOnUse">
<stop offset="0.01" stop-color="#FEA7AF"/>
<stop offset="0.99" stop-color="#EA47AC" stop-opacity="0"/>
</linearGradient>
</defs>
</svg>
