<svg width="140" height="125" viewBox="0 0 140 125" fill="none" xmlns="http://www.w3.org/2000/svg">
<g opacity="0.22">
<path d="M8.25313 1.36115L138.618 121.069C138.949 121.407 139.134 121.862 139.134 122.336C139.134 122.809 138.949 123.264 138.618 123.603C138.464 123.782 138.275 123.929 138.064 124.035C137.853 124.14 137.622 124.203 137.387 124.219C137.151 124.235 136.914 124.204 136.69 124.128C136.467 124.052 136.26 123.932 136.083 123.776L1.68593 8.56202C1.19817 8.14074 0.798929 7.62679 0.511369 7.04999C0.223808 6.47318 0.053654 5.84501 0.0107818 5.20193C-0.0320904 4.55885 0.0531702 3.91364 0.261619 3.30377C0.470068 2.69389 0.797551 2.13149 1.22507 1.64918C1.65967 1.15608 2.18964 0.756123 2.783 0.473388C3.37637 0.190653 4.02085 0.0309983 4.67758 0.00408303C5.33432 -0.0228323 5.9897 0.083538 6.60422 0.31677C7.21873 0.550002 7.77964 0.905267 8.25313 1.36115Z" fill="url(#paint0_linear_3169_6494)"/>
<path style="mix-blend-mode:screen" d="M56.9599 47.1594L136.861 120.522C137.062 120.731 137.174 121.01 137.174 121.3C137.174 121.589 137.062 121.868 136.861 122.077C136.652 122.278 136.373 122.39 136.083 122.39C135.793 122.39 135.515 122.278 135.305 122.077L52.9274 51.5087C52.6158 51.2595 52.3594 50.9482 52.1745 50.5947C51.9895 50.2411 51.88 49.853 51.8529 49.4549C51.8259 49.0569 51.8818 48.6575 52.0172 48.2822C52.1525 47.9068 52.3644 47.5637 52.6394 47.2746C52.9014 46.9607 53.2272 46.7063 53.5952 46.5281C53.9632 46.35 54.3649 46.2522 54.7736 46.2413C55.1823 46.2304 55.5886 46.3066 55.9656 46.4649C56.3426 46.6232 56.6815 46.86 56.9599 47.1594Z" fill="url(#paint1_linear_3169_6494)"/>
</g>
<defs>
<linearGradient id="paint0_linear_3169_6494" x1="138.745" y1="123.389" x2="1.41077" y2="1.41477" gradientUnits="userSpaceOnUse">
<stop offset="0.01" stop-color="#FEA7AF"/>
<stop offset="0.99" stop-color="#EA47AC" stop-opacity="0"/>
</linearGradient>
<linearGradient id="paint1_linear_3169_6494" x1="136.979" y1="121.821" x2="52.817" y2="47.0719" gradientUnits="userSpaceOnUse">
<stop offset="0.01" stop-color="#FEA7AF"/>
<stop offset="0.99" stop-color="#EA47AC" stop-opacity="0"/>
</linearGradient>
</defs>
</svg>
