<svg width="134" height="93" viewBox="0 0 134 93" fill="none" xmlns="http://www.w3.org/2000/svg">
<g opacity="0.35">
<path d="M36.1255 0.953275L133.51 90.3882C133.758 90.6366 133.897 90.9732 133.897 91.3243C133.897 91.6753 133.758 92.012 133.51 92.2604C133.277 92.5218 132.952 92.6829 132.603 92.7097C132.254 92.7366 131.908 92.6272 131.638 92.4044L31.2866 6.39714C30.9225 6.08316 30.6244 5.69996 30.4097 5.26982C30.1949 4.83969 30.0678 4.37117 30.0357 3.89149C30.0035 3.4118 30.0669 2.9305 30.2224 2.47555C30.3778 2.0206 30.622 1.60107 30.941 1.24131C31.2593 0.876987 31.6472 0.579977 32.082 0.367764C32.5168 0.155552 32.9895 0.032425 33.4726 0.00558887C33.9556 -0.0212472 34.4392 0.0487498 34.8948 0.211498C35.3504 0.374246 35.7688 0.626459 36.1255 0.953275Z" fill="url(#paint0_linear_3169_6489)"/>
<path style="mix-blend-mode:screen" d="M72.5329 35.1722L132.185 89.8989C132.342 90.0555 132.429 90.2679 132.429 90.4894C132.429 90.7108 132.342 90.9232 132.185 91.0798C132.03 91.2278 131.823 91.3103 131.609 91.3103C131.394 91.3103 131.188 91.2278 131.033 91.0798L69.5085 38.3694C69.2884 38.177 69.1085 37.943 68.9791 37.6808C68.8497 37.4186 68.7734 37.1334 68.7547 36.8416C68.7359 36.5498 68.7751 36.2572 68.8699 35.9806C68.9647 35.704 69.1132 35.4488 69.307 35.2299C69.5103 35.0064 69.7572 34.8269 70.0324 34.7023C70.3076 34.5777 70.6054 34.5106 70.9075 34.5052C71.2095 34.4998 71.5095 34.5562 71.789 34.6709C72.0685 34.7856 72.3217 34.9562 72.5329 35.1722Z" fill="url(#paint1_linear_3169_6489)"/>
<path d="M2.85714 10.6602L47.5314 51.6765C47.5889 51.7328 47.6345 51.8 47.6657 51.8742C47.6969 51.9484 47.7129 52.028 47.7129 52.1085C47.7129 52.189 47.6969 52.2686 47.6657 52.3428C47.6345 52.417 47.5889 52.4842 47.5314 52.5406C47.4751 52.598 47.4078 52.6437 47.3336 52.6749C47.2594 52.7061 47.1798 52.7221 47.0993 52.7221C47.0188 52.7221 46.9392 52.7061 46.865 52.6749C46.7908 52.6437 46.7236 52.598 46.6672 52.5406L0.581635 13.0798C0.414751 12.9363 0.27784 12.7613 0.178783 12.5648C0.0797263 12.3683 0.0204457 12.1542 0.00438706 11.9347C-0.0116716 11.7152 0.0158572 11.4948 0.0852563 11.2859C0.154655 11.0771 0.264593 10.8841 0.408821 10.7179C0.558728 10.5419 0.74411 10.3995 0.952842 10.3001C1.16157 10.2007 1.38898 10.1465 1.6201 10.1411C1.85123 10.1356 2.08086 10.1791 2.29404 10.2686C2.50722 10.358 2.69912 10.4915 2.85714 10.6602Z" fill="url(#paint2_linear_3169_6489)"/>
<path style="mix-blend-mode:screen" d="M19.563 26.3579L46.9552 51.5034C47.0162 51.576 47.0495 51.6678 47.0495 51.7626C47.0495 51.8574 47.0162 51.9492 46.9552 52.0218C46.8807 52.0906 46.783 52.1289 46.6816 52.1289C46.5801 52.1289 46.4824 52.0906 46.4079 52.0218L18.1805 27.8557C18.0839 27.7593 18.0071 27.6449 17.9548 27.5188C17.9025 27.3928 17.8755 27.2577 17.8755 27.1212C17.8755 26.9847 17.9025 26.8496 17.9548 26.7236C18.0071 26.5975 18.0839 26.4831 18.1805 26.3867C18.3639 26.2066 18.6091 26.1032 18.8661 26.0979C19.1231 26.0925 19.3724 26.1855 19.563 26.3579Z" fill="url(#paint3_linear_3169_6489)"/>
</g>
<defs>
<linearGradient id="paint0_linear_3169_6489" x1="133.651" y1="91.9281" x2="31.0757" y2="0.825497" gradientUnits="userSpaceOnUse">
<stop offset="0.01" stop-color="#FEA7AF"/>
<stop offset="0.99" stop-color="#EA47AC" stop-opacity="0"/>
</linearGradient>
<linearGradient id="paint1_linear_3169_6489" x1="132.337" y1="90.7618" x2="69.4739" y2="34.9296" gradientUnits="userSpaceOnUse">
<stop offset="0.01" stop-color="#FEA7AF"/>
<stop offset="0.99" stop-color="#EA47AC" stop-opacity="0"/>
</linearGradient>
<linearGradient id="paint2_linear_3169_6489" x1="47.685" y1="52.1751" x2="0.607568" y2="10.3631" gradientUnits="userSpaceOnUse">
<stop offset="0.01" stop-color="#FEA7AF"/>
<stop offset="0.99" stop-color="#EA47AC" stop-opacity="0"/>
</linearGradient>
<linearGradient id="paint3_linear_3169_6489" x1="47.0818" y1="51.6393" x2="18.2238" y2="26.009" gradientUnits="userSpaceOnUse">
<stop offset="0.01" stop-color="#FEA7AF"/>
<stop offset="0.99" stop-color="#EA47AC" stop-opacity="0"/>
</linearGradient>
</defs>
</svg>
