<svg viewBox="0 0 280 280" fill="none" xmlns="http://www.w3.org/2000/svg">
<mask id="mask0_3129_7366" style="mask-type:alpha" maskUnits="userSpaceOnUse" x="73" y="11" width="120" height="91">
<path d="M75.6606 66.1657L91.3004 101.349L99.4828 95.7851L138.12 83.6957L157.691 77.3346L162.523 79.6283L167.63 87.3961L174.022 92.4421L177.569 93.1455L188.12 89.3228L190.23 86.968L191.943 81.2797L192.279 79.0472L190.23 76.3866L190.842 75.7138L191.943 72.5333L190.842 68.9858L188.732 66.631L187.876 65.53L186.866 57.8845L183.686 47.7925L178.303 37.3335L170.994 28.5564L160.811 20.544L153.41 16.7518L143.409 13.0208L130.443 11.1547L121.788 11.6443L113.561 13.7543L106.099 17.2717L100.87 22.1028L97.5976 26.6903L91.2671 31.798L77.6888 46.1709L74.1107 52.0735L73.4686 59.4744L75.6606 66.1657Z" fill="url(#paint0_linear_3129_7366)"/>
</mask>
<g mask="url(#mask0_3129_7366)">
<path d="M75.6606 66.1657L91.3004 101.349L99.4828 95.7851L138.12 83.6957L157.691 77.3346L162.523 79.6283L167.63 87.3961L174.022 92.4421L177.569 93.1455L188.12 89.3228L190.23 86.968L191.943 81.2797L192.279 79.0472L190.23 76.3866L190.842 75.7138L191.943 72.5333L190.842 68.9858L188.732 66.631L187.876 65.53L186.866 57.8845L183.686 47.7925L178.303 37.3335L170.994 28.5564L160.811 20.544L153.41 16.7518L143.409 13.0208L130.443 11.1547L121.788 11.6443L113.561 13.7543L106.099 17.2717L100.87 22.1028L97.5976 26.6903L91.2671 31.798L77.6888 46.1709L74.1107 52.0735L73.4686 59.4744L75.6606 66.1657Z" fill="url(#paint1_linear_3129_7366)"/>
<path d="M107.598 36.033C94.9619 41.7372 92.7258 56.4426 96.3043 63.3952L108.575 82.2735C135.23 84.2512 183.765 86.8042 164.671 81.1947C146.594 65.5638 149.396 50.9393 136.975 40.8915C128.851 34.3201 117.121 31.734 107.598 36.033Z" fill="#534D99"/>
<path opacity="0.5" d="M93.0229 95.5742C87.131 81.9122 70.7297 51.6444 97.8764 21.527C97.3776 20.6715 82.2844 24.7639 60.3861 19.6315C33.0133 13.216 45.4165 35.0287 41.3533 46.3627C37.2902 57.6968 75.9971 143.023 90.5389 142.595C105.081 142.168 112.055 139.2 93.0229 95.5742Z" fill="#534C99"/>
<path d="M99.1016 12.0859C99.1016 31.9053 73.3866 66.6281 111.55 72.3606" stroke="#7B5B9F" stroke-width="1.47627"/>
<path d="M166.723 82.6938C155.378 91.1368 137.563 103.527 157.066 85.5433C157.745 84.9174 158.393 84.2852 159.01 83.6475C155.274 82.4919 150.036 83.5343 149.276 82.6938C148.426 81.7546 132.224 59.5704 124.229 48.5956H118.947C123.696 47.032 136.99 46.7706 145.701 61.6396C151.025 70.7287 158.188 75.0928 164.204 77.077C186.856 41.0308 127.665 -5.79175 98.3351 25.0362L83.9295 26.4959L95.9606 3.06641C121.131 4.80776 174.132 10.0318 184.77 16.9973C195.408 23.9627 195.851 60.9533 194.743 78.5779C190.047 79.9499 180.432 82.6938 179.546 82.6938H166.723Z" fill="#0E163A"/>
<path d="M93.0615 26.5721C140.661 -8.95278 189.763 70.7193 148.757 84.8589" stroke="#0E163A" stroke-width="2.46046"/>
<path d="M169.071 81.6561L162.284 79.4821V81.046C153.247 82.8126 139.299 81.6751 161.932 83.4443C174.902 86.4867 192.067 82.1451 192.843 77.9763L193.358 75.4025L190.499 76.241L186.305 78.7579L179.899 81.3126C178.082 81.5032 174.401 81.8845 174.218 81.8845C174.035 81.8845 170.71 81.7322 169.071 81.6561Z" fill="#0E163A"/>
<path d="M169.07 89.5928L162.283 87.4187V88.9826C153.247 90.7492 140.108 91.9124 162.741 93.6816C175.712 96.724 193.307 90.3679 194.083 86.1992L193.358 83.3391C193.358 83.3391 187.091 88.9826 169.07 89.5928Z" fill="#0E163A"/>
</g>
<mask id="mask1_3129_7366" style="mask-type:alpha" maskUnits="userSpaceOnUse" x="38" y="163" width="212" height="104">
<path d="M229.431 169.646L214.533 169.131L185.186 170.597L128.151 163.601L60.9741 181.662L51.8908 184.893L45.4642 189.597L40.9045 195.844L38.8222 202.737L38.2836 209.954L39.8166 217.246L43.8265 224.279L49.8107 229.153L64.6168 238.345L111.336 262.953L115.061 264.751L122.381 266.549H128.867L135.803 265.522L146.335 260.962L185.186 241.248L241.774 212.267L245.549 209.352L248.352 204.606L249.846 196.384L248.837 187.601L244.016 178.259L237.073 172.15L229.431 169.646Z" fill="url(#paint2_linear_3129_7366)"/>
</mask>
<g mask="url(#mask1_3129_7366)">
<path d="M229.431 169.646L214.533 169.131L185.186 170.597L128.151 163.601L60.9741 181.662L51.8908 184.893L45.4642 189.597L40.9045 195.844L38.8222 202.737L38.2836 209.954L39.8166 217.246L43.8265 224.279L49.8107 229.153L64.6168 238.345L111.336 262.953L115.061 264.751L122.381 266.549H128.867L135.803 265.522L146.335 260.962L185.186 241.248L241.774 212.267L245.549 209.352L248.352 204.606L249.846 196.384L248.837 187.601L244.016 178.259L237.073 172.15L229.431 169.646Z" fill="url(#paint3_linear_3129_7366)"/>
<path fill-rule="evenodd" clip-rule="evenodd" d="M182.569 233.164C169.908 245.581 153.718 257.284 136.242 266.623C94.1441 295.13 223.806 275.07 264.827 267.888C298.942 221.066 362.945 126.18 346.04 121.208C329.134 116.235 215.756 143.35 184.68 155.366C218.026 169.26 213.963 196.544 192.221 222.726C200.151 218.904 208.908 214.394 217.29 209.573C224.908 205.192 232.173 200.579 238.211 196.019C244.293 191.427 248.945 187.023 251.523 183.097L256.048 186.067C252.955 190.779 247.709 195.63 241.473 200.339C235.194 205.081 227.721 209.818 219.988 214.266C206.929 221.776 193.003 228.531 182.569 233.164Z" fill="#0D1029"/>
<path d="M53.2116 235.1C45.8992 221.238 51.778 193.496 78.9702 182.446C69.9287 173.026 51.3448 154.057 49.3409 153.547C46.8361 152.908 15.4654 215.237 14.4175 218.625C13.5791 221.335 39.9309 230.738 53.2116 235.1Z" fill="url(#paint4_linear_3129_7366)"/>
</g>
<mask id="mask2_3129_7366" style="mask-type:alpha" maskUnits="userSpaceOnUse" x="60" y="149" width="169" height="48">
<path d="M101.029 164.566L106.509 162.967C117.859 164.417 140.637 167.272 140.951 167.084C141.265 166.895 159.375 155.432 168.39 149.724L180.447 155.569L183.826 157.807L197.39 162.191L198.669 163.15L228.627 169.681L215.931 172.467L207.62 173.015L202.459 174.978L177.524 180.778L166.792 184.066L153.502 188.314L138.295 194.981L133.865 196.397H127.334L119.616 194.022L108.884 188.314L104.089 185.345L98.9281 184.249L92.5345 183.975L86.2779 182.925L66.7773 181.829H60.0639L82.8072 173.471L85.9127 171.645L97.2838 166.53L99.6131 165.936L101.029 164.566Z" fill="url(#paint5_linear_3129_7366)"/>
</mask>
<g mask="url(#mask2_3129_7366)">
<path d="M101.029 164.566L106.509 162.967C117.859 164.417 140.637 167.272 140.951 167.084C141.265 166.895 159.375 155.432 168.39 149.724L180.447 155.569L183.826 157.807L197.39 162.191L198.669 163.15L228.627 169.681L215.931 172.467L207.62 173.015L202.459 174.978L177.524 180.778L166.792 184.066L153.502 188.314L138.295 194.981L133.865 196.397H127.334L119.616 194.022L108.884 188.314L104.089 185.345L98.9281 184.249L92.5345 183.975L86.2779 182.925L66.7773 181.829H60.0639L82.8072 173.471L85.9127 171.645L97.2838 166.53L99.6131 165.936L101.029 164.566Z" fill="url(#paint6_linear_3129_7366)"/>
<path d="M185.942 162.561L183.644 157.529L184.137 155.012C189.479 162.36 200.164 177.144 200.164 177.494C200.164 177.844 194.439 179.244 191.576 179.901L185.942 162.561Z" fill="url(#paint7_linear_3129_7366)"/>
<path d="M208.44 174.393L198.567 162.775V159.159L214.738 173.93L208.44 174.393Z" fill="url(#paint8_linear_3129_7366)"/>
<path d="M84.5668 183.243L100.135 165.931L101.878 164.828L90.1433 183.94L84.5668 183.243Z" fill="url(#paint9_linear_3129_7366)"/>
<path d="M67.7575 183.725L86.5076 167.157L90.1706 166.414L73.0985 183.725H67.7575Z" fill="url(#paint10_linear_3129_7366)"/>
</g>
<mask id="mask3_3129_7366" style="mask-type:alpha" maskUnits="userSpaceOnUse" x="83" y="46" width="96" height="151">
<path d="M172.62 153.495L171.366 152.693L170.674 151.094V144.974L170.308 133.1V130.223L171.904 121.321L172.699 110.769L175.281 108.567L177.078 106.124L177.61 99.6185L178.344 93.1888L174.788 92.847L172.978 91.999L167.826 87.4299L164.029 82.1266L162.422 79.6965L157.967 77.684L151.263 72.6585L147.074 67.9492L143.448 61.5028L139.288 56.2131L134.756 52.1917L128.43 48.4487L121.052 46.6084L113.442 47.4438L106.219 50.5677L99.8314 56.4454L95.8873 63.2975L90.9755 84.2952L90.6753 87.344C91.1449 89.7538 92.0842 94.8228 92.0842 95.8206C92.0842 96.8184 91.5915 100.04 91.3451 101.526L86.1482 90.7393L84.0695 86.8828L83.8847 93.5114L85.4321 101.18L88.966 111.897L90.7215 113.19H91.8534L95.4793 131.413L98.0894 141.115L99.891 147.79L104.002 159.084L106.266 166.614V178.185L106.543 186.477L109.417 188.575L116.24 192.601C119.586 193.823 126.307 196.279 126.428 196.324C126.549 196.37 130.019 196.419 131.739 196.438L135.935 196.078L143.779 192.374L155.913 187.497L167.991 183.547L169.522 182.13L172.3 174.343L174.209 168.03L174.402 160.964L174.028 156.07L173.621 154.783L172.62 153.495Z" fill="url(#paint11_linear_3129_7366)"/>
</mask>
<g mask="url(#mask3_3129_7366)">
<path d="M172.62 153.495L171.366 152.693L170.674 151.094V144.974L170.308 133.1V130.223L171.904 121.321L172.699 110.769L175.281 108.567L177.078 106.124L177.61 99.6185L178.344 93.1888L174.788 92.847L172.978 91.999L167.826 87.4299L164.029 82.1266L162.422 79.6965L157.967 77.684L151.263 72.6585L147.074 67.9492L143.448 61.5028L139.288 56.2131L134.756 52.1917L128.43 48.4487L121.052 46.6084L113.442 47.4438L106.219 50.5677L99.8314 56.4454L95.8873 63.2975L90.9755 84.2952L90.6753 87.344C91.1449 89.7538 92.0842 94.8228 92.0842 95.8206C92.0842 96.8184 91.5915 100.04 91.3451 101.526L86.1482 90.7393L84.0695 86.8828L83.8847 93.5114L85.4321 101.18L88.966 111.897L90.7215 113.19H91.8534L95.4793 131.413L98.0894 141.115L99.891 147.79L104.002 159.084L106.266 166.614V178.185L106.543 186.477L109.417 188.575L116.24 192.601C119.586 193.823 126.307 196.279 126.428 196.324C126.549 196.37 130.019 196.419 131.739 196.438L135.935 196.078L143.779 192.374L155.913 187.497L167.991 183.547L169.522 182.13L172.3 174.343L174.209 168.03L174.402 160.964L174.028 156.07L173.621 154.783L172.62 153.495Z" fill="url(#paint12_linear_3129_7366)"/>
<path d="M98.0406 65.33C100.179 57.1483 107.666 50.7803 111.143 48.619C109.478 44.5626 105.121 36.2438 101.004 35.4205C96.8877 34.5971 90.0941 46.8554 87.2119 53.0875L91.4901 99.7547L90.8217 107.776L91.4901 112.856C90.1754 115.329 87.4793 120.343 87.2119 120.61C86.9445 120.878 98.8008 150.74 104.762 165.638L107.277 168.663L109.76 176.43L109.346 179.581C110.849 181.007 112.64 179.765 113.348 178.965C108.134 163.658 95.1027 126.237 95.7711 122.026C92.9616 107.776 94.2912 94.6512 94.2912 94.6512C92.8207 78.8091 95.3671 75.5571 98.0406 65.33Z" fill="url(#paint13_linear_3129_7366)"/>
<path d="M139.197 103.342L136.589 98.9419L136.358 97.9134L137.231 92.4218L141.756 86.1817L152.489 85.9632C155.994 88.0328 163.041 92.2221 163.191 92.4218C163.378 92.6714 161.912 102.188 161.818 102.344C161.743 102.469 160.019 103.935 159.166 104.653L154.611 105.62H145.063L142.005 105.277L139.197 103.342Z" fill="#FFC7B7"/>
<path d="M120.396 103.342L123.004 98.9419L123.236 97.9134L122.362 92.4218L117.838 86.1817L107.105 85.9632C103.6 88.0328 96.5526 92.2221 96.4028 92.4218C96.2156 92.6714 96.3092 101.514 96.4028 101.67C96.4777 101.795 99.575 103.935 100.428 104.653L104.983 105.62H114.531L117.589 105.277L120.396 103.342Z" fill="#FFC7B7"/>
<path d="M142.379 130.42L142.403 130.423C141.152 137.525 124.127 141.454 119.083 130.834L119.622 130.761L118.911 130.575L117.714 130.211L122.414 127.279L126.727 125.148L128.884 125.691L129.93 125.781L130.643 125.194C139.654 126.324 142.182 129.916 144.702 129.255L143.411 129.991L142.379 130.42Z" fill="#D27B6C"/>
<path d="M162.594 101.363C163.071 96.527 163.198 91.5786 162.954 86.639C149.605 80.0527 144.128 66.9994 138.48 55.5659C140.603 54.0686 148.032 54.0259 148.358 52.7193C148.6 51.7529 157.64 56.0569 165.636 60.1151C170.453 57.3121 175.73 55.3734 179.412 55.5706C186.241 55.9364 185.509 90.6936 187.704 93.7425C189.9 96.7913 185.022 112.402 182.339 116.426C180.192 119.646 173.476 113.946 170.387 110.694C172.46 114.637 174.363 124.109 165.387 130.451C154.167 138.378 153.313 143.744 149.045 149.354C144.776 154.964 110.453 166.797 128.502 150.821C146.121 149.898 158.148 130.446 161.861 107.076L146.067 107.348C143.383 107.395 140.765 106.58 138.591 105.042C138.979 106.345 139.35 107.659 139.51 109.172C140.025 110.237 141.159 112.485 141.866 113.56C142.772 114.937 143.714 115.979 143.863 116.103C143.982 116.202 145.311 117.261 145.96 117.778C144.782 117.611 142.27 116.799 140.612 114.85L140.521 115.422L139.679 117.701C139.306 117.871 138.491 118.233 138.209 118.322C137.857 118.433 137.497 118.55 137.439 118.55C137.38 118.55 134.8 117.368 134.689 117.342C134.6 117.321 134.509 117.254 134.474 117.223L132.047 119.25L120.118 118.322C118.697 117.939 117.958 117.223 117.642 115.3C117.788 114.558 117.968 112.733 119.014 112.184C120.629 111.988 121.551 113.061 123.087 112.184C124.757 111.147 126.406 111.949 128.192 112.737C132.532 114.65 136.366 110.42 135.755 105.717C135.215 101.558 133.908 96.6462 134.486 92.3899C130.15 89.7701 126.515 91.1835 125.023 92.3742C124.822 94.6576 124.478 97.2437 124.05 99.7745C123.341 103.978 119.598 106.862 115.335 106.862H104.351C99.3424 106.862 95.0549 103.271 94.177 98.3399L93.4443 94.225L92.2832 94.5331L91.9909 93.1232L93.8993 92.0018L94.4502 94.225L95.3945 98.3959L97.7357 102.882L100.352 104.633L102.674 105.538L111.94 105.636L116.721 105.223L120.361 103.216L122.86 99.2419L124.02 93.556V90.8017C124.13 89.3772 124.841 87.3503 125.062 89.8699L126.309 88.3731H131.461L134.759 90.967C134.902 90.4074 135.085 89.8631 135.316 89.3377L136.6 97.4249C136.903 98.4723 137.513 100.607 137.536 100.769C137.607 101.267 137.699 101.745 137.805 102.209L138.353 102.35L139.145 103.369C139.327 103.478 141.998 104.848 143.311 105.52L153.612 105.814L157.8 105.384L161.595 102.612L162.594 101.363Z" fill="url(#paint14_linear_3129_7366)"/>
<path d="M91.1091 112.881L84.3999 88.8278L84.0074 86.9721L89.6459 87.1505L91.1091 101.14L90.8235 108.741L91.5729 112.488L91.1091 112.881Z" fill="url(#paint15_linear_3129_7366)"/>
<path d="M121.727 118.045L121.806 117.639C119.89 116.7 119.063 115.197 120.658 115.095C120.733 115.074 120.892 115.028 120.919 115.012C120.954 114.991 122.057 115.35 122.085 115.398C122.107 115.437 123.115 116.867 123.811 117.639L121.727 118.045Z" fill="#1B2C44"/>
<path d="M134.228 117.992L134.919 117.883C136.968 117.394 138.666 115.568 137.072 115.465C136.996 115.445 136.498 115.348 136.471 115.331C136.436 115.31 135.246 115.591 135.219 115.64C135.197 115.679 133.782 117.006 133.086 117.778L134.228 117.992Z" fill="#1B2C44"/>
<path fill-rule="evenodd" clip-rule="evenodd" d="M161.732 102.117L163.933 97.691L164.959 92.1616V87.758L164.159 85.6313L162.257 84.2802C160.823 84.2551 157.859 84.2201 157.478 84.2802C157.098 84.3402 148.696 83.8215 144.543 83.5547C143.4 83.7133 141.075 84.0554 140.915 84.1555C140.755 84.2556 139.43 85.131 138.788 85.5562C137.979 86.3902 136.321 88.0883 136.161 88.2084C135.961 88.3585 135.26 91.8614 135.26 92.0616C135.26 92.1597 135.633 93.7857 136.016 95.456C136.241 96.435 136.469 97.4293 136.627 98.14C140.987 101.673 154.2 104.037 161.732 102.117ZM145.639 94.0681C145.639 94.0681 144.001 93.6776 142.477 92.442L142.957 92.023L143.387 91.6616L143.837 91.3559L144.281 91.1291L144.688 90.9676L145.175 90.8331L145.332 90.7946L145.659 90.7466L146.138 90.7178L146.497 90.7331L146.326 90.9523L146.232 91.0926L146.138 91.2983L146.065 91.5174L146.019 91.7481L146.007 91.9557V92.0749L146.042 92.3132L146.088 92.4977L146.151 92.6592L146.24 92.8361L146.349 93.0052L146.515 93.209L146.643 93.3301L146.884 93.5108L147.137 93.653L147.472 93.7741L147.785 93.8356L148.075 93.851L148.337 93.8356L148.618 93.7779L148.956 93.6626L149.112 93.5838L149.269 93.4838L149.525 93.2839C149.976 92.6626 150.148 91.6396 149.729 91.0253L149.873 91.0945L151.02 91.2195L151.582 91.2829L151.837 91.329L152.049 91.3828L152.539 91.5693L152.883 91.7596L153.056 91.873L153.264 92.0383L153.444 92.2209L153.537 92.3286L153.8 92.6496L154.204 93.1398L154.551 93.5357L154.859 93.8375C154.859 93.8375 154.309 94.1664 152.323 94.57L152.053 94.5949L151.557 94.641L151.068 94.6968L150.578 94.7487L150.084 94.7967L149.704 94.8409L149.596 94.8506L149.208 94.8602H149.104L148.673 94.8256L148.618 94.814L148.122 94.7525L147.795 94.6949L147.629 94.6564L147.297 94.5718L147.137 94.5161L146.92 94.4507L146.538 94.3373L146.144 94.2239L145.757 94.1067L145.639 94.0681Z" fill="#F29289"/>
<path fill-rule="evenodd" clip-rule="evenodd" d="M96.9224 101.167L95.1937 97.691L94.1678 92.1616V87.758L95.2561 85.8187L97.3149 85.1013C98.1238 85.0872 99.308 84.9013 100.255 84.7525C100.988 84.6375 101.579 84.5448 101.745 84.571C101.935 84.6011 104.12 84.4125 106.774 84.1833C109.412 83.9555 112.514 83.6877 114.584 83.5547C115.727 83.7133 118.052 84.0554 118.212 84.1555C118.372 84.2556 119.697 85.131 120.339 85.5562C121.148 86.3902 122.806 88.0883 122.966 88.2084C123.166 88.3585 123.867 91.8614 123.867 92.0616C124.197 93.1565 123.935 94.8238 123.577 96.2833L123.435 96.6148C120.45 99.4132 111.027 105.41 96.9224 101.167ZM104.551 93.7937C106.301 94.5529 107.61 94.6184 107.61 94.6184C107.61 94.6184 109.476 95.0514 110.087 95.174L112.127 95.082C112.127 95.082 113.784 94.3961 114.239 94.173C116.011 93.1334 116.643 92.0382 116.643 92.0382C116.078 91.5473 114.928 90.5609 114.848 90.5425C114.769 90.5241 112.648 90.5654 111.598 90.5884C110.389 90.7111 107.946 90.9566 107.848 90.9566C107.764 90.9566 106.657 91.5387 105.964 91.9035L105.964 91.9035L105.964 91.9038C105.654 92.0668 105.427 92.1863 105.41 92.191C105.367 92.2033 104.82 93.0191 104.551 93.4255V93.7937Z" fill="#F29289"/>
<path fill-rule="evenodd" clip-rule="evenodd" d="M153.951 177.755C161.521 178.987 168.483 178.893 173.866 177.685C198.608 179.211 196.75 158.884 180.561 147.175C167.609 137.807 169.666 130.443 172.313 127.931C168.953 130.408 161.174 136.544 156.939 141.269C155.956 142.364 155.009 143.509 154.067 144.647C149.931 149.645 145.894 154.524 139.426 154.607C133.072 154.688 118.179 151.179 111.527 149.415H106.47C116.568 163.421 131.317 171.828 145.297 175.816C155.347 172.458 166.289 166.594 171.283 154.122L171.655 159.544C171.655 159.544 170.447 169.176 153.951 177.755ZM106.764 167.038L109.504 175.189L109.769 177.641L109.24 179.637C108.871 179.789 107.812 180.238 106.523 180.815C104.912 181.536 101.522 176.367 102.051 175.189C102.474 174.246 104.279 170.324 105.129 168.481L106.523 166.582L106.764 167.038Z" fill="url(#paint16_linear_3129_7366)"/>
<mask id="mask4_3129_7366" style="mask-type:alpha" maskUnits="userSpaceOnUse" x="79" y="86" width="121" height="75">
<path fill-rule="evenodd" clip-rule="evenodd" d="M91.1752 106.863C93.1376 113.142 98.8116 126.432 106.582 132.482C107.385 133.107 108.514 132.629 108.728 131.635L109.639 127.416C109.989 125.793 110.956 124.37 112.337 123.447L120.305 118.12L123.506 117.415L125.281 118.904L128.807 119.435L131.584 118.904L133.737 117.906L134.798 117.064L137.544 118.12L146.016 120.804C148.474 121.583 150.502 123.342 151.619 125.666L154.183 130.999C154.664 131.998 156.033 132.131 156.696 131.243L164.362 120.987C165.876 118.961 166.897 116.613 167.335 114.122C168.755 106.044 170.804 94.0428 171.136 90.7223L172.769 90.2083V110.405C173.633 111.015 175.934 112.243 178.222 112.274C180.727 112.307 181.389 110.467 181.848 109.19C181.912 109.009 181.973 108.84 182.034 108.689C182.53 107.469 181.424 90.5784 181.196 90.2353C181.081 90.0637 178.885 89.5255 176.587 89.0064L185.375 86.24C190.327 99.9138 200.028 128.543 199.215 133.669C198.402 138.795 179.576 134.998 170.265 132.458L168.508 135.549L165.778 140.313L158.575 148.097L149.868 155.649L144.575 159.599L133.944 160.645L124.417 160.993L120.873 159.599L111.521 152.977L104.375 148.097L100.948 144.728L98.1597 141.474C92.0966 136.816 79.9705 127.237 79.9705 126.192C79.9705 125.147 84.2805 116.079 86.4355 111.676L91.5325 113.287L91.1752 111.3L90.7517 107.679L91.1752 106.863ZM126.155 124.767L128.688 122.519L130.839 124.767C133.249 124.283 138.908 125.933 142.78 127.215C144.796 127.884 146.606 129.12 147.182 131.165C147.648 132.819 148.034 135.039 148.364 137.705C148.488 138.71 148.072 139.707 147.271 140.327C140.766 145.362 134.019 149.843 137.208 138.763L132.725 137.04L126.558 137.825L124.721 138.796C128.482 142.881 126.924 145.93 123.686 146.614C122.755 146.811 121.834 146.365 121.183 145.671L119.024 143.37C116.805 141.004 115.458 137.953 115.205 134.72L115.094 133.3C114.923 131.125 116.073 129.059 118.046 128.13C120.356 127.042 123.509 125.641 126.155 124.767Z" fill="url(#paint17_linear_3129_7366)"/>
</mask>
<g mask="url(#mask4_3129_7366)">
<path fill-rule="evenodd" clip-rule="evenodd" d="M91.1752 106.863C93.1376 113.142 98.8116 126.432 106.582 132.482C107.385 133.107 108.514 132.629 108.728 131.635L109.639 127.416C109.989 125.793 110.956 124.37 112.337 123.447L120.305 118.12L123.506 117.415L125.281 118.904L128.807 119.435L131.584 118.904L133.737 117.906L134.798 117.064L137.544 118.12L146.016 120.804C148.474 121.583 150.502 123.342 151.619 125.666L154.183 130.999C154.664 131.998 156.033 132.131 156.696 131.243L164.362 120.987C165.876 118.961 166.897 116.613 167.335 114.122C168.755 106.044 170.804 94.0428 171.136 90.7223L172.769 90.2083V110.405C173.633 111.015 175.934 112.243 178.222 112.274C180.727 112.307 181.389 110.467 181.848 109.19C181.912 109.009 181.973 108.84 182.034 108.689C182.53 107.469 181.424 90.5784 181.196 90.2353C181.081 90.0637 178.885 89.5255 176.587 89.0064L185.375 86.24C190.327 99.9138 200.028 128.543 199.215 133.669C198.402 138.795 179.576 134.998 170.265 132.458L168.508 135.549L165.778 140.313L158.575 148.097L149.868 155.649L144.575 159.599L133.944 160.645L124.417 160.993L120.873 159.599L111.521 152.977L104.375 148.097L100.948 144.728L98.1597 141.474C92.0966 136.816 79.9705 127.237 79.9705 126.192C79.9705 125.147 84.2805 116.079 86.4355 111.676L91.5325 113.287L91.1752 111.3L90.7517 107.679L91.1752 106.863ZM126.155 124.767L128.688 122.519L130.839 124.767C133.249 124.283 138.908 125.933 142.78 127.215C144.796 127.884 146.606 129.12 147.182 131.165C147.648 132.819 148.034 135.039 148.364 137.705C148.488 138.71 148.072 139.707 147.271 140.327C140.766 145.362 134.019 149.843 137.208 138.763L132.725 137.04L126.558 137.825L124.721 138.796C128.482 142.881 126.924 145.93 123.686 146.614C122.755 146.811 121.834 146.365 121.183 145.671L119.024 143.37C116.805 141.004 115.458 137.953 115.205 134.72L115.094 133.3C114.923 131.125 116.073 129.059 118.046 128.13C120.356 127.042 123.509 125.641 126.155 124.767Z" fill="url(#paint18_linear_3129_7366)"/>
<path d="M106.354 142.059C101.095 137.489 96.2676 134.888 94.5114 134.159C92.3253 144.072 88.1193 164.256 88.7843 165.691C89.6155 167.485 112.595 161.906 113.762 160.942C114.929 159.978 112.927 147.772 106.354 142.059Z" fill="url(#paint19_linear_3129_7366)"/>
<path d="M117.189 157.399C125.839 158.934 182.86 160.342 169.089 86.5243C174.282 87.051 185.045 88.9079 185.586 89.6303C186.264 90.5332 197.551 121.46 192.133 138.165C187.799 151.529 108.013 191.276 117.189 157.399Z" fill="#1E213B"/>
<path d="M137.963 141.828C132.697 138.689 127.928 140.282 123.968 140.761C122.96 139.562 122.139 138.833 121.621 137.221C120.973 135.205 121.765 136.356 123.133 135.133C124.501 133.909 131.7 132.613 134.219 132.829C136.739 133.045 138.755 142.26 137.963 141.828Z" fill="#1E213B"/>
</g>
</g>
<path d="M122.522 130.498C119.418 131.467 117.907 130.153 117.464 130.038C121.689 129.238 126.092 127.731 130.007 127.454C134.388 127.224 138.226 129.859 144.364 129.627C143.931 129.885 142.741 130.425 141.44 130.53C140.14 130.636 139.563 130.366 139.437 130.218C138.156 130.021 136.346 130.455 133.706 129.627C130.329 132.683 128.738 128.255 122.522 130.498Z" fill="#B76051"/>
<path fill-rule="evenodd" clip-rule="evenodd" d="M84.0788 86.4075L84.0526 86.4065C83.7682 86.3991 83.6936 86.3232 83.6866 86.6076C83.6866 86.6076 83.4624 89.4286 83.4056 91.7418C83.3422 94.2979 83.6989 96.8471 84.4612 99.2875C85.5956 102.92 87.3073 108.4 88.2348 111.37C88.6899 112.828 90.041 113.821 91.5691 113.821L91.5978 113.777C91.7195 113.58 92.1687 112.791 91.5691 112.791C90.4916 112.791 89.5393 112.09 89.2183 111.062C88.2912 108.093 86.5795 102.612 85.4447 98.9803C84.7165 96.6473 84.3752 94.2109 84.4355 91.7675C84.4929 89.4543 84.5547 86.9343 84.5547 86.9343C84.5617 86.6588 84.3509 86.4283 84.0788 86.4075Z" fill="#8C3C46"/>
<path fill-rule="evenodd" clip-rule="evenodd" d="M73.0403 56.1483C72.9621 57.5003 73.025 58.8533 73.2278 60.1845C73.4301 61.5182 73.7729 62.8307 74.2503 64.0996L74.2508 64.1011C76.8539 70.916 79.601 77.455 82.1071 83.1089C86.9616 94.063 90.8806 101.709 90.8806 101.709C90.9741 101.895 91.2017 101.97 91.3877 101.876C91.5737 101.782 91.6484 101.555 91.5544 101.369C91.5544 101.369 87.7363 93.6945 82.965 82.7324C80.5028 77.0756 77.7795 70.546 75.213 63.736C74.7599 62.5353 74.4348 61.2927 74.2409 60.0297C74.047 58.7667 73.9832 57.484 74.0549 56.2012C74.0564 56.1765 74.0559 56.1523 74.0539 56.128C74.1455 54.5811 74.4705 53.0658 75.0092 51.6312C75.5568 50.1728 76.3246 48.7971 77.2952 47.5554C79.3789 44.9152 82.5642 41.1762 86.9869 36.7437C89.9803 33.7434 93.7515 30.3037 97.9218 26.7972C98.0821 26.6637 98.1034 26.4257 97.9703 26.2654C97.8367 26.1056 97.5983 26.0839 97.4385 26.2174C93.2197 29.7076 89.402 33.1329 86.372 36.1258C81.8835 40.5593 78.6527 44.3097 76.5363 46.9558L76.5348 46.9573C75.4945 48.2722 74.6688 49.7311 74.0787 51.2795C73.488 52.8289 73.1343 54.4683 73.0349 56.1429L73.0403 56.1483ZM73.1274 56.2408L73.5187 56.6796L73.5424 56.6801L73.1274 56.2408Z" fill="#623FC6"/>
<path fill-rule="evenodd" clip-rule="evenodd" d="M164.977 89.438C164.977 89.438 165.947 89.833 167.304 90.3406C168.066 90.625 168.918 90.9481 169.734 91.2296C170.192 91.3874 170.639 91.5279 171.048 91.655C172.193 92.0107 173.036 92.2457 173.036 92.2457C173.162 92.2922 173.302 92.2284 173.349 92.1022C173.395 91.9766 173.331 91.8366 173.205 91.7901C173.205 91.7901 172.413 91.4185 171.312 90.9412C170.92 90.771 170.489 90.5865 170.039 90.4074C169.237 90.0888 168.38 89.7781 167.617 89.4971C166.257 88.9965 165.273 88.6395 165.273 88.6395C165.052 88.5579 164.807 88.6707 164.725 88.8909C164.644 89.111 164.756 89.3564 164.977 89.438Z" fill="#1B2C44"/>
<path d="M172.767 91.9615L165.171 88.9417V91.6469L165.412 92.3879L172.767 93.5365V91.9615Z" fill="#1B2C44"/>
<path fill-rule="evenodd" clip-rule="evenodd" d="M93.5621 88.7117C93.5621 88.7117 93.2104 89.0194 92.778 89.4285C92.5351 89.6575 92.26 89.9118 92.0181 90.1705C91.8811 90.317 91.7599 90.4654 91.6486 90.6039C91.334 90.9957 91.1296 91.2905 91.1296 91.2905C91.0327 91.383 91.0292 91.5369 91.1222 91.6338C91.2147 91.7308 91.3686 91.7343 91.4655 91.6418C91.4655 91.6418 91.7693 91.4508 92.1749 91.154C92.3179 91.0491 92.4718 90.9343 92.6241 90.8042C92.8937 90.5742 93.1594 90.3105 93.3993 90.0785C93.8272 89.6644 94.1503 89.3271 94.1503 89.3271C94.32 89.1648 94.3264 88.8947 94.1636 88.725C94.0014 88.5553 93.7318 88.5494 93.5621 88.7117Z" fill="#1B2C44"/>
<path d="M91.4194 91.6261L93.7991 89.0292L93.9331 92.1627L92.1232 93.0844L91.4194 91.6261Z" fill="#1B2C44"/>
<path fill-rule="evenodd" clip-rule="evenodd" d="M91.8434 93.353C91.7474 93.353 91.6569 93.2961 91.6183 93.2016C91.5679 93.0774 91.6277 92.9354 91.8434 93.353ZM91.8434 93.353H91.8439H91.8434H91.8454C91.8597 93.353 91.8741 93.3515 91.8884 93.349C91.9765 93.3401 92.1877 93.3164 92.4643 93.2684C92.5716 93.2496 92.6854 93.2283 92.8036 93.1927C93.0094 93.1303 93.2177 93.0383 93.4042 92.9602C93.7371 92.8207 93.9914 92.695 93.9914 92.695C94.2091 92.6065 94.3134 92.3576 94.2249 92.14C94.1363 91.9228 93.8875 91.8179 93.6703 91.9065C93.6703 91.9065 93.4007 91.994 93.0648 92.1271C92.8768 92.2013 92.6636 92.2814 92.4732 92.3804C92.3633 92.4373 92.2674 92.5016 92.1768 92.5634C91.9903 92.6911 91.8627 92.7984 91.7939 92.8523C91.7741 92.8677 91.7524 92.8761 91.7568 92.883C91.9161 93.1506 91.8454 93.348 91.8434 93.353Z" fill="#1B2C44"/>
<path fill-rule="evenodd" clip-rule="evenodd" d="M164.978 92.7228C164.978 92.7228 166.018 92.884 167.346 93.0676C168.091 93.1705 168.925 93.2902 169.719 93.3773C170.165 93.4262 170.596 93.4609 170.991 93.4911C172.098 93.5756 172.907 93.6118 172.907 93.6118C173.04 93.6296 173.163 93.5366 173.18 93.4035C173.199 93.2704 173.105 93.1482 172.972 93.1299C172.972 93.1299 172.183 92.9498 171.094 92.7366C170.704 92.6609 170.279 92.5793 169.837 92.5081C169.049 92.3814 168.213 92.2751 167.467 92.1761C166.138 92 165.092 91.8788 165.092 91.8788C164.859 91.8476 164.645 92.0109 164.613 92.2439C164.582 92.4764 164.745 92.6911 164.978 92.7228Z" fill="#1B2C44"/>
<path fill-rule="evenodd" clip-rule="evenodd" d="M105.085 162.984L103.312 163.466C102.527 163.68 101.781 164.007 101.096 164.432C100.411 164.858 99.7874 165.383 99.2467 165.993C98.4546 166.892 97.4277 168.048 96.3512 169.28C95.7199 170.003 95.0689 170.75 94.4387 171.487C93.4028 172.699 92.4158 173.877 91.6139 174.836C90.4969 176.171 89.7479 177.084 89.7479 177.084C89.6594 177.184 89.6693 177.338 89.7697 177.427C89.8701 177.516 90.024 177.506 90.1125 177.405C90.1125 177.405 90.9243 176.548 92.1081 175.272C92.9585 174.355 94.0033 173.229 95.0758 172.048C95.7279 171.33 96.3873 170.591 97.025 169.874C98.1118 168.651 99.1294 167.487 99.9219 166.588C100.402 166.04 100.956 165.568 101.566 165.183C102.176 164.798 102.842 164.501 103.544 164.303L105.312 163.805C105.539 163.742 105.672 163.507 105.609 163.281C105.546 163.055 105.312 162.921 105.085 162.984Z" fill="#623FC6"/>
<path fill-rule="evenodd" clip-rule="evenodd" d="M106.126 166.511C106.126 166.511 105.941 168.946 105.857 172.671C105.829 173.912 105.81 175.296 105.827 176.78C105.841 178.083 105.887 179.462 105.953 180.888C106.043 182.873 106.159 184.76 106.342 186.853C106.353 187.015 106.494 187.137 106.656 187.126C106.819 187.115 106.941 186.974 106.93 186.812C106.784 183.99 106.765 181.388 106.74 178.817C106.733 178.145 106.727 177.489 106.719 176.852C106.706 175.816 106.694 174.829 106.683 173.905C106.628 169.511 106.673 166.536 106.673 166.536C106.68 166.385 106.563 166.257 106.412 166.25C106.261 166.243 106.133 166.361 106.126 166.511Z" fill="#623FC6"/>
<path fill-rule="evenodd" clip-rule="evenodd" d="M170.776 152.537L171.995 153.423C172.4 153.717 172.741 154.082 173.009 154.495C173.275 154.905 173.465 155.363 173.567 155.85C173.884 157.545 174.232 160.469 173.985 164.199C173.873 165.89 173.635 167.745 173.223 169.732C172.869 171.438 172.39 173.241 171.733 175.12C170.882 177.554 169.767 180.467 168.236 183.1C168.13 183.277 168.188 183.507 168.365 183.613C168.542 183.719 168.772 183.661 168.878 183.484C170.506 180.84 171.726 177.912 172.64 175.446C173.348 173.534 173.868 171.69 174.231 169.941C174.653 167.901 174.866 165.99 174.946 164.253C175.122 160.424 174.646 157.436 174.269 155.698C174.269 155.695 174.268 155.692 174.268 155.689C174.128 155.123 173.889 154.593 173.561 154.123C173.235 153.657 172.824 153.248 172.344 152.924L171.094 152.082C170.969 151.994 170.796 152.025 170.708 152.151C170.62 152.276 170.651 152.449 170.776 152.537Z" fill="#623FC6"/>
<path fill-rule="evenodd" clip-rule="evenodd" d="M170.812 151.496C172.689 152.244 174.544 153.077 176.39 153.984C178.189 154.869 179.978 155.826 181.744 156.892C182.46 157.315 183.085 157.868 183.6 158.508C184.117 159.15 184.528 159.878 184.79 160.674L187.381 168.231C187.424 168.369 187.572 168.447 187.711 168.403C187.85 168.36 187.927 168.212 187.884 168.073C187.884 168.073 187.261 165.843 186.575 163.461C186.273 162.408 185.954 161.327 185.681 160.394C185.409 159.476 184.973 158.622 184.394 157.879C183.814 157.133 183.088 156.502 182.263 156.011C182.262 156.011 182.261 156.011 182.26 156.01C180.441 154.978 178.609 154.041 176.753 153.21C174.857 152.362 172.94 151.625 171.013 150.957C170.864 150.901 170.699 150.977 170.643 151.126C170.588 151.275 170.663 151.441 170.812 151.496Z" fill="#623FC6"/>
<path fill-rule="evenodd" clip-rule="evenodd" d="M96.9284 138.416C98.3472 144.631 99.6484 149.372 101.097 153.504C102.468 157.415 103.853 160.806 105.275 164.457C106.548 167.725 107.859 171.199 109.189 175.461V175.462C109.318 175.868 109.404 176.286 109.445 176.709C109.486 177.132 109.484 177.56 109.436 177.986V177.988C109.409 178.234 109.366 178.484 109.296 178.726C109.227 178.962 109.135 179.189 109.01 179.395C108.926 179.53 108.968 179.707 109.103 179.791C109.239 179.874 109.416 179.832 109.499 179.697C109.654 179.451 109.772 179.179 109.86 178.896C109.946 178.622 110.004 178.338 110.04 178.059C110.104 177.594 110.118 177.122 110.084 176.654C110.049 176.185 109.965 175.72 109.832 175.266C108.347 170.157 106.892 166.15 105.433 162.306C103.888 158.234 102.347 154.345 100.827 149.482C99.82 146.262 98.8128 142.618 97.8145 138.214C97.7517 137.936 97.4752 137.762 97.1981 137.826C96.9206 137.888 96.8651 138.139 96.9284 138.416Z" fill="#8C3C46"/>
<path fill-rule="evenodd" clip-rule="evenodd" d="M170.022 130.535C170.022 130.535 170.035 135.185 170.13 140.876C170.168 143.081 170.225 145.444 170.331 147.757C170.402 149.332 170.501 150.882 170.612 152.343C170.822 155.087 171.094 157.517 171.4 159.209L171.4 159.211C171.44 159.423 171.491 159.632 171.554 159.839C171.617 160.044 171.689 160.247 171.774 160.445C171.775 160.446 171.776 160.448 171.776 160.45C171.938 160.808 172.155 161.218 172.436 161.577C172.625 161.818 172.841 162.036 173.088 162.203C173.196 162.279 173.346 162.254 173.422 162.146C173.499 162.038 173.473 161.888 173.365 161.812C173.118 161.627 172.916 161.374 172.746 161.105C172.562 160.813 172.42 160.5 172.31 160.223C172.244 160.047 172.186 159.862 172.138 159.675C172.091 159.488 172.054 159.298 172.027 159.107C171.741 157.077 171.579 153.985 171.455 150.574C171.417 149.53 171.382 148.456 171.345 147.373C171.29 145.767 171.235 144.143 171.186 142.569C170.982 136.136 170.811 130.533 170.811 130.533C170.811 130.315 170.634 130.138 170.416 130.139C170.198 130.139 170.022 130.317 170.022 130.535Z" fill="#8C3C46"/>
<path fill-rule="evenodd" clip-rule="evenodd" d="M177.938 93.055C177.938 93.055 177.603 96.5659 177.292 100.025C177.139 101.73 176.996 103.421 176.887 104.674C176.84 105.271 176.686 105.848 176.438 106.383C176.189 106.919 175.848 107.412 175.421 107.834L172.623 110.616C172.472 110.763 172.469 111.004 172.616 111.155C172.762 111.305 173.004 111.308 173.154 111.162L176.008 108.437C176.516 107.95 176.927 107.38 177.227 106.756C177.528 106.131 177.715 105.451 177.778 104.749C177.882 103.497 178.026 101.805 178.162 100.099C178.438 96.6367 178.698 93.1193 178.698 93.1193C178.715 92.9101 178.56 92.7256 178.35 92.7077C178.141 92.6899 177.956 92.8458 177.938 93.055Z" fill="#8C3C46"/>
<path d="M171.784 117.403C172.868 104.818 172.486 91.7102 172.486 91.7102C172.48 91.4827 172.659 91.2932 172.886 91.2872C173.113 91.2808 173.303 91.4604 173.309 91.6875C173.309 91.6875 173.744 104.845 172.699 117.48C172.142 124.207 171.171 130.672 169.53 134.721C168.115 138.21 165.127 142.021 161.653 145.617C156.367 151.088 149.965 156.068 146.431 158.682L146.43 158.683C145.54 159.334 144.565 159.849 143.537 160.216C142.51 160.582 141.43 160.802 140.328 160.861L127.03 161.584C125.638 161.659 124.254 161.493 122.936 161.103C121.619 160.712 120.369 160.097 119.243 159.275L103.834 148.027C101.968 146.665 100.382 144.986 99.1363 143.084C97.8912 141.182 96.9864 139.058 96.4837 136.802L90.6072 110.427C90.441 109.682 90.3371 108.926 90.2965 108.166C90.256 107.406 90.2777 106.643 90.3633 105.885L91.4205 96.4827C91.5011 95.7649 91.5184 95.0427 91.4729 94.3244C91.4269 93.6066 91.3181 92.8922 91.1469 92.1907L90.5513 89.7474C90.3539 88.9376 90.2485 88.1109 90.2357 87.2828C90.2228 86.4547 90.302 85.6246 90.4741 84.8093L94.0869 67.6962C94.9794 63.4685 96.8523 59.5806 99.4866 56.3042C102.12 53.0283 105.514 50.3649 109.45 48.5854C114.098 46.4844 119.671 45.4015 125.743 47.129C130.141 48.3806 134.806 51.1099 139.566 56.0222V56.0227C140.547 57.0349 141.453 58.1133 142.281 59.2502C143.108 60.3865 143.855 61.5812 144.517 62.8249C149.02 71.2827 155.631 76.6625 162.669 79.3555L162.44 80.1706C155.2 77.4281 148.389 71.9216 143.751 63.233C143.108 62.0254 142.38 60.8659 141.576 59.7632C140.772 58.6605 139.891 57.6137 138.938 56.6317C134.306 51.8603 129.776 49.1989 125.499 47.9863C119.655 46.3296 114.294 47.3858 109.824 49.4116C106.022 51.1341 102.744 53.7115 100.202 56.8791C97.6606 60.0461 95.855 63.8034 94.9967 67.8876L91.3992 85.0042C91.2424 85.7507 91.1707 86.5096 91.183 87.2675C91.1954 88.0254 91.2924 88.7818 91.4739 89.5223L92.072 91.9647C92.257 92.7206 92.3748 93.4898 92.4247 94.2635C92.4747 95.0372 92.4569 95.8154 92.3703 96.5891L91.3215 105.992C91.2429 106.698 91.2231 107.407 91.2617 108.114C91.3003 108.82 91.3972 109.524 91.5521 110.216L97.4524 136.586C97.9302 138.723 98.789 140.736 99.9704 142.537C101.152 144.339 102.656 145.928 104.425 147.218L119.841 158.454C120.873 159.207 122.019 159.769 123.226 160.126C124.432 160.483 125.7 160.634 126.975 160.565L140.273 159.837C141.274 159.782 142.257 159.582 143.192 159.248C144.126 158.914 145.012 158.446 145.821 157.854C149.328 155.265 155.677 150.33 160.929 144.915C164.313 141.426 167.245 137.742 168.629 134.354C170.256 130.377 171.215 124.017 171.784 117.403Z" fill="#8C3C46"/>
<path d="M189.77 77.2467C183.012 82.3065 173.116 83.7342 163.754 80.6359C163.314 80.4906 162.877 80.3354 162.44 80.17L162.669 79.3549C163.117 79.5265 163.567 79.6871 164.019 79.837C173.104 82.8532 182.715 81.4982 189.28 76.5928C189.966 76.0728 190.507 75.404 190.873 74.6501C191.238 73.8952 191.427 73.0556 191.408 72.1939V72.1914C191.39 71.0333 191.023 70.0217 190.537 69.1802C189.879 68.0434 189.001 67.2137 188.441 66.7547C188.213 66.5741 188.025 66.352 187.887 66.1026C187.748 65.8533 187.658 65.5763 187.627 65.2884C184.685 39.2058 168.63 23.038 150.68 15.9416C137.545 10.7482 123.397 10.4094 112.653 14.592C104.217 17.8759 97.8834 23.9552 95.8403 32.6797C95.7883 32.9014 95.5662 33.0389 95.3451 32.987C95.1234 32.935 94.9859 32.7129 95.0379 32.4918C97.1517 23.5011 103.664 17.2219 112.362 13.8441C123.273 9.60695 137.631 9.94879 150.965 15.2223C169.15 22.4142 185.434 38.773 188.428 65.1973V65.1983C188.449 65.3799 188.505 65.554 188.592 65.7108C188.679 65.8677 188.797 66.0072 188.941 66.1205L188.947 66.1249C189.562 66.6285 190.519 67.5338 191.238 68.7745C191.789 69.7248 192.199 70.8696 192.221 72.1761C192.243 73.1684 192.026 74.1356 191.606 75.0048C191.186 75.8745 190.563 76.6452 189.772 77.2453C189.772 77.2453 189.771 77.2463 189.77 77.2467Z" fill="#623FC6"/>
<path d="M179.032 93.4129C178.015 93.6444 176.973 93.6716 175.964 93.4995L176.126 92.519C177.006 92.6595 177.914 92.6293 178.799 92.4195C180 92.1311 181.549 91.6805 183.333 91.0067C184.669 90.5021 186.138 89.8753 187.684 89.0828C188.23 88.8043 188.711 88.4263 189.105 87.9722C189.5 87.5166 189.811 86.9863 190.01 86.405L190.011 86.403C190.393 85.3137 190.873 83.884 191.298 82.436C191.566 81.5233 191.814 80.6041 191.999 79.7582C192.027 79.6182 192.024 79.4752 191.99 79.3402C191.956 79.2022 191.892 79.0716 191.799 78.9598L190.076 76.9266C189.962 76.7925 189.978 76.5912 190.112 76.4769C190.246 76.3631 190.447 76.379 190.561 76.513L192.334 78.5036C192.5 78.6946 192.618 78.9192 192.683 79.1571C192.75 79.3966 192.761 79.6504 192.716 79.9007C192.715 79.9022 192.715 79.9036 192.715 79.9056C192.547 80.7718 192.319 81.7152 192.067 82.6517C191.671 84.1249 191.217 85.5793 190.855 86.6865C190.63 87.3835 190.273 88.0227 189.812 88.5742C189.349 89.1278 188.778 89.5909 188.13 89.9366L188.129 89.9371C186.555 90.7672 185.061 91.4346 183.695 91.9595C181.867 92.6624 180.27 93.1151 179.036 93.4119C179.035 93.4124 179.034 93.4124 179.032 93.4129Z" fill="#623FC6"/>
<path d="M167.144 87.0902C164.275 83.8074 162.259 79.8073 162.259 79.8073C162.169 79.6559 162.219 79.46 162.371 79.3705C162.522 79.2805 162.717 79.3304 162.807 79.4818C162.807 79.4818 164.866 83.3809 167.751 86.5495C169.411 88.3739 171.413 90.2454 173.608 91.5929L173.102 92.4037C170.86 90.9701 168.82 89.0081 167.144 87.0902Z" fill="#8C3C46"/>
<path d="M175.964 93.5C174.958 93.3283 173.985 92.9602 173.104 92.4052L173.608 91.5934C174.386 92.0688 175.243 92.379 176.126 92.5195L175.964 93.5Z" fill="#623FC6"/>
<path opacity="0.6" d="M116.165 83.5469L119.849 84.9415L122.608 87.8823L123.882 90.6869L124.276 93.8401L122.138 100.92L120.577 103.012C119.94 103.502 118.649 104.498 118.576 104.558C118.503 104.619 116.211 105.321 115.074 105.665H104.174L99.914 104.695L97.1094 101.86L94.4413 95.7048L93.9861 89.9744L94.1227 87.0333L96.0936 85.2445L102.537 84.6078L113.603 83.7133L116.165 83.5469Z" fill="url(#paint20_linear_3129_7366)"/>
<path d="M94.2469 94.0202L100.029 84.9531H99.3883L95.5118 85.4787L94.0171 87.7291V90.8664L94.2469 94.0202Z" fill="url(#paint21_linear_3129_7366)"/>
<path fill-rule="evenodd" clip-rule="evenodd" d="M102.048 84.7229C103.074 84.6877 104.688 84.5665 105.911 84.4629L96.0104 99.244L95.5908 98.9629L94.7024 95.6887L102.048 84.7229Z" fill="url(#paint22_linear_3129_7366)"/>
<path opacity="0.6" d="M143.333 83.5469L139.649 84.9415L136.89 87.8823L135.616 90.6869L135.222 93.8401L137.36 100.92L138.921 103.012C139.558 103.502 140.85 104.498 140.922 104.558C140.995 104.619 143.287 105.321 144.424 105.665H155.324L159.584 104.695L162.037 101.86L164.705 95.7048L165.512 89.9744L164.89 86.7457L162.877 84.6078L156.905 84.1264L145.895 83.7133L143.333 83.5469Z" fill="url(#paint23_linear_3129_7366)"/>
<path d="M135.613 94.4787L144.472 83.7709H143.353L139.311 84.846L136.559 88.0282L135.613 90.9524V94.4787Z" fill="url(#paint24_linear_3129_7366)"/>
<path fill-rule="evenodd" clip-rule="evenodd" d="M152.299 94.5722L149.887 94.8186C149.432 94.8849 148.975 94.8631 148.524 94.8077C148.344 94.7859 148.164 94.7612 147.985 94.7285C147.715 94.6786 147.447 94.6237 147.185 94.5321L145.65 94.074C145.584 94.0458 145.508 94.076 145.479 94.1413C145.451 94.2071 145.481 94.2833 145.547 94.3115L146.932 95.1169C147.215 95.2648 147.506 95.389 147.811 95.4755C148.015 95.5339 148.224 95.575 148.436 95.5962C148.96 95.6492 149.492 95.5957 150.011 95.475L152.347 94.8265C152.417 94.8131 152.464 94.7454 152.45 94.6751C152.437 94.6054 152.37 94.5588 152.299 94.5722Z" fill="#3F4963"/>
<path fill-rule="evenodd" clip-rule="evenodd" d="M157.84 92.2152C157.84 92.2152 156.342 89.8065 153.141 88.0716C152.126 87.521 150.94 87.0367 149.578 86.7315C148.796 86.5564 147.954 86.4485 147.056 86.4075C146.498 86.3956 145.945 86.4698 145.423 86.6444C144.906 86.8171 144.421 87.0798 143.986 87.4221C143.982 87.4251 143.979 87.4275 143.975 87.4305C143.698 87.6769 143.389 87.9554 143.07 88.2735C142.792 88.551 142.51 88.8548 142.232 89.1862C142.171 89.2505 142.173 89.3519 142.237 89.4128C142.301 89.4741 142.403 89.4716 142.464 89.4078C142.773 89.1229 143.086 88.8681 143.388 88.6326C143.734 88.362 144.063 88.1231 144.359 87.9143L144.347 87.9227C144.745 87.661 145.182 87.4795 145.636 87.3608C146.084 87.244 146.55 87.197 147.018 87.2302C147.018 87.2302 147.019 87.2302 147.019 87.2307C147.87 87.2648 148.665 87.3751 149.41 87.5245C150.708 87.7857 151.85 88.1879 152.838 88.6638C155.993 90.1855 157.574 92.3933 157.574 92.3933C157.623 92.467 157.722 92.4868 157.796 92.4379C157.87 92.3889 157.889 92.289 157.84 92.2152Z" fill="#3F4963"/>
<ellipse cx="148.055" cy="91.9618" rx="2.04908" ry="1.8898" fill="#3F4963"/>
<path fill-rule="evenodd" clip-rule="evenodd" d="M140.288 96.4128C140.288 96.4128 140.555 97.0059 141.31 97.8563C141.539 98.115 141.814 98.397 142.147 98.6824C142.289 98.8046 142.444 98.9253 142.61 99.0441C142.764 99.1534 142.928 99.2602 143.102 99.3641C143.562 99.6387 144.084 99.894 144.668 100.149C144.72 100.178 144.786 100.159 144.815 100.107C144.844 100.054 144.825 99.9884 144.773 99.9592C144.346 99.6674 143.974 99.372 143.621 99.0945C143.357 98.8867 143.114 98.6864 142.882 98.4984C142.71 98.3599 142.546 98.2298 142.39 98.1051C142.118 97.8874 141.873 97.6891 141.66 97.5036C140.842 96.7922 140.475 96.3029 140.475 96.3029C140.445 96.251 140.378 96.2337 140.327 96.2638C140.275 96.2945 140.258 96.3608 140.288 96.4128Z" fill="#3F4963"/>
<ellipse opacity="0.8" cx="147.104" cy="91.9612" rx="0.575336" ry="0.530615" transform="rotate(9.65631 147.104 91.9612)" fill="white"/>
<path fill-rule="evenodd" clip-rule="evenodd" d="M151.17 83.9502C149.585 83.9201 147.806 83.8779 147.729 83.8448C147.69 83.8281 147.55 83.7971 147.368 83.7612L136.318 97.1945L137.51 100.558L151.17 83.9502Z" fill="url(#paint25_linear_3129_7366)"/>
<path fill-rule="evenodd" clip-rule="evenodd" d="M96.9803 84.7049C96.1146 84.7751 95.335 85.1476 94.7463 85.7175C94.1561 86.2884 93.7593 87.0587 93.6604 87.9234L93.6599 87.9239C93.4437 89.8102 93.4714 91.7088 93.7361 93.5734C94.0017 95.4399 94.5054 97.2727 95.2395 99.0259L95.8653 100.52C96.5687 102.201 97.7417 103.589 99.1941 104.558C100.649 105.529 102.384 106.078 104.209 106.083L114.303 106.108C116.144 106.111 117.895 105.56 119.363 104.584C120.832 103.607 122.017 102.203 122.726 100.504C122.726 100.503 122.727 100.502 122.727 100.501C123.098 99.5914 123.466 98.5782 123.795 97.4662C124.082 96.497 124.341 95.4532 124.55 94.3387C124.55 94.3382 124.55 94.3382 124.55 94.3382C124.746 93.2924 124.736 92.2288 124.53 91.2047C124.325 90.1817 123.925 89.1973 123.342 88.3088C123.341 88.3073 123.34 88.3063 123.339 88.3053C123.024 87.8344 122.706 87.399 122.389 86.9988C122.031 86.5476 121.675 86.1405 121.325 85.7754C120.421 84.8325 119.328 84.1197 118.136 83.6724C116.945 83.2257 115.655 83.0432 114.356 83.1589C114.358 83.1589 96.9803 84.7049 96.9803 84.7049ZM97.0451 85.4638L114.434 84.0692C115.593 83.9742 116.743 84.1464 117.803 84.552C118.86 84.9572 119.829 85.5968 120.627 86.4408C120.955 86.7871 121.289 87.1734 121.624 87.6014C121.923 87.9833 122.222 88.3983 122.518 88.847C123.027 89.6311 123.374 90.4983 123.55 91.3992C123.726 92.299 123.731 93.2325 123.556 94.1497C123.349 95.2276 123.095 96.2373 122.815 97.1743C122.493 98.2498 122.137 99.2298 121.776 100.109C121.148 101.617 120.097 102.862 118.795 103.731C117.492 104.601 115.938 105.095 114.303 105.097L104.209 105.122C102.574 105.127 101.018 104.642 99.7091 103.781C98.3981 102.917 97.3345 101.678 96.6909 100.171L96.0543 98.6811C95.3364 97.0011 94.8403 95.2435 94.5716 93.4517C94.3025 91.6579 94.2605 89.83 94.4539 88.0115V88.011C94.5261 87.3327 94.8323 86.7272 95.2909 86.2761C95.751 85.8234 96.3634 85.5246 97.0451 85.4638Z" fill="#1B2C44"/>
<path fill-rule="evenodd" clip-rule="evenodd" d="M161.584 84.0842L144.494 83.1379C143.165 83.0651 141.856 83.3026 140.663 83.8097C139.467 84.3177 138.387 85.0969 137.515 86.1056C137.514 86.106 137.514 86.1065 137.513 86.107C137.28 86.3796 137.045 86.675 136.807 86.9925C136.591 87.2785 136.374 87.5832 136.153 87.9058C136.151 87.9087 136.149 87.9117 136.147 87.9142C135.581 88.7794 135.188 89.7357 134.979 90.73C134.77 91.7258 134.747 92.7603 134.917 93.7808C134.918 93.7813 134.918 93.7818 134.918 93.7818C135.111 94.9206 135.346 95.9961 135.607 97.0008C135.904 98.1451 136.235 99.1973 136.569 100.148C136.569 100.149 136.569 100.149 136.569 100.15C137.217 101.966 138.401 103.482 139.906 104.541C141.41 105.6 143.236 106.203 145.163 106.201L154.805 106.177C156.63 106.171 158.366 105.62 159.82 104.649C161.271 103.679 162.444 102.292 163.147 100.612L163.706 99.2745C164.461 97.4688 164.984 95.5835 165.266 93.6621C165.547 91.7432 165.588 89.7886 165.384 87.8444L165.364 87.6559C165.26 86.6745 164.808 85.8033 164.132 85.1666C163.459 84.5324 162.567 84.1297 161.584 84.0842ZM161.546 84.8179C162.345 84.8619 163.068 85.1948 163.61 85.7157C164.151 86.2342 164.51 86.9411 164.587 87.7346L164.605 87.9231C164.786 89.8015 164.729 91.6877 164.441 93.5379C164.155 95.3861 163.637 97.1987 162.896 98.9316L162.326 100.264C161.682 101.771 160.618 103.011 159.306 103.874C157.997 104.734 156.44 105.218 154.805 105.213L145.163 105.189C143.451 105.187 141.832 104.645 140.497 103.703C139.163 102.761 138.111 101.418 137.536 99.8053C137.209 98.8802 136.886 97.8562 136.593 96.7426C136.336 95.7656 136.101 94.7203 135.908 93.6121C135.753 92.7157 135.77 91.807 135.948 90.9309C136.127 90.0547 136.467 89.2113 136.96 88.447C137.17 88.1368 137.375 87.8439 137.579 87.5689C137.803 87.2666 138.023 86.9861 138.242 86.7269C139.012 85.8241 139.969 85.1241 141.029 84.664C142.093 84.2024 143.26 83.9803 144.449 84.0357L161.546 84.8179Z" fill="#1B2C44"/>
<path fill-rule="evenodd" clip-rule="evenodd" d="M107.566 94.8265L109.909 95.4389C110.425 95.5586 110.952 95.6076 111.474 95.5591C111.736 95.5344 111.997 95.4854 112.249 95.4087C112.501 95.3326 112.741 95.2272 112.977 95.1065L114.367 94.3115C114.432 94.2833 114.462 94.2071 114.434 94.1413C114.405 94.076 114.329 94.0458 114.264 94.074L112.733 94.5425C112.515 94.6207 112.291 94.6726 112.067 94.7236C111.844 94.7745 111.62 94.8161 111.394 94.8453C110.939 94.9041 110.478 94.9215 110.019 94.8547L107.614 94.5722C107.544 94.5588 107.477 94.6054 107.463 94.6751C107.45 94.7454 107.496 94.8131 107.566 94.8265Z" fill="#3F4963"/>
<mask id="mask5_3129_7366" style="mask-type:alpha" maskUnits="userSpaceOnUse" x="98" y="75" width="25" height="9">
<path d="M98.6221 82.6446C98.5616 82.5498 98.5837 82.4318 98.6754 82.3599L98.6763 82.3351C100.459 80.6939 102.105 79.4427 103.573 78.4891C105.998 76.914 107.941 76.1477 109.216 75.7723C109.216 75.7723 109.217 75.7723 109.217 75.7718C109.7 75.6327 110.194 75.5445 110.692 75.5075C111.19 75.4709 111.692 75.486 112.19 75.5529L112.191 75.553C114.017 75.8052 115.654 76.1477 117.072 76.5184C119.132 77.0578 120.735 77.6549 121.8 78.1016C121.806 78.1038 121.811 78.1065 121.817 78.1091C122.064 78.2264 122.277 78.3979 122.442 78.6069C122.608 78.8157 122.726 79.0625 122.783 79.33C122.841 79.5974 122.835 79.8709 122.77 80.1294C122.706 80.3875 122.583 80.6306 122.407 80.8391C122.195 81.0938 121.959 81.367 121.706 81.6421C121.469 81.9009 121.216 82.1611 120.955 82.4106C120.951 82.4144 120.946 82.4182 120.942 82.422C120.572 82.7463 120.132 82.9636 119.666 83.0613C119.201 83.1584 118.712 83.1378 118.245 82.9894C114.641 81.8456 111.473 81.3976 108.617 81.3667C104.96 81.3269 101.812 81.9721 98.9294 82.7576C98.81 82.7865 98.683 82.7393 98.6221 82.6446Z" fill="#1B2C44"/>
</mask>
<g mask="url(#mask5_3129_7366)">
<path d="M98.6221 82.6446C98.5616 82.5498 98.5837 82.4318 98.6754 82.3599L98.6763 82.3351C100.459 80.6939 102.105 79.4427 103.573 78.4891C105.998 76.914 107.941 76.1477 109.216 75.7723C109.216 75.7723 109.217 75.7723 109.217 75.7718C109.7 75.6327 110.194 75.5445 110.692 75.5075C111.19 75.4709 111.692 75.486 112.19 75.5529L112.191 75.553C114.017 75.8052 115.654 76.1477 117.072 76.5184C119.132 77.0578 120.735 77.6549 121.8 78.1016C121.806 78.1038 121.811 78.1065 121.817 78.1091C122.064 78.2264 122.277 78.3979 122.442 78.6069C122.608 78.8157 122.726 79.0625 122.783 79.33C122.841 79.5974 122.835 79.8709 122.77 80.1294C122.706 80.3875 122.583 80.6306 122.407 80.8391C122.195 81.0938 121.959 81.367 121.706 81.6421C121.469 81.9009 121.216 82.1611 120.955 82.4106C120.951 82.4144 120.946 82.4182 120.942 82.422C120.572 82.7463 120.132 82.9636 119.666 83.0613C119.201 83.1584 118.712 83.1378 118.245 82.9894C114.641 81.8456 111.473 81.3976 108.617 81.3667C104.96 81.3269 101.812 81.9721 98.9294 82.7576C98.81 82.7865 98.683 82.7393 98.6221 82.6446Z" fill="#1B2C44"/>
<path d="M101.085 87.1162L105.387 73.7728C103.95 73.6084 100.985 73.3439 100.623 73.6016C100.262 73.8593 95.9129 80.1078 93.7833 83.1999L101.085 87.1162Z" fill="url(#paint26_linear_3129_7366)"/>
<path d="M108.018 85.5936L112.074 73.0664C110.637 72.902 107.744 72.9108 107.744 72.9108L103.405 84.2933L108.018 85.5936Z" fill="url(#paint27_linear_3129_7366)"/>
</g>
<mask id="mask6_3129_7366" style="mask-type:alpha" maskUnits="userSpaceOnUse" x="133" y="75" width="25" height="9">
<path d="M145.322 75.4122L145.32 75.4124C145.436 75.394 147.35 75.0982 150.671 76.5895C152.494 77.4082 154.755 78.7731 157.385 81.0388C157.577 81.1987 157.454 81.521 157.157 81.4685C154.225 80.7762 151.188 80.4862 147.646 80.8909C144.914 81.2033 141.881 81.9266 138.364 83.2108L138.363 83.2114C137.899 83.3777 137.408 83.4154 136.939 83.3336C136.469 83.2519 136.02 83.0492 135.638 82.7358C135.634 82.7326 135.63 82.7289 135.626 82.7248C135.356 82.4844 135.096 82.2331 134.851 81.9827C134.59 81.7165 134.346 81.4516 134.126 81.204C133.943 81.0013 133.813 80.7628 133.74 80.507C133.666 80.2507 133.652 79.9776 133.7 79.7084C133.749 79.4393 133.859 79.1887 134.017 78.9745C134.176 78.7603 134.383 78.5819 134.626 78.4566C134.627 78.456 134.629 78.4553 134.63 78.4547C134.634 78.4525 134.638 78.4504 134.643 78.4486C135.788 77.9245 137.565 77.2008 139.881 76.5511C141.456 76.1096 143.28 75.7034 145.322 75.4122Z" fill="#1B2C44"/>
</mask>
<g mask="url(#mask6_3129_7366)">
<path d="M145.322 75.4122L145.32 75.4124C145.436 75.394 147.35 75.0982 150.671 76.5895C152.494 77.4082 154.755 78.7731 157.385 81.0388C157.577 81.1987 157.454 81.521 157.157 81.4685C154.225 80.7762 151.188 80.4862 147.646 80.8909C144.914 81.2033 141.881 81.9266 138.364 83.2108L138.363 83.2114C137.899 83.3777 137.408 83.4154 136.939 83.3336C136.469 83.2519 136.02 83.0492 135.638 82.7358C135.634 82.7326 135.63 82.7289 135.626 82.7248C135.356 82.4844 135.096 82.2331 134.851 81.9827C134.59 81.7165 134.346 81.4516 134.126 81.204C133.943 81.0013 133.813 80.7628 133.74 80.507C133.666 80.2507 133.652 79.9776 133.7 79.7084C133.749 79.4393 133.859 79.1887 134.017 78.9745C134.176 78.7603 134.383 78.5819 134.626 78.4566C134.627 78.456 134.629 78.4553 134.63 78.4547C134.634 78.4525 134.638 78.4504 134.643 78.4486C135.788 77.9245 137.565 77.2008 139.881 76.5511C141.456 76.1096 143.28 75.7034 145.322 75.4122Z" fill="#1B2C44"/>
<path d="M137.991 86.2156L138.562 75.8045C136.91 75.0342 133.504 73.4695 133.091 73.3731C132.576 73.2525 128.079 82.1402 127.863 82.389C127.689 82.5881 134.542 85.0231 137.991 86.2156Z" fill="url(#paint28_linear_3129_7366)"/>
<path d="M145.338 84.7653L146.988 71.9014C146.988 71.9014 142.278 72.3502 141.865 72.2537L140.197 85.9767L145.338 84.7653Z" fill="url(#paint29_linear_3129_7366)"/>
</g>
<path fill-rule="evenodd" clip-rule="evenodd" d="M123.671 89.7537C124.334 88.9192 125.269 88.3221 126.33 87.9337C127.326 87.5691 128.438 87.4118 129.564 87.4321C130.438 87.4479 131.319 87.5696 132.167 87.8189C133.431 88.1905 134.623 88.8212 135.562 89.7804C135.691 89.9214 135.91 89.9308 136.051 89.8017C136.192 89.6721 136.202 89.4529 136.072 89.3119C135.102 88.185 133.839 87.3772 132.457 86.9043C131.53 86.5871 130.549 86.4194 129.58 86.4061C128.583 86.3927 127.597 86.5441 126.688 86.836C125.214 87.3099 123.942 88.1613 123.115 89.3392C123.001 89.4925 123.033 89.7097 123.186 89.824C123.34 89.9382 123.557 89.9066 123.671 89.7537Z" fill="#1B2C44"/>
<path fill-rule="evenodd" clip-rule="evenodd" d="M124.451 91.9105C125.038 91.0978 125.856 90.5145 126.778 90.1296C127.671 89.7571 128.667 89.5939 129.676 89.6196C130.07 89.6295 130.464 89.6646 130.857 89.7304C131.246 89.7957 131.632 89.8862 132.011 90.0104C133.123 90.3735 134.172 90.9958 135.006 91.9358C135.117 92.0723 135.318 92.0921 135.454 91.9808C135.591 91.8695 135.611 91.6686 135.499 91.5321C134.655 90.4096 133.548 89.6062 132.335 89.1194C131.914 88.9503 131.48 88.8221 131.04 88.7346C130.594 88.6455 130.142 88.5985 129.694 88.5941C128.775 88.5857 127.867 88.7435 127.036 89.0551C125.745 89.5394 124.636 90.3879 123.92 91.5573C123.823 91.7043 123.863 91.9021 124.009 91.9996C124.156 92.097 124.354 92.057 124.451 91.9105Z" fill="#1B2C44"/>
<path d="M125.094 88.14C124.599 88.5291 123.594 89.3406 123.533 89.4741L124.049 91.4601L125.928 89.9593L129.112 89.1103L132.902 89.8683L135.267 91.7785L135.843 89.5954L134.494 88.2917L131.598 87.094L127.793 86.9878L125.094 88.14Z" fill="#1B2C44"/>
<path fill-rule="evenodd" clip-rule="evenodd" d="M117.048 129.924C117.048 129.924 117.274 130.438 118.284 130.764C118.783 130.925 119.477 131.026 120.445 130.995C121.057 130.964 121.619 130.852 122.174 130.708C122.532 130.616 122.885 130.513 123.246 130.409C123.656 130.29 124.076 130.176 124.529 130.092C124.929 130.018 125.351 129.959 125.822 129.953C126.252 129.948 126.716 129.976 127.235 130.057C127.866 130.157 128.564 130.317 129.361 130.589C129.426 130.617 129.502 130.588 129.531 130.522C129.56 130.458 129.53 130.381 129.465 130.352C128.661 129.91 127.95 129.6 127.293 129.398C126.379 129.116 125.588 129.042 124.873 129.069C124.529 129.082 124.203 129.123 123.89 129.184C123.565 129.248 123.255 129.335 122.952 129.431C122.506 129.573 122.079 129.738 121.641 129.884C121.232 130.02 120.819 130.149 120.365 130.221C119.501 130.373 118.866 130.369 118.397 130.293C117.536 130.154 117.274 129.798 117.274 129.798C117.238 129.735 117.16 129.713 117.097 129.748C117.035 129.783 117.013 129.862 117.048 129.924Z" fill="#1B2C44"/>
<path fill-rule="evenodd" clip-rule="evenodd" d="M144.777 129.098C144.777 129.098 144.073 129.655 142.825 129.889C142.244 129.998 141.548 130.031 140.742 129.897C139.947 129.786 139.254 129.56 138.531 129.387C138.224 129.313 137.913 129.25 137.589 129.205C137.128 129.141 136.644 129.111 136.119 129.14C135.417 129.18 134.644 129.316 133.75 129.628C133.1 129.854 132.396 130.173 131.6 130.605C131.535 130.634 131.506 130.71 131.534 130.775C131.563 130.841 131.64 130.87 131.705 130.842C133.146 130.331 134.281 130.13 135.248 130.072C135.83 130.037 136.343 130.065 136.823 130.123C137.188 130.166 137.532 130.229 137.868 130.296C138.139 130.35 138.404 130.406 138.671 130.46C139.31 130.588 139.949 130.704 140.655 130.749C141.569 130.787 142.342 130.661 142.97 130.452C144.287 130.016 144.954 129.286 144.954 129.286C145.006 129.237 145.008 129.155 144.959 129.103C144.911 129.051 144.828 129.049 144.777 129.098Z" fill="#1B2C44"/>
<path fill-rule="evenodd" clip-rule="evenodd" d="M130.127 125.297C129.953 125.436 129.743 125.508 129.53 125.527C129.326 125.545 129.12 125.496 128.932 125.395L127.991 124.896C127.801 124.799 127.598 124.736 127.39 124.706C127.18 124.676 126.966 124.686 126.755 124.726C126.742 124.729 126.729 124.732 126.716 124.736C126.541 124.794 126.319 124.868 126.055 124.98C125.665 125.144 125.184 125.381 124.605 125.707C123.821 126.149 122.868 126.756 121.734 127.587C121.679 127.623 121.663 127.697 121.699 127.752C121.734 127.807 121.808 127.823 121.863 127.787C122.827 127.244 123.662 126.831 124.375 126.508C124.983 126.233 125.5 126.035 125.925 125.877C126.354 125.717 126.688 125.602 126.933 125.531C127.057 125.504 127.177 125.497 127.295 125.508C127.42 125.52 127.544 125.545 127.661 125.596L128.645 126.004C128.96 126.131 129.296 126.17 129.615 126.104C129.926 126.04 130.221 125.895 130.453 125.659C130.86 125.243 130.66 124.876 130.127 125.297Z" fill="#1B2C44"/>
<path fill-rule="evenodd" clip-rule="evenodd" d="M124.854 138.828C124.854 138.828 125.672 138.512 127.13 138.219C127.586 138.127 128.102 138.039 128.677 137.956C129.775 137.799 131.082 137.674 132.572 137.703C132.572 137.703 132.572 137.703 132.573 137.703C133.151 137.705 133.722 137.788 134.28 137.923C134.559 137.992 134.833 138.077 135.107 138.168C135.382 138.259 135.657 138.346 135.924 138.463C135.928 138.465 135.931 138.466 135.935 138.468L137.255 138.979C137.395 139.054 137.57 139 137.644 138.86C137.719 138.719 137.665 138.545 137.525 138.47L136.323 137.687C136.053 137.516 135.767 137.354 135.465 137.224C135.161 137.094 134.844 136.998 134.524 136.921C133.885 136.766 133.224 136.705 132.562 136.721C131.017 136.78 129.663 136.96 128.54 137.215C127.955 137.348 127.434 137.499 126.979 137.653C125.525 138.143 124.751 138.621 124.751 138.621C124.694 138.65 124.671 138.719 124.7 138.776C124.728 138.834 124.797 138.856 124.854 138.828Z" fill="#1B2C44"/>
<path fill-rule="evenodd" clip-rule="evenodd" d="M102.248 92.4291C102.248 92.4291 103.829 90.2118 106.991 88.6921C108.547 87.9451 110.486 87.3653 112.821 87.3168C112.822 87.3168 112.822 87.3168 112.823 87.3168C113.284 87.3015 113.74 87.3693 114.175 87.5014C114.436 87.581 114.688 87.6884 114.933 87.8115C115.096 87.8937 115.259 87.9768 115.414 88.0772L115.398 88.0648L117.39 89.4406C117.443 89.496 117.531 89.4985 117.587 89.445C117.643 89.3916 117.645 89.3036 117.592 89.2477C117.339 88.886 117.092 88.5556 116.826 88.2553C116.525 87.9149 116.216 87.633 115.946 87.3742C115.94 87.3703 115.935 87.3658 115.93 87.3619C115.753 87.2214 115.57 87.0922 115.376 86.9824C115.082 86.8157 114.766 86.6915 114.444 86.5975C113.908 86.4417 113.345 86.3814 112.781 86.4155C110.326 86.5768 108.305 87.2684 106.707 88.1375C103.515 89.8739 102.016 92.2742 102.016 92.2742C101.973 92.338 101.99 92.4251 102.054 92.4676C102.119 92.5102 102.205 92.4929 102.248 92.4291Z" fill="#3F4963"/>
<path fill-rule="evenodd" clip-rule="evenodd" d="M118.103 96.3029C118.103 96.3029 117.737 96.7922 116.919 97.5036C116.705 97.6891 116.461 97.8874 116.189 98.1051C116.033 98.2298 115.868 98.3599 115.697 98.4984C115.465 98.6864 115.221 98.8867 114.957 99.0945C114.605 99.372 114.232 99.6674 113.806 99.9592C113.754 99.9884 113.734 100.054 113.764 100.107C113.792 100.159 113.859 100.178 113.911 100.149C114.495 99.894 115.016 99.6387 115.477 99.3641C115.651 99.2602 115.815 99.1534 115.968 99.0441C116.135 98.9253 116.29 98.8046 116.431 98.6824C116.764 98.397 117.039 98.115 117.269 97.8563C118.023 97.0059 118.291 96.4128 118.291 96.4128C118.321 96.3608 118.303 96.2945 118.252 96.2638C118.2 96.2337 118.133 96.251 118.103 96.3029Z" fill="#3F4963"/>
<ellipse cx="111.152" cy="91.9618" rx="2.04908" ry="1.8898" fill="#3F4963"/>
<ellipse opacity="0.8" cx="110.092" cy="91.9612" rx="0.575336" ry="0.530615" transform="rotate(9.65631 110.092 91.9612)" fill="white"/>
<path fill-rule="evenodd" clip-rule="evenodd" d="M139.106 111.651C139.084 111.533 139.016 111.551 138.97 111.602C138.905 111.674 138.911 111.787 138.983 111.852C138.983 111.852 139.16 112.075 139.458 112.601C139.581 112.818 139.721 113.079 139.877 113.401C139.881 113.409 139.887 113.416 139.892 113.424C140.009 113.616 140.085 113.822 140.15 114.029C140.248 114.34 140.279 114.662 140.269 114.982C140.252 115.515 140.108 116.049 139.766 116.495C139.759 116.505 139.751 116.514 139.744 116.524L139.138 117.41C138.996 117.608 138.81 117.762 138.593 117.848C138.365 117.938 138.114 117.973 137.863 117.923L137.216 117.799C137.122 117.773 137.024 117.829 136.999 117.924C136.972 118.018 137.028 118.116 137.123 118.142L137.743 118.363C138.081 118.482 138.435 118.484 138.769 118.404C139.114 118.321 139.426 118.129 139.681 117.861C139.826 117.707 139.984 117.54 140.139 117.361C140.241 117.245 140.339 117.124 140.435 117.001L140.413 117.03C140.925 116.457 141.218 115.744 141.25 115.016C141.26 114.792 141.242 114.567 141.196 114.347C141.093 113.85 140.869 113.376 140.53 112.964L140.545 112.987C140.253 112.611 140.009 112.324 139.803 112.112C139.553 111.854 139.377 111.709 139.289 111.64C139.259 111.617 139.24 111.602 139.23 111.595C139.156 111.543 139.121 111.584 139.106 111.651Z" fill="#8C3C46"/>
<path fill-rule="evenodd" clip-rule="evenodd" d="M118.481 112.135C118.276 112.348 118.033 112.635 117.743 113.012L117.758 112.99C117.516 113.279 117.334 113.599 117.21 113.939C117.082 114.291 117.025 114.665 117.032 115.036C117.036 115.259 117.066 115.483 117.122 115.701C117.248 116.195 117.496 116.662 117.853 117.062L117.829 117.029C117.919 117.148 118.013 117.264 118.109 117.376C118.256 117.547 118.403 117.707 118.541 117.856C118.81 118.143 119.143 118.345 119.51 118.426C119.866 118.505 120.244 118.49 120.597 118.347L121.716 117.892C121.809 117.861 121.86 117.761 121.829 117.668C121.799 117.575 121.699 117.524 121.606 117.554L120.434 117.849C120.181 117.913 119.925 117.887 119.69 117.802C119.467 117.722 119.275 117.57 119.128 117.369L118.552 116.536C118.545 116.524 118.537 116.513 118.528 116.503C118.36 116.282 118.243 116.038 118.156 115.787C118.067 115.532 118.022 115.268 118.009 115.002C117.997 114.735 118.015 114.466 118.079 114.203C118.143 113.94 118.232 113.679 118.38 113.438C118.385 113.43 118.39 113.423 118.395 113.416C118.551 113.094 118.692 112.833 118.817 112.617C119.117 112.094 119.296 111.872 119.296 111.872C119.369 111.806 119.375 111.694 119.309 111.621C119.217 111.519 118.997 111.598 118.481 112.135Z" fill="#8C3C46"/>
<path fill-rule="evenodd" clip-rule="evenodd" d="M119.966 115.295C120.337 115.157 120.729 115.153 121.09 115.258C121.437 115.36 121.75 115.574 121.979 115.879L123.754 118.209C124.136 118.701 124.62 119.093 125.163 119.368C125.712 119.646 126.325 119.794 126.955 119.811C127.511 119.819 128.139 119.836 128.751 119.836C129.406 119.837 130.041 119.822 130.545 119.816C130.941 119.805 131.33 119.738 131.699 119.608C132.064 119.478 132.41 119.294 132.722 119.057L135.685 115.879C135.846 115.75 136.03 115.66 136.227 115.618C136.43 115.576 136.641 115.576 136.847 115.63L137.678 115.844C137.746 115.867 137.819 115.829 137.841 115.761C137.863 115.694 137.825 115.62 137.757 115.599L136.957 115.287C136.7 115.188 136.428 115.159 136.16 115.186C135.888 115.212 135.625 115.308 135.387 115.459L132.226 118.358C131.976 118.522 131.702 118.641 131.417 118.722C131.135 118.802 130.841 118.836 130.545 118.828C130.041 118.823 129.406 118.807 128.751 118.808C128.139 118.809 127.511 118.826 126.955 118.833C126.463 118.846 125.981 118.753 125.54 118.563C125.091 118.369 124.68 118.087 124.346 117.715L122.372 115.551C122.046 115.197 121.629 114.964 121.18 114.881C120.743 114.8 120.282 114.849 119.863 115.056C119.759 115.132 119.838 115.315 119.966 115.295Z" fill="#8C3C46"/>
<path fill-rule="evenodd" clip-rule="evenodd" d="M99.9308 165.335C99.9308 165.335 95.9521 166.682 92.4318 168.158C90.6247 168.916 88.8645 169.677 87.653 170.192C87.1098 170.432 86.5859 170.712 86.0893 171.034C85.5931 171.355 85.1236 171.717 84.6828 172.113L80.2211 176.188C80.0945 176.299 80.0816 176.492 80.1929 176.618C80.3038 176.745 80.4967 176.758 80.6233 176.647L85.2503 172.762C85.6668 172.407 86.1105 172.088 86.5746 171.801C87.0376 171.515 87.5214 171.263 88.0245 171.05C89.2296 170.52 90.9888 169.756 92.7776 168.957C96.2633 167.4 100.173 165.895 100.173 165.895C100.328 165.828 100.399 165.648 100.332 165.494C100.265 165.34 100.086 165.268 99.9308 165.335Z" fill="#623FC6"/>
<path fill-rule="evenodd" clip-rule="evenodd" d="M198.84 163.804L205.442 171.645C205.591 171.821 205.854 171.844 206.03 171.696C206.206 171.548 206.229 171.284 206.081 171.108L200.088 163.968L226.68 169.739L216.934 171.937C216.371 172.062 215.804 172.159 215.232 172.228C214.661 172.297 214.087 172.338 213.511 172.35C211.415 172.387 209.906 172.415 208.374 172.645C206.909 172.865 205.422 173.268 203.389 174.044C202.913 174.223 202.429 174.384 201.941 174.524C201.451 174.664 200.957 174.785 200.458 174.885C200.457 174.885 200.456 174.886 200.455 174.886C197.105 175.582 189.048 177.307 179.905 179.705C173.283 181.442 166.092 183.532 159.706 185.837C159.424 185.922 154.527 187.411 147.814 190.147C144.344 191.561 140.39 193.309 136.336 195.368C132.608 196.425 129.022 196.319 125.471 195.478C120.415 194.279 115.429 191.599 110.206 188.63C109.852 188.43 109.507 188.215 109.17 187.987C108.833 187.759 108.505 187.518 108.187 187.265C107.256 186.513 105.589 185.42 103.207 184.649C101.665 184.149 99.8208 183.784 97.6817 183.735C96.7631 183.711 95.8449 183.664 94.9287 183.595C94.012 183.526 93.0968 183.435 92.1841 183.322C85.5393 182.511 80.6922 182.02 76.145 181.745C71.7525 181.48 67.6391 181.416 62.4537 181.455C65.1681 180.448 69.9696 178.669 74.925 176.85C78.3454 175.594 81.6018 174.323 84.5328 173.267C84.7377 173.194 84.8445 172.968 84.7708 172.763C84.6971 172.558 84.471 172.451 84.2662 172.525C81.3316 173.575 78.0713 174.84 74.6465 176.089C67.088 178.846 59.8862 181.506 59.8862 181.506C59.6932 181.578 59.5794 181.777 59.617 181.98C59.6546 182.182 59.8322 182.328 60.038 182.326C66.3885 182.262 71.056 182.312 76.091 182.626C80.6225 182.909 85.4512 183.405 92.0718 184.225C92.9989 184.341 93.9279 184.435 94.8594 184.507C95.7905 184.578 96.7235 184.627 97.6575 184.654H97.6589C99.6966 184.704 101.452 185.054 102.921 185.532C105.157 186.26 106.724 187.285 107.599 187.995C107.6 187.996 107.6 187.997 107.601 187.997C107.938 188.267 108.286 188.523 108.642 188.765C108.999 189.007 109.366 189.235 109.74 189.449C115.044 192.472 120.111 195.191 125.249 196.414C128.973 197.301 132.735 197.405 136.647 196.288C136.677 196.28 136.706 196.269 136.734 196.254C140.777 194.201 144.723 192.459 148.182 191.049C155.048 188.251 159.998 186.763 159.998 186.763C160.006 186.76 160.015 186.758 160.024 186.755C166.385 184.453 173.55 182.367 180.148 180.63C189.267 178.23 197.303 176.498 200.645 175.799C201.167 175.693 201.685 175.566 202.198 175.419C202.711 175.271 203.218 175.102 203.718 174.913C203.718 174.913 203.719 174.912 203.72 174.912C205.674 174.163 207.102 173.771 208.512 173.558C210.007 173.332 211.481 173.306 213.529 173.267H213.531C214.137 173.253 214.741 173.21 215.342 173.136C215.943 173.063 216.54 172.961 217.132 172.829L228.857 170.168C229.062 170.121 229.207 169.938 229.205 169.728C229.204 169.518 229.057 169.337 228.851 169.293L199.052 162.872L199.018 162.866C198.893 162.764 198.764 162.668 198.63 162.578C198.222 162.305 197.776 162.088 197.304 161.936L183.856 157.417C183.649 157.35 183.426 157.465 183.359 157.672C183.292 157.879 183.406 158.102 183.613 158.169L197.054 162.71C197.453 162.839 197.83 163.023 198.174 163.255C198.413 163.416 198.636 163.6 198.84 163.804Z" fill="#623FC6"/>
<path fill-rule="evenodd" clip-rule="evenodd" d="M60.366 181.403C60.366 181.403 34.9429 185.676 38.1486 212.314C38.8585 218.428 42.0379 223.986 46.9488 227.697C46.9508 227.698 46.9528 227.7 46.9542 227.701C65.3333 241.188 90.7584 252.76 110.73 263.33C120.333 268.489 131.847 268.646 141.587 263.751C168.975 250.159 224.005 222.699 242.03 212.715C242.035 212.713 242.039 212.71 242.044 212.707C245.329 210.755 247.785 207.666 248.948 204.026C252.275 193.653 249.038 183.29 243.166 176.616C239.22 172.13 233.598 169.296 228.466 169.214C228.182 169.21 227.947 169.437 227.943 169.721C227.938 170.006 228.165 170.24 228.45 170.245C233.314 170.322 238.652 173.045 242.393 177.297C248.051 183.729 251.173 193.715 247.966 203.712V203.712C246.881 207.109 244.59 209.992 241.526 211.816C223.498 221.801 168.501 249.244 141.128 262.828L141.126 262.829C131.685 267.575 120.524 267.422 111.216 262.422C111.215 262.421 111.214 262.421 111.213 262.42C91.2833 251.872 65.9082 240.331 47.5672 226.872C42.8824 223.331 39.8494 218.027 39.1721 212.194C39.1721 212.193 39.1721 212.192 39.1721 212.191C36.0857 186.549 60.5372 182.42 60.5372 182.42C60.8177 182.372 61.0072 182.106 60.9597 181.826C60.9127 181.546 60.6465 181.356 60.366 181.403Z" fill="#623FC6"/>
<path fill-rule="evenodd" clip-rule="evenodd" d="M135.252 112.947C135.252 112.947 133.345 113.576 130.678 113.417C129.823 113.366 128.889 113.237 127.932 112.967C127.384 112.812 126.837 112.603 126.284 112.353C126.283 112.353 126.283 112.353 126.283 112.352C125.978 112.204 125.635 112.101 125.274 112.048C124.903 111.994 124.518 111.983 124.137 112.034C124.134 112.034 124.131 112.035 124.128 112.035C123.864 112.062 123.58 112.108 123.278 112.184C123.017 112.249 122.745 112.332 122.464 112.441C122.405 112.468 122.324 112.458 122.284 112.419C122.243 112.38 122.258 112.327 122.316 112.3C122.585 112.155 122.85 112.037 123.109 111.941C123.422 111.825 123.726 111.745 124.011 111.688C124.453 111.591 124.924 111.562 125.386 111.597C125.857 111.632 126.311 111.742 126.726 111.909C127.246 112.13 127.768 112.299 128.27 112.447C129.149 112.704 129.986 112.869 130.768 112.955C133.272 113.234 135.151 112.789 135.151 112.789C135.216 112.771 135.292 112.791 135.32 112.834C135.348 112.878 135.318 112.929 135.252 112.947Z" fill="#8C3C46"/>
<path fill-rule="evenodd" clip-rule="evenodd" d="M140.828 111.737C140.828 111.737 141.086 112.697 141.775 113.954C142.011 114.385 142.298 114.849 142.648 115.313C142.808 115.524 142.98 115.733 143.171 115.935C143.353 116.129 143.551 116.315 143.762 116.494C144.065 116.752 144.39 116.994 144.743 117.218C145.08 117.431 145.433 117.618 145.81 117.792C145.871 117.829 145.95 117.809 145.987 117.748C146.024 117.687 146.004 117.607 145.943 117.57C145.483 117.221 145.085 116.835 144.703 116.446C144.439 116.176 144.196 115.902 143.957 115.634C143.748 115.399 143.546 115.169 143.354 114.943C143.147 114.701 142.95 114.465 142.766 114.235C141.646 112.834 141.07 111.647 141.07 111.647C141.045 111.58 140.971 111.546 140.904 111.571C140.837 111.595 140.803 111.67 140.828 111.737Z" fill="#8C3C46"/>
<path fill-rule="evenodd" clip-rule="evenodd" d="M117.453 111.677C117.453 111.677 117.041 112.692 116.071 114.101C115.921 114.318 115.759 114.545 115.587 114.783C115.431 115 115.265 115.224 115.093 115.458C114.901 115.718 114.704 115.989 114.491 116.266C114.195 116.65 113.884 117.048 113.528 117.445C113.462 117.507 113.459 117.61 113.521 117.676C113.583 117.742 113.687 117.745 113.753 117.683C114.356 117.194 114.893 116.709 115.349 116.211C115.553 115.989 115.737 115.763 115.906 115.54C116.026 115.381 116.136 115.221 116.24 115.064C116.532 114.617 116.769 114.191 116.964 113.804C117.571 112.595 117.766 111.776 117.766 111.776C117.793 111.69 117.745 111.598 117.659 111.57C117.573 111.543 117.481 111.591 117.453 111.677Z" fill="#8C3C46"/>
<path fill-rule="evenodd" clip-rule="evenodd" d="M116.094 169.717C116.022 169.553 116.083 169.362 116.237 169.27C116.413 169.163 116.645 169.232 116.74 169.415C120.697 177.019 123.857 179.942 125.042 180.998C125.918 181.779 125.367 182.781 124.311 181.84C120.669 178.593 118.083 174.234 116.094 169.717Z" fill="#C24353"/>
<path d="M123.299 244.131L128.036 244.236L127.925 249.199L123.189 249.093L123.299 244.131Z" fill="white"/>
<path d="M124.098 208.177L128.834 208.282L128.713 213.729L123.977 213.624L124.098 208.177Z" fill="white"/>
<path fill-rule="evenodd" clip-rule="evenodd" d="M125.793 241.213C127.466 241.25 129.084 240.623 130.293 239.471C131.502 238.318 132.202 236.734 132.239 235.068L136.443 235.161C136.381 237.939 135.214 240.579 133.2 242.5C131.185 244.42 128.488 245.465 125.7 245.403C122.913 245.341 120.264 244.178 118.337 242.17C116.41 240.162 115.362 237.472 115.423 234.694L119.627 234.788C119.59 236.454 120.219 238.068 121.375 239.273C122.532 240.478 124.121 241.176 125.793 241.213Z" fill="white"/>
<path fill-rule="evenodd" clip-rule="evenodd" d="M125.965 228.327C129.252 228.4 131.976 225.803 132.049 222.527C132.121 219.25 129.515 216.535 126.228 216.462C122.941 216.389 120.217 218.986 120.145 222.263C120.072 225.539 122.678 228.254 125.965 228.327ZM125.865 232.847C131.656 232.976 136.455 228.4 136.584 222.627C136.712 216.855 132.12 212.071 126.329 211.942C120.537 211.813 115.738 216.389 115.61 222.162C115.482 227.935 120.073 232.719 125.865 232.847Z" fill="white"/>
<path fill-rule="evenodd" clip-rule="evenodd" d="M124.046 80.8961C124.046 80.8961 123.785 81.2597 123.293 81.7831C123.157 81.9266 123.003 82.0807 122.837 82.249C122.74 82.3472 122.639 82.4506 122.535 82.5588C122.391 82.7086 122.243 82.8675 122.082 83.0289C121.86 83.2516 121.629 83.4838 121.362 83.708C121.282 83.7619 121.261 83.8706 121.314 83.9508C121.368 84.0305 121.477 84.0521 121.557 83.9983C121.946 83.7909 122.298 83.5788 122.607 83.344C122.841 83.1667 123.049 82.983 123.228 82.7957C123.437 82.5757 123.604 82.3519 123.745 82.1483C124.185 81.514 124.355 81.0591 124.355 81.0591C124.4 80.9737 124.367 80.8681 124.281 80.8233C124.196 80.7784 124.09 80.8111 124.046 80.8961Z" fill="#1B2C44"/>
<path fill-rule="evenodd" clip-rule="evenodd" d="M132.209 81.6815C132.209 81.6815 132.746 82.4206 133.712 83.2634C133.919 83.4441 134.152 83.6227 134.401 83.7991C134.741 84.0399 135.116 84.2685 135.512 84.4913C135.612 84.5551 135.745 84.5266 135.809 84.4265C135.873 84.327 135.844 84.1942 135.745 84.13C135.234 83.7628 134.786 83.3624 134.37 83.0106C134.037 82.7287 133.726 82.4775 133.466 82.2509C132.886 81.7452 132.534 81.3997 132.534 81.3997C132.456 81.3101 132.32 81.3006 132.231 81.3786C132.141 81.456 132.131 81.5919 132.209 81.6815Z" fill="#1B2C44"/>
<ellipse cx="126.06" cy="101.096" rx="0.720663" ry="7.14138" transform="rotate(3.77733 126.06 101.096)" fill="url(#paint30_linear_3129_7366)"/>
<ellipse opacity="0.56" rx="12.9186" ry="8.2853" transform="matrix(-0.935284 0.353898 0.353898 0.935284 112.235 63.1486)" fill="url(#paint31_linear_3129_7366)"/>
<ellipse cx="125.92" cy="131.779" rx="1.62067" ry="1.13772" fill="url(#paint32_linear_3129_7366)"/>
<path fill-rule="evenodd" clip-rule="evenodd" d="M106.04 92.0948C106.299 91.8629 106.592 91.6737 106.907 91.5343C107.222 91.3943 107.558 91.3032 107.905 91.2669L112.676 90.7538C113.317 90.679 113.958 90.7437 114.56 90.9335C115.168 91.1245 115.738 91.4362 116.226 91.8681L117.496 92.9879C117.621 93.1043 117.817 93.0969 117.933 92.9721C118.049 92.8472 118.042 92.6517 117.917 92.5353L116.708 91.3499C116.164 90.8191 115.517 90.4198 114.818 90.168C114.113 89.9144 113.353 89.818 112.59 89.8807L107.811 90.3151C107.362 90.3569 106.927 90.4701 106.519 90.6457C106.109 90.8215 105.728 91.0622 105.389 91.3592L103.114 93.3498C102.905 93.5352 102.885 93.8562 103.071 94.0659C103.964 95.0789 105.385 92.7498 106.04 92.0948Z" fill="#3F4963"/>
<path fill-rule="evenodd" clip-rule="evenodd" d="M153.324 92.0948C153.064 91.8629 152.772 91.6737 152.457 91.5343C152.142 91.3943 151.805 91.3032 151.458 91.2669L146.687 90.7538C146.046 90.679 145.405 90.7437 144.804 90.9335C144.196 91.1245 143.625 91.4362 143.137 91.8681L141.867 92.9879C141.742 93.1043 141.547 93.0969 141.431 92.9721C141.314 92.8472 141.322 92.6517 141.447 92.5353L142.656 91.3499C143.2 90.8191 143.846 90.4198 144.545 90.168C145.25 89.9144 146.01 89.818 146.774 89.8807L151.553 90.3151C152.001 90.3569 152.436 90.4701 152.845 90.6457C153.254 90.8215 153.635 91.0622 153.974 91.3592L156.249 93.3498C156.459 93.5352 156.478 93.8562 156.292 94.0659C155.399 95.0789 153.979 92.7498 153.324 92.0948Z" fill="#3F4963"/>
<defs>
<linearGradient id="paint0_linear_3129_7366" x1="-47.4325" y1="-25.7499" x2="196.739" y2="101.35" gradientUnits="userSpaceOnUse">
<stop stop-color="#493E86"/>
<stop offset="1" stop-color="#222644"/>
</linearGradient>
<linearGradient id="paint1_linear_3129_7366" x1="42.9584" y1="1.23953" x2="222.054" y2="116.97" gradientUnits="userSpaceOnUse">
<stop stop-color="#493E86"/>
<stop offset="1" stop-color="#222644"/>
</linearGradient>
<linearGradient id="paint2_linear_3129_7366" x1="915.482" y1="-275.687" x2="295.693" y2="-520.211" gradientUnits="userSpaceOnUse">
<stop stop-color="#A10BD2"/>
<stop offset="1" stop-color="#16182B"/>
</linearGradient>
<linearGradient id="paint3_linear_3129_7366" x1="-158.217" y1="85.5384" x2="-54.3957" y2="360.868" gradientUnits="userSpaceOnUse">
<stop stop-color="#A10BD2"/>
<stop offset="1" stop-color="#16182B"/>
</linearGradient>
<linearGradient id="paint4_linear_3129_7366" x1="58.963" y1="-14.5867" x2="-52.9753" y2="157.641" gradientUnits="userSpaceOnUse">
<stop stop-color="#9B55FF"/>
<stop offset="1" stop-color="#8C3CFF" stop-opacity="0.17"/>
</linearGradient>
<linearGradient id="paint5_linear_3129_7366" x1="-58.4804" y1="91.2988" x2="262.696" y2="201.838" gradientUnits="userSpaceOnUse">
<stop stop-color="#9526B8"/>
<stop offset="1" stop-color="#210C42"/>
</linearGradient>
<linearGradient id="paint6_linear_3129_7366" x1="-58.4804" y1="91.2988" x2="262.696" y2="201.838" gradientUnits="userSpaceOnUse">
<stop stop-color="#9526B8"/>
<stop offset="1" stop-color="#210C42"/>
</linearGradient>
<linearGradient id="paint7_linear_3129_7366" x1="185.337" y1="155.825" x2="187.426" y2="193.112" gradientUnits="userSpaceOnUse">
<stop stop-color="#0E112D"/>
<stop offset="1" stop-color="#0E112D" stop-opacity="0"/>
</linearGradient>
<linearGradient id="paint8_linear_3129_7366" x1="185.337" y1="155.825" x2="187.426" y2="193.112" gradientUnits="userSpaceOnUse">
<stop stop-color="#0E112D"/>
<stop offset="1" stop-color="#0E112D" stop-opacity="0"/>
</linearGradient>
<linearGradient id="paint9_linear_3129_7366" x1="101.878" y1="159.039" x2="83.8242" y2="190.822" gradientUnits="userSpaceOnUse">
<stop stop-color="#0E112D"/>
<stop offset="1" stop-color="#0E112D" stop-opacity="0"/>
</linearGradient>
<linearGradient id="paint10_linear_3129_7366" x1="87.1744" y1="159.521" x2="69.1207" y2="191.304" gradientUnits="userSpaceOnUse">
<stop stop-color="#0E112D"/>
<stop offset="1" stop-color="#0E112D" stop-opacity="0"/>
</linearGradient>
<linearGradient id="paint11_linear_3129_7366" x1="166.505" y1="73.9739" x2="57.3295" y2="337.543" gradientUnits="userSpaceOnUse">
<stop stop-color="#FFCBA9"/>
<stop offset="1" stop-color="#FF998F"/>
</linearGradient>
<linearGradient id="paint12_linear_3129_7366" x1="83.8847" y1="46.6084" x2="386.733" y2="286.269" gradientUnits="userSpaceOnUse">
<stop stop-color="#FFAF96"/>
<stop offset="1" stop-color="#A0533B"/>
</linearGradient>
<linearGradient id="paint13_linear_3129_7366" x1="68.058" y1="-36.4636" x2="169.021" y2="436.568" gradientUnits="userSpaceOnUse">
<stop stop-color="#FFDECD"/>
<stop offset="1" stop-color="#FFDECD" stop-opacity="0"/>
</linearGradient>
<linearGradient id="paint14_linear_3129_7366" x1="147.377" y1="95.0496" x2="128.007" y2="201.859" gradientUnits="userSpaceOnUse">
<stop stop-color="#C15248" stop-opacity="0.73"/>
<stop offset="1" stop-color="#F29289" stop-opacity="0"/>
</linearGradient>
<linearGradient id="paint15_linear_3129_7366" x1="147.377" y1="95.0496" x2="128.007" y2="201.859" gradientUnits="userSpaceOnUse">
<stop stop-color="#C15248" stop-opacity="0.73"/>
<stop offset="1" stop-color="#F29289" stop-opacity="0"/>
</linearGradient>
<linearGradient id="paint16_linear_3129_7366" x1="140.216" y1="154.407" x2="247.377" y2="217.556" gradientUnits="userSpaceOnUse">
<stop stop-color="#CE5C52"/>
<stop offset="1" stop-color="#F29289" stop-opacity="0"/>
</linearGradient>
<linearGradient id="paint17_linear_3129_7366" x1="50.2996" y1="86.24" x2="156.818" y2="158.234" gradientUnits="userSpaceOnUse">
<stop stop-color="#765770"/>
<stop offset="1" stop-color="#484362"/>
</linearGradient>
<linearGradient id="paint18_linear_3129_7366" x1="50.2996" y1="86.24" x2="156.818" y2="158.234" gradientUnits="userSpaceOnUse">
<stop stop-color="#765770"/>
<stop offset="1" stop-color="#484362"/>
</linearGradient>
<linearGradient id="paint19_linear_3129_7366" x1="86.574" y1="121.836" x2="113.463" y2="156.149" gradientUnits="userSpaceOnUse">
<stop stop-color="#9C6877"/>
<stop offset="1" stop-color="#9C6877" stop-opacity="0"/>
</linearGradient>
<linearGradient id="paint20_linear_3129_7366" x1="109.131" y1="83.5469" x2="109.131" y2="153.04" gradientUnits="userSpaceOnUse">
<stop stop-color="#A6B0D3"/>
<stop offset="1" stop-color="#A6B0D3" stop-opacity="0"/>
</linearGradient>
<linearGradient id="paint21_linear_3129_7366" x1="100.029" y1="80.6538" x2="92.1685" y2="92.8886" gradientUnits="userSpaceOnUse">
<stop stop-color="white"/>
<stop offset="1" stop-color="white" stop-opacity="0"/>
<stop offset="1" stop-color="white" stop-opacity="0.277213"/>
</linearGradient>
<linearGradient id="paint22_linear_3129_7366" x1="105.911" y1="79.0814" x2="95.9444" y2="100.446" gradientUnits="userSpaceOnUse">
<stop stop-color="white"/>
<stop offset="1" stop-color="white" stop-opacity="0"/>
<stop offset="1" stop-color="white" stop-opacity="0.277213"/>
</linearGradient>
<linearGradient id="paint23_linear_3129_7366" x1="150.367" y1="83.5469" x2="150.367" y2="153.04" gradientUnits="userSpaceOnUse">
<stop stop-color="#A6B0D3"/>
<stop offset="1" stop-color="#A6B0D3" stop-opacity="0"/>
</linearGradient>
<linearGradient id="paint24_linear_3129_7366" x1="149.722" y1="71.3829" x2="137.092" y2="97.0032" gradientUnits="userSpaceOnUse">
<stop stop-color="white"/>
<stop offset="1" stop-color="white" stop-opacity="0"/>
<stop offset="1" stop-color="white" stop-opacity="0.277213"/>
</linearGradient>
<linearGradient id="paint25_linear_3129_7366" x1="163.837" y1="59.9897" x2="146.543" y2="104.399" gradientUnits="userSpaceOnUse">
<stop stop-color="white"/>
<stop offset="1" stop-color="white" stop-opacity="0"/>
<stop offset="1" stop-color="white" stop-opacity="0.277213"/>
</linearGradient>
<linearGradient id="paint26_linear_3129_7366" x1="103.398" y1="76.0926" x2="97.4687" y2="88.159" gradientUnits="userSpaceOnUse">
<stop stop-color="#3261A8"/>
<stop offset="1" stop-color="#273F63" stop-opacity="0"/>
</linearGradient>
<linearGradient id="paint27_linear_3129_7366" x1="112.75" y1="71.2022" x2="103.288" y2="87.5485" gradientUnits="userSpaceOnUse">
<stop stop-color="#3261A8"/>
<stop offset="1" stop-color="#273F63" stop-opacity="0"/>
</linearGradient>
<linearGradient id="paint28_linear_3129_7366" x1="137.352" y1="74.085" x2="134.635" y2="85.6186" gradientUnits="userSpaceOnUse">
<stop stop-color="#3261A8"/>
<stop offset="1" stop-color="#273F63" stop-opacity="0"/>
</linearGradient>
<linearGradient id="paint29_linear_3129_7366" x1="148.1" y1="73.8878" x2="145.384" y2="85.4215" gradientUnits="userSpaceOnUse">
<stop stop-color="#3261A8"/>
<stop offset="1" stop-color="#273F63" stop-opacity="0"/>
</linearGradient>
<linearGradient id="paint30_linear_3129_7366" x1="126.147" y1="84.3511" x2="125.992" y2="111.999" gradientUnits="userSpaceOnUse">
<stop stop-color="#FFEBDF"/>
<stop offset="1" stop-color="#FFEBDF" stop-opacity="0"/>
</linearGradient>
<linearGradient id="paint31_linear_3129_7366" x1="19.3356" y1="-1.41668" x2="-12.4292" y2="21.0967" gradientUnits="userSpaceOnUse">
<stop stop-color="#FFCFC0"/>
<stop offset="1" stop-color="#FFCFC0" stop-opacity="0"/>
</linearGradient>
<linearGradient id="paint32_linear_3129_7366" x1="129.911" y1="131.044" x2="119.968" y2="131.779" gradientUnits="userSpaceOnUse">
<stop stop-color="#FFDFD0"/>
<stop offset="1" stop-color="#FFDFD0" stop-opacity="0"/>
</linearGradient>
</defs>
</svg>
