<svg width="1600" height="680" viewBox="0 0 1600 680" fill="none" xmlns="http://www.w3.org/2000/svg">
<g opacity="0.47">
<path d="M1142.25 329.113L1143.73 331.776L1146.36 333.252L1143.73 334.699L1142.25 337.362L1140.81 334.699L1138.14 333.252L1140.81 331.776L1142.25 329.113Z" fill="#FEA7AF"/>
<path d="M1128.13 119.4L1129.61 122.063L1132.24 123.51L1129.61 124.957L1128.13 127.62L1126.68 124.957L1124.02 123.51L1126.68 122.063L1128.13 119.4Z" fill="#FEA7AF"/>
<path opacity="0.29" d="M1484.69 191.813L1487.55 197.081L1492.82 199.975L1487.55 202.84L1484.69 208.108L1481.8 202.84L1476.53 199.975L1481.8 197.081L1484.69 191.813Z" fill="white"/>
<path opacity="0.29" d="M1446.35 565.134L1449.21 570.401L1454.48 573.266L1449.21 576.161L1446.35 581.428L1443.45 576.161L1438.19 573.266L1443.45 570.401L1446.35 565.134Z" fill="white"/>
<path opacity="0.29" d="M1249.8 123.77L1251.16 126.259L1253.68 127.619L1251.16 128.979L1249.8 131.497L1248.44 128.979L1245.95 127.619L1248.44 126.259L1249.8 123.77Z" fill="#FEA7AF"/>
<path opacity="0.29" d="M1406.23 362.107L1407.59 364.596L1410.08 365.957L1407.59 367.317L1406.23 369.835L1404.87 367.317L1402.36 365.957L1404.87 364.596L1406.23 362.107Z" fill="white"/>
<path opacity="0.29" d="M1371.4 451.499L1372.76 453.988L1375.25 455.348L1372.76 456.709L1371.4 459.227L1370.04 456.709L1367.52 455.348L1370.04 453.988L1371.4 451.499Z" fill="white"/>
<path opacity="0.29" d="M1474.22 398.2L1475.58 400.689L1478.07 402.049L1475.58 403.41L1474.22 405.928L1472.86 403.41L1470.34 402.049L1472.86 400.689L1474.22 398.2Z" fill="white"/>
<path opacity="0.29" d="M1310.78 27.0166L1312.14 29.5056L1314.63 30.8948L1312.14 32.2551L1310.78 34.7441L1309.42 32.2551L1306.93 30.8948L1309.42 29.5056L1310.78 27.0166Z" fill="white"/>
<path d="M1272.54 487.701L1274.56 491.357L1278.22 493.33L1274.56 495.35L1272.54 499.006L1270.57 495.35L1266.91 493.33L1270.57 491.357L1272.54 487.701Z" fill="white"/>
<path d="M1325.89 218.323L1327.11 220.523L1329.31 221.709L1327.11 222.925L1325.89 225.096L1324.7 222.925L1322.5 221.709L1324.7 220.523L1325.89 218.323Z" fill="white"/>
<path opacity="0.33" d="M1128.13 468.554L1129.69 471.361L1132.5 472.924L1129.69 474.458L1128.13 477.294L1126.6 474.458L1123.76 472.924L1126.6 471.361L1128.13 468.554Z" fill="#FEA7AF"/>
<path opacity="0.33" d="M1200.43 555.034L1201.96 557.87L1204.8 559.433L1201.96 560.967L1200.43 563.804L1198.86 560.967L1196.06 559.433L1198.86 557.87L1200.43 555.034Z" fill="#FEA7AF"/>
<path opacity="0.33" d="M1191.69 237.626L1193.22 240.462L1196.06 241.996L1193.22 243.559L1191.69 246.366L1190.12 243.559L1187.29 241.996L1190.12 240.462L1191.69 237.626Z" fill="#FEA7AF"/>
<path opacity="0.33" d="M1578.06 341.5L1579.6 344.307L1582.43 345.87L1579.6 347.404L1578.06 350.24L1576.5 347.404L1573.69 345.87L1576.5 344.307L1578.06 341.5Z" fill="#FEA7AF"/>
<path d="M4.13871 355.942L5.58581 358.605L8.24846 360.081L5.58581 361.528L4.13871 364.191L2.66266 361.528L0 360.081L2.66266 358.605L4.13871 355.942Z" fill="#FEA7AF"/>
<path d="M8.24855 117.604L9.69565 120.266L12.3583 121.742L9.69565 123.189L8.24855 125.852L6.80145 123.189L4.13879 121.742L6.80145 120.266L8.24855 117.604Z" fill="#FEA7AF"/>
<path opacity="0.44" d="M347.285 451.6L348.153 453.191L349.774 454.089L348.153 454.957L347.285 456.578L346.416 454.957L344.796 454.089L346.416 453.191L347.285 451.6Z" fill="#FEA7AF"/>
<path opacity="0.89" d="M926.954 0.998047L928.488 3.80542L931.324 5.36829L928.488 6.90222L926.954 9.73853L925.391 6.90222L922.584 5.36829L925.391 3.80542L926.954 0.998047Z" fill="#FEA7AF"/>
<path opacity="0.89" d="M569.578 22.877L570.418 24.4109L571.952 25.2502L570.418 26.0895L569.578 27.6234L568.739 26.0895L567.205 25.2502L568.739 24.4109L569.578 22.877Z" fill="#FEA7AF"/>
<path opacity="0.89" d="M1597.63 205.734L1598.47 207.268L1600 208.108L1598.47 208.947L1597.63 210.481L1596.79 208.947L1595.28 208.108L1596.79 207.268L1597.63 205.734Z" fill="#FEA7AF"/>
<path opacity="0.29" d="M314.799 130.274L317.693 135.542L322.96 138.407L317.693 141.301L314.799 146.569L311.933 141.301L306.666 138.407L311.933 135.542L314.799 130.274Z" fill="white"/>
<path opacity="0.29" d="M326.437 563.37L329.331 568.638L334.598 571.503L329.331 574.368L326.437 579.636L323.571 574.368L318.304 571.503L323.571 568.638L326.437 563.37Z" fill="white"/>
<path opacity="0.29" d="M129.921 122.005L131.281 124.494L133.77 125.854L131.281 127.214L129.921 129.703L128.561 127.214L126.072 125.854L128.561 124.494L129.921 122.005Z" fill="#FEA7AF"/>
<path opacity="0.29" d="M286.323 360.342L287.712 362.831L290.201 364.191L287.712 365.551L286.323 368.04L284.963 365.551L282.474 364.191L284.963 362.831L286.323 360.342Z" fill="white"/>
<path opacity="0.29" d="M190.872 25.25L192.262 27.739L194.751 29.0993L192.262 30.4596L190.872 32.9775L189.512 30.4596L187.023 29.0993L189.512 27.739L190.872 25.25Z" fill="white"/>
<path d="M169.547 448.213L170.733 450.413L172.933 451.599L170.733 452.815L169.547 454.985L168.36 452.815L166.16 451.599L168.36 450.413L169.547 448.213Z" fill="white"/>
<path opacity="0.15" d="M206.009 216.529L207.225 218.729L209.395 219.944L207.225 221.131L206.009 223.331L204.794 221.131L202.623 219.944L204.794 218.729L206.009 216.529Z" fill="white"/>
<path d="M1059.36 632.193L1060.58 634.393L1062.78 635.608L1060.58 636.795L1059.36 638.995L1058.18 636.795L1055.98 635.608L1058.18 634.393L1059.36 632.193Z" fill="white"/>
<path d="M1536.62 27.4795L1537.8 29.6791L1540 30.8946L1537.8 32.0813L1536.62 34.2809L1535.4 32.0813L1533.2 30.8946L1535.4 29.6791L1536.62 27.4795Z" fill="white"/>
<path opacity="0.66" d="M40.5765 12.082L41.7631 14.2816L43.9627 15.4682L41.7631 16.6838L40.5765 18.8834L39.361 16.6838L37.1903 15.4682L39.361 14.2816L40.5765 12.082Z" fill="white"/>
<path opacity="0.66" d="M501.825 591.211L503.041 593.411L505.211 594.597L503.041 595.813L501.825 598.012L500.61 595.813L498.439 594.597L500.61 593.411L501.825 591.211Z" fill="white"/>
<path d="M406.606 58.8242L407.822 61.0238L410.021 62.2104L407.822 63.426L406.606 65.6256L405.42 63.426L403.22 62.2104L405.42 61.0238L406.606 58.8242Z" fill="white"/>
<path opacity="0.33" d="M49.6815 513.829L51.2154 516.665L54.0518 518.199L51.2154 519.762L49.6815 522.57L48.1187 519.762L45.3113 518.199L48.1187 516.665L49.6815 513.829Z" fill="#FEA7AF"/>
<path opacity="0.33" d="M80.5168 553.269L82.0797 556.105L84.8871 557.639L82.0797 559.173L80.5168 562.009L78.9829 559.173L76.1466 557.639L78.9829 556.105L80.5168 553.269Z" fill="#FEA7AF"/>
<path opacity="0.33" d="M592.761 671.033L594.295 673.841L597.131 675.403L594.295 676.937L592.761 679.774L591.227 676.937L588.391 675.403L591.227 673.841L592.761 671.033Z" fill="#FEA7AF"/>
<path opacity="0.33" d="M71.7762 235.862L73.3391 238.67L76.1465 240.233L73.3391 241.766L71.7762 244.603L70.2423 241.766L67.406 240.233L70.2423 238.67L71.7762 235.862Z" fill="#FEA7AF"/>
<path opacity="0.33" d="M458.181 339.706L459.715 342.542L462.551 344.076L459.715 345.639L458.181 348.447L456.618 345.639L453.811 344.076L456.618 342.542L458.181 339.706Z" fill="#FEA7AF"/>
<path d="M529.494 392.931L530.941 395.593L533.603 397.04L530.941 398.488L529.494 401.15L528.018 398.488L525.355 397.04L528.018 395.593L529.494 392.931Z" fill="#FEA7AF"/>
<path opacity="0.37" d="M509.35 243.387L510.798 246.049L513.46 247.525L510.798 248.973L509.35 251.635L507.874 248.973L505.212 247.525L507.874 246.049L509.35 243.387Z" fill="#FEA7AF"/>
<path opacity="0.29" d="M968.341 122.119L970.309 125.679L973.869 127.618L970.309 129.557L968.341 133.117L966.402 129.557L962.871 127.618L966.402 125.679L968.341 122.119Z" fill="white"/>
<path opacity="0.29" d="M851.792 600.328L854.686 605.596L859.953 608.461L854.686 611.355L851.792 616.622L848.927 611.355L843.659 608.461L848.927 605.596L851.792 600.328Z" fill="white"/>
<path opacity="0.29" d="M655.276 158.963L656.636 161.452L659.125 162.812L656.636 164.172L655.276 166.69L653.916 164.172L651.398 162.812L653.916 161.452L655.276 158.963Z" fill="#FEA7AF"/>
<path opacity="0.29" d="M811.678 397.3L813.038 399.789L815.556 401.149L813.038 402.509L811.678 405.027L810.318 402.509L807.829 401.149L810.318 399.789L811.678 397.3Z" fill="white"/>
<path opacity="0.29" d="M716.227 62.208L717.617 64.726L720.106 66.0862L717.617 67.4465L716.227 69.9355L714.867 67.4465L712.378 66.0862L714.867 64.726L716.227 62.208Z" fill="white"/>
<path opacity="0.32" d="M653.117 483.612L654.741 486.621L657.75 488.284L654.741 489.908L653.117 492.917L651.454 489.908L648.445 488.284L651.454 486.621L653.117 483.612Z" fill="white"/>
<path opacity="0.33" d="M696.084 216.529L697.299 218.729L699.499 219.944L697.299 221.131L696.084 223.331L694.897 221.131L692.698 219.944L694.897 218.729L696.084 216.529Z" fill="white"/>
<path opacity="0.33" d="M416.599 522.57L418.133 525.378L420.97 526.941L418.133 528.475L416.599 531.311L415.037 528.475L412.229 526.941L415.037 525.378L416.599 522.57Z" fill="#FEA7AF"/>
<path opacity="0.33" d="M605.872 590.228L607.435 593.064L610.242 594.598L607.435 596.161L605.872 598.997L604.338 596.161L601.502 594.598L604.338 593.064L605.872 590.228Z" fill="#FEA7AF"/>
<path opacity="0.33" d="M597.131 272.82L598.694 275.657L601.502 277.191L598.694 278.753L597.131 281.561L595.597 278.753L592.761 277.191L595.597 275.657L597.131 272.82Z" fill="#FEA7AF"/>
<path opacity="0.33" d="M1001.8 255.919L1003.36 258.755L1006.17 260.289L1003.36 261.852L1001.8 264.659L1000.26 261.852L997.428 260.289L1000.26 258.755L1001.8 255.919Z" fill="#FEA7AF"/>
</g>
<circle cx="318.232" cy="423.35" r="37.1497" transform="rotate(14.4779 318.232 423.35)" stroke="#6E33E5" stroke-width="1.5"/>
<path d="M295.056 394.587C296.354 394.8 297.485 395.397 298.363 396.322C299.243 397.25 299.859 398.5 300.132 399.983C300.405 401.468 300.324 403.131 299.877 404.826C299.431 406.52 298.636 408.179 297.562 409.652C296.488 411.126 295.175 412.357 293.747 413.242C292.318 414.127 290.831 414.63 289.421 414.731C288.015 414.831 286.728 414.53 285.66 413.875C284.592 413.221 283.746 412.216 283.209 410.927" stroke="#6E33E5" stroke-width="1.5"/>
<path d="M352.213 407.339C356.6 406.868 360.388 406.727 363.474 406.905C366.575 407.083 368.903 407.579 370.415 408.334C371.9 409.076 372.444 409.975 372.42 410.96C372.394 412.048 371.682 413.496 370.008 415.282C366.685 418.827 360.18 423.064 351.289 427.403C342.42 431.73 331.673 435.917 320.494 439.396C309.315 442.876 298.256 445.476 288.807 446.851C279.324 448.231 272.019 448.294 267.796 447.119C265.672 446.528 264.57 445.692 264.169 444.807C263.786 443.962 263.924 442.789 265.009 441.19C266.089 439.599 267.987 437.777 270.665 435.798C273.335 433.826 276.741 431.725 280.797 429.568" stroke="#6E33E5" stroke-width="1.5"/>
<path d="M346.979 399.376C349.631 405.471 347.885 407.786 344.73 410.131C339.531 413.997 336.894 419.823 335.472 426.144C334.718 429.499 333.568 431.502 330.657 431.919C320.357 433.392 314.324 437.721 312.093 445.719C309.861 453.717 299.696 453.701 293.673 451.691" stroke="#6E33E5" stroke-width="1.5"/>
</svg>
