<svg width="124" height="134" viewBox="0 0 124 134" fill="none" xmlns="http://www.w3.org/2000/svg">
<circle cx="64.6204" cy="64.1239" r="35.9146" transform="rotate(59.6068 64.6204 64.1239)" stroke="#6E33E5" stroke-width="1.5"/>
<path d="M60.5174 41.8591C59.0914 42.1741 57.734 42.0225 56.6994 41.5585C55.6647 41.0945 54.9979 40.3458 54.8037 39.4666C54.6096 38.5874 54.899 37.6275 55.642 36.7709C56.3851 35.9143 57.5523 35.2052 58.9784 34.8903C60.4044 34.5754 61.7617 34.7269 62.7964 35.1909C63.8311 35.6549 64.4979 36.4036 64.692 37.2828C64.8862 38.162 64.5968 39.1219 63.8537 39.9785C63.1107 40.8351 61.9434 41.5442 60.5174 41.8591Z" stroke="#6E33E5" stroke-width="1.5"/>
<path d="M98.7753 76.5117C102.092 79.1975 104.772 81.6976 106.756 83.933C108.749 86.1803 109.995 88.112 110.508 89.6591C111.011 91.178 110.765 92.1532 110.083 92.8003C109.326 93.5186 107.854 94.0185 105.489 94.0898C100.796 94.2312 93.4542 92.6646 84.412 89.53C75.393 86.4033 65.1891 81.8934 55.1748 76.6044C45.1601 71.3154 35.8306 65.509 28.4396 59.9696C21.0222 54.4105 15.9959 49.4475 13.9219 45.755C12.8786 43.8975 12.7045 42.5798 13.0333 41.7116C13.3468 40.8839 14.2346 40.1807 16.0686 39.8338C17.892 39.489 20.4332 39.5462 23.6172 40.0317C26.7899 40.5156 30.5534 41.4171 34.7999 42.7252" stroke="#6E33E5" stroke-width="1.5"/>
<path d="M100.678 67.47C98.3765 73.2771 95.6883 73.8043 92.0887 73.3144C85.6688 72.4406 79.7262 74.6442 74.1966 78.0208C71.5149 79.6583 69.4239 80.1461 67.2255 78.4903C59.1852 72.4343 52.1004 71.253 45.0938 75.1818C38.0872 79.1107 31.1604 72.1306 28.4281 66.6291" stroke="#6E33E5" stroke-width="1.5"/>
</svg>
