<svg width="432" height="298" viewBox="0 0 432 298" fill="none" xmlns="http://www.w3.org/2000/svg">
<path d="M255.19 110.303C251.264 108.732 247.169 107.365 242.926 106.228C209.985 97.4013 177.81 105.06 161.12 123.474M298.652 145.678C305.612 157.598 308.104 170.712 304.735 183.285C304.392 184.564 303.994 185.819 303.542 187.047M236.654 222.721C228.855 222.461 220.79 221.287 212.679 219.113C184.448 211.549 162.758 193.78 153.83 173.563M285.532 211.297C285.532 211.297 288.734 209.286 290.541 207.602" stroke="#6E33E5"/>
<mask id="mask0_3169_6308" style="mask-type:alpha" maskUnits="userSpaceOnUse" x="253" y="89" width="61" height="61">
<ellipse rx="29.443" ry="30.0773" transform="matrix(-0.5 -0.866025 -0.866025 0.5 283.313 119.472)" fill="#5778AA"/>
</mask>
<g mask="url(#mask0_3169_6308)">
<g filter="url(#filter0_ii_3169_6308)">
<ellipse rx="29.443" ry="30.0773" transform="matrix(-0.5 -0.866025 -0.866025 0.5 283.313 119.472)" fill="#C4714D"/>
</g>
<g style="mix-blend-mode:multiply" opacity="0.2">
<path d="M256.79 138.382C256.79 138.382 305.402 136.506 295.551 87.2422C302.734 89.5617 321.449 91.984 334.729 101.29C351.329 112.922 338.003 131.029 336.29 144.541C334.577 158.052 312.949 168.556 302.671 178.079C294.448 185.697 262.316 148.255 256.79 138.382Z" fill="#D19276"/>
</g>
</g>
<mask id="mask1_3169_6308" style="mask-type:alpha" maskUnits="userSpaceOnUse" x="272" y="44" width="51" height="26">
<path d="M303.962 44.7768C317.962 42.0468 324.092 51.4468 322.392 59.0868V59.1868C321.447 59.0176 320.513 58.7973 319.592 58.5268C315.309 57.2561 310.773 57.0978 306.412 58.0668L303.412 58.7168L300.052 59.1768C297.339 60.7426 294.515 62.1063 291.602 63.2568C290.332 57.6668 284.352 58.1668 285.482 63.1168C285.482 63.1168 283.832 65.8168 277.282 68.7668L278.102 69.3768C278.102 69.3768 275.102 70.5668 273.342 68.7668C271.772 63.0568 273.122 53.0768 280.582 48.4268C283.992 46.2968 289.582 45.5168 295.192 46.4268C296.614 46.6502 298.07 46.5232 299.432 46.0568C300.911 45.5261 302.424 45.0984 303.962 44.7768Z" fill="url(#paint0_linear_3169_6308)"/>
</mask>
<g mask="url(#mask1_3169_6308)">
<path d="M303.962 44.7768C317.962 42.0468 324.092 51.4468 322.392 59.0868V59.1868C321.447 59.0176 320.513 58.7973 319.592 58.5268C315.309 57.2561 310.773 57.0978 306.412 58.0668L303.412 58.7168L300.052 59.1768C297.339 60.7426 294.515 62.1063 291.602 63.2568C290.332 57.6668 284.352 58.1668 285.482 63.1168C285.482 63.1168 283.832 65.8168 277.282 68.7668L278.102 69.3768C278.102 69.3768 275.102 70.5668 273.342 68.7668C271.772 63.0568 273.122 53.0768 280.582 48.4268C283.992 46.2968 289.582 45.5168 295.192 46.4268C296.614 46.6502 298.07 46.5232 299.432 46.0568C300.911 45.5261 302.424 45.0984 303.962 44.7768Z" fill="url(#paint1_linear_3169_6308)"/>
<ellipse opacity="0.8" rx="10.1516" ry="5.41109" transform="matrix(0.650021 -0.759917 0.579666 0.814854 273.746 54.2544)" fill="url(#paint2_linear_3169_6308)"/>
<ellipse opacity="0.6" rx="11.2249" ry="5.98315" transform="matrix(0.650021 -0.759917 0.579666 0.814854 274.596 54.5124)" stroke="#534D99" stroke-width="0.586443"/>
<g style="mix-blend-mode:multiply" opacity="0.4">
<path d="M309.665 -5.72765C314.336 -6.55406 317.721 19.2377 318.602 22.9051C323.211 22.0203 329.304 22.5599 337.946 24.9664L337.484 62.159L326.373 76.4503L328.257 91.5409C319.608 80.7094 303.695 78.439 303.695 78.439C295.999 84.1488 268.592 89.8175 287.207 75.9134C315.848 67.0622 312.824 9.93254 299.859 -1.01864C297.536 -7.91568 305.928 -5.06652 309.665 -5.72765Z" fill="#0E163A"/>
</g>
<g style="mix-blend-mode:multiply" opacity="0.4">
<path d="M305.4 31.5992C309.099 43.4555 302.09 58.4384 302.09 58.4384" stroke="#0E163A"/>
</g>
</g>
<mask id="mask2_3169_6308" style="mask-type:alpha" maskUnits="userSpaceOnUse" x="277" y="59" width="25" height="17">
<path d="M301.142 70.9768L300.062 59.1768C297.346 60.7362 294.518 62.0933 291.602 63.2368V63.3268L292.262 63.6768C293.613 64.3935 294.759 65.4427 295.591 66.7252C296.424 68.0077 296.917 69.4812 297.022 71.0068V71.1468H297.112C298.367 70.8748 299.658 70.8174 300.932 70.9768H301.142Z" fill="url(#paint3_linear_3169_6308)"/>
<path d="M297.162 73.1768L297.022 71.1768L296.962 71.0368C296.857 69.5112 296.364 68.0377 295.531 66.7552C294.699 65.4727 293.553 64.4235 292.202 63.7068L291.542 63.3568V63.2668C290.272 57.6768 284.292 58.1768 285.422 63.1268C285.422 63.1268 283.772 65.8268 277.222 68.7768L278.042 69.3867L280.042 70.8968C280.627 71.334 281.317 71.6098 282.042 71.6968C282.932 71.8226 283.782 72.1468 284.53 72.6453C285.277 73.1438 285.904 73.8038 286.362 74.5768L286.712 75.1768C286.782 75.2962 286.876 75.3997 286.988 75.4809C287.101 75.562 287.229 75.6189 287.364 75.6481C287.499 75.6772 287.639 75.6779 287.775 75.6501C287.911 75.6224 288.039 75.5667 288.152 75.4868L288.992 74.8968C289.192 74.754 289.438 74.6899 289.682 74.7168L294.942 75.3068C295.234 75.3398 295.529 75.3082 295.808 75.2141C296.086 75.1201 296.34 74.966 296.552 74.7626C296.764 74.5593 296.928 74.3118 297.034 74.0377C297.139 73.7636 297.183 73.4697 297.162 73.1768Z" fill="url(#paint4_linear_3169_6308)"/>
</mask>
<g mask="url(#mask2_3169_6308)">
<path d="M301.142 70.9768L300.062 59.1768C297.346 60.7362 294.518 62.0933 291.602 63.2368V63.3268L292.262 63.6768C293.613 64.3935 294.759 65.4427 295.591 66.7252C296.424 68.0077 296.917 69.4812 297.022 71.0068V71.1468H297.112C298.367 70.8748 299.658 70.8174 300.932 70.9768H301.142Z" fill="url(#paint5_linear_3169_6308)"/>
<path d="M297.162 73.1768L297.022 71.1768L296.962 71.0368C296.857 69.5112 296.364 68.0377 295.531 66.7552C294.699 65.4727 293.553 64.4235 292.202 63.7068L291.542 63.3568V63.2668C290.272 57.6768 284.292 58.1768 285.422 63.1268C285.422 63.1268 283.772 65.8268 277.222 68.7768L278.042 69.3867L280.042 70.8968C280.627 71.334 281.317 71.6098 282.042 71.6968C282.932 71.8226 283.782 72.1468 284.53 72.6453C285.277 73.1438 285.904 73.8038 286.362 74.5768L286.712 75.1768C286.782 75.2962 286.876 75.3997 286.988 75.4809C287.101 75.562 287.229 75.6189 287.364 75.6481C287.499 75.6772 287.639 75.6779 287.775 75.6501C287.911 75.6224 288.039 75.5667 288.152 75.4868L288.992 74.8968C289.192 74.754 289.438 74.6899 289.682 74.7168L294.942 75.3068C295.234 75.3398 295.529 75.3082 295.808 75.2141C296.086 75.1201 296.34 74.966 296.552 74.7626C296.764 74.5593 296.928 74.3118 297.034 74.0377C297.139 73.7636 297.183 73.4697 297.162 73.1768Z" fill="url(#paint6_linear_3169_6308)"/>
<path d="M293.733 62.0005C297.348 62.9344 298.033 63.4675 299.348 68.0798C299.686 69.2614 300.569 70.1828 301.533 70.945C303.396 72.4181 303.398 74.2222 302.628 75.6581C301.408 77.9326 298.553 76.6297 297.388 74.3268L298.358 73.3134L299.585 71.9073L296.977 70.5153L296.206 67.2141L292.909 63.7397L292.245 62.8859L293.733 62.0005Z" fill="#955340"/>
</g>
<mask id="mask3_3169_6308" style="mask-type:alpha" maskUnits="userSpaceOnUse" x="282" y="113" width="20" height="17">
<path d="M286.342 117.407L292.262 113.917V113.867C298.262 114.597 300.902 117.867 301.352 118.467L301.282 118.547C301.282 118.547 299.282 122.547 293.542 124.677C290.162 129.187 288.692 129.807 285.882 128.427L286.192 126.067L287.192 122.857L285.192 124.247C284.112 126.607 282.342 126.067 282.342 126.067L283.552 123.837L286.022 120.457L286.152 120.307C286.012 120.486 285.837 120.634 285.639 120.744C285.441 120.854 285.222 120.923 284.997 120.947C284.771 120.971 284.543 120.95 284.326 120.885C284.109 120.82 283.907 120.712 283.732 120.567L286.342 117.407Z" fill="url(#paint7_linear_3169_6308)"/>
</mask>
<g mask="url(#mask3_3169_6308)">
<path d="M286.342 117.407L292.262 113.917V113.867C298.262 114.597 300.902 117.867 301.352 118.467L301.282 118.547C301.282 118.547 299.282 122.547 293.542 124.677C290.162 129.187 288.692 129.807 285.882 128.427L286.192 126.067L287.192 122.857L285.192 124.247C284.112 126.607 282.342 126.067 282.342 126.067L283.552 123.837L286.022 120.457L286.152 120.307C286.012 120.486 285.837 120.634 285.639 120.744C285.441 120.854 285.222 120.923 284.997 120.947C284.771 120.971 284.543 120.95 284.326 120.885C284.109 120.82 283.907 120.712 283.732 120.567L286.342 117.407Z" fill="#B67061"/>
<path d="M290.657 114.27L292.145 113.385C295.357 114.215 304.245 118.211 306.603 120.877C308.445 122.961 303.476 123.614 300.792 124.348L295.8 125.711L296.77 124.698C301.912 118.045 291.321 115.124 291.321 115.124L290.657 114.27Z" fill="#A44F3D"/>
</g>
<mask id="mask4_3169_6308" style="mask-type:alpha" maskUnits="userSpaceOnUse" x="357" y="4" width="22" height="20">
<path d="M358.492 16.1872L378.042 6.18719L378.412 6.12719C378.32 5.5367 378.149 4.96143 377.902 4.41719L377.762 4.11719L358.302 13.8272C358.077 13.9396 357.902 14.1328 357.813 14.3682C357.724 14.6036 357.727 14.8639 357.822 15.0972L358.292 16.2672L358.492 16.1872Z" fill="url(#paint8_linear_3169_6308)"/>
<path d="M378.042 6.2172L358.492 16.2172L358.292 16.3072L361.112 23.4072C364.072 19.3972 370.332 18.9572 370.332 18.9572L372.922 15.3372C373.7 14.2486 374.653 13.2959 375.742 12.5172C376.594 11.9066 377.289 11.1022 377.768 10.1702C378.248 9.23821 378.5 8.20547 378.502 7.1572C378.5 6.8219 378.47 6.48734 378.412 6.1572L378.042 6.2172Z" fill="url(#paint9_linear_3169_6308)"/>
</mask>
<g mask="url(#mask4_3169_6308)">
<path d="M358.492 16.1872L378.042 6.18719L378.412 6.12719C378.32 5.5367 378.149 4.96143 377.902 4.41719L377.762 4.11719L358.302 13.8272C358.077 13.9396 357.902 14.1328 357.813 14.3682C357.724 14.6036 357.727 14.8639 357.822 15.0972L358.292 16.2672L358.492 16.1872Z" fill="url(#paint10_linear_3169_6308)"/>
<path d="M378.042 6.2172L358.492 16.2172L358.292 16.3072L361.112 23.4072C364.072 19.3972 370.332 18.9572 370.332 18.9572L372.922 15.3372C373.7 14.2486 374.653 13.2959 375.742 12.5172C376.594 11.9066 377.289 11.1022 377.768 10.1702C378.248 9.23821 378.5 8.20547 378.502 7.1572C378.5 6.8219 378.47 6.48734 378.412 6.1572L378.042 6.2172Z" fill="url(#paint11_linear_3169_6308)"/>
<g style="mix-blend-mode:multiply" opacity="0.4">
<path d="M362.177 14.1234C361.109 19.7152 364.82 20.249 364.82 20.249L360.316 23.1612C359.183 22.9514 356.712 22.4014 355.894 21.8799C355.075 21.3583 357.05 13.2008 358.14 10.1531L380.693 0.743123L380.528 4.74441L362.177 14.1234Z" fill="#0C1B34"/>
</g>
</g>
<mask id="mask5_3169_6308" style="mask-type:alpha" maskUnits="userSpaceOnUse" x="403" y="46" width="28" height="18">
<path d="M430.782 60.6456L411.562 47.0156C411.153 46.7351 410.654 46.6166 410.162 46.6831C409.671 46.7496 409.222 46.9965 408.902 47.3756L408.612 47.7256L408.682 47.7856L428.812 61.9656V62.0456C429.053 61.9052 429.287 61.7516 429.512 61.5856L430.782 60.6456Z" fill="url(#paint12_linear_3169_6308)"/>
<path d="M428.772 62.0456V61.9656L408.592 47.7856L408.522 47.7256L403.292 54.1456C409.232 57.2356 411.782 60.6456 411.782 60.6456L419.142 61.8356C419.573 61.9068 419.998 62.0139 420.412 62.1556L422.162 62.7356C423.248 63.105 424.401 63.2346 425.543 63.1155C426.684 62.9963 427.785 62.6314 428.772 62.0456Z" fill="url(#paint13_linear_3169_6308)"/>
</mask>
<g mask="url(#mask5_3169_6308)">
<path d="M430.782 60.6456L411.562 47.0156C411.153 46.7351 410.654 46.6166 410.162 46.6831C409.671 46.7496 409.222 46.9965 408.902 47.3756L408.612 47.7256L408.682 47.7856L428.812 61.9656V62.0456C429.053 61.9052 429.287 61.7516 429.512 61.5856L430.782 60.6456Z" fill="url(#paint14_linear_3169_6308)"/>
<path d="M428.772 62.0456V61.9656L408.592 47.7856L408.522 47.7256L403.292 54.1456C409.232 57.2356 411.782 60.6456 411.782 60.6456L419.142 61.8356C419.573 61.9068 419.998 62.0139 420.412 62.1556L422.162 62.7356C423.248 63.105 424.401 63.2346 425.543 63.1155C426.684 62.9963 427.785 62.6314 428.772 62.0456Z" fill="url(#paint15_linear_3169_6308)"/>
<g style="mix-blend-mode:multiply" opacity="0.4">
<path d="M411.977 50.3538C409.204 50.8653 409.027 55.8843 409.521 58.2288L404.405 54.9307C403.642 54.0669 402.036 52.1105 401.713 51.1951C401.39 50.2797 406.783 46.5957 409.521 44.8682L433.078 51.3634L432.17 64.2529L411.977 50.3538Z" fill="#0C1B34"/>
</g>
</g>
<mask id="mask6_3169_6308" style="mask-type:alpha" maskUnits="userSpaceOnUse" x="345" y="18" width="67" height="71">
<path d="M362.132 27.367L366.522 44.517L345.852 58.617C345.869 58.6214 345.885 58.6258 345.902 58.6303C354.385 68.401 356.172 83.477 356.172 83.477L388.532 88.407C389.438 88.5459 390.366 88.4328 391.212 88.0801C392.059 87.7273 392.792 87.1485 393.332 86.407L411.822 60.987C411.822 60.987 409.272 57.577 403.332 54.487L400.162 57.667L383.262 74.527V74.637C378.112 72.697 372.382 70.027 366.772 67.387C366.394 67.2098 366.018 67.0328 365.642 66.8562C365.548 66.812 365.454 66.7678 365.36 66.7237C365.461 66.7713 365.563 66.8189 365.664 66.8665L366.772 67.387L382.202 48.117C382.817 47.3467 383.191 46.4117 383.276 45.4295C383.362 44.4474 383.155 43.4619 382.682 42.597L371.852 22.737L370.352 18.917C370.352 18.917 364.132 19.367 361.132 23.367L362.132 27.367Z" fill="url(#paint16_linear_3169_6308)"/>
</mask>
<g mask="url(#mask6_3169_6308)">
<path d="M362.132 27.367L366.522 44.517L345.852 58.617C345.869 58.6214 345.885 58.6258 345.902 58.6303C354.385 68.401 356.172 83.477 356.172 83.477L388.532 88.407C389.438 88.5459 390.366 88.4328 391.212 88.0801C392.059 87.7273 392.792 87.1485 393.332 86.407L411.822 60.987C411.822 60.987 409.272 57.577 403.332 54.487L400.162 57.667L383.262 74.527V74.637C378.112 72.697 372.382 70.027 366.772 67.387C366.394 67.2098 366.018 67.0328 365.642 66.8562C365.548 66.812 365.454 66.7678 365.36 66.7237C365.461 66.7713 365.563 66.8189 365.664 66.8665L366.772 67.387L382.202 48.117C382.817 47.3467 383.191 46.4117 383.276 45.4295C383.362 44.4474 383.155 43.4619 382.682 42.597L371.852 22.737L370.352 18.917C370.352 18.917 364.132 19.367 361.132 23.367L362.132 27.367Z" fill="url(#paint17_linear_3169_6308)"/>
<g style="mix-blend-mode:multiply" opacity="0.4">
<path d="M367.908 65.9162C367.908 65.9162 365.782 61.6233 357.213 58.229C355.62 57.5981 355.3 55.3724 356.735 54.4368L367.493 47.4224C369.454 46.1438 370.265 43.6758 369.446 41.4831L362.101 21.8389C355.829 23.9428 346.172 50.1066 346 50.1066C345.29 50.1066 345.031 57.5337 345.031 57.9212C345.031 58.2312 350.069 60.0309 352.587 60.8921L366.925 66.9629L367.908 65.9162Z" fill="#1A1932"/>
<path d="M359.002 70.8268C361.431 81.5163 360.433 83.8177 360.433 83.8177V86.833C360.433 87.0158 352.534 80.9383 348.584 77.8768L346.965 60.2893L347.272 59.1832L352.587 61.1086L364.621 66.3728L380.028 72.8972C381.202 70.4188 383.606 65.3149 383.823 64.7262C384.039 64.1376 395.711 56.5553 401.52 52.8377L404.674 54.998L386.93 75.0906C385.524 76.6825 383.266 77.2126 381.298 76.4125L361.742 68.459C360.22 67.8401 358.638 69.2248 359.002 70.8268Z" fill="#1A1932"/>
</g>
</g>
<mask id="mask7_3169_6308" style="mask-type:alpha" maskUnits="userSpaceOnUse" x="291" y="56" width="66" height="63">
<path fill-rule="evenodd" clip-rule="evenodd" d="M303.855 115.726C303.704 115.492 301.202 111.777 294.122 111.457L291.962 113.837H292.272C298.252 114.567 300.912 117.827 301.362 118.437C301.389 118.468 301.412 118.501 301.432 118.537C301.432 118.537 302.382 117.557 303.862 115.737C305.856 113.262 307.703 110.67 309.392 107.977C309.682 107.487 310.022 106.967 310.362 106.457C314.666 99.3966 317.731 91.6515 319.422 83.5571C320.902 84.2871 336.482 91.4971 356.172 83.4971C356.172 83.4971 354.382 68.3971 345.882 58.6271C345.392 58.0571 344.882 57.5171 344.342 56.9971L331.652 59.2271C330.146 59.4896 328.62 59.6234 327.092 59.6271H326.672C325.239 59.6071 323.811 59.4666 322.402 59.2071C321.457 59.0379 320.523 58.8176 319.602 58.5471C315.319 57.2764 310.783 57.1181 306.422 58.0871L303.422 58.7371L300.062 59.1971L301.252 72.1971C301.276 72.4576 301.402 72.6981 301.602 72.8671L302.832 73.9003L302.792 73.9671C302.792 73.9671 302.792 78.0671 302.272 82.9671C301.96 86.9879 301.102 90.9476 299.722 94.7371C300.522 95.2371 301.292 95.7871 302.042 96.3671L302.358 96.4628C300.665 101.959 297.862 107.049 294.122 111.417C301.203 111.727 303.705 115.49 303.855 115.726ZM305.055 79.8673C304.832 82.264 304.617 84.5897 304.324 86.872C304.618 84.5663 304.835 82.2151 305.059 79.787C305.175 78.5263 305.293 77.2441 305.425 75.9371H305.432C305.296 77.2703 305.174 78.5793 305.055 79.8673Z" fill="url(#paint18_linear_3169_6308)"/>
</mask>
<g mask="url(#mask7_3169_6308)">
<path fill-rule="evenodd" clip-rule="evenodd" d="M303.855 115.726C303.704 115.492 301.202 111.777 294.122 111.457L291.962 113.837H292.272C298.252 114.567 300.912 117.827 301.362 118.437C301.389 118.468 301.412 118.501 301.432 118.537C301.432 118.537 302.382 117.557 303.862 115.737C305.856 113.262 307.703 110.67 309.392 107.977C309.682 107.487 310.022 106.967 310.362 106.457C314.666 99.3966 317.731 91.6515 319.422 83.5571C320.902 84.2871 336.482 91.4971 356.172 83.4971C356.172 83.4971 354.382 68.3971 345.882 58.6271C345.392 58.0571 344.882 57.5171 344.342 56.9971L331.652 59.2271C330.146 59.4896 328.62 59.6234 327.092 59.6271H326.672C325.239 59.6071 323.811 59.4666 322.402 59.2071C321.457 59.0379 320.523 58.8176 319.602 58.5471C315.319 57.2764 310.783 57.1181 306.422 58.0871L303.422 58.7371L300.062 59.1971L301.252 72.1971C301.276 72.4576 301.402 72.6981 301.602 72.8671L302.832 73.9003L302.792 73.9671C302.792 73.9671 302.792 78.0671 302.272 82.9671C301.96 86.9879 301.102 90.9476 299.722 94.7371C300.522 95.2371 301.292 95.7871 302.042 96.3671L302.358 96.4628C300.665 101.959 297.862 107.049 294.122 111.417C301.203 111.727 303.705 115.49 303.855 115.726ZM305.055 79.8673C304.832 82.264 304.617 84.5897 304.324 86.872C304.618 84.5663 304.835 82.2151 305.059 79.787C305.175 78.5263 305.293 77.2441 305.425 75.9371H305.432C305.296 77.2703 305.174 78.5793 305.055 79.8673Z" fill="url(#paint19_linear_3169_6308)"/>
<g style="mix-blend-mode:multiply" opacity="0.2">
<path d="M319.859 40.5059C341.172 47.6729 349.384 49.4784 352.113 49.3866C351.86 48.5425 351.608 47.6822 351.356 46.8054C351.356 46.8054 355.168 49.2839 352.113 49.3866C362.555 84.2042 374.12 91.4991 369.359 99.1906C363.263 109.038 351.97 116.221 347.046 114.11C343.107 112.422 329.861 132.385 319.859 99.1906C369.359 77.1324 319.859 70.5104 319.859 40.5059Z" fill="#51005F"/>
<path d="M304.33 87.6208C304.652 83.8051 305.297 76.0447 305.297 75.5287L302.718 74.4001L297.397 78.5921C296.591 80.3924 294.866 84.106 294.414 84.5575C293.85 85.1218 292.56 94.6342 292.56 96.5689C292.56 98.5037 299.735 97.0526 302.073 96.5689C303.943 96.182 304.357 90.4423 304.33 87.6208Z" fill="#51005F"/>
</g>
</g>
<path d="M313.479 67.501V67.501C309.247 68.0511 305.858 71.3084 305.41 75.5524C304.057 88.3694 304.236 98.9166 294.088 111.111M320.037 79.1176C317.834 96.3667 308.36 109.842 303.833 115.428M294.088 111.111L291.929 113.49C298.774 114.215 301.405 118.233 301.405 118.233C301.405 118.233 302.356 117.251 303.833 115.428M294.088 111.111C301.405 111.477 303.833 115.428 303.833 115.428" stroke="#6E33E5" stroke-width="1.2"/>
<path d="M292.233 113.608L286.309 117.095L283.705 120.231C284.99 121.396 286.309 119.768 286.309 119.768" stroke="#6E33E5" stroke-width="1.2"/>
<path d="M319.24 83.1797C319.24 83.1797 335.4 91.5984 356.108 83.1797M356.108 83.1797L388.476 88.1105C390.322 88.3918 392.172 87.6206 393.271 86.1107L409.298 64.1M356.108 83.1797C356.108 83.1797 354.321 68.0823 345.817 58.3039M300.036 58.8654L301.219 71.8672C301.243 72.1277 301.367 72.3686 301.567 72.5381L305.178 75.6121C305.178 75.6121 304.397 65.9005 303.387 58.4118M300.036 58.8654L303.387 58.4118M300.036 58.8654C300.036 58.8654 295.717 61.3981 291.582 62.9491M303.387 58.4118L306.362 57.755C310.722 56.7927 315.255 56.9521 319.537 58.2183C323.448 59.3749 327.574 59.6096 331.591 58.9039L344.283 56.6742C344.817 57.1972 345.328 57.7418 345.817 58.3039M411.79 60.6777C411.79 60.6777 409.242 57.2644 403.306 54.1789M411.79 60.6777L409.298 64.1M411.79 60.6777L416.179 61.3894M403.306 54.1789L400.128 57.3566M403.306 54.1789L408.826 47.4114C409.491 46.5959 410.674 46.4354 411.533 47.0443L430.753 60.6777L429.479 61.6201C427.379 63.1742 424.652 63.6047 422.175 62.7734L420.421 62.1846C420.008 62.0462 419.585 61.9416 419.156 61.872L418.958 61.84M345.817 58.3039C351.228 59.743 358.86 63.376 366.743 67.0801M345.817 58.3039L366.488 44.2038M366.743 67.0801C372.994 70.0177 379.401 72.9999 384.983 74.9684M366.743 67.0801L382.15 47.8039C383.406 46.2317 383.598 44.0593 382.635 42.2916L371.821 22.4259M370.297 18.641C370.297 18.641 364.04 19.0812 361.083 23.0886M370.297 18.641L371.821 22.4259M370.297 18.641L372.389 15.7212M361.083 23.0886L362.098 27.0544M361.083 23.0886L357.789 14.8139C357.596 14.3314 357.806 13.7821 358.27 13.5497L377.731 3.81055C379.12 6.84814 378.162 10.4438 375.446 12.3882L374.07 13.3737M366.488 44.2038L368.801 42.6258M366.488 44.2038L362.098 27.0544M366.488 44.2038L366.519 44.3269M362.098 27.0544C365.997 23.5062 371.821 22.4259 371.821 22.4259M400.128 57.3566L383.268 74.2169M400.128 57.3566C405.359 59.5769 409.298 64.1 409.298 64.1M374.07 13.3737L372.389 15.7212M374.07 13.3737L372.106 12.3882M416.179 61.3894V59.1253M416.179 61.3894L418.958 61.84M418.958 61.84V59.8774M372.389 15.7212L370.297 14.4872" stroke="#6E33E5" stroke-width="1.2"/>
<path d="M300.9 70.6935C300.9 70.6935 298.678 70.3954 297.079 70.8561" stroke="#6E33E5" stroke-width="1.2"/>
<path d="M408.605 47.8203L428.739 62.0019" stroke="#6E33E5" stroke-width="1.2"/>
<path d="M358.464 15.9043L378.011 5.87746" stroke="#6E33E5" stroke-width="1.2"/>
<path d="M302.759 73.6729C302.759 73.6729 302.759 87.2799 299.628 94.586" stroke="#6E33E5" stroke-width="1.2"/>
<path d="M301.263 118.211C301.263 118.211 299.248 122.213 293.519 124.341C290.146 128.851 288.669 129.465 285.858 128.088L286.172 125.73L287.16 122.519L285.548 124.341C284.47 126.699 282.31 125.73 282.31 125.73L283.523 123.498L285.993 120.116C287.755 118.231 289.034 116.922 289.034 116.922" stroke="#6E33E5" stroke-width="1.2"/>
<path d="M310.314 106.153C313.617 112.702 314.389 120.239 312.482 127.321C310.575 134.404 306.123 140.534 299.978 144.539C293.834 148.544 286.428 150.143 279.178 149.029C271.929 147.914 265.345 144.166 260.686 138.501C256.028 132.835 253.622 125.651 253.93 118.323C254.238 110.994 257.237 104.037 262.354 98.7823C267.471 93.5275 274.347 90.3443 281.664 89.8419C288.982 89.3395 296.227 91.5532 302.014 96.0594" stroke="#6E33E5" stroke-width="1.2"/>
<path d="M309.388 107.547C307.663 115.497 304.039 124.12 299.09 132.03C294.141 139.941 288.165 146.661 282.13 151.123C276.081 155.597 270.397 157.49 265.969 156.668C261.599 155.856 258.557 152.409 257.405 146.679C256.695 143.145 256.74 138.895 257.52 134.212M283.187 89.6619C285.507 87.742 287.837 86.1529 290.119 84.9462C294.728 82.5084 298.868 81.7691 302.183 82.6443" stroke="#6E33E5" stroke-width="1.2"/>
<path d="M278.04 69.0825L277.217 68.4684C283.776 65.5147 285.425 62.817 285.425 62.817C284.286 57.8413 290.341 57.3617 291.557 63.0461L292.218 63.3962C294.968 64.8524 296.77 67.6252 296.984 70.7289L297.134 72.8914C297.22 74.1396 296.152 75.1597 294.909 75.0161L289.671 74.4109C289.427 74.3826 289.181 74.4454 288.98 74.5871L288.14 75.1793C287.662 75.5167 286.997 75.3729 286.701 74.8679L286.348 74.2649C285.427 72.6941 283.834 71.6349 282.029 71.3934V71.3934C281.316 71.298 280.639 71.0221 280.063 70.5918L278.04 69.0825ZM278.04 69.0825C278.04 69.0825 275.077 70.2716 273.277 68.4684C271.715 62.7613 273.063 52.7822 280.517 48.1325C283.934 46.0012 289.498 45.2177 295.135 46.0784C296.553 46.2948 298.014 46.1812 299.369 45.713C316.537 39.7827 324.236 50.3495 322.363 58.7765" stroke="#6E33E5" stroke-width="1.2"/>
<path d="M303.928 44.4697C319.978 38.4204 328.564 51.885 326.613 59.1539" stroke="#6E33E5" stroke-width="1.2"/>
<mask id="mask8_3169_6308" style="mask-type:alpha" maskUnits="userSpaceOnUse" x="134" y="123" width="51" height="51">
<ellipse cx="159.544" cy="148.464" rx="24.8883" ry="25.0518" transform="rotate(135 159.544 148.464)" fill="#5778AA"/>
</mask>
<g mask="url(#mask8_3169_6308)">
<g filter="url(#filter1_ii_3169_6308)">
<ellipse cx="159.544" cy="148.464" rx="24.8883" ry="25.0518" transform="rotate(135 159.544 148.464)" fill="#4776BD"/>
</g>
<g style="mix-blend-mode:multiply" opacity="0.2">
<path d="M180.204 172.474C163.224 177.745 138.467 156.469 154.505 124.124C147.494 123.027 130.762 117.13 115.675 119.313C96.815 122.041 100.326 142.883 96.0385 154.948C91.751 167.013 105.451 184.992 110.042 197.339C113.714 207.216 168.06 186.256 180.204 172.474Z" fill="#6B88B4"/>
</g>
</g>
<mask id="mask9_3169_6308" style="mask-type:alpha" maskUnits="userSpaceOnUse" x="144" y="153" width="15" height="10">
<path d="M147.071 160.411C146.244 160.062 145.443 159.658 144.671 159.201L144.491 159.121C146.432 157.668 147.73 155.516 148.111 153.121L148.531 153.191L154.531 154.451C154.734 154.494 154.919 154.598 155.061 154.751L156.941 156.751L158.231 159.281C158.231 159.281 156.941 160.281 155.391 157.961L153.261 157.751L154.601 160.241L154.851 162.161C154.355 162.447 153.793 162.598 153.221 162.598C152.648 162.598 152.086 162.447 151.591 162.161C150.93 161.777 150.241 161.443 149.531 161.161C148.698 160.954 147.877 160.704 147.071 160.411Z" fill="url(#paint20_linear_3169_6308)"/>
</mask>
<g mask="url(#mask9_3169_6308)">
<path d="M147.071 160.411C146.244 160.062 145.443 159.658 144.671 159.201L144.491 159.121C146.432 157.668 147.73 155.516 148.111 153.121L148.531 153.191L154.531 154.451C154.734 154.494 154.919 154.598 155.061 154.751L156.941 156.751L158.231 159.281C158.231 159.281 156.941 160.281 155.391 157.961L153.261 157.751L154.601 160.241L154.851 162.161C154.355 162.447 153.793 162.598 153.221 162.598C152.648 162.598 152.086 162.447 151.591 162.161C150.93 161.777 150.241 161.443 149.531 161.161C148.698 160.954 147.877 160.704 147.071 160.411Z" fill="#95A5FE"/>
<path d="M149.588 152.143C146.223 153.013 146.189 155.611 145.502 158.084C145.228 159.07 144.422 159.766 143.575 160.342C141.395 161.82 140.884 163.763 141.233 165.359C141.785 167.88 144.768 166.772 145.933 164.469L144.963 163.456L143.736 162.05L147.84 160.476L147.913 159.731C148.123 157.57 148.996 155.527 150.412 153.882L151.076 153.028L149.588 152.143Z" fill="#5466C9"/>
</g>
<path d="M146.491 95.4011V95.501C144.246 94.945 141.876 95.2221 139.821 96.2811L139.391 96.5111L139.311 96.3611C139.306 96.3011 139.306 96.241 139.311 96.1811C138.151 91.5911 145.851 89.2111 146.491 95.4011Z" fill="#97A6FE"/>
<mask id="mask10_3169_6308" style="mask-type:alpha" maskUnits="userSpaceOnUse" x="115" y="82" width="42" height="32">
<path d="M146.931 95.4817C145.431 86.7417 139.811 82.7117 133.741 82.1017C124.751 81.2217 114.771 87.8417 115.741 97.7817C116.571 96.0717 118.018 94.7392 119.791 94.0517C118.971 97.1317 118.161 102.762 121.241 105.922C122.43 95.9822 127.814 96.1898 133.375 96.4042C135.294 96.4782 137.235 96.553 139.031 96.2117L139.261 96.1617C138.161 91.5717 145.871 89.1917 146.501 95.3817V95.4817L146.931 95.5917V95.4817Z" fill="#24150D"/>
<path d="M154.084 101.307C152.82 99.3133 151.08 97.6655 149.021 96.5118C148.335 96.1428 147.606 95.8606 146.851 95.6718L146.421 95.5618C144.176 95.0057 141.806 95.2828 139.751 96.3418L139.321 96.5718C136.381 98.1618 132.981 101.372 131.451 107.572C133.912 108.952 136.639 109.791 139.451 110.032H139.581C140.191 107.622 143.271 105.712 143.981 109.622C146.103 110.928 148.499 111.726 150.981 111.952L149.981 113.422L150.201 113.562C153.541 113.702 156.611 111.262 156.261 107.932C156.096 105.577 155.348 103.3 154.084 101.307Z" fill="#24150D"/>
</mask>
<g mask="url(#mask10_3169_6308)">
<path d="M146.931 95.4817C145.431 86.7417 139.811 82.7117 133.741 82.1017C124.751 81.2217 114.771 87.8417 115.741 97.7817C116.571 96.0717 118.018 94.7392 119.791 94.0517C118.971 97.1317 118.161 102.762 121.241 105.922C122.43 95.9822 127.814 96.1898 133.375 96.4042C135.294 96.4782 137.235 96.553 139.031 96.2117L139.261 96.1617C138.161 91.5717 145.871 89.1917 146.501 95.3817V95.4817L146.931 95.5917V95.4817Z" fill="#24150D"/>
<path d="M154.084 101.307C152.82 99.3133 151.08 97.6655 149.021 96.5118C148.335 96.1428 147.606 95.8606 146.851 95.6718L146.421 95.5618C144.176 95.0057 141.806 95.2828 139.751 96.3418L139.321 96.5718C136.381 98.1618 132.981 101.372 131.451 107.572C133.912 108.952 136.639 109.791 139.451 110.032H139.581C140.191 107.622 143.271 105.712 143.981 109.622C146.103 110.928 148.499 111.726 150.981 111.952L149.981 113.422L150.201 113.562C153.541 113.702 156.611 111.262 156.261 107.932C156.096 105.577 155.348 103.3 154.084 101.307Z" fill="#24150D"/>
<path opacity="0.8" d="M146.02 95.8019L146.072 95.8276C146.552 96.0674 147.122 96.3522 147.736 96.7081C147.638 96.7491 147.556 96.8087 147.495 96.8878C147.111 97.3793 147.645 98.4366 148.687 99.2493C149.729 100.062 150.885 100.322 151.268 99.8308C151.312 99.7745 151.344 99.7108 151.364 99.641C152.146 100.545 152.862 101.641 153.419 102.981C154.785 106.268 155.019 109.608 155.223 112.525C155.513 116.667 155.743 119.954 159.068 121.022C164.735 122.842 165.728 98.7871 163.388 96.3034C161.049 93.8197 158.231 92.0372 155.976 92.3751C154.171 92.6455 148.587 94.7723 146.02 95.8019Z" fill="url(#paint21_linear_3169_6308)"/>
<path d="M147.12 167.864C141.184 167.567 98.7647 135.316 98.9131 133.536C99.0615 131.755 93.2741 98.8112 96.8356 97.3273C99.6847 96.1401 113.456 85.9504 119.985 81.0039C119.162 86.8174 121.318 98.3247 136.24 98.7963C136.554 98.8062 136.916 98.2424 137.242 98.2424C137.828 100.439 136.476 104.894 143.511 107.778C144.921 114.156 146.249 122.318 147.275 130.556C148.93 126.597 150.276 123.133 150.165 122.337H161.372V119.732L162.184 114.799L162.809 112.6L166.997 120.004L181.958 175.051C179.805 174.474 160.139 159.107 149.089 150.384C149.611 160.528 149.161 167.966 147.12 167.864Z" fill="#170D08"/>
<path d="M122.459 78.5615C121.618 84.4973 123.883 96.3689 139.673 96.3689" stroke="#170D08" stroke-width="1.51264"/>
</g>
<mask id="mask11_3169_6308" style="mask-type:alpha" maskUnits="userSpaceOnUse" x="127" y="107" width="24" height="14">
<path fill-rule="evenodd" clip-rule="evenodd" d="M149.971 113.441L150.971 111.971C148.501 111.763 146.113 110.99 143.991 109.711C143.283 105.815 140.222 107.658 139.597 110.095L139.571 110.051C136.759 109.81 134.032 108.971 131.571 107.591L128.001 108.281L127.551 108.451L131.351 119.161L131.871 118.981C133.171 118.6 134.516 118.391 135.871 118.361H136.129C136.129 118.368 136.13 118.375 136.131 118.381C136.251 119.771 136.701 121.111 138.421 120.771L141.571 120.141C141.756 120.109 141.947 120.13 142.121 120.201L143.121 120.611C143.235 120.659 143.357 120.683 143.481 120.683C143.605 120.683 143.727 120.659 143.842 120.612C143.956 120.564 144.06 120.495 144.147 120.407C144.234 120.32 144.304 120.216 144.351 120.101L145.201 118.101C145.418 117.566 145.748 117.084 146.17 116.689C146.591 116.294 147.093 115.994 147.641 115.811C148.279 115.611 148.828 115.194 149.191 114.631L149.971 113.441ZM136.074 117.493C136.069 117.332 136.066 117.176 136.063 117.026C136.063 117.014 136.063 117.001 136.062 116.989C136.064 117.149 136.068 117.319 136.074 117.493ZM136.797 113.155C136.846 113.058 136.897 112.962 136.95 112.868C137.572 111.757 138.486 110.836 139.592 110.206C139.592 110.211 139.591 110.216 139.591 110.221C138.48 110.852 137.564 111.774 136.94 112.888C136.89 112.976 136.843 113.065 136.797 113.155Z" fill="url(#paint22_linear_3169_6308)"/>
</mask>
<g mask="url(#mask11_3169_6308)">
<path fill-rule="evenodd" clip-rule="evenodd" d="M149.971 113.441L150.971 111.971C148.501 111.763 146.113 110.99 143.991 109.711C143.283 105.815 140.222 107.658 139.597 110.095L139.571 110.051C136.759 109.81 134.032 108.971 131.571 107.591L128.001 108.281L127.551 108.451L131.351 119.161L131.871 118.981C133.171 118.6 134.516 118.391 135.871 118.361H136.129C136.129 118.368 136.13 118.375 136.131 118.381C136.251 119.771 136.701 121.111 138.421 120.771L141.571 120.141C141.756 120.109 141.947 120.13 142.121 120.201L143.121 120.611C143.235 120.659 143.357 120.683 143.481 120.683C143.605 120.683 143.727 120.659 143.842 120.612C143.956 120.564 144.06 120.495 144.147 120.407C144.234 120.32 144.304 120.216 144.351 120.101L145.201 118.101C145.418 117.566 145.748 117.084 146.17 116.689C146.591 116.294 147.093 115.994 147.641 115.811C148.279 115.611 148.828 115.194 149.191 114.631L149.971 113.441ZM136.074 117.493C136.069 117.332 136.066 117.176 136.063 117.026C136.063 117.014 136.063 117.001 136.062 116.989C136.064 117.149 136.068 117.319 136.074 117.493ZM136.797 113.155C136.846 113.058 136.897 112.962 136.95 112.868C137.572 111.757 138.486 110.836 139.592 110.206C139.592 110.211 139.591 110.216 139.591 110.221C138.48 110.852 137.564 111.774 136.94 112.888C136.89 112.976 136.843 113.065 136.797 113.155Z" fill="url(#paint23_linear_3169_6308)"/>
<path d="M137.746 109.513C134.381 110.383 134.348 112.981 133.661 115.454C133.386 116.44 132.58 117.137 131.733 117.712C129.554 119.191 129.042 121.133 129.391 122.729C129.943 125.25 132.926 124.142 134.091 121.839L133.121 120.826L131.894 119.42L135.999 117.846L136.394 113.781L138.571 111.252L139.234 110.399L137.746 109.513Z" fill="#5466C9"/>
</g>
<mask id="mask12_3169_6308" style="mask-type:alpha" maskUnits="userSpaceOnUse" x="76" y="108" width="73" height="52">
<path d="M127.481 108.422L132.411 122.312L129.937 127.319C131.13 130.387 132.054 133.664 132.973 136.923L132.973 136.924C133.445 138.598 133.916 140.268 134.421 141.902C134.527 142.245 134.661 142.58 134.821 142.902C134.932 143.117 135.062 143.321 135.211 143.512C136.281 144.892 139.211 148.082 145.731 151.642C145.551 155.132 141.731 157.992 141.731 157.992C139.101 156.712 136.731 155.412 134.731 154.212C132.171 152.672 130.151 151.282 128.731 150.272C127.236 149.165 126.026 147.718 125.201 146.052L121.441 138.622L121.131 138.782C110.941 139.852 88.7206 135.232 78.5906 126.432C77.7675 125.72 77.0049 124.94 76.3106 124.102C75.9114 121.472 75.9621 118.794 76.4606 116.182C76.7573 114.403 77.1954 112.651 77.7706 110.942L90.0406 113.942C95.6869 115.438 101.64 115.317 107.221 113.592C112.265 111.786 117.415 110.286 122.641 109.102L122.652 109.13L127.481 108.422Z" fill="url(#paint24_linear_3169_6308)"/>
<path d="M134.851 142.892C135.226 141.245 135.765 139.641 136.461 138.102C135.361 135.632 134.081 131.992 133.121 129.002C132.201 126.242 131.541 124.092 131.541 124.092L129.961 127.292C131.088 130.189 131.956 133.272 132.822 136.35C133.346 138.213 133.87 140.075 134.451 141.892C134.557 142.235 134.691 142.57 134.851 142.892Z" fill="url(#paint25_linear_3169_6308)"/>
<path d="M148.131 153.162V153.022L145.771 151.672C145.571 155.162 141.771 158.022 141.771 158.022L144.511 159.162C146.452 157.709 147.75 155.557 148.131 153.162Z" fill="url(#paint26_linear_3169_6308)"/>
</mask>
<g mask="url(#mask12_3169_6308)">
<path d="M127.481 108.422L132.411 122.312L129.937 127.319C131.13 130.387 132.054 133.664 132.973 136.923L132.973 136.924C133.445 138.598 133.916 140.268 134.421 141.902C134.527 142.245 134.661 142.58 134.821 142.902C134.932 143.117 135.062 143.321 135.211 143.512C136.281 144.892 139.211 148.082 145.731 151.642C145.551 155.132 141.731 157.992 141.731 157.992C139.101 156.712 136.731 155.412 134.731 154.212C132.171 152.672 130.151 151.282 128.731 150.272C127.236 149.165 126.026 147.718 125.201 146.052L121.441 138.622L121.131 138.782C110.941 139.852 88.7206 135.232 78.5906 126.432C77.7675 125.72 77.0049 124.94 76.3106 124.102C75.9114 121.472 75.9621 118.794 76.4606 116.182C76.7573 114.403 77.1954 112.651 77.7706 110.942L90.0406 113.942C95.6869 115.438 101.64 115.317 107.221 113.592C112.265 111.786 117.415 110.286 122.641 109.102L122.652 109.13L127.481 108.422Z" fill="url(#paint27_linear_3169_6308)"/>
<path d="M134.851 142.892C135.226 141.245 135.765 139.641 136.461 138.102C135.361 135.632 134.081 131.992 133.121 129.002C132.201 126.242 131.541 124.092 131.541 124.092L129.961 127.292C131.088 130.189 131.956 133.272 132.822 136.35C133.346 138.213 133.87 140.075 134.451 141.892C134.557 142.235 134.691 142.57 134.851 142.892Z" fill="url(#paint28_linear_3169_6308)"/>
<path d="M148.131 153.162V153.022L145.771 151.672C145.571 155.162 141.771 158.022 141.771 158.022L144.511 159.162C146.452 157.709 147.75 155.557 148.131 153.162Z" fill="url(#paint29_linear_3169_6308)"/>
<g style="mix-blend-mode:screen" opacity="0.34">
<path d="M132.172 142.338C129.556 129.354 125.564 123.299 125.564 123.299V122.694L127.832 123.299L130.099 127.003L135.164 141.667C139.472 144.337 148.24 149.8 148.845 150.284C149.45 150.767 148.593 153.307 148.089 154.517L134.966 146.411C133.505 145.509 132.511 144.021 132.172 142.338Z" fill="url(#paint30_linear_3169_6308)"/>
</g>
<g style="mix-blend-mode:multiply" opacity="0.3">
<path d="M100.821 114.982C84.0559 119.452 86.1992 133.936 86.1992 133.936L76.8609 130.416C76.8609 130.416 71.5995 119.537 75.5086 102.651L106.666 103.506L115.418 102.651C115.418 102.651 117.532 103.976 118.442 106.666C118.442 106.666 109.479 111.495 100.821 114.982Z" fill="#51005F"/>
<path d="M131.67 125.399L136.732 137.671L137.499 139.588L134.968 142.426L132.13 133.529L129.983 126.243C127.554 120.44 122.727 108.726 122.85 108.296C122.973 107.867 125.56 106.686 126.838 106.149L132.59 122.332L131.67 125.399Z" fill="#51005F"/>
<path d="M144.411 155.267L145.54 152.329C145.71 152.216 146.049 151.651 146.049 150.296C146.049 148.601 147.404 150.974 148.308 151.99C149.212 153.007 148.534 153.007 148.308 153.685C148.127 154.227 146.726 156.773 146.049 157.978C145.597 158.392 144.467 159.187 143.563 159.051C142.659 158.915 142.208 158.279 142.095 157.978L144.411 155.267Z" fill="#51005F"/>
<path d="M118.442 140.126L117.213 130.416L121.616 138.424L118.442 140.126Z" fill="#51005F"/>
</g>
</g>
<path d="M78.5907 126.432C88.7207 135.232 110.941 139.852 121.131 138.782C121.131 138.782 99.5407 146.622 87.4507 148.552L87.3807 148.482C84.3981 145.668 82.0661 142.237 80.5478 138.428C79.0295 134.62 78.3616 130.525 78.5907 126.432Z" fill="url(#paint31_linear_3169_6308)"/>
<mask id="mask13_3169_6308" style="mask-type:alpha" maskUnits="userSpaceOnUse" x="20" y="87" width="68" height="62">
<path d="M28.8626 87.3152L28.8507 87.3018L28.8707 87.3118C28.8683 87.3128 28.8656 87.3139 28.8626 87.3152Z" fill="url(#paint32_linear_3169_6308)"/>
<path d="M31.8344 90.6759C31.8398 90.6745 31.8452 90.6731 31.8507 90.6718L28.8626 87.3152C28.4627 87.4867 23.1802 89.8645 20.4007 94.3118C20.3272 94.407 20.2604 94.5073 20.2007 94.6118L22.9596 98.3966C22.9537 98.4066 22.9507 98.4118 22.9507 98.4118L36.3707 116.792L38.5407 129.242C38.7118 130.443 39.334 131.533 40.2807 132.292C44.2107 135.302 57.0907 143.312 87.2807 148.502L87.3807 148.392C84.4047 145.584 82.0767 142.161 80.5586 138.361C79.0406 134.562 78.369 130.477 78.5907 126.392C77.7692 125.692 77.0067 124.926 76.3107 124.102C75.9127 121.486 75.96 118.822 76.4507 116.222L76.1307 116.162C68.336 114.975 60.6314 113.258 53.0707 111.022C51.1865 110.447 49.4192 109.543 47.8507 108.352L45.2107 93.5917L45.2016 93.5919L44.5707 90.1017L44.3807 90.0317C40.3722 89.9455 36.3693 90.3757 32.4707 91.3117L32.4257 91.3503L31.8344 90.6759Z" fill="url(#paint33_linear_3169_6308)"/>
</mask>
<g mask="url(#mask13_3169_6308)">
<path d="M28.8626 87.3152L28.8507 87.3018L28.8707 87.3118C28.8683 87.3128 28.8656 87.3139 28.8626 87.3152Z" fill="url(#paint34_linear_3169_6308)"/>
<path d="M31.8344 90.6759C31.8398 90.6745 31.8452 90.6731 31.8507 90.6718L28.8626 87.3152C28.4627 87.4867 23.1802 89.8645 20.4007 94.3118C20.3272 94.407 20.2604 94.5073 20.2007 94.6118L22.9596 98.3966C22.9537 98.4066 22.9507 98.4118 22.9507 98.4118L36.3707 116.792L38.5407 129.242C38.7118 130.443 39.334 131.533 40.2807 132.292C44.2107 135.302 57.0907 143.312 87.2807 148.502L87.3807 148.392C84.4047 145.584 82.0767 142.161 80.5586 138.361C79.0406 134.562 78.369 130.477 78.5907 126.392C77.7692 125.692 77.0067 124.926 76.3107 124.102C75.9127 121.486 75.96 118.822 76.4507 116.222L76.1307 116.162C68.336 114.975 60.6314 113.258 53.0707 111.022C51.1865 110.447 49.4192 109.543 47.8507 108.352L45.2107 93.5917L45.2016 93.5919L44.5707 90.1017L44.3807 90.0317C40.3722 89.9455 36.3693 90.3757 32.4707 91.3117L32.4257 91.3503L31.8344 90.6759Z" fill="url(#paint35_linear_3169_6308)"/>
<g style="mix-blend-mode:multiply" opacity="0.5">
<path d="M64.1903 70.5986L21.3193 81.6109L42.4402 106.752C45.3114 110.17 49.0453 112.756 53.254 114.243L66.0689 118.771C70.0412 120.174 72.7937 123.743 73.6226 127.874C78.0662 150.018 90.2887 159.428 92.5214 141.948L64.1903 70.5986Z" fill="url(#paint36_linear_3169_6308)"/>
<path d="M37.0551 120.121L36.6548 117.668L45.0542 124.649L71.728 137.304L49.9387 133.278C43.2979 132.05 38.1427 126.786 37.0551 120.121Z" fill="url(#paint37_linear_3169_6308)"/>
</g>
</g>
<mask id="mask14_3169_6308" style="mask-type:alpha" maskUnits="userSpaceOnUse" x="4" y="80" width="41" height="15">
<path d="M25.9606 83.7115L26.1306 83.5815L42.8506 81.8615C43.1127 81.8478 43.3696 81.9376 43.566 82.1116C43.7625 82.2856 43.8826 82.5298 43.9006 82.7915L44.4106 89.6515V90.0315C40.4043 89.9289 36.4014 90.3423 32.5006 91.2615L32.4306 91.3215L31.8506 90.6715L28.8506 87.3015L28.8267 87.2718C28.3204 87.4919 23.1279 89.8659 20.3806 94.2615L20.1206 94.1015C20.1206 94.1015 15.7606 93.9515 13.9306 94.1015C13.8681 94.113 13.806 94.1243 13.7444 94.1356C7.82458 95.2167 6.56502 95.4468 4.10065 92.1015L21.1806 80.6915C21.5964 80.4138 22.1011 80.3018 22.5953 80.3777C23.0895 80.4536 23.5374 80.7118 23.8506 81.1015L25.9606 83.7115Z" fill="url(#paint38_linear_3169_6308)"/>
</mask>
<g mask="url(#mask14_3169_6308)">
<path d="M25.9606 83.7115L26.1306 83.5815L42.8506 81.8615C43.1127 81.8478 43.3696 81.9376 43.566 82.1116C43.7625 82.2856 43.8826 82.5298 43.9006 82.7915L44.4106 89.6515V90.0315C40.4043 89.9289 36.4014 90.3423 32.5006 91.2615L32.4306 91.3215L31.8506 90.6715L28.8506 87.3015L28.8267 87.2718C28.3204 87.4919 23.1279 89.8659 20.3806 94.2615L20.1206 94.1015C20.1206 94.1015 15.7606 93.9515 13.9306 94.1015C13.8681 94.113 13.806 94.1243 13.7444 94.1356C7.82458 95.2167 6.56502 95.4468 4.10065 92.1015L21.1806 80.6915C21.5964 80.4138 22.1011 80.3018 22.5953 80.3777C23.0895 80.4536 23.5374 80.7118 23.8506 81.1015L25.9606 83.7115Z" fill="url(#paint39_linear_3169_6308)"/>
<path opacity="0.6" d="M32.8529 91.6834L25.8068 83.1866C30.7641 82.6612 44.8036 81.1143 44.8036 81.1143L45.521 95.8155C42.4162 98.0271 36.1408 102.481 35.8771 102.605L32.8529 91.6834Z" fill="#0F0B22"/>
<path opacity="0.6" d="M24.4685 89.4275L17.4224 80.9308C22.3797 80.4053 36.4192 78.8584 36.4192 78.8584L37.1367 93.5596C34.0319 95.7713 27.7565 100.225 27.4928 100.349L24.4685 89.4275Z" fill="#0F0B22"/>
</g>
<path d="M87.4242 148.586C57.2342 143.392 44.3494 135.385 40.3885 132.375C39.4153 131.635 38.8503 130.531 38.6457 129.326L36.5165 116.785M76.2873 116.157C76.2873 116.157 65.0503 114.588 53.2192 111.011C50.0823 110.062 47.3283 108.171 45.1672 105.708L31.975 90.6686M72.0508 136.941C72.0508 136.941 55.9592 131.557 43.9238 124.021C41.0518 122.223 38.6853 119.755 36.6868 117.019L23.0915 98.4031M23.0915 98.4031L20.3217 94.6105C23.1775 89.7816 29.0129 87.2918 29.0129 87.2918L31.975 90.6686M23.0915 98.4031C23.0915 98.4031 26.8434 91.9743 31.975 90.6686" stroke="#6E33E5" stroke-width="1.2"/>
<path d="M44.5555 89.6504L44.0422 82.781C44.0002 82.2194 43.5031 81.8032 42.9429 81.8607L26.2695 83.572" stroke="#6E33E5" stroke-width="1.2"/>
<path d="M20.2615 94.1333C20.2615 94.1333 15.9068 93.9827 14.0764 94.0971C7.96214 95.2042 6.73758 95.4776 4.24705 92.1041L21.3254 80.6868C22.1854 80.1119 23.342 80.2876 23.9923 81.0921L28.9752 87.256" stroke="#6E33E5" stroke-width="1.2"/>
<path d="M23.9736 81.625L5.93555 93.8145" stroke="#6E33E5"/>
<path d="M44.3813 83.9699L27.7152 85.8035" stroke="#6E33E5"/>
<path d="M48.026 108.476L45.3536 93.582M32.6173 91.252C40.0393 89.6385 44.7184 90.0419 44.7184 90.0419L45.3536 93.582M34.9568 94.6C40.1199 93.582 45.3536 93.582 45.3536 93.582" stroke="#6E33E5"/>
<path d="M130.076 127.323L132.549 122.31L127.626 108.412L122.786 109.13M130.076 127.323C129.231 125.146 127.573 123.331 125.388 122.31M130.076 127.323L122.786 109.13M130.076 127.323C131.883 131.978 133.024 137.102 134.569 141.927C134.748 142.488 134.99 143.027 135.351 143.492C136.421 144.872 139.365 148.065 145.874 151.629M122.786 109.13C116.322 110.506 111.722 112.144 107.364 113.59C101.813 115.432 95.8717 115.309 90.1863 113.937L77.9111 110.976C75.3101 118.779 76.4545 124.137 76.4545 124.137C85.055 134.41 110.239 139.939 121.273 138.779C121.273 138.779 99.6869 146.616 87.5899 148.545C77.2631 138.779 78.7384 126.386 78.7384 126.386M117.217 130.101L125.396 146.036C126.246 147.692 127.413 149.164 128.92 150.257C131.417 152.069 135.909 155.065 141.893 157.979M141.893 157.979L144.632 159.119C144.632 159.119 147.818 156.95 148.277 153.012L145.874 151.629M141.893 157.979C141.893 157.979 145.694 155.119 145.874 151.629" stroke="#6E33E5" stroke-width="1.2"/>
<path d="M131.667 124.132C131.667 124.132 134.573 133.604 136.72 138.391" stroke="#6E33E5" stroke-width="1.2"/>
<path d="M134.803 153.745C136.05 159.869 139.515 165.316 144.534 169.039C149.553 172.763 155.77 174.501 161.992 173.918C168.215 173.336 174.002 170.475 178.243 165.885C182.483 161.294 184.878 155.299 184.967 149.05C185.055 142.802 182.832 136.741 178.723 132.032C174.615 127.323 168.911 124.299 162.708 123.54C156.505 122.782 150.24 124.342 145.118 127.921C139.995 131.501 136.376 136.847 134.956 142.933" stroke="#6E33E5" stroke-width="1.2"/>
<path d="M133.292 129.02C134.97 126.058 138.227 124.289 142.76 124.066C145.093 123.951 147.687 124.251 150.441 124.947M184.702 153.006C184.964 153.554 185.208 154.099 185.432 154.641C187.501 159.64 187.815 164.052 186.477 167.316C185.155 170.544 182.231 172.616 177.973 173.182C173.694 173.752 168.315 172.76 162.569 170.28C157.249 167.985 151.894 164.534 147.142 160.346" stroke="#6E33E5" stroke-width="1.2"/>
<path d="M149.388 114.624L151.111 111.97C146.987 111.578 144.147 109.633 144.147 109.633C143.428 105.677 140.26 107.648 139.721 110.15C137.451 111.426 136.086 113.864 136.184 116.466C136.244 118.051 136.019 121.196 138.556 120.693L141.704 120.07C141.888 120.033 142.078 120.052 142.251 120.123L143.259 120.535C143.741 120.732 144.292 120.507 144.498 120.029L145.343 118.068C145.808 116.988 146.718 116.164 147.837 115.807C148.475 115.604 149.023 115.186 149.388 114.624Z" stroke="#6E33E5" stroke-width="1.2"/>
<path d="M128.078 108.247L131.641 107.552M131.641 107.552C131.641 107.552 134.879 109.572 139.614 110.014M131.641 107.552C133.241 101.056 136.916 97.8477 139.948 96.2718C142.856 94.7606 146.358 94.8985 149.203 96.5248C152.242 98.2622 155.787 101.619 156.445 107.942C156.791 111.271 153.727 113.714 150.383 113.574V113.574" stroke="#6E33E5"/>
<path d="M139.435 96.3516C138.097 91.6456 145.992 89.1254 146.635 95.4001" stroke="#6E33E5"/>
<path d="M147.076 95.4914C143.344 73.806 114.272 81.1006 115.878 97.7949C117.536 94.7459 119.926 94.0654 119.926 94.0654C119.1 97.1498 118.299 102.776 121.372 105.932C122.978 92.5655 132.157 97.5566 139.165 96.2303" stroke="#6E33E5"/>
<path d="M149.176 96.6222C148.547 86.8682 141.457 82.1628 133.841 82.1143" stroke="#6E33E5"/>
<path d="M131.946 118.949C133.926 118.328 135.995 118.328 135.995 118.328" stroke="#6E33E5"/>
<path d="M144.81 159.192C146.619 160.261 148.533 160.966 149.698 161.34C150.418 161.571 151.079 161.96 151.755 162.3C153.608 163.232 155.009 162.241 155.009 162.241L154.762 160.329L153.429 157.831L155.559 158.042C157.105 160.391 158.39 159.362 158.39 159.362L157.105 156.836L155.227 154.788C155.085 154.634 154.9 154.528 154.695 154.485L148.669 153.221" stroke="#6E33E5" stroke-width="1.2"/>
<mask id="mask15_3169_6308" style="mask-type:alpha" maskUnits="userSpaceOnUse" x="235" y="187" width="51" height="51">
<ellipse rx="24.8616" ry="25.3971" transform="matrix(-0.5 -0.866025 -0.866025 0.5 260.389 212.975)" fill="#5778AA"/>
</mask>
<g mask="url(#mask15_3169_6308)">
<g filter="url(#filter2_ii_3169_6308)">
<ellipse rx="24.8616" ry="25.3971" transform="matrix(-0.5 -0.866025 -0.866025 0.5 260.389 212.975)" fill="#4776BD"/>
</g>
<path opacity="0.2" d="M241.282 230.331C241.282 230.331 282.331 228.747 274.012 187.149C280.078 189.108 295.88 191.153 307.094 199.011C321.111 208.833 309.859 224.123 308.412 235.532C306.966 246.941 288.703 255.81 280.024 263.851C273.081 270.284 245.948 238.669 241.282 230.331Z" fill="#294D84"/>
</g>
<path d="M387.968 224.607L370.968 223.917C370.47 223.881 369.977 224.032 369.584 224.341C369.192 224.65 368.93 225.095 368.848 225.587L368.848 225.787L367.688 232.497L376.278 233.217C376.278 233.217 379.638 231.197 381.128 230.487C385.358 229.027 386.898 228.487 387.578 226.487C387.766 225.874 387.897 225.245 387.968 224.607Z" fill="url(#paint40_linear_3169_6308)"/>
<path d="M376.978 273.537H378.918L378.278 296.367C377.652 296.373 377.027 296.326 376.408 296.227V296.107L376.678 285.043L376.388 296.137V296.257C373.862 295.825 373.259 294.31 372.213 291.684L372.158 291.547C371.693 290.441 371.036 289.425 370.218 288.547C368.896 287.027 367.705 285.398 366.658 283.677C366.658 283.677 371.048 279.397 370.978 273.577L376.978 273.537Z" fill="url(#paint41_linear_3169_6308)"/>
<mask id="mask16_3169_6308" style="mask-type:alpha" maskUnits="userSpaceOnUse" x="321" y="232" width="56" height="55">
<path d="M367.718 232.357L360.468 247.577L338.398 240.897C337.518 241.947 336.618 243.007 335.708 244.007C331.312 248.86 326.655 253.47 321.758 257.817L334.588 283.067C335.141 284.153 336.011 285.044 337.083 285.623C338.154 286.201 339.377 286.44 340.588 286.307L366.678 283.547C366.678 283.547 371.068 279.267 370.998 273.447L344.628 274.167H344.498C343.098 269.563 342.091 265.318 341.143 261.323C340.919 260.381 340.699 259.453 340.478 258.537C339.396 253.542 337.798 248.672 335.708 244.007C337.803 248.681 339.405 253.561 340.488 258.567H364.388C365.684 258.565 366.945 258.143 367.982 257.364C369.018 256.586 369.775 255.492 370.138 254.247L376.308 233.077L367.718 232.357Z" fill="url(#paint42_linear_3169_6308)"/>
</mask>
<g mask="url(#mask16_3169_6308)">
<path d="M367.718 232.357L360.468 247.577L338.398 240.897C337.518 241.947 336.618 243.007 335.708 244.007C331.312 248.86 326.655 253.47 321.758 257.817L334.588 283.067C335.141 284.153 336.011 285.044 337.083 285.623C338.154 286.201 339.377 286.44 340.588 286.307L366.678 283.547C366.678 283.547 371.068 279.267 370.998 273.447L344.628 274.167H344.498C343.098 269.563 342.091 265.318 341.143 261.323C340.919 260.381 340.699 259.453 340.478 258.537C339.396 253.542 337.798 248.672 335.708 244.007C337.803 248.681 339.405 253.561 340.488 258.567H364.388C365.684 258.565 366.945 258.143 367.982 257.364C369.018 256.586 369.775 255.492 370.138 254.247L376.308 233.077L367.718 232.357Z" fill="url(#paint43_linear_3169_6308)"/>
<g style="mix-blend-mode:multiply" opacity="0.4">
<path d="M333.312 234.409L345.72 242.952L359.612 233.222H369.185L364.395 247.871C363.748 249.85 361.69 251.002 359.664 250.518L349.506 248.091C345.848 247.217 341.99 247.971 338.929 250.157L338.003 250.818L337.183 248.721L340.465 259.754L344.841 274.524L369.914 274.068V276.621L348.059 279.82C345.027 280.264 342.148 278.352 341.381 275.385L336.817 257.732C336.114 255.015 332.904 253.847 330.62 255.478L322.957 260.949C297.083 268.291 322.787 250.949 333.312 234.409Z" fill="url(#paint44_linear_3169_6308)"/>
</g>
</g>
<path d="M319.388 255.617C312.792 248.837 307.416 240.968 303.498 232.357C310.038 242.117 325.638 245.257 338.318 240.807L338.398 241.057C337.518 242.057 336.618 243.147 335.708 244.167C331.311 249.01 326.655 253.61 321.758 257.947C321.758 257.947 320.838 257.137 319.388 255.617Z" fill="url(#paint45_linear_3169_6308)"/>
<path d="M300.688 196.727V188.447C300.704 188.145 300.651 187.843 300.534 187.564C300.416 187.285 300.236 187.037 300.008 186.837C299.651 186.551 299.206 186.396 298.748 186.397C298.339 186.397 297.938 186.519 297.598 186.747C297.488 186.822 297.385 186.906 297.288 186.997C296.905 187.383 296.689 187.904 296.688 188.447V196.684C296.655 196.704 296.621 196.726 296.588 196.747C296.063 197.085 295.63 197.55 295.331 198.099C295.033 198.647 294.877 199.263 294.878 199.887C294.878 200.381 294.976 200.869 295.165 201.325C295.354 201.78 295.631 202.194 295.98 202.543C296.33 202.891 296.744 203.167 297.2 203.355C297.656 203.543 298.145 203.639 298.638 203.637C299.082 203.639 299.522 203.561 299.938 203.407C300.792 203.09 301.502 202.476 301.938 201.677C302.237 201.128 302.392 200.513 302.388 199.887C302.39 199.39 302.292 198.898 302.101 198.439C301.91 197.98 301.629 197.564 301.275 197.215C300.922 196.866 300.502 196.591 300.04 196.406C299.579 196.221 299.085 196.129 298.588 196.137C298.493 196.138 298.398 196.143 298.304 196.151C298.431 196.136 298.559 196.129 298.688 196.127C299.398 196.134 300.092 196.342 300.688 196.727Z" fill="#8469DF"/>
<mask id="mask17_3169_6308" style="mask-type:alpha" maskUnits="userSpaceOnUse" x="289" y="193" width="21" height="19">
<path d="M298.318 208.406C298.315 208.41 298.312 208.414 298.308 208.418C298.04 208.738 297.742 209.033 297.418 209.298L296.418 210.088C296.215 210.255 295.981 210.38 295.729 210.457C295.477 210.533 295.212 210.559 294.95 210.533C294.688 210.507 294.434 210.43 294.202 210.305C293.97 210.181 293.765 210.012 293.598 209.808L291.288 206.978C291.155 206.821 290.977 206.709 290.778 206.658L289.878 206.398C289.627 206.315 289.418 206.136 289.298 205.9C289.178 205.664 289.156 205.39 289.238 205.138L289.878 203.138C290.009 202.73 290.076 202.305 290.078 201.878C290.075 201.177 289.892 200.488 289.548 199.878C289.243 199.33 289.117 198.701 289.188 198.078L289.668 193.968L289.838 193.888C290.348 199.768 294.748 198.888 294.748 198.888L295.038 198.958C294.948 199.283 294.901 199.62 294.898 199.958C294.898 200.451 294.996 200.939 295.185 201.395C295.374 201.851 295.651 202.265 296 202.613C296.35 202.961 296.764 203.237 297.22 203.425C297.676 203.613 298.165 203.709 298.658 203.708C299.102 203.71 299.542 203.632 299.958 203.478L299.988 203.538V203.408C300.842 203.091 301.552 202.476 301.988 201.678H302.548C304.313 202.034 306.143 201.875 307.818 201.218L307.908 201.378L309.618 203.378L309.728 203.498L300.848 211.728L300.668 211.538C300.184 210.377 299.43 209.349 298.468 208.538L298.318 208.406Z" fill="url(#paint46_linear_3169_6308)"/>
</mask>
<g mask="url(#mask17_3169_6308)">
<path d="M298.318 208.406C298.315 208.41 298.312 208.414 298.308 208.418C298.04 208.738 297.742 209.033 297.418 209.298L296.418 210.088C296.215 210.255 295.981 210.38 295.729 210.457C295.477 210.533 295.212 210.559 294.95 210.533C294.688 210.507 294.434 210.43 294.202 210.305C293.97 210.181 293.765 210.012 293.598 209.808L291.288 206.978C291.155 206.821 290.977 206.709 290.778 206.658L289.878 206.398C289.627 206.315 289.418 206.136 289.298 205.9C289.178 205.664 289.156 205.39 289.238 205.138L289.878 203.138C290.009 202.73 290.076 202.305 290.078 201.878C290.075 201.177 289.892 200.488 289.548 199.878C289.243 199.33 289.117 198.701 289.188 198.078L289.668 193.968L289.838 193.888C290.348 199.768 294.748 198.888 294.748 198.888L295.038 198.958C294.948 199.283 294.901 199.62 294.898 199.958C294.898 200.451 294.996 200.939 295.185 201.395C295.374 201.851 295.651 202.265 296 202.613C296.35 202.961 296.764 203.237 297.22 203.425C297.676 203.613 298.165 203.709 298.658 203.708C299.102 203.71 299.542 203.632 299.958 203.478L299.988 203.538V203.408C300.842 203.091 301.552 202.476 301.988 201.678H302.548C304.313 202.034 306.143 201.875 307.818 201.218L307.908 201.378L309.618 203.378L309.728 203.498L300.848 211.728L300.668 211.538C300.184 210.377 299.43 209.349 298.468 208.538L298.318 208.406Z" fill="url(#paint47_linear_3169_6308)"/>
<path d="M302.647 201.047C303.795 204.599 303.713 205.464 300.524 209.046C299.707 209.964 299.403 211.204 299.276 212.427C299.031 214.789 297.509 215.757 295.884 215.876C293.31 216.066 292.879 212.957 294.199 210.739L295.575 211.015L297.419 211.297L297.612 209.038L299.571 205.93L300.736 201.283L301.102 200.266L302.647 201.047Z" fill="url(#paint48_linear_3169_6308)"/>
</g>
<path d="M297.488 186.748L296.908 186.848C296.172 186.848 295.465 186.884 294.772 186.92C292.2 187.053 289.818 187.176 286.808 185.388C286.592 185.983 286.612 186.639 286.865 187.219C287.118 187.8 287.585 188.261 288.168 188.508C288.168 188.508 285.078 191.578 287.298 196.438C287.734 195.324 288.568 194.411 289.638 193.878L289.808 193.798C290.318 199.668 294.718 198.798 294.718 198.798L295.008 198.868C295.26 197.995 295.818 197.243 296.578 196.748V188.448C296.579 187.904 296.795 187.383 297.178 186.998C297.275 186.906 297.378 186.822 297.488 186.748Z" fill="url(#paint49_linear_3169_6308)"/>
<path d="M304.908 187.262C304.151 186.934 303.334 186.766 302.508 186.768H299.958L299.898 186.838C300.146 187.026 300.347 187.27 300.484 187.549C300.621 187.829 300.691 188.136 300.688 188.448V196.738C301.479 197.254 302.047 198.048 302.28 198.962C302.513 199.877 302.395 200.846 301.948 201.678H302.508C304.273 202.034 306.103 201.875 307.778 201.218L307.918 201.378L308.508 193.198C308.568 192.374 308.456 191.548 308.181 190.769C307.906 189.991 307.474 189.278 306.911 188.674C306.347 188.071 305.666 187.59 304.908 187.262Z" fill="url(#paint50_linear_3169_6308)"/>
<mask id="mask18_3169_6308" style="mask-type:alpha" maskUnits="userSpaceOnUse" x="262" y="203" width="81" height="54">
<path fill-rule="evenodd" clip-rule="evenodd" d="M300.549 212.877L300.679 211.877L300.849 211.717L309.729 203.487L312.489 206.567L312.034 206.948L320.548 218.605L325.049 225.817L330.184 230.606L342.761 238.799C341.281 239.683 338.238 241.453 337.915 241.453C337.592 241.453 332.357 242.607 329.78 243.184L321.587 242.78L313.856 241.049L307.047 237.01L303.953 233.34C307.828 241.567 313.044 249.095 319.388 255.617C315.838 256.748 312.084 257.089 308.388 256.617C304.638 251.509 302.694 236.171 302.15 231.2L301.162 230.029L291.758 233.202L283.392 235.395L277.853 234.241C275.161 232.971 269.626 230.352 269.026 230.029C268.426 229.706 265.468 227.086 264.064 225.817C264.095 225.765 264.128 225.71 264.162 225.653C263.738 225.287 263.313 224.918 262.888 224.527V224.227C263.246 221.879 264.501 219.76 266.388 218.317L266.468 218.367C267.258 218.847 268.038 219.287 268.788 219.707C266.758 220.89 265.556 222.961 264.934 224.367C265.496 223.433 266.06 222.498 266.154 222.358C266.3 222.138 267.883 220.72 268.656 220.039L277.262 223.945C278.89 224.158 282.169 224.561 282.267 224.464C282.307 224.423 282.848 224.236 283.574 223.998L283.529 223.807C283.909 223.037 284.249 222.247 284.529 221.447H284.619C285.619 220.997 286.789 220.447 288.009 219.817C293.439 217.137 300.009 213.207 300.549 212.877ZM300.16 215.957L300.159 215.967C299.703 216.12 299.262 216.31 298.839 216.537L286.939 222.827C286.772 222.917 286.604 223.003 286.434 223.085L286.906 222.938L298.319 217.017L301.624 215.585C301.126 215.667 300.636 215.792 300.16 215.957ZM301.817 215.502L309.291 209.244L302.897 215.034L301.817 215.502Z" fill="url(#paint51_linear_3169_6308)"/>
</mask>
<g mask="url(#mask18_3169_6308)">
<path fill-rule="evenodd" clip-rule="evenodd" d="M300.549 212.877L300.679 211.877L300.849 211.717L309.729 203.487L312.489 206.567L312.034 206.948L320.548 218.605L325.049 225.817L330.184 230.606L342.761 238.799C341.281 239.683 338.238 241.453 337.915 241.453C337.592 241.453 332.357 242.607 329.78 243.184L321.587 242.78L313.856 241.049L307.047 237.01L303.953 233.34C307.828 241.567 313.044 249.095 319.388 255.617C315.838 256.748 312.084 257.089 308.388 256.617C304.638 251.509 302.694 236.171 302.15 231.2L301.162 230.029L291.758 233.202L283.392 235.395L277.853 234.241C275.161 232.971 269.626 230.352 269.026 230.029C268.426 229.706 265.468 227.086 264.064 225.817C264.095 225.765 264.128 225.71 264.162 225.653C263.738 225.287 263.313 224.918 262.888 224.527V224.227C263.246 221.879 264.501 219.76 266.388 218.317L266.468 218.367C267.258 218.847 268.038 219.287 268.788 219.707C266.758 220.89 265.556 222.961 264.934 224.367C265.496 223.433 266.06 222.498 266.154 222.358C266.3 222.138 267.883 220.72 268.656 220.039L277.262 223.945C278.89 224.158 282.169 224.561 282.267 224.464C282.307 224.423 282.848 224.236 283.574 223.998L283.529 223.807C283.909 223.037 284.249 222.247 284.529 221.447H284.619C285.619 220.997 286.789 220.447 288.009 219.817C293.439 217.137 300.009 213.207 300.549 212.877ZM300.16 215.957L300.159 215.967C299.703 216.12 299.262 216.31 298.839 216.537L286.939 222.827C286.772 222.917 286.604 223.003 286.434 223.085L286.906 222.938L298.319 217.017L301.624 215.585C301.126 215.667 300.636 215.792 300.16 215.957ZM301.817 215.502L309.291 209.244L302.897 215.034L301.817 215.502Z" fill="url(#paint52_linear_3169_6308)"/>
<g style="mix-blend-mode:multiply" opacity="0.2">
<path d="M307.674 237.596C326.441 240.579 332.904 226.162 332.904 226.162L348.903 239.894C345.969 243.527 325.366 244.73 320.061 247.249L307.674 237.596Z" fill="url(#paint53_linear_3169_6308)"/>
<path d="M281.448 220L280.075 222.826C285.7 221.405 290.515 217.073 297.018 214.605V211.397L281.448 220Z" fill="url(#paint54_linear_3169_6308)"/>
<path d="M309.14 243.272C309.195 242.889 304.92 235.996 302.776 232.597H300.723L295.865 245.188L306.129 262.227L314.409 260.653L319.678 256.821C316.143 252.465 309.085 243.655 309.14 243.272Z" fill="url(#paint55_linear_3169_6308)"/>
<path d="M286.176 232.738L305.132 227.941L304.735 228.69L283.668 235.962H282.126L268.022 229.748L261.94 226.31L262.513 223.798C265.595 226.656 272.411 229.977 276.967 232.017C279.861 233.313 283.103 233.516 286.176 232.738Z" fill="url(#paint56_linear_3169_6308)"/>
</g>
</g>
<mask id="mask19_3169_6308" style="mask-type:alpha" maskUnits="userSpaceOnUse" x="255" y="213" width="12" height="12">
<path d="M266.469 218.367H266.389C264.531 219.824 263.072 222.182 262.734 224.518C261.741 223.757 260.927 222.821 260.154 221.836C259.617 221.186 259.085 220.486 258.309 220.157C257.569 219.817 256.609 219.937 255.989 219.407C255.741 219.089 255.56 218.723 255.457 218.333C255.354 217.943 255.331 217.536 255.389 217.137L257.169 216.397H260.389L258.589 214.867C256.469 215.797 255.799 214.437 255.799 214.437L258.389 213.617L261.149 213.337C261.29 213.323 261.432 213.339 261.566 213.383C261.701 213.428 261.824 213.501 261.929 213.597C263.389 215.007 265.559 217.367 266.469 218.367Z" fill="url(#paint57_linear_3169_6308)"/>
</mask>
<g mask="url(#mask19_3169_6308)">
<path d="M266.469 218.367H266.389C264.531 219.824 263.072 222.182 262.734 224.518C261.741 223.757 260.927 222.821 260.154 221.836C259.617 221.186 259.085 220.486 258.309 220.157C257.569 219.817 256.609 219.937 255.989 219.407C255.741 219.089 255.56 218.723 255.457 218.333C255.354 217.943 255.331 217.536 255.389 217.137L257.169 216.397H260.389L258.589 214.867C256.469 215.797 255.799 214.437 255.799 214.437L258.389 213.617L261.149 213.337C261.29 213.323 261.432 213.339 261.566 213.383C261.701 213.428 261.824 213.501 261.929 213.597C263.389 215.007 265.559 217.367 266.469 218.367Z" fill="url(#paint58_linear_3169_6308)"/>
<path d="M266.097 215.083C267.246 218.636 267.163 219.5 263.974 223.083C263.157 224 262.853 225.24 262.726 226.463C262.481 228.825 260.959 229.793 259.334 229.913C256.76 230.102 256.329 226.993 257.649 224.776L259.025 225.051L260.869 225.333L260.237 222.472C260.237 222.472 263.303 222.078 264.186 215.32L264.552 214.302L266.097 215.083Z" fill="url(#paint59_linear_3169_6308)"/>
</g>
<path d="M303.093 232.676C309.702 247.887 321.369 258.296 321.369 258.296M321.369 258.296L334.222 283.51C335.35 285.725 337.728 287.014 340.199 286.752L366.285 283.989M321.369 258.296C321.369 258.296 328.608 252.004 335.315 244.515M366.285 283.989C366.285 283.989 370.679 279.707 370.604 273.886M366.285 283.989C366.285 283.989 367.751 286.486 369.846 288.86C370.642 289.762 371.346 290.752 371.787 291.871C373.089 295.173 373.663 296.715 377.889 296.715L378.521 273.886H370.604M370.604 273.886L344.231 274.608M335.315 244.515C336.227 243.497 337.129 242.456 338.002 241.406L362.682 248.851M335.315 244.515C337.5 249.085 338.811 253.85 340.08 259.052M345.229 278.142C342.824 271.032 341.477 264.777 340.08 259.052M340.08 259.052H363.987C366.655 259.052 369.002 257.291 369.748 254.73L375.913 233.559M375.913 233.559L367.323 232.839M375.913 233.559C375.913 233.559 379.271 231.536 380.76 230.825C386.052 229.021 387.134 228.701 387.617 224.959L370.577 224.266C369.575 224.225 368.698 224.933 368.526 225.921L367.323 232.839M367.323 232.839L360.077 248.065" stroke="#6E33E5" stroke-width="1.2"/>
<path d="M376.582 273.865L376.034 296.461" stroke="#6E33E5" stroke-width="1.2"/>
<path d="M368.617 226.145L387.028 226.765" stroke="#6E33E5" stroke-width="1.2"/>
<path d="M299.763 216.353L300.289 212.232L309.33 203.837L312.093 206.915M312.093 206.915C322.382 219.972 323.55 225.11 328.224 229.35C333.919 234.516 343.026 238.857 343.026 238.857C328.755 246.94 307.556 243.38 301.593 229.983C301.593 229.983 303.496 250.838 308.028 256.921C314.543 257.68 319.06 255.95 319.06 255.95M312.093 206.915L301.342 215.929M305.366 228.454L285.983 234.685C284.052 235.306 282.003 235.51 280.052 234.955C276.56 233.962 270.447 231.598 264.036 226.195M308.028 217.481C306.051 216.1 303.65 215.572 301.342 215.929M264.036 226.195C263.536 225.774 263.034 225.337 262.532 224.884C262.532 224.884 262.817 221.041 265.998 218.674C266.813 219.172 267.614 219.634 268.398 220.064M264.036 226.195C264.036 226.195 265.112 221.966 268.398 220.064M268.398 220.064C272.124 222.105 275.452 223.398 277.931 224.194C280.807 225.118 283.874 224.595 286.544 223.183L298.444 216.889C299.365 216.402 300.345 216.083 301.342 215.929" stroke="#6E33E5" stroke-width="1.2"/>
<path d="M300.273 211.876C300.273 211.876 299.5 209.956 298.079 208.909M309.227 203.718L307.373 201.565C307.373 201.565 304.702 202.646 301.816 202.035" stroke="#6E33E5" stroke-width="1.2"/>
<path d="M300.192 213.207C300.192 213.207 289.997 219.304 284.242 221.841" stroke="#6E33E5" stroke-width="1.2"/>
<path d="M275.567 233.272C270.598 236.986 264.438 238.747 258.257 238.223C252.075 237.699 246.301 234.925 242.028 230.427C237.755 225.929 235.281 220.02 235.074 213.819C234.868 207.619 236.943 201.558 240.907 196.786C244.871 192.014 250.448 188.862 256.582 187.927C262.715 186.993 268.977 188.341 274.183 191.716C279.388 195.091 283.175 200.259 284.824 206.239C286.473 212.22 285.871 218.598 283.132 224.164" stroke="#6E33E5" stroke-width="1.2"/>
<path d="M285.505 217.493C286.273 218.412 286.984 219.319 287.638 220.212M246.75 191.394C240.177 189.308 234.706 188.875 231.07 190.049C229.266 190.632 227.982 191.588 227.198 192.845C226.412 194.103 226.094 195.716 226.321 197.67C226.779 201.603 229.41 206.605 233.94 211.964C238.458 217.308 244.589 222.68 251.461 227.308C258.333 231.935 265.578 235.571 272.16 237.702C278.759 239.838 284.281 240.329 287.981 239.204C289.817 238.646 291.134 237.712 291.951 236.476C292.692 235.355 293.049 233.943 292.966 232.248" stroke="#6E33E5" stroke-width="1.2"/>
<circle cx="298.24" cy="200.238" r="3.7532" stroke="#6E33E5" stroke-width="1.2"/>
<path d="M300.294 197.08V188.799C300.294 187.665 299.374 186.745 298.24 186.745V186.745C297.106 186.745 296.187 187.665 296.187 188.799V197.08" stroke="#6E33E5" stroke-width="1.2"/>
<path d="M299.563 187.123H302.119C305.602 187.123 308.353 190.079 308.103 193.553L307.515 201.747" stroke="#6E33E5" stroke-width="1.2"/>
<path d="M296.815 187.204C293.348 187.204 290.238 188.014 286.416 185.736C286.416 185.736 285.632 187.837 287.783 188.849C287.783 188.849 284.693 191.924 286.92 196.783C286.92 196.783 287.53 194.948 289.428 194.138C289.934 200.022 294.338 199.149 294.338 199.149" stroke="#6E33E5" stroke-width="1.2"/>
<path d="M289.279 194.245L288.796 198.364C288.724 198.985 288.848 199.613 289.153 200.159V200.159C289.711 201.161 289.831 202.35 289.486 203.444L288.841 205.486C288.671 206.024 288.98 206.596 289.523 206.749L290.428 207.005C290.625 207.06 290.801 207.175 290.93 207.333L293.249 210.161C293.949 211.016 295.211 211.14 296.065 210.438L297.025 209.65C298.74 208.242 299.69 206.108 299.591 203.892V203.892" stroke="#6E33E5" stroke-width="1.2"/>
<path d="M262.438 224.801C262.438 224.801 261.252 223.667 259.864 221.938C259.308 221.246 258.649 220.788 257.893 220.444C257.15 220.108 256.199 220.225 255.578 219.697C254.97 219.18 254.978 218.162 254.958 217.512L256.874 216.976L259.996 216.689L258.343 215.426C255.898 215.897 255.409 214.786 255.409 214.786L258.079 213.578L260.847 213.633C261.094 213.638 261.33 213.732 261.508 213.903C263.356 215.675 266.327 218.896 266.327 218.896" stroke="#6E33E5" stroke-width="1.2"/>
<path d="M275.963 193.012C281.449 188.057 285.349 181.894 287.05 174.783C289.087 166.266 287.697 157.533 283.614 149.462M235.853 206.506C230.085 206.453 224.113 205.739 218.091 204.298C196.455 199.122 179.647 185.877 172.616 170.478M178.197 131.379C190.719 117.569 214.397 111.389 238.915 117.255C244.284 118.539 249.355 120.32 254.054 122.508" stroke="#6E33E5"/>
<path d="M230.994 190.231C227.977 190.066 224.889 189.622 221.78 188.878C200.902 183.883 186.986 167.252 190.699 151.732C194.413 136.212 214.348 127.679 235.226 132.674C256.104 137.669 270.02 154.3 266.306 169.82C263.725 180.609 253.305 188.022 240.178 189.86" stroke="#6E33E5"/>
<path d="M246.067 165.515C245.118 169.032 242.333 171.737 238.521 173.241C234.71 174.744 229.904 175.029 225.014 173.71C220.124 172.39 216.113 169.727 213.575 166.51C211.037 163.294 209.99 159.555 210.939 156.038C211.888 152.521 214.673 149.816 218.485 148.313C222.296 146.809 227.102 146.525 231.992 147.844C236.882 149.163 240.893 151.827 243.431 155.043C245.969 158.259 247.016 161.999 246.067 165.515Z" stroke="#6E33E5"/>
<g clip-path="url(#clip0_3169_6308)">
<path style="mix-blend-mode:screen" d="M228.46 195.354C247.599 195.354 263.115 179.768 263.115 160.541C263.115 141.315 247.599 125.729 228.46 125.729C209.32 125.729 193.805 141.315 193.805 160.541C193.805 179.768 209.32 195.354 228.46 195.354Z" fill="url(#paint60_radial_3169_6308)"/>
<path style="mix-blend-mode:screen" d="M244.123 163.825C245.928 155.143 240.386 146.635 231.743 144.821C223.1 143.007 214.631 148.575 212.825 157.257C211.02 165.939 216.562 174.447 225.205 176.261C233.847 178.074 242.317 172.507 244.123 163.825Z" fill="url(#paint61_radial_3169_6308)"/>
<g style="mix-blend-mode:screen">
<path d="M231.581 160.541C231.581 161.16 231.399 161.765 231.057 162.28C230.716 162.795 230.23 163.197 229.661 163.435C229.093 163.674 228.467 163.737 227.862 163.619C227.257 163.5 226.701 163.205 226.263 162.769C225.825 162.334 225.526 161.778 225.402 161.172C225.278 160.565 225.336 159.936 225.567 159.362C225.799 158.789 226.194 158.297 226.704 157.949C227.213 157.601 227.813 157.412 228.43 157.406C228.843 157.4 229.253 157.476 229.636 157.631C230.019 157.786 230.367 158.017 230.661 158.309C230.954 158.601 231.187 158.948 231.345 159.332C231.503 159.715 231.583 160.126 231.581 160.541Z" fill="white"/>
</g>
<path style="mix-blend-mode:screen" d="M160.24 195.917C159.558 194.563 189.865 177.377 227.975 157.497C266.085 137.617 297.528 122.73 298.225 124.1C298.922 125.47 268.616 142.625 230.506 162.46C192.395 182.294 160.952 197.272 160.24 195.917Z" fill="url(#paint62_radial_3169_6308)"/>
</g>
<defs>
<filter id="filter0_ii_3169_6308" x="253.388" y="89.8643" width="70.8504" height="67.2148" filterUnits="userSpaceOnUse" color-interpolation-filters="sRGB">
<feFlood flood-opacity="0" result="BackgroundImageFix"/>
<feBlend mode="normal" in="SourceGraphic" in2="BackgroundImageFix" result="shape"/>
<feColorMatrix in="SourceAlpha" type="matrix" values="0 0 0 0 0 0 0 0 0 0 0 0 0 0 0 0 0 0 127 0" result="hardAlpha"/>
<feOffset dx="11" dy="8"/>
<feGaussianBlur stdDeviation="22.7197"/>
<feComposite in2="hardAlpha" operator="arithmetic" k2="-1" k3="1"/>
<feColorMatrix type="matrix" values="0 0 0 0 1 0 0 0 0 1 0 0 0 0 1 0 0 0 0.5 0"/>
<feBlend mode="normal" in2="shape" result="effect1_innerShadow_3169_6308"/>
<feColorMatrix in="SourceAlpha" type="matrix" values="0 0 0 0 0 0 0 0 0 0 0 0 0 0 0 0 0 0 127 0" result="hardAlpha"/>
<feOffset dx="3" dy="2"/>
<feGaussianBlur stdDeviation="4.54394"/>
<feComposite in2="hardAlpha" operator="arithmetic" k2="-1" k3="1"/>
<feColorMatrix type="matrix" values="0 0 0 0 1 0 0 0 0 0.813333 0 0 0 0 0.533333 0 0 0 1 0"/>
<feBlend mode="normal" in2="effect1_innerShadow_3169_6308" result="effect2_innerShadow_3169_6308"/>
</filter>
<filter id="filter1_ii_3169_6308" x="131.574" y="122.494" width="52.9403" height="50.9404" filterUnits="userSpaceOnUse" color-interpolation-filters="sRGB">
<feFlood flood-opacity="0" result="BackgroundImageFix"/>
<feBlend mode="normal" in="SourceGraphic" in2="BackgroundImageFix" result="shape"/>
<feColorMatrix in="SourceAlpha" type="matrix" values="0 0 0 0 0 0 0 0 0 0 0 0 0 0 0 0 0 0 127 0" result="hardAlpha"/>
<feOffset dx="-2" dy="-1"/>
<feGaussianBlur stdDeviation="7.83446"/>
<feComposite in2="hardAlpha" operator="arithmetic" k2="-1" k3="1"/>
<feColorMatrix type="matrix" values="0 0 0 0 1 0 0 0 0 1 0 0 0 0 1 0 0 0 0.5 0"/>
<feBlend mode="normal" in2="shape" result="effect1_innerShadow_3169_6308"/>
<feColorMatrix in="SourceAlpha" type="matrix" values="0 0 0 0 0 0 0 0 0 0 0 0 0 0 0 0 0 0 127 0" result="hardAlpha"/>
<feOffset dx="-3" dy="-1"/>
<feGaussianBlur stdDeviation="1.56689"/>
<feComposite in2="hardAlpha" operator="arithmetic" k2="-1" k3="1"/>
<feColorMatrix type="matrix" values="0 0 0 0 0.418889 0 0 0 0 0.868067 0 0 0 0 0.966667 0 0 0 1 0"/>
<feBlend mode="normal" in2="effect1_innerShadow_3169_6308" result="effect2_innerShadow_3169_6308"/>
</filter>
<filter id="filter2_ii_3169_6308" x="235.12" y="186.975" width="57.5375" height="51.3144" filterUnits="userSpaceOnUse" color-interpolation-filters="sRGB">
<feFlood flood-opacity="0" result="BackgroundImageFix"/>
<feBlend mode="normal" in="SourceGraphic" in2="BackgroundImageFix" result="shape"/>
<feColorMatrix in="SourceAlpha" type="matrix" values="0 0 0 0 0 0 0 0 0 0 0 0 0 0 0 0 0 0 127 0" result="hardAlpha"/>
<feOffset dx="7" dy="-1"/>
<feGaussianBlur stdDeviation="7.83446"/>
<feComposite in2="hardAlpha" operator="arithmetic" k2="-1" k3="1"/>
<feColorMatrix type="matrix" values="0 0 0 0 1 0 0 0 0 1 0 0 0 0 1 0 0 0 0.5 0"/>
<feBlend mode="normal" in2="shape" result="effect1_innerShadow_3169_6308"/>
<feColorMatrix in="SourceAlpha" type="matrix" values="0 0 0 0 0 0 0 0 0 0 0 0 0 0 0 0 0 0 127 0" result="hardAlpha"/>
<feOffset dx="1" dy="0.313378"/>
<feGaussianBlur stdDeviation="1.56689"/>
<feComposite in2="hardAlpha" operator="arithmetic" k2="-1" k3="1"/>
<feColorMatrix type="matrix" values="0 0 0 0 0.418889 0 0 0 0 0.868067 0 0 0 0 0.966667 0 0 0 1 0"/>
<feBlend mode="normal" in2="effect1_innerShadow_3169_6308" result="effect2_innerShadow_3169_6308"/>
</filter>
<linearGradient id="paint0_linear_3169_6308" x1="225.867" y1="26.306" x2="297.645" y2="105.94" gradientUnits="userSpaceOnUse">
<stop stop-color="#493E86"/>
<stop offset="1" stop-color="#0A0B16"/>
</linearGradient>
<linearGradient id="paint1_linear_3169_6308" x1="225.867" y1="26.306" x2="297.645" y2="105.94" gradientUnits="userSpaceOnUse">
<stop stop-color="#493E86"/>
<stop offset="1" stop-color="#0A0B16"/>
</linearGradient>
<linearGradient id="paint2_linear_3169_6308" x1="5.8857" y1="3.09785" x2="12.6181" y2="15.7749" gradientUnits="userSpaceOnUse">
<stop stop-color="#534D99"/>
<stop offset="1" stop-color="#534D99" stop-opacity="0"/>
</linearGradient>
<linearGradient id="paint3_linear_3169_6308" x1="277.499" y1="49.4974" x2="284.493" y2="78.0081" gradientUnits="userSpaceOnUse">
<stop stop-color="#FFCBA9"/>
<stop offset="1" stop-color="#FF998F"/>
</linearGradient>
<linearGradient id="paint4_linear_3169_6308" x1="277.499" y1="49.4974" x2="284.493" y2="78.0081" gradientUnits="userSpaceOnUse">
<stop stop-color="#FFCBA9"/>
<stop offset="1" stop-color="#FF998F"/>
</linearGradient>
<linearGradient id="paint5_linear_3169_6308" x1="277.499" y1="49.4974" x2="284.493" y2="78.0081" gradientUnits="userSpaceOnUse">
<stop stop-color="#BF8158"/>
<stop offset="1" stop-color="#B46B64"/>
</linearGradient>
<linearGradient id="paint6_linear_3169_6308" x1="277.499" y1="49.4974" x2="284.493" y2="78.0081" gradientUnits="userSpaceOnUse">
<stop stop-color="#BF8158"/>
<stop offset="1" stop-color="#B46B64"/>
</linearGradient>
<linearGradient id="paint7_linear_3169_6308" x1="277.722" y1="131.914" x2="303.842" y2="114.704" gradientUnits="userSpaceOnUse">
<stop stop-color="#FFCBA9"/>
<stop offset="1" stop-color="#FF998F"/>
</linearGradient>
<linearGradient id="paint8_linear_3169_6308" x1="385.593" y1="-15.5014" x2="348.661" y2="-3.9348" gradientUnits="userSpaceOnUse">
<stop stop-color="#00374F"/>
<stop offset="1" stop-color="#0F122B"/>
</linearGradient>
<linearGradient id="paint9_linear_3169_6308" x1="385.593" y1="-15.5014" x2="348.661" y2="-3.9348" gradientUnits="userSpaceOnUse">
<stop stop-color="#00374F"/>
<stop offset="1" stop-color="#0F122B"/>
</linearGradient>
<linearGradient id="paint10_linear_3169_6308" x1="385.593" y1="-15.5014" x2="348.661" y2="-3.9348" gradientUnits="userSpaceOnUse">
<stop stop-color="#00374F"/>
<stop offset="1" stop-color="#0F122B"/>
</linearGradient>
<linearGradient id="paint11_linear_3169_6308" x1="385.593" y1="-15.5014" x2="348.661" y2="-3.9348" gradientUnits="userSpaceOnUse">
<stop stop-color="#00374F"/>
<stop offset="1" stop-color="#0F122B"/>
</linearGradient>
<linearGradient id="paint12_linear_3169_6308" x1="440.175" y1="29.8908" x2="396.692" y2="50.9884" gradientUnits="userSpaceOnUse">
<stop stop-color="#00374F"/>
<stop offset="1" stop-color="#0F122B"/>
</linearGradient>
<linearGradient id="paint13_linear_3169_6308" x1="440.175" y1="29.8908" x2="396.692" y2="50.9884" gradientUnits="userSpaceOnUse">
<stop stop-color="#00374F"/>
<stop offset="1" stop-color="#0F122B"/>
</linearGradient>
<linearGradient id="paint14_linear_3169_6308" x1="440.175" y1="29.8908" x2="396.692" y2="50.9884" gradientUnits="userSpaceOnUse">
<stop stop-color="#00374F"/>
<stop offset="1" stop-color="#0F122B"/>
</linearGradient>
<linearGradient id="paint15_linear_3169_6308" x1="440.175" y1="29.8908" x2="396.692" y2="50.9884" gradientUnits="userSpaceOnUse">
<stop stop-color="#00374F"/>
<stop offset="1" stop-color="#0F122B"/>
</linearGradient>
<linearGradient id="paint16_linear_3169_6308" x1="447.448" y1="-24.8044" x2="412.115" y2="127.565" gradientUnits="userSpaceOnUse">
<stop stop-color="#47247C"/>
<stop offset="0.835118" stop-color="#16182B"/>
</linearGradient>
<linearGradient id="paint17_linear_3169_6308" x1="447.448" y1="-24.8044" x2="412.115" y2="127.565" gradientUnits="userSpaceOnUse">
<stop stop-color="#47247C"/>
<stop offset="0.835118" stop-color="#16182B"/>
</linearGradient>
<linearGradient id="paint18_linear_3169_6308" x1="324.067" y1="54.4829" x2="324.067" y2="118.537" gradientUnits="userSpaceOnUse">
<stop stop-color="#F28056"/>
<stop offset="1" stop-color="#E643A8"/>
</linearGradient>
<linearGradient id="paint19_linear_3169_6308" x1="324.067" y1="54.4829" x2="324.067" y2="118.537" gradientUnits="userSpaceOnUse">
<stop stop-color="#F28056"/>
<stop offset="1" stop-color="#E643A8"/>
</linearGradient>
<linearGradient id="paint20_linear_3169_6308" x1="144.65" y1="147.56" x2="148.669" y2="163.94" gradientUnits="userSpaceOnUse">
<stop stop-color="#FFCBA9"/>
<stop offset="1" stop-color="#FF998F"/>
</linearGradient>
<linearGradient id="paint21_linear_3169_6308" x1="140.827" y1="78.8072" x2="159.601" y2="117.113" gradientUnits="userSpaceOnUse">
<stop stop-color="#FF965F"/>
<stop offset="1" stop-color="#D77A49" stop-opacity="0"/>
</linearGradient>
<linearGradient id="paint22_linear_3169_6308" x1="127.822" y1="99.6138" x2="132.599" y2="123.14" gradientUnits="userSpaceOnUse">
<stop stop-color="#FFCBA9"/>
<stop offset="1" stop-color="#FF998F"/>
</linearGradient>
<linearGradient id="paint23_linear_3169_6308" x1="127.822" y1="99.6138" x2="132.599" y2="123.14" gradientUnits="userSpaceOnUse">
<stop stop-color="#A9B2FF"/>
<stop offset="1" stop-color="#8FA1FF"/>
</linearGradient>
<linearGradient id="paint24_linear_3169_6308" x1="-49.8125" y1="-32.2866" x2="148.131" y2="192.233" gradientUnits="userSpaceOnUse">
<stop stop-color="#BF00FF"/>
<stop offset="1" stop-color="#0C3338"/>
</linearGradient>
<linearGradient id="paint25_linear_3169_6308" x1="-49.8125" y1="-32.2866" x2="148.131" y2="192.233" gradientUnits="userSpaceOnUse">
<stop stop-color="#BF00FF"/>
<stop offset="1" stop-color="#0C3338"/>
</linearGradient>
<linearGradient id="paint26_linear_3169_6308" x1="-49.8125" y1="-32.2866" x2="148.131" y2="192.233" gradientUnits="userSpaceOnUse">
<stop stop-color="#BF00FF"/>
<stop offset="1" stop-color="#0C3338"/>
</linearGradient>
<linearGradient id="paint27_linear_3169_6308" x1="-49.8125" y1="-32.2866" x2="148.131" y2="192.233" gradientUnits="userSpaceOnUse">
<stop stop-color="#BF00FF"/>
<stop offset="1" stop-color="#0C3338"/>
</linearGradient>
<linearGradient id="paint28_linear_3169_6308" x1="-49.8125" y1="-32.2866" x2="148.131" y2="192.233" gradientUnits="userSpaceOnUse">
<stop stop-color="#BF00FF"/>
<stop offset="1" stop-color="#0C3338"/>
</linearGradient>
<linearGradient id="paint29_linear_3169_6308" x1="-49.8125" y1="-32.2866" x2="148.131" y2="192.233" gradientUnits="userSpaceOnUse">
<stop stop-color="#BF00FF"/>
<stop offset="1" stop-color="#0C3338"/>
</linearGradient>
<linearGradient id="paint30_linear_3169_6308" x1="153.229" y1="158.069" x2="118.686" y2="119.066" gradientUnits="userSpaceOnUse">
<stop stop-color="#585FFF"/>
<stop offset="1" stop-color="#585FFF" stop-opacity="0"/>
</linearGradient>
<linearGradient id="paint31_linear_3169_6308" x1="144.128" y1="112.526" x2="138.368" y2="162.936" gradientUnits="userSpaceOnUse">
<stop stop-color="#47247C"/>
<stop offset="0.835118" stop-color="#16182B"/>
</linearGradient>
<linearGradient id="paint32_linear_3169_6308" x1="-37.0935" y1="212.694" x2="153.967" y2="53.3162" gradientUnits="userSpaceOnUse">
<stop stop-color="#400055"/>
<stop offset="1" stop-color="#005568"/>
</linearGradient>
<linearGradient id="paint33_linear_3169_6308" x1="-37.0935" y1="212.694" x2="153.967" y2="53.3162" gradientUnits="userSpaceOnUse">
<stop stop-color="#400055"/>
<stop offset="1" stop-color="#005568"/>
</linearGradient>
<linearGradient id="paint34_linear_3169_6308" x1="-37.0935" y1="212.694" x2="153.967" y2="53.3162" gradientUnits="userSpaceOnUse">
<stop stop-color="#400055"/>
<stop offset="1" stop-color="#005568"/>
</linearGradient>
<linearGradient id="paint35_linear_3169_6308" x1="-37.0935" y1="212.694" x2="153.967" y2="53.3162" gradientUnits="userSpaceOnUse">
<stop stop-color="#400055"/>
<stop offset="1" stop-color="#005568"/>
</linearGradient>
<linearGradient id="paint36_linear_3169_6308" x1="53.7557" y1="74.0698" x2="-7.28512" y2="266.489" gradientUnits="userSpaceOnUse">
<stop stop-color="#390081"/>
<stop offset="1" stop-color="#0B0D22"/>
</linearGradient>
<linearGradient id="paint37_linear_3169_6308" x1="53.7557" y1="74.0698" x2="-7.28512" y2="266.489" gradientUnits="userSpaceOnUse">
<stop stop-color="#390081"/>
<stop offset="1" stop-color="#0B0D22"/>
</linearGradient>
<linearGradient id="paint38_linear_3169_6308" x1="19.2366" y1="71.2843" x2="1.90724" y2="95.258" gradientUnits="userSpaceOnUse">
<stop stop-color="#2A1459"/>
<stop offset="1" stop-color="#16182B"/>
</linearGradient>
<linearGradient id="paint39_linear_3169_6308" x1="19.2366" y1="71.2843" x2="1.90724" y2="95.258" gradientUnits="userSpaceOnUse">
<stop stop-color="#2A1459"/>
<stop offset="1" stop-color="#16182B"/>
</linearGradient>
<linearGradient id="paint40_linear_3169_6308" x1="375.303" y1="218.09" x2="363.626" y2="230.75" gradientUnits="userSpaceOnUse">
<stop stop-color="#2A1459"/>
<stop offset="1" stop-color="#16182B"/>
</linearGradient>
<linearGradient id="paint41_linear_3169_6308" x1="371.262" y1="259.252" x2="356.927" y2="263.082" gradientUnits="userSpaceOnUse">
<stop stop-color="#2A1459"/>
<stop offset="1" stop-color="#16182B"/>
</linearGradient>
<linearGradient id="paint42_linear_3169_6308" x1="119.237" y1="199.054" x2="368.88" y2="317.647" gradientUnits="userSpaceOnUse">
<stop stop-color="#A10BD2"/>
<stop offset="1" stop-color="#16182B"/>
</linearGradient>
<linearGradient id="paint43_linear_3169_6308" x1="119.237" y1="199.054" x2="368.88" y2="317.647" gradientUnits="userSpaceOnUse">
<stop stop-color="#A10BD2"/>
<stop offset="1" stop-color="#16182B"/>
</linearGradient>
<linearGradient id="paint44_linear_3169_6308" x1="359.537" y1="191.599" x2="359.537" y2="385.573" gradientUnits="userSpaceOnUse">
<stop stop-color="#000347"/>
<stop offset="1" stop-color="#6B0091"/>
</linearGradient>
<linearGradient id="paint45_linear_3169_6308" x1="335.713" y1="159.455" x2="309.943" y2="257.947" gradientUnits="userSpaceOnUse">
<stop stop-color="#FAEBFF"/>
<stop offset="1" stop-color="#B5AEFF"/>
</linearGradient>
<linearGradient id="paint46_linear_3169_6308" x1="289.408" y1="183.418" x2="306.957" y2="226.657" gradientUnits="userSpaceOnUse">
<stop stop-color="#FFCBA9"/>
<stop offset="1" stop-color="#FF998F"/>
</linearGradient>
<linearGradient id="paint47_linear_3169_6308" x1="289.408" y1="183.418" x2="306.957" y2="226.657" gradientUnits="userSpaceOnUse">
<stop stop-color="#FFCBA9"/>
<stop offset="1" stop-color="#FF998F"/>
</linearGradient>
<linearGradient id="paint48_linear_3169_6308" x1="304.128" y1="203.632" x2="312.601" y2="233.954" gradientUnits="userSpaceOnUse">
<stop stop-color="#EC7F73"/>
<stop offset="1" stop-color="#EC7F73" stop-opacity="0"/>
</linearGradient>
<linearGradient id="paint49_linear_3169_6308" x1="265.799" y1="173.751" x2="310.729" y2="207.762" gradientUnits="userSpaceOnUse">
<stop stop-color="#493E86"/>
<stop offset="1" stop-color="#0A0B16"/>
</linearGradient>
<linearGradient id="paint50_linear_3169_6308" x1="265.799" y1="173.751" x2="310.729" y2="207.762" gradientUnits="userSpaceOnUse">
<stop stop-color="#493E86"/>
<stop offset="1" stop-color="#0A0B16"/>
</linearGradient>
<linearGradient id="paint51_linear_3169_6308" x1="224.958" y1="185.894" x2="296.604" y2="302.284" gradientUnits="userSpaceOnUse">
<stop stop-color="#EFBFFF"/>
<stop offset="0.991726" stop-color="#786CFF"/>
</linearGradient>
<linearGradient id="paint52_linear_3169_6308" x1="224.958" y1="185.894" x2="296.604" y2="302.284" gradientUnits="userSpaceOnUse">
<stop stop-color="#EFBFFF"/>
<stop offset="0.991726" stop-color="#786CFF"/>
</linearGradient>
<linearGradient id="paint53_linear_3169_6308" x1="331.887" y1="197.26" x2="318.744" y2="297.303" gradientUnits="userSpaceOnUse">
<stop stop-color="#45009B"/>
<stop offset="1" stop-color="#680013"/>
</linearGradient>
<linearGradient id="paint54_linear_3169_6308" x1="331.887" y1="197.26" x2="318.744" y2="297.303" gradientUnits="userSpaceOnUse">
<stop stop-color="#45009B"/>
<stop offset="1" stop-color="#680013"/>
</linearGradient>
<linearGradient id="paint55_linear_3169_6308" x1="331.887" y1="197.26" x2="318.744" y2="297.303" gradientUnits="userSpaceOnUse">
<stop stop-color="#45009B"/>
<stop offset="1" stop-color="#680013"/>
</linearGradient>
<linearGradient id="paint56_linear_3169_6308" x1="331.887" y1="197.26" x2="318.744" y2="297.303" gradientUnits="userSpaceOnUse">
<stop stop-color="#45009B"/>
<stop offset="1" stop-color="#680013"/>
</linearGradient>
<linearGradient id="paint57_linear_3169_6308" x1="255.486" y1="206.767" x2="267.658" y2="232.614" gradientUnits="userSpaceOnUse">
<stop stop-color="#FFCBA9"/>
<stop offset="1" stop-color="#FF998F"/>
</linearGradient>
<linearGradient id="paint58_linear_3169_6308" x1="255.486" y1="206.767" x2="267.658" y2="232.614" gradientUnits="userSpaceOnUse">
<stop stop-color="#FFCBA9"/>
<stop offset="1" stop-color="#FF998F"/>
</linearGradient>
<linearGradient id="paint59_linear_3169_6308" x1="267.578" y1="217.668" x2="276.051" y2="247.99" gradientUnits="userSpaceOnUse">
<stop stop-color="#EC7F73"/>
<stop offset="1" stop-color="#EC7F73" stop-opacity="0"/>
</linearGradient>
<radialGradient id="paint60_radial_3169_6308" cx="0" cy="0" r="1" gradientUnits="userSpaceOnUse" gradientTransform="translate(228.46 160.541) scale(34.6553 34.8127)">
<stop stop-color="#2E00A7"/>
<stop offset="0.09" stop-color="#280091"/>
<stop offset="0.31" stop-color="#1A005E"/>
<stop offset="0.52" stop-color="#0F0035"/>
<stop offset="0.71" stop-color="#070018"/>
<stop offset="0.88" stop-color="#020006"/>
<stop offset="1"/>
</radialGradient>
<radialGradient id="paint61_radial_3169_6308" cx="0" cy="0" r="1" gradientUnits="userSpaceOnUse" gradientTransform="translate(228.47 160.534) scale(15.9866 16.0592)">
<stop stop-color="#8647A7"/>
<stop offset="0.09" stop-color="#743E91"/>
<stop offset="0.31" stop-color="#4B285E"/>
<stop offset="0.52" stop-color="#2B1735"/>
<stop offset="0.71" stop-color="#130A18"/>
<stop offset="0.88" stop-color="#050306"/>
<stop offset="1"/>
</radialGradient>
<radialGradient id="paint62_radial_3169_6308" cx="0" cy="0" r="1" gradientUnits="userSpaceOnUse" gradientTransform="translate(228.774 160.472) rotate(152.578) scale(77.6898 2.72515)">
<stop stop-color="#592097"/>
<stop offset="0.08" stop-color="#4D1C83"/>
<stop offset="0.3" stop-color="#321254"/>
<stop offset="0.5" stop-color="#1C0A30"/>
<stop offset="0.7" stop-color="#0D0515"/>
<stop offset="0.87" stop-color="#030106"/>
<stop offset="1"/>
</radialGradient>
<clipPath id="clip0_3169_6308">
<rect width="138" height="72" fill="white" transform="translate(160.24 124.009)"/>
</clipPath>
</defs>
</svg>
