<svg width="216" height="185" viewBox="0 0 216 185" fill="none" xmlns="http://www.w3.org/2000/svg">
<circle cx="107.821" cy="88.4623" r="63.1332" stroke="#6E33E5" stroke-width="1.5"/>
<path d="M71.2708 75.1733C70.454 77.6965 68.9628 79.7066 67.2467 80.9286C65.5304 82.1507 63.636 82.5597 61.9372 82.0097C60.2383 81.4597 58.9431 80.018 58.2687 78.022C57.5944 76.026 57.5642 73.5234 58.3811 71.0003C59.198 68.4771 60.6892 66.467 62.4053 65.245C64.1215 64.0229 66.016 63.6139 67.7148 64.1639C69.4136 64.7139 70.7089 66.1556 71.3832 68.1516C72.0576 70.1476 72.0877 72.6502 71.2708 75.1733Z" stroke="#6E33E5" stroke-width="1.5"/>
<path d="M132.628 30.4436C150.443 26.1558 165.93 26.4227 176.803 31.0773C182.229 33.3997 186.348 36.7457 189.092 40.9326C191.835 45.1189 193.23 50.1877 193.139 56.0009C192.958 67.6541 186.814 81.6312 175.488 95.8176C164.173 109.989 148.358 123.526 130.427 134.372C112.495 145.218 93.4503 152.765 76.1777 155.888C58.8844 159.014 44.4136 157.519 34.8623 151.788C25.3817 146.1 21.1494 136.477 22.8747 124.222C24.6075 111.912 32.2659 97.6376 44.8011 83.5671" stroke="#6E33E5" stroke-width="1.5"/>
<path d="M144.635 37.2207C153.69 48.8138 147.624 52.9673 141.117 60.905C137.009 65.9154 135.941 72.5494 136.605 78.9943C137.606 88.7271 137.871 94.6435 131.709 97.211C115.52 103.957 107.499 113.563 107.227 127.557C106.955 141.551 90.3586 145.808 79.6818 145.065" stroke="#6E33E5" stroke-width="1.5"/>
</svg>
