<svg width="83" height="71" viewBox="0 0 83 71" fill="none" xmlns="http://www.w3.org/2000/svg">
<circle r="23.8152" transform="matrix(-1 0 0 1 39.5757 33.45)" stroke="#6E33E5"/>
<path d="M38.3466 13.1094C37.3861 13.2294 36.5721 13.6253 36.0291 14.1447C35.4861 14.664 35.2362 15.2792 35.3101 15.8707C35.3839 16.4622 35.7773 16.9971 36.4314 17.367C37.0854 17.7369 37.9718 17.9207 38.9323 17.8008C39.8928 17.6808 40.7068 17.2849 41.2498 16.7655C41.7929 16.2462 42.0427 15.631 41.9689 15.0395C41.895 14.448 41.5016 13.9131 40.8476 13.5432C40.1935 13.1733 39.3072 12.9895 38.3466 13.1094Z" stroke="#6E33E5"/>
<path d="M30.218 11.4961C23.5189 10.0851 17.8483 10.4448 14.0242 12.4229C12.1208 13.4076 10.7286 14.7643 9.85937 16.4208C8.9893 18.0787 8.62779 20.0662 8.83446 22.3338C9.2492 26.8844 11.9279 32.2688 16.5442 37.6573C21.1532 43.0372 27.4043 48.0823 34.3447 52.0148C41.2862 55.9479 48.5138 58.5397 54.9188 59.4077C61.3387 60.2778 66.4973 59.3594 69.6894 56.9175C72.8405 54.507 74.0031 50.6617 72.8844 45.8491C71.7606 41.0146 68.3983 35.5209 63.2549 30.2191" stroke="#6E33E5"/>
<path d="M63.4795 33.9649C61.2579 39.4612 59.036 36.441 54.9578 35.3804C53.0419 34.8821 51.0897 35.6595 49.5135 36.8574C45.9607 39.5573 43.5363 41.7011 41.3312 40.1027C33.2571 34.2499 31.1166 34.9273 26.4521 37.5009C21.7877 40.0745 17.5628 36.4785 15.7758 32.8177" stroke="#6E33E5"/>
</svg>
