<svg viewBox="0 0 280 280" fill="none" xmlns="http://www.w3.org/2000/svg">
<mask id="mask0_3129_7654" style="mask-type:alpha" maskUnits="userSpaceOnUse" x="36" y="161" width="227" height="107">
<path d="M151.109 161.787L62.8235 181.707L57.8139 182.04L49.4931 185.599L42.2189 191.6L37.631 199.99L36.5321 205.956L37.3695 223.208L37.9663 226.347L41.9589 230.743L66.2078 247.373L93.497 264.076L103.35 266.787L109.724 267.519L120.127 266.787L128.588 264.552L151.995 257.006L182.141 246.823L207.599 236.823L224.888 229.351L242.104 221.622L259.992 211.451L262.434 208.695L262.713 204.142L260.829 191.495L257.271 182.145L250.781 175.376L242.47 170.707L231.713 168.022L151.109 161.787Z" fill="url(#paint0_linear_3129_7654)"/>
</mask>
<g mask="url(#mask0_3129_7654)">
<path d="M151.109 161.787L62.8235 181.707L57.8139 182.04L49.4931 185.599L42.2189 191.6L37.631 199.99L36.5321 205.956L37.3695 223.208L37.9663 226.347L41.9589 230.743L66.2078 247.373L93.497 264.076L103.35 266.787L109.724 267.519L120.127 266.787L128.588 264.552L151.995 257.006L182.141 246.823L207.599 236.823L224.888 229.351L242.104 221.622L259.992 211.451L262.434 208.695L262.713 204.142L260.829 191.495L257.271 182.145L250.781 175.376L242.47 170.707L231.713 168.022L151.109 161.787Z" fill="url(#paint1_linear_3129_7654)"/>
<path d="M49.9189 235.98C42.6065 222.119 48.4853 194.377 75.6775 183.327C66.636 173.906 48.0521 154.938 46.0482 154.427C43.5434 153.789 12.1727 216.117 11.1248 219.505C10.2864 222.216 36.6382 231.618 49.9189 235.98Z" fill="url(#paint2_linear_3129_7654)"/>
<path fill-rule="evenodd" clip-rule="evenodd" d="M203.737 220.265C188.984 240.134 166.769 259.25 143.377 271.751C110.676 293.895 185.849 277.785 240.263 266.124C255.899 262.773 269.82 259.79 278.976 258.187C313.091 211.365 377.094 116.479 360.189 111.507C343.283 106.535 229.906 133.649 198.829 145.665C227.952 157.799 226.5 184.463 209.819 211.345C216.797 207.907 224.256 204.004 231.439 199.872C239.057 195.491 246.322 190.878 252.36 186.319C258.442 181.726 263.094 177.323 265.673 173.396L270.197 176.367C267.104 181.078 261.858 185.929 255.623 190.638C249.343 195.381 241.87 200.118 234.137 204.565C223.829 210.493 212.982 215.951 203.737 220.265Z" fill="#0D1029"/>
</g>
<mask id="mask1_3129_7654" style="mask-type:alpha" maskUnits="userSpaceOnUse" x="82" y="5" width="95" height="82">
<path d="M176.727 68.8028L176.204 76.2397L171.738 78.7754L166.975 75.0998L162.495 71.1416L159.096 68.4134L156.732 64.2907L155.622 58.1575L156.34 53.0031L154.013 50.1758L156.34 48.4358L154.426 43.1726L152.686 41.759L142.486 38.4967L137.527 38.2792L130.829 39.0186L121.412 40.8238L117.649 41.759L113.604 40.8238L108.971 36.3218L106.818 35.5171L104.709 36.3218L101.011 39.9756L100.098 37.3005L96.0961 46.174L93.0077 57.3528L91.0069 68.3795L90.1152 78.7319L89.8759 86.7137L88.1578 84.7998L86.3413 80.3146L85.9829 79.7976L85.026 76.4048L83.0686 66.6831L82.1769 54.1993L83.1991 47.8486L85.3087 38.7794L89.0713 30.9281L92.1596 26.5348L88.4623 28.7532L84.7433 29.5144L88.8103 23.664L92.2901 21.1411L96.9443 18.4443L103.426 13.3986L111.103 9.89702L120.15 6.87395L128.415 5.83002L135.875 6.56946L142.704 8.78785L155.427 14.2903L164.018 20.032L169.346 26.0781L174.131 38.9316L176.153 50.8282C176.345 52.6914 176.727 56.4481 176.727 56.5699V68.8028Z" fill="#7D505F"/>
</mask>
<g mask="url(#mask1_3129_7654)">
<path d="M176.727 68.8028L176.204 76.2397L171.738 78.7754L166.975 75.0998L162.495 71.1416L159.096 68.4134L156.732 64.2907L155.622 58.1575L156.34 53.0031L154.013 50.1758L156.34 48.4358L154.426 43.1726L152.686 41.759L142.486 38.4967L137.527 38.2792L130.829 39.0186L121.412 40.8238L117.649 41.759L113.604 40.8238L108.971 36.3218L106.818 35.5171L104.709 36.3218L101.011 39.9756L100.098 37.3005L96.0961 46.174L93.0077 57.3528L91.0069 68.3795L90.1152 78.7319L89.8759 86.7137L88.1578 84.7998L86.3413 80.3146L85.9829 79.7976L85.026 76.4048L83.0686 66.6831L82.1769 54.1993L83.1991 47.8486L85.3087 38.7794L89.0713 30.9281L92.1596 26.5348L88.4623 28.7532L84.7433 29.5144L88.8103 23.664L92.2901 21.1411L96.9443 18.4443L103.426 13.3986L111.103 9.89702L120.15 6.87395L128.415 5.83002L135.875 6.56946L142.704 8.78785L155.427 14.2903L164.018 20.032L169.346 26.0781L174.131 38.9316L176.153 50.8282C176.345 52.6914 176.727 56.4481 176.727 56.5699V68.8028Z" fill="url(#paint3_linear_3129_7654)"/>
<path d="M124.011 32.3906C147.224 25.4184 155.046 44.8896 178.939 24.5681" stroke="#CA8653" stroke-width="1.96837"/>
<path fill-rule="evenodd" clip-rule="evenodd" d="M85.9087 30.1125L84.1798 29.1715C90.6304 17.3192 105.1 14.1762 113.824 25.1593L113.587 25.4398C105.799 16.2048 91.7061 19.4604 85.9087 30.1125Z" fill="url(#paint4_linear_3129_7654)"/>
<path fill-rule="evenodd" clip-rule="evenodd" d="M88.8047 23.9259L87.2912 22.6674C95.919 12.2919 110.723 12.0161 117.15 24.4832L116.864 24.7124C111.015 14.1418 96.5588 14.6011 88.8047 23.9259Z" fill="url(#paint5_linear_3129_7654)"/>
<ellipse rx="16.8424" ry="17.4633" transform="matrix(0.841579 -0.540133 0.859163 0.511702 121.625 -0.9234)" fill="url(#paint6_linear_3129_7654)"/>
<path d="M145.63 -9.24221C154.149 -4.55948 147.334 3.20805 139.266 8.78954C131.198 14.371 117.751 15.0996 109.231 10.4169C100.711 5.73417 100.464 7.2986 108.532 1.71712C116.6 -3.86437 137.11 -13.9249 145.63 -9.24221Z" stroke="url(#paint7_linear_3129_7654)" stroke-width="1.47627"/>
<path fill-rule="evenodd" clip-rule="evenodd" d="M96.0337 57.4043C102.348 60.643 108.42 63.7571 108.448 73.1734C116.514 89.1682 82.5977 99.0029 80.6789 95.18C78.7601 91.3572 74.8252 67.0016 75.9374 63.3194C76.2642 62.2373 76.9508 59.6138 77.7714 56.3894C79.0557 58.3164 80.6415 60.2972 82.4968 62.0334C86.1847 65.4844 91.159 68.1567 97.0383 67.1081L96.4335 63.717C92.0345 64.5016 88.1103 62.5686 84.8504 59.5182C82.2883 57.1206 80.2735 54.1487 78.9616 51.6706C80.0941 47.1482 81.2754 42.3542 82.0493 39.1889C82.4391 50.4315 89.3716 53.9872 96.0337 57.4043Z" fill="url(#paint8_linear_3129_7654)"/>
<path opacity="0.5" d="M175.382 8.55491C176.917 14.7858 177.559 23.5158 173.897 29.722C172.104 32.7619 169.244 35.2616 164.764 36.5947C161.053 37.6988 156.184 38.015 149.845 37.099C142.14 34.2765 135.709 34.4985 130.083 34.6927C122.408 34.9577 116.228 35.171 110.349 27.5363L106.682 25.1402L102.834 24.2326L96.4077 24.8135L91.9422 26.7014L86.1455 33.5699L79.8279 40.779C80.9925 40.2347 82.123 39.6718 83.232 39.1195C91.1457 35.1788 97.9659 31.7825 108.244 39.5968C109.672 40.682 110.956 41.6822 112.143 42.6061L112.143 42.6065C120.697 49.267 124.156 51.9603 139.356 53.9588L140.308 52.8383L149.854 51.2042C148.623 53.3246 147.721 55.0826 147.758 55.6072C147.844 56.8078 149.152 83.478 149.795 96.6631L191.28 87.5515L184.599 30.3625C184.599 30.3625 181.451 48.116 165.584 46.45C162.645 44.0488 159.857 42.1248 157.207 40.5855C160.395 40.5521 163.18 40.1463 165.606 39.4246C170.799 37.8792 174.268 34.9049 176.44 31.2223C180.711 23.9836 179.832 14.2749 178.249 7.84863L175.382 8.55491Z" fill="#9A5C35"/>
<path d="M178.303 60.1443C178.303 60.1443 169.266 62.1204 151.974 51.0731L150.773 54.679C164.775 64.481 178.303 64.5961 178.303 64.5961L178.303 60.1443Z" fill="#F6A567"/>
</g>
<mask id="mask2_3129_7654" style="mask-type:alpha" maskUnits="userSpaceOnUse" x="83" y="35" width="99" height="163">
<path d="M84.1772 81.3683L85.0909 80.5173L86.2118 80.3664L87.9696 84.5241L88.7933 85.6101L89.848 86.1743L90.5348 69.6908L93.5519 54.5073L96.8633 44.156L100.175 37.2388L101.131 39.5936L106.798 35.5463L108.809 36.135L111.139 38.637L114.279 41.0163L117.934 41.7031L128.089 39.5936L137.214 38.2936L144.131 38.7106L154.359 42.7824L156.248 48.1788L153.893 50.043L156.469 52.9374C156.232 53.6079 155.758 54.9733 155.758 55.0714V58.898L156.248 62.3566L157.573 65.8397L159.903 68.7587L164.539 72.2172L166.536 73.3602C168.342 74.5573 172.037 75.9375 173.59 76.5834L176.327 75.8501L177.919 76.3276L179.447 77.4736L180.72 86.2914L181.198 90.0477L180.37 93.3584L172.762 106.124L171.297 107.715H168.401L167.223 117.361L166.932 117.908C167.171 118.277 167.358 118.563 167.416 118.642C167.57 118.854 167.351 123.171 167.223 125.302L166.488 138.192L166.103 144.669L167.997 152.023L169.023 159.881V165.073L168.644 171.464L167.416 178.319L165.593 183.621L162.147 184.184L145.977 187.564L131.927 191.01L125.632 193.727L117.977 197.637L114.134 197.869L109.826 196.312L106.082 192.435L101.907 190.414C99.1784 189.784 93.6425 188.532 93.3244 188.558C93.0063 188.585 93.457 184.218 93.722 182.031L94.3185 170.897L95.5445 164.734C95.423 163.673 95.1668 161.433 95.1137 160.956C95.0607 160.479 94.2964 155.699 93.9209 153.368L90.7398 131.697L89.383 120.166L89.9139 119.23L89.383 118.401L88.3826 105.915L86.8079 105.748L85.752 103.766L83.7697 92.2428L83.6584 88.3524L84.1772 81.3683Z" fill="url(#paint9_linear_3129_7654)"/>
</mask>
<g mask="url(#mask2_3129_7654)">
<path d="M84.1772 81.3683L85.0909 80.5173L86.2118 80.3664L87.9696 84.5241L88.7933 85.6101L89.848 86.1743L90.5348 69.6908L93.5519 54.5073L96.8633 44.156L100.175 37.2388L101.131 39.5936L106.798 35.5463L108.809 36.135L111.139 38.637L114.279 41.0163L117.934 41.7031L128.089 39.5936L137.214 38.2936L144.131 38.7106L154.359 42.7824L156.248 48.1788L153.893 50.043L156.469 52.9374C156.232 53.6079 155.758 54.9733 155.758 55.0714V58.898L156.248 62.3566L157.573 65.8397L159.903 68.7587L164.539 72.2172L166.673 73.1493C167.404 74.363 172.037 75.9375 173.59 76.5834L176.327 75.8501L177.919 76.3276L179.447 77.4736L180.72 86.2914L181.198 90.0477L180.37 93.3584L172.762 106.124L171.297 107.715H168.401L167.223 117.361L166.932 117.908C167.171 118.277 167.358 118.563 167.416 118.642C167.57 118.854 167.351 123.171 167.223 125.302L166.488 138.192L166.103 144.669L167.997 152.023L169.023 159.881V165.073L168.644 171.464L167.416 178.319L165.593 183.621L162.147 184.184L145.977 187.564L131.927 191.01L125.632 193.727L117.977 197.637L114.134 197.869L109.826 196.312L106.082 192.435L101.907 190.414C99.1784 189.784 93.6425 188.532 93.3244 188.558C93.0063 188.585 93.457 184.218 93.722 182.031L94.3185 170.897L95.5445 164.734C95.423 163.673 95.1668 161.433 95.1137 160.956C95.0607 160.479 94.2964 155.699 93.9209 153.368L90.7398 131.697L89.383 120.166L89.9139 119.23L89.383 118.401L88.3826 105.915L86.8079 105.748L85.752 103.766L83.7697 92.2428L83.6584 88.3524L84.1772 81.3683Z" fill="url(#paint10_linear_3129_7654)"/>
<path fill-rule="evenodd" clip-rule="evenodd" d="M165.171 157.943L166.18 160.41L167.189 161.643L169.095 162.316V143.892L166.18 140.409L166.749 127.352L172.446 116.814L206.08 82.4352L177.841 76.5466L168.634 75.1141L162.526 48.3195L156.887 41.6071H152.095C151.928 55.1052 154.302 63.327 156.341 70.3889C159.411 81.0235 161.722 89.0278 153.453 108.46C152.058 111.739 151.079 115.207 150.106 118.651L150.106 118.653C149.887 119.429 149.668 120.205 149.445 120.976C146.764 130.242 138.546 146.386 113.696 148.28L107.401 144.19L97.9179 132.514L96.7787 132.145C99.5594 136.554 105.447 144.499 110.795 151.541C116.972 159.674 128.21 161.884 137.1 156.856L150.038 149.539L155.897 133.283L158.613 130.712L152.738 148.011L166.18 140.409L165.171 154.879V157.644V157.943ZM95.9818 164.363L97.6886 174.332V176.093L96.9987 177.528H94.2569L94.4565 170.047L95.4189 163.891L95.9818 164.363Z" fill="url(#paint11_linear_3129_7654)"/>
<path d="M173.454 83.7329L178.414 77.5076L178.667 77.0268L179.502 78.8488C177.123 82.1302 172.411 89.695 172.593 93.7035C172.776 97.712 170.662 99.1527 169.582 99.372L169.911 97.879L171.277 95.3231L170.948 93.0708V90.2619L171.733 86.4913L173.454 83.7329Z" fill="url(#paint12_linear_3129_7654)"/>
<path d="M88.0604 85.0832L86.2909 79.6092L83.9207 78.3677L84.9929 80.5686C86.6859 84.7446 86.2909 95.0718 86.9681 106.245C86.7859 110.254 89.992 106.353 91.0717 106.573L90.7428 105.08L89.3763 102.524L89.7053 100.272V97.4625L88.9207 93.6919L88.0604 85.0832Z" fill="url(#paint13_linear_3129_7654)"/>
<path d="M167.243 117.337V124.517C167.243 124.517 156.307 145.506 131.425 151.888C122.222 154.248 112.931 150.041 106.065 143.474L114.072 148.465L117.841 148.752L129.223 148.465L134.393 148.07L143.404 143.474L151.518 137.263L157.55 131.268L163.294 124.123L167.243 117.337Z" fill="#161A43" fill-opacity="0.21"/>
<path d="M106.621 80.2754C108.734 79.4844 110.485 77.6201 110.485 77.6201L109.308 76.0646L107.152 74.7538H104.181L100.118 76.2539L97.9212 78.0965C99.423 79.3291 101.53 80.0697 101.53 80.0697L103.001 80.7105L104.924 80.9144L106.621 80.2754Z" fill="url(#paint14_linear_3129_7654)"/>
<path d="M100.079 136.026C86.4048 108.407 92.7073 62.11 100.014 38.3249L93.5494 36.1242L88.1558 68.9804L87.5126 84.2704L87.9638 106.251L71.1313 129.526L95.4792 162.156L96.8647 169.281L97.7554 174.872L97.2111 177.347C100.349 177.347 102.577 174.289 101.728 171.268C95.8188 150.248 97.4532 141.542 94.1432 127.271L100.079 136.026Z" fill="url(#paint15_linear_3129_7654)"/>
<mask id="mask3_3129_7654" style="mask-type:alpha" maskUnits="userSpaceOnUse" x="87" y="73" width="87" height="76">
<path fill-rule="evenodd" clip-rule="evenodd" d="M168.523 73.8405L160.694 101.526C159.705 105.024 158.639 108.382 156.59 111.385C153.089 116.517 147.753 111.516 144.438 106.262C142.429 103.077 139.399 100.089 133.435 98.4628C132.067 98.0898 130.718 97.6168 129.47 96.9448C128.018 96.1632 126.625 95.439 126.625 95.439C125.923 95.4171 125.672 95.6714 125.431 95.9141C125.241 96.1065 125.057 96.2917 124.663 96.3258C123.474 96.4285 122.734 96.7302 121.999 97.0298C121.409 97.2705 120.822 97.5098 120.009 97.6434C118.7 97.8585 117.355 97.2882 116.008 96.7169C115.692 96.5832 115.377 96.4495 115.062 96.3258C110.82 98.3495 107.374 102.133 104.201 105.615C104.092 105.735 103.983 105.854 103.875 105.973C101.335 108.759 97.1625 110.647 94.6011 107.882C91.8523 104.914 89.5865 98.4791 88.4485 85.3899C88.4146 84.9996 88.2629 85.1258 88.1107 85.2523C87.9543 85.3824 87.7975 85.5128 87.7677 85.0833C87.5556 90.9559 88.2243 103.317 88.6582 111.338C88.7352 112.761 88.8048 114.047 88.8608 115.136L90.1061 119.198L93.2042 126.7L102.002 138.181L109.282 146.376L115.694 148.9L129.526 148.597L136.241 147.588L142.804 143.549L151.033 138.181L160.978 127.798L166.178 119.367C168.29 114.359 168.247 109.302 168.238 108.274C168.237 108.223 168.237 108.182 168.237 108.151C168.237 108.151 168.428 93.4208 169.983 81.2166L173.973 76.5513L168.523 73.8405ZM112.698 111.398C113.335 110.965 114.09 110.452 115.061 109.845L116.112 107.907C116.138 107.908 116.166 107.911 116.196 107.918L118.39 105.198C118.591 104.949 118.972 104.955 119.166 105.209L121.216 107.912L121.22 107.907L124.988 109.295C125.057 109.293 125.145 109.272 125.251 109.248C125.671 109.152 126.369 108.992 127.223 109.656C127.808 109.968 128.245 110.015 128.74 110.068C129.415 110.139 130.197 110.223 131.607 111.011L133.156 113.555L135.212 112.82C136.49 119.742 134.238 123.211 130.838 123.863C127.993 124.409 127.161 122.128 127.653 119.273C127.703 118.982 127.722 118.639 127.697 118.225L126.357 119.316L125.322 119.948H121.226C121.023 119.934 120.739 119.945 120.397 119.957C118.916 120.013 116.352 120.11 114.567 118.399C114.16 120.08 113.592 120.703 113.168 121.157C112.317 122.068 109.851 122.851 108.906 122.038C107.024 120.42 106.781 119.04 106.966 116.565C107.038 115.592 107.29 114.421 107.853 113.049C107.902 112.93 108.033 112.864 108.157 112.897L109.321 113.203C110.534 112.867 111.354 112.31 112.698 111.398Z" fill="url(#paint16_linear_3129_7654)"/>
</mask>
<g mask="url(#mask3_3129_7654)">
<path fill-rule="evenodd" clip-rule="evenodd" d="M168.523 73.8405L159.207 106.787C159.14 106.915 159.069 107.053 158.994 107.199C157.323 110.446 153.46 117.952 148.822 114.555C148.03 113.378 147.388 112.02 146.714 110.593C144.406 105.712 141.716 100.022 131.346 97.9748C129.554 96.9623 126.625 95.439 126.625 95.439C125.923 95.4171 125.672 95.6714 125.431 95.9141C125.241 96.1065 125.057 96.2917 124.663 96.3258C123.478 96.4282 122.718 96.7487 121.968 97.0655C121.361 97.3217 120.759 97.5756 119.943 97.7097C118.692 97.9151 117.449 97.3643 116.18 96.8023C115.81 96.6382 115.437 96.4732 115.062 96.3258C110.82 98.3495 107.374 102.133 104.201 105.615C102.689 107.275 101.239 108.867 99.7942 110.168C94.8906 110.168 90.2525 106.139 88.4485 85.3899C88.4146 84.9996 88.2629 85.1258 88.1107 85.2523C87.9543 85.3824 87.7975 85.5128 87.7677 85.0833C87.5556 90.9559 88.2243 103.317 88.6582 111.338C88.7352 112.761 88.8048 114.047 88.8608 115.136L90.1061 119.198L93.2042 126.7L102.002 138.181L109.282 146.376L115.694 148.9L129.526 148.597L136.241 147.588L142.804 143.549L151.033 138.181L160.978 127.798L166.178 119.367C168.29 114.359 168.247 109.302 168.238 108.274C168.237 108.223 168.237 108.182 168.237 108.151C168.237 108.151 168.428 93.4208 169.983 81.2166L173.973 76.5513L168.523 73.8405ZM112.698 111.398C113.335 110.965 114.09 110.452 115.061 109.845L116.112 107.907C116.138 107.908 116.166 107.911 116.196 107.918L118.39 105.198C118.591 104.949 118.972 104.955 119.166 105.209L121.216 107.912L121.22 107.907L124.988 109.295C125.057 109.293 125.145 109.272 125.251 109.248C125.671 109.152 126.369 108.992 127.223 109.656C127.808 109.968 128.245 110.015 128.74 110.068C129.415 110.139 130.197 110.223 131.607 111.011L133.156 113.555L135.212 112.82C136.49 119.742 134.238 123.211 130.838 123.863C127.993 124.409 127.161 122.128 127.653 119.273C127.703 118.982 127.722 118.639 127.697 118.225L126.357 119.316L125.322 119.948H121.226C121.023 119.934 120.739 119.945 120.397 119.957C118.916 120.013 116.352 120.11 114.567 118.399C114.16 120.08 113.592 120.703 113.168 121.157C112.317 122.068 109.851 122.851 108.906 122.038C107.024 120.42 106.781 119.04 106.966 116.565C107.038 115.592 107.29 114.421 107.853 113.049C107.902 112.93 108.033 112.864 108.157 112.897L109.321 113.203C110.534 112.867 111.354 112.31 112.698 111.398Z" fill="url(#paint17_linear_3129_7654)"/>
<path opacity="0.6" d="M165.299 102.657C166.202 94.8993 168.028 84.919 171.625 73.372H178.32L176.122 116.15C173.067 127.353 166.488 150.674 164.614 154.341C162.272 158.923 119.498 158.312 115.832 157.6C112.899 157.029 110.804 150.128 108.258 144.391L125.075 145.092C130.876 145.333 136.563 143.43 141.05 139.745L150.878 131.673C159.467 124.619 164.015 113.697 165.299 102.657Z" fill="#9A5C35"/>
<path d="M101.702 142.266C104.901 140.405 104.188 133.216 100.112 126.207C96.0348 119.199 90.1371 115.026 86.9388 116.886C83.7405 118.747 84.4526 125.936 88.5295 132.945C92.6063 139.953 98.504 144.126 101.702 142.266Z" fill="url(#paint18_linear_3129_7654)"/>
<path d="M94.5858 103.702L84.5844 108.178" stroke="#F3AF67" stroke-width="1.96837"/>
<path d="M93.6598 99.9695L83.6584 104.445" stroke="#F3AF67" stroke-width="1.96837"/>
<path opacity="0.5" d="M125.294 101.817C120.656 101.454 116.686 99.6431 113.552 96.3234L110.704 93.9629L112.761 95.3841L115.791 96.8428L118.745 97.1046L122.485 95.8329L126.899 93.5515L130.115 93.9629L131.873 96.6184L133.072 95.6295C133.349 94.5205 133.448 93.3372 133.346 92.1457L133.054 90.4097C133.2 90.9853 133.297 91.5665 133.346 92.1457L133.615 93.7369L133.369 95.3841L133.072 95.6295C132.157 99.2823 129.306 102.13 125.294 101.817Z" fill="#BB7142"/>
</g>
<path d="M112.857 90.2291L112.066 90.8062C111.261 91.3934 110.587 92.1414 110.087 93.0028L109.802 93.6862L109.561 95.3672L109.963 96.887L111.189 97.7196L112.119 96.887L111.543 96.6728V96.0703L112.227 95.3672H113.752C113.786 95.3672 115.015 96.1922 115.626 96.6046L119.501 97.5108L122.511 97.3572L125.832 95.5513L128.905 94.7066L129.139 96.751L130.587 97.5108L132.026 96.6728L132.723 94.5061C132.026 93.6653 131.981 92.2335 130.687 90.8827C127.344 88.4077 127.972 84.5785 129.398 82.3638C129.986 81.4499 131.174 81.3729 132.234 81.6145C140.105 83.4093 152.599 75.6973 146.946 67.3344L133.599 63.5508L130.565 64.7537C123.67 74.0797 125.819 82.0175 125.837 86.9028C125.847 89.6367 123.284 91.1514 120.647 91.872C118.95 92.3357 117.144 92.189 115.544 91.4576L112.857 90.2291Z" fill="url(#paint19_linear_3129_7654)"/>
<path d="M114.402 84.6328C115.91 81.8013 116.159 80.585 117.027 78.4385C118.26 75.3898 115.391 68.0176 111.633 64.7537C109.365 64.3579 101.072 65.856 98.3975 66.7245C100.448 75.03 115.653 68.8635 114.402 84.6328Z" fill="url(#paint20_linear_3129_7654)"/>
<path d="M127.855 94.7856L124.714 96.2146C128.755 97.4597 130.189 96.8626 130.581 96.424L129.935 95.0403L127.855 94.7856Z" fill="#1B2C44"/>
<path d="M114.237 95.0601L116.799 96.9154C115.817 97.1081 113.41 97.4722 111.741 96.7281L111.46 96.1099L112.158 95.3147L114.237 95.0601Z" fill="#1B2C44"/>
<mask id="mask4_3129_7654" style="mask-type:alpha" maskUnits="userSpaceOnUse" x="109" y="107" width="26" height="14">
<path d="M114.794 118.675C111.787 116.428 110.146 113.517 110.146 113.517L110.334 113.391L109.189 113.271C109.189 113.271 113.282 107.947 116.083 107.763L117.006 108.111L118.016 108.406C118.105 108.432 119.722 108.111 119.759 108.111C119.789 108.111 121.232 107.627 121.95 107.385C122.476 107.426 123.534 107.509 123.555 107.512C123.576 107.515 124.821 107.784 125.44 107.918L127.515 108.607L129.311 109.277C129.311 109.277 132.217 110.974 134.237 112.845L132.506 113.462L132.051 113.515C131.62 114.051 129.955 116.078 127.861 118.057L126.328 119.418C125.658 119.655 124.305 120.133 124.255 120.145C124.205 120.158 121.354 120.101 119.936 120.071L117.127 119.907L114.794 118.675Z" fill="#FFA184"/>
</mask>
<g mask="url(#mask4_3129_7654)">
<path d="M114.794 118.675C111.787 116.428 110.146 113.517 110.146 113.517L110.334 113.391L109.189 113.271C109.189 113.271 113.282 107.947 116.083 107.763L117.006 108.111L118.016 108.406C118.105 108.432 119.722 108.111 119.759 108.111C119.789 108.111 121.232 107.627 121.95 107.385C122.476 107.426 123.534 107.509 123.555 107.512C123.576 107.515 124.821 107.784 125.44 107.918L127.515 108.607L129.311 109.277C129.311 109.277 132.217 110.974 134.237 112.845L132.506 113.462L132.051 113.515C131.62 114.051 129.955 116.078 127.861 118.057L126.328 119.418C125.658 119.655 124.305 120.133 124.255 120.145C124.205 120.158 121.354 120.101 119.936 120.071L117.127 119.907L114.794 118.675Z" fill="#FFA184"/>
<path d="M131.64 113.077C134.744 114.046 136.358 113.192 136.801 113.077C130.945 112.317 128.936 111.041 127.057 110.487C124.026 109.594 120.718 110.132 117.558 110.151C114.406 110.17 112.31 111.294 107.789 113.346C109.387 113.547 109.629 112.972 110.93 113.077C112.231 113.182 113.118 110.921 115.324 111.054C116.604 110.857 118.813 112.255 121.453 111.427C124.754 110.393 128.536 112.108 131.64 113.077Z" fill="#C56E5B"/>
</g>
<path opacity="0.4" d="M127.813 118.125L126.918 120.325C125.929 122.759 123.535 124.35 120.908 124.35C117.566 124.35 114.751 121.774 114.502 118.442C114.74 118.558 115.13 118.836 115.2 118.941C115.27 119.046 116.239 119.577 116.715 119.829L122.672 120.004L125.832 119.684L127.813 118.125Z" fill="#192940"/>
<path d="M135.422 80.2754C133.757 79.6318 131.742 77.575 131.742 77.575L132.735 76.0646L134.891 74.7538H137.862L141.925 76.2539L143.964 77.8414C142.799 78.8172 140.512 80.0697 140.512 80.0697L139.041 80.7105L137.119 80.9144L135.422 80.2754Z" fill="url(#paint21_linear_3129_7654)"/>
</g>
<mask id="mask5_3129_7654" style="mask-type:alpha" maskUnits="userSpaceOnUse" x="57" y="140" width="177" height="49">
<path d="M95.0613 159.964L95.4707 162.309L95.7253 163.582L93.603 177.589V188.549L84.1887 187.26L76.5936 185.926L67.3612 183.88L62.6259 183.284L57.106 182.557L70.9605 175.566L71.8683 174.314L81.3468 168.358L82.8902 167.069L91.4151 161.754L95.0613 159.964Z" fill="url(#paint22_linear_3129_7654)"/>
<path d="M179.714 147.579L166.431 140.854L165.949 143.707L166.431 145.078L167.802 150.765L168.821 159.009L168.988 166.16L168.543 172.311L167.228 179.11L165.672 183.593L170.896 183.463L184.642 181.388L197.554 178.443L211.337 174.385L221.73 171.755L230.122 169.217L233.012 168.365L203.316 158.972L201.037 157.768L184.031 150.117L182.289 149.524L179.714 147.579Z" fill="url(#paint23_linear_3129_7654)"/>
</mask>
<g mask="url(#mask5_3129_7654)">
<path d="M95.0613 159.964L95.4707 162.309L95.7253 163.582L93.603 177.589V188.549L84.1887 187.26L76.5936 185.926L67.3612 183.88L62.6259 183.284L57.106 182.557L70.9605 175.566L71.8683 174.314L81.3468 168.358L82.8902 167.069L91.4151 161.754L95.0613 159.964Z" fill="url(#paint24_linear_3129_7654)"/>
<path d="M179.714 147.579L166.431 140.854L165.949 143.707L166.431 145.078L167.802 150.765L168.821 159.009L168.988 166.16L168.543 172.311L167.228 179.11L165.672 183.593L170.896 183.463L184.642 181.388L197.554 178.443L211.337 174.385L221.73 171.755L230.122 169.217L233.012 168.365L203.316 158.972L201.037 157.768L184.031 150.117L182.289 149.524L179.714 147.579Z" fill="url(#paint25_linear_3129_7654)"/>
<path d="M64.9204 185.138L73.9261 171.233L75.3972 171.233L68.4352 185.951L64.9204 185.138Z" fill="url(#paint26_linear_3129_7654)"/>
<path d="M78.439 187.438L73.8427 186.154L78.439 175.474L80.6696 170.135L83.1029 167.228L87.3613 164.051L78.439 187.438Z" fill="url(#paint27_linear_3129_7654)"/>
<path d="M214.653 175.582L207.191 176.686L205.701 167.637L204.33 162.826L202.679 158.909C202.679 158.346 201.215 155.018 201.215 154.738C201.215 154.459 203.12 155.282 204.073 155.729C204.073 155.729 210.683 161.356 214.653 175.582Z" fill="url(#paint28_linear_3129_7654)"/>
<path d="M194.701 179.63L182.836 182.174C182.836 182.174 185.277 174.058 184.675 170.132C184.675 170.132 185.344 165.043 184.675 160.804L183.943 155.266C181.994 149.079 182.208 147.548 182.208 147.268C182.208 146.988 183.723 145.658 184.675 146.105C184.675 146.105 191.829 158.31 194.701 179.63Z" fill="url(#paint29_linear_3129_7654)"/>
</g>
<path d="M86.4902 79.9253C86.5421 80.0703 86.5202 80.231 86.4317 80.3566L85.4156 79.7C84.9691 78.3391 83.804 74.5162 82.9491 69.2821C82.1761 64.5545 81.6579 58.6745 82.1354 52.4273C82.7981 43.7553 85.3851 34.3789 91.8607 26.3802C91.9741 26.2388 92.1821 26.2159 92.324 26.3299C92.4653 26.4438 92.4882 26.6513 92.3743 26.7932C86.0671 34.7115 83.6118 43.9572 83.0127 52.4919C82.5799 58.6618 83.122 64.4614 83.893 69.127C84.9671 75.6285 86.4902 79.9253 86.4902 79.9253Z" fill="#623FC6"/>
<path d="M86.0737 80.5564L86.0447 80.5569C85.6907 80.5564 85.3658 80.6912 85.1222 80.914C84.8775 81.1377 84.7138 81.4495 84.6828 81.8024L84.1167 88.2495C84.0689 88.7906 84.0552 89.3332 84.0755 89.8748C84.0954 90.417 84.1488 90.9571 84.2362 91.4936L86.2781 104.089C86.3473 104.517 86.566 104.889 86.8762 105.153C87.1869 105.418 87.5892 105.577 88.0235 105.577L88.0245 106.389H88.0235C87.3898 106.391 86.8024 106.162 86.3468 105.777C85.8901 105.392 85.5671 104.849 85.4619 104.223L83.3508 91.6396C83.2552 91.0669 83.1957 90.4892 83.1723 89.9099C83.1484 89.3312 83.1611 88.7504 83.2094 88.1717L83.7506 81.7226C83.8004 81.1265 84.075 80.5997 84.4859 80.2208C84.7479 79.9797 85.0652 79.7992 85.4156 79.7L85.5744 79.7989L86.0737 80.5564Z" fill="#C24353"/>
<path fill-rule="evenodd" clip-rule="evenodd" d="M85.5558 79.9929C85.5558 79.9929 86.5224 80.9991 87.2183 84.4481C87.2645 84.6785 87.4924 84.8305 87.727 84.7872C87.961 84.7443 88.1138 84.5227 88.0671 84.2921C87.2958 80.4689 86.161 79.3932 86.161 79.3932C85.9908 79.2273 85.7161 79.2271 85.5493 79.3928C85.3824 79.5586 85.3854 79.8275 85.5558 79.9929Z" fill="#C24353"/>
<path fill-rule="evenodd" clip-rule="evenodd" d="M97.1008 18.8283C97.1008 18.8283 101.568 14.7481 109.161 11.21C112.964 9.43816 117.552 7.8016 122.757 6.88568C122.757 6.88517 122.758 6.88517 122.758 6.88517C126.027 6.29676 129.346 6.20318 132.609 6.58766C135.869 6.97162 139.071 7.83415 142.111 9.16506C142.111 9.16506 142.112 9.16506 142.112 9.16557C144.441 10.1751 147.153 11.3809 149.897 12.6502C152.526 13.8662 155.185 15.1407 157.562 16.3638C160.474 17.8605 163.072 19.8525 165.258 22.2245C167.444 24.5969 169.219 27.3492 170.474 30.3757C170.474 30.3757 170.474 30.3757 170.474 30.3762C172.608 35.4969 174.771 42.8421 175.766 52.7881C176.422 59.345 176.574 67.0294 175.867 75.9496C175.846 76.2034 176.035 76.4266 176.289 76.4475C176.542 76.4688 176.766 76.2796 176.787 76.0259C177.568 67.0411 177.478 59.2952 176.861 52.6818C175.918 42.5807 173.748 35.1155 171.611 29.9058C170.311 26.7385 168.468 23.8524 166.188 21.3685C163.907 18.8842 161.187 16.8032 158.141 15.2368C158.14 15.2368 158.14 15.2363 158.14 15.2363C156.213 14.2512 154.104 13.231 151.972 12.2388C148.696 10.7136 145.37 9.25253 142.587 8.06198C139.435 6.70565 136.114 5.83142 132.738 5.45763C129.366 5.08434 125.938 5.20945 122.567 5.84312C117.277 6.8216 112.619 8.52528 108.763 10.3648C101.065 14.0376 96.5612 18.2439 96.5612 18.2439C96.4 18.3929 96.3898 18.6447 96.5388 18.8059C96.6878 18.9671 96.9396 18.9768 97.1008 18.8283Z" fill="#623FC6"/>
<path fill-rule="evenodd" clip-rule="evenodd" d="M162.357 45.6483C159.966 44.6601 157.518 43.7447 154.114 42.3162C152.541 41.6561 150.763 40.8866 148.692 39.9488C148.691 39.9483 148.69 39.9478 148.689 39.9478C147.107 39.245 145.457 38.7227 143.769 38.3865C142.082 38.0503 140.357 37.9003 138.627 37.9425C138.627 37.9425 138.627 37.9425 138.627 37.9425C135.187 38.0305 131.92 38.388 129.007 38.8539C125.062 39.484 121.767 40.3129 119.576 40.9405C119.576 40.9405 119.575 40.9405 119.575 40.9405C118.348 41.297 117.073 41.3301 115.864 41.0641C114.654 40.7981 113.51 40.2336 112.546 39.3955C112.545 39.3955 112.545 39.395 112.545 39.395C112.051 38.9678 111.601 38.5228 111.198 38.0834C110.737 37.5804 110.336 37.0846 109.997 36.6294C109.459 35.8976 108.684 35.4368 107.852 35.2802C107.019 35.1241 106.129 35.2726 105.362 35.7608C105.361 35.7613 105.361 35.7613 105.36 35.7618C104.39 36.3843 103.56 37.0159 102.879 37.5865C102.119 38.2238 101.544 38.7857 101.17 39.1768C101.17 39.1773 100.57 37.0083 100.57 37.0083C100.525 36.8445 100.384 36.7255 100.216 36.7077C100.047 36.6899 99.884 36.7769 99.8057 36.9274C95.7016 44.7705 93.206 53.4247 91.6809 61.2952C89.522 72.4358 89.3201 82.0101 89.3293 85.4983C89.252 85.4037 89.1762 85.3106 89.103 85.2196C88.484 84.4496 88.0355 83.8383 88.0355 83.8383C87.9033 83.6593 87.6708 83.5861 87.4598 83.6563C87.2487 83.727 87.1068 83.9253 87.1089 84.1481C87.1089 84.1481 87.1506 90.9038 87.4379 99.1868C87.6052 104.023 87.8575 109.38 88.2313 114.217C88.2318 114.219 88.2318 114.222 88.2323 114.225C88.3991 116.054 88.7734 117.852 89.344 119.585C89.9146 121.319 90.6831 122.989 91.6361 124.56V124.56C93.9079 128.298 97.3564 133.622 101.291 138.508C103.773 141.59 106.451 144.496 109.142 146.732C110.212 147.623 111.419 148.317 112.705 148.793C113.992 149.27 115.36 149.529 116.751 149.551C116.752 149.551 116.752 149.551 116.752 149.551C117.424 149.56 118.086 149.544 118.751 149.514C120.215 149.449 121.693 149.318 123.32 149.258C123.838 149.239 124.355 149.232 124.87 149.234C127.012 149.242 129.131 149.386 131.19 149.335C131.196 149.335 131.202 149.335 131.208 149.335C132.103 149.286 132.987 149.14 133.844 148.899C134.7 148.658 135.53 148.323 136.318 147.899C141.282 145.282 146.909 142.483 152.928 137.102C157.004 133.457 161.26 128.628 165.609 121.867C166.255 120.863 166.779 119.791 167.175 118.673C167.57 117.556 167.837 116.392 167.965 115.206C167.965 115.21 168.715 108.476 168.715 108.476L169.913 108.474C170.587 108.473 171.236 108.294 171.802 107.971C172.368 107.647 172.852 107.179 173.194 106.6L180.083 94.956C180.705 93.9038 181.137 92.7601 181.367 91.5777C181.596 90.3958 181.625 89.1747 181.442 87.9669L179.974 78.2843C179.882 77.6796 179.602 77.138 179.193 76.7225C178.786 76.3075 178.251 76.0177 177.648 75.9154L177.058 75.8147C176.197 75.6688 175.327 75.7329 174.517 75.9876C173.708 76.2424 172.958 76.6859 172.337 77.2982C172.336 77.2987 172.335 77.2997 172.334 77.3003C171.825 77.8103 171.277 78.4262 170.75 79.1463C170.298 79.7642 169.862 80.4584 169.481 81.2314C169.378 81.441 169.464 81.6947 169.674 81.798C169.883 81.9012 170.137 81.8153 170.24 81.6057C170.599 80.8805 171.009 80.228 171.435 79.6493C171.935 78.9704 172.457 78.3926 172.941 77.9131C173.465 77.4015 174.097 77.0322 174.778 76.8217C175.458 76.6117 176.187 76.5613 176.907 76.6874L177.497 76.7907C177.91 76.8629 178.275 77.0633 178.553 77.3491C178.83 77.6339 179.02 78.0046 179.08 78.4176L180.507 88.1062C180.669 89.2067 180.639 90.3179 180.426 91.3925C180.212 92.4666 179.816 93.5046 179.246 94.4587L172.311 106.074C172.058 106.496 171.704 106.836 171.29 107.071C170.877 107.304 170.404 107.432 169.913 107.432L168.245 107.428C167.978 107.428 167.753 107.629 167.724 107.895L166.896 115.088C166.773 116.191 166.522 117.271 166.151 118.309C165.78 119.346 165.289 120.34 164.686 121.271C160.382 127.913 156.178 132.656 152.153 136.232C146.204 141.517 140.646 144.252 135.746 146.817C135.744 146.817 135.743 146.818 135.741 146.819C135.031 147.2 134.284 147.499 133.513 147.714C132.747 147.927 131.959 148.057 131.161 148.099C129.107 148.145 127.004 147.995 124.876 147.983C124.343 147.98 123.809 147.986 123.274 148.005C121.644 148.063 120.163 148.192 118.696 148.257C118.055 148.284 117.418 148.299 116.771 148.29C115.523 148.269 114.298 148.036 113.145 147.607C111.993 147.179 110.912 146.556 109.954 145.757L109.954 145.756C107.32 143.572 104.705 140.726 102.273 137.716C98.3695 132.883 94.9387 127.621 92.6802 123.924C91.7699 122.435 91.0355 120.852 90.4868 119.207C89.938 117.562 89.5744 115.855 89.4081 114.118C89.0124 109.3 88.7368 103.964 88.5451 99.1456C88.3106 93.2437 88.2023 88.1184 88.1596 85.6702C88.2094 85.7322 88.2603 85.7948 88.3121 85.8589C88.6636 86.2906 89.0674 86.7712 89.4773 87.2238C89.6192 87.3815 89.8444 87.4334 90.0407 87.3535C90.2371 87.2742 90.3627 87.0799 90.355 86.8684C90.355 86.8684 89.8907 75.4038 92.5419 61.4605C93.9653 53.9735 96.292 45.7734 100.057 38.2512C100.057 38.2512 100.574 40.1192 100.574 40.1192C100.615 40.2677 100.735 40.3806 100.886 40.4126C101.037 40.4447 101.193 40.3897 101.291 40.2707C101.291 40.2707 102.028 39.3757 103.409 38.2182C104.066 37.6674 104.868 37.0581 105.805 36.457C106.389 36.0863 107.066 35.9734 107.699 36.0929C108.333 36.2119 108.923 36.5633 109.331 37.1212C109.332 37.1222 109.333 37.1227 109.333 37.1237C109.688 37.5992 110.107 38.1175 110.588 38.6428C111.011 39.1051 111.483 39.573 112.002 40.0215C113.072 40.9527 114.342 41.5798 115.685 41.8753C117.028 42.1712 118.445 42.1351 119.807 41.74C121.974 41.1211 125.235 40.3028 129.139 39.6818C132.019 39.2241 135.248 38.8737 138.648 38.7903C140.315 38.7506 141.977 38.8971 143.602 39.2226C145.228 39.5476 146.816 40.0526 148.34 40.7305C150.418 41.6734 152.201 42.4479 153.78 43.1121C157.184 44.5442 159.633 45.4627 162.023 46.4538C162.246 46.5454 162.501 46.4401 162.593 46.2179C162.685 45.9951 162.579 45.7403 162.357 45.6483Z" fill="#C24353"/>
<path fill-rule="evenodd" clip-rule="evenodd" d="M154.122 42.9941L155.845 48.2293L153.666 49.7519C153.583 49.8114 153.529 49.9045 153.519 50.0062C153.508 50.1084 153.542 50.2101 153.612 50.2854L156.083 52.9981C155.845 53.7243 155.154 56.1293 155.316 59.1573C155.418 61.074 155.864 63.2405 156.972 65.379C158.541 68.4091 161.443 71.3903 166.599 73.5298C166.755 73.5959 166.935 73.5232 167.002 73.3665C167.068 73.2104 166.995 73.0299 166.839 72.9637C161.918 70.8303 159.174 67.9351 157.697 65.0083C156.67 62.9735 156.261 60.9255 156.159 59.111C155.965 55.6528 156.894 53.0413 156.894 53.0413C156.945 52.9035 156.914 52.7489 156.814 52.6411L154.413 50.0926L156.423 48.6249C156.541 48.541 156.59 48.3895 156.543 48.2522L154.624 42.8227C154.577 42.6844 154.426 42.6102 154.287 42.6574C154.149 42.7047 154.075 42.8558 154.122 42.9941Z" fill="#C24353"/>
<path fill-rule="evenodd" clip-rule="evenodd" d="M115.127 71.858C115.096 72.059 115.317 72.1885 115.478 72.3133C115.556 72.3738 115.647 72.448 115.745 72.536C118.67 75.1431 116.392 79.2906 115.315 82.2679C114.457 84.64 112.717 86.9456 112.544 89.8057C112.543 89.9038 112.581 90.6834 112.615 91.3743C112.652 92.1028 112.758 92.8338 113.066 93.4949C113.901 95.2839 115.376 96.7567 117.084 97.5794C117.585 97.8207 118.144 97.9019 118.7 97.9019H121.429C121.92 97.9019 122.406 97.8119 122.834 97.5701C124.871 96.4181 128.932 93.4279 130.157 96.3177C130.216 96.4759 130.384 96.5532 130.533 96.4906C130.681 96.428 130.754 96.249 130.695 96.0909C129.49 92.5719 124.852 95.7219 122.576 96.8872C122.156 97.1022 121.687 97.1843 121.215 97.1843H118.834C118.285 97.1843 117.733 97.1068 117.24 96.8652C115.824 96.171 114.606 94.9785 113.876 93.5057C113.547 92.8416 113.441 92.0967 113.404 91.3565C113.369 90.6529 113.331 89.8653 113.333 89.8057C113.496 87.0676 115.225 84.6827 115.969 82.5283C117.09 79.2832 119.332 74.9081 116.072 72.1154C115.961 72.0203 115.86 71.9405 115.773 71.8759C115.636 71.7742 115.534 71.7086 115.484 71.6781C115.319 71.5862 115.153 71.6977 115.127 71.858Z" fill="#C24353"/>
<path fill-rule="evenodd" clip-rule="evenodd" d="M114.731 95.1152C113.969 95.0934 113.139 94.9676 112.395 95.19C112.121 95.2724 111.863 95.4041 111.622 95.5618L111.621 95.5623C111.303 95.7871 111.157 96.236 111.365 96.5875C111.428 96.6928 111.508 96.7894 111.616 96.854L112.125 97.1541C112.214 97.2182 112.339 97.1978 112.404 97.1083C112.468 97.0188 112.448 96.8942 112.358 96.8296L111.913 96.4421C111.804 96.3485 111.846 96.1718 111.962 96.11L111.963 96.1095C112.162 95.991 112.377 95.9076 112.596 95.8379C113.284 95.6181 114.036 95.5991 114.749 95.5145C114.859 95.5099 114.944 95.4163 114.94 95.306C114.935 95.1961 114.841 95.1102 114.731 95.1152Z" fill="#C24353"/>
<path fill-rule="evenodd" clip-rule="evenodd" d="M130.036 90.7569C130.887 91.2779 131.491 92.146 131.668 93.0956L131.909 94.2428C132.155 95.2812 131.674 96.4347 130.716 96.993L130.063 97.3797C129.915 97.4594 129.863 97.6392 129.947 97.7801C130.03 97.9215 130.218 97.9716 130.366 97.8919L131.049 97.5581C132.369 96.9007 133.072 95.4354 132.728 94.0606L132.412 92.9299C132.083 91.8424 131.3 90.9217 130.225 90.4324C130.054 90.3523 129.819 90.6149 130.036 90.7569Z" fill="#C24353"/>
<path fill-rule="evenodd" clip-rule="evenodd" d="M111.773 91.027C111.72 90.9275 111.596 90.8882 111.498 90.9444C110.611 91.4539 109.966 92.3218 109.694 93.332C109.435 94.3808 109.139 95.3951 109.633 96.4351C110.05 97.3151 110.789 97.739 111.599 98.1496C111.692 98.2033 111.81 98.1697 111.862 98.0738C111.915 97.9783 111.882 97.8564 111.789 97.8022C111.132 97.3676 110.517 96.9602 110.217 96.1712C109.878 95.2762 110.164 94.3827 110.349 93.4889C110.508 92.6189 111.006 91.8206 111.706 91.3063C111.794 91.2418 111.825 91.1228 111.773 91.027Z" fill="#C24353"/>
<path fill-rule="evenodd" clip-rule="evenodd" d="M178.43 76.7518L173.073 83.4557C171.927 84.9056 171.139 86.5737 170.74 88.3313C170.343 90.0843 170.331 91.9248 170.738 93.7216L170.76 93.8172C170.87 94.3054 170.894 94.8048 170.832 95.294C170.769 95.7843 170.622 96.2634 170.392 96.7094L169.165 99.0894C169.086 99.24 169.144 99.4261 169.295 99.5049C169.445 99.5838 169.631 99.5253 169.71 99.3753L170.97 97.0125C171.243 96.5009 171.421 95.9491 171.501 95.3836C171.581 94.817 171.562 94.2362 171.441 93.6682L171.421 93.572C171.061 91.878 171.095 90.1489 171.489 88.5068C171.883 86.8692 172.637 85.3181 173.724 83.977L179.088 77.2777C179.233 77.0961 179.203 76.8312 179.022 76.6862C178.841 76.5408 178.576 76.5703 178.43 76.7518Z" fill="#C24353"/>
<path fill-rule="evenodd" clip-rule="evenodd" d="M97.0362 78.9135C97.1572 79.1844 97.5029 79.0008 97.7277 78.8072C100.535 76.3897 106.728 73.2762 109.384 76.6193L110.418 77.8825C110.52 78.0178 110.713 78.0442 110.848 77.9415C110.984 77.8393 111.01 77.646 110.907 77.5108L109.93 76.1936C106.946 72.0802 99.9356 75.5793 97.1355 78.5053C97.0845 78.5586 97.0333 78.6131 97.0144 78.6845C96.9938 78.7627 97.0048 78.8432 97.0362 78.9135Z" fill="#192940"/>
<path fill-rule="evenodd" clip-rule="evenodd" d="M145.083 78.9135C144.962 79.1844 144.616 79.0008 144.391 78.8072C141.584 76.3897 135.391 73.2762 132.735 76.6193L131.701 77.8825C131.598 78.0178 131.406 78.0442 131.27 77.9415C131.135 77.8393 131.109 77.646 131.211 77.5108L132.189 76.1936C135.173 72.0802 142.183 75.5793 144.983 78.5053C145.034 78.5586 145.086 78.6131 145.104 78.6845C145.125 78.7627 145.114 78.8432 145.083 78.9135Z" fill="#192940"/>
<path fill-rule="evenodd" clip-rule="evenodd" d="M101.576 80.1848C104.166 81.3711 105.161 81.4502 107.39 80.0017C107.486 79.9498 107.521 79.8303 107.47 79.7347C107.418 79.6391 107.298 79.6035 107.203 79.6554C105.051 80.612 104.115 80.5916 101.719 79.8176C101.618 79.7779 101.503 79.8283 101.464 79.93C101.424 80.0312 101.475 80.1456 101.576 80.1848Z" fill="#192940"/>
<path fill-rule="evenodd" clip-rule="evenodd" d="M140.515 79.8209C139.549 80.1286 138.557 80.5842 137.524 80.5202C136.623 80.4645 135.842 80.013 135.037 79.644C134.935 79.5885 134.807 79.6262 134.751 79.7289C134.695 79.8311 134.733 79.9598 134.836 80.0152C135.661 80.5371 136.468 81.159 137.48 81.2241C138.62 81.2986 139.658 80.6449 140.656 80.183C140.756 80.1444 140.806 80.0315 140.766 79.9318C140.728 79.8316 140.615 79.7823 140.515 79.8209Z" fill="#192940"/>
<path fill-rule="evenodd" clip-rule="evenodd" d="M109.948 81.1395C109.948 81.1395 109.517 81.6303 108.737 82.2863C108.593 82.4074 108.438 82.535 108.274 82.6708C108.174 82.7537 108.072 82.8402 107.968 82.9297C107.614 83.2318 107.227 83.5583 106.776 83.8649C106.683 83.9188 106.65 84.0373 106.704 84.1304C106.758 84.2229 106.876 84.255 106.969 84.2016C107.392 84.0012 107.781 83.7952 108.126 83.5694C108.387 83.3981 108.623 83.2201 108.831 83.0405C109.075 82.829 109.28 82.6149 109.456 82.4196C110.009 81.8083 110.265 81.3643 110.265 81.3643C110.327 81.2768 110.307 81.1553 110.219 81.0932C110.132 81.0317 110.01 81.0521 109.948 81.1395Z" fill="#192940"/>
<path fill-rule="evenodd" clip-rule="evenodd" d="M132.005 81.3595C132.372 81.9802 132.902 82.5532 133.444 83.0276C134 83.5129 134.634 83.8788 135.298 84.1952C135.388 84.2476 135.504 84.2166 135.556 84.1261C135.608 84.0361 135.577 83.9206 135.487 83.8687C134.906 83.464 134.42 83.0411 133.982 82.6807C133.397 82.2024 132.804 81.7186 132.312 81.1418C132.252 81.0569 132.134 81.0366 132.049 81.0971C131.964 81.1571 131.944 81.2746 132.005 81.3595Z" fill="#192940"/>
<path fill-rule="evenodd" clip-rule="evenodd" d="M96.8714 76.2368C96.9408 76.364 97.1188 76.2116 97.2321 76.1212C101.179 72.9699 106.029 71.478 110.299 74.2386C110.354 74.2782 110.432 74.2655 110.471 74.2101C110.511 74.1547 110.498 74.0779 110.443 74.0382C106.126 70.6311 100.883 72.3659 96.9003 76.0719C96.8517 76.1128 96.8439 76.1864 96.8714 76.2368Z" fill="#192940"/>
<path fill-rule="evenodd" clip-rule="evenodd" d="M145.134 76.3209C145.315 76.481 145.588 76.2085 145.407 76.0066C142.869 73.6836 138.094 71.3324 134.534 72.2427C133.465 72.5169 132.625 73.3287 131.767 73.9795C131.68 74.0415 131.66 74.163 131.723 74.25C131.785 74.3375 131.906 74.3573 131.994 74.2953C132.822 73.7367 133.657 72.9955 134.66 72.7884C137.975 72.105 142.666 74.2742 145.134 76.3209H145.134Z" fill="#192940"/>
<path fill-rule="evenodd" clip-rule="evenodd" d="M88.5856 28.8841C88.5856 28.8841 91.9396 26.562 96.3865 25.3918C97.2734 25.1584 98.2036 24.9707 99.1602 24.8497C100.073 24.7337 101.01 24.6829 101.959 24.7179C103.169 24.7622 104.398 24.9437 105.621 25.3379C107.269 25.8688 108.907 26.7583 110.459 28.1721C110.569 28.2794 110.746 28.2774 110.853 28.167C110.96 28.0567 110.958 27.8802 110.848 27.7729C108.876 25.7295 106.701 24.5593 104.496 23.9963C103.669 23.7852 102.837 23.6622 102.012 23.6139C101.167 23.5645 100.328 23.595 99.5085 23.6861C98.6694 23.7791 97.8491 23.9368 97.0598 24.1397C95.8031 24.4621 94.6233 24.8949 93.5619 25.3638C90.388 26.7659 88.2728 28.465 88.2728 28.465C88.1574 28.5515 88.1335 28.7158 88.22 28.8312C88.3059 28.9466 88.4702 28.9706 88.5856 28.8841Z" fill="#623FC6"/>
<path fill-rule="evenodd" clip-rule="evenodd" d="M85.0788 29.401C85.0788 29.401 85.9418 27.3434 88.4155 24.7833C89.5363 23.6227 90.9857 22.3595 92.84 21.1399C92.84 21.1394 92.8405 21.1394 92.841 21.1389C93.9125 20.4218 95.0619 19.868 96.2504 19.4612C97.4562 19.0487 98.7047 18.7965 99.9654 18.7019C102.471 18.5137 105.027 18.9516 107.372 20.0796C107.372 20.0796 107.372 20.0796 107.372 20.0796C108.557 20.6405 109.735 21.3728 110.823 22.3279C111.803 23.1879 112.711 24.2254 113.482 25.4825C113.581 25.6494 113.796 25.7043 113.963 25.6056C114.129 25.507 114.184 25.2913 114.085 25.125C113.313 23.7733 112.389 22.6483 111.381 21.7105C110.258 20.6654 109.029 19.8573 107.789 19.2287C105.301 17.9797 102.571 17.4391 99.8876 17.6257C98.5328 17.7198 97.1897 18.0011 95.9005 18.4623C94.6352 18.9155 93.4228 19.5466 92.2933 20.3405C90.4212 21.6642 88.9642 23.0165 87.8515 24.2584C85.3778 27.0179 84.5839 29.2078 84.5839 29.2078C84.5305 29.3446 84.5982 29.4987 84.735 29.5521C84.8718 29.6055 85.0259 29.5378 85.0788 29.401Z" fill="#623FC6"/>
<path fill-rule="evenodd" clip-rule="evenodd" d="M95.2398 163.457C95.2398 163.457 93.4191 168.634 92.9019 188.168C92.8938 188.46 93.1252 188.704 93.4171 188.712C93.7095 188.719 93.9531 188.488 93.9607 188.196C94.4713 168.918 96.2401 163.806 96.2401 163.806C96.3368 163.53 96.1908 163.228 95.9146 163.131C95.6385 163.035 95.3364 163.181 95.2398 163.457Z" fill="#623FC6"/>
<path fill-rule="evenodd" clip-rule="evenodd" d="M94.6539 159.297L85.4967 164.679C84.5604 165.234 83.702 165.902 82.9452 166.671C82.1895 167.439 81.535 168.305 80.9969 169.249C80.9964 169.249 80.9959 169.25 80.9954 169.251C80.3215 170.457 79.5378 171.963 78.8116 173.636C78.1845 175.081 77.6007 176.649 77.1588 178.253C77.115 178.402 77.201 178.559 77.3505 178.602C77.4995 178.646 77.6561 178.56 77.6994 178.411C78.1815 176.85 78.8045 175.33 79.46 173.929C80.2208 172.302 81.0269 170.839 81.7206 169.668C82.2373 168.802 82.8654 168.01 83.5799 167.306C84.2934 166.604 85.0944 165.991 85.9686 165.487L95.1563 160.157C95.3933 160.019 95.4737 159.714 95.3348 159.476C95.1965 159.239 94.8914 159.159 94.6539 159.297Z" fill="#623FC6"/>
<path fill-rule="evenodd" clip-rule="evenodd" d="M83.3848 166.419C83.3848 166.419 81.021 167.902 78.3953 169.581C76.6555 170.692 74.8033 171.895 73.4307 172.78C72.7233 173.252 72.0749 173.802 71.5078 174.427C70.9428 175.05 70.4571 175.743 70.0584 176.49L68.2729 179.87C68.2169 179.97 68.252 180.096 68.3517 180.152C68.4508 180.209 68.5775 180.173 68.6339 180.074L70.6102 176.802C71.0155 176.123 71.5038 175.502 72.0535 174.942C72.6002 174.385 73.2105 173.89 73.8782 173.475C75.2509 172.589 77.1112 171.4 78.8423 170.274C81.4548 168.576 83.782 167.035 83.782 167.035C83.9524 166.926 84.0012 166.699 83.8918 166.529C83.782 166.358 83.5547 166.309 83.3848 166.419Z" fill="#623FC6"/>
<path fill-rule="evenodd" clip-rule="evenodd" d="M71.0844 174.808L56.6885 182.129C56.513 182.219 56.4179 182.415 56.4566 182.609C56.4947 182.803 56.6575 182.948 56.8543 182.963C56.8543 182.963 60.8994 183.308 65.9835 184.144C68.8304 184.613 72.0034 185.235 74.9734 186.04C76.049 186.341 77.1343 186.605 78.2272 186.832C79.3206 187.059 80.4221 187.25 81.5293 187.403C85.5754 187.978 91.3771 188.736 96.1225 189.6C98.5677 190.045 100.73 190.517 102.215 191.009C104.107 191.636 105.154 192.59 106.117 193.605C107.214 194.761 108.215 195.987 110.031 196.982C111.096 197.566 112.441 198.071 114.253 198.428C114.436 198.465 114.621 198.492 114.807 198.508C114.993 198.525 115.18 198.531 115.368 198.527C115.369 198.527 115.371 198.527 115.372 198.527C116.601 198.494 117.841 198.187 119.11 197.705C122.977 196.237 127.145 193.089 132.311 191.706L134.512 191.08C136.841 190.426 143.547 188.551 152.197 186.845C157.624 185.773 163.816 184.765 170.177 184.174C177.698 183.486 185.388 181.976 192.658 180.206C206.511 176.832 218.836 172.517 225.553 171.256C225.991 171.189 226.422 171.103 226.847 170.995C227.276 170.887 227.7 170.757 228.116 170.607C228.112 170.608 232.948 168.879 232.948 168.879C233.163 168.802 233.304 168.597 233.301 168.37C233.297 168.142 233.149 167.941 232.932 167.871L202.243 158.068C202.001 157.99 201.803 157.995 201.725 158.238C201.647 158.48 201.781 158.74 202.023 158.818L231.109 168.4L227.75 169.585C227.366 169.721 226.976 169.838 226.582 169.937C226.187 170.034 225.787 170.113 225.385 170.172C225.378 170.173 225.371 170.174 225.365 170.175C218.636 171.413 206.267 175.686 192.373 179.028C185.156 180.764 177.525 182.251 170.061 182.917H170.06C163.654 183.51 157.416 184.518 151.951 185.6C143.255 187.323 136.517 189.228 134.166 189.893L131.991 190.518C126.784 191.928 122.584 195.102 118.687 196.596C117.55 197.032 116.442 197.32 115.34 197.354C115.196 197.357 115.052 197.353 114.909 197.34C114.765 197.328 114.621 197.308 114.48 197.28H114.478C112.808 196.956 111.567 196.502 110.584 195.968C108.888 195.048 107.965 193.895 106.939 192.822C105.859 191.694 104.679 190.643 102.563 189.952C101.039 189.453 98.8224 188.975 96.3147 188.53C91.552 187.686 85.73 186.956 81.6676 186.398C81.6666 186.398 81.6661 186.398 81.665 186.398C80.5798 186.253 79.5001 186.072 78.428 185.855C77.3555 185.637 76.29 185.384 75.2343 185.094C75.2327 185.094 75.2317 185.094 75.2302 185.093C72.2241 184.294 69.0135 183.679 66.133 183.221C62.8965 182.706 60.0781 182.387 58.439 182.222L71.4465 175.515C71.6418 175.415 71.7191 175.176 71.6194 174.98C71.5192 174.785 71.2797 174.707 71.0844 174.808Z" fill="#623FC6"/>
<path fill-rule="evenodd" clip-rule="evenodd" d="M165.887 141.077L179.408 147.937C180.215 148.346 180.917 148.914 181.478 149.598C182.041 150.284 182.463 151.084 182.706 151.957C183.335 154.2 184.096 157.536 184.426 161.36C184.685 164.339 184.686 167.613 184.14 170.9C184.114 171.049 184.214 171.192 184.363 171.219C184.512 171.245 184.655 171.145 184.681 170.996C185.309 167.666 185.39 164.336 185.186 161.301C184.923 157.409 184.192 154.006 183.59 151.716V151.716C183.322 150.714 182.848 149.792 182.212 149.002C181.574 148.21 180.772 147.551 179.849 147.075L166.369 140.133C166.109 140 165.79 140.103 165.657 140.364C165.524 140.624 165.627 140.943 165.887 141.077Z" fill="#623FC6"/>
<path fill-rule="evenodd" clip-rule="evenodd" d="M181.887 149.7L200.582 157.923C201.094 158.147 201.56 158.457 201.958 158.838C202.358 159.219 202.691 159.671 202.938 160.174C203.428 161.188 204.044 162.634 204.6 164.438C205.003 165.747 205.376 167.245 205.644 168.906C205.662 169.025 205.774 169.108 205.894 169.09C206.013 169.072 206.096 168.96 206.078 168.84C205.842 167.15 205.497 165.622 205.115 164.285C204.586 162.435 203.985 160.95 203.504 159.905C203.504 159.905 203.503 159.904 203.503 159.903C203.232 159.327 202.862 158.808 202.415 158.367C201.968 157.925 201.441 157.562 200.859 157.298L182.231 148.925C182.017 148.83 181.766 148.927 181.671 149.14C181.576 149.354 181.673 149.604 181.887 149.7Z" fill="#623FC6"/>
<path fill-rule="evenodd" clip-rule="evenodd" d="M56.793 182.075L50.4416 184.978C45.7933 187.102 42.03 190.539 39.4958 194.721C36.9606 198.904 35.6551 203.833 35.9231 208.939L36.6967 223.687C36.7668 225.021 37.134 226.305 37.7519 227.453C38.3708 228.601 39.241 229.614 40.3166 230.407C40.3171 230.408 40.3176 230.408 40.3181 230.408C45.6606 234.314 57.0839 242.514 69.7161 250.635C76.4287 254.95 83.4824 259.243 90.1472 262.859C95.5766 265.803 101.485 267.59 107.511 268.183C113.538 268.777 119.682 268.177 125.583 266.348C125.583 266.348 125.584 266.348 125.584 266.348C144.495 260.441 177.074 249.799 207.549 237.554C227.286 229.623 246.14 221.017 259.844 212.602C259.848 212.6 259.851 212.598 259.855 212.596C261.11 211.789 262.073 210.652 262.668 209.349C263.263 208.046 263.491 206.575 263.279 205.098L261.659 193.79C260.816 187.929 258.249 182.612 254.457 178.396C250.666 174.18 245.652 171.064 239.914 169.607L232.324 167.678C231.991 167.593 231.652 167.795 231.567 168.128C231.482 168.461 231.684 168.8 232.017 168.885L239.606 170.816C245.098 172.214 249.897 175.198 253.524 179.235C257.151 183.271 259.607 188.361 260.411 193.969L262.026 205.277C262.202 206.509 262.012 207.735 261.515 208.822C261.019 209.906 260.22 210.851 259.177 211.523C245.52 219.905 226.732 228.464 207.071 236.366C176.633 248.6 144.1 259.251 125.214 265.159C119.474 266.943 113.496 267.531 107.631 266.96C101.764 266.388 96.0109 264.656 90.7223 261.797C84.078 258.202 77.0461 253.933 70.3529 249.643C57.7349 241.555 46.3222 233.389 40.9843 229.498C40.0435 228.806 39.2822 227.922 38.7401 226.92C38.1979 225.916 37.875 224.795 37.8124 223.628L37.017 208.881C36.7536 203.997 37.9955 199.281 40.4148 195.277C42.835 191.27 46.4326 187.975 50.8795 185.935L57.2268 183.023C57.4882 182.903 57.6032 182.593 57.4837 182.332C57.3642 182.071 57.0544 181.956 56.793 182.075Z" fill="#623FC6"/>
<path fill-rule="evenodd" clip-rule="evenodd" d="M165.703 143.429C165.703 143.429 166.919 147.468 167.763 153.477C168.186 156.481 168.511 159.976 168.553 163.708C168.576 165.703 168.521 167.764 168.351 169.856C167.977 174.498 167.048 179.285 165.198 183.789C165.132 183.946 165.206 184.126 165.363 184.192C165.519 184.257 165.699 184.183 165.765 184.027C167.706 179.48 168.73 174.634 169.157 169.925C169.35 167.809 169.421 165.72 169.401 163.699C169.361 159.927 169.006 156.395 168.558 153.363C167.661 147.292 166.372 143.223 166.372 143.223C166.315 143.038 166.119 142.934 165.934 142.992C165.75 143.049 165.646 143.245 165.703 143.429Z" fill="#623FC6"/>
<path fill-rule="evenodd" clip-rule="evenodd" d="M107.601 112.86L109.13 113.578C109.238 113.628 109.351 113.664 109.465 113.692C109.581 113.719 109.699 113.732 109.819 113.737C109.828 113.737 109.839 113.736 109.848 113.735C110.289 113.704 110.767 113.535 111.292 113.294C111.683 113.114 112.103 112.896 112.554 112.668C112.94 112.474 113.35 112.275 113.789 112.093C114.186 111.928 114.604 111.771 115.056 111.656C115.498 111.544 115.966 111.462 116.471 111.436C117.135 111.402 117.854 111.451 118.648 111.639C118.712 111.658 118.781 111.622 118.8 111.557C118.82 111.493 118.784 111.425 118.719 111.405C117.916 111.103 117.172 110.95 116.475 110.905C115.924 110.869 115.406 110.904 114.916 110.984C114.413 111.067 113.941 111.198 113.501 111.363C113.029 111.539 112.594 111.753 112.19 111.97C111.749 112.207 111.347 112.451 110.971 112.657C110.542 112.892 110.158 113.087 109.787 113.147C109.711 113.151 109.64 113.149 109.568 113.14C109.488 113.129 109.407 113.112 109.33 113.085L107.731 112.54C107.642 112.504 107.541 112.547 107.506 112.635C107.47 112.724 107.513 112.824 107.601 112.86Z" fill="#192940"/>
<path fill-rule="evenodd" clip-rule="evenodd" d="M134.974 112.459L132.883 113.044L132.654 113.083C132.149 113.103 131.618 112.944 131.028 112.72C130.515 112.525 129.964 112.274 129.357 112.023C128.82 111.8 128.241 111.574 127.612 111.388C127.042 111.218 126.431 111.082 125.777 110.996C125.152 110.914 124.488 110.878 123.781 110.912C122.879 110.955 121.912 111.11 120.862 111.417C120.806 111.431 120.771 111.488 120.784 111.545C120.798 111.601 120.855 111.637 120.911 111.623C121.769 111.466 122.562 111.408 123.304 111.412C124.16 111.417 124.94 111.516 125.663 111.666C126.275 111.793 126.841 111.961 127.375 112.139C127.976 112.339 128.534 112.555 129.056 112.764C129.676 113.012 130.246 113.247 130.776 113.425C131.479 113.66 132.116 113.793 132.706 113.737C132.71 113.737 132.714 113.737 132.718 113.736L133.075 113.653L135.124 112.937C135.256 112.896 135.329 112.755 135.288 112.623C135.247 112.492 135.106 112.418 134.974 112.459Z" fill="#192940"/>
<path fill-rule="evenodd" clip-rule="evenodd" d="M115.994 107.958L117.592 108.512C117.913 108.621 118.248 108.663 118.58 108.646C118.916 108.629 119.248 108.545 119.56 108.402L120.059 108.17C120.572 107.927 121.117 107.777 121.673 107.703C122.223 107.629 122.784 107.633 123.337 107.731C123.777 107.802 124.281 107.901 124.843 108.027C125.304 108.131 125.803 108.253 126.337 108.401C127.229 108.649 128.214 108.961 129.273 109.385C129.333 109.413 129.404 109.386 129.431 109.326C129.458 109.267 129.432 109.196 129.372 109.169C128.344 108.638 127.383 108.216 126.502 107.89C125.969 107.694 125.468 107.533 125.002 107.401C124.43 107.239 123.913 107.125 123.462 107.035C123.461 107.035 123.46 107.034 123.458 107.034C122.829 106.935 122.191 106.932 121.571 107.039C120.954 107.144 120.357 107.356 119.799 107.658L119.317 107.923C119.073 108.059 118.81 108.149 118.538 108.185C118.261 108.221 117.978 108.208 117.703 108.138L116.062 107.729C115.999 107.711 115.933 107.747 115.914 107.81C115.895 107.873 115.931 107.94 115.994 107.958Z" fill="#192940"/>
<path fill-rule="evenodd" clip-rule="evenodd" d="M127.798 117.919L127.813 117.919L127.821 117.925C127.857 117.956 127.996 118.087 127.88 118.214C127.822 118.279 127.699 118.414 127.542 118.586C127.046 119.127 126.453 119.557 125.799 119.859C125.136 120.166 124.411 120.333 123.666 120.36C122.879 120.377 121.958 120.411 121.034 120.417C120.681 120.419 120.327 120.413 119.981 120.407C119.426 120.398 118.89 120.38 118.402 120.368C117.634 120.336 116.887 120.163 116.205 119.843C115.533 119.528 114.925 119.083 114.417 118.522L114.442 118.463C114.399 118.514 114.371 118.466 114.371 118.411C114.371 118.325 114.442 118.254 114.528 118.254L114.639 118.3C115.158 118.77 115.761 119.121 116.407 119.355C117.041 119.584 117.716 119.692 118.402 119.664C118.89 119.652 119.426 119.634 119.981 119.624C120.327 119.619 120.681 119.613 121.034 119.615C121.958 119.621 122.879 119.655 123.666 119.671C124.33 119.696 124.983 119.589 125.594 119.365C126.216 119.136 126.796 118.794 127.294 118.338C127.466 118.181 127.602 118.058 127.667 117.999C127.677 117.99 127.687 117.981 127.697 117.974C127.721 117.944 127.757 117.923 127.798 117.919Z" fill="#192940"/>
<path fill-rule="evenodd" clip-rule="evenodd" d="M166.915 162.1L166.923 162.107C167.073 162.222 167.288 162.193 167.403 162.043C167.47 161.955 167.489 161.845 167.461 161.745L167.461 161.743L167.459 161.736C167.453 161.716 167.445 161.697 167.435 161.679L167.429 161.666L167.422 161.655L167.419 161.65L167.415 161.644L167.411 161.637L167.406 161.632L167.402 161.626L167.4 161.623L167.398 161.621L167.393 161.615L167.39 161.611L167.388 161.608C167.373 161.592 167.357 161.576 167.339 161.562C166.609 160.985 166.056 160.238 165.71 159.406C165.367 158.58 165.232 157.669 165.336 156.751C165.336 156.751 165.336 156.75 165.336 156.75C165.743 153.039 166.156 148.662 166.517 144.157C166.742 141.361 166.955 138.516 167.131 135.751C167.222 134.322 167.299 132.913 167.369 131.544C167.482 129.308 167.574 127.178 167.647 125.23C167.878 119.04 167.957 114.7 167.957 114.7C167.965 114.532 167.835 114.389 167.667 114.382C167.5 114.374 167.358 114.504 167.349 114.671C167.349 114.671 167.092 118.038 166.727 123.071C166.549 125.538 166.346 128.404 166.136 131.471C166.051 132.703 165.969 133.968 165.889 135.252C165.811 136.498 165.736 137.762 165.663 139.033C165.305 145.233 164.929 151.576 164.49 156.667C164.399 157.726 164.581 158.772 165.003 159.712C165.421 160.643 166.071 161.47 166.915 162.1ZM167.448 161.707C167.455 161.724 167.461 161.742 167.465 161.76L167.461 161.745L167.459 161.736L167.456 161.727L167.448 161.707ZM167.439 161.686L167.446 161.702L167.444 161.696L167.439 161.686ZM167.428 161.665L167.431 161.671L167.428 161.665ZM167.416 161.645L167.415 161.644L167.41 161.637L167.416 161.645ZM167.394 161.617L167.405 161.63L167.4 161.623L167.391 161.613L167.394 161.617ZM167.372 161.593L167.386 161.607L167.38 161.6L167.372 161.593ZM167.362 161.583C167.355 161.576 167.347 161.57 167.34 161.564L167.362 161.583Z" fill="#C24353"/>
<path d="M94.9362 155.702C95.8766 161.36 96.9044 167.341 98.0914 173.463C98.2666 174.379 98.1185 176.268 97.3675 177.332C97.2673 177.474 97.0651 177.473 96.9464 177.346C96.8574 177.251 96.8404 177.11 96.8989 176.994C97.427 175.944 97.613 174.773 97.3611 173.612H97.3606C96.053 167.505 94.8666 161.543 93.8566 155.889C91.387 142.062 89.3982 128.116 88.1698 114.124C88.1489 113.906 88.3086 113.711 88.5273 113.69C88.7455 113.669 88.9403 113.829 88.9616 114.047C90.4515 127.993 92.6377 141.869 94.9362 155.702Z" fill="#C24353"/>
<mask id="mask6_3129_7654" style="mask-type:alpha" maskUnits="userSpaceOnUse" x="128" y="61" width="24" height="9">
<path d="M130.59 68.0416C129.151 67.1077 128.623 65.5717 128.544 64.7685L130.079 65.2356L130.182 63.7277C137.03 59.9073 147.236 60.231 151.139 69.9411C147.212 65.872 138.445 66.9234 133.418 68.2273C132.464 68.4747 131.417 68.5779 130.59 68.0416Z" fill="#192940"/>
</mask>
<g mask="url(#mask6_3129_7654)">
<path d="M130.59 68.0416C129.151 67.1077 128.623 65.5717 128.544 64.7685L130.079 65.2356L130.182 63.7277C137.03 59.9073 147.236 60.231 151.139 69.9411C147.212 65.872 138.445 66.9234 133.418 68.2273C132.464 68.4747 131.417 68.5779 130.59 68.0416Z" fill="#192940"/>
<rect x="127.969" y="54.3244" width="6.14183" height="22.8255" transform="rotate(1.79583 127.969 54.3244)" fill="url(#paint30_linear_3129_7654)"/>
<rect x="136.834" y="53.6677" width="4.10391" height="22.8255" transform="rotate(1.79583 136.834 53.6677)" fill="url(#paint31_linear_3129_7654)"/>
</g>
<mask id="mask7_3129_7654" style="mask-type:alpha" maskUnits="userSpaceOnUse" x="92" y="61" width="24" height="9">
<path d="M112.985 68.0416C114.425 67.1077 114.953 65.5717 115.031 64.7685L113.496 65.2356L113.394 63.7277C106.546 59.9073 96.3394 60.231 92.4366 69.9411C96.3636 65.872 105.131 66.9234 110.158 68.2273C111.112 68.4747 112.158 68.5779 112.985 68.0416Z" fill="#192940"/>
</mask>
<g mask="url(#mask7_3129_7654)">
<path d="M112.985 68.0416C114.425 67.1077 114.953 65.5717 115.031 64.7685L113.496 65.2356L113.394 63.7277C106.546 59.9073 96.3394 60.231 92.4366 69.9411C96.3636 65.872 105.131 66.9234 110.158 68.2273C111.112 68.4747 112.158 68.5779 112.985 68.0416Z" fill="#192940"/>
<rect width="6.14183" height="22.8255" transform="matrix(-0.999509 0.0313381 0.0313381 0.999509 105.047 56.29)" fill="url(#paint32_linear_3129_7654)"/>
<rect width="4.10391" height="22.8255" transform="matrix(-0.999509 0.0313381 0.0313381 0.999509 96.1824 55.6332)" fill="url(#paint33_linear_3129_7654)"/>
</g>
<path d="M112.178 244.008L116.65 244.177L116.472 248.863L112 248.694L112.178 244.008Z" fill="white"/>
<path d="M113.462 210.06L117.934 210.229L117.74 215.372L113.268 215.203L113.462 210.06Z" fill="white"/>
<path fill-rule="evenodd" clip-rule="evenodd" d="M114.577 241.289C116.156 241.349 117.694 240.781 118.853 239.71C120.011 238.639 120.696 237.153 120.755 235.579L124.725 235.73C124.626 238.353 123.485 240.829 121.554 242.614C119.622 244.398 117.059 245.345 114.427 245.245C111.795 245.146 109.31 244.008 107.52 242.083C105.729 240.157 104.778 237.602 104.878 234.979L108.847 235.129C108.788 236.703 109.358 238.236 110.432 239.391C111.507 240.547 112.998 241.229 114.577 241.289Z" fill="white"/>
<path fill-rule="evenodd" clip-rule="evenodd" d="M114.929 229.12C118.033 229.238 120.644 226.825 120.761 223.731C120.878 220.637 118.457 218.034 115.353 217.917C112.249 217.799 109.638 220.212 109.521 223.306C109.403 226.4 111.825 229.003 114.929 229.12ZM114.767 233.388C120.236 233.595 124.837 229.344 125.043 223.893C125.249 218.442 120.983 213.856 115.514 213.649C110.045 213.442 105.445 217.693 105.239 223.144C105.032 228.595 109.298 233.181 114.767 233.388Z" fill="white"/>
<circle r="2.28077" transform="matrix(1 0 -0.00820296 0.999966 137.701 76.9726)" fill="#192940"/>
<circle r="2.28077" transform="matrix(1 0 -0.00820296 0.999966 104.472 76.9726)" fill="#192940"/>
<circle opacity="0.7" r="0.563035" transform="matrix(-1 0 0 1 136.501 76.4097)" fill="white"/>
<circle opacity="0.7" r="0.563035" transform="matrix(-1 0 0 1 103.273 76.6174)" fill="white"/>
<ellipse opacity="0.9" rx="7.84977" ry="7.01784" transform="matrix(-1 0 0 1 98.9215 93.7315)" fill="url(#paint34_linear_3129_7654)"/>
<ellipse rx="8.54096" ry="7.01784" transform="matrix(-1 0 0 1 145.059 93.7315)" fill="url(#paint35_linear_3129_7654)"/>
<path opacity="0.8" d="M102.931 46.6357C100.142 48.783 99.2266 52.8849 100.823 56.0221C106.826 67.8197 137.69 48.6503 111.517 44.5103C108.094 43.9689 105.07 44.9883 102.931 46.6357Z" fill="url(#paint36_linear_3129_7654)"/>
<path fill-rule="evenodd" clip-rule="evenodd" d="M108.661 160.358C108.617 160.185 108.71 160.006 108.877 159.942C109.069 159.867 109.286 159.973 109.349 160.17C111.962 168.333 114.583 171.749 115.572 172.99C116.303 173.908 115.59 174.803 114.709 173.697C111.669 169.881 109.857 165.146 108.661 160.358Z" fill="#C24353"/>
<ellipse cx="116.133" cy="113.737" rx="2.14906" ry="1.23678" transform="rotate(-180 116.133 113.737)" fill="url(#paint37_linear_3129_7654)"/>
<path d="M118.978 73.3499C118.678 73.2876 118.339 76.3209 117.631 79.7296C116.922 83.1384 116.111 85.6317 116.41 85.694C116.71 85.7563 118.006 83.364 118.715 79.9553C119.424 76.5465 119.277 73.4122 118.978 73.3499Z" fill="url(#paint38_linear_3129_7654)"/>
<defs>
<linearGradient id="paint0_linear_3129_7654" x1="-314.615" y1="70.2344" x2="-174.385" y2="422.827" gradientUnits="userSpaceOnUse">
<stop stop-color="#A10BD2"/>
<stop offset="1" stop-color="#16182B"/>
</linearGradient>
<linearGradient id="paint1_linear_3129_7654" x1="-314.615" y1="70.2344" x2="-174.385" y2="422.827" gradientUnits="userSpaceOnUse">
<stop stop-color="#A10BD2"/>
<stop offset="1" stop-color="#16182B"/>
</linearGradient>
<linearGradient id="paint2_linear_3129_7654" x1="55.6703" y1="-13.7063" x2="-56.2679" y2="158.522" gradientUnits="userSpaceOnUse">
<stop stop-color="#9B55FF"/>
<stop offset="1" stop-color="#8C3CFF" stop-opacity="0.17"/>
</linearGradient>
<linearGradient id="paint3_linear_3129_7654" x1="91.8132" y1="24.6651" x2="292.371" y2="105.407" gradientUnits="userSpaceOnUse">
<stop offset="0.0150604" stop-color="#FFBC7D"/>
<stop offset="1" stop-color="#E2773B"/>
</linearGradient>
<linearGradient id="paint4_linear_3129_7654" x1="93.4673" y1="18.9428" x2="93.2511" y2="37.5346" gradientUnits="userSpaceOnUse">
<stop stop-color="#FFEDD0"/>
<stop offset="1" stop-color="#FFE6BF" stop-opacity="0"/>
</linearGradient>
<linearGradient id="paint5_linear_3129_7654" x1="98.3869" y1="14.4351" x2="94.5675" y2="32.6316" gradientUnits="userSpaceOnUse">
<stop stop-color="#FFEDD0"/>
<stop offset="1" stop-color="#FFE6BF" stop-opacity="0"/>
</linearGradient>
<linearGradient id="paint6_linear_3129_7654" x1="10.5535" y1="1.63442" x2="8.86459" y2="57.0047" gradientUnits="userSpaceOnUse">
<stop stop-color="#FFEDD0"/>
<stop offset="1" stop-color="#FFE6BF" stop-opacity="0"/>
</linearGradient>
<linearGradient id="paint7_linear_3129_7654" x1="112.805" y1="0.0290992" x2="133.168" y2="30.5926" gradientUnits="userSpaceOnUse">
<stop stop-color="#FFEDD0"/>
<stop offset="1" stop-color="#FFE6BF" stop-opacity="0"/>
</linearGradient>
<linearGradient id="paint8_linear_3129_7654" x1="82.611" y1="41.7891" x2="89.3994" y2="131.284" gradientUnits="userSpaceOnUse">
<stop stop-color="#FFEDD0"/>
<stop offset="1" stop-color="#FFE6BF" stop-opacity="0"/>
</linearGradient>
<linearGradient id="paint9_linear_3129_7654" x1="83.6584" y1="25.7657" x2="303.351" y2="137.441" gradientUnits="userSpaceOnUse">
<stop stop-color="#FFCBA9"/>
<stop offset="1" stop-color="#FF998F"/>
</linearGradient>
<linearGradient id="paint10_linear_3129_7654" x1="83.6584" y1="25.7657" x2="303.351" y2="137.441" gradientUnits="userSpaceOnUse">
<stop stop-color="#FFCBA9"/>
<stop offset="1" stop-color="#FF998F"/>
</linearGradient>
<linearGradient id="paint11_linear_3129_7654" x1="160.476" y1="50.4645" x2="156.183" y2="335.993" gradientUnits="userSpaceOnUse">
<stop stop-color="#E0705F"/>
<stop offset="1" stop-color="#D06656" stop-opacity="0"/>
</linearGradient>
<linearGradient id="paint12_linear_3129_7654" x1="178.035" y1="83.4654" x2="179.502" y2="120.634" gradientUnits="userSpaceOnUse">
<stop stop-color="#CD6455"/>
<stop offset="1" stop-color="#CD6455" stop-opacity="0"/>
</linearGradient>
<linearGradient id="paint13_linear_3129_7654" x1="86.1118" y1="84.2275" x2="87.3522" y2="115.647" gradientUnits="userSpaceOnUse">
<stop stop-color="#CD6455"/>
<stop offset="1" stop-color="#CD6455" stop-opacity="0"/>
</linearGradient>
<linearGradient id="paint14_linear_3129_7654" x1="106.05" y1="62.548" x2="107.74" y2="87.2031" gradientUnits="userSpaceOnUse">
<stop stop-color="#F2FBFC"/>
<stop offset="1" stop-color="#F2FBFC" stop-opacity="0"/>
</linearGradient>
<linearGradient id="paint15_linear_3129_7654" x1="91.6625" y1="36.1242" x2="94.1959" y2="245.369" gradientUnits="userSpaceOnUse">
<stop stop-color="#FFF0EA"/>
<stop offset="1" stop-color="#FFF2EC" stop-opacity="0"/>
</linearGradient>
<linearGradient id="paint16_linear_3129_7654" x1="34.0645" y1="81.4439" x2="166.437" y2="156.976" gradientUnits="userSpaceOnUse">
<stop offset="0.0150604" stop-color="#ECAF6A"/>
<stop offset="1" stop-color="#E28C3B"/>
</linearGradient>
<linearGradient id="paint17_linear_3129_7654" x1="71.7019" y1="90.5566" x2="200.947" y2="166.496" gradientUnits="userSpaceOnUse">
<stop offset="0.0150604" stop-color="#FFBC7D"/>
<stop offset="1" stop-color="#E2773B"/>
</linearGradient>
<linearGradient id="paint18_linear_3129_7654" x1="79.2577" y1="107.341" x2="70.4479" y2="142.797" gradientUnits="userSpaceOnUse">
<stop stop-color="#FFC8A0"/>
<stop offset="1" stop-color="#FFD686" stop-opacity="0"/>
</linearGradient>
<linearGradient id="paint19_linear_3129_7654" x1="123.871" y1="100.098" x2="138.124" y2="21.6717" gradientUnits="userSpaceOnUse">
<stop stop-color="#E37E6F"/>
<stop offset="1" stop-color="#E37E6F" stop-opacity="0"/>
</linearGradient>
<linearGradient id="paint20_linear_3129_7654" x1="123.871" y1="100.098" x2="138.124" y2="21.6717" gradientUnits="userSpaceOnUse">
<stop stop-color="#E37E6F"/>
<stop offset="1" stop-color="#E37E6F" stop-opacity="0"/>
</linearGradient>
<linearGradient id="paint21_linear_3129_7654" x1="135.993" y1="62.548" x2="131.741" y2="103.032" gradientUnits="userSpaceOnUse">
<stop stop-color="#F2FBFC"/>
<stop offset="1" stop-color="#F2FBFC" stop-opacity="0"/>
</linearGradient>
<linearGradient id="paint22_linear_3129_7654" x1="-59.3285" y1="144.412" x2="322.575" y2="256.712" gradientUnits="userSpaceOnUse">
<stop stop-color="#9526B8"/>
<stop offset="1" stop-color="#210C42"/>
</linearGradient>
<linearGradient id="paint23_linear_3129_7654" x1="-59.3285" y1="144.412" x2="322.575" y2="256.712" gradientUnits="userSpaceOnUse">
<stop stop-color="#9526B8"/>
<stop offset="1" stop-color="#210C42"/>
</linearGradient>
<linearGradient id="paint24_linear_3129_7654" x1="-59.3285" y1="144.412" x2="322.575" y2="256.712" gradientUnits="userSpaceOnUse">
<stop stop-color="#9526B8"/>
<stop offset="1" stop-color="#210C42"/>
</linearGradient>
<linearGradient id="paint25_linear_3129_7654" x1="-59.3285" y1="144.412" x2="322.575" y2="256.712" gradientUnits="userSpaceOnUse">
<stop stop-color="#9526B8"/>
<stop offset="1" stop-color="#210C42"/>
</linearGradient>
<linearGradient id="paint26_linear_3129_7654" x1="76.4986" y1="150.025" x2="82.3268" y2="185.931" gradientUnits="userSpaceOnUse">
<stop stop-color="#0E112D"/>
<stop offset="1" stop-color="#0E112D" stop-opacity="0"/>
</linearGradient>
<linearGradient id="paint27_linear_3129_7654" x1="96.0163" y1="122.689" x2="121.711" y2="165.327" gradientUnits="userSpaceOnUse">
<stop stop-color="#0E112D"/>
<stop offset="1" stop-color="#0E112D" stop-opacity="0"/>
</linearGradient>
<linearGradient id="paint28_linear_3129_7654" x1="194.617" y1="136.98" x2="223.805" y2="179.861" gradientUnits="userSpaceOnUse">
<stop stop-color="#0E112D"/>
<stop offset="1" stop-color="#0E112D" stop-opacity="0"/>
</linearGradient>
<linearGradient id="paint29_linear_3129_7654" x1="176.238" y1="142.518" x2="205.427" y2="185.4" gradientUnits="userSpaceOnUse">
<stop stop-color="#0E112D"/>
<stop offset="1" stop-color="#0E112D" stop-opacity="0"/>
</linearGradient>
<linearGradient id="paint30_linear_3129_7654" x1="129.913" y1="51.1775" x2="122.606" y2="92.8472" gradientUnits="userSpaceOnUse">
<stop stop-color="#3261A8"/>
<stop offset="1" stop-color="#273F63" stop-opacity="0"/>
</linearGradient>
<linearGradient id="paint31_linear_3129_7654" x1="138.133" y1="50.5207" x2="127.587" y2="90.7042" gradientUnits="userSpaceOnUse">
<stop stop-color="#3261A8"/>
<stop offset="1" stop-color="#273F63" stop-opacity="0"/>
</linearGradient>
<linearGradient id="paint32_linear_3129_7654" x1="1.94387" y1="-3.14693" x2="-5.36326" y2="38.5228" gradientUnits="userSpaceOnUse">
<stop stop-color="#3261A8"/>
<stop offset="1" stop-color="#273F63" stop-opacity="0"/>
</linearGradient>
<linearGradient id="paint33_linear_3129_7654" x1="1.29887" y1="-3.14693" x2="-9.24678" y2="37.0366" gradientUnits="userSpaceOnUse">
<stop stop-color="#3261A8"/>
<stop offset="1" stop-color="#273F63" stop-opacity="0"/>
</linearGradient>
<linearGradient id="paint34_linear_3129_7654" x1="31.3893" y1="5.63726" x2="-20.5137" y2="9.20152" gradientUnits="userSpaceOnUse">
<stop stop-color="#FFE5D9"/>
<stop offset="1" stop-color="#FFDFD0" stop-opacity="0"/>
</linearGradient>
<linearGradient id="paint35_linear_3129_7654" x1="35.6167" y1="7.01784" x2="-9.73295" y2="6.96232" gradientUnits="userSpaceOnUse">
<stop stop-color="#FFE5D9"/>
<stop offset="1" stop-color="#FFDFD0" stop-opacity="0"/>
</linearGradient>
<linearGradient id="paint36_linear_3129_7654" x1="92.7215" y1="53.962" x2="135.374" y2="44.307" gradientUnits="userSpaceOnUse">
<stop stop-color="#FFE5D9"/>
<stop offset="1" stop-color="#FFDFD0" stop-opacity="0"/>
</linearGradient>
<linearGradient id="paint37_linear_3129_7654" x1="120.07" y1="113.737" x2="111.261" y2="113.388" gradientUnits="userSpaceOnUse">
<stop stop-color="#FFE0D5"/>
<stop offset="1" stop-color="#FFE0D5" stop-opacity="0"/>
</linearGradient>
<linearGradient id="paint38_linear_3129_7654" x1="119.796" y1="69.7792" x2="109.712" y2="89.8514" gradientUnits="userSpaceOnUse">
<stop stop-color="#FFE5D9"/>
<stop offset="1" stop-color="#FFDFD0" stop-opacity="0"/>
</linearGradient>
</defs>
</svg>
