<svg viewBox="0 0 1600 984" fill="none" xmlns="http://www.w3.org/2000/svg">
<g opacity="0.2">
<path opacity="0.3" fill-rule="evenodd" clip-rule="evenodd" d="M1165.24 692.894C1141.59 635.8 1129.42 574.607 1129.42 512.809L1129.44 512.809C1129.42 469.604 1120.9 426.824 1104.37 386.907C1087.81 346.941 1063.55 310.627 1032.96 280.039C1002.37 249.45 966.056 225.186 926.09 208.632C886.124 192.077 843.289 183.557 800.031 183.557C756.773 183.557 713.939 192.078 673.974 208.632C634.009 225.186 597.695 249.45 567.106 280.039C536.518 310.627 512.254 346.941 495.699 386.907C479.145 426.872 470.624 469.707 470.624 512.966L329.449 512.966C329.449 451.168 341.621 389.975 365.27 332.881C388.919 275.787 423.582 223.91 467.28 180.213C510.978 136.515 562.855 101.852 619.949 78.2027C677.043 54.5536 738.236 42.3816 800.034 42.3816L800.034 42.3816C861.831 42.382 923.023 54.554 980.116 78.2027C1037.21 101.852 1089.09 136.515 1132.78 180.213C1176.48 223.91 1211.15 275.787 1234.79 332.881C1258.44 389.975 1270.62 451.168 1270.62 512.966L1270.59 512.966C1270.61 556.171 1279.13 598.951 1295.67 638.868C1312.22 678.834 1336.48 715.148 1367.07 745.736C1397.66 776.325 1433.97 800.589 1473.94 817.143C1513.91 833.697 1556.74 842.218 1600 842.218L1600 983.393C1538.2 983.393 1477.01 971.221 1419.92 947.572C1362.82 923.923 1310.94 889.26 1267.25 845.562C1223.55 801.864 1188.89 749.987 1165.24 692.894ZM470.585 512.966C470.585 574.764 458.413 635.957 434.764 693.051C411.114 750.145 376.452 802.022 332.754 845.72C289.056 889.417 237.179 924.081 180.085 947.73C122.991 971.379 61.7982 983.551 8.09305e-05 983.551L8.71015e-05 842.375C43.2588 842.375 86.0938 833.855 126.06 817.301C166.025 800.746 202.339 776.482 232.928 745.894C263.516 715.305 287.78 678.991 304.335 639.026C320.889 599.06 329.409 556.225 329.409 512.966L470.585 512.966Z" fill="url(#paint0_linear_3090_9023)"/>
<mask id="mask0_3090_9023" style="mask-type:alpha" maskUnits="userSpaceOnUse" x="0" y="42" width="1600" height="942">
<path opacity="0.3" fill-rule="evenodd" clip-rule="evenodd" d="M1165.24 692.894C1141.59 635.8 1129.42 574.607 1129.42 512.809L1129.44 512.809C1129.42 469.604 1120.9 426.824 1104.37 386.907C1087.81 346.941 1063.55 310.627 1032.96 280.039C1002.37 249.45 966.056 225.186 926.09 208.632C886.124 192.077 843.289 183.557 800.031 183.557C756.773 183.557 713.939 192.078 673.974 208.632C634.009 225.186 597.695 249.45 567.106 280.039C536.518 310.627 512.254 346.941 495.699 386.907C479.145 426.872 470.624 469.707 470.624 512.966L329.449 512.966C329.449 451.168 341.621 389.975 365.27 332.881C388.919 275.787 423.582 223.91 467.28 180.213C510.978 136.515 562.855 101.852 619.949 78.2027C677.043 54.5536 738.236 42.3816 800.034 42.3816L800.034 42.3816C861.831 42.382 923.023 54.554 980.116 78.2027C1037.21 101.852 1089.09 136.515 1132.78 180.213C1176.48 223.91 1211.15 275.787 1234.79 332.881C1258.44 389.975 1270.62 451.168 1270.62 512.966L1270.59 512.966C1270.61 556.171 1279.13 598.951 1295.67 638.868C1312.22 678.834 1336.48 715.148 1367.07 745.736C1397.66 776.325 1433.97 800.589 1473.94 817.143C1513.91 833.697 1556.74 842.218 1600 842.218L1600 983.393C1538.2 983.393 1477.01 971.221 1419.92 947.572C1362.82 923.923 1310.94 889.26 1267.25 845.562C1223.55 801.864 1188.89 749.987 1165.24 692.894ZM470.585 512.966C470.585 574.764 458.413 635.957 434.764 693.051C411.114 750.145 376.452 802.022 332.754 845.72C289.056 889.417 237.179 924.081 180.085 947.73C122.991 971.379 61.7982 983.551 8.09305e-05 983.551L8.71015e-05 842.375C43.2588 842.375 86.0938 833.855 126.06 817.301C166.025 800.746 202.339 776.482 232.928 745.894C263.516 715.305 287.78 678.991 304.335 639.026C320.889 599.06 329.409 556.225 329.409 512.966L470.585 512.966Z" fill="url(#paint1_linear_3090_9023)"/>
</mask>
<g mask="url(#mask0_3090_9023)">
<g filter="url(#filter0_f_3090_9023)">
<circle cx="1502.61" cy="887.256" r="193.692" transform="rotate(90 1502.61 887.256)" fill="#8C49E1"/>
</g>
<g filter="url(#filter1_f_3090_9023)">
<circle cx="1111.61" cy="338.341" r="193.692" transform="rotate(90 1111.61 338.341)" fill="#2EDDE9"/>
</g>
</g>
<path opacity="0.3" fill-rule="evenodd" clip-rule="evenodd" d="M1165.24 692.894C1141.59 635.8 1129.42 574.607 1129.42 512.809L1129.44 512.809C1129.42 469.604 1120.9 426.824 1104.37 386.907C1087.81 346.941 1063.55 310.627 1032.96 280.039C1002.37 249.45 966.056 225.186 926.09 208.632C886.124 192.077 843.289 183.557 800.031 183.557C756.773 183.557 713.939 192.078 673.974 208.632C634.009 225.186 597.695 249.45 567.106 280.039C536.518 310.627 512.254 346.941 495.699 386.907C479.145 426.872 470.624 469.707 470.624 512.966L329.449 512.966C329.449 451.168 341.621 389.975 365.27 332.881C388.919 275.787 423.582 223.91 467.28 180.213C510.978 136.515 562.855 101.852 619.949 78.2027C677.043 54.5536 738.236 42.3816 800.034 42.3816L800.034 42.3816C861.831 42.382 923.023 54.554 980.116 78.2027C1037.21 101.852 1089.09 136.515 1132.78 180.213C1176.48 223.91 1211.15 275.787 1234.79 332.881C1258.44 389.975 1270.62 451.168 1270.62 512.966L1270.59 512.966C1270.61 556.171 1279.13 598.951 1295.67 638.868C1312.22 678.834 1336.48 715.148 1367.07 745.736C1397.66 776.325 1433.97 800.589 1473.94 817.143C1513.91 833.697 1556.74 842.218 1600 842.218L1600 983.393C1538.2 983.393 1477.01 971.221 1419.92 947.572C1362.82 923.923 1310.94 889.26 1267.25 845.562C1223.55 801.864 1188.89 749.987 1165.24 692.894ZM470.585 512.966C470.585 574.764 458.413 635.957 434.764 693.051C411.114 750.145 376.452 802.022 332.754 845.72C289.056 889.417 237.179 924.081 180.085 947.73C122.991 971.379 61.7982 983.551 8.09305e-05 983.551L8.71015e-05 842.375C43.2588 842.375 86.0938 833.855 126.06 817.301C166.025 800.746 202.339 776.482 232.928 745.894C263.516 715.305 287.78 678.991 304.335 639.026C320.889 599.06 329.409 556.225 329.409 512.966L470.585 512.966Z" fill="url(#paint2_linear_3090_9023)"/>
<mask id="mask1_3090_9023" style="mask-type:alpha" maskUnits="userSpaceOnUse" x="0" y="42" width="1600" height="942">
<path opacity="0.3" fill-rule="evenodd" clip-rule="evenodd" d="M1165.24 692.894C1141.59 635.8 1129.42 574.607 1129.42 512.809L1129.44 512.809C1129.42 469.604 1120.9 426.824 1104.37 386.907C1087.81 346.941 1063.55 310.627 1032.96 280.039C1002.37 249.45 966.056 225.186 926.09 208.632C886.124 192.077 843.289 183.557 800.031 183.557C756.773 183.557 713.939 192.078 673.974 208.632C634.009 225.186 597.695 249.45 567.106 280.039C536.518 310.627 512.254 346.941 495.699 386.907C479.145 426.872 470.624 469.707 470.624 512.966L329.449 512.966C329.449 451.168 341.621 389.975 365.27 332.881C388.919 275.787 423.582 223.91 467.28 180.213C510.978 136.515 562.855 101.852 619.949 78.2027C677.043 54.5536 738.236 42.3816 800.034 42.3816L800.034 42.3816C861.831 42.382 923.023 54.554 980.116 78.2027C1037.21 101.852 1089.09 136.515 1132.78 180.213C1176.48 223.91 1211.15 275.787 1234.79 332.881C1258.44 389.975 1270.62 451.168 1270.62 512.966L1270.59 512.966C1270.61 556.171 1279.13 598.951 1295.67 638.868C1312.22 678.834 1336.48 715.148 1367.07 745.736C1397.66 776.325 1433.97 800.589 1473.94 817.143C1513.91 833.697 1556.74 842.218 1600 842.218L1600 983.393C1538.2 983.393 1477.01 971.221 1419.92 947.572C1362.82 923.923 1310.94 889.26 1267.25 845.562C1223.55 801.864 1188.89 749.987 1165.24 692.894ZM470.585 512.966C470.585 574.764 458.413 635.957 434.764 693.051C411.114 750.145 376.452 802.022 332.754 845.72C289.056 889.417 237.179 924.081 180.085 947.73C122.991 971.379 61.7982 983.551 8.09305e-05 983.551L8.71015e-05 842.375C43.2588 842.375 86.0938 833.855 126.06 817.301C166.025 800.746 202.339 776.482 232.928 745.894C263.516 715.305 287.78 678.991 304.335 639.026C320.889 599.06 329.409 556.225 329.409 512.966L470.585 512.966Z" fill="url(#paint3_linear_3090_9023)"/>
</mask>
<g mask="url(#mask1_3090_9023)">
<g filter="url(#filter2_f_3090_9023)">
<circle cx="321.177" cy="728.915" r="193.692" transform="rotate(90 321.177 728.915)" fill="#49B4E1"/>
</g>
</g>
<path opacity="0.3" fill-rule="evenodd" clip-rule="evenodd" d="M1166.03 334.218C1142.42 391.208 1130.27 452.29 1130.27 513.976L1130.3 513.976C1130.27 557.103 1121.77 599.805 1105.27 639.65C1088.74 679.543 1064.52 715.791 1033.99 746.324C1003.46 776.856 967.209 801.076 927.315 817.601C887.423 834.125 844.667 842.629 801.488 842.63C758.308 842.63 715.551 834.125 675.658 817.601C635.765 801.076 599.517 776.856 568.984 746.324C538.451 715.791 514.231 679.543 497.707 639.65C481.183 599.757 472.678 556.999 472.678 513.82L472.638 513.82C472.638 452.134 460.488 391.052 436.882 334.062C413.276 277.072 378.676 225.289 335.058 181.671C291.439 138.053 239.657 103.453 182.667 79.8465C125.676 56.2404 64.5948 44.0905 2.9091 44.0905L2.90909 185.009C46.089 185.009 88.8461 193.514 128.739 210.038C168.632 226.563 204.88 250.783 235.413 281.316C265.946 311.848 290.166 348.096 306.69 387.989C323.214 427.882 331.719 470.64 331.719 513.82L331.759 513.819C331.759 575.505 343.909 636.587 367.515 693.577C391.121 750.567 425.721 802.35 469.34 845.968C512.958 889.586 564.74 924.186 621.731 947.793C678.72 971.398 739.801 983.548 801.485 983.549L1235.46 693.577C1259.06 636.587 1271.21 575.505 1271.21 513.82L1271.19 513.82C1271.21 470.693 1279.71 427.991 1296.22 388.146C1312.74 348.252 1336.96 312.005 1367.5 281.472C1398.03 250.939 1434.28 226.719 1474.17 210.195C1514.06 193.67 1556.82 185.166 1600 185.166L1600 44.2468C1538.31 44.2468 1477.23 56.3967 1420.24 80.0028C1363.25 103.609 1311.47 138.209 1267.85 181.827C1224.23 225.446 1189.63 277.228 1166.03 334.218Z" fill="url(#paint4_linear_3090_9023)"/>
<path opacity="0.3" fill-rule="evenodd" clip-rule="evenodd" d="M434.767 290.657C458.416 347.751 470.588 408.944 470.588 470.742L470.562 470.742C470.583 513.947 479.102 556.727 495.637 596.644C512.191 636.61 536.455 672.923 567.044 703.512C597.632 734.1 633.946 758.364 673.912 774.919C713.877 791.473 756.712 799.994 799.971 799.994C843.227 799.993 886.06 791.472 926.024 774.919C965.99 758.364 1002.3 734.1 1032.89 703.512C1063.48 672.923 1087.74 636.61 1104.3 596.644C1120.85 556.678 1129.37 513.843 1129.37 470.584L1270.55 470.584C1270.55 532.382 1258.38 593.575 1234.73 650.669C1211.08 707.763 1176.42 759.64 1132.72 803.338C1089.02 847.036 1037.14 881.699 980.049 905.348C922.955 928.997 861.762 941.169 799.964 941.169L799.964 941.169C738.169 941.168 676.978 928.996 619.886 905.348C562.792 881.699 510.915 847.036 467.218 803.338C423.52 759.64 388.857 707.763 365.208 650.669C341.559 593.575 329.387 532.382 329.387 470.584L329.413 470.584C329.392 427.379 320.872 384.6 304.338 344.683C287.784 304.717 263.519 268.403 232.931 237.814C202.343 207.226 166.029 182.962 126.063 166.408C86.0972 149.853 43.2621 141.333 0.00351397 141.333L0.00352014 0.157349C61.8016 0.157351 122.994 12.3294 180.088 35.9785C237.182 59.6276 289.059 94.2906 332.757 137.988C376.455 181.686 411.118 233.563 434.767 290.657ZM1129.42 470.584C1129.42 408.786 1141.59 347.593 1165.24 290.499C1188.89 233.406 1223.55 181.529 1267.25 137.831C1310.94 94.1331 1362.82 59.47 1419.91 35.821C1477.01 12.1719 1538.2 -0.000176904 1600 -0.000174203L1600 141.175C1556.74 141.175 1513.91 149.696 1473.94 166.25C1433.97 182.804 1397.66 207.068 1367.07 237.657C1336.48 268.245 1312.22 304.559 1295.67 344.525C1279.11 384.491 1270.59 427.326 1270.59 470.584L1129.42 470.584Z" fill="url(#paint5_linear_3090_9023)"/>
<path opacity="0.3" fill-rule="evenodd" clip-rule="evenodd" d="M434.767 290.657C458.416 347.751 470.588 408.944 470.588 470.742L470.562 470.742C470.583 513.947 479.102 556.727 495.637 596.644C512.191 636.61 536.455 672.923 567.044 703.512C597.632 734.1 633.946 758.364 673.912 774.919C713.877 791.473 756.712 799.994 799.971 799.994C843.227 799.993 886.06 791.472 926.024 774.919C965.99 758.364 1002.3 734.1 1032.89 703.512C1063.48 672.923 1087.74 636.61 1104.3 596.644C1120.85 556.678 1129.37 513.843 1129.37 470.584L1270.55 470.584C1270.55 532.382 1258.38 593.575 1234.73 650.669C1211.08 707.763 1176.42 759.64 1132.72 803.338C1089.02 847.036 1037.14 881.699 980.049 905.348C922.955 928.997 861.762 941.169 799.964 941.169L799.964 941.169C738.169 941.168 676.978 928.996 619.886 905.348C562.792 881.699 510.915 847.036 467.218 803.338C423.52 759.64 388.857 707.763 365.208 650.669C341.559 593.575 329.387 532.382 329.387 470.584L329.413 470.584C329.392 427.379 320.872 384.6 304.338 344.683C287.784 304.717 263.519 268.403 232.931 237.814C202.343 207.226 166.029 182.962 126.063 166.408C86.0972 149.853 43.2621 141.333 0.00351397 141.333L0.00352014 0.157349C61.8016 0.157351 122.994 12.3294 180.088 35.9785C237.182 59.6276 289.059 94.2906 332.757 137.988C376.455 181.686 411.118 233.563 434.767 290.657ZM1129.42 470.584C1129.42 408.786 1141.59 347.593 1165.24 290.499C1188.89 233.406 1223.55 181.529 1267.25 137.831C1310.94 94.1331 1362.82 59.47 1419.91 35.821C1477.01 12.1719 1538.2 -0.000176904 1600 -0.000174203L1600 141.175C1556.74 141.175 1513.91 149.696 1473.94 166.25C1433.97 182.804 1397.66 207.068 1367.07 237.657C1336.48 268.245 1312.22 304.559 1295.67 344.525C1279.11 384.491 1270.59 427.326 1270.59 470.584L1129.42 470.584Z" fill="url(#paint6_linear_3090_9023)"/>
</g>
<defs>
<filter id="filter0_f_3090_9023" x="1141.21" y="525.858" width="722.795" height="722.795" filterUnits="userSpaceOnUse" color-interpolation-filters="sRGB">
<feFlood flood-opacity="0" result="BackgroundImageFix"/>
<feBlend mode="normal" in="SourceGraphic" in2="BackgroundImageFix" result="shape"/>
<feGaussianBlur stdDeviation="83.8527" result="effect1_foregroundBlur_3090_9023"/>
</filter>
<filter id="filter1_f_3090_9023" x="750.209" y="-23.0568" width="722.795" height="722.795" filterUnits="userSpaceOnUse" color-interpolation-filters="sRGB">
<feFlood flood-opacity="0" result="BackgroundImageFix"/>
<feBlend mode="normal" in="SourceGraphic" in2="BackgroundImageFix" result="shape"/>
<feGaussianBlur stdDeviation="83.8527" result="effect1_foregroundBlur_3090_9023"/>
</filter>
<filter id="filter2_f_3090_9023" x="-40.2203" y="367.518" width="722.795" height="722.795" filterUnits="userSpaceOnUse" color-interpolation-filters="sRGB">
<feFlood flood-opacity="0" result="BackgroundImageFix"/>
<feBlend mode="normal" in="SourceGraphic" in2="BackgroundImageFix" result="shape"/>
<feGaussianBlur stdDeviation="83.8527" result="effect1_foregroundBlur_3090_9023"/>
</filter>
<linearGradient id="paint0_linear_3090_9023" x1="1648.98" y1="914.186" x2="800.002" y2="411.763" gradientUnits="userSpaceOnUse">
<stop stop-color="white"/>
<stop offset="1" stop-color="white" stop-opacity="0"/>
</linearGradient>
<linearGradient id="paint1_linear_3090_9023" x1="1648.98" y1="914.186" x2="800.002" y2="411.763" gradientUnits="userSpaceOnUse">
<stop stop-color="white"/>
<stop offset="1" stop-color="white" stop-opacity="0"/>
</linearGradient>
<linearGradient id="paint2_linear_3090_9023" x1="1.43516e-05" y1="1090.69" x2="717.775" y2="248.842" gradientUnits="userSpaceOnUse">
<stop stop-color="white"/>
<stop offset="1" stop-color="white" stop-opacity="0"/>
</linearGradient>
<linearGradient id="paint3_linear_3090_9023" x1="1.43516e-05" y1="1090.69" x2="717.775" y2="248.842" gradientUnits="userSpaceOnUse">
<stop stop-color="white"/>
<stop offset="1" stop-color="white" stop-opacity="0"/>
</linearGradient>
<linearGradient id="paint4_linear_3090_9023" x1="72.9973" y1="98.1727" x2="364.126" y2="262.575" gradientUnits="userSpaceOnUse">
<stop stop-color="white"/>
<stop offset="1" stop-color="white" stop-opacity="0"/>
</linearGradient>
<linearGradient id="paint5_linear_3090_9023" x1="1431.79" y1="-59.7249" x2="1227.45" y2="312.403" gradientUnits="userSpaceOnUse">
<stop stop-color="white"/>
<stop offset="1" stop-color="white" stop-opacity="0"/>
</linearGradient>
<linearGradient id="paint6_linear_3090_9023" x1="443.205" y1="724.783" x2="1150.85" y2="703.58" gradientUnits="userSpaceOnUse">
<stop stop-color="white" stop-opacity="0"/>
<stop offset="0.489583" stop-color="white"/>
<stop offset="0.96875" stop-color="white" stop-opacity="0"/>
</linearGradient>
</defs>
</svg>
