<svg width="176" height="285" viewBox="0 0 176 285" fill="none" xmlns="http://www.w3.org/2000/svg">
<g clip-path="url(#clip0_3172_7188)">
<mask id="mask0_3172_7188" style="mask-type:alpha" maskUnits="userSpaceOnUse" x="0" y="4" width="235" height="282">
<rect width="234.746" height="280.358" transform="matrix(-1 0 0 1 234.77 4.79053)" fill="url(#paint0_linear_3172_7188)"/>
</mask>
<g mask="url(#mask0_3172_7188)">
<g opacity="0.2">
<path opacity="0.3" fill-rule="evenodd" clip-rule="evenodd" d="M-102.566 200.79C-95.7082 184.233 -92.1783 166.487 -92.1783 148.565L-92.1854 148.565C-92.1795 136.036 -89.7087 123.63 -84.9138 112.054C-80.113 100.464 -73.0765 89.933 -64.2059 81.0623C-55.3352 72.1917 -44.8043 65.1552 -33.2143 60.3544C-21.6243 55.5537 -9.20215 53.0828 3.34279 53.0828C15.8875 53.0829 28.3093 55.5538 39.899 60.3544C51.4891 65.1551 62.02 72.1917 70.8906 81.0623C79.7613 89.9329 86.7978 100.464 91.5986 112.054C96.3993 123.644 98.8702 136.066 98.8702 148.611L98.8818 148.611C98.8818 166.532 102.412 184.278 109.27 200.835C116.128 217.393 126.18 232.437 138.853 245.109C151.525 257.781 166.569 267.834 183.126 274.692C199.683 281.55 217.429 285.08 235.351 285.08L235.351 244.139C222.806 244.139 210.384 241.668 198.794 236.868C187.204 232.067 176.673 225.03 167.802 216.16C158.931 207.289 151.895 196.758 147.094 185.168C142.293 173.578 139.822 161.156 139.822 148.611L139.811 148.611C139.811 130.69 136.281 112.944 129.423 96.3866C122.565 79.8294 112.512 64.7852 99.8401 52.1129C87.1678 39.4406 72.1235 29.3884 55.5664 22.5302C39.0092 15.672 21.2633 12.1421 3.34196 12.1421L3.34196 12.1421C-14.5791 12.1422 -32.3247 15.6721 -48.8816 22.5302C-65.4388 29.3884 -80.483 39.4406 -93.1553 52.1129C-105.828 64.7852 -115.88 79.8294 -122.738 96.3866C-129.596 112.944 -133.126 130.69 -133.126 148.611L-133.119 148.611C-133.125 161.14 -135.596 173.547 -140.391 185.123C-145.191 196.713 -152.228 207.243 -161.099 216.114C-169.969 224.985 -180.5 232.021 -192.09 236.822C-203.68 241.623 -216.102 244.094 -228.647 244.094L-228.647 285.034C-210.726 285.034 -192.98 281.505 -176.423 274.646C-159.866 267.788 -144.821 257.736 -132.149 245.064C-119.477 232.391 -109.425 217.347 -102.566 200.79Z" fill="url(#paint1_linear_3172_7188)"/>
<mask id="mask1_3172_7188" style="mask-type:alpha" maskUnits="userSpaceOnUse" x="-229" y="12" width="465" height="274">
<path opacity="0.3" fill-rule="evenodd" clip-rule="evenodd" d="M-102.566 200.79C-95.7082 184.233 -92.1783 166.487 -92.1783 148.565L-92.1854 148.565C-92.1795 136.036 -89.7087 123.63 -84.9138 112.054C-80.113 100.464 -73.0765 89.933 -64.2059 81.0623C-55.3352 72.1917 -44.8043 65.1552 -33.2143 60.3544C-21.6243 55.5537 -9.20215 53.0828 3.34279 53.0828C15.8875 53.0829 28.3093 55.5538 39.899 60.3544C51.4891 65.1551 62.02 72.1917 70.8906 81.0623C79.7613 89.9329 86.7978 100.464 91.5986 112.054C96.3993 123.644 98.8702 136.066 98.8702 148.611L98.8818 148.611C98.8818 166.532 102.412 184.278 109.27 200.835C116.128 217.393 126.18 232.437 138.853 245.109C151.525 257.781 166.569 267.834 183.126 274.692C199.683 281.55 217.429 285.08 235.351 285.08L235.351 244.139C222.806 244.139 210.384 241.668 198.794 236.868C187.204 232.067 176.673 225.03 167.802 216.16C158.931 207.289 151.895 196.758 147.094 185.168C142.293 173.578 139.822 161.156 139.822 148.611L139.811 148.611C139.811 130.69 136.281 112.944 129.423 96.3866C122.565 79.8294 112.512 64.7852 99.8401 52.1129C87.1678 39.4406 72.1235 29.3884 55.5664 22.5302C39.0092 15.672 21.2633 12.1421 3.34196 12.1421L3.34196 12.1421C-14.5791 12.1422 -32.3247 15.6721 -48.8816 22.5302C-65.4388 29.3884 -80.483 39.4406 -93.1553 52.1129C-105.828 64.7852 -115.88 79.8294 -122.738 96.3866C-129.596 112.944 -133.126 130.69 -133.126 148.611L-133.119 148.611C-133.125 161.14 -135.596 173.547 -140.391 185.123C-145.191 196.713 -152.228 207.243 -161.099 216.114C-169.969 224.985 -180.5 232.021 -192.09 236.822C-203.68 241.623 -216.102 244.094 -228.647 244.094L-228.647 285.034C-210.726 285.034 -192.98 281.505 -176.423 274.646C-159.866 267.788 -144.821 257.736 -132.149 245.064C-119.477 232.391 -109.425 217.347 -102.566 200.79Z" fill="url(#paint2_linear_3172_7188)"/>
</mask>
<g mask="url(#mask1_3172_7188)">
<g filter="url(#filter0_f_3172_7188)">
<circle r="56.1704" transform="matrix(4.37114e-08 1 1 -4.37114e-08 -87.0138 97.9698)" fill="#2EDDE9"/>
</g>
</g>
<path opacity="0.3" fill-rule="evenodd" clip-rule="evenodd" d="M-102.566 200.79C-95.7082 184.233 -92.1783 166.487 -92.1783 148.565L-92.1854 148.565C-92.1795 136.036 -89.7087 123.63 -84.9138 112.054C-80.113 100.464 -73.0765 89.933 -64.2059 81.0623C-55.3352 72.1917 -44.8043 65.1552 -33.2143 60.3544C-21.6243 55.5537 -9.20215 53.0828 3.34279 53.0828C15.8875 53.0829 28.3093 55.5538 39.899 60.3544C51.4891 65.1551 62.02 72.1917 70.8906 81.0623C79.7613 89.9329 86.7978 100.464 91.5986 112.054C96.3993 123.644 98.8702 136.066 98.8702 148.611L98.8818 148.611C98.8818 166.532 102.412 184.278 109.27 200.835C116.128 217.393 126.18 232.437 138.853 245.109C151.525 257.781 166.569 267.834 183.126 274.692C199.683 281.55 217.429 285.08 235.351 285.08L235.351 244.139C222.806 244.139 210.384 241.668 198.794 236.868C187.204 232.067 176.673 225.03 167.802 216.16C158.931 207.289 151.895 196.758 147.094 185.168C142.293 173.578 139.822 161.156 139.822 148.611L139.811 148.611C139.811 130.69 136.281 112.944 129.423 96.3866C122.565 79.8294 112.512 64.7852 99.8401 52.1129C87.1678 39.4406 72.1235 29.3884 55.5664 22.5302C39.0092 15.672 21.2633 12.1421 3.34196 12.1421L3.34196 12.1421C-14.5791 12.1422 -32.3247 15.6721 -48.8816 22.5302C-65.4388 29.3884 -80.483 39.4406 -93.1553 52.1129C-105.828 64.7852 -115.88 79.8294 -122.738 96.3866C-129.596 112.944 -133.126 130.69 -133.126 148.611L-133.119 148.611C-133.125 161.14 -135.596 173.547 -140.391 185.123C-145.191 196.713 -152.228 207.243 -161.099 216.114C-169.969 224.985 -180.5 232.021 -192.09 236.822C-203.68 241.623 -216.102 244.094 -228.647 244.094L-228.647 285.034C-210.726 285.034 -192.98 281.505 -176.423 274.646C-159.866 267.788 -144.821 257.736 -132.149 245.064C-119.477 232.391 -109.425 217.347 -102.566 200.79Z" fill="url(#paint3_linear_3172_7188)"/>
<mask id="mask2_3172_7188" style="mask-type:alpha" maskUnits="userSpaceOnUse" x="-229" y="12" width="465" height="274">
<path opacity="0.3" fill-rule="evenodd" clip-rule="evenodd" d="M-102.566 200.79C-95.7082 184.233 -92.1783 166.487 -92.1783 148.565L-92.1854 148.565C-92.1795 136.036 -89.7087 123.63 -84.9138 112.054C-80.113 100.464 -73.0765 89.933 -64.2059 81.0623C-55.3352 72.1917 -44.8043 65.1552 -33.2143 60.3544C-21.6243 55.5537 -9.20215 53.0828 3.34279 53.0828C15.8875 53.0829 28.3093 55.5538 39.899 60.3544C51.4891 65.1551 62.02 72.1917 70.8906 81.0623C79.7613 89.9329 86.7978 100.464 91.5986 112.054C96.3993 123.644 98.8702 136.066 98.8702 148.611L98.8818 148.611C98.8818 166.532 102.412 184.278 109.27 200.835C116.128 217.393 126.18 232.437 138.853 245.109C151.525 257.781 166.569 267.834 183.126 274.692C199.683 281.55 217.429 285.08 235.351 285.08L235.351 244.139C222.806 244.139 210.384 241.668 198.794 236.868C187.204 232.067 176.673 225.03 167.802 216.16C158.931 207.289 151.895 196.758 147.094 185.168C142.293 173.578 139.822 161.156 139.822 148.611L139.811 148.611C139.811 130.69 136.281 112.944 129.423 96.3866C122.565 79.8294 112.512 64.7852 99.8401 52.1129C87.1678 39.4406 72.1235 29.3884 55.5664 22.5302C39.0092 15.672 21.2633 12.1421 3.34196 12.1421L3.34196 12.1421C-14.5791 12.1422 -32.3247 15.6721 -48.8816 22.5302C-65.4388 29.3884 -80.483 39.4406 -93.1553 52.1129C-105.828 64.7852 -115.88 79.8294 -122.738 96.3866C-129.596 112.944 -133.126 130.69 -133.126 148.611L-133.119 148.611C-133.125 161.14 -135.596 173.547 -140.391 185.123C-145.191 196.713 -152.228 207.243 -161.099 216.114C-169.969 224.985 -180.5 232.021 -192.09 236.822C-203.68 241.623 -216.102 244.094 -228.647 244.094L-228.647 285.034C-210.726 285.034 -192.98 281.505 -176.423 274.646C-159.866 267.788 -144.821 257.736 -132.149 245.064C-119.477 232.391 -109.425 217.347 -102.566 200.79Z" fill="url(#paint4_linear_3172_7188)"/>
</mask>
<g mask="url(#mask2_3172_7188)">
<g filter="url(#filter1_f_3172_7188)">
<circle r="56.1704" transform="matrix(4.37114e-08 1 1 -4.37114e-08 142.21 211.235)" fill="#49B4E1"/>
</g>
</g>
<path opacity="0.3" fill-rule="evenodd" clip-rule="evenodd" d="M-102.566 96.4313C-95.7082 112.988 -92.1783 130.734 -92.1783 148.656L-92.1855 148.656C-92.1796 161.185 -89.7088 173.591 -84.9139 185.167C-80.1131 196.757 -73.0766 207.288 -64.206 216.159C-55.3353 225.029 -44.8044 232.066 -33.2144 236.867C-21.6246 241.667 -9.20278 244.138 3.34189 244.138C15.8868 244.138 28.309 241.667 39.899 236.867C51.489 232.066 62.02 225.029 70.8906 216.159C79.7612 207.288 86.7978 196.757 91.5985 185.167C96.3992 173.577 98.8701 161.155 98.8701 148.61L98.8818 148.61C98.8818 130.689 102.412 112.943 109.27 96.3859C116.128 79.8287 126.18 64.7845 138.853 52.1122C151.525 39.4398 166.569 29.3876 183.126 22.5294C199.683 15.6712 217.429 12.1413 235.351 12.1413L235.351 53.082C222.806 53.082 210.384 55.5529 198.794 60.3537C187.204 65.1544 176.673 72.191 167.802 81.0616C158.931 89.9322 151.895 100.463 147.094 112.053C142.293 123.643 139.822 136.065 139.822 148.61L139.811 148.61C139.811 166.532 136.281 184.277 129.423 200.835C122.565 217.392 112.512 232.436 99.84 245.108C87.1677 257.781 72.1235 267.833 55.5663 274.691C39.0094 281.549 21.2638 285.079 3.34271 285.079L3.34271 285.079C-14.5786 285.079 -32.3245 281.549 -48.8817 274.691C-65.4388 267.833 -80.4831 257.781 -93.1554 245.108C-105.828 232.436 -115.88 217.392 -122.738 200.835C-129.596 184.277 -133.126 166.532 -133.126 148.61L-133.119 148.61C-133.125 136.081 -135.596 123.675 -140.391 112.099C-145.191 100.509 -152.228 89.9777 -161.099 81.107C-169.969 72.2364 -180.5 65.1999 -192.09 60.3991C-203.68 55.5984 -216.102 53.1275 -228.647 53.1275L-228.647 12.1868C-210.726 12.1868 -192.98 15.7167 -176.423 22.5749C-159.866 29.4331 -144.821 39.4853 -132.149 52.1576C-119.477 64.8299 -109.425 79.8741 -102.566 96.4313Z" fill="url(#paint5_linear_3172_7188)"/>
<path opacity="0.3" fill-rule="evenodd" clip-rule="evenodd" d="M109.269 84.1413C102.411 100.699 98.8808 118.444 98.8808 136.366L98.8884 136.366C98.8824 148.895 96.4117 161.301 91.6167 172.877C86.816 184.467 79.7794 194.998 70.9088 203.869C62.0382 212.739 51.5072 219.776 39.9172 224.577C28.3272 229.377 15.9051 231.848 3.36015 231.848C-9.18413 231.848 -21.6055 229.377 -33.1949 224.577C-44.785 219.776 -55.3159 212.739 -64.1865 203.869C-73.0572 194.998 -80.0937 184.467 -84.8945 172.877C-89.6952 161.287 -92.1661 148.865 -92.1661 136.32L-133.107 136.32C-133.107 154.242 -129.577 171.987 -122.719 188.545C-115.861 205.102 -105.808 220.146 -93.136 232.818C-80.4637 245.491 -65.4194 255.543 -48.8623 262.401C-32.3051 269.259 -14.5592 272.789 3.36214 272.789L3.36214 272.789C21.2828 272.789 39.028 269.259 55.5845 262.401C72.1417 255.543 87.1859 245.491 99.8582 232.818C112.531 220.146 122.583 205.102 129.441 188.545C136.299 171.987 139.829 154.241 139.829 136.32L139.821 136.32C139.827 123.791 142.298 111.385 147.093 99.8086C151.894 88.2186 158.93 77.6877 167.801 68.8171C176.672 59.9464 187.203 52.9099 198.793 48.1091C210.383 43.3084 222.805 40.8375 235.35 40.8375L235.35 -0.10321C217.428 -0.10321 199.682 3.42667 183.125 10.2849C166.568 17.1431 151.524 27.1953 138.852 39.8676C126.179 52.5399 116.127 67.5842 109.269 84.1413ZM-92.1782 136.32C-92.1782 118.398 -95.7081 100.653 -102.566 84.0954C-109.424 67.5382 -119.477 52.494 -132.149 39.8217C-144.821 27.1494 -159.866 17.0972 -176.423 10.239C-192.98 3.38076 -210.726 -0.14912 -228.647 -0.149119L-228.647 40.7916C-216.102 40.7916 -203.68 43.2625 -192.09 48.0632C-180.5 52.864 -169.969 59.9005 -161.098 68.7711C-152.228 77.6418 -145.191 88.1727 -140.391 99.7627C-135.59 111.353 -133.119 123.775 -133.119 136.32L-92.1782 136.32Z" fill="url(#paint6_linear_3172_7188)"/>
<path opacity="0.3" fill-rule="evenodd" clip-rule="evenodd" d="M109.269 84.1413C102.411 100.699 98.8808 118.444 98.8808 136.366L98.8884 136.366C98.8824 148.895 96.4117 161.301 91.6167 172.877C86.816 184.467 79.7794 194.998 70.9088 203.869C62.0382 212.739 51.5072 219.776 39.9172 224.577C28.3272 229.377 15.9051 231.848 3.36015 231.848C-9.18413 231.848 -21.6055 229.377 -33.1949 224.577C-44.785 219.776 -55.3159 212.739 -64.1865 203.869C-73.0572 194.998 -80.0937 184.467 -84.8945 172.877C-89.6952 161.287 -92.1661 148.865 -92.1661 136.32L-133.107 136.32C-133.107 154.242 -129.577 171.987 -122.719 188.545C-115.861 205.102 -105.808 220.146 -93.136 232.818C-80.4637 245.491 -65.4194 255.543 -48.8623 262.401C-32.3051 269.259 -14.5592 272.789 3.36214 272.789L3.36214 272.789C21.2828 272.789 39.028 269.259 55.5845 262.401C72.1417 255.543 87.1859 245.491 99.8582 232.818C112.531 220.146 122.583 205.102 129.441 188.545C136.299 171.987 139.829 154.241 139.829 136.32L139.821 136.32C139.827 123.791 142.298 111.385 147.093 99.8086C151.894 88.2186 158.93 77.6877 167.801 68.8171C176.672 59.9464 187.203 52.9099 198.793 48.1091C210.383 43.3084 222.805 40.8375 235.35 40.8375L235.35 -0.10321C217.428 -0.10321 199.682 3.42667 183.125 10.2849C166.568 17.1431 151.524 27.1953 138.852 39.8676C126.179 52.5399 116.127 67.5842 109.269 84.1413ZM-92.1782 136.32C-92.1782 118.398 -95.7081 100.653 -102.566 84.0954C-109.424 67.5382 -119.477 52.494 -132.149 39.8217C-144.821 27.1494 -159.866 17.0972 -176.423 10.239C-192.98 3.38076 -210.726 -0.14912 -228.647 -0.149119L-228.647 40.7916C-216.102 40.7916 -203.68 43.2625 -192.09 48.0632C-180.5 52.864 -169.969 59.9005 -161.098 68.7711C-152.228 77.6418 -145.191 88.1727 -140.391 99.7627C-135.59 111.353 -133.119 123.775 -133.119 136.32L-92.1782 136.32Z" fill="url(#paint7_linear_3172_7188)"/>
</g>
</g>
</g>
<defs>
<filter id="filter0_f_3172_7188" x="-191.819" y="-6.83505" width="209.61" height="209.61" filterUnits="userSpaceOnUse" color-interpolation-filters="sRGB">
<feFlood flood-opacity="0" result="BackgroundImageFix"/>
<feBlend mode="normal" in="SourceGraphic" in2="BackgroundImageFix" result="shape"/>
<feGaussianBlur stdDeviation="24.3172" result="effect1_foregroundBlur_3172_7188"/>
</filter>
<filter id="filter1_f_3172_7188" x="37.4049" y="106.431" width="209.61" height="209.61" filterUnits="userSpaceOnUse" color-interpolation-filters="sRGB">
<feFlood flood-opacity="0" result="BackgroundImageFix"/>
<feBlend mode="normal" in="SourceGraphic" in2="BackgroundImageFix" result="shape"/>
<feGaussianBlur stdDeviation="24.3172" result="effect1_foregroundBlur_3172_7188"/>
</filter>
<linearGradient id="paint0_linear_3172_7188" x1="-1.10367e-06" y1="129.139" x2="234.746" y2="129.139" gradientUnits="userSpaceOnUse">
<stop offset="0.635417" stop-color="#D9D9D9"/>
<stop offset="1" stop-color="#D9D9D9" stop-opacity="0"/>
</linearGradient>
<linearGradient id="paint1_linear_3172_7188" x1="-242.852" y1="264.964" x2="3.35128" y2="119.262" gradientUnits="userSpaceOnUse">
<stop stop-color="white"/>
<stop offset="1" stop-color="white" stop-opacity="0"/>
</linearGradient>
<linearGradient id="paint2_linear_3172_7188" x1="-242.852" y1="264.964" x2="3.35128" y2="119.262" gradientUnits="userSpaceOnUse">
<stop stop-color="white"/>
<stop offset="1" stop-color="white" stop-opacity="0"/>
</linearGradient>
<linearGradient id="paint3_linear_3172_7188" x1="235.351" y1="316.15" x2="27.1967" y2="72.0154" gradientUnits="userSpaceOnUse">
<stop stop-color="white"/>
<stop offset="1" stop-color="white" stop-opacity="0"/>
</linearGradient>
<linearGradient id="paint4_linear_3172_7188" x1="235.351" y1="316.15" x2="27.1967" y2="72.0154" gradientUnits="userSpaceOnUse">
<stop stop-color="white"/>
<stop offset="1" stop-color="white" stop-opacity="0"/>
</linearGradient>
<linearGradient id="paint5_linear_3172_7188" x1="214.988" y1="27.8535" x2="130.407" y2="75.6169" gradientUnits="userSpaceOnUse">
<stop stop-color="white"/>
<stop offset="1" stop-color="white" stop-opacity="0"/>
</linearGradient>
<linearGradient id="paint6_linear_3172_7188" x1="-179.867" y1="-17.4693" x2="-120.608" y2="90.4475" gradientUnits="userSpaceOnUse">
<stop stop-color="white"/>
<stop offset="1" stop-color="white" stop-opacity="0"/>
</linearGradient>
<linearGradient id="paint7_linear_3172_7188" x1="106.822" y1="210.037" x2="-98.3953" y2="203.889" gradientUnits="userSpaceOnUse">
<stop stop-color="white" stop-opacity="0"/>
<stop offset="0.489583" stop-color="white"/>
<stop offset="0.96875" stop-color="white" stop-opacity="0"/>
</linearGradient>
<clipPath id="clip0_3172_7188">
<rect width="176.34" height="285" fill="white" transform="matrix(-1 0 0 1 176.364 0)"/>
</clipPath>
</defs>
</svg>
