<svg width="177" height="285" viewBox="0 0 177 285" fill="none" xmlns="http://www.w3.org/2000/svg">
<g clip-path="url(#clip0_3172_7233)">
<mask id="mask0_3172_7233" style="mask-type:alpha" maskUnits="userSpaceOnUse" x="-59" y="4" width="236" height="282">
<rect x="-58.4059" y="4.79053" width="234.746" height="280.358" fill="url(#paint0_linear_3172_7233)"/>
</mask>
<g mask="url(#mask0_3172_7233)">
<g opacity="0.2">
<path opacity="0.3" fill-rule="evenodd" clip-rule="evenodd" d="M278.93 200.79C272.072 184.233 268.542 166.487 268.542 148.565L268.549 148.565C268.543 136.036 266.072 123.63 261.278 112.054C256.477 100.464 249.44 89.933 240.57 81.0623C231.699 72.1917 221.168 65.1552 209.578 60.3544C197.988 55.5537 185.566 53.0828 173.021 53.0828C160.476 53.0829 148.055 55.5538 136.465 60.3544C124.875 65.1551 114.344 72.1917 105.473 81.0623C96.6025 89.9329 89.5659 100.464 84.7652 112.054C79.9645 123.644 77.4936 136.066 77.4936 148.611L77.482 148.611C77.482 166.532 73.9521 184.278 67.0939 200.835C60.2357 217.393 50.1835 232.437 37.5112 245.109C24.8389 257.781 9.79464 267.834 -6.76255 274.692C-23.3197 281.55 -41.0656 285.08 -58.987 285.08L-58.9869 244.139C-46.442 244.139 -34.0199 241.668 -22.4298 236.868C-10.8399 232.067 -0.308878 225.03 8.56173 216.16C17.4324 207.289 24.4689 196.758 29.2696 185.168C34.0704 173.578 36.5413 161.156 36.5413 148.611L36.5529 148.611C36.5529 130.69 40.0828 112.944 46.9409 96.3866C53.7992 79.8294 63.8514 64.7852 76.5237 52.1129C89.196 39.4406 104.24 29.3884 120.797 22.5302C137.355 15.672 155.1 12.1421 173.022 12.1421L173.022 12.1421C190.943 12.1422 208.688 15.6721 225.245 22.5302C241.803 29.3884 256.847 39.4406 269.519 52.1129C282.191 64.7852 292.244 79.8294 299.102 96.3866C305.96 112.944 309.49 130.69 309.49 148.611L309.483 148.611C309.489 161.14 311.959 173.547 316.754 185.123C321.555 196.713 328.592 207.243 337.462 216.114C346.333 224.985 356.864 232.021 368.454 236.822C380.044 241.623 392.466 244.094 405.011 244.094L405.011 285.034C387.09 285.034 369.344 281.505 352.787 274.646C336.229 267.788 321.185 257.736 308.513 245.064C295.841 232.391 285.788 217.347 278.93 200.79Z" fill="url(#paint1_linear_3172_7233)"/>
<mask id="mask1_3172_7233" style="mask-type:alpha" maskUnits="userSpaceOnUse" x="-59" y="12" width="465" height="274">
<path opacity="0.3" fill-rule="evenodd" clip-rule="evenodd" d="M278.93 200.79C272.072 184.233 268.542 166.487 268.542 148.565L268.549 148.565C268.543 136.036 266.072 123.63 261.278 112.054C256.477 100.464 249.44 89.933 240.57 81.0623C231.699 72.1917 221.168 65.1552 209.578 60.3544C197.988 55.5537 185.566 53.0828 173.021 53.0828C160.476 53.0829 148.055 55.5538 136.465 60.3544C124.875 65.1551 114.344 72.1917 105.473 81.0623C96.6025 89.9329 89.5659 100.464 84.7652 112.054C79.9645 123.644 77.4936 136.066 77.4936 148.611L77.482 148.611C77.482 166.532 73.9521 184.278 67.0939 200.835C60.2357 217.393 50.1835 232.437 37.5112 245.109C24.8389 257.781 9.79464 267.834 -6.76255 274.692C-23.3197 281.55 -41.0656 285.08 -58.987 285.08L-58.9869 244.139C-46.442 244.139 -34.0199 241.668 -22.4298 236.868C-10.8399 232.067 -0.308878 225.03 8.56173 216.16C17.4324 207.289 24.4689 196.758 29.2696 185.168C34.0704 173.578 36.5413 161.156 36.5413 148.611L36.5529 148.611C36.5529 130.69 40.0828 112.944 46.9409 96.3866C53.7992 79.8294 63.8514 64.7852 76.5237 52.1129C89.196 39.4406 104.24 29.3884 120.797 22.5302C137.355 15.672 155.1 12.1421 173.022 12.1421L173.022 12.1421C190.943 12.1422 208.688 15.6721 225.245 22.5302C241.803 29.3884 256.847 39.4406 269.519 52.1129C282.191 64.7852 292.244 79.8294 299.102 96.3866C305.96 112.944 309.49 130.69 309.49 148.611L309.483 148.611C309.489 161.14 311.959 173.547 316.754 185.123C321.555 196.713 328.592 207.243 337.462 216.114C346.333 224.985 356.864 232.021 368.454 236.822C380.044 241.623 392.466 244.094 405.011 244.094L405.011 285.034C387.09 285.034 369.344 281.505 352.787 274.646C336.229 267.788 321.185 257.736 308.513 245.064C295.841 232.391 285.788 217.347 278.93 200.79Z" fill="url(#paint2_linear_3172_7233)"/>
</mask>
<g mask="url(#mask1_3172_7233)">
<g filter="url(#filter0_f_3172_7233)">
<circle cx="263.378" cy="97.9698" r="56.1704" transform="rotate(90 263.378 97.9698)" fill="#2EDDE9"/>
</g>
</g>
<path opacity="0.3" fill-rule="evenodd" clip-rule="evenodd" d="M278.93 200.79C272.072 184.233 268.542 166.487 268.542 148.565L268.549 148.565C268.543 136.036 266.072 123.63 261.278 112.054C256.477 100.464 249.44 89.933 240.57 81.0623C231.699 72.1917 221.168 65.1552 209.578 60.3544C197.988 55.5537 185.566 53.0828 173.021 53.0828C160.476 53.0829 148.055 55.5538 136.465 60.3544C124.875 65.1551 114.344 72.1917 105.473 81.0623C96.6025 89.9329 89.5659 100.464 84.7652 112.054C79.9645 123.644 77.4936 136.066 77.4936 148.611L77.482 148.611C77.482 166.532 73.9521 184.278 67.0939 200.835C60.2357 217.393 50.1835 232.437 37.5112 245.109C24.8389 257.781 9.79464 267.834 -6.76255 274.692C-23.3197 281.55 -41.0656 285.08 -58.987 285.08L-58.9869 244.139C-46.442 244.139 -34.0199 241.668 -22.4298 236.868C-10.8399 232.067 -0.308878 225.03 8.56173 216.16C17.4324 207.289 24.4689 196.758 29.2696 185.168C34.0704 173.578 36.5413 161.156 36.5413 148.611L36.5529 148.611C36.5529 130.69 40.0828 112.944 46.9409 96.3866C53.7992 79.8294 63.8514 64.7852 76.5237 52.1129C89.196 39.4406 104.24 29.3884 120.797 22.5302C137.355 15.672 155.1 12.1421 173.022 12.1421L173.022 12.1421C190.943 12.1422 208.688 15.6721 225.245 22.5302C241.803 29.3884 256.847 39.4406 269.519 52.1129C282.191 64.7852 292.244 79.8294 299.102 96.3866C305.96 112.944 309.49 130.69 309.49 148.611L309.483 148.611C309.489 161.14 311.959 173.547 316.754 185.123C321.555 196.713 328.592 207.243 337.462 216.114C346.333 224.985 356.864 232.021 368.454 236.822C380.044 241.623 392.466 244.094 405.011 244.094L405.011 285.034C387.09 285.034 369.344 281.505 352.787 274.646C336.229 267.788 321.185 257.736 308.513 245.064C295.841 232.391 285.788 217.347 278.93 200.79Z" fill="url(#paint3_linear_3172_7233)"/>
<mask id="mask2_3172_7233" style="mask-type:alpha" maskUnits="userSpaceOnUse" x="-59" y="12" width="465" height="274">
<path opacity="0.3" fill-rule="evenodd" clip-rule="evenodd" d="M278.93 200.79C272.072 184.233 268.542 166.487 268.542 148.565L268.549 148.565C268.543 136.036 266.072 123.63 261.278 112.054C256.477 100.464 249.44 89.933 240.57 81.0623C231.699 72.1917 221.168 65.1552 209.578 60.3544C197.988 55.5537 185.566 53.0828 173.021 53.0828C160.476 53.0829 148.055 55.5538 136.465 60.3544C124.875 65.1551 114.344 72.1917 105.473 81.0623C96.6025 89.9329 89.5659 100.464 84.7652 112.054C79.9645 123.644 77.4936 136.066 77.4936 148.611L77.482 148.611C77.482 166.532 73.9521 184.278 67.0939 200.835C60.2357 217.393 50.1835 232.437 37.5112 245.109C24.8389 257.781 9.79464 267.834 -6.76255 274.692C-23.3197 281.55 -41.0656 285.08 -58.987 285.08L-58.9869 244.139C-46.442 244.139 -34.0199 241.668 -22.4298 236.868C-10.8399 232.067 -0.308878 225.03 8.56173 216.16C17.4324 207.289 24.4689 196.758 29.2696 185.168C34.0704 173.578 36.5413 161.156 36.5413 148.611L36.5529 148.611C36.5529 130.69 40.0828 112.944 46.9409 96.3866C53.7992 79.8294 63.8514 64.7852 76.5237 52.1129C89.196 39.4406 104.24 29.3884 120.797 22.5302C137.355 15.672 155.1 12.1421 173.022 12.1421L173.022 12.1421C190.943 12.1422 208.688 15.6721 225.245 22.5302C241.803 29.3884 256.847 39.4406 269.519 52.1129C282.191 64.7852 292.244 79.8294 299.102 96.3866C305.96 112.944 309.49 130.69 309.49 148.611L309.483 148.611C309.489 161.14 311.959 173.547 316.754 185.123C321.555 196.713 328.592 207.243 337.462 216.114C346.333 224.985 356.864 232.021 368.454 236.822C380.044 241.623 392.466 244.094 405.011 244.094L405.011 285.034C387.09 285.034 369.344 281.505 352.787 274.646C336.229 267.788 321.185 257.736 308.513 245.064C295.841 232.391 285.788 217.347 278.93 200.79Z" fill="url(#paint4_linear_3172_7233)"/>
</mask>
<g mask="url(#mask2_3172_7233)">
<g filter="url(#filter1_f_3172_7233)">
<circle cx="34.154" cy="211.235" r="56.1704" transform="rotate(90 34.154 211.235)" fill="#49B4E1"/>
</g>
</g>
<path opacity="0.3" fill-rule="evenodd" clip-rule="evenodd" d="M278.93 96.4313C272.072 112.988 268.542 130.734 268.542 148.656L268.549 148.656C268.543 161.185 266.073 173.591 261.278 185.167C256.477 196.757 249.44 207.288 240.57 216.159C231.699 225.029 221.168 232.066 209.578 236.867C197.988 241.667 185.567 244.138 173.022 244.138C160.477 244.138 148.055 241.667 136.465 236.867C124.875 232.066 114.344 225.029 105.473 216.159C96.6026 207.288 89.566 196.757 84.7653 185.167C79.9645 173.577 77.4936 161.155 77.4936 148.61L77.482 148.61C77.482 130.689 73.9521 112.943 67.0939 96.3859C60.2357 79.8287 50.1835 64.7845 37.5112 52.1122C24.8389 39.4398 9.79466 29.3876 -6.76253 22.5294C-23.3197 15.6712 -41.0656 12.1413 -58.9869 12.1413L-58.9869 53.082C-46.442 53.082 -34.0199 55.5529 -22.4298 60.3537C-10.8398 65.1544 -0.308859 72.191 8.56175 81.0616C17.4324 89.9322 24.4689 100.463 29.2697 112.053C34.0704 123.643 36.5413 136.065 36.5413 148.61L36.553 148.61C36.553 166.532 40.0828 184.277 46.941 200.835C53.7992 217.392 63.8514 232.436 76.5238 245.108C89.1961 257.781 104.24 267.833 120.797 274.691C137.354 281.549 155.1 285.079 173.021 285.079L173.021 285.079C190.942 285.079 208.688 281.549 225.245 274.691C241.803 267.833 256.847 257.781 269.519 245.108C282.191 232.436 292.244 217.392 299.102 200.835C305.96 184.277 309.49 166.532 309.49 148.61L309.483 148.61C309.489 136.081 311.959 123.675 316.754 112.099C321.555 100.509 328.592 89.9777 337.462 81.107C346.333 72.2364 356.864 65.1999 368.454 60.3991C380.044 55.5984 392.466 53.1275 405.011 53.1275L405.011 12.1868C387.09 12.1868 369.344 15.7167 352.787 22.5749C336.229 29.4331 321.185 39.4853 308.513 52.1576C295.841 64.8299 285.788 79.8741 278.93 96.4313Z" fill="url(#paint5_linear_3172_7233)"/>
<path opacity="0.3" fill-rule="evenodd" clip-rule="evenodd" d="M67.0949 84.1413C73.9531 100.699 77.483 118.444 77.483 136.366L77.4754 136.366C77.4814 148.895 79.9521 161.301 84.747 172.877C89.5478 184.467 96.5843 194.998 105.455 203.869C114.326 212.739 124.857 219.776 136.447 224.577C148.037 229.377 160.459 231.848 173.004 231.848C185.548 231.848 197.969 229.377 209.559 224.577C221.149 219.776 231.68 212.739 240.55 203.869C249.421 194.998 256.457 184.467 261.258 172.877C266.059 161.287 268.53 148.865 268.53 136.32L309.471 136.32C309.471 154.242 305.941 171.987 299.082 188.545C292.224 205.102 282.172 220.146 269.5 232.818C256.827 245.491 241.783 255.543 225.226 262.401C208.669 269.259 190.923 272.789 173.002 272.789L173.002 272.789C155.081 272.789 137.336 269.259 120.779 262.401C104.222 255.543 89.1778 245.491 76.5055 232.818C63.8332 220.146 53.781 205.102 46.9228 188.545C40.0646 171.987 36.5347 154.241 36.5347 136.32L36.5423 136.32C36.5363 123.791 34.0656 111.385 29.2706 99.8086C24.4699 88.2186 17.4333 77.6877 8.56272 68.8171C-0.307898 59.9464 -10.8389 52.9099 -22.4289 48.1091C-34.0189 43.3084 -46.441 40.8375 -58.986 40.8375L-58.9859 -0.10321C-41.0646 -0.10321 -23.3187 3.42667 -6.76155 10.2849C9.79562 17.1431 24.8398 27.1953 37.5121 39.8676C50.1845 52.5399 60.2367 67.5842 67.0949 84.1413ZM268.542 136.32C268.542 118.398 272.072 100.653 278.93 84.0954C285.788 67.5382 295.84 52.494 308.513 39.8217C321.185 27.1494 336.229 17.0972 352.787 10.239C369.344 3.38076 387.09 -0.14912 405.011 -0.149119L405.011 40.7916C392.466 40.7916 380.044 43.2625 368.454 48.0632C356.864 52.864 346.333 59.9005 337.462 68.7711C328.592 77.6418 321.555 88.1727 316.754 99.7627C311.954 111.353 309.483 123.775 309.483 136.32L268.542 136.32Z" fill="url(#paint6_linear_3172_7233)"/>
<path opacity="0.3" fill-rule="evenodd" clip-rule="evenodd" d="M67.0949 84.1413C73.9531 100.699 77.483 118.444 77.483 136.366L77.4754 136.366C77.4814 148.895 79.9521 161.301 84.747 172.877C89.5478 184.467 96.5843 194.998 105.455 203.869C114.326 212.739 124.857 219.776 136.447 224.577C148.037 229.377 160.459 231.848 173.004 231.848C185.548 231.848 197.969 229.377 209.559 224.577C221.149 219.776 231.68 212.739 240.55 203.869C249.421 194.998 256.457 184.467 261.258 172.877C266.059 161.287 268.53 148.865 268.53 136.32L309.471 136.32C309.471 154.242 305.941 171.987 299.082 188.545C292.224 205.102 282.172 220.146 269.5 232.818C256.827 245.491 241.783 255.543 225.226 262.401C208.669 269.259 190.923 272.789 173.002 272.789L173.002 272.789C155.081 272.789 137.336 269.259 120.779 262.401C104.222 255.543 89.1778 245.491 76.5055 232.818C63.8332 220.146 53.781 205.102 46.9228 188.545C40.0646 171.987 36.5347 154.241 36.5347 136.32L36.5423 136.32C36.5363 123.791 34.0656 111.385 29.2706 99.8086C24.4699 88.2186 17.4333 77.6877 8.56272 68.8171C-0.307898 59.9464 -10.8389 52.9099 -22.4289 48.1091C-34.0189 43.3084 -46.441 40.8375 -58.986 40.8375L-58.9859 -0.10321C-41.0646 -0.10321 -23.3187 3.42667 -6.76155 10.2849C9.79562 17.1431 24.8398 27.1953 37.5121 39.8676C50.1845 52.5399 60.2367 67.5842 67.0949 84.1413ZM268.542 136.32C268.542 118.398 272.072 100.653 278.93 84.0954C285.788 67.5382 295.84 52.494 308.513 39.8217C321.185 27.1494 336.229 17.0972 352.787 10.239C369.344 3.38076 387.09 -0.14912 405.011 -0.149119L405.011 40.7916C392.466 40.7916 380.044 43.2625 368.454 48.0632C356.864 52.864 346.333 59.9005 337.462 68.7711C328.592 77.6418 321.555 88.1727 316.754 99.7627C311.954 111.353 309.483 123.775 309.483 136.32L268.542 136.32Z" fill="url(#paint7_linear_3172_7233)"/>
</g>
</g>
</g>
<defs>
<filter id="filter0_f_3172_7233" x="158.573" y="-6.83505" width="209.61" height="209.61" filterUnits="userSpaceOnUse" color-interpolation-filters="sRGB">
<feFlood flood-opacity="0" result="BackgroundImageFix"/>
<feBlend mode="normal" in="SourceGraphic" in2="BackgroundImageFix" result="shape"/>
<feGaussianBlur stdDeviation="24.3172" result="effect1_foregroundBlur_3172_7233"/>
</filter>
<filter id="filter1_f_3172_7233" x="-70.6508" y="106.431" width="209.61" height="209.61" filterUnits="userSpaceOnUse" color-interpolation-filters="sRGB">
<feFlood flood-opacity="0" result="BackgroundImageFix"/>
<feBlend mode="normal" in="SourceGraphic" in2="BackgroundImageFix" result="shape"/>
<feGaussianBlur stdDeviation="24.3172" result="effect1_foregroundBlur_3172_7233"/>
</filter>
<linearGradient id="paint0_linear_3172_7233" x1="-58.4059" y1="133.93" x2="176.34" y2="133.93" gradientUnits="userSpaceOnUse">
<stop offset="0.635417" stop-color="#D9D9D9"/>
<stop offset="1" stop-color="#D9D9D9" stop-opacity="0"/>
</linearGradient>
<linearGradient id="paint1_linear_3172_7233" x1="419.216" y1="264.964" x2="173.012" y2="119.262" gradientUnits="userSpaceOnUse">
<stop stop-color="white"/>
<stop offset="1" stop-color="white" stop-opacity="0"/>
</linearGradient>
<linearGradient id="paint2_linear_3172_7233" x1="419.216" y1="264.964" x2="173.012" y2="119.262" gradientUnits="userSpaceOnUse">
<stop stop-color="white"/>
<stop offset="1" stop-color="white" stop-opacity="0"/>
</linearGradient>
<linearGradient id="paint3_linear_3172_7233" x1="-58.9869" y1="316.15" x2="149.167" y2="72.0154" gradientUnits="userSpaceOnUse">
<stop stop-color="white"/>
<stop offset="1" stop-color="white" stop-opacity="0"/>
</linearGradient>
<linearGradient id="paint4_linear_3172_7233" x1="-58.9869" y1="316.15" x2="149.167" y2="72.0154" gradientUnits="userSpaceOnUse">
<stop stop-color="white"/>
<stop offset="1" stop-color="white" stop-opacity="0"/>
</linearGradient>
<linearGradient id="paint5_linear_3172_7233" x1="-38.6243" y1="27.8535" x2="45.9565" y2="75.6169" gradientUnits="userSpaceOnUse">
<stop stop-color="white"/>
<stop offset="1" stop-color="white" stop-opacity="0"/>
</linearGradient>
<linearGradient id="paint6_linear_3172_7233" x1="356.231" y1="-17.4693" x2="296.972" y2="90.4475" gradientUnits="userSpaceOnUse">
<stop stop-color="white"/>
<stop offset="1" stop-color="white" stop-opacity="0"/>
</linearGradient>
<linearGradient id="paint7_linear_3172_7233" x1="69.542" y1="210.037" x2="274.759" y2="203.889" gradientUnits="userSpaceOnUse">
<stop stop-color="white" stop-opacity="0"/>
<stop offset="0.489583" stop-color="white"/>
<stop offset="0.96875" stop-color="white" stop-opacity="0"/>
</linearGradient>
<clipPath id="clip0_3172_7233">
<rect width="176.34" height="285" fill="white"/>
</clipPath>
</defs>
</svg>
