<svg width="53" height="58" viewBox="0 0 53 58" fill="none" xmlns="http://www.w3.org/2000/svg">
<path d="M34.797 1.59961C31.1028 3.73249 28.8276 7.67377 28.8276 11.9401C28.8276 14.2532 29.6501 16.3821 30.7002 18.3568C31.5831 20.0174 32.0296 23.0993 29.0014 24.8478C26.7487 26.1482 23.937 25.3249 22.5329 23.0773C21.3466 21.1789 19.9146 19.4006 17.9098 18.2428C14.2157 16.11 9.66435 16.11 5.96994 18.2428C2.2758 20.3757 0 24.3173 0 28.5831C0 32.8488 2.2758 36.7901 5.96994 38.9233C9.66435 41.0562 14.2157 41.0562 17.9098 38.9233C19.914 37.7658 21.3461 35.9883 22.5318 34.0915C23.505 32.5332 25.9364 30.5478 29.0014 32.3186C31.2503 33.6179 31.946 36.4656 30.6988 38.8107C29.6493 40.7848 28.8276 42.9134 28.8276 45.2266C28.8276 49.4918 31.1028 53.4336 34.797 55.5662C38.4914 57.6991 43.0427 57.6994 46.7371 55.5662C50.4313 53.4336 52.7068 49.4918 52.7068 45.2266C52.7068 40.9605 50.4313 37.019 46.7371 34.8866C44.716 33.7192 42.4396 33.381 40.1853 33.3025C38.2934 33.2362 35.4712 32.0242 35.4712 28.5831C35.4712 26.0193 37.5498 23.956 40.1859 23.8641C42.4407 23.7851 44.7162 23.4467 46.7371 22.2798C50.4313 20.1469 52.7068 16.2056 52.7068 11.9401C52.7068 7.67377 50.4313 3.73249 46.7371 1.59961C44.89 0.533161 42.8286 -6.10352e-05 40.7672 -6.10352e-05C38.7057 -6.10352e-05 36.6443 0.533161 34.797 1.59961Z" fill="#ACABD5"/>
</svg>
