<svg width="130" height="130" viewBox="0 0 130 130" fill="none" xmlns="http://www.w3.org/2000/svg">
<g opacity="0.6">
<g filter="url(#filter0_ii_2443_5296)">
<circle cx="65" cy="65" r="65" fill="#5778AA"/>
</g>
<g opacity="0.5">
<path d="M42.4463 67.5567L50.046 61.9182L57.4005 66.3309V73.9306L62.3035 79.0788V81.5303L57.4005 86.1881H53.2329L42.4463 67.5567Z" fill="white"/>
<path d="M72.1095 59.7118H57.4005L59.852 66.3309L58.6262 73.4403H70.6386L69.9032 66.3309L72.1095 59.7118Z" fill="white"/>
<path d="M52.7426 45.9834L50.046 57.7506H79.2189L76.2771 45.9834H52.7426Z" fill="white"/>
<path d="M86.8184 67.5564L79.2187 61.918L71.8642 66.3307V73.9304L66.9611 79.0785V81.53L71.8642 86.1879H76.0317L86.8184 67.5564Z" fill="white"/>
<path d="M36.5625 81.285V48.68L65 32.5L93.4375 48.68V81.285L65 97.7101L36.5625 81.285Z" stroke="white" stroke-width="2.45151"/>
</g>
</g>
<defs>
<filter id="filter0_ii_2443_5296" x="-33.3125" y="-5.6875" width="166.562" height="136.5" filterUnits="userSpaceOnUse" color-interpolation-filters="sRGB">
<feFlood flood-opacity="0" result="BackgroundImageFix"/>
<feBlend mode="normal" in="SourceGraphic" in2="BackgroundImageFix" result="shape"/>
<feColorMatrix in="SourceAlpha" type="matrix" values="0 0 0 0 0 0 0 0 0 0 0 0 0 0 0 0 0 0 127 0" result="hardAlpha"/>
<feOffset dx="-33.3125" dy="-5.6875"/>
<feGaussianBlur stdDeviation="20.3125"/>
<feComposite in2="hardAlpha" operator="arithmetic" k2="-1" k3="1"/>
<feColorMatrix type="matrix" values="0 0 0 0 1 0 0 0 0 1 0 0 0 0 1 0 0 0 0.5 0"/>
<feBlend mode="normal" in2="shape" result="effect1_innerShadow_2443_5296"/>
<feColorMatrix in="SourceAlpha" type="matrix" values="0 0 0 0 0 0 0 0 0 0 0 0 0 0 0 0 0 0 127 0" result="hardAlpha"/>
<feOffset dx="3.25" dy="0.8125"/>
<feGaussianBlur stdDeviation="4.0625"/>
<feComposite in2="hardAlpha" operator="arithmetic" k2="-1" k3="1"/>
<feColorMatrix type="matrix" values="0 0 0 0 0.418889 0 0 0 0 0.868067 0 0 0 0 0.966667 0 0 0 1 0"/>
<feBlend mode="normal" in2="effect1_innerShadow_2443_5296" result="effect2_innerShadow_2443_5296"/>
</filter>
</defs>
</svg>
