<svg width="109" height="160" viewBox="0 0 109 160" fill="none" xmlns="http://www.w3.org/2000/svg">
<g filter="url(#filter0_ii_2447_6990)">
<circle cx="29" cy="80" r="80" fill="#5778AA"/>
</g>
<g opacity="0.5">
<path d="M1.24121 83.1465L10.5947 76.2068L19.6464 81.6378V90.9913L25.6809 97.3275V100.345L19.6464 106.077H14.5171L1.24121 83.1465Z" fill="white"/>
<path d="M37.7498 73.4913H19.6464L22.6636 81.6378L21.155 90.3878H35.9395L35.0343 81.6378L37.7498 73.4913Z" fill="white"/>
<path d="M13.9136 56.5947L10.5947 71.0775H46.4998L42.8791 56.5947H13.9136Z" fill="white"/>
<path d="M55.8535 83.1467L46.5001 76.207L37.4483 81.6381V90.9915L31.4139 97.3277V100.345L37.4483 106.078H42.5777L55.8535 83.1467Z" fill="white"/>
<path d="M-6 100.043V59.9138L29 40L64 59.9138V100.043L29 120.259L-6 100.043Z" stroke="white" stroke-width="3.01724"/>
</g>
<defs>
<filter id="filter0_ii_2447_6990" x="-92" y="-7" width="205" height="168" filterUnits="userSpaceOnUse" color-interpolation-filters="sRGB">
<feFlood flood-opacity="0" result="BackgroundImageFix"/>
<feBlend mode="normal" in="SourceGraphic" in2="BackgroundImageFix" result="shape"/>
<feColorMatrix in="SourceAlpha" type="matrix" values="0 0 0 0 0 0 0 0 0 0 0 0 0 0 0 0 0 0 127 0" result="hardAlpha"/>
<feOffset dx="-41" dy="-7"/>
<feGaussianBlur stdDeviation="25"/>
<feComposite in2="hardAlpha" operator="arithmetic" k2="-1" k3="1"/>
<feColorMatrix type="matrix" values="0 0 0 0 1 0 0 0 0 1 0 0 0 0 1 0 0 0 0.5 0"/>
<feBlend mode="normal" in2="shape" result="effect1_innerShadow_2447_6990"/>
<feColorMatrix in="SourceAlpha" type="matrix" values="0 0 0 0 0 0 0 0 0 0 0 0 0 0 0 0 0 0 127 0" result="hardAlpha"/>
<feOffset dx="4" dy="1"/>
<feGaussianBlur stdDeviation="5"/>
<feComposite in2="hardAlpha" operator="arithmetic" k2="-1" k3="1"/>
<feColorMatrix type="matrix" values="0 0 0 0 0.418889 0 0 0 0 0.868067 0 0 0 0 0.966667 0 0 0 1 0"/>
<feBlend mode="normal" in2="effect1_innerShadow_2447_6990" result="effect2_innerShadow_2447_6990"/>
</filter>
</defs>
</svg>
