<svg width="1600" height="900" viewBox="0 0 1600 900" fill="none" xmlns="http://www.w3.org/2000/svg">
<mask id="mask0_1123_1358" style="mask-type:alpha" maskUnits="userSpaceOnUse" x="0" y="0" width="1600" height="900">
<rect width="1600" height="900" fill="#141921"/>
</mask>
<g mask="url(#mask0_1123_1358)">
<g filter="url(#filter0_f_1123_1358)">
<path d="M1421.6 853.734C1783.99 323.832 1415.4 73.8463 1646.67 -157.422C1877.93 -388.69 2252.89 -388.69 2484.16 -157.422C2715.43 73.8464 2715.43 448.806 2484.16 680.074C2252.89 911.342 949.124 1421.85 1421.6 853.734Z" fill="url(#paint0_radial_1123_1358)"/>
</g>
<g filter="url(#filter1_f_1123_1358)">
<path d="M436.516 12.5048C-140.429 294.024 56.4212 693.527 -258.933 780.254C-574.287 866.982 -900.238 681.643 -986.966 366.289C-1073.69 50.935 -888.355 -275.016 -573.001 -361.744C-257.647 -448.472 1128.06 -247.816 436.516 12.5048Z" fill="url(#paint1_radial_1123_1358)"/>
</g>
<path opacity="0.3" fill-rule="evenodd" clip-rule="evenodd" d="M2060.34 217.7C2028.64 259.015 2005.38 306.169 1991.9 356.471L1991.93 356.477C1982.49 391.639 1966.22 424.602 1944.06 453.487C1921.87 482.407 1894.2 506.673 1862.63 524.9C1831.06 543.127 1796.21 554.957 1760.06 559.715C1723.92 564.473 1687.2 562.066 1651.99 552.631C1616.78 543.196 1583.77 526.918 1554.85 504.727C1525.93 482.536 1501.66 454.865 1483.43 423.296C1465.21 391.727 1453.38 356.876 1448.62 320.735C1443.86 284.593 1446.27 247.869 1455.7 212.658L1455.68 212.65C1469.15 162.349 1472.59 109.885 1465.79 58.255C1459 6.62442 1442.1 -43.1617 1416.06 -88.261C1390.02 -133.36 1355.36 -172.889 1314.04 -204.591C1272.73 -236.293 1225.57 -259.547 1175.27 -273.025L1144.48 -158.113C1179.69 -148.678 1212.7 -132.4 1241.62 -110.209C1270.54 -88.0178 1294.81 -60.3475 1313.03 -28.778C1331.26 2.79146 1343.09 37.6418 1347.85 73.7832C1352.6 109.925 1350.2 146.649 1340.76 181.86L1340.79 181.868C1327.31 232.169 1323.87 284.633 1330.67 336.263C1337.47 387.894 1354.37 437.68 1380.41 482.779C1406.45 527.878 1441.11 567.407 1482.43 599.109C1523.74 630.811 1570.9 654.065 1621.2 667.543L1621.2 667.543C1671.5 681.022 1723.96 684.46 1775.59 677.663C1827.22 670.866 1877.01 653.966 1922.11 627.928C1967.21 601.89 2006.74 567.223 2038.44 525.909C2070.14 484.594 2093.39 437.44 2106.87 387.138L2106.85 387.132C2116.29 351.969 2132.56 319.007 2154.72 290.122C2176.91 261.201 2204.58 236.935 2236.15 218.709C2267.72 200.482 2302.57 188.652 2338.71 183.894C2374.85 179.136 2411.58 181.543 2446.79 190.977L2477.58 76.0652C2427.28 62.5869 2374.81 59.1482 2323.18 65.9456C2271.55 72.7429 2221.77 89.643 2176.67 115.681C2131.57 141.719 2092.04 176.385 2060.34 217.7Z" fill="url(#paint2_linear_1123_1358)"/>
<mask id="mask1_1123_1358" style="mask-type:alpha" maskUnits="userSpaceOnUse" x="1144" y="-274" width="1334" height="956">
<path opacity="0.3" fill-rule="evenodd" clip-rule="evenodd" d="M2060.34 217.7C2028.64 259.015 2005.38 306.169 1991.9 356.471L1991.93 356.477C1982.49 391.639 1966.22 424.602 1944.06 453.487C1921.87 482.407 1894.2 506.673 1862.63 524.9C1831.06 543.127 1796.21 554.957 1760.06 559.715C1723.92 564.473 1687.2 562.066 1651.99 552.631C1616.78 543.196 1583.77 526.918 1554.85 504.727C1525.93 482.536 1501.66 454.865 1483.43 423.296C1465.21 391.727 1453.38 356.876 1448.62 320.735C1443.86 284.593 1446.27 247.869 1455.7 212.658L1455.68 212.65C1469.15 162.349 1472.59 109.885 1465.79 58.255C1459 6.62442 1442.1 -43.1617 1416.06 -88.261C1390.02 -133.36 1355.36 -172.889 1314.04 -204.591C1272.73 -236.293 1225.57 -259.547 1175.27 -273.025L1144.48 -158.113C1179.69 -148.678 1212.7 -132.4 1241.62 -110.209C1270.54 -88.0178 1294.81 -60.3475 1313.03 -28.778C1331.26 2.79146 1343.09 37.6418 1347.85 73.7832C1352.6 109.925 1350.2 146.649 1340.76 181.86L1340.79 181.868C1327.31 232.169 1323.87 284.633 1330.67 336.263C1337.47 387.894 1354.37 437.68 1380.41 482.779C1406.45 527.878 1441.11 567.407 1482.43 599.109C1523.74 630.811 1570.9 654.065 1621.2 667.543L1621.2 667.543C1671.5 681.022 1723.96 684.46 1775.59 677.663C1827.22 670.866 1877.01 653.966 1922.11 627.928C1967.21 601.89 2006.74 567.223 2038.44 525.909C2070.14 484.594 2093.39 437.44 2106.87 387.138L2106.85 387.132C2116.29 351.969 2132.56 319.007 2154.72 290.122C2176.91 261.201 2204.58 236.935 2236.15 218.709C2267.72 200.482 2302.57 188.652 2338.71 183.894C2374.85 179.136 2411.58 181.543 2446.79 190.977L2477.58 76.0652C2427.28 62.5869 2374.81 59.1482 2323.18 65.9456C2271.55 72.7429 2221.77 89.643 2176.67 115.681C2131.57 141.719 2092.04 176.385 2060.34 217.7Z" fill="url(#paint3_linear_1123_1358)"/>
</mask>
<g mask="url(#mask1_1123_1358)">
<g filter="url(#filter2_f_1123_1358)">
<circle r="163.221" transform="matrix(0.258819 -0.965926 -0.965926 -0.258819 1381.16 4.28809)" fill="#49B4E1"/>
</g>
</g>
<path opacity="0.3" fill-rule="evenodd" clip-rule="evenodd" d="M914.278 242.232C881.872 255.655 847.139 262.564 812.063 262.564V262.548C787.541 262.56 763.259 267.396 740.603 276.78C717.919 286.176 697.307 299.948 679.946 317.31C662.584 334.672 648.812 355.283 639.416 377.967C630.02 400.652 625.184 424.964 625.184 449.518H545.054C545.054 414.442 551.962 379.709 565.385 347.303C578.808 314.897 598.483 285.452 623.285 260.65C648.088 235.847 677.533 216.173 709.939 202.75C742.345 189.327 777.077 182.418 812.153 182.418V182.434C836.676 182.422 860.957 177.586 883.613 168.202C906.298 158.806 926.909 145.034 944.271 127.672C961.632 110.31 975.405 89.6987 984.801 67.0145C994.197 44.3303 999.033 20.0176 999.033 -4.53564H1079.16C1079.16 30.5404 1072.25 65.2729 1058.83 97.6789C1045.41 130.085 1025.73 159.53 1000.93 184.332C976.129 209.135 946.684 228.809 914.278 242.232ZM709.939 696.285C742.344 709.708 777.077 716.617 812.153 716.617V716.637C836.706 716.637 861.019 721.473 883.703 730.869C906.387 740.265 926.998 754.037 944.36 771.399C961.722 788.76 975.494 809.372 984.89 832.056C994.286 854.74 999.122 879.053 999.122 903.606H1079.25C1079.25 868.53 1072.34 833.798 1058.92 801.392C1045.5 768.986 1025.82 739.541 1001.02 714.738C976.218 689.936 946.773 670.261 914.367 656.838C881.961 643.416 847.229 636.507 812.153 636.507V636.487C787.6 636.487 763.287 631.651 740.603 622.255C717.919 612.859 697.307 599.087 679.946 581.725C662.584 564.363 648.812 543.752 639.416 521.068C630.02 498.384 625.184 474.071 625.184 449.518H545.054C545.054 484.594 551.962 519.326 565.385 551.732C578.808 584.138 598.483 613.583 623.285 638.385C648.088 663.188 677.533 682.862 709.939 696.285Z" fill="url(#paint4_linear_1123_1358)"/>
<mask id="mask2_1123_1358" style="mask-type:alpha" maskUnits="userSpaceOnUse" x="545" y="-5" width="535" height="909">
<path opacity="0.3" fill-rule="evenodd" clip-rule="evenodd" d="M914.278 242.232C881.872 255.655 847.139 262.564 812.063 262.564V262.548C787.541 262.56 763.259 267.396 740.603 276.78C717.919 286.176 697.307 299.948 679.946 317.31C662.584 334.672 648.812 355.283 639.416 377.967C630.02 400.652 625.184 424.964 625.184 449.518H545.054C545.054 414.442 551.962 379.709 565.385 347.303C578.808 314.897 598.483 285.452 623.285 260.65C648.088 235.847 677.533 216.173 709.939 202.75C742.345 189.327 777.077 182.418 812.153 182.418V182.434C836.676 182.422 860.957 177.586 883.613 168.202C906.298 158.806 926.909 145.034 944.271 127.672C961.632 110.31 975.405 89.6987 984.801 67.0145C994.197 44.3303 999.033 20.0176 999.033 -4.53564H1079.16C1079.16 30.5404 1072.25 65.2729 1058.83 97.6789C1045.41 130.085 1025.73 159.53 1000.93 184.332C976.129 209.135 946.684 228.809 914.278 242.232ZM709.939 696.285C742.344 709.708 777.077 716.617 812.153 716.617V716.637C836.706 716.637 861.019 721.473 883.703 730.869C906.387 740.265 926.998 754.037 944.36 771.399C961.722 788.76 975.494 809.372 984.89 832.056C994.286 854.74 999.122 879.053 999.122 903.606H1079.25C1079.25 868.53 1072.34 833.798 1058.92 801.392C1045.5 768.986 1025.82 739.541 1001.02 714.738C976.218 689.936 946.773 670.261 914.367 656.838C881.961 643.416 847.229 636.507 812.153 636.507V636.487C787.6 636.487 763.287 631.651 740.603 622.255C717.919 612.859 697.307 599.087 679.946 581.725C662.584 564.363 648.812 543.752 639.416 521.068C630.02 498.384 625.184 474.071 625.184 449.518H545.054C545.054 484.594 551.962 519.326 565.385 551.732C578.808 584.138 598.483 613.583 623.285 638.385C648.088 663.188 677.533 682.862 709.939 696.285Z" fill="url(#paint5_linear_1123_1358)"/>
</mask>
<g mask="url(#mask2_1123_1358)">
<g filter="url(#filter3_f_1123_1358)">
<circle cx="1024.6" cy="50.7406" r="109.938" fill="#8C49E1"/>
</g>
<g filter="url(#filter4_f_1123_1358)">
<circle cx="713.036" cy="272.672" r="109.938" fill="#2EDDE9"/>
</g>
</g>
<path opacity="0.3" fill-rule="evenodd" clip-rule="evenodd" d="M914.278 242.232C881.872 255.655 847.139 262.564 812.063 262.564V262.548C787.541 262.56 763.259 267.396 740.603 276.78C717.919 286.176 697.307 299.948 679.946 317.31C662.584 334.672 648.812 355.283 639.416 377.967C630.02 400.652 625.184 424.964 625.184 449.518H545.054C545.054 414.442 551.962 379.709 565.385 347.303C578.808 314.897 598.483 285.452 623.285 260.65C648.088 235.847 677.533 216.173 709.939 202.75C742.345 189.327 777.077 182.418 812.153 182.418V182.434C836.676 182.422 860.957 177.586 883.613 168.202C906.298 158.806 926.909 145.034 944.271 127.672C961.632 110.31 975.405 89.6987 984.801 67.0145C994.197 44.3303 999.033 20.0176 999.033 -4.53564H1079.16C1079.16 30.5404 1072.25 65.2729 1058.83 97.6789C1045.41 130.085 1025.73 159.53 1000.93 184.332C976.129 209.135 946.684 228.809 914.278 242.232ZM709.939 696.285C742.344 709.708 777.077 716.617 812.153 716.617V716.637C836.706 716.637 861.019 721.473 883.703 730.869C906.387 740.265 926.998 754.037 944.36 771.399C961.722 788.76 975.494 809.372 984.89 832.056C994.286 854.74 999.122 879.053 999.122 903.606H1079.25C1079.25 868.53 1072.34 833.798 1058.92 801.392C1045.5 768.986 1025.82 739.541 1001.02 714.738C976.218 689.936 946.773 670.261 914.367 656.838C881.961 643.416 847.229 636.507 812.153 636.507V636.487C787.6 636.487 763.287 631.651 740.603 622.255C717.919 612.859 697.307 599.087 679.946 581.725C662.584 564.363 648.812 543.752 639.416 521.068C630.02 498.384 625.184 474.071 625.184 449.518H545.054C545.054 484.594 551.962 519.326 565.385 551.732C578.808 584.138 598.483 613.583 623.285 638.385C648.088 663.188 677.533 682.862 709.939 696.285Z" fill="url(#paint6_linear_1123_1358)"/>
<mask id="mask3_1123_1358" style="mask-type:alpha" maskUnits="userSpaceOnUse" x="545" y="-5" width="535" height="909">
<path opacity="0.3" fill-rule="evenodd" clip-rule="evenodd" d="M914.278 242.232C881.872 255.655 847.139 262.564 812.063 262.564V262.548C787.541 262.56 763.259 267.396 740.603 276.78C717.919 286.176 697.307 299.948 679.946 317.31C662.584 334.672 648.812 355.283 639.416 377.967C630.02 400.652 625.184 424.964 625.184 449.518H545.054C545.054 414.442 551.962 379.709 565.385 347.303C578.808 314.897 598.483 285.452 623.285 260.65C648.088 235.847 677.533 216.173 709.939 202.75C742.345 189.327 777.077 182.418 812.153 182.418V182.434C836.676 182.422 860.957 177.586 883.613 168.202C906.298 158.806 926.909 145.034 944.271 127.672C961.632 110.31 975.405 89.6987 984.801 67.0145C994.197 44.3303 999.033 20.0176 999.033 -4.53564H1079.16C1079.16 30.5404 1072.25 65.2729 1058.83 97.6789C1045.41 130.085 1025.73 159.53 1000.93 184.332C976.129 209.135 946.684 228.809 914.278 242.232ZM709.939 696.285C742.344 709.708 777.077 716.617 812.153 716.617V716.637C836.706 716.637 861.019 721.473 883.703 730.869C906.387 740.265 926.998 754.037 944.36 771.399C961.722 788.76 975.494 809.372 984.89 832.056C994.286 854.74 999.122 879.053 999.122 903.606H1079.25C1079.25 868.53 1072.34 833.798 1058.92 801.392C1045.5 768.986 1025.82 739.541 1001.02 714.738C976.218 689.936 946.773 670.261 914.367 656.838C881.961 643.416 847.229 636.507 812.153 636.507V636.487C787.6 636.487 763.287 631.651 740.603 622.255C717.919 612.859 697.307 599.087 679.946 581.725C662.584 564.363 648.812 543.752 639.416 521.068C630.02 498.384 625.184 474.071 625.184 449.518H545.054C545.054 484.594 551.962 519.326 565.385 551.732C578.808 584.138 598.483 613.583 623.285 638.385C648.088 663.188 677.533 682.862 709.939 696.285Z" fill="url(#paint7_linear_1123_1358)"/>
</mask>
<g mask="url(#mask3_1123_1358)">
<g filter="url(#filter5_f_1123_1358)">
<circle cx="934.724" cy="721.31" r="109.938" fill="#49B4E1"/>
</g>
</g>
<path opacity="0.3" fill-rule="evenodd" clip-rule="evenodd" d="M556.547 152.37C504.916 145.573 455.13 128.673 410.031 102.635L410.042 102.614C378.504 84.4254 343.694 72.6184 307.597 67.8662C271.456 63.1081 234.731 65.5151 199.52 74.9499C164.309 84.3847 131.301 100.662 102.381 122.854C73.4602 145.045 49.1939 172.715 30.9673 204.285C12.741 235.854 0.910891 270.705 -3.8472 306.846C-8.60534 342.987 -6.19827 379.712 3.23655 414.923C12.6713 450.134 28.9491 483.142 51.1404 512.063C73.3318 540.983 101.002 565.249 132.572 583.476L132.557 583.501C177.656 609.539 217.184 644.205 248.886 685.52C280.588 726.834 303.842 773.989 317.32 824.29C330.798 874.592 334.237 927.056 327.44 978.686C320.643 1030.32 303.742 1080.1 277.704 1125.2L174.677 1065.72C192.904 1034.15 204.734 999.299 209.492 963.158C214.25 927.017 211.843 890.292 202.408 855.081C192.973 819.87 176.695 786.862 154.504 757.941C132.313 729.021 104.642 704.755 73.073 686.528L73.0876 686.503C27.9887 660.465 -11.5399 625.799 -43.2416 584.485C-74.9435 543.17 -98.1974 496.016 -111.676 445.714C-125.154 395.412 -128.593 342.948 -121.795 291.318C-114.998 239.687 -98.0979 189.901 -72.0599 144.802L-72.0602 144.802C-46.0221 99.7027 -11.3561 60.1737 29.9586 28.4718C71.2734 -3.2301 118.428 -26.4841 168.729 -39.9623C219.031 -53.4406 271.495 -56.8793 323.125 -50.082C374.756 -43.2847 424.542 -26.3845 469.641 -0.346489L469.63 -0.326033C501.168 17.8626 535.978 29.6696 572.075 34.4219C608.216 39.18 644.941 36.7729 680.152 27.3382C715.363 17.9033 748.371 1.62557 777.291 -20.5658C806.212 -42.7571 830.478 -70.4274 848.705 -101.997L951.732 -42.5139C925.694 2.58533 891.028 42.1144 849.713 73.8162C808.399 105.518 761.244 128.772 710.943 142.25C660.641 155.729 608.177 159.167 556.547 152.37Z" fill="url(#paint8_linear_1123_1358)"/>
<mask id="mask4_1123_1358" style="mask-type:alpha" maskUnits="userSpaceOnUse" x="-126" y="-102" width="1078" height="1228">
<path opacity="0.3" fill-rule="evenodd" clip-rule="evenodd" d="M556.547 152.37C504.916 145.573 455.13 128.673 410.031 102.635L410.042 102.614C378.504 84.4254 343.694 72.6184 307.597 67.8662C271.456 63.1081 234.731 65.5151 199.52 74.9499C164.309 84.3847 131.301 100.662 102.381 122.854C73.4602 145.045 49.1939 172.715 30.9673 204.285C12.741 235.854 0.910891 270.705 -3.8472 306.846C-8.60534 342.987 -6.19827 379.712 3.23655 414.923C12.6713 450.134 28.9491 483.142 51.1404 512.063C73.3318 540.983 101.002 565.249 132.572 583.476L132.557 583.501C177.656 609.539 217.184 644.205 248.886 685.52C280.588 726.834 303.842 773.989 317.32 824.29C330.798 874.592 334.237 927.056 327.44 978.686C320.643 1030.32 303.742 1080.1 277.704 1125.2L174.677 1065.72C192.904 1034.15 204.734 999.299 209.492 963.158C214.25 927.017 211.843 890.292 202.408 855.081C192.973 819.87 176.695 786.862 154.504 757.941C132.313 729.021 104.642 704.755 73.073 686.528L73.0876 686.503C27.9887 660.465 -11.5399 625.799 -43.2416 584.485C-74.9435 543.17 -98.1974 496.016 -111.676 445.714C-125.154 395.412 -128.593 342.948 -121.795 291.318C-114.998 239.687 -98.0979 189.901 -72.0599 144.802L-72.0602 144.802C-46.0221 99.7027 -11.3561 60.1737 29.9586 28.4718C71.2734 -3.2301 118.428 -26.4841 168.729 -39.9623C219.031 -53.4406 271.495 -56.8793 323.125 -50.082C374.756 -43.2847 424.542 -26.3845 469.641 -0.346489L469.63 -0.326033C501.168 17.8626 535.978 29.6696 572.075 34.4219C608.216 39.18 644.941 36.7729 680.152 27.3382C715.363 17.9033 748.371 1.62557 777.291 -20.5658C806.212 -42.7571 830.478 -70.4274 848.705 -101.997L951.732 -42.5139C925.694 2.58533 891.028 42.1144 849.713 73.8162C808.399 105.518 761.244 128.772 710.943 142.25C660.641 155.729 608.177 159.167 556.547 152.37Z" fill="url(#paint9_linear_1123_1358)"/>
</mask>
<g mask="url(#mask4_1123_1358)">
<g filter="url(#filter6_f_1123_1358)">
<circle cx="227.201" cy="783.525" r="163.221" transform="rotate(30 227.201 783.525)" fill="#49B4E1"/>
</g>
</g>
<path opacity="0.3" fill-rule="evenodd" clip-rule="evenodd" d="M710.029 242.232C742.435 255.655 777.167 262.563 812.243 262.563V262.547C836.766 262.559 861.047 267.395 883.704 276.78C906.388 286.176 926.999 299.948 944.361 317.31C961.723 334.671 975.495 355.283 984.891 377.967C994.287 400.651 999.123 424.964 999.123 449.517H1079.25C1079.25 414.441 1072.34 379.708 1058.92 347.303C1045.5 314.897 1025.82 285.452 1001.02 260.649C976.219 235.847 946.774 216.172 914.368 202.749C881.962 189.326 847.229 182.418 812.154 182.418V182.433C787.631 182.422 763.35 177.586 740.693 168.201C718.009 158.805 697.398 145.033 680.036 127.671C662.674 110.31 648.902 89.6982 639.506 67.014C630.11 44.3298 625.274 20.0171 625.274 -4.53613H545.144C545.144 30.5399 552.053 65.2724 565.476 97.6784C578.899 130.084 598.573 159.529 623.376 184.332C648.178 209.134 677.623 228.809 710.029 242.232ZM914.368 696.285C881.962 709.708 847.23 716.617 812.154 716.617V716.636C787.601 716.636 763.288 721.472 740.604 730.868C717.92 740.265 697.308 754.037 679.946 771.398C662.585 788.76 648.813 809.371 639.417 832.056C630.02 854.74 625.184 879.053 625.184 903.606H545.055C545.055 868.53 551.963 833.797 565.386 801.391C578.809 768.985 598.484 739.54 623.286 714.738C648.089 689.935 677.533 670.261 709.939 656.838C742.345 643.415 777.078 636.506 812.154 636.506V636.487C836.707 636.487 861.019 631.651 883.704 622.255C906.388 612.858 926.999 599.086 944.361 581.725C961.723 564.363 975.495 543.751 984.891 521.067C994.287 498.383 999.123 474.07 999.123 449.517H1079.25C1079.25 484.593 1072.34 519.326 1058.92 551.732C1045.5 584.138 1025.82 613.582 1001.02 638.385C976.219 663.187 946.774 682.862 914.368 696.285Z" fill="url(#paint10_linear_1123_1358)"/>
<path opacity="0.3" fill-rule="evenodd" clip-rule="evenodd" d="M685.974 656.838C718.38 643.415 753.113 636.507 788.189 636.507V636.522C812.711 636.51 836.992 631.674 859.649 622.29C882.333 612.894 902.945 599.122 920.306 581.76C937.668 564.398 951.44 543.787 960.836 521.103C970.232 498.418 975.068 474.106 975.068 449.552C975.068 424.999 970.232 400.687 960.836 378.002C951.44 355.318 937.668 334.707 920.306 317.345C902.945 299.983 882.333 286.211 859.649 276.815C836.965 267.419 812.652 262.583 788.099 262.583L788.099 262.563C753.023 262.563 718.291 255.655 685.885 242.232C653.479 228.809 624.034 209.134 599.231 184.332C574.429 159.529 554.755 130.084 541.331 97.6785C527.909 65.2725 521 30.5399 521 -4.53607H601.13C601.13 20.0171 605.966 44.3299 615.362 67.0141C624.758 89.6983 638.53 110.31 655.892 127.671C673.253 145.033 693.865 158.805 716.549 168.201C739.233 177.597 763.546 182.434 788.099 182.434L788.099 182.453C823.175 182.453 857.907 189.362 890.313 202.785C922.719 216.208 952.164 235.882 976.967 260.685C1001.77 285.487 1021.44 314.932 1034.87 347.338C1048.29 379.744 1055.2 414.477 1055.2 449.552C1055.2 484.628 1048.29 519.361 1034.87 551.767C1021.44 584.173 1001.77 613.618 976.967 638.42C952.164 663.223 922.719 682.897 890.313 696.32C857.907 709.743 823.175 716.652 788.099 716.652V716.636C763.576 716.648 739.295 721.484 716.638 730.869C693.954 740.265 673.343 754.037 655.981 771.398C638.619 788.76 624.847 809.372 615.451 832.056C606.055 854.74 601.219 879.053 601.219 903.606H521.089C521.089 868.53 527.998 833.797 541.421 801.391C554.844 768.985 574.518 739.541 599.321 714.738C624.123 689.936 653.568 670.261 685.974 656.838Z" fill="url(#paint11_linear_1123_1358)"/>
<path opacity="0.3" fill-rule="evenodd" clip-rule="evenodd" d="M685.974 656.838C718.38 643.415 753.113 636.507 788.189 636.507V636.522C812.711 636.51 836.992 631.674 859.649 622.29C882.333 612.894 902.945 599.122 920.306 581.76C937.668 564.398 951.44 543.787 960.836 521.103C970.232 498.418 975.068 474.106 975.068 449.552C975.068 424.999 970.232 400.687 960.836 378.002C951.44 355.318 937.668 334.707 920.306 317.345C902.945 299.983 882.333 286.211 859.649 276.815C836.965 267.419 812.652 262.583 788.099 262.583L788.099 262.563C753.023 262.563 718.291 255.655 685.885 242.232C653.479 228.809 624.034 209.134 599.231 184.332C574.429 159.529 554.755 130.084 541.331 97.6785C527.909 65.2725 521 30.5399 521 -4.53607H601.13C601.13 20.0171 605.966 44.3299 615.362 67.0141C624.758 89.6983 638.53 110.31 655.892 127.671C673.253 145.033 693.865 158.805 716.549 168.201C739.233 177.597 763.546 182.434 788.099 182.434L788.099 182.453C823.175 182.453 857.907 189.362 890.313 202.785C922.719 216.208 952.164 235.882 976.967 260.685C1001.77 285.487 1021.44 314.932 1034.87 347.338C1048.29 379.744 1055.2 414.477 1055.2 449.552C1055.2 484.628 1048.29 519.361 1034.87 551.767C1021.44 584.173 1001.77 613.618 976.967 638.42C952.164 663.223 922.719 682.897 890.313 696.32C857.907 709.743 823.175 716.652 788.099 716.652V716.636C763.576 716.648 739.295 721.484 716.638 730.869C693.954 740.265 673.343 754.037 655.981 771.398C638.619 788.76 624.847 809.372 615.451 832.056C606.055 854.74 601.219 879.053 601.219 903.606H521.089C521.089 868.53 527.998 833.797 541.421 801.391C554.844 768.985 574.518 739.541 599.321 714.738C624.123 689.936 653.568 670.261 685.974 656.838Z" fill="url(#paint12_linear_1123_1358)"/>
<path fill-rule="evenodd" clip-rule="evenodd" d="M803.244 447.013C826.373 447.013 845.124 428.325 845.124 405.27C845.124 382.216 826.373 363.527 803.244 363.527C780.114 363.527 761.364 382.216 761.364 405.27C761.364 428.325 780.114 447.013 803.244 447.013ZM803.244 478.818C843.996 478.818 877.033 445.89 877.033 405.27C877.033 364.651 843.996 331.723 803.244 331.723C762.491 331.723 729.455 364.651 729.455 405.27C729.455 445.89 762.491 478.818 803.244 478.818Z" fill="white"/>
<path fill-rule="evenodd" clip-rule="evenodd" d="M804.051 537.68C815.818 537.68 827.104 533.021 835.425 524.727C843.746 516.433 848.42 505.184 848.42 493.456H878C878 513.004 870.209 531.752 856.341 545.575C842.473 559.397 823.663 567.162 804.051 567.162C784.439 567.162 765.63 559.397 751.762 545.575C737.894 531.752 730.103 513.004 730.103 493.456H759.682C759.682 505.184 764.357 516.433 772.677 524.727C780.998 533.021 792.284 537.68 804.051 537.68Z" fill="white"/>
<path d="M786.977 305.599H820.302V343.925H786.977V305.599Z" fill="white"/>
<path d="M786.977 558.552H820.302V593.472H786.977V558.552Z" fill="white"/>
</g>
<defs>
<filter id="filter0_f_1123_1358" x="919.262" y="-730.873" width="2138.35" height="2243.47" filterUnits="userSpaceOnUse" color-interpolation-filters="sRGB">
<feFlood flood-opacity="0" result="BackgroundImageFix"/>
<feBlend mode="normal" in="SourceGraphic" in2="BackgroundImageFix" result="shape"/>
<feGaussianBlur stdDeviation="200" result="effect1_foregroundBlur_1123_1358"/>
</filter>
<filter id="filter1_f_1123_1358" x="-1408.32" y="-782.236" width="2435.76" height="1983.84" filterUnits="userSpaceOnUse" color-interpolation-filters="sRGB">
<feFlood flood-opacity="0" result="BackgroundImageFix"/>
<feBlend mode="normal" in="SourceGraphic" in2="BackgroundImageFix" result="shape"/>
<feGaussianBlur stdDeviation="200" result="effect1_foregroundBlur_1123_1358"/>
</filter>
<filter id="filter2_f_1123_1358" x="1122.71" y="-254.161" width="516.899" height="516.899" filterUnits="userSpaceOnUse" color-interpolation-filters="sRGB">
<feFlood flood-opacity="0" result="BackgroundImageFix"/>
<feBlend mode="normal" in="SourceGraphic" in2="BackgroundImageFix" result="shape"/>
<feGaussianBlur stdDeviation="47.594" result="effect1_foregroundBlur_1123_1358"/>
</filter>
<filter id="filter3_f_1123_1358" x="819.472" y="-154.385" width="410.252" height="410.252" filterUnits="userSpaceOnUse" color-interpolation-filters="sRGB">
<feFlood flood-opacity="0" result="BackgroundImageFix"/>
<feBlend mode="normal" in="SourceGraphic" in2="BackgroundImageFix" result="shape"/>
<feGaussianBlur stdDeviation="47.594" result="effect1_foregroundBlur_1123_1358"/>
</filter>
<filter id="filter4_f_1123_1358" x="507.911" y="67.5463" width="410.252" height="410.252" filterUnits="userSpaceOnUse" color-interpolation-filters="sRGB">
<feFlood flood-opacity="0" result="BackgroundImageFix"/>
<feBlend mode="normal" in="SourceGraphic" in2="BackgroundImageFix" result="shape"/>
<feGaussianBlur stdDeviation="47.594" result="effect1_foregroundBlur_1123_1358"/>
</filter>
<filter id="filter5_f_1123_1358" x="729.598" y="516.184" width="410.252" height="410.252" filterUnits="userSpaceOnUse" color-interpolation-filters="sRGB">
<feFlood flood-opacity="0" result="BackgroundImageFix"/>
<feBlend mode="normal" in="SourceGraphic" in2="BackgroundImageFix" result="shape"/>
<feGaussianBlur stdDeviation="47.594" result="effect1_foregroundBlur_1123_1358"/>
</filter>
<filter id="filter6_f_1123_1358" x="-31.2352" y="525.089" width="516.872" height="516.872" filterUnits="userSpaceOnUse" color-interpolation-filters="sRGB">
<feFlood flood-opacity="0" result="BackgroundImageFix"/>
<feBlend mode="normal" in="SourceGraphic" in2="BackgroundImageFix" result="shape"/>
<feGaussianBlur stdDeviation="47.594" result="effect1_foregroundBlur_1123_1358"/>
</filter>
<radialGradient id="paint0_radial_1123_1358" cx="0" cy="0" r="1" gradientUnits="userSpaceOnUse" gradientTransform="translate(2065.41 261.326) rotate(-135) scale(592.199)">
<stop offset="0.442708" stop-color="#992D81"/>
<stop offset="1" stop-color="#6029DB"/>
</radialGradient>
<radialGradient id="paint1_radial_1123_1358" cx="0" cy="0" r="1" gradientUnits="userSpaceOnUse" gradientTransform="translate(-415.967 209.255) rotate(74.6229) scale(592.199)">
<stop offset="0.442708" stop-color="#992D81"/>
<stop offset="1" stop-color="#6029DB"/>
</radialGradient>
<linearGradient id="paint2_linear_1123_1358" x1="1198.64" y1="-360.233" x2="1781.21" y2="289.101" gradientUnits="userSpaceOnUse">
<stop stop-color="white"/>
<stop offset="1" stop-color="white" stop-opacity="0"/>
</linearGradient>
<linearGradient id="paint3_linear_1123_1358" x1="1198.64" y1="-360.233" x2="1599.27" y2="481.55" gradientUnits="userSpaceOnUse">
<stop stop-color="white"/>
<stop offset="1" stop-color="white" stop-opacity="0"/>
</linearGradient>
<linearGradient id="paint4_linear_1123_1358" x1="1039.88" y1="-32.3384" x2="754.712" y2="449.535" gradientUnits="userSpaceOnUse">
<stop stop-color="white"/>
<stop offset="1" stop-color="white" stop-opacity="0"/>
</linearGradient>
<linearGradient id="paint5_linear_1123_1358" x1="1039.88" y1="-32.3384" x2="754.712" y2="449.535" gradientUnits="userSpaceOnUse">
<stop stop-color="white"/>
<stop offset="1" stop-color="white" stop-opacity="0"/>
</linearGradient>
<linearGradient id="paint6_linear_1123_1358" x1="1140.06" y1="903.606" x2="662.24" y2="496.204" gradientUnits="userSpaceOnUse">
<stop stop-color="white"/>
<stop offset="1" stop-color="white" stop-opacity="0"/>
</linearGradient>
<linearGradient id="paint7_linear_1123_1358" x1="1140.06" y1="903.606" x2="662.24" y2="496.204" gradientUnits="userSpaceOnUse">
<stop stop-color="white"/>
<stop offset="1" stop-color="white" stop-opacity="0"/>
</linearGradient>
<linearGradient id="paint8_linear_1123_1358" x1="355.892" y1="1170.34" x2="308.688" y2="299.252" gradientUnits="userSpaceOnUse">
<stop stop-color="white"/>
<stop offset="1" stop-color="white" stop-opacity="0"/>
</linearGradient>
<linearGradient id="paint9_linear_1123_1358" x1="355.893" y1="1170.34" x2="43.9558" y2="291.82" gradientUnits="userSpaceOnUse">
<stop stop-color="white"/>
<stop offset="1" stop-color="white" stop-opacity="0"/>
</linearGradient>
<linearGradient id="paint10_linear_1123_1358" x1="575.807" y1="863.752" x2="669.29" y2="698.209" gradientUnits="userSpaceOnUse">
<stop stop-color="white"/>
<stop offset="1" stop-color="white" stop-opacity="0"/>
</linearGradient>
<linearGradient id="paint11_linear_1123_1358" x1="487.101" y1="90.9368" x2="698.317" y2="206.919" gradientUnits="userSpaceOnUse">
<stop stop-color="white"/>
<stop offset="1" stop-color="white" stop-opacity="0"/>
</linearGradient>
<linearGradient id="paint12_linear_1123_1358" x1="932.38" y1="652.049" x2="920.345" y2="250.395" gradientUnits="userSpaceOnUse">
<stop stop-color="white" stop-opacity="0"/>
<stop offset="0.489583" stop-color="white"/>
<stop offset="0.96875" stop-color="white" stop-opacity="0"/>
</linearGradient>
</defs>
</svg>
