<svg width="461" height="282" viewBox="0 0 461 282" fill="none" xmlns="http://www.w3.org/2000/svg">
<path opacity="0.3" fill-rule="evenodd" clip-rule="evenodd" d="M304.744 69.2828C284.465 66.6131 264.911 59.9753 247.198 49.7485L247.202 49.7405C234.815 42.5965 221.143 37.959 206.965 36.0925C192.77 34.2237 178.346 35.1691 164.516 38.8747C150.686 42.5804 137.722 48.9737 126.363 57.6897C115.004 66.4056 105.473 77.2735 98.3147 89.6729C91.1559 102.072 86.5095 115.76 84.6406 129.955C82.7718 144.15 83.7172 158.574 87.4229 172.404C91.1285 186.234 97.5219 199.198 106.238 210.557C114.954 221.916 125.822 231.447 138.221 238.605L114.858 279.071C97.1449 268.844 81.6193 255.229 69.168 239.002C56.7166 222.775 47.5833 204.254 42.2895 184.497C36.9957 164.741 35.6451 144.135 38.3149 123.856C40.9846 103.578 47.6224 84.0234 57.8492 66.3101L57.8492 66.3101C68.076 48.5967 81.6916 33.0712 97.9185 20.6198C114.145 8.16842 132.666 -0.964887 152.423 -6.25867C172.179 -11.5525 192.785 -12.903 213.064 -10.2333C233.343 -7.56357 252.897 -0.925798 270.61 9.30101L270.605 9.309C282.993 16.453 296.665 21.0905 310.843 22.957C325.038 24.8259 339.462 23.8804 353.292 20.1748C367.121 16.4692 380.086 10.0758 391.445 1.35987C402.803 -7.3561 412.334 -18.224 419.493 -30.6233L459.959 -7.26057C449.732 10.4528 436.116 25.9783 419.889 38.4297C403.662 50.8811 385.142 60.0144 365.385 65.3082C345.628 70.602 325.023 71.9525 304.744 69.2828ZM138.215 238.615C155.929 248.842 171.454 262.458 183.906 278.685C196.357 294.912 205.49 313.432 210.784 333.189C216.078 352.946 217.429 373.551 214.759 393.83C212.089 414.109 205.451 433.663 195.225 451.376L154.759 428.014C161.918 415.614 166.564 401.926 168.433 387.731C170.302 373.536 169.357 359.112 165.651 345.282C161.945 331.453 155.552 318.488 146.836 307.129C138.12 295.771 127.252 286.24 114.853 279.081L138.215 238.615Z" fill="url(#paint0_linear_2177_3818)"/>
<mask id="mask0_2177_3818" style="mask-type:alpha" maskUnits="userSpaceOnUse" x="36" y="-31" width="424" height="483">
<path opacity="0.3" fill-rule="evenodd" clip-rule="evenodd" d="M304.744 69.2828C284.465 66.6131 264.911 59.9753 247.198 49.7485L247.202 49.7405C234.815 42.5965 221.143 37.959 206.965 36.0925C192.77 34.2237 178.346 35.1691 164.516 38.8747C150.686 42.5804 137.722 48.9737 126.363 57.6897C115.004 66.4056 105.473 77.2735 98.3147 89.6729C91.1559 102.072 86.5095 115.76 84.6406 129.955C82.7718 144.15 83.7172 158.574 87.4229 172.404C91.1285 186.234 97.5219 199.198 106.238 210.557C114.954 221.916 125.822 231.447 138.221 238.605L114.858 279.071C97.1449 268.844 81.6193 255.229 69.168 239.002C56.7166 222.775 47.5833 204.254 42.2895 184.497C36.9957 164.741 35.6451 144.135 38.3149 123.856C40.9846 103.578 47.6224 84.0234 57.8492 66.3101L57.8492 66.3101C68.076 48.5967 81.6916 33.0712 97.9185 20.6198C114.145 8.16842 132.666 -0.964887 152.423 -6.25867C172.179 -11.5525 192.785 -12.903 213.064 -10.2333C233.343 -7.56357 252.897 -0.925798 270.61 9.30101L270.605 9.309C282.993 16.453 296.665 21.0905 310.843 22.957C325.038 24.8259 339.462 23.8804 353.292 20.1748C367.121 16.4692 380.086 10.0758 391.445 1.35987C402.803 -7.3561 412.334 -18.224 419.493 -30.6233L459.959 -7.26057C449.732 10.4528 436.116 25.9783 419.889 38.4297C403.662 50.8811 385.142 60.0144 365.385 65.3082C345.628 70.602 325.023 71.9525 304.744 69.2828ZM138.215 238.615C155.929 248.842 171.454 262.458 183.906 278.685C196.357 294.912 205.49 313.432 210.784 333.189C216.078 352.946 217.429 373.551 214.759 393.83C212.089 414.109 205.451 433.663 195.225 451.376L154.759 428.014C161.918 415.614 166.564 401.926 168.433 387.731C170.302 373.536 169.357 359.112 165.651 345.282C161.945 331.453 155.552 318.488 146.836 307.129C138.12 295.771 127.252 286.24 114.853 279.081L138.215 238.615Z" fill="url(#paint1_linear_2177_3818)"/>
</mask>
<g mask="url(#mask0_2177_3818)">
<g filter="url(#filter0_f_2177_3818)">
<circle cx="416.285" cy="4.74422" r="64.1072" transform="rotate(30 416.285 4.74422)" fill="#8C49E1"/>
</g>
<g filter="url(#filter1_f_2177_3818)">
<circle cx="194.242" cy="25.9809" r="64.1072" transform="rotate(30 194.242 25.9809)" fill="#2EDDE9"/>
</g>
</g>
<path opacity="0.3" fill-rule="evenodd" clip-rule="evenodd" d="M304.744 69.2828C284.465 66.6131 264.911 59.9753 247.198 49.7485L247.202 49.7405C234.815 42.5965 221.143 37.959 206.965 36.0925C192.77 34.2237 178.346 35.1691 164.516 38.8747C150.686 42.5804 137.722 48.9737 126.363 57.6897C115.004 66.4056 105.473 77.2735 98.3147 89.6729C91.1559 102.072 86.5095 115.76 84.6406 129.955C82.7718 144.15 83.7172 158.574 87.4229 172.404C91.1285 186.234 97.5219 199.198 106.238 210.557C114.954 221.916 125.822 231.447 138.221 238.605L114.858 279.071C97.1449 268.844 81.6193 255.229 69.168 239.002C56.7166 222.775 47.5833 204.254 42.2895 184.497C36.9957 164.741 35.6451 144.135 38.3149 123.856C40.9846 103.578 47.6224 84.0234 57.8492 66.3101L57.8492 66.3101C68.076 48.5967 81.6916 33.0712 97.9185 20.6198C114.145 8.16842 132.666 -0.964887 152.423 -6.25867C172.179 -11.5525 192.785 -12.903 213.064 -10.2333C233.343 -7.56357 252.897 -0.925798 270.61 9.30101L270.605 9.309C282.993 16.453 296.665 21.0905 310.843 22.957C325.038 24.8259 339.462 23.8804 353.292 20.1748C367.121 16.4692 380.086 10.0758 391.445 1.35987C402.803 -7.3561 412.334 -18.224 419.493 -30.6233L459.959 -7.26057C449.732 10.4528 436.116 25.9783 419.889 38.4297C403.662 50.8811 385.142 60.0144 365.385 65.3082C345.628 70.602 325.023 71.9525 304.744 69.2828ZM138.215 238.615C155.929 248.842 171.454 262.458 183.906 278.685C196.357 294.912 205.49 313.432 210.784 333.189C216.078 352.946 217.429 373.551 214.759 393.83C212.089 414.109 205.451 433.663 195.225 451.376L154.759 428.014C161.918 415.614 166.564 401.926 168.433 387.731C170.302 373.536 169.357 359.112 165.651 345.282C161.945 331.453 155.552 318.488 146.836 307.129C138.12 295.771 127.252 286.24 114.853 279.081L138.215 238.615Z" fill="url(#paint2_linear_2177_3818)"/>
<mask id="mask1_2177_3818" style="mask-type:alpha" maskUnits="userSpaceOnUse" x="36" y="-31" width="424" height="483">
<path opacity="0.3" fill-rule="evenodd" clip-rule="evenodd" d="M304.744 69.2828C284.465 66.6131 264.911 59.9753 247.198 49.7485L247.202 49.7405C234.815 42.5965 221.143 37.959 206.965 36.0925C192.77 34.2237 178.346 35.1691 164.516 38.8747C150.686 42.5804 137.722 48.9737 126.363 57.6897C115.004 66.4056 105.473 77.2735 98.3147 89.6729C91.1559 102.072 86.5095 115.76 84.6406 129.955C82.7718 144.15 83.7172 158.574 87.4229 172.404C91.1285 186.234 97.5219 199.198 106.238 210.557C114.954 221.916 125.822 231.447 138.221 238.605L114.858 279.071C97.1449 268.844 81.6193 255.229 69.168 239.002C56.7166 222.775 47.5833 204.254 42.2895 184.497C36.9957 164.741 35.6451 144.135 38.3149 123.856C40.9846 103.578 47.6224 84.0234 57.8492 66.3101L57.8492 66.3101C68.076 48.5967 81.6916 33.0712 97.9185 20.6198C114.145 8.16842 132.666 -0.964887 152.423 -6.25867C172.179 -11.5525 192.785 -12.903 213.064 -10.2333C233.343 -7.56357 252.897 -0.925798 270.61 9.30101L270.605 9.309C282.993 16.453 296.665 21.0905 310.843 22.957C325.038 24.8259 339.462 23.8804 353.292 20.1748C367.121 16.4692 380.086 10.0758 391.445 1.35987C402.803 -7.3561 412.334 -18.224 419.493 -30.6233L459.959 -7.26057C449.732 10.4528 436.116 25.9783 419.889 38.4297C403.662 50.8811 385.142 60.0144 365.385 65.3082C345.628 70.602 325.023 71.9525 304.744 69.2828ZM138.215 238.615C155.929 248.842 171.454 262.458 183.906 278.685C196.357 294.912 205.49 313.432 210.784 333.189C216.078 352.946 217.429 373.551 214.759 393.83C212.089 414.109 205.451 433.663 195.225 451.376L154.759 428.014C161.918 415.614 166.564 401.926 168.433 387.731C170.302 373.536 169.357 359.112 165.651 345.282C161.945 331.453 155.552 318.488 146.836 307.129C138.12 295.771 127.252 286.24 114.853 279.081L138.215 238.615Z" fill="url(#paint3_linear_2177_3818)"/>
</mask>
<g mask="url(#mask1_2177_3818)">
<g filter="url(#filter2_f_2177_3818)">
<circle cx="175.388" cy="317.178" r="64.1072" transform="rotate(30 175.388 317.178)" fill="#49B4E1"/>
</g>
</g>
<path opacity="0.3" fill-rule="evenodd" clip-rule="evenodd" d="M201.597 9.73125C214.049 25.9582 229.574 39.5738 247.288 49.8006L247.292 49.7927C259.673 56.9485 270.525 66.4701 279.231 77.8153C287.946 89.1741 294.34 102.139 298.045 115.968C301.751 129.798 302.697 144.222 300.828 158.417C298.959 172.612 294.312 186.3 287.154 198.699C279.995 211.099 270.464 221.967 259.105 230.683C247.746 239.399 234.782 245.792 220.952 249.497C207.123 253.203 192.698 254.149 178.503 252.28C164.308 250.411 150.62 245.764 138.221 238.606L114.858 279.071C132.572 289.298 152.126 295.936 172.404 298.605C192.683 301.275 213.289 299.925 233.046 294.631C252.802 289.337 271.323 280.204 287.55 267.752C303.777 255.301 317.392 239.775 327.619 222.062C337.846 204.349 344.484 184.795 347.153 164.516C349.823 144.237 348.473 123.631 343.179 103.875C337.885 84.1181 328.752 65.5975 316.3 49.3706C303.849 33.1437 288.323 19.5281 270.61 9.30129L270.606 9.30915C258.225 2.15331 247.373 -7.3683 238.667 -18.7134C229.951 -30.0723 223.558 -43.0367 219.852 -56.8663C216.147 -70.696 215.201 -85.1201 217.07 -99.3152C218.939 -113.51 223.585 -127.198 230.744 -139.598L190.279 -162.96C180.052 -145.247 173.414 -125.693 170.744 -105.414C168.075 -85.1354 169.425 -64.5296 174.719 -44.7729C180.013 -25.0162 189.146 -6.49569 201.597 9.73125ZM138.215 238.615C120.502 228.389 100.948 221.751 80.669 219.081C60.3904 216.411 39.7845 217.762 20.0279 223.056C0.27119 228.35 -18.2493 237.483 -34.4763 249.934C-50.7032 262.386 -64.3188 277.911 -74.5456 295.625L-34.0801 318.987C-26.9213 306.588 -17.3904 295.72 -6.0316 287.004C5.32725 278.288 18.2916 271.895 32.1213 268.189C45.951 264.484 60.3751 263.538 74.5701 265.407C88.7652 267.276 102.453 271.922 114.852 279.081L138.215 238.615Z" fill="url(#paint4_linear_2177_3818)"/>
<path opacity="0.3" fill-rule="evenodd" clip-rule="evenodd" d="M68.5662 212.093C88.8448 214.763 108.399 221.401 126.112 231.628L126.108 231.636C138.495 238.78 152.167 243.417 166.345 245.284C180.54 247.153 194.964 246.207 208.794 242.502C222.624 238.796 235.588 232.403 246.947 223.687C258.306 214.971 267.837 204.103 274.995 191.703C282.154 179.304 286.8 165.616 288.669 151.421C290.538 137.226 289.593 122.802 285.887 108.972C282.181 95.1425 275.788 82.1781 267.072 70.8192C258.356 59.4604 247.488 49.9295 235.089 42.7707L235.095 42.761C217.381 32.5342 201.856 18.9186 189.404 2.69168C176.953 -13.5353 167.82 -32.0558 162.526 -51.8125C157.232 -71.5691 155.882 -92.175 158.551 -112.454C161.221 -132.732 167.859 -152.286 178.086 -170L218.551 -146.637C211.392 -134.238 206.746 -120.55 204.877 -106.355C203.008 -92.1597 203.954 -77.7356 207.659 -63.9059C211.365 -50.0762 217.758 -37.1119 226.474 -25.753C235.19 -14.3942 246.058 -4.86326 258.457 2.2955L258.452 2.30522C276.165 12.532 291.691 26.1476 304.142 42.3745C316.593 58.6015 325.727 77.122 331.02 96.8787C336.314 116.635 337.665 137.241 334.995 157.52C332.325 177.798 325.688 197.353 315.461 215.066L315.461 215.066C305.234 232.779 291.618 248.305 275.391 260.756C259.165 273.208 240.644 282.341 220.887 287.635C201.131 292.929 180.525 294.279 160.246 291.61C139.968 288.94 120.413 282.302 102.7 272.075L102.705 272.067C90.3171 264.923 76.6451 260.286 62.4673 258.419C48.2723 256.55 33.8481 257.496 20.0185 261.202C6.18878 264.907 -6.77559 271.3 -18.1345 280.016C-29.4933 288.732 -39.0242 299.6 -46.183 312L-86.6485 288.637C-76.4217 270.924 -62.8061 255.398 -46.5792 242.947C-30.3522 230.495 -11.8317 221.362 7.925 216.068C27.6817 210.774 48.2876 209.424 68.5662 212.093Z" fill="url(#paint5_linear_2177_3818)"/>
<path opacity="0.3" fill-rule="evenodd" clip-rule="evenodd" d="M68.5662 212.093C88.8448 214.763 108.399 221.401 126.112 231.628L126.108 231.636C138.495 238.78 152.167 243.417 166.345 245.284C180.54 247.153 194.964 246.207 208.794 242.502C222.624 238.796 235.588 232.403 246.947 223.687C258.306 214.971 267.837 204.103 274.995 191.703C282.154 179.304 286.8 165.616 288.669 151.421C290.538 137.226 289.593 122.802 285.887 108.972C282.181 95.1425 275.788 82.1781 267.072 70.8192C258.356 59.4604 247.488 49.9295 235.089 42.7707L235.095 42.761C217.381 32.5342 201.856 18.9186 189.404 2.69168C176.953 -13.5353 167.82 -32.0558 162.526 -51.8125C157.232 -71.5691 155.882 -92.175 158.551 -112.454C161.221 -132.732 167.859 -152.286 178.086 -170L218.551 -146.637C211.392 -134.238 206.746 -120.55 204.877 -106.355C203.008 -92.1597 203.954 -77.7356 207.659 -63.9059C211.365 -50.0762 217.758 -37.1119 226.474 -25.753C235.19 -14.3942 246.058 -4.86326 258.457 2.2955L258.452 2.30522C276.165 12.532 291.691 26.1476 304.142 42.3745C316.593 58.6015 325.727 77.122 331.02 96.8787C336.314 116.635 337.665 137.241 334.995 157.52C332.325 177.798 325.688 197.353 315.461 215.066L315.461 215.066C305.234 232.779 291.618 248.305 275.391 260.756C259.165 273.208 240.644 282.341 220.887 287.635C201.131 292.929 180.525 294.279 160.246 291.61C139.968 288.94 120.413 282.302 102.7 272.075L102.705 272.067C90.3171 264.923 76.6451 260.286 62.4673 258.419C48.2723 256.55 33.8481 257.496 20.0185 261.202C6.18878 264.907 -6.77559 271.3 -18.1345 280.016C-29.4933 288.732 -39.0242 299.6 -46.183 312L-86.6485 288.637C-76.4217 270.924 -62.8061 255.398 -46.5792 242.947C-30.3522 230.495 -11.8317 221.362 7.925 216.068C27.6817 210.774 48.2876 209.424 68.5662 212.093Z" fill="url(#paint6_linear_2177_3818)"/>
<path fill-rule="evenodd" clip-rule="evenodd" d="M188.196 140.294C201.439 140.294 212.176 129.593 212.176 116.393C212.176 103.192 201.439 92.491 188.196 92.491C174.952 92.491 164.216 103.192 164.216 116.393C164.216 129.593 174.952 140.294 188.196 140.294ZM188.196 158.505C211.53 158.505 230.446 139.651 230.446 116.393C230.446 93.1346 211.53 74.2803 188.196 74.2803C164.862 74.2803 145.946 93.1346 145.946 116.393C145.946 139.651 164.862 158.505 188.196 158.505Z" fill="white"/>
<path fill-rule="evenodd" clip-rule="evenodd" d="M188.658 192.208C195.396 192.208 201.858 189.54 206.622 184.792C211.387 180.043 214.063 173.602 214.063 166.886H231C231 178.079 226.539 188.814 218.599 196.729C210.658 204.643 199.888 209.089 188.658 209.089C177.428 209.089 166.659 204.643 158.718 196.729C150.777 188.814 146.316 178.079 146.316 166.886H163.253C163.253 173.602 165.93 180.043 170.694 184.792C175.458 189.54 181.92 192.208 188.658 192.208Z" fill="white"/>
<path d="M178.882 59.3221H197.963V81.2669H178.882V59.3221Z" fill="white"/>
<path d="M178.882 204.159H197.963V224.153H178.882V204.159Z" fill="white"/>
<defs>
<filter id="filter0_f_2177_3818" x="296.661" y="-114.88" width="239.249" height="239.248" filterUnits="userSpaceOnUse" color-interpolation-filters="sRGB">
<feFlood flood-opacity="0" result="BackgroundImageFix"/>
<feBlend mode="normal" in="SourceGraphic" in2="BackgroundImageFix" result="shape"/>
<feGaussianBlur stdDeviation="27.7532" result="effect1_foregroundBlur_2177_3818"/>
</filter>
<filter id="filter1_f_2177_3818" x="74.6176" y="-93.6434" width="239.248" height="239.248" filterUnits="userSpaceOnUse" color-interpolation-filters="sRGB">
<feFlood flood-opacity="0" result="BackgroundImageFix"/>
<feBlend mode="normal" in="SourceGraphic" in2="BackgroundImageFix" result="shape"/>
<feGaussianBlur stdDeviation="27.7532" result="effect1_foregroundBlur_2177_3818"/>
</filter>
<filter id="filter2_f_2177_3818" x="55.764" y="197.554" width="239.248" height="239.249" filterUnits="userSpaceOnUse" color-interpolation-filters="sRGB">
<feFlood flood-opacity="0" result="BackgroundImageFix"/>
<feBlend mode="normal" in="SourceGraphic" in2="BackgroundImageFix" result="shape"/>
<feGaussianBlur stdDeviation="27.7532" result="effect1_foregroundBlur_2177_3818"/>
</filter>
<linearGradient id="paint0_linear_2177_3818" x1="448.228" y1="-32.7539" x2="163.722" y2="127.448" gradientUnits="userSpaceOnUse">
<stop stop-color="white"/>
<stop offset="1" stop-color="white" stop-opacity="0"/>
</linearGradient>
<linearGradient id="paint1_linear_2177_3818" x1="448.228" y1="-32.7539" x2="163.722" y2="127.448" gradientUnits="userSpaceOnUse">
<stop stop-color="white"/>
<stop offset="1" stop-color="white" stop-opacity="0"/>
</linearGradient>
<linearGradient id="paint2_linear_2177_3818" x1="225.934" y1="469.106" x2="103.417" y2="124.053" gradientUnits="userSpaceOnUse">
<stop stop-color="white"/>
<stop offset="1" stop-color="white" stop-opacity="0"/>
</linearGradient>
<linearGradient id="paint3_linear_2177_3818" x1="225.934" y1="469.106" x2="103.417" y2="124.053" gradientUnits="userSpaceOnUse">
<stop stop-color="white"/>
<stop offset="1" stop-color="white" stop-opacity="0"/>
</linearGradient>
<linearGradient id="paint4_linear_2177_3818" x1="-47.3958" y1="284.465" x2="48.0789" y2="228.122" gradientUnits="userSpaceOnUse">
<stop stop-color="white"/>
<stop offset="1" stop-color="white" stop-opacity="0"/>
</linearGradient>
<linearGradient id="paint5_linear_2177_3818" x1="133.13" y1="-131.67" x2="205.978" y2="-11.5163" gradientUnits="userSpaceOnUse">
<stop stop-color="white"/>
<stop offset="1" stop-color="white" stop-opacity="0"/>
</linearGradient>
<linearGradient id="paint6_linear_2177_3818" x1="194.397" y1="281.517" x2="305.427" y2="75.1737" gradientUnits="userSpaceOnUse">
<stop stop-color="white" stop-opacity="0"/>
<stop offset="0.489583" stop-color="white"/>
<stop offset="0.96875" stop-color="white" stop-opacity="0"/>
</linearGradient>
</defs>
</svg>
