<svg width="80" height="80" viewBox="0 0 80 80" fill="none" xmlns="http://www.w3.org/2000/svg">
<mask id="mask0_1641_848" style="mask-type:alpha" maskUnits="userSpaceOnUse" x="17" y="37" width="52" height="42">
<path d="M29.3709 38.9715L29.3285 37.5971L29.6947 37.9663C29.6947 37.9663 30.9088 39.286 31.4324 39.5109L32.4038 39.6979L35.3071 41.8094L50.3594 51.2049C50.3594 51.2049 55.9091 54.0436 57.8517 56.3385C56.418 58.077 57.2742 58.1574 57.3874 58.492L57.9977 59.5629L59.2543 60.767L63.989 65.4735L68.0112 77.3166L45.2188 78.2104L22.9292 76.7579L17.0635 62.1775L25.5615 55.3035L27.0802 54.3618C27.8183 53.7566 29.2997 52.5377 29.32 52.5038C29.3404 52.4698 30.3013 51.5507 30.7793 51.0954L30.3466 48.652L29.8715 45.6655L29.7273 43.6039L29.4727 41.3556L29.3709 38.9715Z" fill="#FFD0B1"/>
</mask>
<g mask="url(#mask0_1641_848)">
<path d="M29.3709 38.9715L29.3285 37.5971L29.6947 37.9663C29.6947 37.9663 30.9088 39.286 31.4324 39.5109L32.4038 39.6979L35.3071 41.8094L50.3594 51.2049C50.3594 51.2049 55.4447 54.2108 57.3874 56.5056C56.1325 58.2061 57.2742 58.1574 57.3874 58.492L57.9977 59.5629L59.2543 60.767L63.989 65.4735L68.0112 77.3166L45.2188 78.2104L22.9292 76.7579L17.0635 62.1775L25.5615 55.3035L27.0802 54.3618C27.8183 53.7566 29.2997 52.5377 29.32 52.5038C29.3404 52.4698 30.3013 51.5507 30.7793 51.0954L30.3466 48.652L29.8715 45.6655L29.7273 43.6039L29.4727 41.3556L29.3709 38.9715Z" fill="white"/>
<path d="M45.6367 54.7544L47.2159 55.4032C47.2159 55.4032 51.6022 58.3963 57.4352 56.4721C57.2503 56.7795 57.0494 57.0714 56.8336 57.3487L57.4352 58.7133C55.1416 59.97 54.6585 63.9611 54.7037 65.7995L54.4243 63.8026V62.5367L54.9295 60.415L55.3002 59.5674L55.7549 58.5105C51.5693 62.3145 43.9862 62.5082 38.4073 62.0125C34.0947 61.6292 33.1727 56.3317 29.3253 54.346C28.652 53.9985 26.6557 55.6491 25.7417 56.5179L25.7203 56.5872C25.6682 56.1172 25.6463 55.7086 25.6646 55.4032L25.7096 55.2697C26.6916 54.6887 28.7211 53.3931 28.984 52.8585C29.5427 52.3332 30.6813 51.218 30.7659 50.9596L30.3427 48.5206L29.9195 45.5135L29.5575 41.4818L29.3557 38.4859V37.7406L29.3488 37.7274L30.5205 38.8051L31.6638 39.5813L32.4543 39.6479C32.4543 39.6479 33.7647 46.2915 38.6386 50.0168L40.8991 51.3173L45.6367 54.7544Z" fill="#DFE7EC"/>
</g>
<path d="M29.2427 37.6513C29.2785 38.863 29.3281 40.0822 29.4126 41.2919C29.6 44.5315 30.0558 47.5368 30.6166 50.7138C30.6503 50.9046 30.5949 51.0988 30.4619 51.2398C29.9834 51.7473 28.7436 53.0191 27.4109 54.0457C26.7816 54.53 26.2275 54.8695 25.6689 55.1599L25.6864 55.373C26.2785 55.0699 26.8618 54.717 27.5309 54.2016C28.8827 53.1603 30.1596 51.8187 30.6456 51.2907C30.7775 51.1473 30.8314 50.9511 30.7968 50.7593C30.0131 46.4141 29.5409 42.0643 29.4492 37.646L29.2427 37.6513Z" fill="#623FC6"/>
<path d="M56.7744 57.46C56.7812 57.5032 57.552 59.5581 58.8851 60.6267C59.0307 60.7435 59.1875 60.8608 59.3553 60.9795L59.3729 60.7502C59.2442 60.6572 59.1225 60.5651 59.0081 60.4734C57.7393 59.4559 56.9773 57.2661 56.9773 57.2661L56.7744 57.46Z" fill="#623FC6"/>
<path fill-rule="evenodd" clip-rule="evenodd" d="M56.0541 57.607C55.2584 58.9332 53.6821 62.773 54.6366 65.7967L54.8168 65.7398C53.8829 62.7814 55.4376 59.0018 56.2161 57.7042L56.0541 57.607Z" fill="#623FC6"/>
<mask id="mask1_1641_848" style="mask-type:alpha" maskUnits="userSpaceOnUse" x="29" y="14" width="34" height="44">
<path d="M59.9434 23.6626C52.859 7.53681 28.3628 15.1196 29.6062 29.9154V32.4548L32.5376 39.7152L32.7017 41.177L33.3003 44.0354C33.3498 44.587 34.2692 46.1216 34.5026 46.7298C34.7996 47.3309 36.0513 48.7664 36.0513 48.7664C36.3695 49.3958 37.7132 50.3859 37.7132 50.3859C38.0314 50.8314 40.6126 52.6135 40.6126 52.6135L44.5375 54.8977L47.5077 56.2697L50.1738 57.5073L51.6659 57.8962L54.2032 57.7088H55.8042L56.7688 57.49L57.5901 56.0736L59.5283 52.0956L60.3731 49.0348L61.4401 44.5091L61.6399 41.9854C61.7493 41.4757 61.6188 40.3267 61.7135 40.2448C62.0261 39.9743 62.4925 39.3804 62.5522 38.9156L62.6121 37.6703L62.4323 36.3984L61.6911 34.5539L61.4335 33.282L61.5165 32.1811L61.9027 31.2261L62.1907 29.66V28.5223L61.9027 27.4689L60.6738 25.313L59.9434 23.6626Z" fill="white"/>
</mask>
<g mask="url(#mask1_1641_848)">
<path d="M59.9434 23.6626C52.859 7.53681 28.3628 15.1196 29.6062 29.9154V32.4548L32.5376 39.7152L32.7017 41.177L33.3003 44.0354C33.3498 44.587 34.2692 46.1216 34.5026 46.7298C34.7996 47.3309 36.0513 48.7664 36.0513 48.7664C36.3695 49.3958 37.7132 50.3859 37.7132 50.3859C38.0314 50.8314 40.6126 52.6135 40.6126 52.6135L44.5375 54.8977L47.5077 56.2697L50.1738 57.5073L51.6659 57.8962L54.2032 57.7088H55.8042L56.7688 57.49L57.5901 56.0736L59.5283 52.0956L60.3731 49.0348L61.4401 44.5091L61.6399 41.9854C61.7493 41.4757 61.6188 40.3267 61.7135 40.2448C62.0261 39.9743 62.4925 39.3804 62.5522 38.9156L62.6121 37.6703L62.4323 36.3984L61.6911 34.5539L61.4335 33.282L61.5165 32.1811L61.9027 31.2261L62.1907 29.66V28.5223L61.9027 27.4689L60.6738 25.313L59.9434 23.6626Z" fill="white"/>
<g filter="url(#filter0_f_1641_848)">
<path d="M41.811 37.9018C41.811 38.6559 41.1997 39.2672 40.4455 39.2672C39.6914 39.2672 39.0801 38.6559 39.0801 37.9018C39.0801 37.1477 39.6914 36.5363 40.4455 36.5363C41.1997 36.5363 41.811 37.1477 41.811 37.9018Z" fill="#F88292"/>
</g>
<g filter="url(#filter1_f_1641_848)">
<path d="M63.4468 37.9018C63.4468 38.6559 62.8354 39.2672 62.0813 39.2672C61.3272 39.2672 60.7158 38.6559 60.7158 37.9018C60.7158 37.1477 61.3272 36.5363 62.0813 36.5363C62.8354 36.5363 63.4468 37.1477 63.4468 37.9018Z" fill="#F88292"/>
</g>
<path d="M51.9293 44.7447C50.6281 44.8143 47.2335 44.9053 45.7457 44.0806C45.675 44.0414 45.7078 43.9451 45.7884 43.9516C46.5961 44.0176 48.9581 44.1768 50.5368 43.9364C51.3853 43.8072 52.3319 43.6711 53.1401 43.9598C53.7515 44.1781 54.4251 44.1401 55.008 43.8543L55.2951 43.7136C55.5927 43.5677 55.9113 43.4695 56.2394 43.4226L59.3698 42.9747C59.4336 42.9656 59.4804 43.032 59.4476 43.0875C58.7222 44.3154 56.9945 44.4744 56.0379 44.4613C55.6089 44.4555 55.1782 44.5605 54.8307 44.812C54.3726 45.1436 53.778 45.2213 53.25 45.0184L52.9384 44.8987C52.617 44.7752 52.2731 44.7263 51.9293 44.7447Z" fill="#623FC6"/>
<path d="M57.9799 57.022L39.1867 65.9987L26.7529 31.1306V13.8745C37.8381 18.1464 37.722 19.2575 43.5697 27.6125C46.2849 28.2372 50.5965 30.1263 51.0194 31.1306C51.8562 33.118 49.8898 40.8791 56.9187 38.5361C57.1416 38.5871 57.6215 38.8506 57.7585 39.4962V39.912L57.5547 40.4093C57.0492 40.8985 55.6046 41.8001 53.8697 41.4936C52.1349 41.1871 52.1798 40.8997 51.0194 41.3508C50.1285 41.7627 48.9563 41.3169 48.6048 40.3756C47.6436 44.399 38.2317 43.2502 38.2352 38.8538L38.2927 38.5711L38.6487 39.4453L40.4286 41.1833L42.0672 41.8534L43.4231 42.1466C43.9256 42.1291 44.9531 42.0869 45.0425 42.0575C45.7998 42.1885 47.4008 41.3174 48.1852 40.6503L48.5567 40.2245C48.4306 39.7491 48.5063 39.1643 48.9049 38.5098C49.7954 37.2223 50.7573 34.2347 47.5669 32.435L46.8298 31.9079L46.6064 31.7604L45.572 31.6295L44.272 31.7386L43.5697 32.0737C40.9014 33.0461 38.0492 33.4925 38.1713 38.6985C38.7113 47.853 46.7772 58.6421 57.9799 57.022Z" fill="#DFE7EC"/>
<path d="M54.5534 33.3533C54.487 32.6681 54.5873 31.6252 54.6679 31.0088C55.2823 28.3326 59.1921 27.8719 58.5392 28.5851C56.0818 29.7633 56.447 31.3739 56.728 31.7399C56.5698 31.8533 56.2278 32.0984 56.1258 32.1721C55.0886 32.8636 55.7975 33.5891 56.2817 33.8654L56.7068 34.2763C58.0047 35.3816 56.395 36.6285 55.6724 35.2116L54.9574 34.3678L54.5534 33.3533Z" fill="#DFE7EC"/>
</g>
<path d="M43.6523 42.1722L42.7461 42.0848C45.6984 45.5241 52.048 45.4057 54.189 41.1233L52.7942 40.8798C50.9567 43.8497 45.7629 43.995 43.6523 42.1722Z" fill="black"/>
<path d="M60.1436 40.9773H60.583C59.0581 44.7117 57.017 45.3923 54.013 41.0866L55.1994 40.7914C57.0368 43.7614 58.7681 43.0691 60.1436 40.9773Z" fill="black"/>
<path d="M50.6584 39.8607L51.3743 40.008L51.6895 40.2775C51.0263 40.7514 49.4183 40.8123 49.7898 40.2775L50.6584 39.8607Z" fill="#1B2C44"/>
<path d="M56.4414 39.8432L56.0491 40.0966L55.6689 40.4768C56.4696 40.6291 57.2259 40.338 56.9942 39.7301L56.4414 39.8432Z" fill="#1B2C44"/>
<path fill-rule="evenodd" clip-rule="evenodd" d="M54.7938 30.4402C54.7938 30.4402 54.3469 31.5249 54.474 32.8506C54.5438 33.5778 54.7862 34.3767 55.366 35.11C55.8547 35.727 56.255 36.2734 56.5297 36.7822C56.7672 37.2221 56.9099 37.6328 56.9302 38.0377C56.9619 38.6722 56.6902 39.2893 56.0258 39.9809C55.4218 40.6123 54.8424 40.9151 54.238 40.9729C53.3508 41.0577 52.4152 40.6219 51.2836 39.947C51.2836 39.947 51.2836 39.9469 51.2835 39.9469C51.1427 39.8633 50.9863 39.8153 50.8273 39.8039C50.6685 39.7926 50.5072 39.8177 50.3562 39.8803C50.2054 39.9422 50.0842 40.0092 49.9875 40.0744C49.8191 40.1879 49.724 40.2961 49.675 40.3633C49.6746 40.3639 49.6741 40.3646 49.6736 40.3652C49.6623 40.382 49.6545 40.4007 49.6509 40.4202C49.6473 40.4397 49.6476 40.46 49.6522 40.4797C49.6568 40.4994 49.6653 40.5177 49.6772 40.5336C49.689 40.5494 49.7041 40.563 49.7217 40.5729C49.7222 40.5733 49.7229 40.5736 49.7235 40.5739C49.8295 40.6299 50.0553 40.7221 50.392 40.7147C50.5783 40.7105 50.7992 40.676 51.053 40.5865C51.0871 40.5747 51.1051 40.5373 51.0933 40.5033C51.0814 40.4692 51.0441 40.4511 51.01 40.463C50.7714 40.5449 50.5642 40.5761 50.3896 40.5785C50.0893 40.5826 49.8876 40.5008 49.7921 40.4496C49.7921 40.4496 49.7911 40.4478 49.7911 40.4478L49.7916 40.4461C49.8357 40.3871 49.9209 40.2939 50.0688 40.1959C50.1589 40.1362 50.2719 40.075 50.4126 40.0186C50.4127 40.0186 50.4128 40.0185 50.4128 40.0185C50.5423 39.966 50.6803 39.9457 50.8158 39.9564C50.9511 39.9671 51.0839 40.009 51.2032 40.0811C52.3682 40.7866 53.3368 41.2328 54.2545 41.1501C54.8967 41.0922 55.5164 40.7783 56.1607 40.1105C56.871 39.3712 57.1522 38.7064 57.1169 38.0282C57.0946 37.5982 56.944 37.1614 56.6896 36.6954C56.4082 36.1802 55.9987 35.6276 55.499 35.004C54.9357 34.3025 54.6979 33.5348 54.625 32.8355C54.4909 31.5477 54.9149 30.4895 54.9149 30.4895C54.9285 30.456 54.9124 30.4178 54.879 30.4042C54.8455 30.3906 54.8074 30.4068 54.7938 30.4402Z" fill="#623FC6"/>
<path fill-rule="evenodd" clip-rule="evenodd" d="M56.1479 40.0987C56.1479 40.0987 56.344 39.9511 56.5731 39.8515C56.6727 39.8082 56.7786 39.7739 56.8767 39.7666C56.9083 39.7646 56.9379 39.7753 56.9606 39.7942C56.9832 39.813 56.9987 39.8402 57.0024 39.8715C57.0024 39.8717 57.0024 39.8718 57.0025 39.872C57.0185 39.9988 56.9739 40.0928 56.9114 40.161C56.7983 40.2842 56.6293 40.3272 56.6293 40.3272C56.5937 40.3366 56.5723 40.3731 56.5817 40.4088C56.591 40.4444 56.6276 40.4658 56.6632 40.4564C56.6632 40.4564 56.8701 40.401 57.0075 40.2483C57.0913 40.155 57.151 40.0272 57.1275 39.8556C57.1193 39.7917 57.0868 39.7361 57.04 39.6979C56.9933 39.6598 56.9326 39.6387 56.8681 39.6436C56.8679 39.6436 56.8678 39.6436 56.8676 39.6436C56.7567 39.6528 56.6369 39.6916 56.5247 39.7417C56.2839 39.8493 56.0783 40.0072 56.0783 40.0072C56.0531 40.0264 56.0482 40.0625 56.0674 40.0877C56.0866 40.113 56.1227 40.1179 56.1479 40.0987Z" fill="#623FC6"/>
<path d="M55.1588 47.3249L52.9184 47.4261C52.7959 47.4317 52.697 47.5291 52.6925 47.6516C52.5791 50.7368 53.9904 53.4038 53.3169 57.7468L54.9644 57.6743C55.189 52.2835 54.4664 49.6354 55.3955 47.7081C55.4799 47.533 55.353 47.3161 55.1588 47.3249Z" fill="black"/>
<path fill-rule="evenodd" clip-rule="evenodd" d="M60.8392 25.8244C60.4979 25.2036 60.1334 24.5022 59.8119 23.6315L60.0366 23.5485C60.3521 24.4028 60.71 25.0922 61.0492 25.709C61.113 25.825 61.1763 25.9387 61.2386 26.0507C61.5062 26.5316 61.7558 26.9801 61.9487 27.4374C62.1881 28.0048 62.3428 28.5909 62.3447 29.2849C62.3466 29.9778 62.1962 30.7717 61.8345 31.7557C61.7821 31.898 61.7313 32.0407 61.6835 32.184C61.3099 33.3043 61.7715 34.4539 62.2405 35.6083L62.2641 35.6664C63.1758 37.9117 62.7994 39.6125 61.8418 40.4697C61.8291 47.3961 59.3988 53.2145 57.1877 57.0523C56.9537 57.4585 56.5277 57.7096 56.0623 57.7321L51.9485 57.9302C51.3371 57.9597 50.72 57.8506 50.1566 57.6101C43.4464 54.7458 39.1496 52.2165 36.4599 49.414C33.7639 46.605 32.6897 43.5294 32.4043 39.5952L32.6432 39.5779C32.9256 43.4706 33.9843 46.4887 36.6327 49.2481C39.2874 52.0141 43.5467 54.5281 50.2507 57.3898C50.7804 57.6159 51.3613 57.7186 51.937 57.6909L56.0508 57.4928C56.4375 57.4741 56.7882 57.2658 56.9801 56.9327C59.158 53.1527 61.5451 47.4468 61.6012 40.659C60.4763 41.4336 58.817 41.1535 57.6165 39.5938L57.8063 39.4477C58.9538 40.9385 60.4803 41.1468 61.4736 40.456C62.4685 39.7641 63.0013 38.1188 62.0421 35.7565L62.0101 35.6779C61.5517 34.5496 61.0521 33.3201 61.4562 32.1082C61.505 31.9619 61.5568 31.8167 61.6096 31.673C61.9645 30.7076 62.1069 29.9425 62.1051 29.2856C62.1034 28.6299 61.9579 28.0755 61.728 27.5305C61.5406 27.0864 61.299 26.652 61.0319 26.1721C60.969 26.059 60.9046 25.9433 60.8392 25.8244Z" fill="#623FC6"/>
<path d="M31.1621 28.7833L30.8376 28.7345L30.3388 28.6004L29.3135 28.6776L28.5867 29.0077L27.916 29.6643L27.456 30.6264L27.2559 32.5296L27.4069 34.38L27.9792 35.918L29.001 37.2312L29.7454 38.0669L30.9393 39.1906L31.6837 39.5834L32.414 39.6958H32.5952C35.1062 31.3114 31.1621 28.7833 31.1621 28.7833Z" fill="#DFE7EC"/>
<path d="M31.1658 28.7842C31.1657 28.7842 31.1656 28.7841 31.1655 28.7841L31.0761 28.9508L31.0761 28.9508C31.0757 28.9506 31.0754 28.9504 31.0753 28.9504C31.0599 28.942 30.0257 28.3843 28.8821 29.0124L28.882 29.0124C28.0649 29.4602 27.5287 30.2898 27.456 31.2187L27.456 31.219C27.3161 32.9583 27.4094 34.1371 27.7359 35.0863C28.2263 36.5118 29.2411 37.4177 30.7599 38.9285L30.7602 38.9288C31.1706 39.3403 31.7279 39.5716 32.3091 39.5716H32.3094C32.4216 39.5719 32.4972 39.5719 32.4972 39.5719C32.5494 39.5719 32.5918 39.6143 32.5918 39.6665C32.5918 39.7188 32.5494 39.7611 32.4972 39.7611C32.4972 39.7611 32.4214 39.7611 32.3089 39.7608C31.6776 39.7608 31.0722 39.5095 30.6264 39.0625C29.0812 37.5254 28.0559 36.5982 27.557 35.1478C27.224 34.1797 27.1248 32.9777 27.2674 31.2038C27.3451 30.2113 27.918 29.3249 28.7911 28.8465C30.0215 28.1708 31.135 28.7675 31.1655 28.7841L31.1655 28.7841L31.1658 28.7842Z" fill="#623FC6"/>
<path fill-rule="evenodd" clip-rule="evenodd" d="M28.9991 28.9101C28.9991 28.9101 30.9256 30.0302 31.464 32.0228C31.5935 32.5903 31.4211 33.0418 31.2832 33.5064C31.1725 33.8795 31.082 34.2604 31.1565 34.7067C31.2304 35.15 31.4674 35.6599 32.0203 36.2911C32.0546 36.3303 32.1144 36.3343 32.1536 36.2999C32.1928 36.2656 32.1968 36.2058 32.1624 36.1666C31.6411 35.5715 31.4126 35.0936 31.3428 34.6756C31.2736 34.2607 31.3614 33.907 31.4644 33.5601C31.6112 33.0653 31.7863 32.5835 31.6478 31.979C31.6475 31.9778 31.6472 31.9766 31.6469 31.9755C31.0898 29.9096 29.0941 28.7468 29.0941 28.7468C29.0491 28.7206 28.9912 28.7359 28.965 28.781C28.9387 28.826 28.954 28.8839 28.9991 28.9101Z" fill="#623FC6"/>
<path fill-rule="evenodd" clip-rule="evenodd" d="M43.2153 42.2202C40.9556 41.9667 38.7264 40.7145 38.1077 38.3619L38.3394 38.3009C38.9235 40.5219 41.0377 41.7348 43.242 41.9821C44.3416 42.1054 45.4535 41.9863 46.3911 41.6368C47.329 41.2871 48.0845 40.7103 48.4882 39.9231L48.7014 40.0324C48.263 40.8871 47.4514 41.4971 46.4748 41.8613C45.4978 42.2255 44.3476 42.3472 43.2153 42.2202Z" fill="#623FC6"/>
<path fill-rule="evenodd" clip-rule="evenodd" d="M48.56 39.9939L48.7049 40.0241C48.6227 40.6801 49.2465 41.0704 49.8028 41.1221L49.7835 41.3182C49.0815 41.2531 48.4625 40.7724 48.56 39.9939Z" fill="#623FC6"/>
<path fill-rule="evenodd" clip-rule="evenodd" d="M57.7623 39.5537L57.62 39.5942C57.7489 40.2427 57.1548 40.6767 56.6035 40.7681L56.6368 40.9624C57.3324 40.8471 57.9153 40.3232 57.7623 39.5537Z" fill="#623FC6"/>
<path d="M50.2582 31.7183L51.2529 30.7999C48.434 27.4798 42.2951 26.3105 39.2256 28.9207C45.3854 26.3314 50.2582 31.7183 50.2582 31.7183Z" fill="#172434"/>
<path d="M55.9153 31.0264L54.9075 30.2907C56.5521 26.9705 60.2903 26.5327 62.0811 29.1428C58.4873 26.5536 55.9153 31.0264 55.9153 31.0264Z" fill="#172434"/>
<path d="M41.3887 32.605C43.2993 30.9809 46.492 30.7681 48.1499 32.8081C47.1605 33.9515 43.2134 34.177 41.3887 32.605Z" fill="#172434"/>
<path d="M55.5615 32.605C57.1265 30.9809 59.7414 30.7681 61.0993 32.8081C60.289 33.9515 57.0561 34.177 55.5615 32.605Z" fill="#172434"/>
<defs>
<filter id="filter0_f_1641_848" x="38.0419" y="35.4981" width="4.80681" height="4.8073" filterUnits="userSpaceOnUse" color-interpolation-filters="sRGB">
<feFlood flood-opacity="0" result="BackgroundImageFix"/>
<feBlend mode="normal" in="SourceGraphic" in2="BackgroundImageFix" result="shape"/>
<feGaussianBlur stdDeviation="0.519086" result="effect1_foregroundBlur_1641_848"/>
</filter>
<filter id="filter1_f_1641_848" x="59.6776" y="35.4981" width="4.80681" height="4.8073" filterUnits="userSpaceOnUse" color-interpolation-filters="sRGB">
<feFlood flood-opacity="0" result="BackgroundImageFix"/>
<feBlend mode="normal" in="SourceGraphic" in2="BackgroundImageFix" result="shape"/>
<feGaussianBlur stdDeviation="0.519086" result="effect1_foregroundBlur_1641_848"/>
</filter>
</defs>
</svg>
