<svg width="80" height="80" viewBox="0 0 80 80" fill="none" xmlns="http://www.w3.org/2000/svg">
<mask id="mask0_1641_497" style="mask-type:alpha" maskUnits="userSpaceOnUse" x="16" y="37" width="52" height="42">
<path d="M29.2793 38.8992L29.2368 37.5223L29.6037 37.8922C29.6037 37.8922 30.8199 39.2142 31.3444 39.4395L32.3175 39.6269L35.2259 41.742L50.3048 51.1541C50.3048 51.1541 55.8642 53.9978 57.8103 56.2967C56.374 58.0383 57.2318 58.1188 57.3451 58.454L57.9565 59.5269L59.2153 60.733L63.9584 65.4478L67.9877 77.3118L45.1551 78.2071L22.8262 76.7521L16.9502 62.146L25.4632 55.26L26.9846 54.3166C27.724 53.7103 29.2079 52.4892 29.2283 52.4553C29.2487 52.4213 30.2114 51.5005 30.6902 51.0444L30.2567 48.5967L29.7808 45.605L29.6363 43.5397L29.3813 41.2874L29.2793 38.8992Z" fill="#FFD0B1"/>
</mask>
<g mask="url(#mask0_1641_497)">
<path d="M29.2793 38.8992L29.2368 37.5223L29.6037 37.8922C29.6037 37.8922 30.8199 39.2142 31.3444 39.4395L32.3175 39.6269L35.2259 41.742L50.3048 51.1541C50.3048 51.1541 55.8642 53.9978 57.8103 56.2967C56.374 58.0383 57.2318 58.1188 57.3451 58.454L57.9565 59.5269L59.2153 60.733L63.9584 65.4478L67.9877 77.3118L45.1551 78.2071L22.8262 76.7521L16.9502 62.146L25.4632 55.26L26.9846 54.3166C27.724 53.7103 29.2079 52.4892 29.2283 52.4553C29.2487 52.4213 30.2114 51.5005 30.6902 51.0444L30.2567 48.5967L29.7808 45.605L29.6363 43.5397L29.3813 41.2874L29.2793 38.8992Z" fill="#FFD0B1"/>
<path d="M45.2862 55.6572L47.2794 55.995C47.2794 55.995 51.967 58.1789 57.8103 56.2513C57.5356 56.7078 57.2257 57.1303 56.8845 57.5212L57.3935 58.6758C55.0958 59.9346 54.6119 63.9327 54.6572 65.7744L54.3773 63.774V62.5059L54.8834 60.3804L55.2547 59.5313L55.593 58.7451C50.2932 62.9224 40.509 62.1708 35.2977 61.3878C33.1309 61.0622 31.4684 59.435 30.7318 57.3714C30.1913 55.8573 29.6107 54.4951 29.2341 54.3007C28.5596 53.9526 26.5598 55.6062 25.6442 56.4765L25.6227 56.5459C25.5706 56.075 25.5486 55.6658 25.5669 55.3599L25.6121 55.2261C26.5957 54.6441 28.6289 53.3462 28.8922 52.8106C29.4519 52.2844 30.5925 51.1672 30.6773 50.9084L30.2533 48.465L29.8293 45.4527L29.4668 41.4139L29.2645 38.4127V37.6661L29.2577 37.6528L30.4314 38.7325L31.5767 39.51L32.3686 39.5768C32.3686 39.5768 32.1082 47.8837 36.9907 51.6155L40.1511 52.7011L45.2862 55.6572Z" fill="#EC9982"/>
</g>
<path d="M29.1523 37.5767C29.1882 38.7905 29.2379 40.0119 29.3226 41.2238C29.5162 44.5717 30.0251 47.8788 30.6113 51.1736L30.7755 51.0659C29.9574 46.6119 29.4533 42.1006 29.3592 37.5714L29.1523 37.5767Z" fill="#623FC6"/>
<path fill-rule="evenodd" clip-rule="evenodd" d="M30.9746 52.404C30.8256 52.0518 30.6555 51.5755 30.5762 51.0855L30.7736 51.0536C30.8493 51.5215 31.0129 51.9814 31.1588 52.326C31.2316 52.4979 31.2995 52.6402 31.3492 52.7393C31.374 52.7889 31.3942 52.8276 31.4082 52.8538C31.4152 52.8669 31.4206 52.8769 31.4242 52.8835C31.426 52.8868 31.4274 52.8893 31.4283 52.8909L31.4292 52.8927L31.4295 52.8931C31.4295 52.8931 31.4295 52.8931 31.3422 52.942C31.255 52.9909 31.255 52.9908 31.255 52.9908L31.2545 52.99L31.2533 52.9878C31.2522 52.9859 31.2507 52.9831 31.2487 52.9795C31.2448 52.9722 31.239 52.9616 31.2317 52.9478C31.217 52.9203 31.196 52.8801 31.1704 52.8289C31.1191 52.7267 31.0493 52.5804 30.9746 52.404Z" fill="#623FC6"/>
<path d="M30.6007 50.9323C30.5861 50.9489 29.018 52.6899 27.3173 54C26.6869 54.4852 26.1318 54.8252 25.5723 55.1162L25.5898 55.3297C26.1829 55.0261 26.7672 54.6725 27.4375 54.1562C29.154 52.834 30.6285 51.1665 30.643 51.1498L30.6007 50.9323Z" fill="#623FC6"/>
<path d="M56.8389 57.6142C56.8457 57.6574 57.5106 59.522 58.846 60.5925C58.9919 60.7095 59.149 60.827 59.3171 60.946L59.3347 60.7162C59.2057 60.6231 59.0838 60.5309 58.9692 60.439C57.6982 59.4197 57.0329 57.5831 57.0329 57.5831L56.8389 57.6142Z" fill="#623FC6"/>
<path fill-rule="evenodd" clip-rule="evenodd" d="M55.5384 58.6993C54.7413 60.0279 53.672 62.8146 54.6283 65.8437L54.8087 65.7867C53.8731 62.823 54.9208 60.0966 55.7007 58.7967L55.5384 58.6993Z" fill="#623FC6"/>
<mask id="mask1_1641_497" style="mask-type:alpha" maskUnits="userSpaceOnUse" x="29" y="13" width="34" height="46">
<path d="M33.1669 46.578L33.6437 47.7293L34.1294 48.6378L34.9389 49.7442C34.9389 49.7442 35.8902 50.8178 36.8774 51.5027C36.8774 51.5027 37.9492 52.3827 39.4364 53.1263C39.4364 53.1263 42.6162 54.7998 44.2173 55.5325C46.1329 56.4943 46.6068 56.7495 48.4476 57.7188C49.4009 58.2039 49.6357 58.3232 51.6164 58.7934C51.6164 58.7934 51.8536 59.0705 54.5975 58.9167L55.7127 58.7345L56.6806 58.602L57.5124 58.4291L58.4877 58.086L59.3673 57.774L60.0702 57.4354L60.6591 56.887L61.3069 56.0699L61.608 55.3177L61.6888 54.5241L61.608 53.6831L61.3467 52.1387L60.843 49.4255L60.7106 47.2075L60.7364 45.8936L60.8854 44.9454L61.5219 42.0562L61.8369 40.497L61.9574 38.8561L61.8295 37.6275L61.5277 35.8903L61.3326 34.6353L61.2774 33.2699L61.5166 32.2136L61.8773 31.1684L62.1938 29.8839V29.008L62.0196 28.0423L61.535 26.866L59.9588 23.6562C56.8072 8.58343 27.5533 10.8135 29.3917 28.8103L30.807 29.305L32.3369 31.9681L32.5045 34.3986V39.1546V40.9418L32.453 42.3825L32.6512 43.9708L32.7967 45.3284L33.1669 46.578Z" fill="#FFD0B1"/>
</mask>
<g mask="url(#mask1_1641_497)">
<path d="M33.1669 46.578L33.6437 47.7293L34.1294 48.6378L34.9389 49.7442C34.9389 49.7442 35.8902 50.8178 36.8774 51.5027C36.8774 51.5027 37.9492 52.3827 39.4364 53.1263C39.4364 53.1263 42.6162 54.7998 44.2173 55.5325C46.1329 56.4943 46.6068 56.7495 48.4476 57.7188C49.4009 58.2039 49.6357 58.3232 51.6164 58.7934C51.6164 58.7934 51.8536 59.0705 54.5975 58.9167L55.7127 58.7345L56.6806 58.602L57.5124 58.4291L58.4877 58.086L59.3673 57.774L60.0702 57.4354L60.6591 56.887L61.3069 56.0699L61.608 55.3177L61.6888 54.5241L61.608 53.6831L61.3467 52.1387L60.843 49.4255L60.7106 47.2075L60.7364 45.8936L60.8854 44.9454L61.5219 42.0562L61.8369 40.497L61.9574 38.8561L61.8295 37.6275L61.5277 35.8903L61.3326 34.6353L61.2774 33.2699L61.5166 32.2136L61.8773 31.1684L62.1938 29.8839V29.008L62.0196 28.0423L61.535 26.866L59.9588 23.6562C56.8072 8.58343 27.5533 10.8135 29.3917 28.8103L30.807 29.305L32.3369 31.9681L32.5045 34.3986V39.1546V40.9418L32.453 42.3825L32.6512 43.9708L32.7967 45.3284L33.1669 46.578Z" fill="#FFD0B1"/>
<path d="M61.0563 28.6253C61.0153 27.4417 60.768 26.1778 60.0183 24.915C58.8989 22.7028 58.3898 20.5215 57.3821 18.1437H57.8184C61.7965 19.8921 69.4494 24.3106 69.7088 24.7114C69.9681 25.1121 67.3666 34.1445 66.0334 38.6106L59.869 46.7957C61.5144 42.5223 61.3555 37.6109 61.1017 34.5481C60.9393 32.5883 61.1242 30.5907 61.0563 28.6253Z" fill="white"/>
<path d="M56.7515 56.9858L59.1589 58.0708C60.5492 58.2516 63.4042 58.6472 63.7026 58.7829C64.0756 58.9524 63.3296 64.4455 59.8371 62.2754C57.0431 60.5393 56.6159 58.0256 56.7515 56.9858Z" fill="white"/>
<path d="M54.8738 66.0582C52.8573 63.4881 54.1984 60.3634 55.121 59.1222L55.2814 58.9174H55.8338L55.3372 59.8603L54.7625 61.4617L54.5055 63.1955L54.6232 65.0471L54.8738 66.0582Z" fill="white"/>
<path d="M62.8429 27.3944C62.7047 28.19 61.5832 28.6596 60.3381 28.4433C59.0929 28.227 58.1955 27.4067 58.3337 26.6111C58.4719 25.8154 59.5934 25.3458 60.8386 25.5622C62.0838 25.7785 62.9812 26.5988 62.8429 27.3944Z" fill="white"/>
<path d="M41.8607 30.9542C41.1483 31.4272 40.4119 32.0611 39.8747 33.0336C37.923 36.5668 40.278 40.8003 42.3158 44.2845C43.2919 45.9535 44.4846 47.963 45.8646 50.2337L35.5494 44.7129L26.834 31.575V14.2885C38.0756 18.6206 37.8178 19.7079 43.8999 28.3636C44.1446 28.4461 44.3759 28.5512 44.572 28.6586L46.882 28.9865L48.2512 29.7099C48.9358 29.668 50.4726 29.9823 51.1432 31.575C51.9815 33.5658 50.0116 41.3406 57.0529 38.9935C57.2761 39.0446 57.7569 39.3085 57.8941 39.9553V40.3718L57.69 40.87C57.1836 41.36 55.7365 42.2632 53.9986 41.9562C52.2607 41.6491 52.3056 41.3613 51.1432 41.8132C49.7765 42.445 47.749 41.0619 49.025 38.9671C49.917 37.6773 50.8806 34.6845 47.6847 32.8816L46.9462 32.3535L46.7225 32.2059L45.6862 32.0747L44.3839 32.184L43.6804 32.5197C43.1672 32.7067 42.2302 32.6637 41.8607 30.9542Z" fill="url(#paint0_linear_1641_497)"/>
<path d="M54.5586 31.575C54.544 30.6388 55.5741 29.8646 55.9991 29.5945C56.6723 29.3628 57.8186 29.1178 57.018 29.9922C56.2174 30.8666 56.5803 31.8186 56.8619 32.1853C56.7034 32.2989 56.3608 32.5445 56.2586 32.6183C55.2195 33.311 55.9297 34.0378 56.4147 34.3146L56.8406 34.7262C58.1408 35.8334 56.5283 37.0825 55.8043 35.6631L55.0946 34.4707L54.7425 33.8015C54.5427 33.035 54.4778 32.1924 54.5586 31.575Z" fill="url(#paint1_linear_1641_497)"/>
<mask id="mask2_1641_497" style="mask-type:alpha" maskUnits="userSpaceOnUse" x="31" y="28" width="39" height="32">
<path fill-rule="evenodd" clip-rule="evenodd" d="M50.0322 41.9623C48.8831 42.3848 47.8428 42.8304 46.92 43.2677C43.4544 44.91 39.9581 45.5324 38.5116 41.9806C38.1867 41.1827 37.8582 40.317 37.5191 39.4234C35.8797 35.1029 33.9937 30.1323 31.0703 29.0376C33.4109 31.0405 32.4933 39.8015 32.4501 39.8591C32.4708 40.1111 32.4513 40.3381 32.4247 40.6476C32.3575 41.4308 32.245 42.7422 32.6238 46.3222C32.9013 48.7933 37.1578 51.8792 37.1578 51.8792C38.3075 52.9099 43.8178 55.883 43.8178 55.883L48.9709 58.3468L51.3484 59.1213C52.3037 59.4978 54.0592 59.2421 54.5977 59.1503C55.6566 59.0378 56.5413 58.8894 56.5413 58.8894L59.6661 58.1438L62.2452 56.1674L66.3518 51.5205L68.4051 48.6386L69.264 46.6214V40.864V39.0999C69.264 39.0999 69.099 31.2076 69.0164 28.9174C68.9729 29.376 68.9764 29.9673 68.9799 30.5764C68.9841 31.2823 68.9883 32.0121 68.9199 32.5869L61.9802 34.9883C61.9802 34.9883 62.3565 37.1287 61.539 42.266C61.3572 43.4085 59.9915 43.8558 59.0684 43.1586C56.564 41.267 54.2884 40.6347 50.0322 41.9623ZM55.6685 43.5902L54.5249 43.0143L53.2732 43.7307L53.3555 43.7463L52.5861 43.9927L51.735 44.3577C51.735 44.3577 50.0396 45.3731 48.7223 46.3511C43.457 52.8099 55.3621 53.6427 50.9927 47.7139L51.2939 47.932L51.4936 48.0396L51.9883 48.2117L52.7811 48.2823L54.1699 48.3477L54.975 48.3008C55.0215 48.2862 55.0857 48.269 55.1542 48.2507C55.3078 48.2097 55.4833 48.1628 55.5312 48.1256C55.5494 48.1114 55.5875 48.0797 55.6376 48.0381C55.7776 47.9218 56.0107 47.7279 56.1642 47.6217L56.6957 47.0686C56.1257 48.1263 55.7297 51.2683 58.2441 51.2683C60.4296 51.2683 59.9994 47.0884 57.8912 45.6378C57.8912 45.6378 56.5948 43.7961 55.6685 43.5902Z" fill="url(#paint2_linear_1641_497)"/>
</mask>
<g mask="url(#mask2_1641_497)">
<path fill-rule="evenodd" clip-rule="evenodd" d="M50.0322 41.9623C48.8831 42.3848 47.8428 42.8304 46.92 43.2677C43.4544 44.91 39.9581 45.5324 38.5116 41.9806C38.1867 41.1827 37.8582 40.317 37.5191 39.4234C35.8797 35.1029 33.9937 30.1323 31.0703 29.0376C33.4109 31.0405 32.4933 39.8015 32.4501 39.8591C32.4708 40.1111 32.4513 40.3381 32.4247 40.6476C32.3575 41.4308 32.245 42.7422 32.6238 46.3222C32.9013 48.7933 37.1578 51.8792 37.1578 51.8792C38.3075 52.9099 43.8178 55.883 43.8178 55.883L48.9709 58.3468L51.3484 59.1213C52.3037 59.4978 54.0592 59.2421 54.5977 59.1503C55.6566 59.0378 56.5413 58.8894 56.5413 58.8894L59.6661 58.1438L62.2452 56.1674L66.3518 51.5205L68.4051 48.6386L69.264 46.6214V40.864V39.0999C69.264 39.0999 69.099 31.2076 69.0164 28.9174C68.9729 29.376 68.9764 29.9673 68.9799 30.5764C68.9841 31.2823 68.9883 32.0121 68.9199 32.5869L61.9802 34.9883C61.9802 34.9883 62.3565 37.1287 61.539 42.266C61.3572 43.4085 59.9915 43.8558 59.0684 43.1586C56.564 41.267 54.2884 40.6347 50.0322 41.9623ZM55.6685 43.5902L54.5249 43.0143L53.2732 43.7307L53.3555 43.7463L52.5861 43.9927L51.735 44.3577C51.735 44.3577 50.0396 45.3731 48.7223 46.3511C43.457 52.8099 55.3621 53.6427 50.9927 47.7139L51.2939 47.932L51.4936 48.0396L51.9883 48.2117L52.7811 48.2823L54.1699 48.3477L54.975 48.3008C55.0215 48.2862 55.0857 48.269 55.1542 48.2507C55.3078 48.2097 55.4833 48.1628 55.5312 48.1256C55.5494 48.1114 55.5875 48.0797 55.6376 48.0381C55.7776 47.9218 56.0107 47.7279 56.1642 47.6217L56.6957 47.0686C56.1257 48.1263 55.7297 51.2683 58.2441 51.2683C60.4296 51.2683 59.9994 47.0884 57.8912 45.6378C57.8912 45.6378 56.5948 43.7961 55.6685 43.5902Z" fill="url(#paint3_linear_1641_497)"/>
<path d="M63.0018 55.912C63.9314 54.8517 63.8297 53.2424 62.7746 52.3173C61.7196 51.3923 60.1107 51.5019 59.1812 52.5621C58.2516 53.6223 58.3533 55.2317 59.4084 56.1567C60.4634 57.0818 62.0723 56.9722 63.0018 55.912Z" fill="url(#paint4_linear_1641_497)"/>
<path fill-rule="evenodd" clip-rule="evenodd" d="M62.6331 51.5745L57.2598 49.1697L57.6918 48.2045L63.0651 50.6092L62.6331 51.5745Z" fill="#AE7589"/>
<path d="M51.2438 48.939C50.7252 48.4298 49.6663 47.3452 49.3867 46.7148L50.6521 47.4555L51.7585 47.7354L54.8191 47.8368L56.0422 47.612L58.0296 46.7954L56.6319 48.7847C56.4409 49.0565 56.1296 49.2183 55.7975 49.2183H51.9364C51.6776 49.2183 51.4285 49.1203 51.2438 48.939Z" fill="#38334F"/>
<path opacity="0.5" d="M54.0564 42.4474C51.9845 42.5041 51.0512 41.2032 50.8258 41.011C51.2353 40.6726 52.4668 39.4676 53.0726 39.3717C53.8299 39.2517 55.6892 39.7337 56.6922 40.3681C57.6953 41.0024 56.1284 42.3907 54.0564 42.4474Z" fill="#16182F"/>
<path opacity="0.4" d="M47.8099 63.0645C47.8099 63.0645 68.0046 59.6786 69.3847 59.7404C69.3847 59.7404 66.8862 56.1345 54.7803 57.9549C53.0776 58.2109 51.3348 58.0942 49.7468 57.4284C46.6229 56.1188 41.2051 53.6296 37.7893 50.8391C35.9894 49.3688 35.1694 47.1198 34.7909 44.8267C34.1449 40.9126 33.1281 34.2981 32.5549 28.2472C22.6148 26.639 28.3701 49.9594 28.3701 49.9594C28.35 50.6026 36.1901 53.6263 36.1901 53.6263C36.2553 54.4409 47.4537 62.4411 47.8099 63.0645Z" fill="#15162B"/>
</g>
</g>
<path fill-rule="evenodd" clip-rule="evenodd" d="M60.8048 25.729C60.4629 25.1071 60.0978 24.4045 59.7756 23.5322L60.0008 23.449C60.3168 24.3049 60.6754 24.9955 61.0151 25.6134C61.079 25.7296 61.1424 25.8435 61.2049 25.9557C61.473 26.4374 61.723 26.8867 61.9163 27.3448C62.1561 27.9132 62.3111 28.5003 62.3129 29.1956C62.3148 29.8897 62.1641 30.685 61.8018 31.6707C61.5288 32.4133 61.3182 33.165 61.3744 33.9316C61.4304 34.6961 61.5498 35.6633 61.7468 36.4612C62.3053 38.3407 62.0747 40.1028 61.7132 41.8142C61.6344 42.1876 61.5495 42.5579 61.4651 42.9264C61.1606 44.2551 60.8617 45.5595 60.8694 46.8968L60.8694 46.8975C60.8694 49.1543 61.1965 50.7732 61.4603 52.0788C61.5001 52.2754 61.5383 52.4649 61.5739 52.6484C61.8453 54.0504 61.9596 55.1216 61.2754 56.3086C60.781 57.1663 59.9039 57.7059 58.9933 58.0261C57.6391 58.5025 55.9376 58.9335 53.8457 59.0666C51.8637 59.1927 49.9399 58.5482 48.1917 57.6488C46.7142 56.8887 45.356 56.221 44.1101 55.6112C43.9909 55.5529 43.8727 55.4951 43.7555 55.4378C42.6485 54.8962 41.6321 54.399 40.7029 53.9215C38.6491 52.8658 37.0119 51.9012 35.7503 50.7533C33.2141 48.4456 32.2178 45.4174 32.3195 39.5133L32.5595 39.5174C32.4583 45.3944 33.4511 48.3367 35.9118 50.5757C37.1487 51.7011 38.762 52.6539 40.8127 53.708C41.7395 54.1844 42.7537 54.6806 43.8613 55.2224C43.9784 55.2796 44.0964 55.3374 44.2156 55.3957C45.4616 56.0055 46.8217 56.6741 48.3015 57.4354C50.0308 58.3251 51.9094 58.9493 53.8304 58.8271C55.8971 58.6956 57.5768 58.27 58.9137 57.7997C59.7958 57.4895 60.6129 56.9773 61.0675 56.1887C61.705 55.0829 61.6083 54.0891 61.3382 52.694C61.303 52.512 61.2649 52.3235 61.2253 52.1275C60.9612 50.821 60.6294 49.1797 60.6294 46.8978C60.6294 46.8977 60.6294 46.8976 60.6294 46.8975H60.7494L60.6294 46.8982C60.6294 46.8981 60.6294 46.8979 60.6294 46.8978C60.6216 45.5299 60.9289 44.1899 61.2344 42.8573C61.3181 42.4927 61.4015 42.1286 61.4784 41.7646C61.8379 40.0626 62.0579 38.3484 61.516 36.527L61.5152 36.5243L61.5145 36.5216C61.3126 35.705 61.1916 34.7217 61.135 33.9491C61.075 33.1296 61.3008 32.338 61.5765 31.5879C61.932 30.6208 62.0747 29.8543 62.0729 29.1963C62.0712 28.5395 61.9255 27.984 61.6952 27.4381C61.5075 26.9932 61.2654 26.5581 60.9979 26.0774C60.9348 25.964 60.8703 25.8481 60.8048 25.729Z" fill="#623FC6"/>
<path d="M58.8562 33.2451C59.332 32.9225 59.6602 32.1787 59.6602 32.1787C59.3064 31.766 58.9875 31.7631 58.9875 31.7631L57.582 31.7357C56.8929 31.7576 56.6495 31.9571 56.6495 31.9571L56.1765 32.2403L55.9413 32.474C56.1765 32.9772 56.8163 33.3436 56.8163 33.3436C56.9812 33.4999 57.1281 33.4256 57.1281 33.4256C57.3835 33.6162 57.9812 33.5459 57.9812 33.5459C58.3739 33.5231 58.8562 33.2451 58.8562 33.2451Z" fill="url(#paint5_linear_1641_497)"/>
<path d="M55.6865 32.6229C55.8307 32.4934 56.1828 32.1806 56.3213 32.0563C56.5443 31.8566 56.8261 31.7342 57.1242 31.7073C57.4456 31.6896 57.9336 31.6667 58.2591 31.6493C58.3998 31.645 58.6266 31.6237 58.7657 31.6359C58.9676 31.6526 59.1635 31.7122 59.3408 31.811C59.5177 31.9097 59.6713 32.0452 59.7915 32.2082C59.8019 32.2235 59.8241 32.2538 59.8348 32.2696C59.7983 32.2935 59.9173 32.2172 59.7522 32.3235C59.5872 32.4298 59.7062 32.3527 59.6698 32.3759C59.6467 32.3412 59.6226 32.3045 59.5979 32.2724C59.4885 32.1336 59.3509 32.0199 59.1936 31.939C59.0368 31.8581 58.8642 31.8118 58.6876 31.8034C58.4347 31.8016 57.9598 31.8226 57.7 31.8275L57.2751 31.8382C57.0478 31.8324 56.8227 31.885 56.6217 31.9911C56.4756 32.0632 56.3095 32.2255 56.1837 32.329L55.7525 32.6968L55.688 32.6234L55.6865 32.6229Z" fill="#25244A"/>
<path d="M55.8083 31.7598C57.0134 30.9344 58.5785 30.7423 59.8559 31.5214L59.7948 31.6222C59.4983 31.4406 59.1763 31.3047 58.8395 31.2191C57.9902 31.0038 57.0806 31.1685 56.3043 31.556C56.1474 31.6324 55.9965 31.7204 55.8525 31.8192L55.8076 31.759L55.8083 31.7598Z" fill="#25244A"/>
<path d="M56.7889 33.3007C57.3949 33.5227 58.1387 33.6266 58.711 33.2651C58.7885 33.2139 58.8604 33.1546 58.926 33.0889L59.0094 33.1734C58.9363 33.2436 58.8566 33.3065 58.771 33.3602C58.3428 33.6275 57.8059 33.6329 57.3255 33.5343C57.1332 33.4947 56.9447 33.4376 56.7627 33.363L56.7888 33.3018L56.7889 33.3007Z" fill="#25244A"/>
<path d="M58.4976 31.7776C58.5548 31.8986 58.5776 32.0328 58.5644 32.1658C58.548 32.3471 58.4647 32.5156 58.3305 32.6388C58.1964 32.7616 58.021 32.8303 57.8389 32.8312C57.6492 32.8264 57.4687 32.7465 57.3374 32.6091C57.2056 32.4717 57.1341 32.2881 57.1378 32.098C57.1385 32.0099 57.1547 31.9226 57.1857 31.8401" fill="#25244A"/>
<path opacity="0.6" d="M58.3925 32.3619C58.3925 32.4334 58.1654 32.729 57.8852 32.729C57.6051 32.729 57.3779 32.4334 57.3779 32.3619C57.3779 32.2905 57.6051 32.4703 57.8852 32.4703C58.1654 32.4703 58.3925 32.2905 58.3925 32.3619Z" fill="white"/>
<path fill-rule="evenodd" clip-rule="evenodd" d="M56.225 34.0238C56.2935 34.1519 56.3949 34.2716 56.4998 34.3718C56.6072 34.4742 56.7313 34.5534 56.8622 34.6225C56.88 34.6339 56.9034 34.6287 56.9145 34.6109C56.9259 34.5935 56.9207 34.57 56.9029 34.5586C56.7898 34.4721 56.6959 34.3829 56.611 34.3067C56.4974 34.2055 56.3824 34.103 56.2887 33.9831C56.277 33.9652 56.2539 33.9603 56.2361 33.9715C56.2187 33.9829 56.2133 34.0063 56.225 34.0238Z" fill="#25244A"/>
<path d="M44.5102 33.6158C43.5941 33.0884 43.4473 32.2403 43.4473 32.2403C43.801 31.8276 44.1815 31.8627 44.1815 31.8627L45.593 31.8057L46.5391 31.9571L47.0566 32.2088L47.4121 32.5489C47.2939 33.0407 46.5391 33.466 46.5391 33.466C46.3743 33.6223 46.0922 33.6158 46.0922 33.6158C45.8368 33.8064 45.1735 33.7683 45.1735 33.7683C44.7808 33.7454 44.5102 33.6158 44.5102 33.6158Z" fill="url(#paint6_linear_1641_497)"/>
<path d="M47.6698 32.659C47.5058 32.5283 47.1059 32.2127 46.9484 32.0872C46.695 31.8857 46.3813 31.7694 46.0548 31.7556C45.7033 31.7528 45.1699 31.7527 44.8139 31.7504C44.6602 31.7529 44.4118 31.7415 44.2606 31.7614C44.0413 31.7892 43.8306 31.8626 43.6423 31.9766C43.4543 32.0905 43.2937 32.2424 43.1709 32.4221C43.1604 32.4389 43.1377 32.4723 43.1269 32.4896C43.1679 32.5132 43.0342 32.4379 43.2197 32.5429C43.4051 32.6479 43.2713 32.5717 43.3123 32.5946C43.3357 32.5565 43.3601 32.5162 43.3854 32.4808C43.4976 32.3276 43.6419 32.1996 43.8093 32.1056C43.9763 32.0116 44.1622 31.9537 44.3544 31.9359C44.6301 31.9214 45.1492 31.9201 45.4329 31.9124L45.8969 31.9025C46.1445 31.885 46.3927 31.9298 46.6175 32.0328C46.7804 32.1023 46.97 32.2668 47.1124 32.3707L47.6016 32.741L47.6682 32.6596L47.6698 32.659Z" fill="#25244A"/>
<path d="M47.5099 31.756C46.1853 30.9371 44.509 30.8106 43.1875 31.704L43.2576 31.8082C43.5643 31.6001 43.9004 31.4393 44.2548 31.3313C45.1485 31.0596 46.1254 31.1897 46.9715 31.5637C47.1424 31.6373 47.3075 31.7234 47.4658 31.8215L47.5106 31.7551L47.5099 31.756Z" fill="#25244A"/>
<path d="M46.538 33.4469C45.9037 33.7136 45.1168 33.8614 44.4893 33.5049C44.4042 33.4542 44.3247 33.3947 44.2516 33.3279L44.167 33.4222C44.2483 33.4933 44.3364 33.5562 44.4302 33.6092C44.8996 33.8725 45.4715 33.8514 45.9783 33.7225C46.1811 33.6708 46.379 33.6005 46.5691 33.512L46.5382 33.4481L46.538 33.4469Z" fill="#25244A"/>
<path d="M45.0612 31.8997C45.0063 32.0314 44.9887 32.1754 45.0094 32.3165C45.036 32.5087 45.133 32.6839 45.2821 32.8084C45.431 32.9325 45.6212 32.997 45.8152 32.9889C46.017 32.9743 46.2052 32.8802 46.3383 32.7273C46.4717 32.5744 46.5387 32.3753 46.5253 32.1731C46.5202 32.0793 46.4706 31.9446 46.4334 31.8583" fill="#25244A"/>
<path opacity="0.6" d="M46.2919 32.4707C46.2919 32.5421 46.0648 32.8378 45.7846 32.8378C45.5045 32.8378 45.2773 32.5421 45.2773 32.4707C45.2773 32.3993 45.5045 32.5791 45.7846 32.5791C46.0648 32.5791 46.2919 32.3993 46.2919 32.4707Z" fill="white"/>
<path fill-rule="evenodd" clip-rule="evenodd" d="M47.1461 34.1681C47.0795 34.3079 46.9775 34.4404 46.8708 34.5524C46.7615 34.6668 46.6333 34.7573 46.4973 34.8374C46.479 34.8505 46.4537 34.8461 46.4411 34.8277C46.4281 34.8097 46.4325 34.7845 46.4508 34.7714C46.5669 34.6737 46.6625 34.574 46.7491 34.4886C46.865 34.3751 46.9824 34.2603 47.0762 34.1279C47.0877 34.1083 47.1121 34.1018 47.1316 34.113C47.1508 34.1242 47.1577 34.1489 47.1461 34.1681Z" fill="#25244A"/>
<path fill-rule="evenodd" clip-rule="evenodd" d="M55.3228 29.7829C55.4267 29.9202 55.5674 30.042 55.7086 30.14C55.8532 30.2403 56.0131 30.3102 56.1791 30.3675C56.202 30.3776 56.2287 30.3672 56.2385 30.3443C56.2482 30.3216 56.238 30.2951 56.2151 30.2851C56.0668 30.2047 55.9402 30.1173 55.8269 30.0435C55.6756 29.9457 55.5221 29.8468 55.39 29.7231C55.3735 29.7046 55.3449 29.7028 55.3265 29.7194C55.3081 29.736 55.3063 29.7643 55.3228 29.7829Z" fill="#25244A"/>
<path fill-rule="evenodd" clip-rule="evenodd" d="M48.935 29.9227C48.8496 30.0715 48.726 30.2096 48.5989 30.3242C48.4686 30.4415 48.3194 30.5307 48.1626 30.6083C48.1412 30.6211 48.1135 30.6142 48.101 30.5928C48.0885 30.5716 48.0952 30.5441 48.1166 30.5314C48.253 30.4332 48.3671 30.3309 48.4698 30.2438C48.607 30.128 48.7462 30.0109 48.8612 29.8721C48.8751 29.8517 48.9031 29.8464 48.9234 29.8605C48.9436 29.8745 48.949 29.9023 48.935 29.9227Z" fill="#1E2744"/>
<path d="M55.6394 29.2706C55.7652 29.498 55.9241 29.7058 56.1105 29.8871C56.2258 30.0018 56.3758 30.0753 56.5373 30.0962C56.6987 30.1171 56.8625 30.0844 57.0032 30.0029C58.1191 29.3542 59.3507 28.3276 61.8808 29.2617C60.6724 25.7721 57.3057 26.9621 55.8157 28.3527C55.5586 28.5923 55.4705 28.9626 55.6394 29.2706Z" fill="url(#paint7_linear_1641_497)"/>
<path d="M48.6145 29.2297C48.505 29.4748 48.3574 29.7052 48.1772 29.9134C48.066 30.0447 47.9127 30.1402 47.7409 30.1851C47.5692 30.23 47.3887 30.2219 47.2275 30.1618C45.9489 29.6829 44.5018 28.8453 41.8799 30.1521C42.7816 26.4999 46.5508 27.1815 48.3185 28.3428C48.6235 28.5428 48.7612 28.8981 48.6145 29.2297Z" fill="url(#paint8_linear_1641_497)"/>
<path d="M54.6067 38.5216C54.6067 38.797 54.2136 39.0202 53.7286 39.0202C53.2437 39.0202 52.8506 38.797 52.8506 38.5216C52.8506 38.2463 53.2437 38.0231 53.7286 38.0231C54.2136 38.0231 54.6067 38.2463 54.6067 38.5216Z" fill="url(#paint9_linear_1641_497)"/>
<path d="M50.6058 39.79L51.323 39.9375L51.6387 40.2075C50.9743 40.6822 49.3635 40.7432 49.7357 40.2075L50.6058 39.79Z" fill="#1B2C44"/>
<path d="M56.398 39.7725L56.0051 40.0264L55.6242 40.4072C56.4263 40.5598 57.1839 40.2682 56.9518 39.6591L56.398 39.7725Z" fill="#1B2C44"/>
<path fill-rule="evenodd" clip-rule="evenodd" d="M54.7481 30.3529C54.7481 30.3529 54.3004 31.4395 54.4278 32.7675C54.4977 33.496 54.7406 34.2963 55.3214 35.0309C55.8109 35.649 56.2119 36.1963 56.4871 36.706C56.7251 37.1467 56.868 37.5581 56.8883 37.9638C56.9201 38.5993 56.648 39.2176 55.9824 39.9104C55.3772 40.5429 54.7969 40.8462 54.1914 40.9041C53.3027 40.9891 52.3653 40.5525 51.2318 39.8764C51.2318 39.8764 51.2318 39.8763 51.2317 39.8763C51.0906 39.7926 50.934 39.7445 50.7747 39.7331C50.6156 39.7218 50.454 39.7469 50.3027 39.8096C50.1517 39.8716 50.0302 39.9388 49.9334 40.004C49.7648 40.1177 49.6695 40.2261 49.6204 40.2934C49.6199 40.2941 49.6194 40.2947 49.619 40.2954C49.6076 40.3122 49.5999 40.331 49.5962 40.3505C49.5926 40.37 49.5929 40.3903 49.5975 40.41C49.6021 40.4298 49.6106 40.4482 49.6225 40.464C49.6344 40.4799 49.6495 40.4934 49.6671 40.5034C49.6677 40.5038 49.6683 40.5041 49.6689 40.5044C49.7752 40.5605 50.0014 40.6529 50.3386 40.6454C50.5252 40.6413 50.7465 40.6067 51.0008 40.5171C51.0349 40.5052 51.053 40.4678 51.0411 40.4336C51.0292 40.3995 50.9919 40.3814 50.9577 40.3933C50.7187 40.4753 50.5111 40.5066 50.3362 40.509C50.0354 40.5131 49.8334 40.4311 49.7377 40.3799C49.7377 40.3799 49.7366 40.3781 49.7366 40.3781L49.7372 40.3764C49.7813 40.3173 49.8667 40.2239 50.0148 40.1257C50.1051 40.0659 50.2183 40.0046 50.3592 39.9481C50.3593 39.9481 50.3594 39.9481 50.3595 39.948C50.4891 39.8954 50.6274 39.8751 50.7632 39.8858C50.8987 39.8966 51.0317 39.9386 51.1512 40.0108C52.3183 40.7175 53.2886 41.1645 54.2079 41.0816C54.8512 41.0236 55.472 40.7091 56.1175 40.0402C56.8291 39.2996 57.1107 38.6336 57.0754 37.9542C57.053 37.5234 56.9022 37.0859 56.6473 36.6191C56.3654 36.1029 55.9552 35.5494 55.4546 34.9248C54.8903 34.2219 54.6521 33.453 54.5791 32.7524C54.4448 31.4623 54.8695 30.4022 54.8695 30.4022C54.8831 30.3687 54.867 30.3305 54.8335 30.3168C54.8 30.3032 54.7617 30.3194 54.7481 30.3529Z" fill="#623FC6"/>
<path fill-rule="evenodd" clip-rule="evenodd" d="M48.8554 38.6607C48.8554 38.6607 48.6317 38.8429 48.5047 39.2659C48.4493 39.4503 48.4137 39.6806 48.4221 39.9613C48.4314 40.1791 48.5207 40.4173 48.6788 40.6265C48.8158 40.8077 49.0035 40.9675 49.2253 41.0756C49.6026 41.2593 50.0799 41.2949 50.5813 41.0377C50.5969 41.0303 50.6035 41.0116 50.5961 40.996C50.5886 40.9804 50.5699 40.9737 50.5543 40.9812C50.0736 41.1945 49.6338 41.1367 49.2887 40.9516C49.0915 40.8457 48.9265 40.6976 48.8021 40.5333C48.6626 40.3491 48.5728 40.1453 48.56 39.9538C48.5389 39.6891 48.5626 39.4701 48.6053 39.2931C48.7021 38.8919 48.8967 38.7079 48.8967 38.7079C48.9097 38.6965 48.911 38.6767 48.8996 38.6637C48.8883 38.6506 48.8684 38.6493 48.8554 38.6607Z" fill="#623FC6"/>
<path fill-rule="evenodd" clip-rule="evenodd" d="M57.3204 38.7234C57.3204 38.7234 57.5091 38.9075 57.6067 39.3049C57.626 39.3832 57.6417 39.4697 57.6534 39.5648C57.6682 39.6838 57.6777 39.816 57.6721 39.9631C57.6698 40.0544 57.6511 40.1495 57.6182 40.2447C57.5872 40.3339 57.5446 40.4232 57.4902 40.5092C57.4777 40.5275 57.4824 40.5525 57.5007 40.565C57.519 40.5776 57.5441 40.5728 57.5566 40.5545C57.6212 40.4667 57.6739 40.3745 57.7132 40.2811C57.7569 40.1771 57.7829 40.0716 57.7915 39.9696C57.8026 39.8147 57.8009 39.6744 57.7859 39.5487C57.7738 39.4469 57.7535 39.3546 57.729 39.2718C57.6028 38.8448 57.3733 38.6629 57.3733 38.6629C57.3566 38.6483 57.3312 38.65 57.3166 38.6667C57.302 38.6834 57.3037 38.7088 57.3204 38.7234Z" fill="#623FC6"/>
<path fill-rule="evenodd" clip-rule="evenodd" d="M56.1051 40.0284C56.1051 40.0284 56.3016 39.8805 56.531 39.7808C56.6308 39.7374 56.7369 39.703 56.8352 39.6958C56.8669 39.6937 56.8965 39.7044 56.9193 39.7234C56.9419 39.7422 56.9574 39.7695 56.9611 39.8008C56.9611 39.801 56.9611 39.8011 56.9612 39.8013C56.9772 39.9283 56.9326 40.0225 56.8699 40.0908C56.7566 40.2142 56.5874 40.2573 56.5874 40.2573C56.5517 40.2667 56.5303 40.3033 56.5396 40.339C56.549 40.3747 56.5856 40.3961 56.6213 40.3868C56.6213 40.3868 56.8285 40.3313 56.9662 40.1783C57.0502 40.0848 57.1099 39.9567 57.0864 39.7848C57.0782 39.7209 57.0457 39.6652 56.9987 39.6269C56.952 39.5888 56.8912 39.5676 56.8266 39.5725C56.8264 39.5725 56.8262 39.5725 56.8261 39.5725C56.715 39.5817 56.595 39.6206 56.4826 39.6708C56.2413 39.7785 56.0354 39.9367 56.0354 39.9367C56.0101 39.956 56.0052 39.9921 56.0244 40.0174C56.0437 40.0427 56.0798 40.0476 56.1051 40.0284Z" fill="#623FC6"/>
<path d="M53.8002 48.3024L51.9874 48.2813C51.9874 48.2813 50.6249 47.6965 49.0029 46.0296C50.6131 45.783 51.7712 44.0616 56.9508 45.0564C57.1778 45.0127 57.4914 46.4297 56.0857 47.6948C55.1882 48.441 54.1466 48.2813 54.1466 48.2813L54.0662 48.2918L53.8002 48.3024Z" fill="#FFA184"/>
<path d="M56.4809 45.6723C56.4941 45.9292 56.1834 46.154 55.787 46.1743C55.3905 46.1946 55.0585 46.0028 55.0453 45.7459C55.0322 45.489 55.3429 45.2642 55.7393 45.2439C56.1357 45.2236 56.4677 45.4154 56.4809 45.6723Z" fill="#FFC1AD"/>
<path d="M51.2873 44.2192L48.249 46.1297C48.249 46.1297 49.6755 46.0216 52.343 45.0637L53.6336 45.1221L53.8621 45.1857C53.8621 45.1857 54.6191 45.4088 55.0751 45.1221L55.407 45.0328C55.407 45.0328 55.8942 44.5651 57.8717 45.3736C57.5362 43.7513 55.6169 43.2949 55.6169 43.2949C55.0093 43.954 54.4261 43.6951 54.4261 43.6951L53.2184 43.4828L52.343 43.7763L51.2873 44.2192Z" fill="#FF9C7D"/>
<path fill-rule="evenodd" clip-rule="evenodd" d="M48.6194 46.1421C49.147 46.0897 49.5975 46.0098 49.9923 45.9148C50.3247 45.8348 50.6178 45.7453 50.8842 45.655C51.1473 45.5658 51.3843 45.4762 51.6081 45.3957C51.8593 45.3054 52.0933 45.2261 52.3305 45.1735C52.7979 45.0698 53.2761 45.0674 53.9152 45.2709C53.9455 45.2811 53.9784 45.2648 53.9886 45.2345C53.9988 45.2042 53.9825 45.1714 53.9522 45.1612C53.29 44.9258 52.7883 44.9111 52.2958 45.0065C52.0498 45.0541 51.8059 45.1292 51.5459 45.2198C51.3217 45.2979 51.0851 45.3874 50.8235 45.4795C50.5623 45.5715 50.2762 45.6666 49.9513 45.7548C49.5647 45.8597 49.1241 45.9568 48.6059 46.0271C48.5741 46.0308 48.5514 46.0596 48.5551 46.0913C48.5588 46.1231 48.5876 46.1458 48.6194 46.1421Z" fill="#222548"/>
<path fill-rule="evenodd" clip-rule="evenodd" d="M57.8431 45.3114C57.4894 45.2278 57.2352 45.097 56.9758 44.994C56.7822 44.9171 56.5862 44.8532 56.3516 44.8318C56.1667 44.8149 55.9576 44.8251 55.7079 44.8748C55.4559 44.9249 55.1622 45.0178 54.8061 45.1642C54.7761 45.1755 54.761 45.2089 54.7723 45.2388C54.7836 45.2687 54.817 45.2838 54.8469 45.2726C55.2004 45.1509 55.4908 45.0806 55.7375 45.0428C55.9704 45.0071 56.163 45.0043 56.3342 45.0202C56.5514 45.0404 56.7335 45.0925 56.9156 45.1558C57.1849 45.2493 57.4541 45.3616 57.8198 45.4249C57.8512 45.4313 57.8818 45.411 57.8882 45.3797C57.8946 45.3484 57.8744 45.3178 57.8431 45.3114Z" fill="#222548"/>
<path fill-rule="evenodd" clip-rule="evenodd" d="M55.5354 43.2827C55.5354 43.2827 55.2679 43.5782 54.7538 43.6189C54.5202 43.6375 54.2358 43.604 53.9008 43.4649C53.9006 43.4649 53.9004 43.4648 53.9003 43.4648C53.7793 43.4176 53.6527 43.3879 53.5246 43.3785C53.3966 43.3692 53.2672 43.3799 53.1408 43.409C53.1403 43.4091 53.1399 43.4092 53.1395 43.4093C52.9463 43.4586 52.6883 43.5388 52.3628 43.6761C52.1478 43.7668 51.9037 43.8829 51.628 44.0288C51.6037 44.0408 51.5937 44.0702 51.6056 44.0945C51.6176 44.1188 51.647 44.1288 51.6713 44.1169C51.9515 43.9888 52.1993 43.89 52.4158 43.8113C52.7382 43.6941 52.9908 43.6244 53.1803 43.5845C53.2884 43.5624 53.3998 43.5574 53.51 43.5664C53.6198 43.5755 53.7286 43.5989 53.8326 43.6388C54.2038 43.7768 54.5159 43.8033 54.7696 43.7708C55.3361 43.6982 55.6107 43.3456 55.6107 43.3456C55.6281 43.3248 55.6253 43.2938 55.6045 43.2765C55.5837 43.2591 55.5528 43.2619 55.5354 43.2827Z" fill="#222548"/>
<path fill-rule="evenodd" clip-rule="evenodd" d="M56.608 46.9939C56.3844 47.3803 56.0645 47.6897 55.69 47.9031C55.3183 48.1149 54.8919 48.2313 54.4489 48.2268C54.1499 48.2269 53.8324 48.2256 53.523 48.2272C53.1945 48.2289 52.8752 48.2336 52.5972 48.2363C52.3136 48.2402 52.0353 48.1877 51.7768 48.0851C51.5167 47.9819 51.2764 47.8286 51.0715 47.6301L51.0306 47.729C50.9986 47.6131 50.9727 47.6391 50.9727 47.6711C50.9727 47.6871 50.9792 47.7016 50.9897 47.712C51.2001 47.9293 51.4495 48.0999 51.7219 48.2175C51.9958 48.3358 52.293 48.3994 52.5972 48.4036C52.8752 48.4064 53.1945 48.4111 53.523 48.4128C53.8324 48.4143 54.1499 48.413 54.4489 48.4132C54.9232 48.4083 55.3785 48.2771 55.7704 48.04C56.1597 47.8044 56.4863 47.4656 56.7092 47.0504C56.7179 46.9747 56.6535 46.9504 56.608 46.9939Z" fill="#222548"/>
<path d="M31.0752 28.6932L30.7502 28.6443L30.2505 28.5099L29.2234 28.5873L28.4952 28.918L27.8234 29.5757L27.3626 30.5395L27.1621 32.446L27.3134 34.2998L27.8867 35.8404L28.9103 37.156L29.656 37.9931L30.852 39.1187L31.5977 39.5123L32.3294 39.6249H32.5108C35.0263 31.2257 31.0752 28.6932 31.0752 28.6932Z" fill="#EC9982"/>
<path d="M31.079 28.6941C31.0789 28.694 31.0788 28.694 31.0787 28.6939L30.9892 28.861L30.9891 28.8609C30.9888 28.8607 30.9884 28.8605 30.9883 28.8605C30.9729 28.8521 29.9369 28.2934 28.7913 28.9226L28.7912 28.9227C27.9727 29.3712 27.4355 30.2023 27.3627 31.1329L27.3627 31.1331C27.2226 32.8754 27.316 34.0563 27.6431 35.0072C28.1343 36.4353 29.1509 37.3427 30.6725 38.8562L30.6727 38.8565C31.0838 39.2687 31.6421 39.5004 32.2243 39.5004H32.2246C32.337 39.5008 32.4127 39.5008 32.4127 39.5008C32.465 39.5008 32.5075 39.5432 32.5075 39.5955C32.5075 39.6478 32.465 39.6903 32.4127 39.6903C32.4127 39.6903 32.3368 39.6903 32.2241 39.69C31.5917 39.6899 30.9853 39.4382 30.5387 38.9905C28.9907 37.4506 27.9636 36.5217 27.4639 35.0688C27.1303 34.099 27.0309 32.8949 27.1738 31.1179C27.2516 30.1237 27.8255 29.2357 28.7001 28.7565C29.9327 28.0795 31.0482 28.6773 31.0787 28.6939L31.0787 28.6939L31.079 28.6941Z" fill="#623FC6"/>
<path fill-rule="evenodd" clip-rule="evenodd" d="M28.9093 28.8202C28.9093 28.8202 30.8392 29.9423 31.3786 31.9384C31.5083 32.5069 31.3356 32.9592 31.1975 33.4246C31.0866 33.7983 30.996 34.1799 31.0705 34.627C31.1446 35.0711 31.382 35.5819 31.9358 36.2142C31.9703 36.2535 32.0301 36.2575 32.0694 36.223C32.1087 36.1886 32.1126 36.1288 32.0782 36.0895C31.556 35.4933 31.327 35.0145 31.2572 34.5959C31.1879 34.1802 31.2758 33.8259 31.3789 33.4784C31.526 32.9827 31.7015 32.5001 31.5627 31.8945C31.5624 31.8933 31.5621 31.8921 31.5618 31.891C31.0037 29.8215 29.0045 28.6566 29.0045 28.6566C28.9594 28.6304 28.9014 28.6457 28.8752 28.6908C28.8489 28.736 28.8642 28.7939 28.9093 28.8202Z" fill="#623FC6"/>
<defs>
<linearGradient id="paint0_linear_1641_497" x1="27.1231" y1="4.12924" x2="96.2618" y2="5.19172" gradientUnits="userSpaceOnUse">
<stop stop-color="#E0705F" stop-opacity="0.67"/>
<stop offset="1" stop-color="#D06656" stop-opacity="0"/>
</linearGradient>
<linearGradient id="paint1_linear_1641_497" x1="27.1231" y1="4.12924" x2="96.2618" y2="5.19172" gradientUnits="userSpaceOnUse">
<stop stop-color="#E0705F" stop-opacity="0.67"/>
<stop offset="1" stop-color="#D06656" stop-opacity="0"/>
</linearGradient>
<linearGradient id="paint2_linear_1641_497" x1="66.4219" y1="34.8441" x2="38.6071" y2="76.008" gradientUnits="userSpaceOnUse">
<stop stop-color="#765770"/>
<stop offset="1" stop-color="#484362"/>
</linearGradient>
<linearGradient id="paint3_linear_1641_497" x1="66.4219" y1="34.8441" x2="38.6071" y2="76.008" gradientUnits="userSpaceOnUse">
<stop stop-color="#765770"/>
<stop offset="1" stop-color="#484362"/>
</linearGradient>
<linearGradient id="paint4_linear_1641_497" x1="54.8076" y1="48.6962" x2="59.3092" y2="59.3334" gradientUnits="userSpaceOnUse">
<stop stop-color="#C78195"/>
<stop offset="1" stop-color="#9C6877" stop-opacity="0"/>
</linearGradient>
<linearGradient id="paint5_linear_1641_497" x1="58.1923" y1="27.2266" x2="59.7595" y2="42.149" gradientUnits="userSpaceOnUse">
<stop stop-color="#F2FBFC"/>
<stop offset="1" stop-color="#F2FBFC" stop-opacity="0"/>
</linearGradient>
<linearGradient id="paint6_linear_1641_497" x1="44.9963" y1="27.2266" x2="43.4292" y2="42.149" gradientUnits="userSpaceOnUse">
<stop stop-color="#F2FBFC"/>
<stop offset="1" stop-color="#F2FBFC" stop-opacity="0"/>
</linearGradient>
<linearGradient id="paint7_linear_1641_497" x1="58.7168" y1="26.9756" x2="58.7168" y2="30.1023" gradientUnits="userSpaceOnUse">
<stop stop-color="#192940"/>
<stop offset="1" stop-color="#321D55"/>
</linearGradient>
<linearGradient id="paint8_linear_1641_497" x1="45.2767" y1="27.4168" x2="45.2767" y2="30.2137" gradientUnits="userSpaceOnUse">
<stop stop-color="#192940"/>
<stop offset="1" stop-color="#321D55"/>
</linearGradient>
<linearGradient id="paint9_linear_1641_497" x1="53.7286" y1="38.0231" x2="50.2062" y2="38.839" gradientUnits="userSpaceOnUse">
<stop stop-color="#FFE3D1"/>
<stop offset="1" stop-color="#FFE3D1" stop-opacity="0"/>
</linearGradient>
</defs>
</svg>
