<svg width="78" height="78" viewBox="0 0 78 78" fill="none" xmlns="http://www.w3.org/2000/svg">
<mask id="mask0_1641_599" style="mask-type:alpha" maskUnits="userSpaceOnUse" x="16" y="36" width="51" height="41">
<path d="M28.5482 37.9265L28.5068 36.5841L28.8645 36.9447C28.8645 36.9447 30.0503 38.2337 30.5617 38.4533L31.5105 38.636L34.3462 40.6983L49.0481 49.875L55.913 56.3926L56.5085 58.0385L57.7358 59.2145L62.3603 63.8114L66.2889 75.3788L44.0271 76.2518L22.2565 74.8332L16.5273 60.5922L24.8275 53.8783L26.3109 52.9585C27.0318 52.3674 28.4786 51.1768 28.4985 51.1437C28.5184 51.1105 29.457 50.2128 29.9238 49.7681L29.5012 47.3816L29.0371 44.4647L28.8963 42.451L28.6477 40.2551L28.5482 37.9265Z" fill="#FFD0B1"/>
</mask>
<g mask="url(#mask0_1641_599)">
<path d="M28.5482 37.9265L28.5068 36.5841L28.8645 36.9447C28.8645 36.9447 30.0503 38.2337 30.5617 38.4533L31.5105 38.636L34.3462 40.6983L49.0481 49.875L55.9172 56.3466L56.5085 58.0385L57.7358 59.2145L62.3603 63.8114L66.2889 75.3788L44.0271 76.2518L22.2565 74.8332L16.5273 60.5922L24.8275 53.8783L26.3109 52.9585C27.0318 52.3674 28.4786 51.1768 28.4985 51.1437C28.5184 51.1105 29.457 50.2128 29.9238 49.7681L29.5012 47.3816L29.0371 44.4647L28.8963 42.451L28.6477 40.2551L28.5482 37.9265Z" fill="#DFE7EC"/>
<g opacity="0.5">
<path d="M55.9804 56.3657L56.0784 56.8141L56.1628 57.344C56.1754 57.3792 56.192 57.421 56.2126 57.468C54.3283 58.4857 53.7642 61.5156 53.5843 63.3511L53.3241 62.5515L53.1978 60.7943L53.3241 59.4081C52.4299 59.5869 51.5473 59.6917 50.6797 59.732L48.6916 56.9198L49.98 56.7738L51.1503 56.645L54.4143 56.441L55.9804 56.3657Z" fill="url(#paint0_linear_1641_599)"/>
<path d="M45.6045 54.6988L44.483 53.5274L39.7477 49.3404H36.8318L34.2557 47.546L33.0934 46.7236L33.4174 45.2282L35.3115 43.5335L31.5607 38.5871L30.7886 38.5221L29.6719 37.7639L28.5275 36.7113L28.5342 36.7242V37.4522L28.7314 40.3784L29.0849 44.3162L29.4983 47.2532L29.9117 49.6355C29.829 49.8878 28.7169 50.9771 28.1712 51.4902C27.9145 52.0123 25.9321 53.2778 24.9731 53.8452L24.9291 53.9756C24.9112 54.2739 24.9326 54.6729 24.9835 55.1321L25.0044 55.0643C25.8971 54.2158 27.8469 52.6036 28.5045 52.943C29.1622 53.2824 30.4579 57.2741 31.0236 59.2275C31.7338 57.9573 32.9229 56.9 34.2557 56.3141C36.4527 62.5926 39.9069 64.6719 39.9069 64.6719C37.9515 62.6622 36.5912 58.8764 35.6786 55.8856C36.7134 55.7159 37.7634 55.8561 38.6911 56.4121C41.4017 58.0369 44.7264 59.3989 48.3927 59.6926L45.6045 54.6988Z" fill="url(#paint1_linear_1641_599)"/>
</g>
<path d="M21.0801 59.8248C23.3059 57.6979 24.1509 54.9541 24.2951 53.8481L23.2458 49.5368C25.6669 48.3467 30.0441 46.9146 28.1839 50.7063C26.3237 54.4979 26.953 60.2276 27.5002 62.6185C27.9032 61.8988 28.6916 61.4231 29.0354 61.2751C28.6132 62.8679 28.8595 63.8898 29.0354 64.2017C30.827 62.7901 33.1322 63.2377 34.0609 63.6379C32.0267 64.1657 31.2543 65.6409 31.1224 66.3126C32.2702 65.4831 33.7356 65.3753 34.3247 65.425C33.9793 65.8376 33.757 66.2686 33.6891 66.4325C34.6102 66.3941 35.4802 65.8488 35.8 65.581C36.203 68.7665 35.0244 70.5224 34.3847 71.0022C34.8357 69.3806 34.6846 68.1277 34.5526 67.7039C33.6315 68.3755 32.4257 69.7988 31.938 70.4265C32.0435 69.6205 32.3418 68.5634 32.4777 68.1356C32.0075 68.5386 31.4662 69.1591 31.2543 69.419C31.3694 68.5075 31.6301 67.7678 31.7461 67.512C30.9209 67.7231 30.0109 68.7593 29.6591 69.2511C29.496 67.3417 29.943 65.9048 30.1868 65.425C28.9587 66.1543 28.3398 67.7918 28.1839 68.5195C27.6465 67.2817 27.5602 65.2211 27.5842 64.3456C26.9029 65.1612 26.3854 67.2774 26.2118 68.2335C25.0247 63.0234 24.8241 58.341 24.8722 56.651C23.7511 58.2503 21.877 59.4333 21.0801 59.8248Z" fill="#1A2646"/>
<path d="M31.1367 61.7132C25.4878 55.8931 28.783 50.9789 31.1367 49.2493C26.884 59.5735 34.0609 58.7443 38.082 61.2751C36.0419 57.7829 34.3847 52.4381 39.5877 49.2493C42.3872 48.9923 47.3288 48.7785 44.6998 49.9787C41.4135 51.4789 37.6352 55.4398 39.5877 58.3685C41.5402 61.2973 40.7499 61.8319 41.0521 64.3456C41.2939 66.3565 42.734 67.0776 43.4239 67.1868C42.0387 64.0145 42.9279 61.1846 43.5456 60.1662C43.4915 66.7539 44.9254 68.526 47.2385 71.1522C49.089 73.2531 49.6869 75.5343 49.7546 76.4123L48.3613 76.1012C47.5091 72.273 43.1939 70.0681 40.6914 76.6152C39.1655 76.0958 39.2891 74.1984 39.5416 73.3146C37.7668 75.9659 35.9433 76.277 35.2535 76.1012C36.6386 75.6142 37.4539 74.0405 37.6884 73.3146C36.1841 75.0445 34.1095 75.3333 33.2603 75.2614C36.9586 73.6302 37.5407 70.9602 37.3695 69.8291C36.6971 70.5264 35.7922 71.0017 35.4238 71.1522C38.2364 66.9048 36.2488 64.1166 34.6456 62.778C37.1485 63.9803 38.3776 66.916 38.6792 68.2335C40.0433 62.4086 33.6891 61.2751 31.1367 61.7132Z" fill="#1A2646"/>
<path d="M34.429 45.457C29.4646 52.5275 32.7366 57.0108 34.9932 58.3685C33.7771 56.2586 32.4056 51.136 36.648 47.5255L34.9932 45.0056L34.429 45.457Z" fill="#1A2646"/>
<path d="M28.4491 45.9835C29.5323 44.5393 32.3104 43.6016 33.564 43.3132C34.6672 43.426 36.4975 43.7946 34.9932 44.3663C33.4888 44.9379 30.6054 47.8598 29.3517 49.2493L28.4491 45.9835Z" fill="#1A2646"/>
<path d="M29.9712 42.8092C31.0601 42.58 31.8816 41.2689 32.1563 40.642L32.8011 39.4958C33.0554 40.057 33.4114 41.4015 32.8011 42.2898C32.1907 43.1782 30.6601 43.0063 29.9712 42.8092Z" fill="#1A2646"/>
<path d="M28.5383 43.3132C29.1974 41.5982 30.8309 39.5044 31.5652 38.6719C31.9772 37.5853 32.4464 35.7632 31.0279 37.1674C29.6094 38.5716 28.7771 41.8497 28.5383 43.3132Z" fill="#1A2646"/>
<path d="M42.9784 57.4795C42.9525 56.0277 44.0154 53.8285 44.5501 52.9104C45.7657 52.5033 47.8392 52.0804 46.4073 53.6465C44.9755 55.2126 45.349 58.0189 45.7148 59.2263C46.7755 57.1474 48.7826 55.5711 49.6536 55.0428L50.7555 55.1463L50.4153 55.681C47.7192 56.7179 46.8292 60.7685 46.7212 62.6642C45.3602 63.8567 45.4952 65.8398 45.7328 66.6823C44.2584 64.8677 45.1657 62.8748 44.9065 60.6389C44.6991 58.8502 43.5347 57.7873 42.9784 57.4795Z" fill="#1A2646"/>
<path d="M47.2385 68.2335C45.8154 65.5252 46.8123 63.3922 47.4887 62.6642C47.4053 62.9116 47.2587 63.8773 47.3393 65.7609C47.4401 68.1153 48.504 68.3184 49.4462 69.8291C50.3881 71.3392 50.634 74.1405 50.3881 75.3087C49.5809 74.6056 49.1404 72.9434 49.0727 71.9079C48.9326 69.7645 47.992 69.4935 47.2385 68.2335Z" fill="#1A2646"/>
<path d="M48.703 60.6201C49.1466 59.2868 50.606 56.7478 53.3703 56.0528C52.3324 55.7645 48.3537 57.3223 48.703 60.6201Z" fill="#1A2646"/>
<path d="M48.8364 66.9239C48.1827 63.6613 50.7236 59.7866 52.0758 58.257C51.355 59.6986 51.2892 61.3891 51.3464 62.0541C52.3618 60.8256 55.0577 58.8783 57.7178 60.9172C60.378 62.956 59.6557 65.7712 58.9621 66.9239C59.1194 64.6713 58.37 60.4966 54.1138 61.8182C48.7935 63.4701 50.9007 71.6545 53.8993 71.9079C56.2981 72.1105 57.7305 75.1305 58.1469 76.6152C57.0957 77.5466 54.7359 78.7478 53.7062 76.1012C52.6765 73.4546 52.562 76.3172 52.6335 78.0793L51.5609 81.2543C51.3893 81.0899 51.1061 79.7269 51.3464 75.5908C51.6467 70.4207 49.6536 71.0022 48.8364 66.9239Z" fill="#1A2646"/>
</g>
<path d="M28.4248 36.6372C28.4598 37.8206 28.5082 39.0114 28.5908 40.193C28.7798 43.4602 29.2767 46.6877 29.8489 49.903L30.0026 49.7627C29.2077 45.4286 28.718 41.0389 28.6265 36.632L28.4248 36.6372Z" fill="#623FC6"/>
<path d="M29.8363 49.6587C29.8221 49.675 28.2932 51.3724 26.635 52.6498C26.0204 53.1228 25.4792 53.4544 24.9336 53.7381L24.9507 53.9462C25.529 53.6502 26.0987 53.3054 26.7522 52.802C28.4258 51.5129 29.8634 49.887 29.8776 49.8708L29.8363 49.6587Z" fill="#623FC6"/>
<path d="M55.876 56.4393C55.8826 56.4815 56.0729 58.0338 57.375 59.0775C57.5172 59.1916 57.6703 59.3061 57.8342 59.4221L57.8514 59.1981C57.7256 59.1073 57.6068 59.0174 57.4951 58.9278C56.2558 57.934 56.0652 56.3954 56.0652 56.409L55.876 56.4393Z" fill="#623FC6"/>
<path fill-rule="evenodd" clip-rule="evenodd" d="M54.3783 56.418C53.6011 57.7133 52.5586 60.4304 53.4909 63.3837L53.6669 63.3281C52.7546 60.4385 53.7761 57.7803 54.5365 56.5129L54.3783 56.418Z" fill="#623FC6"/>
<mask id="mask1_1641_599" style="mask-type:alpha" maskUnits="userSpaceOnUse" x="28" y="13" width="33" height="44">
<path d="M28.5781 26.1779V27.8962C29.0245 29.7889 29.923 33.5968 29.9452 33.686C29.9675 33.7751 31.0509 37.0111 31.5898 38.6179L32.5075 46.2744L32.6378 46.9586L33.5338 48.213L34.4786 49.4891L35.7275 50.271L39.1757 52.0901L44.3289 55.0169L47.4838 56.5808L47.9345 56.7763H49.8676L55.8679 56.3256L57.8716 56.1301L58.1865 55.826C58.2716 55.6613 58.4439 55.3254 58.4526 55.2993C58.4613 55.2732 58.7205 52.9137 58.849 51.7371L59.3269 48.1207L59.6853 44.8626L60.0871 41.7511L60.44 39.0361L60.5052 37.9826L60.3423 36.2124L60.0762 34.1435L59.8482 31.9335L59.9893 30.9995L60.4998 29.6528L60.5595 28.2844L60.5106 27.4753L59.2903 24.9319L57.898 22.0774C57.3061 21.1108 55.8396 19.3545 55.2807 18.8163C54.8394 18.3914 53.86 17.4749 53.0202 16.875L51.1872 15.6752L48.5744 14.5088L46.3881 13.9756L43.9553 13.7023L41.4558 13.7489L38.4563 14.2488L36.3901 14.9754L34.4305 15.9485C33.8078 16.4553 32.4988 17.4057 32.3989 17.5274C32.299 17.649 31.3581 18.7763 30.9002 19.3247C30.6196 19.7899 30.052 20.7257 30.0259 20.7474C29.9999 20.7691 29.5155 21.9656 29.2766 22.5611L28.8584 24.163L28.5781 26.1779Z" fill="#DFE7EC"/>
</mask>
<g mask="url(#mask1_1641_599)">
<path d="M28.5781 26.1779V27.8962C29.0245 29.7889 29.923 33.5968 29.9452 33.686C29.9675 33.7751 31.0509 37.0111 31.5898 38.6179L32.5075 46.2744L32.6378 46.9586L33.5338 48.213L34.4786 49.4891L35.7275 50.271L39.1757 52.0901L44.3289 55.0169L47.4838 56.5808L47.9345 56.7763H49.8676L55.8679 56.3256L57.8716 56.1301L58.1865 55.826C58.2716 55.6613 58.4439 55.3254 58.4526 55.2993C58.4613 55.2732 58.7205 52.9137 58.849 51.7371L59.3269 48.1207L59.6853 44.8626L60.0871 41.7511L60.44 39.0361L60.5052 37.9826L60.3423 36.2124L60.0762 34.1435L59.8482 31.9335L59.9893 30.9995L60.4998 29.6528L60.5595 28.2844L60.5106 27.4753L59.2903 24.9319L57.898 22.0774C57.3061 21.1108 55.8396 19.3545 55.2807 18.8163C54.8394 18.3914 53.86 17.4749 53.0202 16.875L51.1872 15.6752L48.5744 14.5088L46.3881 13.9756L43.9553 13.7023L41.4558 13.7489L38.4563 14.2488L36.3901 14.9754L34.4305 15.9485C33.8078 16.4553 32.4988 17.4057 32.3989 17.5274C32.299 17.649 31.3581 18.7763 30.9002 19.3247C30.6196 19.7899 30.052 20.7257 30.0259 20.7474C29.9999 20.7691 29.5155 21.9656 29.2766 22.5611L28.8584 24.163L28.5781 26.1779Z" fill="#DFE7EC"/>
<path d="M60.3474 49.0889L60.7973 47.5929C61.831 43.043 60.4972 37.1165 59.6832 33.8392C59.2839 32.2311 59.3508 30.5608 59.1885 28.9118C58.4174 21.0761 49.8574 12.9237 49.8574 12.9237L56.0497 16.7924C59.9283 18.4971 67.3899 22.8051 67.6428 23.1959C67.8956 23.5866 65.3591 32.3932 64.0593 36.7476L60.7973 47.5929C60.6795 48.1114 60.5309 48.6121 60.3474 49.0889Z" fill="white"/>
<g opacity="0.5">
<path d="M32.2366 17.7498L40.0441 27.6813H60.5267V29.1935L60.4787 29.6677L59.8964 31.3305L59.9984 32.573L60.2145 35.1422H54.7521L53.7436 33.8096H49.9616L47.6758 35.1422L37.5143 35.1646L37.5141 35.1651C38.3201 35.8992 39.1073 36.7287 39.8642 37.6347L40.1672 37.5923L47.5965 37.6502L47.3823 38.1263H40.2659C44.3223 43.1993 47.4185 50.4316 47.6791 56.7356C47.4904 57.202 38.6621 59.643 34.2715 60.8052C28.2281 49.8288 16.2031 27.6281 16.451 26.6364C16.761 25.3967 31.8309 17.3237 32.2366 17.7498Z" fill="url(#paint2_linear_1641_599)"/>
<path d="M55.5929 37.4327C55.6231 37.4512 55.6585 37.4798 55.6974 37.516L60.4787 37.5654V38.1263H60.4216L60.2667 40.4116L59.8196 44.031L59.3113 47.9506L58.7111 52.5744C58.6192 53.4175 58.4331 55.1123 58.4233 55.1466C58.4135 55.1809 58.2926 55.4916 58.2334 55.6427V53.1133L58.7662 46.248L59.4276 41.6119L60.2115 38.6355L60.3001 38.1263H56.2136C56.2687 38.2 56.3177 38.2676 56.356 38.3219V39.2376L55.8583 39.722L53.6561 40.331C53.8256 41.1029 54.0894 42.2819 54.2503 42.998L53.0125 43.721L51.7528 42.998L51.6084 40.8972L50.9631 41.0756C49.4343 41.4984 47.8595 40.6916 47.2836 39.2584C47.1878 39.02 46.9637 38.6797 47.212 38.6138C47.4722 38.5448 49.6429 37.8861 50.6958 37.5654L53.7084 38.2356L54.0999 38.1361L55.4934 37.2535L55.5929 37.4327Z" fill="url(#paint3_linear_1641_599)"/>
</g>
<path d="M31.9643 47.1009C30.7281 46.5813 28.5473 47.8463 27.6115 48.5437L24.8738 49.8878L24.4747 45.338C27.749 45.4912 28.0431 39.288 32.8295 39.891C29.6208 40.6471 29.6856 44.5093 27.5818 45.5853C28.0732 46.2224 29.7457 46.9481 32.5046 44.7544C35.2634 42.5607 37.6997 42.8078 38.573 43.2055C35.2611 42.9226 35.1531 46.9765 32.9463 49.5695C31.1809 51.6438 28.6452 51.4701 27.598 51.124C27.1689 51.4277 26.5114 51.6182 27.3137 49.9504C28.116 48.2827 30.1904 47.8116 31.1273 47.7846C30.9207 48.0267 30.6956 48.6044 31.4481 48.9788C32.3888 49.4469 33.5096 47.7503 31.9643 47.1009Z" fill="#1A2646"/>
<path d="M38.3696 48.7705C36.9762 49.0475 36.5573 50.2743 36.5221 50.8531C36.499 51.4383 36.5203 52.2683 36.79 50.9065C37.0597 49.5446 37.9554 48.915 38.3696 48.7705Z" fill="#1A2646"/>
<path d="M38.963 44.8195C37.1494 45.2222 37.2401 45.5163 35.9678 47.5496C37.9587 46.246 37.2346 45.7662 38.963 44.8195Z" fill="#1A2646"/>
<path d="M34.648 51.9741C36.3976 48.0435 38.9728 47.2954 38.9728 47.2954C37.01 47.4183 34.4295 47.9856 33.2277 51.2846C32.0259 54.5835 33.6738 53.1188 34.648 51.9741Z" fill="#1A2646"/>
</g>
<path fill-rule="evenodd" clip-rule="evenodd" d="M31.6986 18.176C35.7177 13.4871 42.9881 12.6295 48.737 14.4219L48.7391 14.4225L48.7412 14.4233C52.7783 15.8521 56.7991 19.3935 58.4542 22.9412C58.4543 22.9414 58.4543 22.9416 58.4544 22.9417L60.5391 27.271L60.5397 27.2722L60.5402 27.2735C60.6203 27.4504 60.6618 27.6423 60.6618 27.8365V29.2685C60.6618 29.4359 60.631 29.6019 60.5709 29.7582L60.2247 30.6592C60.0254 31.1777 59.9535 31.7365 60.015 32.2886L60.5591 37.172C60.6278 37.7894 60.6237 38.4126 60.5468 39.029L58.5011 55.4214C58.4389 55.92 58.0331 56.3052 57.532 56.3413L48.9772 56.9583C48.2714 57.0092 47.5658 56.8569 46.9439 56.5195L35.4469 50.2819C34.9285 50.0007 34.4707 49.62 34.0997 49.1617L32.9417 47.7313C32.658 47.3807 32.4797 46.9567 32.4277 46.5087L31.5019 38.532L31.7344 38.505L32.6601 46.4817C32.707 46.8857 32.8677 47.268 33.1236 47.584L34.2816 49.0144C34.6332 49.4489 35.0672 49.8097 35.5585 50.0762L47.0555 56.3138C47.6381 56.6299 48.2992 56.7725 48.9603 56.7249L57.5151 56.1079C57.9049 56.0798 58.2205 55.7803 58.2689 55.3925L60.3146 39C60.3892 38.4019 60.3932 37.797 60.3265 37.1979L59.7825 32.3145C59.7168 31.7252 59.7936 31.1287 60.0062 30.5753L60.3525 29.6742C60.4023 29.5447 60.4278 29.4072 60.4278 29.2685V27.8365C60.4278 27.6761 60.3936 27.5175 60.3276 27.3712C60.3274 27.3708 60.3272 27.3704 60.3271 27.37L58.243 23.0419L58.2427 23.0413L58.2424 23.0406C56.6166 19.5552 52.6481 16.055 48.6652 14.6446C42.9707 12.8699 35.8131 13.7353 31.8763 18.3283L31.7254 18.5043C29.7806 20.7733 28.7115 23.6632 28.7115 26.6516V27.8421H28.4775V26.6516C28.4775 23.6073 29.5665 20.6634 31.5477 18.3521L31.6986 18.176Z" fill="#623FC6"/>
<path fill-rule="evenodd" clip-rule="evenodd" d="M49.4928 55.7137V56.8166H49.2588V55.7137H49.4928Z" fill="#623FC6"/>
<path fill-rule="evenodd" clip-rule="evenodd" d="M51.9957 55.7137V56.6317H51.7617V55.7137H51.9957Z" fill="#623FC6"/>
<path fill-rule="evenodd" clip-rule="evenodd" d="M54.4986 55.6033L54.4986 56.409L54.2646 56.409L54.2646 55.6033L54.4986 55.6033Z" fill="#623FC6"/>
<path fill-rule="evenodd" clip-rule="evenodd" d="M57.0016 55.4388L57.0016 56.2651L56.7676 56.2651L56.7676 55.4388L57.0016 55.4388Z" fill="#623FC6"/>
<path fill-rule="evenodd" clip-rule="evenodd" d="M31.4834 30.4156C31.4833 30.4156 31.4833 30.4155 31.5427 30.3148C31.6022 30.214 31.6023 30.214 31.6024 30.2141L31.603 30.2145L31.6052 30.2158L31.6135 30.2207C31.6207 30.2251 31.6315 30.2315 31.6456 30.2401C31.6738 30.2573 31.7155 30.2829 31.7698 30.317C31.8785 30.3852 32.0376 30.4873 32.2403 30.6235C32.6459 30.8958 33.2263 31.3044 33.9271 31.8504C35.3288 32.9422 37.2129 34.584 39.1447 36.7847C43.0082 41.186 47.0647 47.8264 47.8273 56.7759L47.5941 56.7958C46.8369 47.9094 42.8094 41.3142 38.9688 36.939C37.0486 34.7514 35.1757 33.1196 33.7833 32.035C33.0872 31.4927 32.5113 31.0873 32.1099 30.8178C31.9092 30.683 31.7521 30.5822 31.6454 30.5152C31.592 30.4817 31.5513 30.4566 31.524 30.44C31.5104 30.4317 31.5001 30.4256 31.4933 30.4215L31.4856 30.4169L31.4838 30.4158L31.4834 30.4156Z" fill="#623FC6"/>
<path fill-rule="evenodd" clip-rule="evenodd" d="M60.5762 37.7451C60.5762 37.745 60.5762 37.7451 60.4662 37.7052C60.3561 37.6654 60.3561 37.6655 60.3561 37.6655L60.3557 37.6667L60.3544 37.6702C60.3533 37.6732 60.3518 37.6777 60.3497 37.6836C60.3456 37.6953 60.3395 37.7128 60.3317 37.7359C60.316 37.7823 60.293 37.8515 60.2638 37.9438C60.2055 38.1284 60.1221 38.4053 60.0215 38.776C59.8204 39.5174 59.5506 40.634 59.2746 42.1379C58.7228 45.1458 58.1467 49.7028 58.0473 55.9056L58.2813 55.9094C58.3805 49.7193 58.9554 45.1752 59.5048 42.1801C59.7795 40.6826 60.0479 39.5724 60.2473 38.8372C60.3471 38.4696 60.4295 38.1959 60.487 38.0143C60.5157 37.9236 60.5381 37.8559 60.5533 37.8111C60.5609 37.7887 60.5667 37.772 60.5705 37.761C60.5725 37.7555 60.5739 37.7514 60.5748 37.7488L60.5759 37.7458L60.5761 37.7452L60.5762 37.7451Z" fill="#623FC6"/>
<path fill-rule="evenodd" clip-rule="evenodd" d="M55.5534 37.7415L55.5928 37.5143L60.3892 37.5143V37.7483L56.0371 37.7483C56.2504 37.9213 56.4047 38.1542 56.4769 38.4149C56.5898 38.8228 56.4991 39.2901 56.1356 39.691C56.0074 39.8325 55.8085 39.8566 55.647 39.7915L55.4524 39.713C55.1718 39.5999 55.1398 39.2155 55.3977 39.0575C55.4207 39.0434 55.4376 39.0239 55.4462 39.0053C55.4543 38.9877 55.4544 38.9732 55.45 38.9607C55.418 38.8712 55.3646 38.8282 55.3014 38.8063C55.232 38.7823 55.1432 38.7818 55.0469 38.7981C54.9522 38.814 54.8605 38.8443 54.7912 38.8715C54.7569 38.8849 54.7289 38.8972 54.7097 38.9061C54.7001 38.9106 54.6927 38.9141 54.6879 38.9165C54.6855 38.9176 54.6837 38.9185 54.6827 38.9191L54.6816 38.9196L54.6815 38.9197C54.6815 38.9197 54.6815 38.9196 54.6278 38.8157C54.5741 38.7117 54.5742 38.7117 54.5742 38.7117L54.5743 38.7117L54.5745 38.7115L54.5752 38.7112L54.5774 38.7101C54.5791 38.7092 54.5816 38.708 54.5848 38.7064C54.5912 38.7033 54.6002 38.6989 54.6116 38.6937C54.6343 38.6832 54.6666 38.6689 54.7059 38.6536C54.7837 38.6231 54.8918 38.5869 55.008 38.5673C55.1226 38.548 55.2559 38.543 55.3779 38.5852C55.5061 38.6295 55.6136 38.7236 55.6703 38.8818C55.7274 39.0413 55.6321 39.1883 55.5199 39.257C55.4259 39.3146 55.4376 39.4548 55.5399 39.496L55.7345 39.5745C55.8212 39.6094 55.9108 39.5906 55.9623 39.5339C56.2742 39.1898 56.342 38.8047 56.2514 38.4773C56.16 38.1471 55.905 37.867 55.5534 37.7415Z" fill="#623FC6"/>
<path d="M47.7029 31.9689C47.7029 33.3881 46.5524 34.5386 45.1332 34.5386C43.714 34.5386 42.5635 33.3881 42.5635 31.9689C42.5635 30.5497 43.714 29.3992 45.1332 29.3992C46.5524 29.3992 47.7029 30.5497 47.7029 31.9689Z" fill="white"/>
<path fill-rule="evenodd" clip-rule="evenodd" d="M45.1332 34.3046C46.4232 34.3046 47.4689 33.2589 47.4689 31.9689C47.4689 30.6789 46.4232 29.6332 45.1332 29.6332C43.8432 29.6332 42.7975 30.6789 42.7975 31.9689C42.7975 33.2589 43.8432 34.3046 45.1332 34.3046ZM45.1332 34.5386C46.5524 34.5386 47.7029 33.3881 47.7029 31.9689C47.7029 30.5497 46.5524 29.3992 45.1332 29.3992C43.714 29.3992 42.5635 30.5497 42.5635 31.9689C42.5635 33.3881 43.714 34.5386 45.1332 34.5386Z" fill="#623FC6"/>
<path d="M48.055 31.617C48.055 33.2305 46.747 34.5385 45.1335 34.5385C43.5199 34.5385 42.2119 33.2305 42.2119 31.617C42.2119 30.0035 43.5199 28.6954 45.1335 28.6954C46.747 28.6954 48.055 30.0035 48.055 31.617Z" fill="url(#paint4_linear_1641_599)"/>
<path fill-rule="evenodd" clip-rule="evenodd" d="M45.1335 34.3045C46.6178 34.3045 47.821 33.1013 47.821 31.617C47.821 30.1327 46.6178 28.9294 45.1335 28.9294C43.6492 28.9294 42.4459 30.1327 42.4459 31.617C42.4459 33.1013 43.6492 34.3045 45.1335 34.3045ZM45.1335 34.5385C46.747 34.5385 48.055 33.2305 48.055 31.617C48.055 30.0035 46.747 28.6954 45.1335 28.6954C43.5199 28.6954 42.2119 30.0035 42.2119 31.617C42.2119 33.2305 43.5199 34.5385 45.1335 34.5385Z" fill="#623FC6"/>
<path d="M59.5238 31.617C59.5238 33.2305 58.2158 34.5385 56.6022 34.5385C54.9887 34.5385 53.6807 33.2305 53.6807 31.617C53.6807 30.0035 54.9887 28.6954 56.6022 28.6954C58.2158 28.6954 59.5238 30.0035 59.5238 31.617Z" fill="url(#paint5_linear_1641_599)"/>
<path fill-rule="evenodd" clip-rule="evenodd" d="M56.6022 34.3045C58.0865 34.3045 59.2898 33.1013 59.2898 31.617C59.2898 30.1327 58.0865 28.9294 56.6022 28.9294C55.1179 28.9294 53.9147 30.1327 53.9147 31.617C53.9147 33.1013 55.1179 34.3045 56.6022 34.3045ZM56.6022 34.5385C58.2158 34.5385 59.5238 33.2305 59.5238 31.617C59.5238 30.0035 58.2158 28.6954 56.6022 28.6954C54.9887 28.6954 53.6807 30.0035 53.6807 31.617C53.6807 33.2305 54.9887 34.5385 56.6022 34.5385Z" fill="#623FC6"/>
<path d="M47.7029 31.9689C47.7029 33.3881 46.5524 34.5386 45.1332 34.5386C43.714 34.5386 42.5635 33.3881 42.5635 31.9689C42.5635 30.5497 43.714 29.3992 45.1332 29.3992C46.5524 29.3992 47.7029 30.5497 47.7029 31.9689Z" fill="white"/>
<path fill-rule="evenodd" clip-rule="evenodd" d="M45.1332 34.3046C46.4232 34.3046 47.4689 33.2589 47.4689 31.9689C47.4689 30.6789 46.4232 29.6332 45.1332 29.6332C43.8432 29.6332 42.7975 30.6789 42.7975 31.9689C42.7975 33.2589 43.8432 34.3046 45.1332 34.3046ZM45.1332 34.5386C46.5524 34.5386 47.7029 33.3881 47.7029 31.9689C47.7029 30.5497 46.5524 29.3992 45.1332 29.3992C43.714 29.3992 42.5635 30.5497 42.5635 31.9689C42.5635 33.3881 43.714 34.5386 45.1332 34.5386Z" fill="#623FC6"/>
<path d="M59.1717 31.9689C59.1717 33.3881 58.0212 34.5386 56.602 34.5386C55.1827 34.5386 54.0322 33.3881 54.0322 31.9689C54.0322 30.5497 55.1827 29.3992 56.602 29.3992C58.0212 29.3992 59.1717 30.5497 59.1717 31.9689Z" fill="white"/>
<path fill-rule="evenodd" clip-rule="evenodd" d="M56.602 34.3046C57.8919 34.3046 58.9377 33.2589 58.9377 31.9689C58.9377 30.6789 57.8919 29.6332 56.602 29.6332C55.312 29.6332 54.2662 30.6789 54.2662 31.9689C54.2662 33.2589 55.312 34.3046 56.602 34.3046ZM56.602 34.5386C58.0212 34.5386 59.1717 33.3881 59.1717 31.9689C59.1717 30.5497 58.0212 29.3992 56.602 29.3992C55.1827 29.3992 54.0322 30.5497 54.0322 31.9689C54.0322 33.3881 55.1827 34.5386 56.602 34.5386Z" fill="#623FC6"/>
<path fill-rule="evenodd" clip-rule="evenodd" d="M45.2374 33.0346C45.8261 33.0346 46.3033 32.5574 46.3033 31.9687C46.3033 31.38 45.8261 30.9028 45.2374 30.9028C44.6487 30.9028 44.1715 31.38 44.1715 31.9687C44.1715 32.5574 44.6487 33.0346 45.2374 33.0346ZM45.2374 33.2686C45.9553 33.2686 46.5373 32.6866 46.5373 31.9687C46.5373 31.2508 45.9553 30.6688 45.2374 30.6688C44.5195 30.6688 43.9375 31.2508 43.9375 31.9687C43.9375 32.6866 44.5195 33.2686 45.2374 33.2686Z" fill="#623FC6"/>
<path fill-rule="evenodd" clip-rule="evenodd" d="M56.7491 33.0346C57.3378 33.0346 57.815 32.5574 57.815 31.9687C57.815 31.38 57.3378 30.9028 56.7491 30.9028C56.1604 30.9028 55.6832 31.38 55.6832 31.9687C55.6832 32.5574 56.1604 33.0346 56.7491 33.0346ZM56.7491 33.2686C57.467 33.2686 58.049 32.6866 58.049 31.9687C58.049 31.2508 57.467 30.6688 56.7491 30.6688C56.0312 30.6688 55.4492 31.2508 55.4492 31.9687C55.4492 32.6866 56.0312 33.2686 56.7491 33.2686Z" fill="#623FC6"/>
<path d="M46.0482 31.9688C46.0482 32.4168 45.685 32.78 45.237 32.78C44.789 32.78 44.4258 32.4168 44.4258 31.9688C44.4258 31.5208 44.789 31.1576 45.237 31.1576C45.685 31.1576 46.0482 31.5208 46.0482 31.9688Z" fill="#623FC6"/>
<path d="M57.5609 31.9688C57.5609 32.4168 57.1977 32.78 56.7497 32.78C56.3017 32.78 55.9385 32.4168 55.9385 31.9688C55.9385 31.5208 56.3017 31.1576 56.7497 31.1576C57.1977 31.1576 57.5609 31.5208 57.5609 31.9688Z" fill="#623FC6"/>
<path fill-rule="evenodd" clip-rule="evenodd" d="M53.5074 29.7588L53.4001 29.7121L53.2929 29.6654C53.3187 29.6062 53.3876 29.5791 53.4469 29.6049C53.5061 29.6307 53.5331 29.6996 53.5074 29.7588ZM53.0999 31.0408L53.2162 31.054C53.2643 30.6286 53.3381 30.3026 53.3993 30.084C53.43 29.9748 53.4575 29.8923 53.4771 29.8378C53.4869 29.8105 53.4947 29.7902 53.5 29.777C53.5026 29.7704 53.5046 29.7656 53.5058 29.7626L53.5072 29.7594L53.5074 29.7588M52.9837 31.0272C53.0334 30.5887 53.1097 30.2506 53.174 30.0209C53.2062 29.906 53.2355 29.8182 53.2569 29.7587C53.2676 29.7289 53.2763 29.7061 53.2825 29.6905C53.2856 29.6827 53.2881 29.6767 53.2898 29.6725C53.2907 29.6704 53.2914 29.6688 53.2919 29.6676L53.2925 29.6662L53.2927 29.6657L53.2928 29.6655L53.2929 29.6654C53.2929 29.6654 53.2929 29.6654 53.4001 29.7121M52.9837 31.0272C52.8659 31.9858 53.1146 32.9513 53.6647 33.7433C54.1512 34.4436 54.749 35.3228 55.1749 36.011C55.2929 36.2017 55.3683 36.4134 55.3912 36.6342C55.4142 36.8562 55.4364 37.1473 55.4319 37.4154C55.4292 37.579 55.3606 37.7375 55.249 37.8719L53.8895 39.5093C53.7191 39.7145 53.4661 39.8333 53.1993 39.8333H52.1626C52.0226 39.8333 51.8846 39.8005 51.7595 39.7376L50.3197 39.0134C49.9047 38.8046 49.4465 38.6959 48.982 38.6959H48.8739C48.6061 38.6959 48.3675 38.8648 48.2783 39.1173L48.2609 39.1666C48.2065 39.3207 48.2589 39.5103 48.4259 39.5888C48.606 39.6734 48.8545 39.7504 49.1254 39.7497C49.1252 39.7497 49.1282 39.7497 49.1347 39.7522C49.1412 39.7546 49.1497 39.759 49.1597 39.766C49.18 39.7803 49.2012 39.8019 49.2184 39.8271C49.2358 39.8526 49.2451 39.8761 49.248 39.8925C49.2486 39.8962 49.2489 39.8989 49.2489 39.9009C49.2487 39.901 49.2485 39.901 49.2483 39.901H48.4099C48.0902 39.901 47.7946 39.7308 47.6341 39.4543L47.4214 39.0878C47.2577 38.8059 47.2599 38.4573 47.4271 38.1775L47.8291 37.5044H39.7334V37.7384H47.4168L47.2262 38.0575C47.0154 38.4103 47.0126 38.8498 47.219 39.2053L47.4318 39.5718C47.6341 39.9204 48.0068 40.135 48.4099 40.135H49.2483C49.3231 40.135 49.3935 40.0998 49.4385 40.0401C49.4841 39.9795 49.4885 39.9088 49.4784 39.8518C49.4684 39.7949 49.4427 39.7408 49.4118 39.6953C49.3806 39.6495 49.3401 39.6068 49.2942 39.5745C49.2496 39.5432 49.1907 39.5156 49.1248 39.5157C48.8967 39.5163 48.6827 39.4509 48.5255 39.377C48.4858 39.3584 48.4599 39.3057 48.4816 39.2444L48.499 39.1952C48.5551 39.0362 48.7053 38.9299 48.8739 38.9299H48.982C49.41 38.9299 49.8321 39.0301 50.2146 39.2224L51.6544 39.9466C51.812 40.026 51.9861 40.0673 52.1626 40.0673H53.1993C53.5357 40.0673 53.8546 39.9175 54.0695 39.6588L55.429 38.0214C55.5673 37.8549 55.6621 37.6467 55.6659 37.4193C55.6705 37.1377 55.6474 36.836 55.6239 36.6101C55.5972 36.3519 55.5092 36.1066 55.3739 35.8879C54.9445 35.194 54.3437 34.3106 53.8569 33.6098C53.3385 32.8635 53.1053 31.9553 53.216 31.0551L53.0999 31.0408M49.877 37.7161V33.8344H50.111V37.7161H49.877Z" fill="#623FC6"/>
<path fill-rule="evenodd" clip-rule="evenodd" d="M51.7782 42.9288L52.9549 43.6095L54.1138 42.9391L53.4604 39.9215L53.6891 39.872L54.3459 42.9056L59.0066 44.3141L58.9389 44.5381L54.2609 43.1244L52.9549 43.8799L51.6497 43.1248L44.6606 45.3425L44.5898 45.1194L51.5434 42.9131L51.4287 39.765L51.6626 39.7565L51.7782 42.9288Z" fill="#623FC6"/>
<path fill-rule="evenodd" clip-rule="evenodd" d="M54.2431 37.955L55.4169 37.1599L55.5481 37.3537L54.3743 38.1487C54.1141 38.325 53.7924 38.385 53.4862 38.3145L50.9288 37.7254L51.9846 39.8732L51.7746 39.9765L50.6544 37.6975L47.2998 38.7381L47.2305 38.5146L50.7107 37.435L53.5387 38.0864C53.7815 38.1424 54.0367 38.0948 54.2431 37.955Z" fill="#623FC6"/>
<path d="M49.1631 45.5907C49.1631 45.1648 49.5083 44.8196 49.9342 44.8196C50.3601 44.8196 50.7054 45.1648 50.7054 45.5907V51.8484C50.7054 52.2743 50.3601 52.6196 49.9342 52.6196C49.5083 52.6196 49.1631 52.2743 49.1631 51.8484V45.5907Z" fill="url(#paint6_linear_1641_599)"/>
<path fill-rule="evenodd" clip-rule="evenodd" d="M50.4714 51.8484V45.5907C50.4714 45.2941 50.2309 45.0536 49.9342 45.0536C49.6376 45.0536 49.3971 45.2941 49.3971 45.5907V51.8484C49.3971 52.1451 49.6376 52.3856 49.9342 52.3856C50.2309 52.3856 50.4714 52.1451 50.4714 51.8484ZM49.9342 44.8196C49.5083 44.8196 49.1631 45.1648 49.1631 45.5907V51.8484C49.1631 52.2743 49.5083 52.6196 49.9342 52.6196C50.3601 52.6196 50.7054 52.2743 50.7054 51.8484V45.5907C50.7054 45.1648 50.3601 44.8196 49.9342 44.8196Z" fill="#623FC6"/>
<path fill-rule="evenodd" clip-rule="evenodd" d="M50.5796 47.5215H49.2705V47.2875H50.5796V47.5215Z" fill="#623FC6"/>
<path fill-rule="evenodd" clip-rule="evenodd" d="M50.5796 49.7436H49.2705V49.5096H50.5796V49.7436Z" fill="#623FC6"/>
<path d="M52.3516 45.5907C52.3516 45.1648 52.6968 44.8196 53.1227 44.8196C53.5486 44.8196 53.8938 45.1648 53.8938 45.5907V51.8484C53.8938 52.2743 53.5486 52.6196 53.1227 52.6196C52.6968 52.6196 52.3516 52.2743 52.3516 51.8484V45.5907Z" fill="url(#paint7_linear_1641_599)"/>
<path fill-rule="evenodd" clip-rule="evenodd" d="M53.6598 51.8484V45.5907C53.6598 45.2941 53.4193 45.0536 53.1227 45.0536C52.826 45.0536 52.5856 45.2941 52.5856 45.5907V51.8484C52.5856 52.1451 52.826 52.3856 53.1227 52.3856C53.4193 52.3856 53.6598 52.1451 53.6598 51.8484ZM53.1227 44.8196C52.6968 44.8196 52.3516 45.1648 52.3516 45.5907V51.8484C52.3516 52.2743 52.6968 52.6196 53.1227 52.6196C53.5486 52.6196 53.8938 52.2743 53.8938 51.8484V45.5907C53.8938 45.1648 53.5486 44.8196 53.1227 44.8196Z" fill="#623FC6"/>
<path d="M55.3662 45.5907C55.3662 45.1648 55.7115 44.8196 56.1373 44.8196C56.5632 44.8196 56.9085 45.1648 56.9085 45.5907V51.8484C56.9085 52.2743 56.5632 52.6196 56.1373 52.6196C55.7115 52.6196 55.3662 52.2743 55.3662 51.8484V45.5907Z" fill="url(#paint8_linear_1641_599)"/>
<path fill-rule="evenodd" clip-rule="evenodd" d="M56.6745 51.8484V45.5907C56.6745 45.2941 56.434 45.0536 56.1373 45.0536C55.8407 45.0536 55.6002 45.2941 55.6002 45.5907V51.8484C55.6002 52.1451 55.8407 52.3856 56.1373 52.3856C56.434 52.3856 56.6745 52.1451 56.6745 51.8484ZM56.1373 44.8196C55.7115 44.8196 55.3662 45.1648 55.3662 45.5907V51.8484C55.3662 52.2743 55.7115 52.6196 56.1373 52.6196C56.5632 52.6196 56.9085 52.2743 56.9085 51.8484V45.5907C56.9085 45.1648 56.5632 44.8196 56.1373 44.8196Z" fill="#623FC6"/>
<path d="M30.3006 27.9759L29.9837 27.9283L29.4965 27.7972L28.4951 27.8727L27.7852 28.1951L27.1301 28.8364L26.6808 29.7761L26.4854 31.6349L26.6328 33.4423L27.1918 34.9445L28.1898 36.2271L28.9169 37.0434L30.083 38.1408L30.8101 38.5246L31.5234 38.6343H31.7004C34.1529 30.4451 30.3006 27.9759 30.3006 27.9759Z" fill="#BFC8D3"/>
<path d="M30.3011 27.9766C30.301 27.9765 30.3009 27.9765 30.3008 27.9764L30.2135 28.1393L30.2135 28.1393C30.2131 28.1391 30.2128 28.1389 30.2127 28.1388C30.1976 28.1306 29.1876 27.5859 28.0706 28.1994L28.0705 28.1995C27.2724 28.6368 26.7487 29.4471 26.6777 30.3544L26.6777 30.3546C26.5411 32.0534 26.6322 33.2048 26.9511 34.1319C27.43 35.5242 28.4212 36.409 29.9047 37.8847L29.905 37.8849C30.3058 38.2869 30.8501 38.5128 31.4178 38.5128H31.418C31.5276 38.5131 31.6015 38.5131 31.6015 38.5131C31.6525 38.5131 31.6939 38.5545 31.6939 38.6055C31.6939 38.6565 31.6525 38.6979 31.6015 38.6979C31.6015 38.6979 31.5274 38.6979 31.4176 38.6976C30.801 38.6975 30.2097 38.4521 29.7743 38.0156C28.265 36.5142 27.2636 35.6086 26.7763 34.192C26.4511 33.2464 26.3541 32.0724 26.4935 30.3398C26.5694 29.3704 27.1289 28.5047 27.9816 28.0374C29.1835 27.3774 30.271 27.9602 30.3008 27.9764L30.3008 27.9764L30.3011 27.9766Z" fill="#623FC6"/>
<path fill-rule="evenodd" clip-rule="evenodd" d="M27.9053 33.6705L30.402 32.7194L30.4853 32.938L27.9886 33.8892L27.9053 33.6705Z" fill="#623FC6"/>
<path fill-rule="evenodd" clip-rule="evenodd" d="M28.3809 34.5814L30.4019 33.8115L30.4852 34.0302L28.4642 34.8001L28.3809 34.5814Z" fill="#623FC6"/>
<path d="M29.6633 34.0768C29.6633 34.7238 29.1388 35.2483 28.4918 35.2483C27.8448 35.2483 27.3203 34.7238 27.3203 34.0768C27.3203 33.4298 27.8448 32.9053 28.4918 32.9053C29.1388 32.9053 29.6633 33.4298 29.6633 34.0768Z" fill="#BFC9D5"/>
<path fill-rule="evenodd" clip-rule="evenodd" d="M28.4918 35.0143C29.0096 35.0143 29.4293 34.5945 29.4293 34.0768C29.4293 33.559 29.0096 33.1393 28.4918 33.1393C27.974 33.1393 27.5543 33.559 27.5543 34.0768C27.5543 34.5945 27.974 35.0143 28.4918 35.0143ZM28.4918 35.2483C29.1388 35.2483 29.6633 34.7238 29.6633 34.0768C29.6633 33.4298 29.1388 32.9053 28.4918 32.9053C27.8448 32.9053 27.3203 33.4298 27.3203 34.0768C27.3203 34.7238 27.8448 35.2483 28.4918 35.2483Z" fill="#623FC6"/>
<path fill-rule="evenodd" clip-rule="evenodd" d="M28.1845 28.0995C28.1845 28.0995 30.0662 29.1935 30.592 31.1397C30.7185 31.694 30.5502 32.135 30.4155 32.5888C30.3074 32.9531 30.219 33.3252 30.2917 33.7611C30.3639 34.1941 30.5954 34.6921 31.1354 35.3086C31.1689 35.3469 31.2273 35.3508 31.2656 35.3173C31.3039 35.2837 31.3077 35.2254 31.2742 35.1871C30.7651 34.6058 30.5418 34.139 30.4737 33.7308C30.4061 33.3255 30.4919 32.98 30.5924 32.6413C30.7358 32.158 30.9069 31.6874 30.7715 31.0969C30.7713 31.0958 30.771 31.0946 30.7707 31.0935C30.2265 29.0757 28.2774 27.94 28.2774 27.94C28.2333 27.9144 28.1768 27.9293 28.1512 27.9733C28.1256 28.0174 28.1405 28.0739 28.1845 28.0995Z" fill="#623FC6"/>
<path fill-rule="evenodd" clip-rule="evenodd" d="M40.1148 27.5623L32.4061 17.6982L32.2217 17.8423L39.9269 27.7019L37.4207 35.254H47.6786L50.0199 33.8941H53.8391V33.6601H49.9568L47.6155 35.02H37.7449L40.1422 27.7963H60.5171V27.5623H40.1148ZM60.1544 35.254H54.7325V35.02H60.1544V35.254Z" fill="#623FC6"/>
<path fill-rule="evenodd" clip-rule="evenodd" d="M32.6779 19.3469L33.5756 18.4364L33.7422 18.6007L32.8445 19.5112L32.6779 19.3469Z" fill="#623FC6"/>
<path fill-rule="evenodd" clip-rule="evenodd" d="M33.4181 20.2795L34.3158 19.369L34.4825 19.5333L33.5848 20.4438L33.4181 20.2795Z" fill="#623FC6"/>
<path fill-rule="evenodd" clip-rule="evenodd" d="M34.1584 21.2122L35.0561 20.3018L35.2227 20.466L34.325 21.3765L34.1584 21.2122Z" fill="#623FC6"/>
<path fill-rule="evenodd" clip-rule="evenodd" d="M34.8957 22.145L35.7934 21.2345L35.96 21.3988L35.0623 22.3093L34.8957 22.145Z" fill="#623FC6"/>
<path fill-rule="evenodd" clip-rule="evenodd" d="M35.6359 23.0776L36.5336 22.1671L36.7002 22.3314L35.8025 23.2419L35.6359 23.0776Z" fill="#623FC6"/>
<path fill-rule="evenodd" clip-rule="evenodd" d="M36.3761 24.0103L37.2738 23.0998L37.4405 23.2641L36.5428 24.1746L36.3761 24.0103Z" fill="#623FC6"/>
<path fill-rule="evenodd" clip-rule="evenodd" d="M37.1144 24.9429L38.0121 24.0325L38.1788 24.1968L37.2811 25.1072L37.1144 24.9429Z" fill="#623FC6"/>
<path fill-rule="evenodd" clip-rule="evenodd" d="M37.8537 25.8757L38.7514 24.9652L38.918 25.1295L38.0203 26.04L37.8537 25.8757Z" fill="#623FC6"/>
<path fill-rule="evenodd" clip-rule="evenodd" d="M38.5939 26.8084L39.4916 25.8979L39.6582 26.0622L38.7606 26.9727L38.5939 26.8084Z" fill="#623FC6"/>
<path fill-rule="evenodd" clip-rule="evenodd" d="M53.8179 47.5215H52.5088V47.2875H53.8179V47.5215Z" fill="#623FC6"/>
<path fill-rule="evenodd" clip-rule="evenodd" d="M56.7915 47.5215H55.4824V47.2875H56.7915V47.5215Z" fill="#623FC6"/>
<path fill-rule="evenodd" clip-rule="evenodd" d="M53.8179 49.7436H52.5088V49.5096H53.8179V49.7436Z" fill="#623FC6"/>
<path fill-rule="evenodd" clip-rule="evenodd" d="M56.7915 49.7436H55.4824V49.5096H56.7915V49.7436Z" fill="#623FC6"/>
<path fill-rule="evenodd" clip-rule="evenodd" d="M49.8711 28.4131V27.1147H50.1051V28.4131H49.8711Z" fill="#623FC6"/>
<path fill-rule="evenodd" clip-rule="evenodd" d="M51.0332 28.4131V27.1147H51.2672V28.4131H51.0332Z" fill="#623FC6"/>
<path fill-rule="evenodd" clip-rule="evenodd" d="M52.1963 28.4131V27.1147H52.4303V28.4131H52.1963Z" fill="#623FC6"/>
<path fill-rule="evenodd" clip-rule="evenodd" d="M42.7877 40.5433H41.8359V40.3093H42.7877V40.5433Z" fill="#623FC6"/>
<path fill-rule="evenodd" clip-rule="evenodd" d="M58.8598 40.5433H59.8115V40.3093H58.8598V40.5433Z" fill="#623FC6"/>
<path fill-rule="evenodd" clip-rule="evenodd" d="M43.2633 41.3551H42.3115V41.1211H43.2633V41.3551Z" fill="#623FC6"/>
<path fill-rule="evenodd" clip-rule="evenodd" d="M58.6117 41.3551H59.5635V41.1211H58.6117V41.3551Z" fill="#623FC6"/>
<path fill-rule="evenodd" clip-rule="evenodd" d="M43.7877 42.167H42.8359V41.933H43.7877V42.167Z" fill="#623FC6"/>
<path fill-rule="evenodd" clip-rule="evenodd" d="M58.3842 42.167H59.3359V41.933H58.3842V42.167Z" fill="#623FC6"/>
<path fill-rule="evenodd" clip-rule="evenodd" d="M44.2643 42.9788H43.3125V42.7448H44.2643V42.9788Z" fill="#623FC6"/>
<path fill-rule="evenodd" clip-rule="evenodd" d="M58.2357 42.9788H59.1875V42.7448H58.2357V42.9788Z" fill="#623FC6"/>
<defs>
<linearGradient id="paint0_linear_1641_599" x1="37.489" y1="49.0876" x2="54.7704" y2="65.2633" gradientUnits="userSpaceOnUse">
<stop stop-color="#9AA3B4"/>
<stop offset="1" stop-color="#867FCD"/>
</linearGradient>
<linearGradient id="paint1_linear_1641_599" x1="37.489" y1="49.0876" x2="54.7704" y2="65.2633" gradientUnits="userSpaceOnUse">
<stop stop-color="#9AA3B4"/>
<stop offset="1" stop-color="#867FCD"/>
</linearGradient>
<linearGradient id="paint2_linear_1641_599" x1="34.1498" y1="36.7985" x2="65.2952" y2="70.7409" gradientUnits="userSpaceOnUse">
<stop stop-color="#9AA3B4"/>
<stop offset="1" stop-color="#867FCD"/>
</linearGradient>
<linearGradient id="paint3_linear_1641_599" x1="34.1498" y1="36.7985" x2="65.2952" y2="70.7409" gradientUnits="userSpaceOnUse">
<stop stop-color="#9AA3B4"/>
<stop offset="1" stop-color="#867FCD"/>
</linearGradient>
<linearGradient id="paint4_linear_1641_599" x1="45.1335" y1="28.6954" x2="45.1335" y2="34.5385" gradientUnits="userSpaceOnUse">
<stop stop-color="#5F7EAB"/>
<stop offset="1" stop-color="#46628B"/>
</linearGradient>
<linearGradient id="paint5_linear_1641_599" x1="56.6022" y1="28.6954" x2="56.6022" y2="34.5385" gradientUnits="userSpaceOnUse">
<stop stop-color="#5F7EAB"/>
<stop offset="1" stop-color="#46628B"/>
</linearGradient>
<linearGradient id="paint6_linear_1641_599" x1="49.9342" y1="44.8196" x2="49.9342" y2="52.6196" gradientUnits="userSpaceOnUse">
<stop stop-color="#AFB8C5"/>
<stop offset="1" stop-color="#93ADD1"/>
</linearGradient>
<linearGradient id="paint7_linear_1641_599" x1="53.1227" y1="44.8196" x2="53.1227" y2="52.6196" gradientUnits="userSpaceOnUse">
<stop stop-color="#AFB8C5"/>
<stop offset="1" stop-color="#93ADD1"/>
</linearGradient>
<linearGradient id="paint8_linear_1641_599" x1="56.1373" y1="44.8196" x2="56.1373" y2="52.6196" gradientUnits="userSpaceOnUse">
<stop stop-color="#AFB8C5"/>
<stop offset="1" stop-color="#93ADD1"/>
</linearGradient>
</defs>
</svg>
