<svg width="130" height="130" viewBox="0 0 130 130" fill="none" xmlns="http://www.w3.org/2000/svg">
<path opacity="0.23" d="M61.1237 56.8939H57.3145L54.5674 53.6995L64.2624 53.5398V55.4583L65.3758 57.5311L67.9046 59.6039L70.7029 60.3916H79.0149L81.0809 59.9978L82.0712 58.2356L81.8519 58.9926C81.3952 60.5689 79.9516 61.6536 78.3105 61.6536H70.9646C68.6984 61.6536 66.5565 60.6176 65.1496 58.841C64.1755 57.6111 62.6927 56.8939 61.1237 56.8939Z" fill="#12334A"/>
<mask id="mask0_1641_412" style="mask-type:alpha" maskUnits="userSpaceOnUse" x="41" y="45" width="28" height="22">
<path fill-rule="evenodd" clip-rule="evenodd" d="M68.3119 46.3834H54.3924L53.8381 46.5441L53.4374 46.9346L53.2859 46.9692C52.9974 46.7777 52.5642 46.4733 52.6945 46.4899C52.8363 46.508 51.542 45.9244 50.8771 45.6302C50.3165 45.6378 49.1848 45.6529 49.1426 45.6529C49.1004 45.6529 48.474 45.8841 48.166 45.9998L45.768 46.9914L43.1625 48.1415L42.1972 49.0313L41.8466 49.8872L41.6807 50.9543L41.7825 51.6481L42.6799 53.9406L46.9743 64.1764L47.7661 65.4354L48.7057 66.1303L49.4495 66.4141L50.756 66.4484L52.2093 65.8807L57.0264 63.8174L58.2175 62.429L58.6998 60.8871L58.5683 59.3087L57.2897 56.0648H64.0937L68.7992 54.77L68.3119 46.3834ZM54.9496 50.4373L55.7276 50.496L56.2267 50.8728L56.4078 51.3915L56.4665 52.2283L56.4078 52.7812L56.1289 53.158L54.9496 50.4373Z" fill="white"/>
</mask>
<g mask="url(#mask0_1641_412)">
<path fill-rule="evenodd" clip-rule="evenodd" d="M68.3119 46.3834H54.3924L53.8381 46.5441L53.4374 46.9346L53.2859 46.9692C52.9974 46.7777 52.5642 46.4733 52.6945 46.4899C52.8363 46.508 51.542 45.9244 50.8771 45.6302C50.3165 45.6378 49.1848 45.6529 49.1426 45.6529C49.1004 45.6529 48.474 45.8841 48.166 45.9998L45.768 46.9914L43.1625 48.1415L42.1972 49.0313L41.8466 49.8872L41.6807 50.9543L41.7825 51.6481L42.6799 53.9406L46.9743 64.1764L47.7661 65.4354L48.7057 66.1303L49.4495 66.4141L50.756 66.4484L52.2093 65.8807L57.0264 63.8174L58.2175 62.429L58.6998 60.8871L58.5683 59.3087L57.2897 56.0648H64.0937L63.6128 54.8962L63.2597 52.6185L63.6128 50.1908L64.6898 48.2574L66.2537 47.0168L68.3119 46.3834ZM54.9496 50.4373L55.7276 50.496L56.2267 50.8728L56.4078 51.3915L56.4665 52.2283L56.4078 52.7812L56.1289 53.158L54.9496 50.4373Z" fill="white"/>
<path d="M48.3125 45.9766L52.3371 42.6562L53.1849 45.9766L53.0414 48.4584L53.2447 49.2756H56.2201C56.9101 49.2756 57.4696 49.835 57.4696 50.5251V52.7538C57.4696 53.5177 56.8503 54.1369 56.0864 54.1369C55.7832 54.1369 55.5373 54.3828 55.5373 54.686V55.4736L55.8654 56.1178L57.3293 56.2093L58.6494 59.7383V60.5879L58.4794 61.8426L57.7344 63.0451L56.8326 63.8946L55.97 64.2737L56.5973 63.398L57.0679 62.1955L56.9633 60.7186L51.5653 47.9228L50.9771 47.1647L49.9315 46.3413L48.3125 45.9766Z" fill="#CAD6FF"/>
<path d="M63.0493 56.8542V50.8836C63.0493 49.0512 64.1331 47.4754 65.6909 46.7565C66.1406 46.5489 66.2694 46.9894 65.8201 47.1981L64.3193 48.6282L63.4895 51.2413V53.7132L63.7014 55.1434L64.1428 56.2093L63.0493 56.8542Z" fill="#CAD6FF"/>
</g>
<mask id="mask1_1641_412" style="mask-type:alpha" maskUnits="userSpaceOnUse" x="44" y="49" width="9" height="15">
<path opacity="0.7" d="M49.6023 62.8104L50.402 63.0366C50.7709 62.9854 51.5167 62.8831 51.549 62.8831C51.5813 62.8831 51.9933 62.4092 52.1953 62.1722L52.5345 61.0979L52.6072 59.6035L52.3891 57.8909L52.0256 56.235L51.3632 54.5709L50.2566 52.4949L48.3502 50.322L46.8235 49.6192L45.8541 49.8696L45.2159 50.4997L44.7959 52.0991V53.852L45.2725 56.1623L46.4196 59.0945L47.9059 61.2514L49.6023 62.8104Z" fill="#7B98FF"/>
</mask>
<g mask="url(#mask1_1641_412)">
<path opacity="0.8" d="M49.6023 62.8104L50.402 63.0366C50.7709 62.9854 51.5167 62.8831 51.549 62.8831C51.5813 62.8831 51.9933 62.4092 52.1953 62.1722L52.5345 61.0979L52.6072 59.6035L52.3891 57.8909L52.0256 56.235L51.3632 54.5709L50.2566 52.4949L48.3502 50.322L46.8235 49.6192L45.8541 49.8696L45.2159 50.4997L44.7959 52.0991V53.852L45.2725 56.1623L46.4196 59.0945L47.9059 61.2514L49.6023 62.8104Z" fill="#7B98FF"/>
<path opacity="0.5" d="M45.3962 53.1208L49.026 51.099L48.5295 50.5551L45.3135 52.4232L45.3962 53.1208Z" fill="#4D28B7"/>
<path opacity="0.5" d="M49.4709 62.2241L52.9472 60.2237L52.4506 59.6798L49.1084 61.6273L49.4709 62.2241Z" fill="#623FC6"/>
<path opacity="0.5" d="M45.7899 55.9496L50.7077 53.2104L50.0349 52.4735L45.6777 55.0045L45.7899 55.9496Z" fill="#623FC6"/>
<path opacity="0.5" d="M47.8705 60.5067L52.6804 57.8499L52.0076 57.113L47.6504 59.644L47.8705 60.5067Z" fill="#4F2ABA"/>
<path opacity="0.5" d="M46.6378 58.3703L51.7948 55.4677L51.2344 54.6339L46.375 57.4567L46.6378 58.3703Z" fill="#623FC6"/>
</g>
<path d="M45.8725 50.5841L46.0242 49.9626V49.8354L45.6327 50.0115L45.2168 50.5205L44.8645 51.3083L44.7715 52.6246L44.933 54.67L45.5251 56.9748L46.3667 58.8734L47.1888 60.3757L48.1234 61.6039L49.5963 62.837L50.5065 63.0964L50.7071 62.9838L48.9406 61.6724L47.7026 60.1506L46.5625 58.0024L45.9899 56.5589L45.5251 54.67L45.344 52.6882V51.69L45.8725 50.5841Z" fill="#623FC6"/>
<mask id="mask2_1641_412" style="mask-type:alpha" maskUnits="userSpaceOnUse" x="63" y="46" width="20" height="15">
<path d="M72.7047 46.2687L67.8738 46.3937L65.8021 47.1438L64.6055 48.1975L63.8733 49.5459L63.3643 51.439L63.4625 54.3679L64.034 56.0556L65.8735 58.6363L67.713 59.8775L68.8471 60.4222L70.7938 60.8062L78.6787 60.7526L80.0271 60.6187L81.0004 60.074L81.6344 59.3953L82.0809 58.3863V55.9663V52.198V49.3405L81.6969 48.2153L80.795 47.3313L80.0717 46.867L78.7591 46.6973L76.8481 46.4562L72.7047 46.2687Z" fill="#B0E3FF"/>
</mask>
<g mask="url(#mask2_1641_412)">
<path opacity="0.8" d="M72.7047 46.2687L67.8738 46.3937L65.8021 47.1438L64.6055 48.1975L63.8733 49.5459L63.3643 51.439L63.4625 54.3679L64.034 56.0556L65.8735 58.6363L67.713 59.8775L68.8471 60.4222L70.7938 60.8062L78.6787 60.7526L80.0271 60.6187L81.0004 60.074L81.6344 59.3953L82.0809 58.3863V55.9663V52.198V49.3405L81.6969 48.2153L80.795 47.3313L80.0717 46.867L78.7591 46.6973L76.8481 46.4562L72.7047 46.2687Z" fill="url(#paint0_linear_1641_412)"/>
<path opacity="0.6" d="M74.8604 41.935L77.5089 40.4059L87.8214 58.2676L85.1729 59.7968L74.8604 41.935Z" fill="url(#paint1_linear_1641_412)"/>
<path opacity="0.6" d="M70.2949 44.1085L73.5921 42.2049L83.9046 60.0667L80.6074 61.9703L70.2949 44.1085Z" fill="url(#paint2_linear_1641_412)"/>
<path d="M82.0811 59.9249H70.9762C69.3042 59.9249 67.7007 59.2607 66.5184 58.0784C64.9806 56.5406 64.1876 54.4101 64.3455 52.2411L64.4513 50.7876C64.5247 49.7793 64.9905 48.8399 65.7486 48.171C66.5369 47.4756 67.552 47.0918 68.6032 47.0918H82.0811L71.7928 44.0099L63.7139 46.3213L63.5459 47.9924L62.6023 47.8805C62.0619 52.2626 60.9964 61.4067 61.0572 62.9265C61.1332 64.8263 77.5977 66.1181 79.2442 65.7635C80.5613 65.4798 81.6843 61.7529 82.0811 59.9249Z" fill="url(#paint3_linear_1641_412)"/>
<path d="M69.6863 47.0899L69.3779 46.4192L71.612 46.2839L76.4912 46.4354L76.4047 46.9709L75.9124 47.3117L75.3931 47.4253H72.6776L70.0487 47.3874L69.6863 47.0899Z" fill="#3C1559"/>
</g>
<path d="M73.6987 61.0348C72.1051 61.0348 70.6079 60.9816 69.7227 60.8215C68.9667 60.6843 68.0938 60.3338 67.2643 59.8325C65.4965 58.7628 64.1815 57.083 63.5675 55.1102C62.9536 53.1373 63.0831 51.0079 63.9318 49.124C63.9522 49.0789 63.9732 49.035 63.9936 48.9911C64.3147 48.3267 64.7928 47.7504 65.3865 47.3121C65.9803 46.8739 66.6719 46.5869 67.4015 46.4758C71.6668 45.802 77.1437 46.3225 79.2999 46.5772C80.1093 46.6733 80.8555 47.063 81.3969 47.6724C81.9382 48.2818 82.2373 49.0686 82.2374 49.8838V57.8265C82.2372 58.6126 81.9345 59.3684 81.3921 59.9372C80.8496 60.5061 80.1091 60.8445 79.324 60.8821C78.071 60.9427 75.8011 61.0348 73.6987 61.0348ZM67.4503 46.7812C66.7703 46.8843 66.1256 47.1516 65.572 47.5598C65.0184 47.968 64.5725 48.5049 64.273 49.124C64.2524 49.1653 64.2318 49.2079 64.2112 49.252C63.3881 51.0667 63.2605 53.1206 63.8528 55.0231C64.4452 56.9257 65.716 58.5442 67.4238 59.571C68.2218 60.0507 69.0576 60.3869 69.7783 60.518C71.7985 60.884 77.1165 60.6793 79.3091 60.5742C80.0152 60.5406 80.6811 60.2364 81.1688 59.7247C81.6565 59.2131 81.9285 58.5333 81.9283 57.8265V49.8838C81.9283 49.1444 81.6571 48.4307 81.166 47.8779C80.675 47.3251 79.9983 46.9716 79.264 46.8844C77.1209 46.631 71.6792 46.1136 67.4503 46.7812Z" fill="#623FC6"/>
<path d="M64.074 56.1822H56.6671C56.4687 56.1822 56.2585 56.1908 56.0675 56.1265C55.8664 56.0655 55.6828 55.957 55.5322 55.8103C55.3816 55.6636 55.2684 55.4829 55.2021 55.2834L55.1094 55.0138C54.988 54.7254 54.9688 54.4041 55.055 54.1033C55.153 53.7723 55.3778 53.4934 55.6806 53.3275C55.8687 53.2446 56.0294 53.1099 56.144 52.9392C56.2586 52.7685 56.3223 52.5687 56.3278 52.3632C56.3228 52.1722 56.3358 51.7011 56.3241 51.5218C56.3056 51.308 56.2232 51.1047 56.0876 50.9383C55.952 50.772 55.7694 50.6503 55.5637 50.589C55.395 50.5346 55.2095 50.5476 55.0327 50.5464H54.4628C54.255 50.5548 54.0481 50.5151 53.8582 50.4302C53.6313 50.3263 53.4387 50.1599 53.303 49.9505C53.1674 49.741 53.0943 49.4972 53.0923 49.2476C53.0923 48.9911 53.0923 48.0212 53.0923 47.7511C53.0854 47.4918 53.147 47.2353 53.2708 47.0074C53.3946 46.7795 53.5764 46.5882 53.7976 46.4529C54.0632 46.2951 54.3703 46.2214 54.6785 46.2415C55.4154 46.2415 59.5496 46.2415 60.3761 46.2415H69.4921V46.4758H60.3761C59.5237 46.4758 55.4364 46.4758 54.6785 46.4758C54.5043 46.4596 54.3286 46.4808 54.1631 46.5378C53.9976 46.5948 53.8462 46.6863 53.7188 46.8064C53.5915 46.9264 53.4911 47.0722 53.4245 47.234C53.3578 47.3958 53.3263 47.57 53.3322 47.7449V48.8842C53.3322 48.946 53.3322 49.1883 53.3322 49.2396C53.3331 49.5203 53.445 49.7893 53.6433 49.9879C53.8416 50.1866 54.1104 50.2989 54.3911 50.3004H55.0327C55.2299 50.3004 55.4401 50.2911 55.6317 50.3523C56.2672 50.5377 56.6257 51.1503 56.5707 51.792V52.3638C56.5639 52.9065 56.2245 53.3454 55.743 53.5686C55.5439 53.6958 55.3922 53.885 55.3114 54.107C55.2306 54.329 55.2252 54.5715 55.2961 54.7969C55.3288 54.8952 55.4018 55.101 55.4345 55.1981C55.5014 55.4021 55.6284 55.5812 55.7988 55.7118C55.9692 55.8424 56.1752 55.9185 56.3896 55.93C56.58 55.9374 57.0418 55.93 57.2377 55.93C58.6953 55.93 62.5706 55.93 64.0746 55.93V56.1772L64.074 56.1822Z" fill="#623FC6"/>
<path d="M52.8122 46.9952L52.9682 46.9518C53.0213 46.9371 53.0775 46.939 53.1295 46.9572C53.2739 47.008 53.347 47.1689 53.2901 47.3111L53.2236 47.4774C53.2011 47.5337 53.1904 47.594 53.1923 47.6546L53.2413 49.2588C53.2499 49.5407 53.361 49.8098 53.5538 50.0157C53.6273 50.0943 53.7114 50.1622 53.8037 50.2176L53.991 50.33C54.112 50.4026 54.2526 50.4356 54.3932 50.4245L54.6559 50.4038C54.7925 50.393 54.9205 50.4715 54.9728 50.5982C55.0512 50.7883 54.93 51.0015 54.7265 51.0312L54.1434 51.1165C53.7866 51.1686 53.441 50.968 53.3094 50.6323L52.2918 48.0375C52.122 47.6045 52.364 47.1196 52.8122 46.9952Z" fill="#623FC6"/>
<path d="M55.0998 52.6032L55.3506 52.5229C55.5482 52.4596 55.7639 52.5322 55.8831 52.702C55.9987 52.8667 55.9976 53.0866 55.8804 53.2502L55.8293 53.3214C55.806 53.3539 55.7795 53.3841 55.7501 53.4113L55.5053 53.6385C55.384 53.7511 55.2932 53.8925 55.2412 54.0496C55.1995 54.1756 55.1838 54.3088 55.195 54.4411L55.2019 54.5217C55.2127 54.6495 55.2414 54.7752 55.2871 54.8951L55.3921 55.1707C55.4572 55.3418 55.5549 55.4987 55.6796 55.6328L55.6985 55.6532C55.8329 55.7976 55.9982 55.9096 56.1822 55.9807L56.3005 56.0264C56.4043 56.0665 56.5159 56.0828 56.6269 56.074L56.9372 56.0495C57.0738 56.0387 57.2018 56.1173 57.254 56.2439C57.3325 56.434 57.2112 56.6472 57.0077 56.677L56.4247 56.7622C56.0679 56.8144 55.7223 56.6138 55.5906 56.2781L54.5792 53.699C54.4039 53.2519 54.6425 52.7497 55.0998 52.6032Z" fill="#623FC6"/>
<path d="M59.3428 54.9897C60.3535 54.9959 61.6108 54.9792 62.6264 54.96L63.1741 54.9508C63.3565 54.9471 63.5389 54.9508 63.7212 54.8951V55.2042C63.5424 55.16 63.3582 55.1414 63.1741 55.1492L62.6264 55.1393C62.0812 55.1282 60.9828 55.114 60.4375 55.1103C60.0728 55.1103 59.7081 55.1072 59.3428 55.1103V54.9903V54.9897Z" fill="#623FC6"/>
<path d="M64.8115 46.8964C65.1466 46.9026 65.5635 46.8859 65.9002 46.8667L66.0818 46.8575C66.1422 46.8537 66.2027 46.8575 66.2631 46.8018V47.1109C66.2038 47.0666 66.1428 47.0481 66.0818 47.0559L65.9002 47.046C65.7194 47.0349 65.3552 47.0207 65.1745 47.0169C65.0536 47.0169 64.9326 47.0139 64.8115 47.0169V46.897V46.8964Z" fill="#623FC6"/>
<path d="M75.5003 47.5459H70.4678C70.1648 47.546 69.8741 47.4258 69.6596 47.2117C69.4452 46.9976 69.3245 46.7071 69.3242 46.4041H69.5715C69.5716 46.6413 69.6659 46.8687 69.8337 47.0364C70.0014 47.2041 70.2288 47.2984 70.466 47.2986H75.5003C75.737 47.2978 75.9638 47.2032 76.131 47.0356C76.2982 46.8679 76.3921 46.6409 76.3923 46.4041H76.6395C76.6394 46.7064 76.5194 46.9964 76.3058 47.2104C76.0923 47.4244 75.8026 47.545 75.5003 47.5459Z" fill="#623FC6"/>
<path d="M70.4182 46.3868H70.1709V47.4401H70.4182V46.3868Z" fill="#623FC6"/>
<path d="M71.1867 46.3868H70.9395V47.4401H71.1867V46.3868Z" fill="#623FC6"/>
<path d="M71.9543 46.3868H71.707V47.4401H71.9543V46.3868Z" fill="#623FC6"/>
<path d="M72.7219 46.3868H72.4746V47.4401H72.7219V46.3868Z" fill="#623FC6"/>
<path d="M73.4885 46.3868H73.2412V47.4401H73.4885V46.3868Z" fill="#623FC6"/>
<path d="M74.257 46.3868H74.0098V47.4401H74.257V46.3868Z" fill="#623FC6"/>
<path d="M75.0246 46.3868H74.7773V47.4401H75.0246V46.3868Z" fill="#623FC6"/>
<path d="M75.7922 46.3868H75.5449V47.4401H75.7922V46.3868Z" fill="#623FC6"/>
<path d="M50.1447 66.6334C49.4716 66.6336 48.8134 66.4352 48.2526 66.063C47.6918 65.6908 47.2533 65.1613 46.9921 64.541L41.8199 52.2148C41.4711 51.38 41.4675 50.441 41.8099 49.6036C42.1523 48.7661 42.8128 48.0986 43.6466 47.7474L47.3116 46.21C47.725 46.0365 48.1684 45.9462 48.6166 45.9441C49.0649 45.942 49.5091 46.0282 49.9241 46.1978C50.339 46.3675 50.7164 46.6172 51.0348 46.9327C51.3532 47.2482 51.6063 47.6233 51.7797 48.0367L56.955 60.3616C57.3038 61.1964 57.3074 62.1354 56.965 62.9728C56.6226 63.8103 55.9621 64.4778 55.1283 64.829L51.4601 66.3707C51.0435 66.545 50.5963 66.6343 50.1447 66.6334ZM48.6339 46.2514C48.2221 46.252 47.8146 46.3348 47.4353 46.495L43.769 48.0336C43.0105 48.3529 42.4097 48.96 42.0983 49.7217C41.7869 50.4835 41.7904 51.3376 42.108 52.0968L47.2801 64.4217C47.5994 65.1799 48.2064 65.7806 48.968 66.092C49.7296 66.4034 50.5836 66.4 51.3427 66.0827L55.009 64.5441C55.7675 64.2249 56.3685 63.6178 56.6799 62.856C56.9913 62.0942 56.9877 61.24 56.67 60.4809L51.496 48.156C51.2587 47.5925 50.8607 47.1114 50.3518 46.7727C49.8428 46.434 49.2453 46.2527 48.6339 46.2514Z" fill="#623FC6"/>
<path d="M53.2184 47.2331C52.6604 46.5487 51.8964 46.0627 51.0401 45.8473C50.1837 45.6319 49.2807 45.6986 48.4653 46.0376L47.2908 46.5321L47.1709 46.2471L48.3454 45.7526C49.2225 45.3878 50.1938 45.3158 51.1151 45.5475C52.0363 45.7792 52.8581 46.302 53.4582 47.0384L53.2184 47.2331Z" fill="#623FC6"/>
<path d="M53.2707 65.6067L53.165 65.3168L55.0065 64.5441L55.0146 64.5626L56.0549 64.1256C56.5494 63.9184 56.9982 63.6158 57.3756 63.235C57.7531 62.8543 58.0518 62.4029 58.2547 61.9066C58.4576 61.4104 58.5607 60.879 58.5581 60.3429C58.5555 59.8068 58.4472 59.2764 58.2395 58.7822L57.1213 56.1179L57.4069 55.9986L58.5251 58.6629C58.7487 59.1945 58.8653 59.7651 58.8682 60.3418C58.8711 60.9186 58.7603 61.4903 58.5422 62.0242C58.324 62.5581 58.0027 63.0438 57.5968 63.4535C57.1908 63.8631 56.708 64.1888 56.1761 64.4118L53.6738 65.4626C53.5421 65.5152 53.4074 65.5671 53.2707 65.6067Z" fill="#623FC6"/>
<path d="M55.0428 50.3645L54.7578 50.4841L55.9275 53.2721L56.2125 53.1525L55.0428 50.3645Z" fill="#623FC6"/>
<path d="M50.7674 63.2836C50.0435 63.2836 49.2121 62.8509 48.3646 62.0176C47.2982 60.9705 46.3222 59.4077 45.6113 57.6175C44.9004 55.8274 44.5437 54.0186 44.6031 52.5239C44.6649 50.9871 45.1631 49.9567 46.0081 49.6216C46.2111 49.5419 46.428 49.5036 46.6461 49.5091C48.3269 49.5351 50.4836 51.9199 51.7768 55.174C52.4846 56.9592 52.8425 58.7636 52.7857 60.254C52.7238 61.787 52.233 62.8194 51.3954 63.1594L51.38 63.1662C51.1851 63.244 50.9772 63.2839 50.7674 63.2836ZM46.6133 49.8188C46.4442 49.8176 46.2763 49.8486 46.1188 49.9103C45.3943 50.1971 44.9647 51.1306 44.909 52.5375C44.8509 53.9889 45.2014 55.7519 45.895 57.5032C46.5886 59.2544 47.5418 60.7794 48.5778 61.7976C49.583 62.7866 50.5355 63.1693 51.26 62.8824L51.2718 62.8775C51.9907 62.5845 52.4166 61.6486 52.4704 60.2435C52.526 58.7945 52.1755 57.0352 51.4813 55.2895C50.87 53.7441 50.0348 52.3446 49.1323 51.3426C48.2558 50.3715 47.3693 49.8306 46.6368 49.8194L46.6133 49.8188Z" fill="#623FC6"/>
<path d="M51.33 63.1748C49.6486 63.1489 47.4919 60.764 46.1993 57.51C45.4915 55.7247 45.1336 53.9203 45.1904 52.4299C45.2523 50.8963 45.7468 49.8633 46.5819 49.5215L46.6981 49.8077C45.9792 50.1013 45.5533 51.0366 45.4995 52.4417C45.4439 53.8906 45.7944 55.6499 46.4886 57.3956C47.0999 58.941 47.9351 60.3405 48.8376 61.3426C49.7141 62.3137 50.6006 62.8546 51.3331 62.8664L51.33 63.1748Z" fill="#623FC6"/>
<path d="M48.4854 50.4325L45.333 52.2717L45.4888 52.5386L48.6411 50.6995L48.4854 50.4325Z" fill="#623FC6"/>
<path d="M50.0099 52.3904L45.5596 54.9868L45.7153 55.2538L50.1657 52.6574L50.0099 52.3904Z" fill="#623FC6"/>
<path d="M51.2502 54.5141L46.3369 57.3806L46.4927 57.6475L51.4059 54.781L51.2502 54.5141Z" fill="#623FC6"/>
<path d="M52.1255 56.8513L47.3857 59.6166L47.5415 59.8835L52.2812 57.1183L52.1255 56.8513Z" fill="#623FC6"/>
<path d="M52.6281 59.4051L48.9033 61.5782L49.0591 61.8452L52.7838 59.6721L52.6281 59.4051Z" fill="#623FC6"/>
<path fill-rule="evenodd" clip-rule="evenodd" d="M69.206 57.0036C69.963 57.0036 70.5767 56.3899 70.5767 55.6329C70.5767 54.8759 69.963 54.2622 69.206 54.2622C68.4489 54.2622 67.8352 54.8759 67.8352 55.6329C67.8352 56.3899 68.4489 57.0036 69.206 57.0036ZM69.206 57.4199C70.1929 57.4199 70.993 56.6198 70.993 55.6329C70.993 54.646 70.1929 53.8459 69.206 53.8459C68.219 53.8459 67.4189 54.646 67.4189 55.6329C67.4189 56.6198 68.219 57.4199 69.206 57.4199Z" fill="white"/>
<path d="M68.2432 58.1542H69.0046V59.0292H68.2432V58.1542Z" fill="white"/>
<path d="M72.1826 58.5794H73.2049V59.0292H72.1826V58.5794Z" fill="white"/>
<path d="M69.29 58.5246H70.0515V59.0292H69.29V58.5246Z" fill="white"/>
<path d="M71.7773 58.5246H71.0159V59.0292H71.7773V58.5246Z" fill="white"/>
<path d="M69.6709 58.02H70.4324V58.5246H69.6709V58.02Z" fill="white"/>
<path d="M71.7773 58.02H71.0159V58.5246H71.7773V58.02Z" fill="white"/>
<path d="M71.0166 58.02H70.7993V58.5246H71.0166V58.02Z" fill="white"/>
<defs>
<linearGradient id="paint0_linear_1641_412" x1="101.796" y1="58.2706" x2="65.8707" y2="46.2687" gradientUnits="userSpaceOnUse">
<stop stop-color="#87FDB6"/>
<stop offset="1" stop-color="#87D9FD"/>
</linearGradient>
<linearGradient id="paint1_linear_1641_412" x1="77.9079" y1="42.0618" x2="89.4293" y2="59.7968" gradientUnits="userSpaceOnUse">
<stop stop-color="white"/>
<stop offset="1" stop-color="white" stop-opacity="0"/>
</linearGradient>
<linearGradient id="paint2_linear_1641_412" x1="73.8888" y1="43.9199" x2="85.2321" y2="61.7816" gradientUnits="userSpaceOnUse">
<stop stop-color="white"/>
<stop offset="1" stop-color="white" stop-opacity="0"/>
</linearGradient>
<linearGradient id="paint3_linear_1641_412" x1="59.0323" y1="36.12" x2="106.202" y2="77.449" gradientUnits="userSpaceOnUse">
<stop stop-color="#4DA7D9"/>
<stop offset="1" stop-color="#4DA7D9" stop-opacity="0"/>
</linearGradient>
</defs>
</svg>
