<svg width="84" height="84" viewBox="0 0 84 84" fill="none" xmlns="http://www.w3.org/2000/svg">
<mask id="mask0_1641_160" style="mask-type:alpha" maskUnits="userSpaceOnUse" x="17" y="39" width="55" height="44">
<path d="M30.6946 40.8548L30.65 39.4091L31.0352 39.7974C31.0352 39.7974 32.3122 41.1855 32.863 41.4221L33.8847 41.6188L36.9385 43.8397L52.7713 53.7224C52.7713 53.7224 57.0199 56.7501 59.0633 59.1639C59.6625 60.7157 60.6485 62.4901 62.1273 63.7803L67.1076 68.7308L71.3384 81.1879L47.3642 82.1281L23.9188 80.6003L17.749 65.2639L26.6877 58.0336L28.2851 57.043C29.0615 56.4064 30.6196 55.1243 30.641 55.0886C30.6625 55.0529 31.6733 54.0861 32.176 53.6072L31.7209 51.0371L31.2211 47.8958L31.0694 45.7273L30.8017 43.3624L30.6946 40.8548Z" fill="#A57E67"/>
</mask>
<g mask="url(#mask0_1641_160)">
<path d="M30.6946 40.8548L30.65 39.4091L31.0352 39.7974C31.0352 39.7974 32.3122 41.1855 32.863 41.4221L33.8847 41.6188L36.9385 43.8397L52.7713 53.7224C52.7713 53.7224 57.0199 56.7501 59.0633 59.1639C59.6625 60.7157 60.6485 62.4901 62.1273 63.7803L67.1076 68.7308L71.3384 81.1879L47.3642 82.1281L23.9188 80.6003L17.749 65.2639L26.6877 58.0336L28.2851 57.043C29.0615 56.4064 30.6196 55.1243 30.641 55.0886C30.6625 55.0529 31.6733 54.0861 32.176 53.6072L31.7209 51.0371L31.2211 47.8958L31.0694 45.7273L30.8017 43.3624L30.6946 40.8548Z" fill="url(#paint0_linear_1641_160)"/>
<path d="M48.9503 52.4416H49.9216L61.1004 58.7311C60.7078 59.3837 60.2444 59.9719 59.7214 60.5012C59.2948 60.933 58.8285 61.3257 58.3287 61.6823C52.6273 65.7505 42.5552 65.1323 37.1086 64.4135C34.7833 64.1066 32.984 62.3786 32.1914 60.1711C31.6321 58.6134 31.0361 57.2271 30.6473 57.0264C30.1871 56.7889 29.1392 57.4389 28.1979 58.1741C27.8964 58.4095 27.5416 58.5493 27.1812 58.589C26.1093 58.7073 26.7935 58.1008 26.7008 57.0264C27.7337 56.4153 30.0118 56.0241 30.2883 55.4618C30.876 54.9093 32.0736 53.7363 32.1626 53.4645L31.7175 50.899L31.2723 47.736L30.8916 43.4953L30.6793 40.344V39.56L30.672 39.5461L31.9044 40.6797L33.1071 41.4962L33.9385 41.5663C33.9385 41.5663 36.1255 42.5722 41.2522 46.4906L44.012 48.3843L48.9503 52.4416Z" fill="url(#paint1_linear_1641_160)"/>
</g>
<mask id="mask1_1641_160" style="mask-type:alpha" maskUnits="userSpaceOnUse" x="30" y="15" width="37" height="45">
<path d="M62.9264 24.5622C55.4747 7.60021 29.7084 15.5762 31.0162 31.1391L30.5977 34.3476L33.983 41.4173L34.2722 42.9846L35.0701 45.8558L36.2199 48.5863L37.7989 51.0927L40.1563 53.3853L41.0965 54.2036L41.9714 54.72L41.1226 53.2634L40.7265 52.358L43.0592 54.3401L45.9866 56.2669L49.4306 58.0874L51.2081 58.9283L52.7691 59.442L55.4322 59.7799L56.7128 59.712L58.8838 59.1645L59.8069 58.7631L61.4315 57.5766L62.446 56.5494L63.4258 54.932L64.1136 52.9168L64.2394 53.9183L64.2864 54.932L64.6593 54.3301L65.1888 52.4643L65.4079 51.3321L65.5185 49.6752L65.4079 47.4408L66.1024 48.8204L66.4164 46.7558L66.1024 44.9767L65.7431 43.882C65.8581 43.346 65.6422 42.7207 65.6422 42.5889C65.6422 42.4571 65.4468 41.3831 65.5096 40.8941L65.1196 39.3276L64.7647 38.215L64.3042 36.0344V34.7622L64.7074 33.5528L65.0546 32.3984L65.2901 30.8705C65.2901 30.8705 65.3714 30.0112 65.2134 29.578L64.7497 28.4561L63.6401 26.3093L62.9264 24.5622Z" fill="#A77D68"/>
</mask>
<g mask="url(#mask1_1641_160)">
<path d="M62.9264 24.5622C55.4747 7.60021 29.7084 15.5762 31.0162 31.1391L30.5977 34.3476L33.983 41.4173L34.2722 42.9846L35.0701 45.8558L36.2199 48.5863L37.7989 51.0927L40.1563 53.3853L41.0965 54.2036L41.9714 54.72L41.1226 53.2634L40.7265 52.358L43.0592 54.3401L45.9866 56.2669L49.4306 58.0874L51.2081 58.9283L52.7691 59.442L55.4322 59.7799L56.7128 59.712L58.8838 59.1645L59.8069 58.7631L61.4315 57.5766L62.446 56.5494L63.4258 54.932L64.1136 52.9168L64.2394 53.9183L64.2864 54.932L64.6593 54.3301L65.1888 52.4643L65.4079 51.3321L65.5185 49.6752L65.4079 47.4408L66.1024 48.8204L66.4164 46.7558L66.1024 44.9767L65.7431 43.882C65.8581 43.346 65.6422 42.7207 65.6422 42.5889C65.6422 42.4571 65.4468 41.3831 65.5096 40.8941L65.1196 39.3276L64.7647 38.215L64.3042 36.0344V34.7622L64.7074 33.5528L65.0546 32.3984L65.2901 30.8705C65.2901 30.8705 65.3714 30.0112 65.2134 29.578L64.7497 28.4561L63.6401 26.3093L62.9264 24.5622Z" fill="url(#paint2_linear_1641_160)"/>
<path d="M47.0379 33.1518L45.5538 33.6143L44.9091 33.9466L44.6564 34.0147C44.7898 33.8444 45.0609 33.4942 45.0774 33.4555C45.094 33.4168 45.9818 32.8365 46.4236 32.5512L48.5981 31.7297L50.0822 31.5571L50.2065 32.5926V33.3313L48.8811 33.0896L47.0379 33.1518Z" fill="#CB764A"/>
<path d="M45.7878 35.1423L44.815 34.5834L44.6201 34.4859L45.0843 35.3385L46.0704 36.0303L47.2325 36.3731L48.4249 36.3033L49.2441 35.9483L49.8691 35.1686L50.1635 34.3463V33.697L49.7417 34.3069L48.8639 34.9717L47.5456 35.3727L45.7878 35.1423Z" fill="#CB764A"/>
<path d="M59.6071 33.1264L58.6321 33.2629H58.4931V32.4852L58.5764 31.6795L58.8412 31.5622L61.0125 31.9897L62.2533 32.5609L63.7967 33.6276L63.9707 34.0286L63.1195 33.6276L61.3416 33.1264H59.6071Z" fill="#CB764A"/>
<path d="M59.5183 34.8003C59.2699 34.5368 58.7663 33.9999 58.739 33.9605L58.5196 33.76L58.5612 34.5809L59.0833 35.5758L60.1311 36.1621L61.0239 36.2453L61.9128 36.1621L63.1195 35.6817L63.9707 34.9819L64.0955 34.475L63.5773 34.7852L62.8169 35.0991L61.6253 35.3337L60.5661 35.2467L59.5183 34.8003Z" fill="#CB764A"/>
<path d="M42.4602 48.8793L42.6191 47.9969L42.6545 47.669L43.2848 49.9162L44.0595 51.6821L45.5416 54.4345L46.8245 55.8284L48.1371 57.1207L49.2651 57.9983L51.5383 59.0594L53.6654 59.6065L56.5612 59.7197L58.4053 59.3141L59.2023 58.9482L60.674 58.1934L61.4352 57.5807L62.2405 56.6964L63.1943 55.4299L63.7533 53.8129L64.0944 52.957L64.2397 54.1192V54.9467L64.6503 54.0434L65.1935 52.3569L65.4793 50.7125V48.7317L65.349 47.4455L65.7506 47.8525L66.0871 48.9488L66.3584 47.0113L66.2607 45.4592L65.7452 44.0645L64.8226 42.7512L63.0643 41.5518L61.6684 41.25L56.5208 40.5226L52.0112 41.8623L50.4724 41.8122L50.2382 42.2387L49.1802 42.8869L47.3319 43.1754L45.3581 43.2967L43.5851 43.9407L42.548 45.0363L42.0044 46.295L41.9082 47.3195L42.0085 48.8793L42.2595 49.9874L42.4602 48.8793Z" fill="url(#paint3_linear_1641_160)"/>
<path d="M53.3158 43.4745C51.5174 43.5447 50.7283 42.4325 50.5586 41.8676L53.0065 40.4409L61.6434 40.9537C61.809 41.3917 61.7236 42.3926 60.0571 42.8926C58.3906 43.3925 57.737 44.3494 57.6184 44.7653L57.3901 45.1956C57.2233 44.3877 55.5637 43.3867 53.3158 43.4745Z" fill="url(#paint4_linear_1641_160)"/>
<path d="M51.0538 39.7878L50.4854 40.7452V41.5588L50.968 42.2117L52.0301 42.438L53.0835 42.2117C53.4361 42.2073 54.1177 42.2073 54.0237 42.2422C53.9297 42.277 54.5272 42.4656 54.8377 42.5556L55.6995 43.3304L56.6963 43.8571L57.2796 43.6655L58.4418 43.0257L59.9566 42.1508L61.2015 41.6154L61.4365 41.2106L61.5932 40.4706L61.1449 39.6L60.1263 38.995L59.2863 38.7425C58.819 38.7381 57.8359 38.7364 57.6409 38.7643C57.4459 38.7921 56.4493 38.9596 55.9754 39.0398L53.3949 39.1146L52.1234 39.2492L51.0538 39.7878Z" fill="url(#paint5_linear_1641_160)"/>
<path d="M65.4361 60.022L65.8635 59.8628C65.721 59.9177 65.5786 59.9707 65.4361 60.022L41.1 69.0881L28.0215 32.4122V14.2614C34.9555 16.9335 36.498 17.8782 37.9028 20.0534C40.6164 24.2549 40.5534 30.1082 39.852 35.0604C39.3972 38.2715 39.2686 41.6027 39.3598 43.7657C41.1597 55.3011 53.1863 64.4284 65.4361 60.022Z" fill="url(#paint6_linear_1641_160)"/>
<path d="M45.458 34.9013C44.8385 34.7256 44.599 34.2465 44.599 34.2465L44.5449 34.1024L46.5993 33.2974L48.7438 33.1112L50.2095 33.2974L50.1194 33.6879L49.6929 34.3907L48.4674 35.1356L47.5484 35.3758C47.1519 35.3398 46.347 35.2665 46.2989 35.2617C46.2509 35.2569 45.7183 35.0194 45.458 34.9013Z" fill="url(#paint7_linear_1641_160)"/>
<path d="M63.3539 34.9157L64.2129 34.2609L64.1609 34.122L62.2126 33.3118L60.0681 33.1256L58.6024 33.3118L58.6925 33.7023L59.119 34.4051C59.119 34.4051 59.6465 35.041 60.3444 35.15L61.2635 35.3902C61.66 35.3542 62.4649 35.2809 62.5129 35.2761C62.561 35.2713 63.0936 35.0338 63.3539 34.9157Z" fill="url(#paint8_linear_1641_160)"/>
<path opacity="0.4" d="M69.1623 64.0449C69.0311 64.0974 60.1739 60.3599 56.1953 59.8353C69.9543 59.3919 66.1267 22.2539 56.9803 17.1266C59.8923 16.7409 62.9405 14.6503 63.8502 14.6503C64.9873 14.6503 74.9693 24.6343 79.1006 27.8016C83.2319 30.969 86.4681 46.2549 85.9173 48.9402C85.3664 51.6256 69.3262 63.9793 69.1623 64.0449Z" fill="#FFE4D7"/>
</g>
<path d="M30.6084 39.4557C30.646 40.7301 30.6982 42.0126 30.7871 43.2851C30.9905 46.8003 31.5248 50.2729 32.1404 53.7324L32.3127 53.6193C31.4537 48.9426 30.9244 44.2057 30.8256 39.4501L30.6084 39.4557Z" fill="#623FC6"/>
<path fill-rule="evenodd" clip-rule="evenodd" d="M32.5229 55.0243C32.3664 54.6546 32.1878 54.1545 32.1045 53.64L32.3118 53.6064C32.3913 54.0978 32.5631 54.5806 32.7163 54.9425C32.7926 55.123 32.864 55.2724 32.9162 55.3765C32.9422 55.4285 32.9635 55.4692 32.9781 55.4967C32.9854 55.5104 32.9911 55.5209 32.9949 55.5279C32.9968 55.5313 32.9983 55.5339 32.9992 55.5356L33.0002 55.5375L33.0005 55.538C33.0005 55.538 33.0005 55.538 32.9089 55.5893C32.8173 55.6406 32.8173 55.6406 32.8172 55.6405L32.8167 55.6397L32.8155 55.6373C32.8144 55.6353 32.8127 55.6324 32.8107 55.6286C32.8065 55.621 32.8005 55.6099 32.7928 55.5954C32.7774 55.5665 32.7553 55.5242 32.7284 55.4705C32.6746 55.3632 32.6013 55.2096 32.5229 55.0243Z" fill="#623FC6"/>
<path d="M32.1295 53.479C32.1141 53.4965 30.4676 55.3246 28.6819 56.7001C28.02 57.2096 27.4372 57.5666 26.8496 57.8722L26.868 58.0963C27.4908 57.7775 28.1043 57.4063 28.8081 56.8641C30.6104 55.4758 32.1586 53.7249 32.1739 53.7074L32.1295 53.479Z" fill="#623FC6"/>
<path d="M58.9297 59.1503C59.1644 59.7179 60.3843 62.4982 61.7865 63.6222C61.9397 63.7451 62.1046 63.8685 62.2811 63.9934L62.2996 63.7521C62.1641 63.6543 62.0362 63.5575 61.9159 63.461C60.5813 62.3908 59.1335 59.1177 59.1335 59.1177L58.9297 59.1503Z" fill="#623FC6"/>
<path fill-rule="evenodd" clip-rule="evenodd" d="M58.9758 59.0168C58.1389 60.4118 57.0161 63.3379 58.0202 66.5184L58.2097 66.4586C57.2273 63.3467 58.3273 60.484 59.1462 59.1191L58.9758 59.0168Z" fill="#623FC6"/>
<path d="M57.0839 34.4214C56.9501 33.0269 57.4717 31.8656 57.4717 31.8656C57.4904 31.8221 57.5408 31.8184 57.576 31.8327C57.6111 31.847 57.6281 31.8871 57.6138 31.9223C57.6138 31.9223 57.1678 33.0354 57.3089 34.39C57.3855 35.1256 57.6356 35.933 58.2282 36.671C58.7538 37.3269 59.1845 37.9081 59.4804 38.45C59.6132 38.6932 59.7191 38.9288 59.795 39.1597C59.8721 39.3943 59.9181 39.624 59.93 39.8519C60.0089 41.3723 58.5803 43.3225 57.02 43.7042H56.75C58.416 43.1692 59.7797 41.2956 59.7088 39.8796C59.6861 39.4257 59.497 38.9489 59.2848 38.5559C58.9959 38.0207 58.5663 37.4539 58.0523 36.805C57.4425 36.0336 57.1572 35.1863 57.0839 34.4214Z" fill="#623FC6"/>
<path fill-rule="evenodd" clip-rule="evenodd" d="M63.9043 27.0155C63.5453 26.3625 63.1619 25.6248 62.8237 24.7089L63.0601 24.6216C63.392 25.5203 63.7685 26.2454 64.1252 26.8941C64.1923 27.0161 64.2589 27.1358 64.3244 27.2536C64.6059 27.7594 64.8685 28.2312 65.0714 28.7121C65.3232 29.309 65.4859 29.9254 65.4879 30.6555C65.4898 31.3843 65.3316 32.2193 64.9512 33.2543C64.6635 34.0369 64.4198 34.8252 64.467 35.6304C64.5014 36.2161 64.5876 36.9272 64.7689 37.6623C65.967 40.9722 65.9427 43.4957 65.9209 44.0381C66.5509 45.2887 66.7861 46.9633 66.2216 49.1119L65.9742 49.0858C65.9739 49.0858 65.9739 49.0858 65.9739 49.0858L65.9739 49.0857L65.9738 49.0842C65.9737 49.0826 65.9735 49.0802 65.9733 49.0768C65.973 49.0729 65.9727 49.0678 65.9722 49.0615C65.9718 49.0569 65.9713 49.0517 65.9708 49.046C65.9683 49.0185 65.9639 48.9776 65.9563 48.9257C65.9413 48.8219 65.9139 48.6745 65.8647 48.5023C65.8043 48.2905 65.7114 48.0431 65.5692 47.7938C65.8297 49.4313 65.8487 52.4866 64.3348 55.1621L64.0999 55.0861C64.1903 54.2788 64.16 53.7031 64.107 53.3288C63.4603 56.2524 61.4758 58.2986 58.9428 59.2641C56.2482 60.2912 52.9358 60.0952 49.9485 58.4452C46.9451 57.0751 44.5588 55.5043 42.9228 54.2757C42.1044 53.661 41.4734 53.1317 41.0468 52.7558C41.0225 52.7344 40.9989 52.7135 40.976 52.6931C41.0109 52.7548 41.048 52.8199 41.0871 52.8882C41.397 53.4291 41.8351 54.1696 42.3479 54.9677L42.1621 55.1333C41.9442 54.9552 41.7194 54.7755 41.4894 54.5917C40.2103 53.5694 38.7716 52.4196 37.4799 50.7015C35.9533 48.671 34.634 45.8516 33.9961 41.5095L34.2454 41.4729C34.878 45.7785 36.183 48.5573 37.6813 50.5501C38.9523 52.2406 40.3638 53.3691 41.6426 54.3914C41.6723 54.4151 41.7019 54.4388 41.7314 54.4624C41.3893 53.9098 41.0948 53.4086 40.8684 53.0134C40.7127 52.7416 40.5892 52.5198 40.5045 52.366C40.4622 52.289 40.4296 52.229 40.4075 52.1882C40.3965 52.1678 40.3881 52.1522 40.3824 52.1417L40.376 52.1297L40.374 52.1258L40.3739 52.1256C40.3738 52.1256 40.3738 52.1255 40.485 52.0663L40.3738 52.1255L40.5742 51.9773L40.5743 51.9774L40.5765 51.9796L40.5839 51.9869C40.5878 51.9908 40.593 51.9959 40.5994 52.0022C40.6037 52.0064 40.6086 52.0111 40.614 52.0164C40.6408 52.0425 40.6812 52.0813 40.7348 52.1318C40.842 52.2329 41.0023 52.3807 41.2134 52.5667C41.6356 52.9388 42.2615 53.4638 43.0742 54.0741C44.37 55.0474 46.1404 56.237 48.3177 57.3693C45.8856 55.481 43.8245 52.4918 42.7225 48.2594C42.7076 48.33 42.6925 48.4075 42.6778 48.4913C42.5998 48.9348 42.534 49.5524 42.5821 50.2486L42.3386 50.302C42.013 49.4447 41.7494 48.1971 41.8815 46.9692C42.014 45.7381 42.5464 44.5173 43.8217 43.743C44.4205 43.3794 45.0893 43.2344 45.7676 43.1592C46.0964 43.1228 46.4303 43.1025 46.7605 43.0824L46.7916 43.0805C47.1331 43.0598 47.4705 43.0387 47.8011 42.9999C48.3755 42.9326 48.9735 42.8074 49.4647 42.5842C49.9462 42.3654 50.3093 42.06 50.462 41.6378C50.347 40.7353 50.6053 40.1138 51.1063 39.6986C51.6023 39.2875 52.319 39.0936 53.0825 38.998C53.7973 38.9084 54.5729 38.903 55.28 38.8981C55.3308 38.8978 55.3812 38.8974 55.4312 38.8971C56.1866 38.8914 56.8386 38.8787 57.263 38.764C57.9249 38.5851 58.4613 38.5468 58.8655 38.5734C59.2453 38.5983 59.5157 38.6813 59.6626 38.7652C60.6303 38.9283 61.2038 39.296 61.5044 39.745C61.807 40.1971 61.8173 40.7082 61.7076 41.1187C61.7065 41.1228 61.7054 41.1268 61.7043 41.1308C62.8829 41.1758 64.6337 41.9416 65.6742 43.6006C65.6641 42.6426 65.5154 40.4622 64.5297 37.7419L64.5275 37.7356L64.5259 37.7292C64.3391 36.9738 64.2506 36.2446 64.2154 35.6452C64.1649 34.7835 64.4262 33.9521 64.7146 33.1674C65.0879 32.1519 65.2377 31.3471 65.2359 30.6562C65.234 29.9665 65.081 29.3833 64.8392 28.8101C64.6421 28.343 64.3879 27.8861 64.107 27.3813C64.0408 27.2623 63.9731 27.1406 63.9043 27.0155ZM65.666 44.0932C64.6826 42.2015 62.7612 41.3793 61.5926 41.3807C61.4797 41.5576 61.3148 41.6854 61.1352 41.7829C60.9347 41.8917 60.707 41.9674 60.4954 42.0314C59.8406 42.2293 59.325 42.5629 58.8644 42.8978C58.7721 42.9649 58.6813 43.0327 58.5915 43.0997C58.2404 43.3618 57.9055 43.6117 57.5613 43.7615C57.3591 43.8494 57.149 43.9055 56.9243 43.9113C56.5622 43.9208 56.256 43.7672 55.9848 43.5718C55.8491 43.474 55.7191 43.3635 55.5936 43.2546C55.5711 43.235 55.5488 43.2155 55.5266 43.1962C55.4238 43.1065 55.3239 43.0194 55.2224 42.9386C54.6523 42.4853 53.8215 42.0777 52.803 42.4364C52.1039 42.6826 51.5665 42.6228 51.1775 42.4323C50.9146 42.3036 50.7252 42.1179 50.6023 41.9378C50.386 42.3334 50.0074 42.6144 49.569 42.8136C49.044 43.0522 48.4169 43.1815 47.8304 43.2502C47.4918 43.2899 47.1475 43.3113 46.8069 43.3321L46.7783 43.3338C46.4463 43.354 46.1179 43.3739 45.7953 43.4097C45.1319 43.4832 44.5055 43.6226 43.9525 43.9584C42.762 44.6812 42.2587 45.82 42.1321 46.9962C42.042 47.8328 42.1436 48.6834 42.3228 49.4034C42.3407 49.0372 42.3831 48.7123 42.4296 48.4477C42.4698 48.2185 42.5133 48.0339 42.5468 47.9062C42.5636 47.8423 42.5779 47.7926 42.5881 47.7586C42.5932 47.7416 42.5972 47.7285 42.6001 47.7196C42.6015 47.7151 42.6026 47.7116 42.6034 47.7092L42.6044 47.7064L42.6046 47.7055L42.6047 47.7053L42.6047 47.7052C42.6048 47.7051 42.6048 47.7051 42.7243 47.745L42.6047 47.7052L42.7447 47.2863L42.8469 47.7159C44.123 53.0835 46.9184 56.4821 50.0662 58.2223C52.9936 59.8407 56.2306 60.0282 58.853 59.0286C61.4731 58.03 63.4826 55.8463 63.9672 52.7071L64.0318 52.2885L64.2065 52.6743L64.0918 52.7263C64.1437 52.7028 64.1721 52.69 64.1877 52.6829C64.2066 52.6744 64.2066 52.6744 64.2066 52.6745L64.2067 52.6746L64.2072 52.6759L64.2083 52.6784C64.2092 52.6805 64.2104 52.6832 64.2118 52.6867C64.2147 52.6936 64.2186 52.7034 64.2233 52.7161C64.2327 52.7414 64.2454 52.7783 64.2597 52.8273C64.2885 52.9253 64.3239 53.0715 64.3531 53.2697C64.396 53.561 64.4253 53.9645 64.4005 54.4924C65.7603 51.6645 65.5224 48.5428 65.2096 47.2755L65.4263 47.1618C65.8026 47.5868 66.0018 48.0643 66.1071 48.4331C66.1096 48.4421 66.1122 48.4511 66.1147 48.46C66.4835 46.6335 66.2337 45.2064 65.6846 44.1294L65.6639 44.1278L65.6639 44.1271L65.6641 44.1241C65.6643 44.1214 65.6646 44.1172 65.6649 44.1115C65.6652 44.1065 65.6656 44.1004 65.666 44.0932ZM50.7136 41.6189C50.7885 41.8009 50.973 42.0516 51.2883 42.206C51.6076 42.3623 52.0738 42.426 52.7193 42.1987C53.8544 41.7989 54.7763 42.262 55.3793 42.7414C55.4857 42.826 55.5908 42.9177 55.6938 43.0075C55.7156 43.0266 55.7373 43.0455 55.7589 43.0643C55.8839 43.1729 56.0064 43.2768 56.1321 43.3673C56.3835 43.5485 56.6351 43.6668 56.9177 43.6594C57.1035 43.6546 57.2815 43.6083 57.4607 43.5304C57.7755 43.3935 58.0795 43.1668 58.4273 42.9075C58.5202 42.8383 58.6161 42.7667 58.7162 42.6939C59.1843 42.3536 59.7271 42.0004 60.4225 41.7901C60.6322 41.7267 60.8387 41.6571 61.015 41.5614C61.1908 41.466 61.3277 41.3495 61.4082 41.197C61.4314 41.1531 61.4503 41.1055 61.4641 41.0537C61.5603 40.6939 61.5473 40.2621 61.295 39.8852C61.0431 39.509 60.537 39.1639 59.598 39.01L59.5729 39.0058L59.5513 38.9923C59.4593 38.9344 59.2267 38.8497 58.849 38.8248C58.475 38.8002 57.9664 38.835 57.3288 39.0073C56.8659 39.1323 56.1763 39.1434 55.4331 39.1491C55.3841 39.1494 55.3347 39.1498 55.2851 39.1501C54.5746 39.1551 53.8132 39.1604 53.1138 39.248C52.3629 39.3421 51.7061 39.5288 51.2671 39.8926C50.8412 40.2456 50.6035 40.7797 50.7136 41.6189Z" fill="#613EC4"/>
<path fill-rule="evenodd" clip-rule="evenodd" d="M50.254 31.6305C51.059 31.4648 51.7293 30.9272 52.0228 30.251C52.3372 29.5271 52.2129 28.6591 51.3975 27.948L51.2319 28.1379C51.9677 28.7796 52.0607 29.5312 51.7917 30.1507C51.5188 30.7793 50.8664 31.2865 50.0823 31.4053C47.9095 31.6374 46.4846 32.3207 45.6004 32.9518C45.1585 33.2672 44.8526 33.5689 44.6563 33.7932C44.5581 33.9054 44.4874 33.9982 44.4408 34.0637C44.4174 34.0964 44.4002 34.1224 44.3885 34.1405C44.3826 34.1496 44.3782 34.1567 44.3751 34.1617C44.3735 34.1642 44.3723 34.1662 44.3715 34.1677L44.3704 34.1695L44.37 34.1701L44.3699 34.1703C44.3699 34.1704 44.3698 34.1705 44.4786 34.2341L44.3698 34.1705L44.3477 34.2083L44.3538 34.2518C44.4422 34.8756 44.8884 35.4203 45.4778 35.8124C46.0692 36.2058 46.8215 36.4576 47.5564 36.4877C48.2912 36.5178 49.0214 36.3262 49.551 35.8159C50.0809 35.3053 50.3901 34.4951 50.3236 33.3294C50.3236 33.3291 50.3237 33.3288 50.3237 33.3285C50.3246 33.3205 50.3259 33.3089 50.3274 33.294C50.3305 33.2641 50.3346 33.2208 50.3388 33.1665C50.3472 33.058 50.3559 32.9051 50.3576 32.727C50.3605 32.4105 50.3411 32.0078 50.254 31.6305ZM50.0863 33.1633C50.0867 33.158 50.0871 33.1526 50.0875 33.1471C50.0956 33.0431 50.104 32.8961 50.1056 32.7247C50.1085 32.4108 50.0883 32.0218 50.0039 31.6675C47.9329 31.9056 46.5811 32.5615 45.7468 33.157C45.4337 33.3804 45.193 33.5957 45.0142 33.7779C46.1352 33.2136 48.0777 32.622 50.0863 33.1633ZM44.6664 34.2615C45.5982 33.6733 47.7873 32.7945 50.0448 33.4132C49.7179 34.5808 48.6813 35.1344 47.5474 35.2177C46.4283 35.3 45.2629 34.9187 44.6664 34.2615ZM50.0624 34.0393C49.5614 34.9582 48.5777 35.3947 47.5658 35.469C46.5442 35.5441 45.4572 35.254 44.7562 34.6901C44.9306 35.0334 45.2329 35.3468 45.6174 35.6026C46.1711 35.9709 46.8788 36.2077 47.5667 36.2359C48.2546 36.2641 48.9098 36.0837 49.3762 35.6344C49.7349 35.2888 49.9936 34.7726 50.0624 34.0393Z" fill="#613EC4"/>
<path fill-rule="evenodd" clip-rule="evenodd" d="M58.4413 31.6305C57.6363 31.4648 56.9661 30.9272 56.6725 30.251C56.3581 29.5271 56.4824 28.6591 57.2978 27.948L57.4635 28.1379C56.7276 28.7796 56.6347 29.5312 56.9036 30.1507C57.1765 30.7793 57.8289 31.2865 58.613 31.4053C60.7858 31.6374 62.2107 32.3207 63.0949 32.9518C63.5368 33.2672 63.8428 33.5689 64.0391 33.7932C64.1372 33.9054 64.2079 33.9982 64.2546 34.0637C64.2779 34.0964 64.2952 34.1224 64.3068 34.1405C64.3127 34.1496 64.3171 34.1567 64.3202 34.1617C64.3218 34.1642 64.323 34.1662 64.3239 34.1677L64.3249 34.1695L64.3253 34.1701L64.3254 34.1703C64.3255 34.1704 64.3255 34.1705 64.2167 34.2341L64.3255 34.1705L64.3477 34.2083L64.3415 34.2518C64.2528 34.8778 63.796 35.4078 63.1959 35.7807C62.5936 36.1548 61.8292 36.383 61.0874 36.3975C60.346 36.4121 59.6128 36.2131 59.0898 35.7148C58.5655 35.2155 58.2722 34.4345 58.3715 33.3273C58.3706 33.3194 58.3693 33.3082 58.3679 33.294C58.3648 33.2641 58.3607 33.2208 58.3565 33.1665C58.3482 33.058 58.3394 32.9051 58.3377 32.727C58.3348 32.4105 58.3542 32.0078 58.4413 31.6305ZM58.6091 33.1633C58.6086 33.158 58.6082 33.1526 58.6078 33.1471C58.5998 33.0431 58.5913 32.8961 58.5897 32.7247C58.5868 32.4108 58.607 32.0218 58.6914 31.6675C60.7624 31.9056 62.1142 32.5615 62.9485 33.157C63.2616 33.3804 63.5023 33.5957 63.6811 33.7779C62.5601 33.2136 60.6176 32.622 58.6091 33.1633ZM64.0289 34.2615C63.0971 33.6733 60.908 32.7945 58.6505 33.4132C58.9775 34.5808 60.0141 35.1344 61.1479 35.2177C62.267 35.3 63.4324 34.9187 64.0289 34.2615ZM58.6131 34.0023C59.1077 34.9465 60.1041 35.3937 61.1295 35.469C62.1475 35.5439 63.2304 35.2561 63.9317 34.696C63.7541 35.0283 63.4496 35.3263 63.0629 35.5666C62.4997 35.9165 61.7796 36.1319 61.0824 36.1456C60.3848 36.1593 59.7243 35.9712 59.2636 35.5324C58.9098 35.1954 58.662 34.6992 58.6131 34.0023Z" fill="#623FC6"/>
<path d="M48.5069 33.9307C48.5069 34.1896 48.297 34.3994 48.0381 34.3994C47.7792 34.3994 47.5693 34.1896 47.5693 33.9307C47.5693 33.6718 47.7792 33.4619 48.0381 33.4619C48.297 33.4619 48.5069 33.6718 48.5069 33.9307Z" fill="#613EC4"/>
<path d="M61.4678 33.9307C61.4678 34.1896 61.2579 34.3994 60.999 34.3994C60.7401 34.3994 60.5303 34.1896 60.5303 33.9307C60.5303 33.6718 60.7401 33.4619 60.999 33.4619C61.2579 33.4619 61.4678 33.6718 61.4678 33.9307Z" fill="#613EC4"/>
<path fill-rule="evenodd" clip-rule="evenodd" d="M50.5812 36.302C50.4453 36.5872 50.2374 36.8575 50.0197 37.0859C49.7968 37.3191 49.5352 37.5039 49.2579 37.6672C49.2205 37.6938 49.169 37.6849 49.1432 37.6473C49.1167 37.6107 49.1256 37.5592 49.1631 37.5326C49.3998 37.3334 49.5947 37.1298 49.7716 36.9557C50.0079 36.7243 50.2473 36.49 50.4387 36.2199C50.4622 36.18 50.512 36.1668 50.5518 36.1896C50.5908 36.2124 50.6049 36.2629 50.5812 36.302Z" fill="#623FC6"/>
<path fill-rule="evenodd" clip-rule="evenodd" d="M50.5812 36.302C50.4453 36.5872 50.2374 36.8575 50.0197 37.0859C49.7968 37.3191 49.5352 37.5039 49.2579 37.6672C49.2205 37.6938 49.169 37.6849 49.1432 37.6473C49.1167 37.6107 49.1256 37.5592 49.1631 37.5326C49.3998 37.3334 49.5947 37.1298 49.7716 36.9557C50.0079 36.7243 50.2473 36.49 50.4387 36.2199C50.4622 36.18 50.512 36.1668 50.5518 36.1896C50.5908 36.2124 50.6049 36.2629 50.5812 36.302Z" fill="#613EC4"/>
<path fill-rule="evenodd" clip-rule="evenodd" d="M58.7615 36.302C58.8974 36.5872 59.1054 36.8575 59.323 37.0859C59.546 37.3191 59.8076 37.5039 60.0848 37.6672C60.1223 37.6938 60.1738 37.6849 60.1996 37.6473C60.2261 37.6107 60.2172 37.5592 60.1797 37.5326C59.9429 37.3334 59.748 37.1298 59.5712 36.9557C59.3349 36.7243 59.0955 36.49 58.9041 36.2199C58.8806 36.18 58.8308 36.1668 58.791 36.1896C58.752 36.2124 58.7379 36.2629 58.7615 36.302Z" fill="#623FC6"/>
<path d="M32.6273 30.1279L32.286 30.0766L31.7613 29.9355L30.6829 30.0168L29.9183 30.364L29.2129 31.0546L28.7291 32.0666L28.5186 34.0684L28.6774 36.0149L29.2794 37.6326L30.3542 39.0139L31.1372 39.8929L32.3929 41.0748L33.176 41.4881L33.9442 41.6062H34.1347C36.7759 32.7871 32.6273 30.1279 32.6273 30.1279Z" fill="#D96D52"/>
<path d="M32.6309 30.1289C32.6309 30.1288 32.6308 30.1288 32.6307 30.1287L32.5366 30.3041L32.5366 30.3041C32.5362 30.3039 32.5358 30.3037 32.5358 30.3036C32.5195 30.2948 31.4318 29.7082 30.2289 30.3688L30.2288 30.3689C29.3693 30.8399 28.8053 31.7125 28.7288 32.6896L28.7288 32.6898C28.5817 34.5193 28.6798 35.7592 29.0232 36.7576C29.539 38.2571 30.6065 39.2099 32.2041 40.7991L32.2044 40.7994C32.636 41.2323 33.2222 41.4756 33.8335 41.4756H33.8338C33.9518 41.4759 34.0314 41.4759 34.0314 41.4759C34.0863 41.4759 34.1309 41.5205 34.1309 41.5754C34.1309 41.6303 34.0863 41.6749 34.0314 41.6749C34.0314 41.6749 33.9517 41.6749 33.8333 41.6746C33.1693 41.6745 32.5326 41.4103 32.0636 40.9401C30.4383 39.3233 29.3598 38.3479 28.8351 36.8224C28.4848 35.8041 28.3804 34.5398 28.5305 32.6739C28.6122 31.6299 29.2148 30.6976 30.1331 30.1944C31.4274 29.4836 32.5986 30.1113 32.6307 30.1287L32.6307 30.1287L32.6309 30.1289Z" fill="#623FC6"/>
<path fill-rule="evenodd" clip-rule="evenodd" d="M30.3531 30.2614C30.3531 30.2614 32.3795 31.4396 32.9458 33.5355C33.082 34.1324 32.9007 34.6073 32.7557 35.096C32.6392 35.4884 32.544 35.8891 32.6223 36.3585C32.7001 36.8248 32.9494 37.3612 33.5309 38.0251C33.5671 38.0664 33.6299 38.0705 33.6711 38.0344C33.7124 37.9982 33.7166 37.9354 33.6804 37.8942C33.1321 37.2682 32.8917 36.7655 32.8184 36.3258C32.7456 35.8894 32.8379 35.5173 32.9462 35.1525C33.1006 34.6321 33.2848 34.1253 33.1391 33.4894C33.1388 33.4881 33.1385 33.4869 33.1382 33.4857C32.5522 31.3127 30.4531 30.0897 30.4531 30.0897C30.4057 30.0621 30.3448 30.0782 30.3172 30.1256C30.2896 30.1729 30.3057 30.2338 30.3531 30.2614Z" fill="#623FC6"/>
<mask id="mask2_1641_160" style="mask-type:alpha" maskUnits="userSpaceOnUse" x="47" y="45" width="18" height="6">
<path d="M57.0782 46.24C52.364 46.14 48.7824 48.951 47.7178 50.0296C48.4301 49.6178 50.4823 48.7747 52.992 48.6963C55.5016 48.6179 57.0435 48.6284 58.5003 48.1226C59.9258 47.6699 62.8036 46.7459 62.9107 46.6709C63.0179 46.5959 64.0619 45.909 64.5705 45.5749C62.4214 44.306 61.4198 46.1499 57.0782 46.24Z" fill="#322621"/>
</mask>
<g mask="url(#mask2_1641_160)">
<path d="M57.0782 46.24C52.364 46.14 48.7824 48.951 47.7178 50.0296C48.4301 49.6178 50.4823 48.7747 52.992 48.6963C55.5016 48.6179 57.0435 48.6284 58.5003 48.1226C59.9258 47.6699 62.8036 46.7459 62.9107 46.6709C63.0179 46.5959 64.0619 45.909 64.5705 45.5749C62.4214 44.306 61.4198 46.1499 57.0782 46.24Z" fill="#322621"/>
<path d="M59.9299 47.2945C58.5204 46.6584 54.9874 46.9671 52.3447 48.6821L52.4616 48.7243L54.8981 48.615L56.3654 48.5755L57.864 48.3235L59.9299 47.2945Z" fill="#FF5A5A"/>
</g>
<path d="M59.1203 48.1503L57.0435 48.017C56.8436 47.806 56.4239 47.3618 56.3439 47.2729C56.264 47.1841 56.3772 46.8287 56.4438 46.6621L56.6326 46.229L57.7765 46.3289L61.4576 45.4961C61.987 45.3295 62.4364 45.5049 62.5075 45.496C62.5785 45.4871 69.4003 45.8773 72.8023 46.0735L73.1243 47.2618L72.8023 48.6167L72.3803 49.0387L59.1203 48.1503Z" fill="white"/>
<path d="M70.1788 48.8905C69.691 47.4082 70.2257 46.334 70.5541 45.9822L72.8026 46.0386C72.9196 46.3418 73.1537 46.9535 73.1537 46.9748C73.1537 46.9961 73.0756 47.7461 73.0366 48.1184L72.6377 48.9269L72.2933 49.0542L70.1788 48.8905Z" fill="#FFA3A3"/>
<path d="M59.3874 46.9477L59.7345 45.9852L56.756 46.2553L56.377 47.0935L56.5227 47.6694L57.3099 48.0484L59.0448 48.0921H59.6352L59.3874 46.9477Z" fill="#FF8B63"/>
<path d="M61.9794 48.2905L62.5695 48.3748C61.6126 53.2795 53.275 52.1569 52.3359 49.9128L52.9617 50.1589L54.1202 50.5209L55.8217 50.7703L57.0888 50.7945L59.0478 50.356L60.4878 49.5676L61.779 48.7053L61.9794 48.2905Z" fill="#F3AE88"/>
<path fill-rule="evenodd" clip-rule="evenodd" d="M58.2643 45.0553C58.1922 45.0794 58.1193 45.1038 58.0442 45.1273C57.7923 45.2062 57.4679 45.2467 57.0754 45.1764C57.0408 45.1702 57.0067 45.1638 56.9731 45.1576C56.7503 45.1163 56.549 45.0789 56.3472 45.1039C55.8015 45.1713 55.2495 45.3687 54.8306 45.5518C54.6219 45.6429 54.4479 45.7298 54.3262 45.7938C54.2654 45.8258 54.2178 45.852 54.1855 45.8701C54.1694 45.8792 54.1571 45.8862 54.149 45.8909C54.1449 45.8932 54.1419 45.895 54.1399 45.8962L54.1377 45.8974L54.1373 45.8977L54.1372 45.8978C54.1372 45.8978 54.1372 45.8977 54.073 45.7893C54.0087 45.681 54.0088 45.6809 54.0088 45.6809L54.0091 45.6807L54.0099 45.6803L54.0126 45.6787C54.015 45.6773 54.0185 45.6753 54.023 45.6727C54.032 45.6675 54.0451 45.6599 54.0622 45.6504C54.0963 45.6312 54.1459 45.6039 54.2089 45.5708C54.3349 45.5045 54.5144 45.4149 54.7297 45.3208C55.1587 45.1334 55.7361 44.9255 56.3163 44.8538C56.5599 44.8237 56.8034 44.8693 57.023 44.9104C57.0558 44.9166 57.0882 44.9226 57.1199 44.9283C57.4704 44.9912 57.7537 44.9543 57.9688 44.8869C58.0343 44.8663 58.1028 44.8435 58.173 44.8201C58.3065 44.7755 58.446 44.729 58.5825 44.6926C58.795 44.636 59.0193 44.5979 59.2485 44.6201L59.7123 44.6649L59.688 44.9158L59.2242 44.8709C59.0375 44.8528 58.8462 44.8831 58.6474 44.9361C58.5175 44.9707 58.3923 45.0126 58.2643 45.0553Z" fill="#613EC4"/>
<path fill-rule="evenodd" clip-rule="evenodd" d="M61.5707 45.3054L72.7818 45.9203L72.8086 45.9365C73.0046 46.0548 73.115 46.3113 73.1735 46.5875C73.2339 46.8726 73.2468 47.2159 73.2176 47.5561C73.1883 47.8964 73.1163 48.2407 73.002 48.5272C72.8895 48.8089 72.7271 49.0572 72.5024 49.1723L72.47 49.1889L72.4338 49.1856L72.445 49.0601C72.4338 49.1856 72.4339 49.1856 72.4338 49.1856L72.3479 49.1781C72.2913 49.1731 72.2077 49.1658 72.0995 49.1564C71.883 49.1376 71.5679 49.1105 71.1735 49.0773C70.3848 49.011 69.2791 48.9202 68.0113 48.8226C65.4754 48.6275 62.2922 48.4051 59.6998 48.296C59.1003 48.2708 58.5326 48.2517 58.012 48.2403C57.6833 48.2331 57.3056 48.2012 56.9856 48.0853C56.6631 47.9684 56.3816 47.7588 56.2856 47.3892C56.2044 47.0765 56.2328 46.6084 56.5928 46.1615L56.789 46.3196C56.4829 46.6996 56.4668 47.0842 56.5295 47.3259C56.5971 47.5861 56.7938 47.7478 57.0714 47.8483C57.3515 47.9498 57.6956 47.9814 58.0175 47.9884C58.4735 47.9983 58.9652 48.0142 59.4822 48.0349C59.1989 47.475 59.2451 46.9487 59.3728 46.5526C59.444 46.3318 59.5405 46.151 59.619 46.0254C59.6584 45.9625 59.6935 45.913 59.7191 45.8788C59.7319 45.8617 59.7424 45.8484 59.7498 45.8392C59.7536 45.8346 59.7565 45.831 59.7587 45.8284L59.7613 45.8253L59.7621 45.8243L59.7625 45.8239C59.7625 45.8238 59.7626 45.8238 59.8581 45.906C59.9536 45.9882 59.9536 45.9881 59.9536 45.9881L59.9535 45.9882L59.9522 45.9898C59.9509 45.9914 59.9488 45.9939 59.9459 45.9974C59.9403 46.0045 59.9316 46.0154 59.9207 46.03C59.8988 46.0592 59.8678 46.1028 59.8327 46.159C59.7622 46.2717 59.676 46.4336 59.6127 46.6299C59.4909 47.0075 59.4536 47.5109 59.7768 48.0471C62.3614 48.1573 65.5156 48.3778 68.0307 48.5714C69.2992 48.669 70.4055 48.7598 71.1947 48.8262C71.5893 48.8594 71.9046 48.8865 72.1213 48.9053C72.1283 48.9059 72.1352 48.9065 72.142 48.9071C72.0741 48.7963 72.0213 48.6677 71.9821 48.5308C71.9058 48.2637 71.8767 47.9488 71.8968 47.6297C71.93 47.104 72.0989 46.54 72.44 46.1539L61.5569 45.557L61.5707 45.3054ZM72.7429 46.2068C72.8175 46.2891 72.8833 46.4336 72.927 46.6397C72.981 46.8949 72.9942 47.2125 72.9665 47.5345C72.9389 47.8564 72.871 48.1754 72.7679 48.4338C72.6799 48.6542 72.5725 48.8149 72.4561 48.9042C72.3612 48.8085 72.2806 48.6579 72.2244 48.4616C72.1572 48.2265 72.1297 47.941 72.1483 47.6455C72.1836 47.0861 72.3809 46.5253 72.7429 46.2068Z" fill="#613EC4"/>
<path fill-rule="evenodd" clip-rule="evenodd" d="M61.3188 45.6281C60.3135 45.9342 59.0286 46.3255 57.0806 46.3658L57.078 46.3659L57.0753 46.3658C53.1038 46.2816 49.9404 48.2872 48.438 49.5434C49.4469 49.1229 51.0879 48.6297 52.9879 48.5703C53.2519 48.562 53.5049 48.5548 53.748 48.5478C55.8251 48.488 57.1752 48.4492 58.4588 48.0035L58.5415 48.2415C57.2189 48.7008 55.8268 48.7405 53.7618 48.7996C53.5163 48.8066 53.2613 48.8139 52.9957 48.8222C50.5088 48.8999 48.4767 49.7363 47.7807 50.1386L47.6279 49.941C48.7045 48.8502 52.3164 46.014 57.078 46.1138C58.9885 46.0739 60.2429 45.6921 61.2454 45.387C61.3708 45.3488 61.4923 45.3119 61.6107 45.2769C62.1425 45.1198 62.6204 45.0004 63.1047 45.0048C63.5932 45.0091 64.0802 45.1391 64.6344 45.4663L64.5062 45.6833C63.9859 45.3761 63.5418 45.2607 63.1024 45.2567C62.6588 45.2528 62.212 45.362 61.6821 45.5186C61.5648 45.5532 61.444 45.59 61.3188 45.6281Z" fill="#613EC4"/>
<path fill-rule="evenodd" clip-rule="evenodd" d="M47.2936 49.4807C47.3193 49.4522 47.3629 49.4512 47.391 49.4774C47.4175 49.5022 47.4209 49.5429 47.3996 49.5723C47.2727 49.7479 47.1512 49.9638 47.1438 50.1799C47.136 50.4114 47.3492 50.5381 47.5441 50.5666C47.5898 50.5733 47.6274 50.6103 47.6274 50.6565C47.6274 50.7027 47.59 50.7404 47.5439 50.7375C47.2091 50.7157 46.8788 50.5595 46.892 50.1714C46.8999 49.9392 47.1802 49.6062 47.2936 49.4807Z" fill="#613EC4"/>
<path fill-rule="evenodd" clip-rule="evenodd" d="M59.5563 50.2374C57.8338 51.0052 55.3435 51.417 52.2715 50.0142L52.3762 49.785C55.3746 51.1542 57.789 50.7492 59.4537 50.0072C60.2877 49.6354 60.9351 49.1782 61.3737 48.814C61.593 48.6321 61.7597 48.4736 61.8713 48.3611C61.9271 48.3048 61.969 48.2601 61.9968 48.2297C62.0107 48.2145 62.021 48.2029 62.0278 48.1952C62.0311 48.1914 62.0336 48.1885 62.0352 48.1867L62.0369 48.1848L62.0372 48.1844L62.0373 48.1843C62.0372 48.1843 62.0372 48.1844 62.1333 48.2659C62.2293 48.3474 62.2293 48.3475 62.2292 48.3476L62.229 48.3478L62.2283 48.3487L62.2259 48.3515C62.2238 48.3539 62.2208 48.3573 62.217 48.3617C62.2092 48.3705 62.1978 48.3833 62.1828 48.3997C62.1529 48.4325 62.1086 48.4797 62.0502 48.5385C61.9336 48.6561 61.7609 48.8202 61.5347 49.0079C61.0826 49.3833 60.4158 49.8542 59.5563 50.2374Z" fill="#613EC4"/>
<path d="M71.4016 37.4932C70.9951 35.4646 72.575 33.0555 73.4157 32.1045C72.9675 33.0008 72.9266 34.0519 72.9622 34.4654C73.5935 33.7015 75.2697 32.4908 76.9237 33.7584C78.5776 35.0261 78.1286 36.7765 77.6973 37.4932C77.7951 36.0926 77.3292 33.497 74.6828 34.3187C70.4704 35.6266 75.0687 55.7944 71.4016 37.4932Z" fill="url(#paint9_linear_1641_160)"/>
<defs>
<linearGradient id="paint0_linear_1641_160" x1="44.5437" y1="39.4091" x2="44.5437" y2="82.1281" gradientUnits="userSpaceOnUse">
<stop stop-color="#FF925E"/>
<stop offset="1" stop-color="#FC874F"/>
</linearGradient>
<linearGradient id="paint1_linear_1641_160" x1="4.56927" y1="24.158" x2="71.1088" y2="200.375" gradientUnits="userSpaceOnUse">
<stop stop-color="#DF7440"/>
<stop offset="1" stop-color="#AA38D2"/>
</linearGradient>
<linearGradient id="paint2_linear_1641_160" x1="48.507" y1="15.0657" x2="48.507" y2="59.7799" gradientUnits="userSpaceOnUse">
<stop stop-color="#FF925E"/>
<stop offset="1" stop-color="#FC874F"/>
</linearGradient>
<linearGradient id="paint3_linear_1641_160" x1="54.1333" y1="40.5226" x2="-7.07836" y2="70.1003" gradientUnits="userSpaceOnUse">
<stop stop-color="#FEDFCE"/>
<stop offset="1" stop-color="#FEDFCE" stop-opacity="0"/>
</linearGradient>
<linearGradient id="paint4_linear_1641_160" x1="47.6395" y1="38.5774" x2="83.5861" y2="50.9799" gradientUnits="userSpaceOnUse">
<stop stop-color="#F1A379"/>
<stop offset="1" stop-color="#ECA279" stop-opacity="0"/>
</linearGradient>
<linearGradient id="paint5_linear_1641_160" x1="48.0129" y1="43.8571" x2="63.4386" y2="40.1552" gradientUnits="userSpaceOnUse">
<stop stop-color="#814734"/>
<stop offset="1" stop-color="#A75034"/>
</linearGradient>
<linearGradient id="paint6_linear_1641_160" x1="46.9425" y1="14.2614" x2="102.57" y2="98.6756" gradientUnits="userSpaceOnUse">
<stop stop-color="#DF7440"/>
<stop offset="1" stop-color="#AA38D2"/>
</linearGradient>
<linearGradient id="paint7_linear_1641_160" x1="46.8664" y1="27.8904" x2="45.5022" y2="44.9736" gradientUnits="userSpaceOnUse">
<stop stop-color="#F2FBFC"/>
<stop offset="1" stop-color="#F2FBFC" stop-opacity="0"/>
</linearGradient>
<linearGradient id="paint8_linear_1641_160" x1="61.9454" y1="27.9048" x2="63.3096" y2="44.988" gradientUnits="userSpaceOnUse">
<stop stop-color="#F2FBFC"/>
<stop offset="1" stop-color="#F2FBFC" stop-opacity="0"/>
</linearGradient>
<linearGradient id="paint9_linear_1641_160" x1="74.142" y1="46.5121" x2="75.3722" y2="29.6685" gradientUnits="userSpaceOnUse">
<stop stop-color="#D6E1FF"/>
<stop offset="1" stop-color="#D6E1FF" stop-opacity="0"/>
</linearGradient>
</defs>
</svg>
