<svg width="103" height="70" viewBox="0 0 103 70" fill="none" xmlns="http://www.w3.org/2000/svg">
<g clip-path="url(#clip0_1456_1576)">
<mask id="mask0_1456_1576" style="mask-type:alpha" maskUnits="userSpaceOnUse" x="-5" y="-1" width="115" height="67">
<path d="M30.611 40.8044C32.3608 39.8433 33.9438 40.6979 33.9771 40.716L33.9777 40.7164C35.212 41.6914 35.7593 42.6562 36.5606 44.6311L86.9805 65.2815C94.554 48.1945 109.611 13.7743 109.253 12.7894C108.895 11.8044 45.9046 3.4997 14.4541 -0.529541C7.58945 11.5582 -5.71452 36.3157 -4.01328 38.6437L-3.96953 38.7036C-1.69922 41.8104 12.3542 61.0424 16.3568 63.1549C19.5802 64.8562 31.9464 63.8638 37.7266 63.1549L36.2916 55.8912L35.9984 56.1415C35.9984 56.2155 35.9383 56.2756 35.8643 56.2756C35.8643 56.2756 35.7569 56.2756 35.5974 56.2751C34.7026 56.2751 33.8445 55.9189 33.2125 55.2853C31.0222 53.1065 29.5689 51.7921 28.8617 49.7363C28.3897 48.364 28.249 46.6602 28.4512 44.1457C28.5614 42.7389 29.3735 41.4825 30.611 40.8044Z" fill="#623FC6"/>
</mask>
<g mask="url(#mask0_1456_1576)">
<mask id="mask1_1456_1576" style="mask-type:alpha" maskUnits="userSpaceOnUse" x="25" y="7" width="54" height="41">
<path d="M28.5435 40.6165C28.3288 41.6222 29.1109 44.4865 29.1109 44.4865L29.4561 45.6918L29.8924 45.5904L31.631 45.185H32.8291L33.7783 45.2679L34.9994 45.8769L35.6794 47.3858L35.9121 45.9575L36.4173 44.5008L37.1178 43.5617L38.0877 42.8228L40.1429 42.5072L41.6327 42.0607L42.7564 41.1902L41.6327 39.2771L41.1339 38.3071L41.3731 37.2974L43.3571 36.208L45.0843 35.3577L45.3677 33.5951L46.28 32.0096L47.6351 31.1727H49.6561L51.6519 31.6745L52.548 29.9914L53.2334 29.2567L54.695 28.5505L57.1344 28.4507L59.2399 28.9185L60.3657 29.3864L62.5736 30.4538L65.03 31.1727L66.2602 31.6537L67.5525 31.3905L69.659 30.6063L70.9541 29.8543L71.9081 28.8934L74.08 33.2164L75.0975 35.0596L75.9565 35.585L76.1567 36.6442L76.6832 37.2365L77.0485 36.4995L77.8296 34.1878L78.0564 31.6745L77.8737 29.6777L77.5902 28.1723L77.1115 26.7109L76.6517 25.785C76.5887 24.9724 76.4627 23.7693 76.11 22.5348C75.9689 21.3657 74.9174 19.1921 74.4093 18.2515C73.3259 16.4437 72.0598 15.5114 70.9827 14.743C69.9345 13.8057 67.829 13.2144 66.9073 13.036H66.6301C66.2648 12.5614 65.2821 11.3705 64.2743 10.403C63.0145 9.19362 60.9485 8.29288 58.5297 7.76377C56.1109 7.23466 52.9488 7.85826 50.5489 8.67082C48.149 9.48338 46.1213 11.1074 45.6848 11.4646C45.3357 11.7503 44.6576 12.4125 44.3622 12.7079C42.6797 12.4433 40.1958 12.7035 39.1641 12.8666L37.3388 13.3957L36.2674 13.8189C34.2702 14.6257 32.7624 16.451 32.3391 17.0859C31.8735 17.5727 31.4044 18.5673 31.2281 19.0038L30.6064 20.9746L30.4477 22.2443C28.7864 24.1172 27.5114 27.1911 27.723 28.3947V29.519C25.8819 31.7834 25.7655 35.5283 25.9639 37.0714L26.9955 36.0133L28.6823 35.4078L30.237 35.45L29.6782 36.4121L28.888 38.3877L28.5435 40.6165Z" fill="#DBE5FF"/>
</mask>
<g mask="url(#mask1_1456_1576)">
<path d="M28.5435 40.6165C28.3288 41.6222 29.1109 44.4865 29.1109 44.4865L29.4561 45.6918L29.8924 45.5904L31.631 45.185H32.8291L33.7783 45.2679L34.9994 45.8769L35.6794 47.3858L35.9121 45.9575L36.4173 44.5008L37.1178 43.5617L38.0877 42.8228L40.1429 42.5072L41.6327 42.0607L42.7564 41.1902L41.6327 39.2771L41.1339 38.3071L41.3731 37.2974L43.3571 36.208L45.0843 35.3577L45.3677 33.5951L46.28 32.0096L47.6351 31.1727H49.6561L51.6519 31.6745L52.548 29.9914L53.2334 29.2567L54.695 28.5505L57.1344 28.4507L59.2399 28.9185L60.3657 29.3864L62.5736 30.4538L65.03 31.1727L66.2602 31.6537L67.5525 31.3905L69.659 30.6063L70.9541 29.8543L71.9081 28.8934L74.08 33.2164L75.0975 35.0596L75.9565 35.585L76.1567 36.6442L76.6832 37.2365L77.0485 36.4995L77.8296 34.1878L78.0564 31.6745L77.8737 29.6777L77.5902 28.1723L77.1115 26.7109L76.6517 25.785C76.5887 24.9724 76.4627 23.7693 76.11 22.5348C75.9689 21.3657 74.9174 19.1921 74.4093 18.2515C73.3259 16.4437 72.0598 15.5114 70.9827 14.743C69.9345 13.8057 67.829 13.2144 66.9073 13.036H66.6301C66.2648 12.5614 65.2821 11.3705 64.2743 10.403C63.0145 9.19362 60.9485 8.29288 58.5297 7.76377C56.1109 7.23466 52.9488 7.85826 50.5489 8.67082C48.149 9.48338 46.1213 11.1074 45.6848 11.4646C45.3357 11.7503 44.6576 12.4125 44.3622 12.7079C42.6797 12.4433 40.1958 12.7035 39.1641 12.8666L37.3388 13.3957L36.2674 13.8189C34.2702 14.6257 32.7624 16.451 32.3391 17.0859C31.8735 17.5727 31.4044 18.5673 31.2281 19.0038L30.6064 20.9746L30.4477 22.2443C28.7864 24.1172 27.5114 27.1911 27.723 28.3947V29.519C25.8819 31.7834 25.7655 35.5283 25.9639 37.0714L26.9955 36.0133L28.6823 35.4078L30.237 35.45L29.6782 36.4121L28.888 38.3877L28.5435 40.6165Z" fill="#DBE5FF"/>
<path d="M60.9666 9.8199C60.1404 9.07243 58.7806 8.84686 58.204 8.82751C59.3144 9.51402 59.6628 9.94772 59.6983 10.0788C58.7369 9.65054 57.9103 9.71136 57.6171 9.7953C57.6171 9.7953 59.0921 10.7005 59.4252 11.765C58.316 10.8194 57.3722 11.1714 56.998 11.3717C57.9451 12.1916 58.4306 13.1888 58.5549 13.585C55.7457 12.528 54.2784 13.724 54.2784 13.724L56.2389 14.2049L58.0145 14.9694L59.8496 16.4262C60.3652 14.2897 59.2509 12.6971 58.6293 12.1679C60.6804 12.7633 61.6712 14.56 61.6712 14.56C61.6712 14.56 61.8113 12.2571 58.9599 10.3226C60.9478 10.8047 61.7212 12.1224 61.9178 12.744C61.9178 12.744 61.9161 10.5153 59.6616 9.53942C59.6616 9.53942 60.293 9.55534 60.9666 9.8199Z" fill="white"/>
<path d="M76.4578 31.2869C76.2378 19.1334 72.6358 15.6413 66.889 13.1666L69.5864 9.93987L80.6794 16.1502L77.8472 22.9703C79.6769 25.4835 82.205 28.9772 82.2332 29.1028C82.2748 29.2877 76.6824 42.5391 77.4153 35.5614C77.8884 31.0568 77.2702 27.6017 76.6891 25.759L76.6824 25.7752L76.761 28.9179L76.4578 31.2869Z" fill="white"/>
<path d="M54.5557 19.652C53.7295 18.9045 52.3697 18.679 51.793 18.6596C52.9034 19.3461 53.2519 19.7798 53.2873 19.9109C52.326 19.4827 51.4993 19.5435 51.2062 19.6274C51.2062 19.6274 52.6811 20.5326 53.0142 21.5972C51.9051 20.6515 50.9613 21.0035 50.5871 21.2038C51.5341 22.0237 52.0196 23.0209 52.144 23.4171C49.3348 22.3601 47.8674 23.5562 47.8674 23.5562L49.828 24.037L51.6035 24.8015L53.4387 26.2583C53.9543 24.1218 52.84 22.5292 52.2184 22C54.2694 22.5954 55.2602 24.3921 55.2602 24.3921C55.2602 24.3921 55.4004 22.0892 52.549 20.1547C54.5369 20.6368 55.3103 21.9546 55.5069 22.5761C55.5069 22.5761 55.5052 20.3475 53.2506 19.3715C53.2506 19.3715 53.882 19.3875 54.5557 19.652Z" fill="white"/>
<path d="M72.035 25.0925C72.1333 24.4718 71.8204 23.76 71.6518 23.4817C71.67 24.2178 71.5726 24.5161 71.5216 24.5733C71.4274 23.9872 71.1437 23.6155 71.0137 23.503C71.0137 23.503 71.041 24.4787 70.641 24.9643C70.7456 24.1489 70.2883 23.8117 70.0782 23.6967C69.9831 24.3968 69.6618 24.9337 69.5131 25.1146C69.1459 23.4619 68.1286 23.1377 68.1286 23.1377C68.1286 23.1377 69.1286 24.8653 68.5705 26.6023C69.7385 26.1869 70.147 25.1695 70.2053 24.7127C70.5566 25.865 70.0136 26.887 70.0136 26.887C70.0136 26.887 71.1445 26.2431 71.1787 24.2998C71.5641 25.3873 71.1803 26.159 70.9474 26.4435C70.9474 26.4435 71.9994 25.7554 71.765 24.3896C71.765 24.3896 71.9522 24.6927 72.035 25.0925Z" fill="white"/>
<path opacity="0.6" fill-rule="evenodd" clip-rule="evenodd" d="M76.8837 33.9174C76.8436 33.1632 76.7992 32.3303 76.4899 31.802C75.7895 31.4748 74.4786 30.5794 73.4274 29.125C74.2605 17.4662 70.8918 14.9663 66.839 13.1124L67.0742 13.329L68.7397 14.5512C69.0253 14.8527 69.6995 15.5564 70.1117 15.959C70.5238 16.3616 71.0782 17.5007 71.3039 18.0199L71.8071 19.3559L72.4005 21.8422L72.5081 23.5077L72.4005 25.749L72.2344 27.1037C71.0338 29.4225 68.4355 29.3787 67.383 29.2548C68.7963 21.5929 61.6288 15.8771 61.6288 15.8771L61.5151 15.8043L61.5983 16.036L61.2178 15.6585C61.2178 15.6585 62.5863 18.3503 62.5863 19.8262L63.2291 19.8842L63.5061 20.3788L64.8825 21.5517L66.1233 23.2287L66.86 25.749C66.902 26.6473 66.986 28.4555 66.986 28.502C66.986 28.5322 66.9205 28.8615 66.8534 29.1903C66.4327 29.2342 64.2804 29.3904 62.6478 28.2189C63.9549 25.5377 63.3228 21.2898 59.9464 18.9326L59.8752 18.8914L60.039 19.3414L59.7032 18.8626C60.776 21.2455 61.1828 24.0353 60.0176 26.7027C59.8884 26.7713 59.7464 26.8386 59.5915 26.9018C59.7473 24.5052 59.0646 19.7867 55.1426 16.9397C50.9575 13.9017 44.7898 15.6739 42.2292 16.9397L42.1293 17.0346L42.8927 16.9054L45.0595 16.4767L46.5451 16.3358H48.753L50.2504 16.4767C50.7025 16.5628 51.6068 16.7421 51.6068 16.7703C51.6068 16.7985 52.7969 17.2557 53.3919 17.4808L54.4724 18.0034L55.8758 19.1367L56.8063 20.2468L57.8667 21.9237L58.7298 24.4514L59.1432 27.0599C58.2912 27.3154 57.1394 27.4175 55.6639 27.051C53.7872 20.8909 47.8516 18.6627 44.3032 18.4226L44.3965 18.552L43.776 18.4415C46.656 19.7118 52.6788 23.0358 53.7296 26.1694L53.6513 25.8225L53.8072 26.1694L53.9579 26.792C53.5962 27.4389 52.901 28.2852 51.91 28.7343C48.1747 23.5347 43.8827 22.3121 40.6042 21.6076L40.9134 21.8284C40.8607 21.8194 40.8082 21.8106 40.7559 21.8021C40.6272 21.7369 40.4971 21.672 40.3656 21.6076C40.3656 21.6076 40.4549 21.6679 40.6153 21.7797C33.2789 20.6414 29.6793 24.634 27.7335 29.285L27.988 29.1387L28.7069 28.1398L30.0367 26.8291L31.6782 25.6711L34.1022 24.5132L36.5263 23.807L39.803 23.4125H42.3415L42.8646 23.4519C44.0922 24.419 45.5527 25.6651 46.7123 26.9371C34.8215 22.0669 27.4946 29.8196 26.0068 36.8901L26.4806 36.4641L27.776 35.6251L29.3847 35.4588L30.4365 35.3768L31.5128 33.9669L32.7097 32.7388L34.6658 31.8607L35.8481 31.6173L37.1391 30.548L37.3925 30.2462L38.1126 29.9988C34.6554 29.439 32.3762 31.3228 31.693 32.3355L32.4319 32.0281L31.8482 32.3948L31.378 32.6049L31.4931 32.3098L32.7435 30.6892L34.2041 29.2687L35.8797 28.0833L37.8704 27.0779L39.396 26.6477L40.7415 26.4877L42.3771 26.3976L43.8676 26.4877L46.0834 27.0679L47.1569 27.4444C47.6745 28.0608 48.1052 28.6754 48.3885 29.2595C46.5113 29.8231 43.9899 31.1803 42.7818 33.8318C37.0352 33.0681 35.9829 36.3974 36.1977 38.4356L35.7061 37.4593L35.4249 37.0911H27.2593V47.3747H41.7885L43.4523 42.574L44.6306 43.417L81.4908 49.7082L79.1302 34.4653C77.027 36.6085 76.9637 35.4187 76.8837 33.9174ZM30.462 22.217C30.462 22.217 32.4463 14.2468 42.3342 15.291L41.8813 16.2722L41.5039 17.3541L39.4113 17.592L37.6577 17.9543L34.9752 18.9563L32.9209 20.1087L31.1865 21.6041L30.462 22.217ZM27.4186 38.9923C29.5309 39.0844 31.1012 39.296 32.5136 39.4863C35.5815 39.8997 37.9042 40.2127 43.4163 38.9835L43.2505 38.2396C37.8716 39.439 35.7089 39.1458 32.7084 38.7389L32.7083 38.7389C31.2875 38.5462 29.6788 38.328 27.4519 38.2308L27.4186 38.9923Z" fill="#557ADB"/>
<path d="M65.8314 13.1901L65.252 12.4576C66.9114 15.3447 66.5194 18.9566 66.3987 19.861L67.0964 20.97L67.3411 18.4969L67.2213 16.6954L66.9922 15.5708L66.7111 14.7847L66.2737 13.8006L65.8314 13.1901Z" fill="#8BA5E9"/>
<path d="M51.3623 31.6177C48.4727 25.7566 44.1328 23.7926 40.307 21.6145C49.3671 26.8067 50.2037 31.2906 50.2037 31.2906C50.4873 31.2906 51.0943 31.5087 51.3623 31.6177Z" fill="#623FC6"/>
<path d="M33.428 32.4655L31.625 33.801C32.3596 32.1984 33.5651 31.5826 34.2942 31.2193L35.7512 30.643L37.2904 30.319L36.0737 31.5569L33.428 32.4655Z" fill="#623FC6"/>
<path d="M43.9183 18.4391C47.2809 18.9357 53.6013 23.3934 53.7826 26.4389C51.9698 23.5142 49.3351 20.6741 43.9183 18.4391Z" fill="#623FC6"/>
<path d="M44.9143 35.3218C39.3464 35.3218 36.3193 38.8194 36.3193 38.8194V38.6627L36.7891 37.5869L38.1155 36.2483L39.6924 35.2459L41.3183 34.8119H43.0848L44.5212 35.0503L44.9143 35.3218Z" fill="#623FC6"/>
</g>
<path d="M59.6293 18.7053C59.6467 18.6808 59.671 18.6621 59.6991 18.6514C59.7272 18.6407 59.7578 18.6386 59.7871 18.6453L59.8041 18.6481L59.8375 18.6538C60.1625 18.7157 60.4837 18.7962 60.7995 18.8949C65.8393 20.5071 67.8052 24.5911 66.8936 29.657C66.7592 30.4018 66.5835 31.1386 66.3673 31.8639C65.7739 31.5402 65.1361 31.3055 64.4744 31.1673C62.9188 30.851 61.4378 30.2053 60.1069 29.3508C59.8428 29.204 59.5558 29.1028 59.258 29.0515L59 28.9988L59.1879 28.8104C60.4271 27.4856 61.1444 25.7567 61.207 23.9437C61.2259 23.269 61.1551 22.5948 60.9965 21.9388C60.967 21.8352 60.8952 21.5523 60.8629 21.4504C60.8261 21.3373 60.739 21.0815 60.7016 20.97C60.6298 20.7963 60.5256 20.5128 60.4425 20.3447C60.3151 20.0566 60.1346 19.7148 59.9824 19.4393C59.975 19.4262 59.9699 19.4149 59.9609 19.4008L59.9348 19.3566C59.8157 19.1481 59.7137 18.9303 59.6298 18.7053H59.6293ZM59.8669 18.8587C59.9965 19.0001 60.1137 19.1043 60.2065 19.2621C60.3123 19.4613 60.4572 19.7148 60.5517 19.9135C60.6083 20.0329 60.7214 20.2717 60.7718 20.3871C60.8103 20.4845 60.9252 20.7697 60.9659 20.8721C61.0049 20.9853 61.0955 21.2575 61.1323 21.3678C61.1691 21.4782 61.2387 21.76 61.2703 21.8726C61.8413 24.1673 61.2924 26.6153 59.8454 28.4782C59.7026 28.6659 59.548 28.8443 59.3825 29.0124L59.3135 28.7719C59.7131 28.8648 60.0932 29.0274 60.4362 29.2523C61.6888 30.0451 63.0746 30.6043 64.5265 30.903C65.1575 31.0319 65.7688 31.2433 66.3447 31.5317C66.3447 31.5317 66.1398 31.6172 66.141 31.6155C66.5252 30.2992 66.7878 28.9394 66.82 27.5671C66.8834 25.5299 66.3249 23.4299 64.9741 21.8709C63.6725 20.3469 61.7989 19.3595 59.85 18.9464L59.7883 18.9345L59.7577 18.9294L59.7424 18.9266H59.7351C59.7572 18.9292 59.7796 18.9269 59.8007 18.9198C59.8289 18.9091 59.8527 18.8891 59.8681 18.8632L59.8669 18.8587Z" fill="#623FC6"/>
<path d="M59.0023 28.9734C57.4874 22.6241 53.263 18.4563 46.5589 18.3069C45.7096 18.2851 44.8602 18.3456 44.0226 18.4874V18.3364C44.6546 18.4895 45.2753 18.6858 45.8804 18.9238C48.2973 19.8637 50.5513 21.3237 52.2229 23.3235C52.3134 23.4248 52.443 23.5974 52.5279 23.7055C52.7045 23.9217 52.9376 24.268 53.0983 24.4978C53.1855 24.6421 53.4005 24.9816 53.4809 25.1242C53.763 25.621 54.0104 26.1369 54.2211 26.6679C54.4729 27.2706 54.6483 27.9016 54.8085 28.5354L54.6387 28.4284C55.3743 28.2705 56.1338 28.2587 56.8796 28.3271C57.6203 28.3994 58.3538 28.5319 59.073 28.7233L59.0034 28.9971C57.6068 28.6452 56.1264 28.4098 54.7026 28.7057L54.5662 28.7306L54.534 28.5988C54.2799 27.5106 53.9115 26.4456 53.3739 25.4632C51.7894 22.4679 48.9306 20.3164 45.8193 19.0833C45.1128 18.798 44.3841 18.5709 43.6406 18.4043C45.4447 18.0302 47.3189 18.0585 49.1258 18.3924C52.6479 19.0086 55.8033 21.2699 57.5168 24.4083C58.3187 25.8095 58.8846 27.3442 59.2767 28.9049L59.0023 28.9734Z" fill="#623FC6"/>
<path d="M63.0241 20.1104C60.0928 15.572 55.6789 13.0713 50.2181 13.8857C47.2188 14.3338 44.3396 15.559 41.8429 17.2657L41.7557 17.0959C42.2684 16.9352 42.784 16.8085 43.3046 16.6953C50.935 15.0865 57.7851 17.1831 59.1003 25.6929C59.2635 26.748 59.3488 27.8136 59.3555 28.8812H59.0725C59.0584 27.0403 58.8569 25.1893 58.2961 23.4322C57.2147 19.9786 54.7259 17.6109 51.188 16.7972C47.916 16.0524 44.4256 16.4486 41.251 17.4547C43.8795 15.5267 46.9574 14.1595 50.1869 13.6633C53.232 13.1873 56.4683 13.7764 59.0239 15.5386C60.7323 16.6891 62.13 18.2481 63.2612 19.9559L63.0253 20.1121L63.0241 20.1104Z" fill="#623FC6"/>
<path d="M49.4168 28.7334C44.6826 25.9639 39.4572 25.4552 34.9255 28.9247C33.5674 29.9693 32.3683 31.2477 31.4623 32.7037L31.2648 32.5135C31.4911 32.38 31.7662 32.2046 31.9925 32.0823C33.7168 31.1203 35.5825 30.3915 37.5382 30.0627L38.172 29.9648C36.9837 30.7004 35.8909 31.5945 35.3788 32.9317C34.9572 34.0279 35.0138 35.2558 35.3652 36.3644C35.5987 37.1128 35.9432 37.8218 36.3872 38.4678L36.1479 38.4882C37.6803 35.4471 40.5674 34.261 43.8553 34.7952C44.289 34.8631 44.7166 34.9653 45.1342 35.1008L44.9452 35.2208C45.1149 33.2684 45.94 31.3014 48.0949 30.9766C49.2301 30.8068 50.3856 31.062 51.428 31.5114L51.2345 31.6868C51.183 31.551 51.1173 31.4038 51.0511 31.2675C49.4451 28.0889 46.5472 25.5276 43.6119 23.5866C42.4764 22.846 41.3003 22.1695 40.0893 21.5602C43.3864 20.9851 46.781 21.4924 49.766 23.006C51.4852 23.9092 53.0029 25.1523 54.2269 26.66L54.0068 26.8382C53.2099 25.8523 52.2876 24.9748 51.2633 24.2278C48.4254 22.1804 44.8263 21.3219 41.3563 21.5907C41.0411 21.6162 40.7225 21.6507 40.4158 21.7039L40.4418 21.5166C44.6379 23.641 49.1124 26.8812 51.3069 31.1435C51.4267 31.3934 51.5334 31.6493 51.6266 31.9103C51.1975 31.6993 50.7484 31.5316 50.286 31.4095C47.052 30.5827 45.4471 32.2974 45.2134 35.4273C44.7584 35.2679 44.2898 35.1503 43.8134 35.0759C40.6444 34.5632 37.8823 35.6859 36.4002 38.6184L36.2933 38.826C35.7662 38.105 35.3616 37.302 35.0959 36.4493C34.5866 34.8439 34.6997 33.1422 35.6997 31.749C36.1876 31.0923 36.7899 30.5289 37.4777 30.0859L37.5733 30.3445C37.3074 30.3835 37.0329 30.4413 36.7641 30.5029C35.0067 30.9253 33.3236 31.6122 31.7724 32.5401C31.5579 32.6675 31.1465 32.9176 30.9326 33.0449L31.2156 32.5645C32.1442 31.07 33.362 29.7701 34.7541 28.7023C37.8766 26.2661 41.8962 25.5859 45.6633 26.7783C46.0747 26.8999 46.5053 27.0516 46.9048 27.2061C47.82 27.5689 48.7069 27.9992 49.5583 28.4935L49.4168 28.7385V28.7334Z" fill="#623FC6"/>
<path fill-rule="evenodd" clip-rule="evenodd" d="M30.0024 35.6799C31.5602 33.2145 33.9728 31.7406 35.783 31.4774L35.83 31.8007C34.128 32.0481 31.7933 33.4571 30.2786 35.8544C28.77 38.242 28.0762 41.6094 29.6519 45.7766L29.3463 45.8922C27.7348 41.6299 28.4386 38.155 30.0024 35.6799Z" fill="#623FC6"/>
<path fill-rule="evenodd" clip-rule="evenodd" d="M41.9519 41.9697C41.3423 42.2953 40.4156 42.6047 39.053 42.7582C37.7631 42.9036 36.9493 43.7253 36.4564 44.7138C35.9618 45.7056 35.7992 46.8511 35.8124 47.597L35.5426 47.6248C35.4187 46.9709 35.1979 46.4735 34.8882 46.1086C34.5797 45.7451 34.176 45.5049 33.6706 45.3758C32.6507 45.1154 31.2241 45.3093 29.3765 45.8673L29.2979 45.6067C31.1517 45.0469 32.6406 44.8319 33.7379 45.1121C34.2911 45.2534 34.7464 45.5208 35.0958 45.9325C35.2954 46.1677 35.4581 46.4472 35.5852 46.7723C35.6649 46.0963 35.8558 45.3083 36.2128 44.5924C36.7324 43.5502 37.6128 42.6466 39.0225 42.4878C40.3594 42.3371 41.2512 42.0354 41.8236 41.7296C42.4009 41.4211 42.6417 41.1153 42.7014 40.965L42.9544 41.0655C42.8609 41.3007 42.5564 41.6467 41.9519 41.9697Z" fill="#623FC6"/>
<path d="M66.3035 31.5883C67.9004 31.1854 70.0038 30.525 71.2409 29.4238C71.4268 29.2569 71.5866 29.0631 71.7151 28.8488L71.7032 28.8771C71.9085 28.1004 72.0622 27.311 72.1633 26.514C72.9442 20.6287 71.2737 14.8799 65.3047 12.6135L65.3918 12.4714C65.5311 12.6048 65.6605 12.7482 65.7789 12.9004C67.5501 15.1934 67.7431 18.3148 67.2027 21.0701L67.1161 21.5053L66.9345 21.099C66.6574 20.4997 66.3334 19.9231 65.9657 19.3747C64.8825 17.7614 63.3756 16.2188 61.3995 15.8407L61.4849 15.6953C61.7439 16.0203 61.9817 16.3617 62.1968 16.7173C62.8453 17.7806 63.3377 18.9639 63.4559 20.2139L63.173 20.2366C63.0355 18.5389 62.2297 16.9357 61.1924 15.6099C63.6823 15.9816 65.4999 18.0115 66.7166 20.0804C66.8864 20.3729 67.0454 20.6672 67.1902 20.9796L66.922 21.0084C67.3747 18.8383 67.3713 16.4989 66.4744 14.4407C66.1762 13.7701 65.7953 13.1137 65.2758 12.592L64.9425 12.2881L65.363 12.4494C71.4333 14.7237 73.1723 20.5608 72.406 26.54C72.3071 27.3504 72.1543 28.1533 71.9488 28.9433C71.8187 29.2008 71.6195 29.417 71.4174 29.6105C70.4181 30.5046 69.1392 30.997 67.8902 31.4253C67.3866 31.5894 66.8818 31.736 66.3623 31.8588L66.3001 31.5827L66.3035 31.5883Z" fill="#623FC6"/>
<path fill-rule="evenodd" clip-rule="evenodd" d="M73.6412 32.6983C73.1174 31.4649 72.5316 30.0854 71.6689 29.0056L71.9241 28.8018C72.8169 29.9192 73.4209 31.3427 73.942 32.5707C74.0058 32.721 74.0683 32.8683 74.1299 33.0118C74.4154 33.6762 74.6802 34.2539 74.9631 34.6751C75.2486 35.1002 75.5272 35.3275 75.8272 35.3603L75.9691 35.3757L75.9727 35.5185C75.9828 35.9178 76.1299 36.7393 76.9191 37.2208L76.749 37.4997C75.9055 36.985 75.6935 36.1445 75.6535 35.6603C75.2695 35.5648 74.96 35.2564 74.6919 34.8572C74.3897 34.4072 74.1142 33.8025 73.8298 33.1408C73.7676 32.996 73.7049 32.8482 73.6412 32.6983Z" fill="#623FC6"/>
<path d="M51.617 31.9126L51.3906 31.7428C51.5604 31.5221 51.7019 31.2414 51.8541 30.9438C52.3164 30.0384 52.8919 28.9145 54.632 28.4324L54.7073 28.7051C53.0877 29.1539 52.566 30.1764 52.1042 31.0728C51.9492 31.3801 51.7998 31.6721 51.617 31.9126Z" fill="#623FC6"/>
<path d="M42.7163 41.2225L41.2438 39.0116C41.1207 38.826 41.0387 38.6163 41.0033 38.3964C40.9679 38.1765 40.9798 37.9516 41.0384 37.7367C41.097 37.5219 41.2008 37.322 41.3429 37.1505C41.485 36.979 41.6621 36.8399 41.8623 36.7424L45.0845 35.1755L45.2079 35.4296L41.9863 36.9971C41.822 37.0766 41.6766 37.1903 41.5599 37.3306C41.4432 37.4709 41.3579 37.6346 41.3096 37.8106C41.2614 37.9866 41.2514 38.1709 41.2802 38.3511C41.3091 38.5314 41.3762 38.7033 41.477 38.8555L42.9545 41.0658L42.7163 41.2225Z" fill="#623FC6"/>
<path d="M27.5401 29.5144C27.3137 24.964 30.6864 21.0385 34.5622 19.0748C38.4923 17.0376 43.2322 16.7671 47.4079 18.1785L47.3609 18.3211C43.2197 16.9386 38.533 17.2227 34.651 19.2508C30.8596 21.189 27.5463 25.0416 27.7828 29.5008L27.5384 29.5144H27.5401Z" fill="#623FC6"/>
<path d="M43.7901 23.7225C39.5606 23.2437 35.0103 23.65 31.3716 26.0217C27.699 28.3571 25.6137 32.6844 26.0624 37.0135L25.8627 36.9535C27.1929 35.429 28.5687 35.2362 30.4248 35.2032L30.4282 35.4205C29.7205 35.438 28.3235 35.4672 27.6967 35.7963C27.225 36.0418 26.7894 36.351 26.402 36.7153C26.2092 36.8984 26.0295 37.0949 25.8644 37.3032L25.8389 37.035C25.2023 29.795 30.4011 24.5769 37.3168 23.5346C39.4672 23.1883 41.664 23.2013 43.8246 23.4389L43.7929 23.7219L43.7901 23.7225Z" fill="#623FC6"/>
<path d="M41.3809 17.41C42.0237 14.8499 43.8312 12.7442 45.878 11.1552C50.9302 7.233 58.7752 5.81828 64.0402 10.0868C65.065 10.9011 65.9376 11.892 66.6778 12.9649L66.5114 13.0781C65.7809 12.0193 64.9213 11.0443 63.914 10.2441C59.8204 6.8946 53.8859 7.10681 49.3016 9.31434C46.4201 10.6878 43.7446 12.7934 42.2546 15.6636C41.9652 16.2352 41.7405 16.8372 41.5846 17.4586L41.3809 17.4094V17.41Z" fill="#623FC6"/>
<path d="M66.3944 12.9191C67.5562 13.0322 68.6744 13.4187 69.7207 13.9224C72.9055 15.4395 75.1278 18.4999 76.0586 21.855C77.3217 26.3454 76.8645 31.1203 75.9455 35.6305L75.6687 35.5739C76.5996 31.1034 77.0795 26.3754 75.8504 21.9161C74.6954 17.672 71.5949 14.2025 67.2274 13.2014C66.95 13.1367 66.6684 13.0914 66.3848 13.0656L66.3938 12.9202L66.3944 12.9191Z" fill="#623FC6"/>
<path d="M76.6913 25.5662C77.8315 27.8393 78.3012 30.4436 78.0749 32.9742C77.9263 34.4997 77.5066 35.9864 76.8356 37.3644L76.5815 37.2393C77.0228 36.3434 77.3585 35.3992 77.582 34.4257C78.1303 31.9845 77.9215 29.3978 77.093 27.042C76.9312 26.5704 76.7366 26.1108 76.5107 25.6663L76.6913 25.5662Z" fill="#623FC6"/>
<path d="M30.2449 22.4101C30.4656 20.0079 31.4757 17.6567 33.1388 15.9024C34.8059 14.1334 37.1278 13.1075 39.5034 12.7261C41.0879 12.4624 42.7052 12.4392 44.3027 12.5625L44.2789 12.8455C42.7023 12.7 41.1054 12.6995 39.5402 12.9496C34.6854 13.6711 31.2686 16.9476 30.5663 21.838C30.5408 22.0321 30.5199 22.2313 30.5097 22.4198L30.2432 22.4101H30.2449Z" fill="#623FC6"/>
</g>
</g>
<defs>
<clipPath id="clip0_1456_1576">
<rect width="103" height="69" fill="white" transform="translate(0 0.11438)"/>
</clipPath>
</defs>
</svg>
