<svg width="196" height="181" viewBox="0 0 196 181" fill="none" xmlns="http://www.w3.org/2000/svg">
<path d="M154.207 151.75C183.244 120.338 179.236 69.4096 145.255 37.9976C111.274 6.58562 60.1872 6.58561 31.1502 37.9976C2.11331 69.4096 6.1215 120.338 40.1028 151.75C74.0841 183.162 125.17 183.162 154.207 151.75Z" fill="#291D40"/>
<path d="M159.43 146.955C188.377 115.639 184.382 64.8667 150.505 33.5512C116.628 2.23567 65.6983 2.23567 36.7505 33.5512C7.80274 64.8667 11.7986 115.639 45.6755 146.955C79.5525 178.27 130.482 178.27 159.43 146.955Z" fill="url(#paint0_linear_3810_11835)"/>
<path d="M150.5 33.5553C184.374 64.8685 188.37 115.637 159.424 146.951C130.478 178.264 79.5527 178.264 45.6782 146.951C11.8038 115.637 7.80822 64.8685 36.7539 33.5553C65.6995 2.2421 116.625 2.24211 150.5 33.5553Z" stroke="#F8E4FF" stroke-width="0.507351"/>
<path d="M170.869 106.037C176.506 66.6557 148.496 27.6706 108.307 18.9615C68.1183 10.2525 30.9695 35.1175 25.3329 74.499C19.6963 113.881 47.7064 152.866 87.8951 161.575C128.084 170.284 165.233 145.419 170.869 106.037Z" fill="url(#paint1_linear_3810_11835)"/>
<path d="M80.214 71.8059H90.7551L90.0795 63.2207M75.1518 84.457H91.7508L92.324 91.74M90.6941 71.7339L92.7154 73.4536C91.4954 74.6908 90.8222 76.3315 90.9638 78.1315C91.1055 79.9314 92.037 81.5721 93.4517 82.8093L91.7011 84.529" stroke="#F7CE69" stroke-width="0.761027"/>
<path d="M112.071 71.8069H101.53L100.854 63.2217M119.124 84.458H102.525L103.099 91.741M101.579 71.7349L99.8289 73.4546C101.244 74.6918 102.175 76.3325 102.317 78.1324C102.458 79.9324 101.785 81.5731 100.565 82.8103L102.586 84.53" stroke="#F7CE69" stroke-width="0.761027"/>
<path d="M92.1152 63.4209L92.6742 70.523C94.5535 72.1059 97.3076 72.1059 98.9377 70.523L98.3788 63.4209" stroke="#F7CE69" stroke-width="0.761027"/>
<path d="M94.5254 94.0479L93.9664 86.9458C95.5966 85.3628 98.3507 85.3628 100.23 86.9458L100.789 94.0479" stroke="#F7CE69" stroke-width="0.761027"/>
<path d="M78.2656 85.9541H90.1321L90.5604 91.3954" stroke="#F7CE69" stroke-width="0.761027"/>
<path d="M116.246 85.9541H104.38L104.808 91.3954" stroke="#F7CE69" stroke-width="0.761027"/>
<path d="M93.6172 64.5596L93.9813 69.1856C95.0263 70.2167 96.5393 70.2167 97.4221 69.1856L97.058 64.5596" stroke="#F7CE69" stroke-width="0.761027"/>
<path d="M95.8477 92.9092L95.4836 88.2831C96.3664 87.2521 97.8793 87.2521 98.9244 88.2831L99.2885 92.9092" stroke="#F7CE69" stroke-width="0.761027"/>
<path d="M81.4218 74.0137H89.1928C88.2896 75.1032 87.801 76.548 87.9257 78.133C88.0505 79.7181 88.7665 81.1629 89.8412 82.2523H80.0976" stroke="#F7CE69" stroke-width="0.761027"/>
<path d="M111.211 74.0137H103.44C104.515 75.1032 105.231 76.548 105.355 78.133C105.48 79.7181 104.992 81.1629 104.088 82.2523H113.832" stroke="#F7CE69" stroke-width="0.761027"/>
<path d="M77.4296 70.0856H88.8835L88.5418 65.7432" stroke="#F7CE69" stroke-width="0.761027"/>
<path d="M114.586 70.0856H103.132L102.79 65.7432" stroke="#F7CE69" stroke-width="0.761027"/>
<path d="M171.194 106.112C176.852 66.5832 148.737 27.4522 108.398 18.7106C68.0587 9.96893 30.7709 34.9269 25.1133 74.4559C19.4556 113.985 47.5705 153.116 87.9096 161.857C128.249 170.599 165.537 145.641 171.194 106.112Z" fill="url(#paint2_linear_3810_11835)"/>
<path d="M159.048 94.5065L159.047 94.4961H159.696L159.048 94.5065Z" fill="url(#paint3_linear_3810_11835)"/>
<path d="M146.044 38.3766C177.038 67.0271 180.694 113.479 154.209 142.129C127.725 170.78 81.1299 170.78 50.1359 142.129C19.142 113.479 15.4862 67.0271 41.9704 38.3766C68.4547 9.7261 115.05 9.72611 146.044 38.3766Z" stroke="url(#paint4_linear_3810_11835)" stroke-width="2.35452"/>
<path d="M146.555 37.8234C177.88 66.7794 181.575 113.726 154.808 142.682C128.041 171.639 80.949 171.639 49.6245 142.682C18.3 113.726 14.6052 66.7794 41.3719 37.8233C68.1386 8.86728 115.231 8.8673 146.555 37.8234Z" stroke="url(#paint5_linear_3810_11835)" stroke-width="0.78484"/>
<path fill-rule="evenodd" clip-rule="evenodd" d="M92.3682 61.1143H99.1486L99.5971 66.8129C106.339 68.3687 111.729 74.2784 112.284 81.3312C112.933 89.5705 106.737 96.2496 98.4448 96.2496C90.153 96.2496 82.9056 89.5705 82.2571 81.3312C81.6977 74.2225 86.2332 68.2752 92.8138 66.7768L92.3682 61.1143ZM105.792 81.3312C106.16 86.0075 102.643 89.7983 97.9371 89.7983C93.2309 89.7983 89.1175 86.0075 88.7495 81.3312C88.3815 76.6548 91.8982 72.8639 96.6043 72.8639C101.31 72.8639 105.424 76.6548 105.792 81.3312ZM105.725 105.564C104.165 107.246 101.943 108.191 99.5484 108.191C97.1541 108.191 94.7835 107.246 92.9581 105.564C91.1326 103.881 90.0019 101.599 89.8147 99.2204H83.7962C84.1083 103.186 85.9928 106.988 89.0352 109.792C91.178 111.767 93.7716 113.132 96.5122 113.767L96.964 119.508H103.744L103.296 113.806C106.003 113.189 108.443 111.808 110.314 109.792C112.915 106.988 114.201 103.186 113.889 99.2204H107.87C108.057 101.599 107.286 103.881 105.725 105.564Z" fill="#C79FD5"/>
<path d="M85.4846 97.7751L83.7969 99.221L84.0443 99.5108L86.3701 99.4902L85.4846 97.7751Z" fill="#C79FD4"/>
<path d="M94.061 59.6766L92.3707 61.1156L92.5608 61.475C92.8011 61.4426 93.2856 61.3776 93.3004 61.3763C93.3153 61.375 94.9196 61.3789 94.9985 61.2621L94.061 59.6766Z" fill="#C79FD4"/>
<path d="M109.555 97.7749L107.873 99.2203L108.563 99.7113L110.749 99.4464L109.555 97.7749Z" fill="#C79FD4"/>
<path d="M105.429 118.065L103.748 119.505L103.292 119.247L103.34 117.289L105.429 118.065Z" fill="#C79FD4"/>
<path fill-rule="evenodd" clip-rule="evenodd" d="M94.0557 59.6729H100.836L101.285 65.3715C108.026 66.9273 113.417 72.837 113.972 79.8897C114.62 88.1291 108.424 94.8082 100.132 94.8082C91.8405 94.8082 84.5931 88.1291 83.9446 79.8897C83.3852 72.7811 87.9207 66.8337 94.5013 65.3354L94.0557 59.6729ZM107.479 79.8897C107.848 84.5661 104.331 88.3569 99.6246 88.3569C94.9184 88.3569 90.805 84.5661 90.437 79.8897C90.069 75.2134 93.5857 71.4225 98.2918 71.4225C102.998 71.4225 107.111 75.2134 107.479 79.8897ZM107.413 104.122C105.852 105.804 103.63 106.749 101.236 106.749C98.8416 106.749 96.471 105.804 94.6456 104.122C92.8201 102.44 91.6894 100.158 91.5022 97.779H85.4837C85.7958 101.744 87.6803 105.547 90.7227 108.351C92.8655 110.326 95.4591 111.691 98.1997 112.326L98.6515 118.066H105.432L104.983 112.365C107.69 111.748 110.131 110.367 112.001 108.351C114.602 105.547 115.888 101.744 115.576 97.779H109.558C109.745 100.158 108.973 102.44 107.413 104.122Z" fill="#F6DEFF"/>
<path d="M160.773 96.7172L134.331 96.594C132.811 112.293 120.868 124.512 104.944 126.284L105.67 135.497C125.024 133.789 139.899 119.974 143.093 101.539L160.628 101.6M159.794 84.2868L133.377 84.1637C129.426 68.3806 115.499 56.0857 99.225 54.3313L98.5 45.1191C100.278 45.2717 102.035 45.5237 103.765 45.8695C121.206 49.356 135.874 62.3803 141.381 79.2449L159.3 79.3681" stroke="url(#paint6_linear_3810_11835)" stroke-width="1.52205"/>
<path fill-rule="evenodd" clip-rule="evenodd" d="M149.045 79.2449C148.979 78.4069 149.607 77.7275 150.448 77.7275H152.853C153.693 77.7275 154.428 78.4069 154.494 79.2449V79.2449C154.56 80.0829 153.932 80.7623 153.091 80.7623H150.687C149.846 80.7623 149.111 80.0829 149.045 79.2449V79.2449Z" fill="url(#paint7_linear_3810_11835)"/>
<path d="M90.481 45.125C67.402 47.162 50.7069 66.6149 52.5719 90.3116C54.4369 114.008 74.1939 133.461 97.5935 135.498L96.8684 126.285C78.5596 124.282 63.2348 108.941 61.7686 90.3116C60.3025 71.6825 73.2125 56.3406 91.2061 54.3385L90.481 45.125Z" stroke="url(#paint8_linear_3810_11835)" stroke-width="1.52205"/>
<path d="M159.94 106.443H152.254C147.112 129.027 127.335 145.455 102.415 145.455C73.6446 145.455 48.2809 123.557 43.4235 95.5674H53.4058M158.157 74.4039H149.8C141.165 51.7046 118.737 35.1689 93.7356 35.1689C64.9287 35.1689 42.9928 57.1222 42.5947 85.1622H51.7589" stroke="url(#paint9_linear_3810_11835)" stroke-width="1.52205"/>
<path d="M103.043 153.418C68.0817 153.418 37.5167 125.164 34.7737 90.311C32.0307 55.458 58.1484 27.204 93.1093 27.204C122.486 27.204 148.761 47.1538 158.031 74.2062C161.103 84.1435 162.05 94.4537 160.81 104.448L160.564 106.426C155.549 133.473 132.416 153.418 103.043 153.418Z" stroke="url(#paint10_linear_3810_11835)" stroke-width="1.52205"/>
<path fill-rule="evenodd" clip-rule="evenodd" d="M93.206 28.5771C92.1863 28.5771 91.1744 28.6016 90.1708 28.6502C89.3426 28.6902 88.5858 28.0508 88.4804 27.2221C88.375 26.3933 88.9609 25.6889 89.7891 25.6489C90.8409 25.598 91.9013 25.5723 92.9696 25.5723C93.9899 25.5723 95.0067 25.5957 96.0194 25.6422C96.8538 25.6804 97.552 26.3834 97.5789 27.2123C97.6057 28.0411 96.951 28.682 96.1166 28.6438C95.1504 28.5995 94.18 28.5771 93.206 28.5771ZM100.526 27.4831C100.577 26.6614 101.293 26.0888 102.127 26.2041C104.175 26.4877 106.201 26.8644 108.199 27.3299C109.024 27.522 109.588 28.3321 109.459 29.1393C109.33 29.9465 108.556 30.4452 107.731 30.253C105.826 29.8093 103.895 29.4501 101.942 29.1797C101.109 29.0644 100.474 28.3048 100.526 27.4831ZM85.304 27.5324C85.4898 28.3534 84.9805 29.1167 84.1665 29.2375C82.1692 29.5338 80.2114 29.9274 78.2976 30.4133C77.5059 30.6144 76.6493 30.1247 76.3843 29.3197C76.1193 28.5147 76.5463 27.6991 77.3379 27.4981C79.3456 26.9883 81.3992 26.5755 83.4939 26.2647C84.3079 26.1439 85.1183 26.7115 85.304 27.5324ZM112.344 29.9508C112.55 29.1653 113.373 28.7454 114.182 29.0128C116.165 29.6682 118.113 30.4118 120.022 31.2386C120.808 31.5789 121.217 32.4682 120.935 33.225C120.653 33.9817 119.788 34.3193 119.002 33.979C117.182 33.1908 115.324 32.482 113.435 31.8572C112.626 31.5898 112.137 30.7362 112.344 29.9508ZM73.3805 30.249C73.7225 31.0303 73.3822 31.8902 72.6206 32.1698C70.758 32.8535 68.9462 33.6287 67.1901 34.4902C66.4659 34.8454 65.5421 34.5256 65.1267 33.7757C64.7113 33.0259 64.9617 32.13 65.6859 31.7747C67.5279 30.8711 69.4284 30.0579 71.3824 29.3407C72.144 29.0611 73.0386 29.4678 73.3805 30.249ZM123.659 34.5505C124.013 33.829 124.913 33.5765 125.669 33.9865C127.517 34.9887 129.32 36.0713 131.071 37.2294C131.79 37.705 132.03 38.6418 131.607 39.3217C131.183 40.0015 130.256 40.1671 129.537 39.6914C127.867 38.587 126.148 37.5546 124.385 36.5989C123.63 36.189 123.304 35.2719 123.659 34.5505ZM62.4118 35.2891C62.8964 36.0004 62.738 36.9233 62.0581 37.3506C60.3993 38.393 58.8025 39.5184 57.2729 40.7213C56.6437 41.2161 55.6888 41.0772 55.14 40.4112C54.5913 39.7451 54.6565 38.804 55.2857 38.3092C56.8895 37.048 58.5638 35.8679 60.3035 34.7747C60.9833 34.3475 61.9273 34.5778 62.4118 35.2891ZM134.072 41.1101C134.561 40.4775 135.506 40.4001 136.183 40.9371C137.834 42.2474 139.429 43.6289 140.961 45.0764C141.589 45.6699 141.653 46.6211 141.103 47.2009C140.553 47.7807 139.598 47.7696 138.97 47.176C137.509 45.7953 135.988 44.4776 134.412 43.2277C133.736 42.6907 133.583 41.7426 134.072 41.1101ZM52.816 42.4459C53.4235 43.0606 53.4518 44.0107 52.8791 44.5681C51.4842 45.9258 50.1621 47.356 48.9181 48.8531C48.4073 49.4678 47.4579 49.5142 46.7975 48.9568C46.1371 48.3993 46.0157 47.4492 46.5265 46.8346C47.8308 45.265 49.2168 43.7657 50.6791 42.3423C51.2518 41.7849 52.2085 41.8313 52.816 42.4459ZM143.227 49.3882C143.833 48.8662 144.79 48.9659 145.364 49.6108C146.764 51.1822 148.096 52.8143 149.355 54.5022C149.87 55.1931 149.755 56.1257 149.098 56.5852C148.442 57.0447 147.491 56.8572 146.976 56.1663C145.775 54.5566 144.505 53 143.17 51.5012C142.596 50.8562 142.621 49.9102 143.227 49.3882ZM44.9513 51.4332C45.6584 51.928 45.8717 52.8691 45.4278 53.5352C44.3487 55.1545 43.352 56.8346 42.443 58.5702C42.0704 59.2815 41.1627 59.5117 40.4156 59.0845C39.6684 58.6573 39.3648 57.7343 39.7374 57.023C40.6907 55.203 41.7358 53.4412 42.8673 51.7434C43.3112 51.0773 44.2442 50.9384 44.9513 51.4332ZM150.806 59.0957C151.508 58.703 152.443 58.9771 152.895 59.7079C153.993 61.4852 155.014 63.3123 155.953 65.1844C156.336 65.949 156.046 66.8301 155.304 67.1524C154.563 67.4747 153.651 67.1161 153.267 66.3515C152.372 64.5669 151.399 62.8249 150.352 61.1303C149.9 60.3994 150.104 59.4885 150.806 59.0957ZM39.1199 61.9098C39.9 62.265 40.2914 63.1609 39.994 63.9108C39.273 65.729 38.6423 67.596 38.1069 69.5065C37.8879 70.2877 37.0573 70.6944 36.2517 70.4148C35.446 70.1353 34.9704 69.2753 35.1893 68.4941C35.7511 66.4899 36.4126 64.5314 37.169 62.6242C37.4663 61.8744 38.3398 61.5545 39.1199 61.9098ZM35.5609 73.4822C36.3842 73.6833 36.9395 74.4988 36.8013 75.3039C36.467 77.2498 36.2282 79.2325 36.0895 81.247C36.033 82.0679 35.3119 82.6355 34.479 82.5147C33.646 82.394 33.0166 81.6306 33.0731 80.8097C33.2185 78.697 33.469 76.6173 33.8197 74.5759C33.958 73.7709 34.7375 73.2812 35.5609 73.4822ZM34.4187 85.7056C35.2532 85.7457 35.95 86.45 35.9751 87.2788C36.0054 88.2831 36.0603 89.2938 36.1403 90.3104C36.2203 91.327 36.3245 92.3377 36.4523 93.342C36.5577 94.1708 35.9717 94.8751 35.1435 94.9152C34.3154 94.9552 33.5585 94.3158 33.4531 93.4871C33.3192 92.4345 33.2101 91.3754 33.1263 90.3104C33.0424 89.2454 32.9849 88.1863 32.9531 87.1337C32.928 86.3049 33.5842 85.6656 34.4187 85.7056ZM35.706 98.1061C36.52 97.9853 37.3304 98.5529 37.5161 99.3739C37.9719 101.388 38.5227 103.371 39.1633 105.317C39.4283 106.122 39.0014 106.938 38.2097 107.139C37.418 107.34 36.5614 106.85 36.2963 106.045C35.6243 104.003 35.0465 101.924 34.5685 99.8111C34.3828 98.9902 34.8921 98.2268 35.706 98.1061ZM39.3833 110.206C40.1449 109.926 41.0396 110.333 41.3815 111.114C42.2176 113.025 43.1422 114.892 44.1494 116.71C44.5648 117.46 44.3145 118.356 43.5903 118.711C42.8661 119.066 41.9422 118.746 41.5269 117.997C40.4703 116.089 39.5005 114.131 38.6233 112.127C38.2814 111.345 38.6216 110.486 39.3833 110.206ZM158.949 113.468C159.742 113.791 160.171 114.672 159.908 115.436C159.263 117.308 158.53 119.136 157.712 120.913C157.375 121.644 156.483 121.918 155.719 121.525C154.955 121.132 154.608 120.221 154.945 119.49C155.725 117.796 156.424 116.054 157.038 114.269C157.301 113.505 158.157 113.146 158.949 113.468ZM45.3306 121.536C46.0105 121.109 46.9545 121.339 47.439 122.051C48.6213 123.786 49.8824 125.466 51.2164 127.086C51.7651 127.752 51.6999 128.693 51.0707 129.188C50.4415 129.682 49.4866 129.544 48.9379 128.877C47.5391 127.18 46.2168 125.418 44.9769 123.598C44.4924 122.887 44.6508 121.964 45.3306 121.536ZM154.407 124.036C155.136 124.495 155.398 125.428 154.991 126.119C153.998 127.806 152.923 129.439 151.771 131.01C151.298 131.655 150.357 131.755 149.669 131.233C148.981 130.711 148.806 129.765 149.279 129.12C150.378 127.621 151.403 126.064 152.35 124.454C152.757 123.764 153.678 123.576 154.407 124.036ZM53.3067 131.664C53.8794 131.107 54.8361 131.153 55.4436 131.768C56.9233 133.265 58.4705 134.695 60.0791 136.053C60.7395 136.61 60.8608 137.56 60.3501 138.175C59.8393 138.79 58.8899 138.836 58.2295 138.279C56.5431 136.855 54.9211 135.356 53.3698 133.786C52.7623 133.172 52.734 132.221 53.3067 131.664ZM147.889 133.42C148.53 134 148.616 134.951 148.081 135.544C146.777 136.992 145.399 138.373 143.954 139.684C143.362 140.221 142.405 140.143 141.816 139.511C141.228 138.878 141.231 137.93 141.823 137.393C143.202 136.143 144.515 134.825 145.76 133.445C146.294 132.851 147.248 132.84 147.889 133.42ZM62.9944 140.21C63.4383 139.544 64.3713 139.405 65.0784 139.9C66.7973 141.102 68.5713 142.228 70.3942 143.27C71.1413 143.697 71.445 144.62 71.0724 145.332C70.6998 146.043 69.7921 146.273 69.045 145.846C67.1333 144.753 65.2732 143.573 63.4709 142.312C62.7638 141.817 62.5504 140.876 62.9944 140.21ZM139.632 141.299C140.163 141.979 140.071 142.916 139.426 143.391C137.857 144.549 136.225 145.632 134.535 146.634C133.843 147.044 132.903 146.792 132.435 146.07C131.967 145.349 132.148 144.432 132.84 144.022C134.452 143.066 136.008 142.034 137.505 140.929C138.149 140.454 139.102 140.619 139.632 141.299ZM74.0255 146.845C74.3228 146.095 75.1963 145.775 75.9764 146.131C77.8681 146.992 79.8019 147.767 81.7721 148.451C82.5778 148.731 83.0534 149.591 82.8344 150.372C82.6155 151.153 81.7849 151.56 80.9792 151.28C78.9124 150.563 76.8838 149.75 74.8996 148.846C74.1195 148.491 73.7281 147.595 74.0255 146.845ZM129.921 147.396C130.321 148.153 130.053 149.042 129.32 149.382C127.541 150.209 125.71 150.953 123.831 151.608C123.064 151.875 122.175 151.455 121.844 150.67C121.514 149.885 121.868 149.031 122.635 148.764C124.427 148.139 126.173 147.43 127.869 146.642C128.601 146.301 129.52 146.639 129.921 147.396ZM85.9844 151.301C86.1227 150.496 86.9023 150.006 87.7256 150.207C89.7159 150.693 91.7356 151.087 93.7796 151.383C94.6126 151.504 95.242 152.267 95.1855 153.088C95.129 153.909 94.4079 154.477 93.575 154.356C91.4313 154.045 89.3127 153.632 87.2248 153.123C86.4015 152.922 85.8462 152.106 85.9844 151.301ZM119.087 151.481C119.344 152.289 118.907 153.099 118.113 153.291C116.187 153.756 114.221 154.133 112.217 154.417C111.402 154.532 110.595 153.959 110.415 153.138C110.234 152.316 110.749 151.556 111.564 151.441C113.475 151.171 115.35 150.811 117.185 150.368C117.979 150.176 118.831 150.674 119.087 151.481ZM98.4107 153.399C98.3857 152.57 99.0419 151.931 99.8764 151.971C100.888 152.019 101.903 152.044 102.923 152.044C103.897 152.044 104.864 152.021 105.823 151.977C106.652 151.939 107.407 152.58 107.511 153.409C107.614 154.237 107.027 154.94 106.198 154.979C105.193 155.025 104.18 155.049 103.16 155.049C102.091 155.049 101.027 155.023 99.967 154.972C99.1325 154.932 98.4358 154.228 98.4107 153.399Z" fill="url(#paint11_linear_3810_11835)"/>
<path d="M98.1228 144.76L97.7893 140.522C76.8857 138.893 58.5305 124.729 50.927 105.613H46.1627M106.956 144.76L106.617 140.453C121.311 139.056 133.642 131.287 141.04 119.928L136.408 116.609M43.2312 79.9113H47.622C50.6444 57.1121 69.5902 39.9971 93.8928 39.9971C111.193 39.9971 127.144 48.67 137.284 61.8925L133.67 64.9935" stroke="url(#paint12_linear_3810_11835)" stroke-width="1.52205"/>
<path fill-rule="evenodd" clip-rule="evenodd" d="M121.792 46.4335C122.488 46.8521 122.729 47.7343 122.343 48.3838V48.3838C121.956 49.0333 121.087 49.2041 120.391 48.7864C119.321 48.1456 118.23 47.541 117.118 46.9746C116.396 46.6068 116.041 45.7584 116.335 45.0573V45.0573C116.628 44.3562 117.459 44.0679 118.182 44.4346C119.409 45.0578 120.613 45.7248 121.792 46.4335ZM108.968 40.7339C109.736 40.9656 110.196 41.7726 110.001 42.5134V42.5134C109.807 43.2542 109.031 43.6482 108.262 43.4176C107.088 43.0651 105.899 42.7533 104.696 42.4839C103.918 42.3093 103.358 41.5656 103.451 40.7981V40.7981C103.543 40.0305 104.252 39.5297 105.031 39.7031C106.359 39.9985 107.672 40.3428 108.968 40.7339Z" fill="url(#paint13_linear_3810_11835)"/>
<path fill-rule="evenodd" clip-rule="evenodd" d="M133.463 106.333C133.779 105.643 133.426 104.791 132.696 104.441V104.441C131.967 104.09 131.137 104.375 130.82 105.064C130.333 106.122 129.805 107.161 129.237 108.178C128.867 108.839 129.105 109.719 129.789 110.157V110.157C130.474 110.596 131.346 110.428 131.716 109.768C132.346 108.647 132.928 107.501 133.463 106.333Z" fill="url(#paint14_linear_3810_11835)"/>
<path fill-rule="evenodd" clip-rule="evenodd" d="M80.7601 35.2253C81.5785 35.0371 82.4358 35.5826 82.6673 36.4181V36.4181C82.8989 37.2536 82.417 38.0626 81.599 38.2521C80.343 38.5431 79.108 38.8797 77.8959 39.2601C77.0989 39.5102 76.1873 39.0805 75.8493 38.274V38.274C75.5112 37.4675 75.8748 36.5897 76.6713 36.3383C78.0087 35.9161 79.3723 35.5444 80.7601 35.2253ZM67.2922 40.3456C68.0162 39.9475 68.9698 40.2626 69.4083 41.0262V41.0262C69.8469 41.7898 69.6042 42.7126 68.881 43.1118C67.7734 43.7232 66.694 44.3757 65.6447 45.0672C64.9571 45.5204 63.9827 45.3328 63.4517 44.6251V44.6251C62.9207 43.9174 63.0343 42.9576 63.7211 42.5033C64.8775 41.7384 66.0686 41.0184 67.2922 40.3456Z" fill="url(#paint15_linear_3810_11835)"/>
<path d="M80.2 103.919L75.1151 108.077C71.0374 103.057 68.5269 97.0161 67.9396 90.785C67.3524 84.554 68.7187 78.4533 71.8396 73.3217L77.6923 77.3109C75.3385 81.2513 74.3118 85.9162 74.7607 90.6795C75.2097 95.4429 77.1114 100.063 80.2 103.919Z" stroke="url(#paint16_linear_3810_11835)" stroke-width="1.52205"/>
<path d="M118.719 103.919L124.459 108.077C127.746 103.057 129.306 97.0161 128.912 90.785C128.519 84.554 126.192 78.4533 122.264 73.3217L117.039 77.3109C120.013 81.2513 121.774 85.9162 122.075 90.6795C122.375 95.4429 121.201 100.063 118.719 103.919Z" stroke="url(#paint17_linear_3810_11835)" stroke-width="1.52205"/>
<defs>
<linearGradient id="paint0_linear_3810_11835" x1="-16.145" y1="-24.2417" x2="177.147" y2="138.298" gradientUnits="userSpaceOnUse">
<stop stop-color="#D55FFF"/>
<stop offset="1" stop-color="#4230B1"/>
</linearGradient>
<linearGradient id="paint1_linear_3810_11835" x1="156.683" y1="38.0462" x2="55.5165" y2="183.094" gradientUnits="userSpaceOnUse">
<stop stop-color="#995C08"/>
<stop offset="1" stop-color="#683811"/>
</linearGradient>
<linearGradient id="paint2_linear_3810_11835" x1="-82.6828" y1="62.6885" x2="252.797" y2="81.9018" gradientUnits="userSpaceOnUse">
<stop stop-color="#2F2450"/>
<stop offset="1" stop-color="#1E1024"/>
</linearGradient>
<linearGradient id="paint3_linear_3810_11835" x1="137.855" y1="89.7907" x2="189.377" y2="97.2912" gradientUnits="userSpaceOnUse">
<stop stop-color="#DC9327"/>
<stop offset="0.04" stop-color="#E8B744"/>
<stop offset="0.08" stop-color="#F2D35B"/>
<stop offset="0.12" stop-color="#F9E76B"/>
<stop offset="0.16" stop-color="#FEF375"/>
<stop offset="0.2" stop-color="#FFF778"/>
<stop offset="0.28" stop-color="#EAC34A"/>
<stop offset="0.34" stop-color="#D99A26"/>
<stop offset="0.36" stop-color="#CB8E24"/>
<stop offset="0.4" stop-color="#B77E21"/>
<stop offset="0.43" stop-color="#AB741F"/>
<stop offset="0.47" stop-color="#A7711E"/>
<stop offset="0.51" stop-color="#AB7622"/>
<stop offset="0.56" stop-color="#B8852E"/>
<stop offset="0.61" stop-color="#CD9E42"/>
<stop offset="0.66" stop-color="#EBC15E"/>
<stop offset="0.68" stop-color="#F6CE69"/>
<stop offset="0.72" stop-color="#F3C962"/>
<stop offset="0.78" stop-color="#EBBA4F"/>
<stop offset="0.85" stop-color="#DEA231"/>
<stop offset="0.87" stop-color="#D99A26"/>
<stop offset="1" stop-color="#F6CE69"/>
</linearGradient>
<linearGradient id="paint4_linear_3810_11835" x1="160.595" y1="55.5837" x2="48.1078" y2="114.436" gradientUnits="userSpaceOnUse">
<stop stop-color="#421A92"/>
<stop offset="1" stop-color="#4324A2" stop-opacity="0"/>
</linearGradient>
<linearGradient id="paint5_linear_3810_11835" x1="166.463" y1="56.0455" x2="-18.3907" y2="139.118" gradientUnits="userSpaceOnUse">
<stop stop-color="#805EDC"/>
<stop offset="0.732417" stop-color="#805EDC" stop-opacity="0"/>
</linearGradient>
<linearGradient id="paint6_linear_3810_11835" x1="125.961" y1="-12.1986" x2="211.798" y2="122.38" gradientUnits="userSpaceOnUse">
<stop stop-color="#A55FFF"/>
<stop offset="1" stop-color="white"/>
</linearGradient>
<linearGradient id="paint7_linear_3810_11835" x1="139.556" y1="72.0665" x2="164.401" y2="80.6324" gradientUnits="userSpaceOnUse">
<stop stop-color="#A55FFF"/>
<stop offset="1" stop-color="white"/>
</linearGradient>
<linearGradient id="paint8_linear_3810_11835" x1="67.2792" y1="-12.1896" x2="163.505" y2="93.1034" gradientUnits="userSpaceOnUse">
<stop stop-color="#A55FFF"/>
<stop offset="1" stop-color="white"/>
</linearGradient>
<linearGradient id="paint9_linear_3810_11835" x1="97.0914" y1="-34.7744" x2="172.59" y2="163.002" gradientUnits="userSpaceOnUse">
<stop stop-color="#A55FFF"/>
<stop offset="1" stop-color="white"/>
</linearGradient>
<linearGradient id="paint10_linear_3810_11835" x1="93.7588" y1="-54.562" x2="184.004" y2="172.302" gradientUnits="userSpaceOnUse">
<stop stop-color="#A55FFF"/>
<stop offset="1" stop-color="white"/>
</linearGradient>
<linearGradient id="paint11_linear_3810_11835" x1="90.1808" y1="-56.5416" x2="185.236" y2="170.428" gradientUnits="userSpaceOnUse">
<stop stop-color="#A55FFF"/>
<stop offset="1" stop-color="white"/>
</linearGradient>
<linearGradient id="paint12_linear_3810_11835" x1="87.297" y1="-26.4433" x2="167.542" y2="154.184" gradientUnits="userSpaceOnUse">
<stop stop-color="#A55FFF"/>
<stop offset="1" stop-color="white"/>
</linearGradient>
<linearGradient id="paint13_linear_3810_11835" x1="93.5311" y1="31.6856" x2="144.381" y2="62.8697" gradientUnits="userSpaceOnUse">
<stop stop-color="#A55FFF"/>
<stop offset="1" stop-color="white"/>
</linearGradient>
<linearGradient id="paint14_linear_3810_11835" x1="129.942" y1="121.136" x2="134.316" y2="95.7993" gradientUnits="userSpaceOnUse">
<stop offset="0.161458" stop-color="#A55FFF"/>
<stop offset="1" stop-color="white"/>
</linearGradient>
<linearGradient id="paint15_linear_3810_11835" x1="51.4779" y1="26.5363" x2="136.781" y2="37.6597" gradientUnits="userSpaceOnUse">
<stop stop-color="#A55FFF"/>
<stop offset="1" stop-color="white"/>
</linearGradient>
<linearGradient id="paint16_linear_3810_11835" x1="71.0424" y1="48.8611" x2="110.613" y2="81.5283" gradientUnits="userSpaceOnUse">
<stop stop-color="#A55FFF"/>
<stop offset="1" stop-color="white"/>
</linearGradient>
<linearGradient id="paint17_linear_3810_11835" x1="119.211" y1="48.8611" x2="85.369" y2="82.1255" gradientUnits="userSpaceOnUse">
<stop stop-color="#A55FFF"/>
<stop offset="1" stop-color="white"/>
</linearGradient>
</defs>
</svg>
