<svg width="177" height="163" viewBox="0 0 177 163" fill="none" xmlns="http://www.w3.org/2000/svg">
<path d="M37.4494 136.721C11.2615 108.391 14.8764 62.4589 45.5235 34.129C76.1706 5.79913 122.244 5.79913 148.432 34.129C174.62 62.4589 171.005 108.391 140.358 136.721C109.711 165.05 63.6372 165.05 37.4494 136.721Z" fill="#291D40"/>
<path d="M32.7405 132.396C6.63304 104.153 10.2368 58.3624 40.7898 30.1196C71.3428 1.87668 117.275 1.87667 143.383 30.1195C169.49 58.3624 165.886 104.153 135.333 132.396C104.78 160.639 58.8479 160.639 32.7405 132.396Z" fill="url(#paint0_linear_3945_12209)"/>
<path fill-rule="evenodd" clip-rule="evenodd" d="M32.9194 132.231C6.89618 104.079 10.4883 58.4363 40.9427 30.2846C71.3971 2.13283 117.181 2.13283 143.204 30.2846C169.228 58.4363 165.635 104.079 135.181 132.231C104.727 160.383 58.9426 160.383 32.9194 132.231ZM40.6446 29.962C9.99747 58.2919 6.38258 104.224 32.5704 132.554C58.7583 160.883 104.832 160.883 135.479 132.554C166.126 104.224 169.741 58.2919 143.553 29.962C117.365 1.63214 71.2916 1.63214 40.6446 29.962Z" fill="#F8E4FF"/>
<path d="M22.4237 95.493C17.3401 59.9755 42.6019 24.8155 78.8474 16.961C115.093 9.10646 148.597 31.5317 153.68 67.0492C158.764 102.567 133.502 137.727 97.2565 145.581C61.011 153.436 27.5072 131.011 22.4237 95.493Z" fill="url(#paint1_linear_3945_12209)"/>
<path fill-rule="evenodd" clip-rule="evenodd" d="M94.7612 64.9629H104.156L104.21 64.2786H95.0462L95.6287 56.8779H94.9423L94.3464 64.4506L92.4041 66.1031L92.6533 66.3558C93.6983 67.4155 94.2642 68.8084 94.1447 70.3257C94.0253 71.843 93.2402 73.2358 92.0285 74.2955L91.7395 74.5482L93.4216 76.2007L92.918 82.599H93.6044L94.0944 76.3727H108.722L108.775 75.6885H93.9171L92.7423 74.5344C93.9249 73.3952 94.7048 71.9305 94.8311 70.3257C94.9574 68.7208 94.4081 67.2561 93.4048 66.1169L94.7612 64.9629Z" fill="#F7CE69"/>
<path fill-rule="evenodd" clip-rule="evenodd" d="M84.8197 64.9638H75.4249L75.4787 64.2796H84.6424L85.2248 56.8789H85.9112L85.3152 64.4516L86.9973 66.1041L86.7083 66.3568C85.4966 67.4165 84.7115 68.8093 84.5921 70.3266C84.4726 71.8439 85.0385 73.2368 86.0835 74.2965L86.3327 74.5492L84.3904 76.2016L83.8869 82.6H83.2005L83.6905 76.3737H69.0634L69.1172 75.6894H83.9755L85.332 74.5353C84.3287 73.3962 83.7794 71.9315 83.9057 70.3266C84.032 68.7218 84.8119 67.2571 85.9945 66.1179L84.8197 64.9638Z" fill="#F7CE69"/>
<path fill-rule="evenodd" clip-rule="evenodd" d="M92.6148 63.308L93.1066 57.0586H93.793L93.2769 63.6156L93.156 63.7175C91.3211 65.263 88.6381 65.263 87.0465 63.7175L86.9416 63.6156L87.4576 57.0586H88.144L87.6521 63.308C88.9763 64.4872 91.105 64.4872 92.6148 63.308Z" fill="#F7CE69"/>
<path fill-rule="evenodd" clip-rule="evenodd" d="M91.4246 78.4313L90.9328 84.6807H91.6191L92.1352 78.1236L92.0303 78.0218C90.4387 76.4762 87.7557 76.4762 85.9208 78.0218L85.7998 78.1236L85.2838 84.6807H85.9702L86.462 78.4313C87.9718 77.252 90.1004 77.252 91.4246 78.4313Z" fill="#F7CE69"/>
<path fill-rule="evenodd" clip-rule="evenodd" d="M105.969 77.0381H94.9234L94.5102 82.2876H95.1966L95.5559 77.7223H105.915L105.969 77.0381Z" fill="#F7CE69"/>
<path fill-rule="evenodd" clip-rule="evenodd" d="M71.7129 77.0381H82.7582L82.3451 82.2876H81.6587L82.018 77.7223H71.659L71.7129 77.0381Z" fill="#F7CE69"/>
<path fill-rule="evenodd" clip-rule="evenodd" d="M91.4358 62.1173L91.7531 58.0859H92.4395L92.1005 62.3928L92.0006 62.4913C90.9109 63.5664 89.3158 63.5664 88.3953 62.4913L88.3109 62.3928L88.6499 58.0859H89.3363L89.019 62.1173C89.6693 62.7787 90.6814 62.7787 91.4358 62.1173Z" fill="#F7CE69"/>
<path fill-rule="evenodd" clip-rule="evenodd" d="M90.0587 79.6219L89.7414 83.6533H90.4277L90.7667 79.3465L90.6823 79.2479C89.7619 78.1729 88.1667 78.1729 87.077 79.2479L86.9771 79.3465L86.6382 83.6533H87.3245L87.6418 79.6219C88.3963 78.9605 89.4083 78.9605 90.0587 79.6219Z" fill="#F7CE69"/>
<path fill-rule="evenodd" clip-rule="evenodd" d="M103.121 66.2695H95.3395L95.8134 66.8412C96.5778 67.7633 96.991 68.9854 96.8855 70.3268C96.7799 71.6682 96.1743 72.8903 95.2647 73.8124L94.7008 74.3841H104.262L104.316 73.6998H96.2402C96.987 72.7449 97.4731 71.5815 97.5718 70.3268C97.6706 69.0721 97.3677 67.9087 96.7711 66.9538H103.068L103.121 66.2695Z" fill="#F7CE69"/>
<path fill-rule="evenodd" clip-rule="evenodd" d="M76.2536 66.2695H84.0355L83.4716 66.8412C82.562 67.7633 81.9565 68.9854 81.8509 70.3268C81.7453 71.6682 82.1585 72.8903 82.923 73.8124L83.3969 74.3841H73.836L73.8898 73.6998H81.9653C81.3687 72.7449 81.0658 71.5815 81.1646 70.3268C81.2633 69.0721 81.7493 67.9087 82.4962 66.9538H76.1998L76.2536 66.2695Z" fill="#F7CE69"/>
<path fill-rule="evenodd" clip-rule="evenodd" d="M96.3307 59.1523L95.9955 63.4108H106.669L106.723 62.7265H96.7357L97.017 59.1523H96.3307Z" fill="#F7CE69"/>
<path fill-rule="evenodd" clip-rule="evenodd" d="M84.1654 59.1523L83.8303 63.4108H73.157L73.2109 62.7265H83.1978L83.4791 59.1523H84.1654Z" fill="#F7CE69"/>
<path d="M22.1305 95.561C17.028 59.9106 42.3843 24.619 78.7654 16.7351C115.146 8.85118 148.776 31.3604 153.878 67.0108C158.981 102.661 133.624 137.953 97.2434 145.837C60.8622 153.721 27.2331 131.211 22.1305 95.561Z" fill="url(#paint2_linear_3945_12209)"/>
<path d="M33.0852 85.0934L33.0859 85.084H32.5009L33.0852 85.0934Z" fill="url(#paint3_linear_3945_12209)"/>
<path fill-rule="evenodd" clip-rule="evenodd" d="M38.2589 127.296C14.7553 101.87 17.9997 60.646 45.5054 35.22C73.0111 9.79399 114.362 9.79398 137.866 35.22C161.369 60.646 158.125 101.87 130.619 127.296C103.114 152.722 61.7624 152.722 38.2589 127.296ZM44.1217 33.7231C15.7216 59.9758 12.3718 102.54 36.6395 128.793C60.9073 155.045 103.603 155.045 132.003 128.793C160.403 102.54 163.753 59.9758 139.485 33.7231C115.217 7.47034 72.5217 7.47035 44.1217 33.7231Z" fill="url(#paint4_linear_3945_12209)"/>
<path fill-rule="evenodd" clip-rule="evenodd" d="M37.1793 128.294C13.1663 102.316 16.481 60.1992 44.5829 34.222C72.6848 8.2449 114.932 8.24489 138.945 34.222C162.958 60.1992 159.644 102.316 131.542 128.294C103.44 154.271 61.1924 154.271 37.1793 128.294ZM44.1217 33.7231C15.7216 59.9758 12.3718 102.54 36.6395 128.793C60.9073 155.045 103.603 155.045 132.003 128.793C160.403 102.54 163.753 59.9758 139.485 33.7231C115.217 7.47034 72.5217 7.47035 44.1217 33.7231Z" fill="url(#paint5_linear_3945_12209)"/>
<path fill-rule="evenodd" clip-rule="evenodd" d="M93.2234 54.9785H87.1082L86.7037 60.118C80.6235 61.5211 75.7619 66.851 75.2613 73.2118C74.6765 80.6426 80.2648 86.6664 87.743 86.6664C95.2212 86.6664 101.758 80.6426 102.342 73.2118C102.847 66.8006 98.7564 61.4368 92.8215 60.0854L93.2234 54.9785ZM81.1167 73.2118C80.7848 77.4293 83.9565 80.8481 88.2009 80.8481C92.4453 80.8481 96.1551 77.4293 96.487 73.2118C96.8189 68.9943 93.6473 65.5753 89.4029 65.5753C85.1585 65.5753 81.4486 68.9943 81.1167 73.2118ZM81.1769 95.0665C82.5844 96.5837 84.5884 97.436 86.7477 97.436C88.907 97.436 91.0451 96.5837 92.6914 95.0665C94.3377 93.5492 95.3574 91.4913 95.5263 89.3457H100.954C100.673 92.9218 98.9732 96.3516 96.2294 98.8803C94.2966 100.661 91.9573 101.893 89.4853 102.465L89.0778 107.643H82.9626L83.3673 102.5C80.926 101.944 78.7253 100.698 77.0386 98.8803C74.6929 96.3516 73.5331 92.9218 73.8146 89.3457H79.2425C79.0737 91.4913 79.7694 93.5492 81.1769 95.0665Z" fill="#C79FD5"/>
<path d="M99.4299 88.0426L100.952 89.3466L100.729 89.608L98.6313 89.5894L99.4299 88.0426Z" fill="#C79FD4"/>
<path d="M91.695 53.6822L93.2195 54.98L93.048 55.3042C92.8313 55.275 92.3944 55.2164 92.3809 55.2152C92.3675 55.214 90.9207 55.2175 90.8495 55.1122L91.695 53.6822Z" fill="#C79FD4"/>
<path d="M77.7215 88.0424L79.2386 89.346L78.6161 89.7888L76.6447 89.5499L77.7215 88.0424Z" fill="#C79FD4"/>
<path d="M81.4425 106.342L82.9584 107.641L83.3698 107.408L83.3263 105.642L81.4425 106.342Z" fill="#C79FD4"/>
<path fill-rule="evenodd" clip-rule="evenodd" d="M91.7 53.6787H85.5848L85.1803 58.8182C79.1001 60.2213 74.2385 65.5512 73.7379 71.912C73.1531 79.3428 78.7413 85.3666 86.2195 85.3666C93.6977 85.3666 100.234 79.3428 100.819 71.912C101.323 65.5008 97.233 60.137 91.298 58.7856L91.7 53.6787ZM79.5933 71.912C79.2613 76.1295 82.4331 79.5483 86.6774 79.5483C90.9218 79.5483 94.6316 76.1295 94.9636 71.912C95.2955 67.6945 92.1238 64.2755 87.8794 64.2755C83.6351 64.2755 79.9252 67.6945 79.5933 71.912ZM79.6535 93.7667C81.061 95.2839 83.0649 96.1362 85.2242 96.1362C87.3836 96.1362 89.5216 95.2839 91.1679 93.7667C92.8142 92.2494 93.834 90.1915 94.0029 88.0459H99.4308C99.1494 91.622 97.4498 95.0518 94.7059 97.5805C92.7732 99.3616 90.4338 100.593 87.9618 101.165L87.5544 106.343H81.4392L81.8439 101.2C79.4025 100.644 77.2019 99.3986 75.5152 97.5805C73.1695 95.0518 72.0097 91.622 72.2911 88.0459H77.7191C77.5502 90.1915 78.246 92.2494 79.6535 93.7667Z" fill="#F6DEFF"/>
<path fill-rule="evenodd" clip-rule="evenodd" d="M88.4375 39.8066L87.6868 39.8711C86.0568 40.011 84.446 40.242 82.86 40.559C67.0458 43.7202 53.7167 55.4328 48.5375 70.6496L32.9069 70.757L32.8087 72.1255L49.5035 72.0107L49.6721 71.4943C54.5545 56.5423 67.5607 44.9919 83.0285 41.8999C84.3185 41.6421 85.6257 41.443 86.9468 41.3057L86.4 48.253C71.8744 50.0842 59.4893 61.0228 55.7171 75.0847L32.4628 75.1931L32.3615 76.5616L56.7635 76.4478L56.9052 75.8817C60.3933 61.9466 72.6913 51.0901 87.0594 49.5412L87.6766 49.4747L88.4375 39.8066ZM56.007 86.2901L31.5805 86.4038L31.4792 87.7723L54.7517 87.6639C56.3591 101.647 66.9774 112.516 81.1462 114.361L80.5993 121.309C63.7968 119.512 50.9443 107.379 48.1532 91.2698L48.0632 90.7503L31.7122 90.8078L31.6093 92.1762L46.8892 92.1226C50.0057 108.77 63.5492 121.194 81.1126 122.745L81.8539 122.81L82.6149 113.141L82.0093 113.073C67.9506 111.509 57.4049 100.72 56.0622 86.859L56.007 86.2901Z" fill="url(#paint6_linear_3945_12209)"/>
<path fill-rule="evenodd" clip-rule="evenodd" d="M42.1052 71.3304C42.1647 70.5746 41.5983 69.9619 40.8402 69.9619H38.6714C37.9133 69.9619 37.2505 70.5746 37.191 71.3304V71.3304C37.1315 72.0862 37.6979 72.6989 38.456 72.6989H40.6248C41.3829 72.6989 42.0457 72.0862 42.1052 71.3304V71.3304Z" fill="url(#paint7_linear_3945_12209)"/>
<path fill-rule="evenodd" clip-rule="evenodd" d="M94.2949 39.8105L93.5339 49.4797L94.1395 49.5471C110.027 51.3149 121.426 64.8619 120.131 81.3105C118.837 97.759 105.305 111.306 89.1398 113.074L88.5236 113.141L87.7626 122.81L88.5142 122.745C109.972 120.877 128.088 103.04 129.798 81.3105C131.508 59.5811 116.2 41.7439 95.0362 39.876L94.2949 39.8105ZM95.5494 41.3116C115.63 43.4638 130.059 60.5511 128.426 81.3105C126.792 102.07 109.673 119.157 89.2535 121.309L89.8003 114.361C106.386 112.245 120.17 98.2548 121.504 81.3105C122.838 64.3662 111.255 50.3762 95.0026 48.26L95.5494 41.3116Z" fill="url(#paint8_linear_3945_12209)"/>
<path fill-rule="evenodd" clip-rule="evenodd" d="M137.407 75.9825H129.9L129.793 77.351H138.811L138.8 76.6036C138.436 50.9662 118.381 30.8945 92.0424 30.8945C69.3624 30.8945 48.9997 45.7775 40.971 66.2798H33.9422L33.8345 67.6483H41.8812L42.0665 67.1611C49.7476 46.9702 69.698 32.263 91.9347 32.263C117.301 32.263 136.678 51.4007 137.407 75.9825ZM138.172 85.3667H128.415L128.307 86.7352H136.55C131.912 111.271 109.548 130.359 84.2144 130.359C62.0504 130.359 44.4577 115.748 39.8839 95.6592L39.7736 95.1749H32.3338L32.2261 96.5433H38.6525C43.5244 116.942 61.5008 131.728 84.1067 131.728C110.412 131.728 133.601 111.707 138.042 86.1154L138.172 85.3667Z" fill="url(#paint9_linear_3945_12209)"/>
<path fill-rule="evenodd" clip-rule="evenodd" d="M144.479 81.3112C142.035 112.367 114.8 137.542 83.6487 137.542C57.4838 137.542 36.8747 119.78 32.3983 95.6895L32.1793 93.9252C31.0727 85.0108 31.917 75.8145 34.6555 66.9504C42.9186 42.8507 66.3285 25.0804 92.4996 25.0804C123.651 25.0804 146.923 50.2558 144.479 81.3112ZM33.3482 66.6229C30.5459 75.6834 29.6813 85.0841 30.8124 94.1964L31.0363 95.9995C35.6066 120.696 56.7233 138.911 83.541 138.911C115.451 138.911 143.348 113.122 145.852 81.3112C148.355 49.5 124.517 23.7119 92.6073 23.7119C65.7897 23.7119 41.8059 41.9265 33.3482 66.6229Z" fill="url(#paint10_linear_3945_12209)"/>
<path fill-rule="evenodd" clip-rule="evenodd" d="M92.4662 25.6348C93.3858 25.6348 94.2984 25.6569 95.2036 25.7007C95.9505 25.7368 96.6331 25.1602 96.7281 24.4127C96.8232 23.6653 96.2948 23.03 95.5478 22.9939C94.5992 22.948 93.6429 22.9248 92.6794 22.9248C91.7592 22.9248 90.8422 22.946 89.9289 22.9879C89.1763 23.0224 88.5466 23.6563 88.5224 24.4039C88.4982 25.1514 89.0886 25.7294 89.8412 25.6949C90.7126 25.655 91.5878 25.6348 92.4662 25.6348ZM85.8648 24.6481C85.8188 23.9071 85.1723 23.3906 84.4207 23.4947C82.5734 23.7504 80.7464 24.0902 78.944 24.51C78.2001 24.6833 77.6916 25.4139 77.8081 26.1419C77.9246 26.8699 78.6221 27.3196 79.366 27.1463C81.0841 26.7461 82.8259 26.4221 84.5874 26.1783C85.3389 26.0743 85.9109 25.3892 85.8648 24.6481ZM99.5928 24.6926C99.4253 25.433 99.8846 26.1215 100.619 26.2304C102.42 26.4976 104.186 26.8526 105.912 27.2909C106.626 27.4722 107.398 27.0306 107.637 26.3045C107.876 25.5785 107.491 24.843 106.777 24.6617C104.967 24.2019 103.115 23.8296 101.225 23.5493C100.491 23.4404 99.7604 23.9523 99.5928 24.6926ZM75.2063 26.8737C75.0201 26.1653 74.2778 25.7866 73.5482 26.0278C71.7602 26.6189 70.0029 27.2895 68.281 28.0351C67.5722 28.3421 67.2037 29.1441 67.4579 29.8266C67.712 30.5091 68.4926 30.8136 69.2014 30.5067C70.843 29.7958 72.5181 29.1566 74.2225 28.5931C74.952 28.3519 75.3925 27.5821 75.2063 26.8737ZM110.346 27.1427C110.038 27.8473 110.345 28.6228 111.032 28.875C112.712 29.4916 114.346 30.1907 115.929 30.9677C116.583 31.2881 117.416 30.9996 117.79 30.3234C118.165 29.6471 117.939 28.8391 117.286 28.5187C115.625 27.7037 113.911 26.9703 112.149 26.3235C111.462 26.0713 110.655 26.4381 110.346 27.1427ZM65.0016 31.0221C64.682 30.3714 63.8702 30.1437 63.1884 30.5134C61.5217 31.4173 59.8961 32.3937 58.3165 33.4381C57.6676 33.8671 57.4514 34.712 57.8334 35.3251C58.2155 35.9383 59.0512 36.0876 59.7 35.6586C61.2065 34.6626 62.7567 33.7314 64.346 32.8696C65.0277 32.4998 65.3213 31.6727 65.0016 31.0221ZM120.239 31.6882C119.802 32.3297 119.945 33.1621 120.558 33.5474C122.054 34.4876 123.494 35.5026 124.874 36.5874C125.441 37.0337 126.302 36.9085 126.797 36.3077C127.292 35.707 127.233 34.8583 126.666 34.412C125.219 33.2746 123.709 32.2103 122.14 31.2243C121.527 30.839 120.676 31.0467 120.239 31.6882ZM55.6098 36.9381C55.1689 36.3676 54.3167 36.2977 53.7063 36.782C52.2169 37.9638 50.7788 39.2097 49.3969 40.5152C48.8302 41.0505 48.7728 41.9084 49.2686 42.4313C49.7644 42.9542 50.6257 42.9442 51.1924 42.4088C52.5106 41.1636 53.8823 39.9752 55.303 38.8479C55.9133 38.3636 56.0507 37.5085 55.6098 36.9381ZM128.893 38.1428C128.345 38.6972 128.32 39.5541 128.836 40.0568C130.094 41.2813 131.287 42.5712 132.409 43.9214C132.869 44.4757 133.726 44.5176 134.321 44.0148C134.917 43.5121 135.026 42.6552 134.566 42.1009C133.389 40.6854 132.139 39.3331 130.82 38.0494C130.304 37.5467 129.441 37.5885 128.893 38.1428ZM47.3529 44.404C46.8065 43.9332 45.9436 44.0231 45.4255 44.6048C44.1635 46.0219 42.9622 47.4939 41.8268 49.0162C41.362 49.6393 41.4655 50.4803 42.0579 50.8948C42.6503 51.3092 43.5073 51.1401 43.9721 50.517C45.0549 49.0652 46.2006 47.6613 47.4043 46.3096C47.9224 45.728 47.8993 44.8748 47.3529 44.404ZM135.986 46.2483C135.348 46.6946 135.156 47.5433 135.556 48.144C136.53 49.6045 137.429 51.1197 138.248 52.685C138.584 53.3265 139.403 53.5342 140.077 53.1489C140.751 52.7635 141.025 51.9311 140.689 51.2896C139.829 49.6482 138.886 48.0593 137.866 46.528C137.465 45.9273 136.624 45.8021 135.986 46.2483ZM40.518 53.159C39.8846 52.8048 39.0411 53.052 38.6339 53.7111C37.6437 55.314 36.7228 56.9619 35.8761 58.6503C35.5302 59.3398 35.7921 60.1345 36.4609 60.4251C37.1298 60.7158 37.9523 60.3924 38.2982 59.7028C39.1054 58.0933 39.9833 56.5223 40.9274 54.994C41.3346 54.3348 41.1513 53.5133 40.518 53.159ZM141.245 55.6969C140.542 56.0173 140.189 56.8253 140.457 57.5016C141.107 59.1414 141.676 60.8253 142.159 62.5483C142.357 63.2529 143.106 63.6196 143.832 63.3675C144.559 63.1154 144.988 62.3398 144.79 61.6352C144.284 59.8276 143.687 58.0613 143.005 56.3413C142.737 55.665 141.949 55.3765 141.245 55.6969ZM144.455 66.1339C143.713 66.3152 143.212 67.0508 143.337 67.7768C143.638 69.5318 143.853 71.32 143.979 73.1368C144.029 73.8771 144.68 74.389 145.431 74.2801C146.182 74.1712 146.75 73.4828 146.699 72.7424C146.568 70.837 146.342 68.9614 146.026 67.1203C145.901 66.3942 145.198 65.9526 144.455 66.1339ZM145.485 77.158C144.733 77.1941 144.104 77.8293 144.082 78.5768C144.054 79.4825 144.005 80.3941 143.933 81.3109C143.861 82.2278 143.767 83.1393 143.651 84.0451C143.556 84.7925 144.085 85.4278 144.832 85.4639C145.579 85.5 146.261 84.9234 146.356 84.1759C146.477 83.2266 146.575 82.2714 146.651 81.3109C146.727 80.3504 146.778 79.3953 146.807 78.4459C146.83 77.6985 146.238 77.1218 145.485 77.158ZM144.324 88.3417C143.59 88.2328 142.859 88.7447 142.692 89.4851C142.281 91.3019 141.784 93.09 141.206 94.845C140.967 95.5711 141.352 96.3066 142.066 96.4879C142.78 96.6692 143.553 96.2276 143.792 95.5016C144.398 93.6605 144.919 91.7849 145.35 89.8795C145.518 89.1391 145.058 88.4506 144.324 88.3417ZM141.008 99.2544C140.321 99.0022 139.514 99.369 139.206 100.074C138.452 101.797 137.618 103.48 136.709 105.12C136.335 105.797 136.561 106.605 137.214 106.925C137.867 107.245 138.7 106.957 139.075 106.281C140.028 104.561 140.902 102.794 141.693 100.987C142.002 100.282 141.695 99.5065 141.008 99.2544ZM33.1734 102.197C32.4588 102.487 32.0719 103.282 32.3092 103.972C32.8902 105.66 33.5517 107.308 34.2896 108.911C34.593 109.57 35.3977 109.817 36.0868 109.463C36.7759 109.109 37.0885 108.287 36.785 107.628C36.0815 106.1 35.4508 104.529 34.897 102.919C34.6597 102.229 33.888 101.906 33.1734 102.197ZM135.644 109.473C135.031 109.088 134.18 109.295 133.743 109.937C132.676 111.502 131.539 113.017 130.336 114.478C129.841 115.079 129.9 115.927 130.467 116.374C131.035 116.82 131.896 116.695 132.391 116.094C133.652 114.563 134.845 112.974 135.963 111.332C136.4 110.691 136.257 109.858 135.644 109.473ZM37.2703 111.727C36.6127 112.141 36.3768 112.983 36.7435 113.606C37.6393 115.128 38.6088 116.6 39.6479 118.017C40.0743 118.599 40.9231 118.689 41.5436 118.218C42.1642 117.747 42.3215 116.894 41.895 116.312C40.904 114.96 39.9793 113.557 39.125 112.105C38.7583 111.482 37.9279 111.313 37.2703 111.727ZM128.451 118.607C127.934 118.104 127.071 118.146 126.523 118.7C125.189 120.051 123.794 121.341 122.343 122.565C121.747 123.068 121.638 123.925 122.098 124.479C122.559 125.033 123.415 125.075 124.011 124.572C125.532 123.289 126.995 121.937 128.394 120.521C128.942 119.967 128.967 119.11 128.451 118.607ZM43.1488 120.191C42.5707 120.713 42.4931 121.571 42.9755 122.107C44.1519 123.412 45.3939 124.658 46.6973 125.84C47.2314 126.324 48.0947 126.254 48.6254 125.684C49.1561 125.113 49.1533 124.258 48.6192 123.774C47.3759 122.647 46.1912 121.458 45.0691 120.213C44.5867 119.678 43.7269 119.668 43.1488 120.191ZM119.714 126.314C119.313 125.713 118.472 125.588 117.834 126.034C116.284 127.119 114.684 128.134 113.04 129.074C112.366 129.46 112.092 130.292 112.428 130.934C112.764 131.575 113.583 131.783 114.257 131.398C115.981 130.412 117.658 129.347 119.284 128.21C119.921 127.764 120.114 126.915 119.714 126.314ZM50.5951 127.297C50.1165 127.91 50.1998 128.755 50.7811 129.184C52.1963 130.228 53.6683 131.205 55.1927 132.108C55.8163 132.478 56.6639 132.25 57.086 131.6C57.508 130.949 57.3447 130.122 56.7212 129.752C55.2675 128.89 53.8639 127.959 52.5142 126.963C51.9329 126.534 51.0737 126.684 50.5951 127.297ZM109.765 132.298C109.497 131.622 108.709 131.334 108.005 131.654C106.299 132.431 104.555 133.13 102.778 133.747C102.052 133.999 101.623 134.775 101.82 135.479C102.018 136.184 102.767 136.551 103.493 136.298C105.357 135.652 107.187 134.918 108.976 134.103C109.68 133.783 110.033 132.975 109.765 132.298ZM59.3541 132.795C58.9925 133.478 59.2347 134.28 59.8952 134.587C61.4998 135.332 63.1515 136.003 64.8464 136.594C65.538 136.835 66.34 136.457 66.6377 135.748C66.9354 135.04 66.6161 134.27 65.9245 134.029C64.3089 133.465 62.7343 132.826 61.2046 132.115C60.5442 131.808 59.7156 132.113 59.3541 132.795ZM98.9792 136.317C98.8545 135.591 98.1514 135.15 97.4088 135.331C95.6139 135.769 93.7923 136.124 91.9488 136.391C91.1976 136.5 90.6299 137.189 90.6809 137.929C90.7319 138.67 91.3822 139.181 92.1334 139.073C94.0668 138.792 95.9775 138.42 97.8605 137.96C98.6031 137.779 99.1039 137.043 98.9792 136.317ZM69.1243 136.48C68.8932 137.208 69.2868 137.939 70.0034 138.112C71.7396 138.532 73.5132 138.871 75.3202 139.127C76.0554 139.231 76.7833 138.715 76.9459 137.974C77.1086 137.233 76.6445 136.548 75.9093 136.444C74.1862 136.2 72.4954 135.876 70.8403 135.476C70.1237 135.302 69.3554 135.752 69.1243 136.48ZM87.7722 138.209C87.7947 137.462 87.2029 136.885 86.4503 136.921C85.5383 136.965 84.6222 136.987 83.7025 136.987C82.8241 136.987 81.9522 136.967 81.087 136.927C80.3399 136.892 79.6585 137.47 79.565 138.218C79.4716 138.966 80.0015 139.599 80.7486 139.634C81.6554 139.676 82.569 139.697 83.4893 139.697C84.4527 139.697 85.4127 139.674 86.3685 139.628C87.1212 139.592 87.7496 138.957 87.7722 138.209Z" fill="url(#paint11_linear_3945_12209)"/>
<path fill-rule="evenodd" clip-rule="evenodd" d="M91.7923 36.6175C113.379 36.6175 130.209 51.8202 132.894 72.0722L132.966 72.6154H137.483L137.591 71.2469H134.184C131.191 50.6466 113.956 35.249 91.9 35.249C76.0616 35.249 61.4589 43.1901 52.1768 55.2932L51.7763 55.8155L55.4989 59.0098L56.4444 57.9445L53.6516 55.548C62.6769 44.0938 76.6531 36.6175 91.7923 36.6175ZM134.947 94.4271H130.148L129.958 94.9039C123.204 111.884 106.898 124.466 88.3318 125.913L87.6954 125.962L87.3448 130.417H88.7175L88.9688 127.223C107.669 125.513 124.046 112.86 131.041 95.7956H134.839L134.947 94.4271ZM53.1298 104.484L48.3853 107.882L48.7379 108.424C55.4059 118.662 66.4537 125.716 79.6356 127.151L79.3786 130.417H80.7513L81.106 125.91L80.489 125.851C67.6714 124.633 56.8763 117.956 50.268 108.157L53.8757 105.572L53.1298 104.484Z" fill="url(#paint12_linear_3945_12209)"/>
<path fill-rule="evenodd" clip-rule="evenodd" d="M66.6856 41.7387C66.0577 42.1163 65.8399 42.9119 66.1887 43.4976V43.4976C66.5375 44.0834 67.3209 44.2374 67.9492 43.8608C68.9135 43.2828 69.8978 42.7376 70.9005 42.2267C71.5515 41.895 71.8719 41.1299 71.6072 40.4976V40.4976C71.3425 39.8653 70.5929 39.6052 69.9414 39.9359C68.8343 40.498 67.7483 41.0996 66.6856 41.7387ZM78.2512 36.5983C77.5585 36.8073 77.1435 37.5351 77.3191 38.2032V38.2032C77.4947 38.8713 78.1945 39.2267 78.8874 39.0187C79.9466 38.7008 81.0192 38.4196 82.1034 38.1766C82.806 38.0192 83.3105 37.3485 83.2271 36.6562V36.6562C83.1438 35.9639 82.5042 35.5123 81.8015 35.6687C80.6041 35.9351 79.42 36.2456 78.2512 36.5983Z" fill="url(#paint13_linear_3945_12209)"/>
<path fill-rule="evenodd" clip-rule="evenodd" d="M56.1582 95.7607C55.8733 95.1383 56.1918 94.3697 56.8498 94.0539V94.0539C57.5078 93.7381 58.256 93.9947 58.5419 94.6166C58.9808 95.5708 59.4569 96.5076 59.9698 97.4249C60.3028 98.0204 60.0887 98.814 59.4714 99.2099V99.2099C58.8541 99.6057 58.0674 99.4538 57.7334 98.8588C57.1658 97.8477 56.6405 96.8141 56.1582 95.7607Z" fill="url(#paint14_linear_3945_12209)"/>
<path fill-rule="evenodd" clip-rule="evenodd" d="M103.691 31.6292C102.953 31.4595 102.18 31.9515 101.971 32.705V32.705C101.762 33.4585 102.197 34.1882 102.935 34.3591C104.068 34.6215 105.181 34.9251 106.275 35.2681C106.993 35.4937 107.816 35.1062 108.12 34.3788V34.3788C108.425 33.6515 108.097 32.8598 107.379 32.633C106.173 32.2523 104.943 31.917 103.691 31.6292ZM115.838 36.2471C115.185 35.8882 114.325 36.1723 113.929 36.861V36.861C113.534 37.5496 113.753 38.3819 114.405 38.742C115.404 39.2934 116.377 39.8818 117.324 40.5055C117.944 40.9142 118.823 40.745 119.302 40.1068V40.1068C119.78 39.4685 119.678 38.6029 119.059 38.1931C118.016 37.5033 116.941 36.8539 115.838 36.2471Z" fill="url(#paint15_linear_3945_12209)"/>
<path fill-rule="evenodd" clip-rule="evenodd" d="M108.839 98.2988C109.148 97.9367 109.447 97.5684 109.737 97.1944C113.253 92.6631 115.419 87.2874 115.94 81.7492C116.462 76.2109 115.315 70.784 112.662 66.1573C112.443 65.7754 112.214 65.3989 111.975 65.0283L105.523 69.426C107.815 72.9743 108.83 77.2559 108.418 81.6328C108.005 86.0097 106.187 90.2475 103.234 93.7147L108.839 98.2988ZM105.146 93.4398C107.773 89.9619 109.391 85.8683 109.789 81.654C110.186 77.4397 109.343 73.3081 107.378 69.7592L111.485 66.9597C113.984 71.3464 115.064 76.4847 114.57 81.728C114.075 86.9712 112.032 92.0612 108.715 96.3579L105.146 93.4398Z" fill="url(#paint16_linear_3945_12209)"/>
<path fill-rule="evenodd" clip-rule="evenodd" d="M64.0743 98.2988C63.8228 97.9367 63.5814 97.5684 63.35 97.1944C60.5473 92.6631 59.2282 87.2874 59.578 81.7492C59.9278 76.2109 61.9292 70.784 65.3103 66.1573C65.5894 65.7754 65.8779 65.3989 66.1756 65.0283L71.9355 69.426C69.0849 72.9743 67.3955 77.2559 67.119 81.6328C66.8426 86.0097 67.9939 90.2475 70.4015 93.7147L64.0743 98.2988ZM68.5322 93.4398C66.4526 89.9619 65.4786 85.8683 65.7448 81.654C66.011 77.4397 67.5044 73.3081 70.0279 69.7592L66.3613 66.9597C63.1715 71.3464 61.2834 76.4847 60.9522 81.728C60.6211 86.9712 61.8631 92.0612 64.5045 96.3579L68.5322 93.4398Z" fill="url(#paint17_linear_3945_12209)"/>
<defs>
<linearGradient id="paint0_linear_3945_12209" x1="191.088" y1="-22.0028" x2="16.7613" y2="124.589" gradientUnits="userSpaceOnUse">
<stop stop-color="#D55FFF"/>
<stop offset="1" stop-color="#4230B1"/>
</linearGradient>
<linearGradient id="paint1_linear_3945_12209" x1="35.2182" y1="34.1731" x2="126.458" y2="164.989" gradientUnits="userSpaceOnUse">
<stop stop-color="#995C08"/>
<stop offset="1" stop-color="#683811"/>
</linearGradient>
<linearGradient id="paint2_linear_3945_12209" x1="251.097" y1="56.398" x2="-51.4653" y2="73.7261" gradientUnits="userSpaceOnUse">
<stop stop-color="#2F2450"/>
<stop offset="1" stop-color="#1E1024"/>
</linearGradient>
<linearGradient id="paint3_linear_3945_12209" x1="52.1988" y1="80.8402" x2="5.73139" y2="87.6049" gradientUnits="userSpaceOnUse">
<stop stop-color="#DC9327"/>
<stop offset="0.04" stop-color="#E8B744"/>
<stop offset="0.08" stop-color="#F2D35B"/>
<stop offset="0.12" stop-color="#F9E76B"/>
<stop offset="0.16" stop-color="#FEF375"/>
<stop offset="0.2" stop-color="#FFF778"/>
<stop offset="0.28" stop-color="#EAC34A"/>
<stop offset="0.34" stop-color="#D99A26"/>
<stop offset="0.36" stop-color="#CB8E24"/>
<stop offset="0.4" stop-color="#B77E21"/>
<stop offset="0.43" stop-color="#AB741F"/>
<stop offset="0.47" stop-color="#A7711E"/>
<stop offset="0.51" stop-color="#AB7622"/>
<stop offset="0.56" stop-color="#B8852E"/>
<stop offset="0.61" stop-color="#CD9E42"/>
<stop offset="0.66" stop-color="#EBC15E"/>
<stop offset="0.68" stop-color="#F6CE69"/>
<stop offset="0.72" stop-color="#F3C962"/>
<stop offset="0.78" stop-color="#EBBA4F"/>
<stop offset="0.85" stop-color="#DEA231"/>
<stop offset="0.87" stop-color="#D99A26"/>
<stop offset="1" stop-color="#F6CE69"/>
</linearGradient>
<linearGradient id="paint4_linear_3945_12209" x1="31.69" y1="49.9903" x2="133.14" y2="103.068" gradientUnits="userSpaceOnUse">
<stop stop-color="#421A92"/>
<stop offset="1" stop-color="#4324A2" stop-opacity="0"/>
</linearGradient>
<linearGradient id="paint5_linear_3945_12209" x1="26.3977" y1="50.4068" x2="193.114" y2="125.329" gradientUnits="userSpaceOnUse">
<stop stop-color="#805EDC"/>
<stop offset="0.732417" stop-color="#805EDC" stop-opacity="0"/>
</linearGradient>
<linearGradient id="paint6_linear_3945_12209" x1="63.3667" y1="-12.8341" x2="-15.6638" y2="110.41" gradientUnits="userSpaceOnUse">
<stop stop-color="#A55FFF"/>
<stop offset="1" stop-color="white"/>
</linearGradient>
<linearGradient id="paint7_linear_3945_12209" x1="50.6634" y1="64.8564" x2="28.2564" y2="72.5818" gradientUnits="userSpaceOnUse">
<stop stop-color="#A55FFF"/>
<stop offset="1" stop-color="white"/>
</linearGradient>
<linearGradient id="paint8_linear_3945_12209" x1="115.914" y1="-12.828" x2="27.8184" y2="85.4324" gradientUnits="userSpaceOnUse">
<stop stop-color="#A55FFF"/>
<stop offset="1" stop-color="white"/>
</linearGradient>
<linearGradient id="paint9_linear_3945_12209" x1="89.4235" y1="-33.0539" x2="20.0364" y2="147.496" gradientUnits="userSpaceOnUse">
<stop stop-color="#A55FFF"/>
<stop offset="1" stop-color="white"/>
</linearGradient>
<linearGradient id="paint10_linear_3945_12209" x1="92.7942" y1="-49.3471" x2="10.5787" y2="154.585" gradientUnits="userSpaceOnUse">
<stop stop-color="#A55FFF"/>
<stop offset="1" stop-color="white"/>
</linearGradient>
<linearGradient id="paint11_linear_3945_12209" x1="95.1946" y1="-51.1321" x2="9.46585" y2="153.568" gradientUnits="userSpaceOnUse">
<stop stop-color="#A55FFF"/>
<stop offset="1" stop-color="white"/>
</linearGradient>
<linearGradient id="paint12_linear_3945_12209" x1="97.3745" y1="-25.1062" x2="24.6634" y2="139.152" gradientUnits="userSpaceOnUse">
<stop stop-color="#A55FFF"/>
<stop offset="1" stop-color="white"/>
</linearGradient>
<linearGradient id="paint13_linear_3945_12209" x1="92.1722" y1="28.4374" x2="46.312" y2="56.5619" gradientUnits="userSpaceOnUse">
<stop stop-color="#A55FFF"/>
<stop offset="1" stop-color="white"/>
</linearGradient>
<linearGradient id="paint14_linear_3945_12209" x1="59.334" y1="109.112" x2="55.3892" y2="86.261" gradientUnits="userSpaceOnUse">
<stop offset="0.161458" stop-color="#A55FFF"/>
<stop offset="1" stop-color="white"/>
</linearGradient>
<linearGradient id="paint15_linear_3945_12209" x1="130.101" y1="23.793" x2="53.1676" y2="33.8249" gradientUnits="userSpaceOnUse">
<stop stop-color="#A55FFF"/>
<stop offset="1" stop-color="white"/>
</linearGradient>
<linearGradient id="paint16_linear_3945_12209" x1="112.457" y1="43.9282" x2="76.7688" y2="73.3901" gradientUnits="userSpaceOnUse">
<stop stop-color="#A55FFF"/>
<stop offset="1" stop-color="white"/>
</linearGradient>
<linearGradient id="paint17_linear_3945_12209" x1="69.0149" y1="43.9282" x2="99.536" y2="73.9287" gradientUnits="userSpaceOnUse">
<stop stop-color="#A55FFF"/>
<stop offset="1" stop-color="white"/>
</linearGradient>
</defs>
</svg>
