<svg width="168" height="261" viewBox="0 0 168 261" fill="none" xmlns="http://www.w3.org/2000/svg">
<path d="M60.8691 219.023C18.9845 173.713 24.7661 100.25 73.7828 54.9395C122.799 9.62895 196.489 9.62895 238.374 54.9395C280.259 100.25 274.477 173.713 225.46 219.023C176.444 264.334 102.754 264.334 60.8691 219.023Z" fill="#291D40"/>
<path d="M53.3366 212.106C11.5806 166.935 17.3445 93.6978 66.2106 48.5264C115.077 3.35501 188.54 3.35501 230.296 48.5264C272.052 93.6978 266.289 166.935 217.422 212.106C168.556 257.278 95.0926 257.278 53.3366 212.106Z" fill="url(#paint0_linear_3810_11836)"/>
<path d="M66.2165 48.5324C17.354 93.7004 11.5906 166.932 53.3435 212.1C95.0964 257.268 168.555 257.268 217.417 212.1C266.28 166.932 272.043 93.7004 230.29 48.5324C188.537 3.36431 115.079 3.36432 66.2165 48.5324Z" stroke="#F8E4FF" stroke-width="0.731834"/>
<path d="M36.8343 153.085C28.7037 96.2786 69.1071 40.0441 127.078 27.4816C185.048 14.9192 238.634 50.7859 246.765 107.592C254.895 164.399 214.492 220.633 156.521 233.196C98.5504 245.758 44.9648 209.891 36.8343 153.085Z" fill="url(#paint1_linear_3810_11836)"/>
<path d="M167.6 103.708H152.394L153.369 91.3242M174.902 121.957H150.958L150.131 132.462M152.482 103.604L149.567 106.085C151.327 107.869 152.298 110.236 152.093 112.832C151.889 115.429 150.545 117.795 148.505 119.58L151.03 122.061" stroke="#F7CE69" stroke-width="1.09775"/>
<path d="M121.646 103.709H136.852L137.826 91.3252M111.472 121.958H135.415L134.589 132.463M136.78 103.605L139.305 106.086C137.264 107.87 135.921 110.237 135.716 112.833C135.512 115.43 136.483 117.796 138.243 119.581L135.327 122.062" stroke="#F7CE69" stroke-width="1.09775"/>
<path d="M150.432 91.6123L149.625 101.857C146.915 104.14 142.942 104.14 140.59 101.857L141.397 91.6123" stroke="#F7CE69" stroke-width="1.09775"/>
<path d="M146.957 135.791L147.763 125.547C145.412 123.263 141.439 123.263 138.728 125.547L137.922 135.791" stroke="#F7CE69" stroke-width="1.09775"/>
<path d="M170.41 124.115H153.293L152.675 131.964" stroke="#F7CE69" stroke-width="1.09775"/>
<path d="M115.625 124.115H132.742L132.124 131.964" stroke="#F7CE69" stroke-width="1.09775"/>
<path d="M148.268 93.2559L147.742 99.9287C146.235 101.416 144.053 101.416 142.779 99.9287L143.304 93.2559" stroke="#F7CE69" stroke-width="1.09775"/>
<path d="M145.049 134.148L145.574 127.476C144.301 125.988 142.118 125.988 140.611 127.476L140.086 134.148" stroke="#F7CE69" stroke-width="1.09775"/>
<path d="M165.858 106.892H154.648C155.951 108.463 156.656 110.547 156.476 112.834C156.296 115.12 155.263 117.204 153.713 118.776H167.768" stroke="#F7CE69" stroke-width="1.09775"/>
<path d="M122.888 106.892H134.098C132.548 108.463 131.515 110.547 131.335 112.834C131.155 115.12 131.86 117.204 133.162 118.776H119.108" stroke="#F7CE69" stroke-width="1.09775"/>
<path d="M171.616 101.225H155.095L155.588 94.9609" stroke="#F7CE69" stroke-width="1.09775"/>
<path d="M118.021 101.225H134.542L135.035 94.9609" stroke="#F7CE69" stroke-width="1.09775"/>
<path d="M36.3648 153.193C28.2038 96.1737 68.7584 39.7287 126.946 27.1193C185.134 14.5098 238.92 50.5108 247.081 107.53C255.242 164.549 214.687 220.993 156.499 233.603C98.3119 246.212 44.5258 210.211 36.3648 153.193Z" fill="url(#paint2_linear_3810_11836)"/>
<path d="M53.8855 136.452L53.8867 136.437H52.951L53.8855 136.452Z" fill="url(#paint3_linear_3810_11836)"/>
<path d="M72.6448 55.4869C27.9373 96.8141 22.6639 163.819 60.8664 205.146C99.0689 246.473 166.281 246.473 210.988 205.146C255.696 163.819 260.969 96.8141 222.767 55.4869C184.564 14.1597 117.352 14.1597 72.6448 55.4869Z" stroke="url(#paint4_linear_3810_11836)" stroke-width="3.3963"/>
<path d="M71.9071 54.6888C26.7228 96.4568 21.3932 164.176 60.0031 205.944C98.613 247.712 166.542 247.712 211.726 205.944C256.91 164.176 262.24 96.4568 223.63 54.6888C185.02 12.9209 117.091 12.9209 71.9071 54.6888Z" stroke="url(#paint5_linear_3810_11836)" stroke-width="1.1321"/>
<path fill-rule="evenodd" clip-rule="evenodd" d="M150.067 88.2861H140.287L139.64 96.5062C129.915 98.7503 122.14 107.275 121.339 117.448C120.404 129.333 129.342 138.967 141.302 138.967C153.263 138.967 163.717 129.333 164.652 117.448C165.459 107.194 158.917 98.6154 149.425 96.4541L150.067 88.2861ZM130.704 117.448C130.173 124.194 135.246 129.662 142.034 129.662C148.823 129.662 154.756 124.194 155.287 117.448C155.818 110.703 150.745 105.235 143.957 105.235C137.169 105.235 131.235 110.703 130.704 117.448ZM130.8 152.402C133.052 154.829 136.257 156.192 139.71 156.192C143.164 156.192 146.583 154.829 149.216 152.402C151.85 149.976 153.481 146.684 153.751 143.253H162.432C161.982 148.972 159.264 154.458 154.875 158.502C151.784 161.351 148.043 163.32 144.09 164.236L143.438 172.516H133.657L134.305 164.292C130.4 163.402 126.88 161.41 124.182 158.502C120.43 154.458 118.575 148.972 119.025 143.253H127.707C127.436 146.684 128.549 149.976 130.8 152.402Z" fill="#C79FD5"/>
<path d="M159.997 141.168L162.432 143.253L162.075 143.672L158.72 143.642L159.997 141.168Z" fill="#C79FD4"/>
<path d="M147.626 86.2122L150.064 88.2879L149.79 88.8063C149.443 88.7596 148.745 88.6659 148.723 88.664C148.702 88.6621 146.388 88.6677 146.274 88.4992L147.626 86.2122Z" fill="#C79FD4"/>
<path d="M125.277 141.167L127.703 143.252L126.708 143.961L123.555 143.579L125.277 141.167Z" fill="#C79FD4"/>
<path d="M131.228 170.436L133.653 172.513L134.311 172.14L134.241 169.316L131.228 170.436Z" fill="#C79FD4"/>
<path fill-rule="evenodd" clip-rule="evenodd" d="M147.634 86.207H137.853L137.206 94.4271C127.482 96.6712 119.706 105.196 118.905 115.369C117.97 127.254 126.908 136.888 138.868 136.888C150.829 136.888 161.283 127.254 162.219 115.369C163.026 105.115 156.483 96.5363 146.991 94.375L147.634 86.207ZM128.27 115.369C127.74 122.115 132.812 127.583 139.601 127.583C146.389 127.583 152.323 122.115 152.854 115.369C153.384 108.624 148.312 103.155 141.523 103.155C134.735 103.155 128.801 108.624 128.27 115.369ZM128.367 150.323C130.618 152.75 133.823 154.113 137.277 154.113C140.73 154.113 144.15 152.75 146.783 150.323C149.416 147.897 151.047 144.605 151.317 141.174H159.998C159.548 146.893 156.83 152.379 152.441 156.423C149.351 159.272 145.609 161.241 141.656 162.156L141.004 170.437H131.224L131.871 162.213C127.966 161.323 124.446 159.331 121.748 156.423C117.996 152.379 116.141 146.893 116.592 141.174H125.273C125.003 144.605 126.116 147.897 128.367 150.323Z" fill="#F6DEFF"/>
<path d="M51.3988 139.642L89.5393 139.464C91.7331 162.109 108.96 179.735 131.929 182.29L130.883 195.581C102.965 193.116 81.5078 173.189 76.9004 146.597L51.6081 146.686M52.81 121.712L90.9163 121.534C96.615 98.7676 116.704 81.0326 140.179 78.502L141.225 65.2139C138.66 65.434 136.125 65.7974 133.63 66.2962C108.472 71.3254 87.3139 90.1123 79.3703 114.439L53.5227 114.617" stroke="url(#paint6_linear_3810_11836)" stroke-width="2.1955"/>
<path fill-rule="evenodd" clip-rule="evenodd" d="M68.316 114.439C68.4112 113.23 67.5053 112.25 66.2928 112.25H62.8241C61.6116 112.25 60.5515 113.23 60.4564 114.439C60.3612 115.648 61.2671 116.627 62.4796 116.627H65.9483C67.1608 116.627 68.2209 115.648 68.316 114.439Z" fill="url(#paint7_linear_3810_11836)"/>
<path d="M152.789 65.2217C186.08 68.1599 210.162 96.2199 207.472 130.401C204.782 164.583 176.283 192.643 142.53 195.581L143.576 182.291C169.985 179.403 192.091 157.273 194.206 130.401C196.321 103.53 177.699 81.3997 151.743 78.5117L152.789 65.2217Z" stroke="url(#paint8_linear_3810_11836)" stroke-width="2.1955"/>
<path d="M52.5976 153.67H63.6842C71.1014 186.247 99.6298 209.943 135.575 209.943C177.075 209.943 213.662 178.356 220.668 137.983H206.269M55.17 107.455H67.2237C79.6799 74.7124 112.032 50.8604 148.095 50.8604C189.648 50.8604 221.289 82.527 221.864 122.974H208.645" stroke="url(#paint9_linear_3810_11836)" stroke-width="2.1955"/>
<path d="M134.673 221.431C185.103 221.431 229.191 180.675 233.148 130.401C237.105 80.127 199.431 39.3717 149.001 39.3717C106.626 39.3717 68.7259 68.1487 55.3544 107.171C50.9234 121.505 49.5569 136.377 51.3464 150.793L51.7005 153.646C58.9352 192.66 92.3032 221.431 134.673 221.431Z" stroke="url(#paint10_linear_3810_11836)" stroke-width="2.1955"/>
<path fill-rule="evenodd" clip-rule="evenodd" d="M148.859 41.3528C150.33 41.3528 151.79 41.3883 153.237 41.4583C154.432 41.5161 155.524 40.5938 155.676 39.3983C155.828 38.2028 154.983 37.1868 153.788 37.1291C152.271 37.0557 150.741 37.0186 149.2 37.0186C147.728 37.0186 146.262 37.0524 144.801 37.1194C143.597 37.1746 142.59 38.1886 142.551 39.3842C142.513 40.5798 143.457 41.5043 144.661 41.4491C146.054 41.3852 147.454 41.3528 148.859 41.3528ZM138.301 39.7748C138.227 38.5896 137.193 37.7636 135.991 37.93C133.037 38.339 130.115 38.8824 127.232 39.5539C126.042 39.831 125.229 40.9996 125.415 42.1639C125.601 43.3283 126.717 44.0475 127.907 43.7704C130.655 43.1303 133.441 42.6122 136.258 42.2222C137.46 42.0558 138.375 40.9601 138.301 39.7748ZM160.257 39.846C159.989 41.0302 160.724 42.1313 161.898 42.3055C164.779 42.7329 167.603 43.3007 170.364 44.0016C171.506 44.2916 172.742 43.5853 173.124 42.4241C173.506 41.2629 172.89 40.0864 171.748 39.7965C168.852 39.0611 165.89 38.4656 162.868 38.0173C161.694 37.8432 160.525 38.6619 160.257 39.846ZM121.254 43.3344C120.956 42.2014 119.769 41.5956 118.602 41.9814C115.742 42.9268 112.932 43.9993 110.178 45.192C109.044 45.6828 108.455 46.9657 108.861 48.0573C109.268 49.1489 110.516 49.6358 111.65 49.1449C114.275 48.008 116.954 46.9856 119.68 46.0844C120.847 45.6986 121.552 44.4674 121.254 43.3344ZM177.457 43.7646C176.963 44.8915 177.454 46.1319 178.553 46.5352C181.239 47.5214 183.853 48.6396 186.386 49.8823C187.431 50.3947 188.763 49.9334 189.362 48.8517C189.962 47.7701 189.6 46.4779 188.556 45.9654C185.899 44.6619 183.157 43.4889 180.339 42.4544C179.24 42.0511 177.95 42.6377 177.457 43.7646ZM104.933 49.9692C104.421 48.9286 103.123 48.5644 102.033 49.1557C99.3668 50.6014 96.7668 52.1631 94.2404 53.8335C93.2027 54.5196 92.8568 55.8708 93.4678 56.8515C94.0789 57.8322 95.4155 58.071 96.4532 57.3849C98.8627 55.7918 101.342 54.3026 103.884 52.9241C104.974 52.3328 105.444 51.0098 104.933 49.9692ZM193.278 51.0346C192.58 52.0607 192.808 53.392 193.789 54.0083C196.182 55.512 198.485 57.1353 200.691 58.8704C201.599 59.5842 202.976 59.3839 203.768 58.4231C204.559 57.4623 204.465 56.1048 203.558 55.3911C201.244 53.5719 198.829 51.8696 196.32 50.2927C195.339 49.6765 193.977 50.0086 193.278 51.0346ZM89.9114 59.4312C89.2062 58.5188 87.8432 58.4071 86.867 59.1816C84.4848 61.0718 82.1847 63.0645 79.9745 65.1524C79.0682 66.0086 78.9763 67.3807 79.7693 68.217C80.5623 69.0534 81.9399 69.0373 82.8462 68.1811C84.9545 66.1895 87.1485 64.2887 89.4207 62.4858C90.3969 61.7112 90.6166 60.3436 89.9114 59.4312ZM207.12 61.3581C206.244 62.2447 206.203 63.6153 207.029 64.4193C209.041 66.3777 210.948 68.4407 212.743 70.6003C213.479 71.4869 214.849 71.5538 215.802 70.7497C216.754 69.9457 216.929 68.5752 216.192 67.6886C214.311 65.4246 212.312 63.2618 210.202 61.2087C209.376 60.4046 207.996 60.4715 207.12 61.3581ZM76.7054 71.3721C75.8314 70.6191 74.4513 70.7629 73.6228 71.6932C71.6042 73.9598 69.683 76.3141 67.867 78.7488C67.1236 79.7454 67.2891 81.0906 68.2366 81.7535C69.1841 82.4163 70.5548 82.1458 71.2981 81.1492C73.03 78.8273 74.8623 76.5819 76.7876 74.42C77.6162 73.4897 77.5793 72.1251 76.7054 71.3721ZM218.465 74.322C217.445 75.0357 217.137 76.3932 217.777 77.354C219.334 79.6897 220.771 82.1133 222.083 84.6167C222.62 85.6427 223.93 85.9749 225.007 85.3586C226.085 84.7423 226.523 83.411 225.985 82.385C224.61 79.7596 223.103 77.2184 221.471 74.7693C220.83 73.8085 219.485 73.6083 218.465 74.322ZM65.7737 85.3748C64.7607 84.8083 63.4116 85.2036 62.7603 86.2579C61.1765 88.8216 59.7037 91.4571 58.3495 94.1575C57.7963 95.2604 58.2151 96.5313 59.2849 96.9962C60.3546 97.4611 61.6702 96.9439 62.2233 95.841C63.5143 93.2667 64.9185 90.754 66.4285 88.3097C67.0798 87.2554 66.7866 85.9414 65.7737 85.3748ZM226.876 89.434C225.751 89.9464 225.186 91.2387 225.615 92.3203C226.655 94.9431 227.565 97.6362 228.337 100.392C228.653 101.519 229.851 102.105 231.013 101.702C232.176 101.299 232.862 100.058 232.546 98.9316C231.736 96.0406 230.781 93.2155 229.69 90.4645C229.261 89.3829 228.001 88.9215 226.876 89.434ZM232.01 106.127C230.822 106.417 230.021 107.593 230.221 108.754C230.703 111.561 231.047 114.421 231.247 117.327C231.329 118.511 232.369 119.33 233.571 119.156C234.772 118.982 235.68 117.88 235.598 116.696C235.389 113.649 235.027 110.649 234.522 107.704C234.322 106.543 233.198 105.837 232.01 106.127ZM233.657 123.759C232.454 123.816 231.449 124.832 231.412 126.028C231.369 127.476 231.289 128.934 231.174 130.401C231.059 131.867 230.908 133.325 230.724 134.774C230.572 135.969 231.417 136.985 232.612 137.043C233.807 137.101 234.898 136.178 235.05 134.983C235.243 133.465 235.401 131.937 235.522 130.401C235.643 128.865 235.726 127.337 235.772 125.819C235.808 124.623 234.861 123.701 233.657 123.759ZM231.801 141.646C230.626 141.472 229.457 142.29 229.19 143.474C228.532 146.38 227.738 149.24 226.814 152.047C226.431 153.208 227.047 154.385 228.189 154.675C229.331 154.965 230.567 154.258 230.949 153.097C231.918 150.152 232.752 147.153 233.441 144.105C233.709 142.921 232.975 141.82 231.801 141.646ZM226.496 159.099C225.398 158.696 224.107 159.283 223.614 160.41C222.408 163.165 221.074 165.858 219.621 168.481C219.022 169.563 219.383 170.855 220.428 171.367C221.472 171.88 222.805 171.419 223.404 170.337C224.928 167.586 226.327 164.761 227.592 161.87C228.086 160.743 227.595 159.503 226.496 159.099ZM54.0269 163.805C52.884 164.27 52.2651 165.541 52.6446 166.644C53.5739 169.344 54.6318 171.98 55.812 174.544C56.2974 175.598 57.5843 175.993 58.6864 175.427C59.7886 174.86 60.2886 173.546 59.8032 172.492C58.6779 170.047 57.6693 167.535 56.7835 164.96C56.404 163.858 55.1698 163.34 54.0269 163.805ZM217.917 175.443C216.937 174.827 215.575 175.159 214.876 176.185C213.171 178.688 211.352 181.112 209.427 183.448C208.636 184.408 208.73 185.766 209.638 186.479C210.545 187.193 211.923 186.993 212.714 186.032C214.732 183.583 216.639 181.042 218.428 178.417C219.127 177.39 218.898 176.059 217.917 175.443ZM60.5794 179.048C59.5275 179.711 59.1503 181.056 59.7368 182.053C61.1696 184.487 62.7202 186.842 64.382 189.108C65.0641 190.039 66.4216 190.182 67.4141 189.429C68.4065 188.676 68.6582 187.312 67.9761 186.381C66.3911 184.219 64.9122 181.974 63.5457 179.652C62.9593 178.656 61.6312 178.385 60.5794 179.048ZM206.412 190.052C205.586 189.248 204.206 189.315 203.33 190.201C201.195 192.361 198.964 194.424 196.643 196.382C195.691 197.186 195.516 198.557 196.253 199.443C196.989 200.33 198.359 200.397 199.311 199.593C201.744 197.54 204.084 195.377 206.321 193.113C207.198 192.226 207.238 190.856 206.412 190.052ZM69.9814 192.584C69.0567 193.421 68.9326 194.793 69.7042 195.649C71.5857 197.737 73.5722 199.73 75.6568 201.62C76.5111 202.394 77.8917 202.283 78.7405 201.37C79.5893 200.458 79.5849 199.09 78.7306 198.316C76.7422 196.513 74.8474 194.612 73.0526 192.62C72.2811 191.764 70.906 191.748 69.9814 192.584ZM192.438 202.378C191.798 201.418 190.452 201.217 189.432 201.931C186.953 203.666 184.394 205.289 181.764 206.793C180.687 207.409 180.249 208.741 180.786 209.767C181.323 210.793 182.633 211.125 183.71 210.509C186.468 208.932 189.151 207.23 191.751 205.41C192.771 204.697 193.079 203.339 192.438 202.378ZM81.8909 203.95C81.1255 204.931 81.2587 206.282 82.1884 206.968C84.4519 208.638 86.8061 210.2 89.2443 211.646C90.2416 212.237 91.5973 211.873 92.2724 210.832C92.9474 209.792 92.6862 208.469 91.6889 207.877C89.364 206.499 87.119 205.01 84.9603 203.417C84.0306 202.73 82.6564 202.969 81.8909 203.95ZM176.526 211.95C176.097 210.868 174.837 210.407 173.712 210.919C170.983 212.162 168.194 213.28 165.352 214.266C164.19 214.67 163.504 215.91 163.82 217.037C164.136 218.164 165.334 218.75 166.496 218.347C169.477 217.313 172.403 216.14 175.265 214.836C176.391 214.324 176.955 213.031 176.526 211.95ZM95.8999 212.744C95.3216 213.836 95.7091 215.119 96.7654 215.609C99.3317 216.802 101.974 217.875 104.684 218.82C105.79 219.206 107.073 218.6 107.549 217.467C108.025 216.334 107.515 215.103 106.409 214.717C103.825 213.816 101.306 212.793 98.8597 211.657C97.8033 211.166 96.4782 211.653 95.8999 212.744ZM159.276 218.377C159.076 217.216 157.952 216.51 156.764 216.8C153.894 217.501 150.98 218.069 148.032 218.496C146.83 218.67 145.922 219.771 146.004 220.955C146.085 222.14 147.125 222.958 148.327 222.784C151.419 222.336 154.475 221.74 157.487 221.005C158.674 220.715 159.475 219.539 159.276 218.377ZM111.526 218.638C111.157 219.802 111.786 220.97 112.932 221.248C115.709 221.919 118.546 222.462 121.436 222.871C122.612 223.038 123.776 222.212 124.036 221.027C124.296 219.841 123.554 218.746 122.378 218.579C119.622 218.189 116.918 217.671 114.271 217.031C113.125 216.754 111.896 217.473 111.526 218.638ZM141.352 221.403C141.388 220.208 140.441 219.285 139.237 219.343C137.779 219.413 136.314 219.449 134.843 219.449C133.438 219.449 132.043 219.416 130.659 219.352C129.464 219.297 128.375 220.222 128.225 221.417C128.076 222.613 128.923 223.627 130.118 223.682C131.568 223.749 133.03 223.783 134.502 223.783C136.042 223.783 137.578 223.746 139.107 223.672C140.31 223.615 141.315 222.599 141.352 221.403Z" fill="url(#paint11_linear_3810_11836)"/>
<path d="M141.768 208.941L142.249 202.828C172.402 200.478 198.879 180.048 209.846 152.474H216.719M129.027 208.941L129.516 202.728C108.32 200.713 90.5329 189.508 79.8614 173.122L86.5439 168.335M220.947 115.4H214.614C210.254 82.513 182.925 57.8252 147.87 57.8252C122.915 57.8252 99.9071 70.3356 85.2798 89.4085L90.4927 93.8816" stroke="url(#paint12_linear_3810_11836)" stroke-width="2.1955"/>
<path fill-rule="evenodd" clip-rule="evenodd" d="M107.627 67.1102C106.623 67.7141 106.275 68.9866 106.833 69.9235C107.391 70.8603 108.643 71.1067 109.648 70.5043C111.191 69.5799 112.765 68.7078 114.369 67.8907C115.41 67.3602 115.922 66.1365 115.499 65.1252C115.076 64.1139 113.877 63.698 112.835 64.2269C111.064 65.1259 109.327 66.088 107.627 67.1102ZM126.125 58.8888C125.017 59.2231 124.354 60.3871 124.634 61.4557C124.915 62.5242 126.035 63.0925 127.143 62.76C128.837 62.2515 130.552 61.8018 132.287 61.4131C133.41 61.1613 134.217 60.0886 134.084 58.9814C133.95 57.8741 132.927 57.1519 131.804 57.4019C129.888 57.8281 127.995 58.3247 126.125 58.8888Z" fill="url(#paint13_linear_3810_11836)"/>
<path fill-rule="evenodd" clip-rule="evenodd" d="M90.7903 153.512C90.3345 152.517 90.844 151.287 91.8964 150.782C92.9488 150.277 94.1454 150.688 94.6028 151.682C95.3047 153.208 96.0661 154.707 96.8864 156.174C97.4191 157.126 97.0767 158.395 96.0894 159.029C95.102 159.662 93.8439 159.419 93.3097 158.467C92.4018 156.85 91.5617 155.197 90.7903 153.512Z" fill="url(#paint14_linear_3810_11836)"/>
<path fill-rule="evenodd" clip-rule="evenodd" d="M166.812 50.9411C165.631 50.6697 164.395 51.4565 164.061 52.6617C163.727 53.8668 164.422 55.0338 165.602 55.3072C167.413 55.7269 169.195 56.2124 170.943 56.7611C172.093 57.1219 173.408 56.5021 173.895 55.3388C174.383 54.1754 173.858 52.9092 172.71 52.5465C170.78 51.9375 168.814 51.4014 166.812 50.9411ZM186.238 58.3269C185.194 57.7528 183.819 58.2072 183.186 59.3087C182.554 60.4101 182.904 61.7412 183.947 62.3171C185.544 63.1991 187.101 64.1402 188.615 65.1377C189.607 65.7914 191.012 65.5208 191.778 64.4999C192.544 63.4791 192.38 62.0947 191.39 61.4393C189.722 60.336 188.004 59.2974 186.238 58.3269Z" fill="url(#paint15_linear_3810_11836)"/>
<path d="M167.622 150.029L174.957 156.028C180.839 148.786 184.46 140.073 185.307 131.085C186.154 122.097 184.184 113.297 179.682 105.894L171.239 111.649C174.635 117.333 176.116 124.061 175.468 130.932C174.821 137.803 172.077 144.467 167.622 150.029Z" stroke="url(#paint16_linear_3810_11836)" stroke-width="2.1955"/>
<path d="M112.058 150.029L103.779 156.028C99.0372 148.786 96.7874 140.073 97.3551 131.085C97.9227 122.097 101.279 113.297 106.946 105.894L114.482 111.649C110.192 117.333 107.652 124.061 107.218 130.932C106.784 137.803 108.478 144.467 112.058 150.029Z" stroke="url(#paint17_linear_3810_11836)" stroke-width="2.1955"/>
<defs>
<linearGradient id="paint0_linear_3810_11836" x1="306.596" y1="-34.8376" x2="27.7796" y2="199.62" gradientUnits="userSpaceOnUse">
<stop stop-color="#D55FFF"/>
<stop offset="1" stop-color="#4230B1"/>
</linearGradient>
<linearGradient id="paint1_linear_3810_11836" x1="57.2977" y1="55.0104" x2="203.226" y2="264.236" gradientUnits="userSpaceOnUse">
<stop stop-color="#995C08"/>
<stop offset="1" stop-color="#683811"/>
</linearGradient>
<linearGradient id="paint2_linear_3810_11836" x1="402.572" y1="90.5558" x2="-81.3436" y2="118.27" gradientUnits="userSpaceOnUse">
<stop stop-color="#2F2450"/>
<stop offset="1" stop-color="#1E1024"/>
</linearGradient>
<linearGradient id="paint3_linear_3810_11836" x1="84.4556" y1="129.649" x2="10.1361" y2="140.468" gradientUnits="userSpaceOnUse">
<stop stop-color="#DC9327"/>
<stop offset="0.04" stop-color="#E8B744"/>
<stop offset="0.08" stop-color="#F2D35B"/>
<stop offset="0.12" stop-color="#F9E76B"/>
<stop offset="0.16" stop-color="#FEF375"/>
<stop offset="0.2" stop-color="#FFF778"/>
<stop offset="0.28" stop-color="#EAC34A"/>
<stop offset="0.34" stop-color="#D99A26"/>
<stop offset="0.36" stop-color="#CB8E24"/>
<stop offset="0.4" stop-color="#B77E21"/>
<stop offset="0.43" stop-color="#AB741F"/>
<stop offset="0.47" stop-color="#A7711E"/>
<stop offset="0.51" stop-color="#AB7622"/>
<stop offset="0.56" stop-color="#B8852E"/>
<stop offset="0.61" stop-color="#CD9E42"/>
<stop offset="0.66" stop-color="#EBC15E"/>
<stop offset="0.68" stop-color="#F6CE69"/>
<stop offset="0.72" stop-color="#F3C962"/>
<stop offset="0.78" stop-color="#EBBA4F"/>
<stop offset="0.85" stop-color="#DEA231"/>
<stop offset="0.87" stop-color="#D99A26"/>
<stop offset="1" stop-color="#F6CE69"/>
</linearGradient>
<linearGradient id="paint4_linear_3810_11836" x1="51.6552" y1="80.3074" x2="213.914" y2="165.199" gradientUnits="userSpaceOnUse">
<stop stop-color="#421A92"/>
<stop offset="1" stop-color="#4324A2" stop-opacity="0"/>
</linearGradient>
<linearGradient id="paint5_linear_3810_11836" x1="43.1906" y1="80.9736" x2="309.835" y2="200.803" gradientUnits="userSpaceOnUse">
<stop stop-color="#805EDC"/>
<stop offset="0.732417" stop-color="#805EDC" stop-opacity="0"/>
</linearGradient>
<linearGradient id="paint6_linear_3810_11836" x1="101.613" y1="-17.4646" x2="-22.2029" y2="176.659" gradientUnits="userSpaceOnUse">
<stop stop-color="#A55FFF"/>
<stop offset="1" stop-color="white"/>
</linearGradient>
<linearGradient id="paint7_linear_3810_11836" x1="82.0039" y1="104.084" x2="46.1664" y2="116.44" gradientUnits="userSpaceOnUse">
<stop stop-color="#A55FFF"/>
<stop offset="1" stop-color="white"/>
</linearGradient>
<linearGradient id="paint8_linear_3810_11836" x1="186.257" y1="-17.4524" x2="47.4547" y2="134.429" gradientUnits="userSpaceOnUse">
<stop stop-color="#A55FFF"/>
<stop offset="1" stop-color="white"/>
</linearGradient>
<linearGradient id="paint9_linear_3810_11836" x1="143.254" y1="-50.0301" x2="34.3505" y2="235.254" gradientUnits="userSpaceOnUse">
<stop stop-color="#A55FFF"/>
<stop offset="1" stop-color="white"/>
</linearGradient>
<linearGradient id="paint10_linear_3810_11836" x1="148.064" y1="-78.5724" x2="17.8892" y2="248.669" gradientUnits="userSpaceOnUse">
<stop stop-color="#A55FFF"/>
<stop offset="1" stop-color="white"/>
</linearGradient>
<linearGradient id="paint11_linear_3810_11836" x1="153.223" y1="-81.4274" x2="16.1092" y2="245.967" gradientUnits="userSpaceOnUse">
<stop stop-color="#A55FFF"/>
<stop offset="1" stop-color="white"/>
</linearGradient>
<linearGradient id="paint12_linear_3810_11836" x1="157.384" y1="-38.0124" x2="41.6339" y2="222.535" gradientUnits="userSpaceOnUse">
<stop stop-color="#A55FFF"/>
<stop offset="1" stop-color="white"/>
</linearGradient>
<linearGradient id="paint13_linear_3810_11836" x1="148.392" y1="45.837" x2="75.0438" y2="90.8189" gradientUnits="userSpaceOnUse">
<stop stop-color="#A55FFF"/>
<stop offset="1" stop-color="white"/>
</linearGradient>
<linearGradient id="paint14_linear_3810_11836" x1="95.8696" y1="174.865" x2="89.5603" y2="138.317" gradientUnits="userSpaceOnUse">
<stop offset="0.161458" stop-color="#A55FFF"/>
<stop offset="1" stop-color="white"/>
</linearGradient>
<linearGradient id="paint15_linear_3810_11836" x1="209.05" y1="38.4075" x2="86.0043" y2="54.4526" gradientUnits="userSpaceOnUse">
<stop stop-color="#A55FFF"/>
<stop offset="1" stop-color="white"/>
</linearGradient>
<linearGradient id="paint16_linear_3810_11836" x1="180.832" y1="70.611" x2="123.753" y2="117.732" gradientUnits="userSpaceOnUse">
<stop stop-color="#A55FFF"/>
<stop offset="1" stop-color="white"/>
</linearGradient>
<linearGradient id="paint17_linear_3810_11836" x1="111.349" y1="70.611" x2="160.164" y2="118.594" gradientUnits="userSpaceOnUse">
<stop stop-color="#A55FFF"/>
<stop offset="1" stop-color="white"/>
</linearGradient>
</defs>
</svg>
