<svg width="128" height="179" viewBox="0 0 128 179" fill="none" xmlns="http://www.w3.org/2000/svg">
<g opacity="0.5">
<mask id="mask0_3757_12495" style="mask-type:alpha" maskUnits="userSpaceOnUse" x="1" y="0" width="126" height="81">
<path d="M115.548 80.5847C115.548 80.5847 124.472 72.0487 126.183 67.6211C128.199 56.2195 126.022 45.7064 120.985 36.5618C115.339 26.3111 106.098 17.7799 95.1392 11.6443C87.4316 7.32909 78.8741 4.19883 70.119 2.48875C57.6065 0.0447297 44.6905 0.501472 33.2761 4.54554C18.8187 9.66773 6.77005 20.5449 1.00075 38.5721C6.77126 45.1779 32.9049 62.1206 32.9049 62.1206C45.0997 69.2332 73.429 78.3893 73.429 78.3893C87.3571 80.5847 103.409 80.5847 103.409 80.5847H115.548Z" fill="#200E36"/>
</mask>
<g mask="url(#mask0_3757_12495)">
<path d="M115.548 80.5847C115.548 80.5847 124.472 72.0487 126.183 67.6211C128.199 56.2195 126.022 45.7064 120.985 36.5618C115.339 26.3111 106.098 17.7799 95.1392 11.6443C87.4316 7.32909 78.8741 4.19883 70.119 2.48875C57.6065 0.0447297 44.6905 0.501472 33.2761 4.54554C18.8187 9.66773 6.77005 20.5449 1.00075 38.5721C6.77126 45.1779 32.9049 62.1206 32.9049 62.1206C45.0997 69.2332 73.429 78.3893 73.429 78.3893C87.3571 80.5847 103.409 80.5847 103.409 80.5847H115.548Z" fill="#581BA3"/>
<path d="M114.702 83.406C114.702 83.406 123.627 74.87 125.338 70.4424C127.353 59.0408 125.176 48.5277 120.139 39.3831C114.493 29.1324 105.252 20.6012 94.2935 14.4656C86.5859 10.1504 78.0284 7.02012 69.2733 5.31003C56.7607 2.86602 43.8448 3.32276 32.4304 7.36683C17.973 12.489 5.92435 23.3662 0.155045 41.3934C5.92556 47.9992 32.0592 64.9419 32.0592 64.9419C44.254 72.0545 72.5832 81.2106 72.5832 81.2106C86.5114 83.406 102.563 83.406 102.563 83.406H114.702Z" fill="#200E36"/>
<g style="mix-blend-mode:multiply" opacity="0.4">
<path d="M121.86 64.311C123.114 65.2572 125.791 67.2488 126.473 67.6461V86.7594C126.473 90.1187 68.2609 98.7147 66.2848 99.3075C64.3088 99.9004 9.86762 72.2352 0.850647 61.8607C-8.16634 51.4863 -6.84375 41.3428 0.850647 38.3026C7.00616 35.8705 11.5199 28.8459 13.0073 25.6377C18.6368 25.8033 29.9952 26.1628 30.3925 26.2763C30.7899 26.3898 44.0405 25.8979 50.6162 25.6377C55.0441 29.1573 82.8321 38.7417 96.1727 43.0939L121.86 64.311Z" fill="url(#paint0_linear_3757_12495)"/>
</g>
</g>
<mask id="mask1_3757_12495" style="mask-type:alpha" maskUnits="userSpaceOnUse" x="7" y="129" width="43" height="49">
<path d="M49.2226 139.123L18.9613 129.648L7.42966 159.396L8.99899 167.594L39.8974 177.634L49.2227 149.898L49.2226 139.123Z" fill="url(#paint1_linear_3757_12495)"/>
</mask>
<g mask="url(#mask1_3757_12495)">
<path d="M49.2226 139.123L18.9613 129.648L7.42966 159.396L8.99899 167.594L39.8974 177.634L49.2227 149.898L49.2226 139.123Z" fill="url(#paint2_linear_3757_12495)"/>
<path d="M50.3613 141.611L20.1 132.136L7.98007 160.117L9.5494 168.315L41.0361 180.121L50.3613 152.386L50.3613 141.611Z" fill="url(#paint3_linear_3757_12495)"/>
<g opacity="0.6">
<path d="M26.7285 158.27L24.5739 157.865L23.9149 159.946L26.0695 160.351L26.7285 158.27Z" fill="white"/>
<path d="M31.5039 143.192L29.3493 142.788L28.626 145.072L30.7806 145.477L31.5039 143.192Z" fill="white"/>
<path fill-rule="evenodd" clip-rule="evenodd" d="M26.019 156.819C25.2582 156.676 24.6165 156.262 24.235 155.666C23.8535 155.071 23.7636 154.344 23.985 153.645L22.0725 153.286C21.7036 154.451 21.8535 155.663 22.4892 156.655C23.125 157.647 24.1946 158.338 25.4626 158.576C26.7307 158.814 28.0933 158.579 29.2508 157.924C30.4083 157.268 31.2659 156.245 31.6348 155.08L29.7223 154.721C29.501 155.42 28.9864 156.034 28.2919 156.427C27.5974 156.821 26.7799 156.962 26.019 156.819Z" fill="white"/>
<path fill-rule="evenodd" clip-rule="evenodd" d="M27.782 151.422C26.2865 151.142 25.4269 149.801 25.862 148.427C26.2971 147.053 27.8621 146.166 29.3575 146.447C30.853 146.727 31.7126 148.069 31.2775 149.443C30.8424 150.817 29.2774 151.703 27.782 151.422ZM27.1818 153.318C24.5469 152.824 23.0324 150.461 23.7989 148.04C24.5655 145.619 27.3229 144.057 29.9577 144.551C32.5926 145.046 34.1071 147.409 33.3405 149.83C32.574 152.25 29.8166 153.812 27.1818 153.318Z" fill="white"/>
</g>
<g style="mix-blend-mode:multiply" opacity="0.6">
<path d="M38.8901 169.521L49.1249 139.774C49.8431 140.493 51.3395 141.977 51.5789 142.168C51.8781 142.408 49.1249 158.209 48.8256 160.783C48.5862 162.842 43.1795 175.008 40.5061 180.833C29.174 178.02 6.46191 172.358 6.27039 172.215C6.07886 172.071 5.51225 163.097 5.25289 158.628L38.8901 169.521Z" fill="#9C8EFE"/>
</g>
</g>
<path d="M49.2226 139.123L18.9613 129.648L7.42966 159.396M49.2226 139.123L39.0866 169.458M49.2226 139.123L49.2227 149.898L39.8974 177.634M39.0866 169.458L7.42966 159.396M39.0866 169.458L39.8974 177.634M7.42966 159.396L8.99899 167.594L39.8974 177.634" stroke="#6E33E5"/>
<path d="M16.93 135.639L47.1914 145.114L47.1914 155.889" stroke="#6E33E5"/>
<path d="M30.7696 133.316L1.00075 38.5721M1.00075 38.5721C1.00075 38.5721 8.10081 35.5091 12.8105 25.5993M1.00075 38.5721C6.77126 45.1779 32.9049 62.1206 32.9049 62.1206M1.00075 38.5721C6.77005 20.5449 18.8187 9.66773 33.2761 4.54554M33.0328 134.309L50.3966 25.5993M50.3966 25.5993C59.208 30.9876 96.7001 43.4826 96.7001 43.4826M50.3966 25.5993C35.506 27.2207 12.8105 25.5993 12.8105 25.5993M50.3966 25.5993C50.3966 25.5993 52.0619 3.28074 70.119 2.48875M35.7042 134.976L73.429 78.3893M96.7001 43.4826C96.7001 43.4826 111.825 57.462 122.078 64.5566M96.7001 43.4826L73.429 78.3893M96.7001 43.4826C105.654 26.9996 95.1392 11.6443 95.1392 11.6443M38.7417 135.962L103.409 80.5847M122.078 64.5566L126.183 67.6211M122.078 64.5566L103.409 80.5847M122.078 64.5566C122.078 64.5566 125.802 46.5859 120.985 36.5618M40.4484 136.482L115.548 80.5847M115.548 80.5847C115.548 80.5847 124.472 72.0487 126.183 67.6211M115.548 80.5847C109.841 80.5847 103.409 80.5847 103.409 80.5847M31.9378 133.741L12.8105 25.5993M12.8105 25.5993C12.8105 25.5993 19.2153 10.9957 33.2761 4.54554M32.4498 133.741L32.9049 62.1206M32.9049 62.1206C45.0997 69.2332 73.429 78.3893 73.429 78.3893M126.183 67.6211C128.199 56.2195 126.022 45.7064 120.985 36.5618M73.429 78.3893C87.3571 80.5847 103.409 80.5847 103.409 80.5847M95.1392 11.6443C87.4316 7.32909 78.8741 4.19883 70.119 2.48875M95.1392 11.6443C106.098 17.7799 115.339 26.3111 120.985 36.5618M70.119 2.48875C57.6064 0.0447297 44.6905 0.501472 33.2761 4.54554" stroke="#6E33E5"/>
<path d="M30.7696 133.316L1.00075 38.5721M1.00075 38.5721C1.00075 38.5721 8.10081 35.5091 12.8105 25.5993M1.00075 38.5721C6.77126 45.1779 32.9049 62.1206 32.9049 62.1206M1.00075 38.5721C6.77005 20.5449 18.8187 9.66773 33.2761 4.54554M33.0328 134.309L50.3966 25.5993M50.3966 25.5993C59.208 30.9876 96.7001 43.4826 96.7001 43.4826M50.3966 25.5993C35.506 27.2207 12.8105 25.5993 12.8105 25.5993M50.3966 25.5993C50.3966 25.5993 52.0619 3.28074 70.119 2.48875M35.7042 134.976L73.429 78.3893M96.7001 43.4826C96.7001 43.4826 111.825 57.462 122.078 64.5566M96.7001 43.4826L73.429 78.3893M96.7001 43.4826C105.654 26.9996 95.1392 11.6443 95.1392 11.6443M122.078 64.5566L126.183 67.6211M122.078 64.5566L103.409 80.5847M122.078 64.5566C122.078 64.5566 125.802 46.5859 120.985 36.5618M31.9378 133.741L12.8105 25.5993M12.8105 25.5993C12.8105 25.5993 19.2153 10.9957 33.2761 4.54554M32.4498 133.741L32.9049 62.1206M32.9049 62.1206C45.0997 69.2332 73.429 78.3893 73.429 78.3893M126.183 67.6211C124.472 72.0487 115.548 80.5847 115.548 80.5847C109.841 80.5847 103.409 80.5847 103.409 80.5847M126.183 67.6211C128.199 56.2195 126.022 45.7064 120.985 36.5618M73.429 78.3893C87.3571 80.5847 103.409 80.5847 103.409 80.5847M95.1392 11.6443C87.4316 7.32909 78.8741 4.19883 70.119 2.48875M95.1392 11.6443C106.098 17.7799 115.339 26.3111 120.985 36.5618M70.119 2.48875C57.6064 0.0447297 44.6905 0.501472 33.2761 4.54554" stroke="#6E33E5"/>
</g>
<defs>
<linearGradient id="paint0_linear_3757_12495" x1="60.5234" y1="25.6377" x2="60.5234" y2="94.8107" gradientUnits="userSpaceOnUse">
<stop stop-color="#200E36"/>
<stop offset="1" stop-color="#200E36" stop-opacity="0"/>
</linearGradient>
<linearGradient id="paint1_linear_3757_12495" x1="116.786" y1="177.634" x2="6.1671" y2="177.634" gradientUnits="userSpaceOnUse">
<stop stop-color="#C48BD7"/>
<stop offset="0.991726" stop-color="#857CF5"/>
</linearGradient>
<linearGradient id="paint2_linear_3757_12495" x1="116.786" y1="177.634" x2="6.1671" y2="177.634" gradientUnits="userSpaceOnUse">
<stop stop-color="#ECB1FF"/>
<stop offset="0.991726" stop-color="#B5AEFF"/>
</linearGradient>
<linearGradient id="paint3_linear_3757_12495" x1="117.925" y1="180.121" x2="7.30574" y2="180.121" gradientUnits="userSpaceOnUse">
<stop stop-color="#C48BD7"/>
<stop offset="0.991726" stop-color="#857CF5"/>
</linearGradient>
</defs>
</svg>
