<svg width="153" height="214" viewBox="0 0 153 214" fill="none" xmlns="http://www.w3.org/2000/svg">
<g opacity="0.8">
<mask id="mask0_3757_12474" style="mask-type:alpha" maskUnits="userSpaceOnUse" x="1" y="1" width="152" height="96">
<path d="M14.673 96.6155C14.673 96.6155 3.95212 86.3611 1.89653 81.0421C-0.524497 67.3453 2.09042 54.7158 8.14152 43.7302C14.9245 31.4159 26.0252 21.1673 39.1903 13.7965C48.4495 8.6126 58.7299 4.85219 69.2474 2.79783C84.2789 -0.138193 99.795 0.410497 113.507 5.26869C130.875 11.422 145.349 24.4889 152.28 46.1453C145.348 54.0809 113.953 74.4344 113.953 74.4344C99.3035 82.9788 65.2711 93.9781 65.2711 93.9781C48.5391 96.6155 29.2558 96.6155 29.2558 96.6155H14.673Z" fill="#200E36"/>
</mask>
<g mask="url(#mask0_3757_12474)">
<path d="M14.673 96.6155C14.673 96.6155 3.95212 86.3611 1.89653 81.0421C-0.524497 67.3453 2.09042 54.7158 8.14152 43.7302C14.9245 31.4159 26.0252 21.1673 39.1903 13.7965C48.4495 8.6126 58.7299 4.85219 69.2474 2.79783C84.2789 -0.138193 99.795 0.410497 113.507 5.26869C130.875 11.422 145.349 24.4889 152.28 46.1453C145.348 54.0809 113.953 74.4344 113.953 74.4344C99.3035 82.9788 65.2711 93.9781 65.2711 93.9781C48.5391 96.6155 29.2558 96.6155 29.2558 96.6155H14.673Z" fill="#581BA3"/>
<path d="M15.6886 100.005C15.6886 100.005 4.96774 89.7508 2.91215 84.4318C0.491128 70.7349 3.10605 58.1054 9.15715 47.1199C15.9402 34.8055 27.0409 24.5569 40.206 17.1862C49.4651 12.0023 59.7455 8.24183 70.2631 6.18748C85.2945 3.25146 100.811 3.80015 114.523 8.65834C131.891 14.8117 146.365 27.8786 153.296 49.5349C146.364 57.4705 114.969 77.8241 114.969 77.8241C100.319 86.3685 66.2868 97.3678 66.2868 97.3678C49.5547 100.005 30.2714 100.005 30.2714 100.005H15.6886Z" fill="#200E36"/>
<g style="mix-blend-mode:multiply" opacity="0.4">
<path d="M7.08783 77.0662C5.58183 78.2028 2.36522 80.5953 1.54688 81.0727V104.034C1.54688 108.069 71.4774 118.396 73.8513 119.108C76.2252 119.82 141.626 86.5856 152.458 74.1226C163.29 61.6597 161.702 49.4742 152.458 45.822C145.064 42.9002 139.641 34.4615 137.854 30.6074C131.092 30.8063 117.447 31.2382 116.969 31.3746C116.492 31.511 100.574 30.92 92.6742 30.6074C87.3549 34.8356 53.9728 46.3494 37.9467 51.5778L7.08783 77.0662Z" fill="url(#paint0_linear_3757_12474)"/>
</g>
</g>
<mask id="mask1_3757_12474" style="mask-type:alpha" maskUnits="userSpaceOnUse" x="94" y="155" width="51" height="59">
<path d="M94.3516 166.938L130.705 155.556L144.558 191.291L142.673 201.14L105.554 213.201L94.3515 179.882L94.3516 166.938Z" fill="url(#paint1_linear_3757_12474)"/>
</mask>
<g mask="url(#mask1_3757_12474)">
<path d="M94.3516 166.938L130.705 155.556L144.558 191.291L142.673 201.14L105.554 213.201L94.3515 179.882L94.3516 166.938Z" fill="url(#paint2_linear_3757_12474)"/>
<path d="M92.9844 169.926L129.338 158.544L143.898 192.158L142.012 202.007L104.187 216.189L92.9844 182.87L92.9844 169.926Z" fill="url(#paint3_linear_3757_12474)"/>
<path d="M121.371 189.939L123.959 189.454L124.751 191.954L122.163 192.44L121.371 189.939Z" fill="white"/>
<path d="M115.637 171.827L118.225 171.342L119.094 174.086L116.506 174.571L115.637 171.827Z" fill="white"/>
<path fill-rule="evenodd" clip-rule="evenodd" d="M122.225 188.196C123.139 188.025 123.91 187.527 124.368 186.812C124.826 186.097 124.934 185.223 124.668 184.384L126.966 183.953C127.409 185.352 127.229 186.808 126.465 188C125.701 189.191 124.416 190.021 122.893 190.307C121.37 190.593 119.733 190.311 118.342 189.523C116.952 188.736 115.922 187.507 115.479 186.107L117.776 185.676C118.042 186.516 118.66 187.253 119.494 187.726C120.329 188.199 121.311 188.368 122.225 188.196Z" fill="white"/>
<path fill-rule="evenodd" clip-rule="evenodd" d="M120.107 181.714C121.903 181.377 122.936 179.766 122.413 178.116C121.891 176.465 120.01 175.4 118.214 175.737C116.417 176.074 115.385 177.685 115.907 179.336C116.43 180.987 118.31 182.051 120.107 181.714ZM120.828 183.991C123.993 183.398 125.812 180.559 124.892 177.651C123.971 174.742 120.658 172.866 117.493 173.46C114.328 174.054 112.508 176.893 113.429 179.801C114.35 182.709 117.662 184.585 120.828 183.991Z" fill="white"/>
<g style="mix-blend-mode:multiply" opacity="0.6">
<path d="M106.763 203.456L94.4674 167.721C93.6046 168.584 91.8071 170.367 91.5195 170.597C91.1599 170.884 94.4674 189.866 94.8269 192.958C95.1146 195.432 101.61 210.047 104.821 217.045C118.435 213.666 145.719 206.864 145.949 206.691C146.179 206.519 146.86 195.738 147.171 190.37L106.763 203.456Z" fill="#9C8EFE"/>
</g>
</g>
<path d="M94.3516 166.938L130.705 155.556L144.558 191.291M94.3516 166.938L106.528 203.38M94.3516 166.938L94.3515 179.882L105.554 213.201M106.528 203.38L144.558 191.291M106.528 203.38L105.554 213.201M144.558 191.291L142.673 201.14L105.554 213.201" stroke="#6E33E5"/>
<path d="M133.144 162.753L96.7911 174.135L96.791 187.079" stroke="#6E33E5"/>
<path d="M116.518 159.963L152.28 46.1453M152.28 46.1453C152.28 46.1453 143.751 42.4656 138.093 30.5609M152.28 46.1453C145.348 54.0809 113.953 74.4344 113.953 74.4344M152.28 46.1453C145.349 24.4889 130.875 11.422 113.507 5.26869M113.8 161.155L92.9402 30.5609M92.9402 30.5609C82.3549 37.0339 37.3152 52.0442 37.3152 52.0442M92.9402 30.5609C110.828 32.5086 138.093 30.5609 138.093 30.5609M92.9402 30.5609C92.9402 30.5609 90.9396 3.74926 69.2474 2.79783M110.59 161.957L65.2711 93.9781M37.3152 52.0442C37.3152 52.0442 19.145 68.8379 6.82842 77.3607M37.3152 52.0442L65.2711 93.9781M37.3152 52.0442C26.559 32.2431 39.1903 13.7965 39.1903 13.7965M106.941 163.141L29.2558 96.6155M6.82842 77.3607L1.89653 81.0421M6.82842 77.3607L29.2558 96.6155M6.82842 77.3607C6.82842 77.3607 2.35477 55.7723 8.14152 43.7302M104.891 163.765L14.673 96.6155M14.673 96.6155C14.673 96.6155 3.95211 86.3611 1.89653 81.0421M14.673 96.6155C21.5283 96.6155 29.2558 96.6155 29.2558 96.6155M115.115 160.473L138.093 30.5609M138.093 30.5609C138.093 30.5609 130.399 13.0173 113.507 5.26869M114.5 160.473L113.953 74.4344M113.953 74.4344C99.3035 82.9788 65.2711 93.9781 65.2711 93.9781M1.89653 81.0421C-0.524497 67.3453 2.09042 54.7158 8.14152 43.7302M65.2711 93.9781C48.5391 96.6155 29.2558 96.6155 29.2558 96.6155M39.1903 13.7965C48.4495 8.6126 58.7299 4.85219 69.2474 2.79783M39.1903 13.7965C26.0252 21.1673 14.9245 31.4159 8.14152 43.7302M69.2474 2.79783C84.2789 -0.138193 99.795 0.410497 113.507 5.26869" stroke="#6E33E5"/>
<path d="M116.518 159.963L152.28 46.1453M152.28 46.1453C152.28 46.1453 143.751 42.4656 138.093 30.5609M152.28 46.1453C145.348 54.0809 113.953 74.4344 113.953 74.4344M152.28 46.1453C145.349 24.4889 130.875 11.422 113.507 5.26869M113.8 161.155L92.9402 30.5609M92.9402 30.5609C82.3549 37.0339 37.3152 52.0442 37.3152 52.0442M92.9402 30.5609C110.828 32.5086 138.093 30.5609 138.093 30.5609M92.9402 30.5609C92.9402 30.5609 90.9396 3.74926 69.2474 2.79783M110.59 161.957L65.2711 93.9781M37.3152 52.0442C37.3152 52.0442 19.145 68.8379 6.82842 77.3607M37.3152 52.0442L65.2711 93.9781M37.3152 52.0442C26.559 32.2431 39.1903 13.7965 39.1903 13.7965M6.82842 77.3607L1.89653 81.0421M6.82842 77.3607L29.2558 96.6155M6.82842 77.3607C6.82842 77.3607 2.35477 55.7723 8.14152 43.7302M115.115 160.473L138.093 30.5609M138.093 30.5609C138.093 30.5609 130.399 13.0173 113.507 5.26869M114.5 160.473L113.953 74.4344M113.953 74.4344C99.3035 82.9788 65.2711 93.9781 65.2711 93.9781M1.89653 81.0421C3.95211 86.3611 14.673 96.6155 14.673 96.6155C21.5283 96.6155 29.2558 96.6155 29.2558 96.6155M1.89653 81.0421C-0.524497 67.3453 2.09042 54.7158 8.14152 43.7302M65.2711 93.9781C48.5391 96.6155 29.2558 96.6155 29.2558 96.6155M39.1903 13.7965C48.4495 8.6126 58.7299 4.85219 69.2474 2.79783M39.1903 13.7965C26.0252 21.1673 14.9245 31.4159 8.14152 43.7302M69.2474 2.79783C84.2789 -0.138193 99.795 0.410497 113.507 5.26869" stroke="#6E33E5"/>
</g>
<defs>
<linearGradient id="paint0_linear_3757_12474" x1="80.7726" y1="30.6074" x2="80.7726" y2="113.706" gradientUnits="userSpaceOnUse">
<stop stop-color="#200E36"/>
<stop offset="1" stop-color="#200E36" stop-opacity="0"/>
</linearGradient>
<linearGradient id="paint1_linear_3757_12474" x1="13.1868" y1="213.201" x2="146.075" y2="213.201" gradientUnits="userSpaceOnUse">
<stop stop-color="#C48BD7"/>
<stop offset="0.991726" stop-color="#857CF5"/>
</linearGradient>
<linearGradient id="paint2_linear_3757_12474" x1="13.1868" y1="213.201" x2="146.075" y2="213.201" gradientUnits="userSpaceOnUse">
<stop stop-color="#ECB1FF"/>
<stop offset="0.991726" stop-color="#B5AEFF"/>
</linearGradient>
<linearGradient id="paint3_linear_3757_12474" x1="11.8196" y1="216.189" x2="144.708" y2="216.189" gradientUnits="userSpaceOnUse">
<stop stop-color="#C48BD7"/>
<stop offset="0.991726" stop-color="#857CF5"/>
</linearGradient>
</defs>
</svg>
