<svg width="1179" height="115" viewBox="0 0 1179 115" fill="none" xmlns="http://www.w3.org/2000/svg">
<path d="M1176.12 32.5871C1146.34 48.9212 1069.42 58.8985 1012 43.0986M1177.59 23.0418C1147.81 39.3759 1070.89 49.3532 1013.47 33.5533C1015.03 26.0059 1021.73 16.8379 1034.63 21.0134C1042.41 23.5331 1051.35 21.6479 1057.81 16.0228C1067.69 7.42861 1080.95 4.38219 1092.76 11.7415C1103.16 18.2248 1118.35 20.4947 1127.85 12.4586C1146.07 -2.95829 1167.89 -5.87253 1177.59 23.0418Z" stroke="#643FC5"/>
<path d="M0.546875 91.8482C32.0188 103.208 109.796 122.826 169.13 110.424M2.96081 77.8385C34.4327 89.1978 112.21 108.816 171.544 96.4144C168.667 88.7051 158.841 75.7246 142.346 77.2727C133.852 78.0699 124.724 76.0462 119.089 69.6395C106.317 55.1161 87.8104 46.4091 60.8511 67.9599C54.1509 73.3159 44.8082 74.0095 37.4204 69.6504C24.1629 61.828 8.99996 57.6698 2.96081 77.8385Z" stroke="#643FC5"/>
</svg>
