<svg width="1482" height="664" viewBox="0 0 1482 664" fill="none" xmlns="http://www.w3.org/2000/svg">
<g opacity="0.47">
<path d="M1196.41 327.318L1197.95 329.968L1200.71 331.437L1197.95 332.877L1196.41 335.527L1194.89 332.877L1192.11 331.437L1194.89 329.968L1196.41 327.318Z" fill="#FEA7AF"/>
<path d="M1181.62 118.608L1183.17 121.258L1185.93 122.698L1183.17 124.139L1181.62 126.789L1180.11 124.139L1177.32 122.698L1180.11 121.258L1181.62 118.608Z" fill="#FEA7AF"/>
<path opacity="0.29" d="M1308.99 122.958L1310.42 125.435L1313.05 126.789L1310.42 128.143L1308.99 130.649L1307.57 128.143L1304.96 126.789L1307.57 125.435L1308.99 122.958Z" fill="#FEA7AF"/>
<path opacity="0.29" d="M1472.76 360.155L1474.18 362.632L1476.78 363.986L1474.18 365.34L1472.76 367.846L1471.33 365.34L1468.7 363.986L1471.33 362.632L1472.76 360.155Z" fill="white"/>
<path opacity="0.29" d="M1436.29 449.119L1437.71 451.596L1440.32 452.95L1437.71 454.304L1436.29 456.81L1434.87 454.304L1432.23 452.95L1434.87 451.596L1436.29 449.119Z" fill="white"/>
<path opacity="0.29" d="M1372.83 26.668L1374.26 29.1451L1376.86 30.5276L1374.26 31.8814L1372.83 34.3585L1371.41 31.8814L1368.8 30.5276L1371.41 29.1451L1372.83 26.668Z" fill="white"/>
<path d="M1332.8 485.148L1334.92 488.787L1338.74 490.75L1334.92 492.761L1332.8 496.4L1330.74 492.761L1326.91 490.75L1330.74 488.787L1332.8 485.148Z" fill="white"/>
<path d="M1388.65 217.059L1389.92 219.248L1392.22 220.429L1389.92 221.638L1388.65 223.799L1387.41 221.638L1385.1 220.429L1387.41 219.248L1388.65 217.059Z" fill="white"/>
<path opacity="0.33" d="M1181.62 466.093L1183.26 468.887L1186.2 470.442L1183.26 471.969L1181.62 474.791L1180.02 471.969L1177.05 470.442L1180.02 468.887L1181.62 466.093Z" fill="#FEA7AF"/>
<path opacity="0.33" d="M1257.31 552.159L1258.91 554.982L1261.88 556.537L1258.91 558.064L1257.31 560.887L1255.67 558.064L1252.73 556.537L1255.67 554.982L1257.31 552.159Z" fill="#FEA7AF"/>
<path opacity="0.33" d="M1248.16 236.27L1249.76 239.092L1252.73 240.619L1249.76 242.174L1248.16 244.968L1246.52 242.174L1243.55 240.619L1246.52 239.092L1248.16 236.27Z" fill="#FEA7AF"/>
<path d="M4.98296 354.02L6.49784 356.669L9.28523 358.138L6.49784 359.579L4.98296 362.229L3.43777 359.579L0.650391 358.138L3.43777 356.669L4.98296 354.02Z" fill="#FEA7AF"/>
<path d="M9.28664 116.822L10.8015 119.472L13.5889 120.941L10.8015 122.381L9.28664 125.031L7.77176 122.381L4.98438 120.941L7.77176 119.472L9.28664 116.822Z" fill="#FEA7AF"/>
<path opacity="0.44" d="M364.203 449.219L365.112 450.803L366.809 451.696L365.112 452.56L364.203 454.173L363.294 452.56L361.598 451.696L363.294 450.803L364.203 449.219Z" fill="#FEA7AF"/>
<path opacity="0.89" d="M971.024 0.773438L972.63 3.56738L975.599 5.12277L972.63 6.64936L971.024 9.4721L969.388 6.64936L966.449 5.12277L969.388 3.56738L971.024 0.773438Z" fill="#FEA7AF"/>
<path opacity="0.89" d="M596.91 22.5479L597.789 24.0744L599.395 24.9097L597.789 25.745L596.91 27.2716L596.032 25.745L594.426 24.9097L596.032 24.0744L596.91 22.5479Z" fill="#FEA7AF"/>
<path opacity="0.29" d="M330.193 129.432L333.223 134.674L338.737 137.525L333.223 140.406L330.193 145.648L327.194 140.406L321.68 137.525L327.194 134.674L330.193 129.432Z" fill="white"/>
<path opacity="0.29" d="M342.377 560.454L345.407 565.696L350.921 568.548L345.407 571.399L342.377 576.642L339.377 571.399L333.863 568.548L339.377 565.696L342.377 560.454Z" fill="white"/>
<path opacity="0.29" d="M136.657 121.201L138.08 123.678L140.686 125.032L138.08 126.386L136.657 128.863L135.233 126.386L132.627 125.032L135.233 123.678L136.657 121.201Z" fill="#FEA7AF"/>
<path opacity="0.29" d="M300.385 358.397L301.839 360.875L304.445 362.228L301.839 363.582L300.385 366.059L298.961 363.582L296.355 362.228L298.961 360.875L300.385 358.397Z" fill="white"/>
<path opacity="0.29" d="M200.463 24.9102L201.917 27.3873L204.523 28.741L201.917 30.0948L200.463 32.6007L199.039 30.0948L196.434 28.741L199.039 27.3873L200.463 24.9102Z" fill="white"/>
<path d="M178.139 445.849L179.381 448.038L181.683 449.219L179.381 450.428L178.139 452.589L176.896 450.428L174.594 449.219L176.896 448.038L178.139 445.849Z" fill="white"/>
<path opacity="0.15" d="M216.31 215.273L217.583 217.463L219.855 218.672L217.583 219.853L216.31 222.042L215.038 219.853L212.766 218.672L215.038 217.463L216.31 215.273Z" fill="white"/>
<path d="M1109.64 628.948L1110.91 631.137L1113.21 632.347L1110.91 633.528L1109.64 635.717L1108.39 633.528L1106.09 632.347L1108.39 631.137L1109.64 628.948Z" fill="white"/>
<path opacity="0.66" d="M43.1269 11.8047L44.3691 13.9937L46.6717 15.1747L44.3691 16.3844L43.1269 18.5735L41.8544 16.3844L39.582 15.1747L41.8544 13.9937L43.1269 11.8047Z" fill="white"/>
<path opacity="0.66" d="M525.982 588.163L527.255 590.352L529.527 591.533L527.255 592.743L525.982 594.932L524.71 592.743L522.438 591.533L524.71 590.352L525.982 588.163Z" fill="white"/>
<path d="M426.303 58.3232L427.575 60.5123L429.878 61.6933L427.575 62.903L426.303 65.0921L425.06 62.903L422.758 61.6933L425.06 60.5123L426.303 58.3232Z" fill="white"/>
<path opacity="0.33" d="M52.6589 511.151L54.2647 513.974L57.2339 515.501L54.2647 517.056L52.6589 519.85L51.0229 517.056L48.084 515.501L51.0229 513.974L52.6589 511.151Z" fill="#FEA7AF"/>
<path opacity="0.33" d="M84.9382 550.401L86.5743 553.224L89.5131 554.751L86.5743 556.277L84.9382 559.1L83.3324 556.277L80.3633 554.751L83.3324 553.224L84.9382 550.401Z" fill="#FEA7AF"/>
<path opacity="0.33" d="M75.7878 234.514L77.4239 237.308L80.3628 238.863L77.4239 240.39L75.7878 243.212L74.1821 240.39L71.2129 238.863L74.1821 237.308L75.7878 234.514Z" fill="#FEA7AF"/>
<path opacity="0.33" d="M480.294 337.86L481.899 340.683L484.869 342.21L481.899 343.765L480.294 346.559L478.658 343.765L475.719 342.21L478.658 340.683L480.294 337.86Z" fill="#FEA7AF"/>
<path d="M554.946 390.83L556.461 393.48L559.248 394.92L556.461 396.36L554.946 399.01L553.401 396.36L550.613 394.92L553.401 393.48L554.946 390.83Z" fill="#FEA7AF"/>
<path opacity="0.37" d="M533.86 242.003L535.375 244.653L538.162 246.122L535.375 247.562L533.86 250.212L532.315 247.562L529.527 246.122L532.315 244.653L533.86 242.003Z" fill="#FEA7AF"/>
<path opacity="0.29" d="M1014.35 121.315L1016.41 124.858L1020.14 126.788L1016.41 128.718L1014.35 132.261L1012.32 128.718L1008.62 126.788L1012.32 124.858L1014.35 121.315Z" fill="white"/>
<path opacity="0.29" d="M892.342 597.236L895.372 602.479L900.886 605.33L895.372 608.21L892.342 613.453L889.342 608.21L883.828 605.33L889.342 602.479L892.342 597.236Z" fill="white"/>
<path opacity="0.29" d="M686.62 157.982L688.044 160.46L690.65 161.813L688.044 163.167L686.62 165.673L685.196 163.167L682.561 161.813L685.196 160.46L686.62 157.982Z" fill="#FEA7AF"/>
<path opacity="0.29" d="M850.35 395.18L851.774 397.657L854.41 399.011L851.774 400.364L850.35 402.87L848.926 400.364L846.32 399.011L848.926 397.657L850.35 395.18Z" fill="white"/>
<path opacity="0.29" d="M750.428 61.6914L751.882 64.1973L754.488 65.5511L751.882 66.9048L750.428 69.3819L749.004 66.9048L746.398 65.5511L749.004 64.1973L750.428 61.6914Z" fill="white"/>
<path opacity="0.32" d="M684.362 481.078L686.061 484.073L689.211 485.728L686.061 487.343L684.362 490.338L682.621 487.343L679.471 485.728L682.621 484.073L684.362 481.078Z" fill="white"/>
<path opacity="0.33" d="M729.34 215.273L730.612 217.463L732.915 218.672L730.612 219.853L729.34 222.042L728.098 219.853L725.795 218.672L728.098 217.463L729.34 215.273Z" fill="white"/>
<path opacity="0.33" d="M436.764 519.85L438.37 522.644L441.339 524.199L438.37 525.726L436.764 528.548L435.128 525.726L432.189 524.199L435.128 522.644L436.764 519.85Z" fill="#FEA7AF"/>
<path opacity="0.33" d="M634.903 587.184L636.539 590.006L639.478 591.533L636.539 593.088L634.903 595.911L633.297 593.088L630.328 591.533L633.297 590.006L634.903 587.184Z" fill="#FEA7AF"/>
<path opacity="0.33" d="M625.753 271.295L627.389 274.118L630.328 275.644L627.389 277.2L625.753 279.994L624.147 277.2L621.178 275.644L624.147 274.118L625.753 271.295Z" fill="#FEA7AF"/>
<path opacity="0.33" d="M1049.37 254.475L1051.01 257.297L1053.95 258.824L1051.01 260.379L1049.37 263.173L1047.77 260.379L1044.8 258.824L1047.77 257.297L1049.37 254.475Z" fill="#FEA7AF"/>
</g>
<path opacity="0.6" d="M752.993 376.425L865.33 474.513C865.477 474.647 865.594 474.808 865.674 474.986C865.754 475.164 865.795 475.355 865.795 475.549C865.795 475.742 865.754 475.934 865.674 476.112C865.594 476.29 865.477 476.45 865.33 476.584C865.197 476.73 865.034 476.849 864.852 476.934C864.67 477.02 864.472 477.07 864.27 477.083C864.067 477.095 863.864 477.069 863.672 477.006C863.48 476.943 863.303 476.845 863.151 476.717L747.323 382.373C746.902 382.03 746.556 381.611 746.307 381.14C746.057 380.668 745.909 380.155 745.87 379.629C745.831 379.102 745.902 378.574 746.08 378.074C746.257 377.575 746.537 377.113 746.904 376.717C747.274 376.304 747.729 375.967 748.241 375.728C748.754 375.488 749.312 375.35 749.882 375.322C750.452 375.295 751.022 375.379 751.557 375.569C752.092 375.758 752.581 376.05 752.993 376.425Z" fill="url(#paint0_linear_3810_11484)"/>
<g opacity="0.35">
<path d="M1128.27 175.755L1230.71 265.19C1230.97 265.438 1231.12 265.775 1231.12 266.126C1231.12 266.477 1230.97 266.814 1230.71 267.062C1230.46 267.324 1230.12 267.485 1229.75 267.511C1229.39 267.538 1229.02 267.429 1228.74 267.206L1123.18 181.199C1122.8 180.885 1122.49 180.502 1122.26 180.072C1122.03 179.641 1121.9 179.173 1121.87 178.693C1121.83 178.214 1121.9 177.732 1122.06 177.277C1122.23 176.822 1122.48 176.403 1122.82 176.043C1123.15 175.679 1123.56 175.382 1124.02 175.17C1124.48 174.957 1124.97 174.834 1125.48 174.807C1125.99 174.781 1126.5 174.851 1126.98 175.013C1127.46 175.176 1127.9 175.428 1128.27 175.755Z" fill="url(#paint1_linear_3810_11484)"/>
<path style="mix-blend-mode:screen" d="M1166.57 209.974L1229.31 264.701C1229.48 264.857 1229.57 265.07 1229.57 265.291C1229.57 265.513 1229.48 265.725 1229.31 265.882C1229.15 266.03 1228.93 266.112 1228.71 266.112C1228.48 266.112 1228.26 266.03 1228.1 265.882L1163.39 213.171C1163.15 212.979 1162.96 212.745 1162.83 212.483C1162.69 212.22 1162.61 211.935 1162.59 211.643C1162.57 211.352 1162.61 211.059 1162.71 210.782C1162.81 210.506 1162.97 210.251 1163.17 210.032C1163.39 209.808 1163.65 209.629 1163.94 209.504C1164.23 209.379 1164.54 209.312 1164.86 209.307C1165.17 209.302 1165.49 209.358 1165.78 209.473C1166.08 209.587 1166.34 209.758 1166.57 209.974Z" fill="url(#paint2_linear_3810_11484)"/>
<path d="M1093.28 185.461L1140.27 226.477C1140.33 226.534 1140.38 226.601 1140.41 226.675C1140.44 226.749 1140.46 226.829 1140.46 226.909C1140.46 226.99 1140.44 227.069 1140.41 227.144C1140.38 227.218 1140.33 227.285 1140.27 227.341C1140.21 227.399 1140.14 227.444 1140.06 227.476C1139.98 227.507 1139.9 227.523 1139.81 227.523C1139.73 227.523 1139.65 227.507 1139.57 227.476C1139.49 227.444 1139.42 227.399 1139.36 227.341L1090.88 187.881C1090.71 187.737 1090.56 187.562 1090.46 187.366C1090.36 187.169 1090.29 186.955 1090.28 186.735C1090.26 186.516 1090.29 186.296 1090.36 186.087C1090.43 185.878 1090.55 185.685 1090.7 185.519C1090.86 185.343 1091.05 185.2 1091.27 185.101C1091.49 185.002 1091.73 184.947 1091.98 184.942C1092.22 184.936 1092.46 184.98 1092.68 185.069C1092.91 185.159 1093.11 185.292 1093.28 185.461Z" fill="url(#paint3_linear_3810_11484)"/>
<path style="mix-blend-mode:screen" d="M1110.85 201.16L1139.66 226.305C1139.73 226.378 1139.76 226.47 1139.76 226.564C1139.76 226.659 1139.73 226.751 1139.66 226.824C1139.58 226.892 1139.48 226.931 1139.37 226.931C1139.27 226.931 1139.17 226.892 1139.09 226.824L1109.4 202.657C1109.29 202.561 1109.21 202.447 1109.16 202.321C1109.1 202.195 1109.07 202.059 1109.07 201.923C1109.07 201.786 1109.1 201.651 1109.16 201.525C1109.21 201.399 1109.29 201.285 1109.4 201.188C1109.59 201.008 1109.85 200.905 1110.12 200.9C1110.39 200.894 1110.65 200.987 1110.85 201.16Z" fill="url(#paint4_linear_3810_11484)"/>
</g>
<g opacity="0.22">
<path d="M56.7652 241.587L193.893 361.294C194.24 361.633 194.435 362.088 194.435 362.561C194.435 363.035 194.24 363.49 193.893 363.829C193.73 364.008 193.532 364.154 193.31 364.26C193.088 364.366 192.845 364.429 192.597 364.445C192.349 364.461 192.101 364.43 191.865 364.354C191.63 364.278 191.413 364.158 191.226 364.002L49.8574 248.788C49.3443 248.366 48.9244 247.852 48.6219 247.276C48.3194 246.699 48.1404 246.071 48.0953 245.428C48.0502 244.784 48.1399 244.139 48.3592 243.529C48.5784 242.919 48.9229 242.357 49.3726 241.875C49.8298 241.382 50.3872 240.982 51.0114 240.699C51.6355 240.416 52.3134 240.257 53.0042 240.23C53.695 240.203 54.3844 240.309 55.0308 240.542C55.6772 240.776 56.2672 241.131 56.7652 241.587Z" fill="url(#paint5_linear_3810_11484)"/>
<path style="mix-blend-mode:screen" d="M108 287.385L192.046 360.747C192.257 360.957 192.375 361.235 192.375 361.525C192.375 361.815 192.257 362.094 192.046 362.303C191.826 362.504 191.533 362.616 191.228 362.616C190.923 362.616 190.63 362.504 190.41 362.303L103.758 291.734C103.431 291.485 103.161 291.174 102.966 290.82C102.772 290.467 102.657 290.079 102.628 289.681C102.6 289.282 102.658 288.883 102.801 288.508C102.943 288.132 103.166 287.789 103.455 287.5C103.731 287.186 104.074 286.932 104.461 286.754C104.848 286.576 105.27 286.478 105.7 286.467C106.13 286.456 106.558 286.532 106.954 286.691C107.351 286.849 107.707 287.086 108 287.385Z" fill="url(#paint6_linear_3810_11484)"/>
</g>
<defs>
<linearGradient id="paint0_linear_3810_11484" x1="865.488" y1="476.331" x2="752.428" y2="370.707" gradientUnits="userSpaceOnUse">
<stop offset="0.01" stop-color="#FEA7AF"/>
<stop offset="0.99" stop-color="#EA47AC" stop-opacity="0"/>
</linearGradient>
<linearGradient id="paint1_linear_3810_11484" x1="1230.86" y1="266.73" x2="1127.8" y2="170.449" gradientUnits="userSpaceOnUse">
<stop offset="0.01" stop-color="#FEA7AF"/>
<stop offset="0.99" stop-color="#EA47AC" stop-opacity="0"/>
</linearGradient>
<linearGradient id="paint2_linear_3810_11484" x1="1229.47" y1="265.564" x2="1166.31" y2="206.558" gradientUnits="userSpaceOnUse">
<stop offset="0.01" stop-color="#FEA7AF"/>
<stop offset="0.99" stop-color="#EA47AC" stop-opacity="0"/>
</linearGradient>
<linearGradient id="paint3_linear_3810_11484" x1="1140.43" y1="226.976" x2="1093.13" y2="182.787" gradientUnits="userSpaceOnUse">
<stop offset="0.01" stop-color="#FEA7AF"/>
<stop offset="0.99" stop-color="#EA47AC" stop-opacity="0"/>
</linearGradient>
<linearGradient id="paint4_linear_3810_11484" x1="1139.8" y1="226.441" x2="1110.8" y2="199.354" gradientUnits="userSpaceOnUse">
<stop offset="0.01" stop-color="#FEA7AF"/>
<stop offset="0.99" stop-color="#EA47AC" stop-opacity="0"/>
</linearGradient>
<linearGradient id="paint5_linear_3810_11484" x1="194.026" y1="363.614" x2="56.0445" y2="234.708" gradientUnits="userSpaceOnUse">
<stop offset="0.01" stop-color="#FEA7AF"/>
<stop offset="0.99" stop-color="#EA47AC" stop-opacity="0"/>
</linearGradient>
<linearGradient id="paint6_linear_3810_11484" x1="192.17" y1="362.046" x2="107.611" y2="283.049" gradientUnits="userSpaceOnUse">
<stop offset="0.01" stop-color="#FEA7AF"/>
<stop offset="0.99" stop-color="#EA47AC" stop-opacity="0"/>
</linearGradient>
</defs>
</svg>
