<svg width="1600" height="619" viewBox="0 0 1600 619" fill="none" xmlns="http://www.w3.org/2000/svg">
<g opacity="0.47">
<path d="M1314.41 269.104L1315.96 271.754L1318.71 273.223L1315.96 274.664L1314.41 277.313L1312.9 274.664L1310.11 273.223L1312.9 271.754L1314.41 269.104Z" fill="#FEA7AF"/>
<path d="M1299.63 60.3945L1301.17 63.0444L1303.93 64.4846L1301.17 65.9248L1299.63 68.5747L1298.11 65.9248L1295.32 64.4846L1298.11 63.0444L1299.63 60.3945Z" fill="#FEA7AF"/>
<path opacity="0.29" d="M1427 64.7441L1428.42 67.2212L1431.06 68.575L1428.42 69.9288L1427 72.4347L1425.57 69.9288L1422.97 68.575L1425.57 67.2212L1427 64.7441Z" fill="#FEA7AF"/>
<path opacity="0.29" d="M1590.76 301.94L1592.18 304.418L1594.79 305.771L1592.18 307.125L1590.76 309.631L1589.33 307.125L1586.7 305.771L1589.33 304.418L1590.76 301.94Z" fill="white"/>
<path d="M1441.27 398.749L1442.54 400.938L1444.84 402.119L1442.54 403.329L1441.27 405.518L1440.03 403.329L1437.72 402.119L1440.03 400.938L1441.27 398.749Z" fill="white"/>
<path d="M1506.65 158.844L1507.92 161.033L1510.23 162.214L1507.92 163.423L1506.65 165.584L1505.41 163.423L1503.11 162.214L1505.41 161.033L1506.65 158.844Z" fill="white"/>
<path opacity="0.33" d="M1299.63 407.879L1301.26 410.673L1304.2 412.228L1301.26 413.755L1299.63 416.578L1298.02 413.755L1295.05 412.228L1298.02 410.673L1299.63 407.879Z" fill="#FEA7AF"/>
<path opacity="0.33" d="M1375.31 493.945L1376.92 496.768L1379.88 498.323L1376.92 499.85L1375.31 502.673L1373.67 499.85L1370.73 498.323L1373.67 496.768L1375.31 493.945Z" fill="#FEA7AF"/>
<path opacity="0.33" d="M1366.16 178.056L1367.77 180.878L1370.73 182.405L1367.77 183.96L1366.16 186.754L1364.52 183.96L1361.55 182.405L1364.52 180.878L1366.16 178.056Z" fill="#FEA7AF"/>
<path d="M122.985 295.806L124.5 298.456L127.287 299.925L124.5 301.365L122.985 304.015L121.44 301.365L118.652 299.925L121.44 298.456L122.985 295.806Z" fill="#FEA7AF"/>
<path d="M127.287 58.6084L128.802 61.2583L131.589 62.7273L128.802 64.1675L127.287 66.8174L125.772 64.1675L122.984 62.7273L125.772 61.2583L127.287 58.6084Z" fill="#FEA7AF"/>
<path opacity="0.44" d="M514.977 419.488L515.886 421.072L517.582 421.965L515.886 422.829L514.977 424.442L514.068 422.829L512.371 421.965L514.068 421.072L514.977 419.488Z" fill="#FEA7AF"/>
<path opacity="0.29" d="M460.381 65.9531L463.411 71.1954L468.925 74.0469L463.411 76.9273L460.381 82.1695L457.381 76.9273L451.867 74.0469L457.381 71.1954L460.381 65.9531Z" fill="white"/>
<path opacity="0.29" d="M254.659 62.9873L256.082 65.4644L258.688 66.8182L256.082 68.1719L254.659 70.649L253.235 68.1719L250.629 66.8182L253.235 65.4644L254.659 62.9873Z" fill="#FEA7AF"/>
<path opacity="0.29" d="M418.387 300.184L419.841 302.661L422.447 304.014L419.841 305.368L418.387 307.845L416.963 305.368L414.357 304.014L416.963 302.661L418.387 300.184Z" fill="white"/>
<path d="M268.928 396.992L270.17 399.181L272.472 400.362L270.17 401.572L268.928 403.732L267.685 401.572L265.383 400.362L267.685 399.181L268.928 396.992Z" fill="white"/>
<path opacity="0.15" d="M334.31 157.06L335.583 159.249L337.855 160.458L335.583 161.639L334.31 163.828L333.038 161.639L330.766 160.458L333.038 159.249L334.31 157.06Z" fill="white"/>
<path d="M1227.64 570.734L1228.91 572.923L1231.21 574.133L1228.91 575.314L1227.64 577.503L1226.4 575.314L1224.09 574.133L1226.4 572.923L1227.64 570.734Z" fill="white"/>
<path opacity="0.66" d="M643.982 529.949L645.255 532.138L647.527 533.319L645.255 534.529L643.982 536.718L642.71 534.529L640.438 533.319L642.71 532.138L643.982 529.949Z" fill="white"/>
<path d="M544.305 0.108398L545.577 2.29747L547.88 3.47841L545.577 4.68816L544.305 6.87723L543.062 4.68816L540.76 3.47841L543.062 2.29747L544.305 0.108398Z" fill="white"/>
<path opacity="0.33" d="M127.286 406.094L128.892 408.916L131.861 410.443L128.892 411.998L127.286 414.792L125.65 411.998L122.711 410.443L125.65 408.916L127.286 406.094Z" fill="#FEA7AF"/>
<path opacity="0.33" d="M202.94 492.188L204.576 495.01L207.515 496.537L204.576 498.063L202.94 500.886L201.334 498.063L198.365 496.537L201.334 495.01L202.94 492.188Z" fill="#FEA7AF"/>
<path opacity="0.33" d="M739.18 609.388L740.786 612.182L743.755 613.737L740.786 615.264L739.18 618.086L737.575 615.264L734.605 613.737L737.575 612.182L739.18 609.388Z" fill="#FEA7AF"/>
<path opacity="0.33" d="M193.79 176.3L195.426 179.094L198.365 180.649L195.426 182.176L193.79 184.998L192.184 182.176L189.215 180.649L192.184 179.094L193.79 176.3Z" fill="#FEA7AF"/>
<path opacity="0.33" d="M598.294 279.646L599.899 282.468L602.869 283.995L599.899 285.55L598.294 288.344L596.658 285.55L593.719 283.995L596.658 282.468L598.294 279.646Z" fill="#FEA7AF"/>
<path d="M672.95 332.615L674.465 335.265L677.252 336.705L674.465 338.146L672.95 340.795L671.405 338.146L668.617 336.705L671.405 335.265L672.95 332.615Z" fill="#FEA7AF"/>
<path opacity="0.37" d="M651.86 183.788L653.375 186.438L656.162 187.907L653.375 189.347L651.86 191.997L650.315 189.347L647.527 187.907L650.315 186.438L651.86 183.788Z" fill="#FEA7AF"/>
<path opacity="0.29" d="M1132.35 63.1016L1134.41 66.6444L1138.14 68.5742L1134.41 70.5041L1132.35 74.0469L1130.32 70.5041L1126.62 68.5742L1130.32 66.6444L1132.35 63.1016Z" fill="white"/>
<path opacity="0.29" d="M1010.34 539.022L1013.37 544.265L1018.89 547.116L1013.37 549.997L1010.34 555.239L1007.34 549.997L1001.83 547.116L1007.34 544.265L1010.34 539.022Z" fill="white"/>
<path opacity="0.29" d="M804.622 99.7686L806.046 102.246L808.652 103.599L806.046 104.953L804.622 107.459L803.198 104.953L800.562 103.599L803.198 102.246L804.622 99.7686Z" fill="#FEA7AF"/>
<path opacity="0.29" d="M968.35 336.966L969.774 339.443L972.41 340.797L969.774 342.15L968.35 344.656L966.926 342.15L964.32 340.797L966.926 339.443L968.35 336.966Z" fill="white"/>
<path opacity="0.29" d="M868.428 3.47754L869.882 5.98344L872.488 7.33721L869.882 8.69097L868.428 11.1681L867.004 8.69097L864.398 7.33721L867.004 5.98344L868.428 3.47754Z" fill="white"/>
<path opacity="0.32" d="M804.622 439.505L805.864 441.694L808.167 442.904L805.864 444.085L804.622 446.274L803.35 444.085L801.047 442.904L803.35 441.694L804.622 439.505Z" fill="white"/>
<path opacity="0.33" d="M847.342 157.06L848.614 159.249L850.917 160.458L848.614 161.639L847.342 163.828L846.1 161.639L843.797 160.458L846.1 159.249L847.342 157.06Z" fill="white"/>
<path opacity="0.33" d="M677.251 442.904L678.856 445.698L681.826 447.254L678.856 448.78L677.251 451.603L675.615 448.78L672.676 447.254L675.615 445.698L677.251 442.904Z" fill="#FEA7AF"/>
<path opacity="0.33" d="M752.903 528.97L754.539 531.792L757.478 533.319L754.539 534.874L752.903 537.697L751.297 534.874L748.328 533.319L751.297 531.792L752.903 528.97Z" fill="#FEA7AF"/>
<path opacity="0.33" d="M743.755 213.081L745.391 215.904L748.33 217.43L745.391 218.986L743.755 221.78L742.149 218.986L739.18 217.43L742.149 215.904L743.755 213.081Z" fill="#FEA7AF"/>
<path opacity="0.33" d="M1167.38 196.261L1169.01 199.083L1171.95 200.61L1169.01 202.165L1167.38 204.959L1165.77 202.165L1162.8 200.61L1165.77 199.083L1167.38 196.261Z" fill="#FEA7AF"/>
</g>
<path d="M463.591 235.692L585.449 342.092C585.608 342.237 585.735 342.412 585.822 342.605C585.908 342.798 585.953 343.006 585.953 343.216C585.953 343.426 585.908 343.633 585.822 343.826C585.735 344.019 585.608 344.194 585.449 344.339V344.339C585.304 344.497 585.128 344.626 584.931 344.719C584.733 344.811 584.518 344.866 584.299 344.88C584.079 344.893 583.859 344.865 583.65 344.797C583.442 344.729 583.25 344.622 583.085 344.483L457.441 242.144C456.984 241.772 456.609 241.317 456.339 240.806C456.068 240.295 455.907 239.738 455.865 239.167C455.822 238.596 455.9 238.023 456.092 237.481C456.285 236.939 456.589 236.439 456.987 236.009V236.009C457.388 235.561 457.882 235.195 458.437 234.935C458.993 234.675 459.599 234.525 460.217 234.496C460.836 234.466 461.454 234.557 462.034 234.763C462.614 234.968 463.144 235.285 463.591 235.692V235.692Z" fill="url(#paint0_linear_3757_12157)"/>
<path style="mix-blend-mode:screen" d="M509.129 276.391L583.722 341.603C583.914 341.786 584.022 342.035 584.022 342.294C584.022 342.553 583.914 342.802 583.722 342.985V342.985C583.525 343.161 583.265 343.26 582.994 343.26C582.724 343.26 582.464 343.161 582.267 342.985L505.251 280.251C504.97 280.025 504.74 279.747 504.574 279.435C504.408 279.123 504.309 278.783 504.284 278.434C504.259 278.085 504.307 277.734 504.426 277.403C504.545 277.072 504.733 276.768 504.978 276.507V276.507C505.228 276.218 505.54 275.984 505.893 275.819C506.247 275.655 506.633 275.564 507.026 275.553C507.419 275.542 507.81 275.611 508.173 275.756C508.535 275.9 508.861 276.117 509.129 276.391V276.391Z" fill="url(#paint1_linear_3757_12157)"/>
<g opacity="0.35">
<path d="M1246.27 117.54L1348.71 206.975C1348.97 207.223 1349.11 207.56 1349.11 207.911C1349.11 208.262 1348.97 208.599 1348.71 208.847V208.847C1348.46 209.109 1348.12 209.27 1347.75 209.297C1347.38 209.323 1347.02 209.214 1346.74 208.991L1241.18 122.984C1240.8 122.67 1240.48 122.287 1240.26 121.857C1240.03 121.427 1239.9 120.958 1239.86 120.478C1239.83 119.999 1239.9 119.517 1240.06 119.062C1240.22 118.608 1240.48 118.188 1240.82 117.828V117.828C1241.15 117.464 1241.56 117.167 1242.02 116.955C1242.47 116.742 1242.97 116.619 1243.48 116.593C1243.99 116.566 1244.5 116.636 1244.98 116.798C1245.45 116.961 1245.89 117.213 1246.27 117.54V117.54Z" fill="url(#paint2_linear_3757_12157)"/>
<path style="mix-blend-mode:screen" d="M1284.56 151.759L1347.31 206.486C1347.48 206.642 1347.57 206.855 1347.57 207.076C1347.57 207.298 1347.48 207.51 1347.31 207.667C1347.15 207.815 1346.93 207.897 1346.71 207.897C1346.48 207.897 1346.26 207.815 1346.1 207.667L1281.38 154.956C1281.15 154.764 1280.96 154.53 1280.83 154.268C1280.69 154.006 1280.61 153.72 1280.59 153.429C1280.57 153.137 1280.61 152.844 1280.71 152.567C1280.81 152.291 1280.97 152.036 1281.17 151.817V151.817C1281.39 151.593 1281.65 151.414 1281.93 151.289C1282.22 151.165 1282.54 151.098 1282.86 151.092C1283.17 151.087 1283.49 151.143 1283.78 151.258C1284.08 151.373 1284.34 151.543 1284.56 151.759V151.759Z" fill="url(#paint3_linear_3757_12157)"/>
<path d="M1211.27 127.247L1258.27 168.263C1258.33 168.32 1258.38 168.387 1258.41 168.461C1258.44 168.535 1258.46 168.615 1258.46 168.695C1258.46 168.776 1258.44 168.856 1258.41 168.93C1258.38 169.004 1258.33 169.071 1258.27 169.127V169.127C1258.21 169.185 1258.14 169.231 1258.06 169.262C1257.98 169.293 1257.9 169.309 1257.81 169.309C1257.73 169.309 1257.64 169.293 1257.57 169.262C1257.49 169.231 1257.42 169.185 1257.36 169.127L1208.88 129.667C1208.71 129.523 1208.56 129.348 1208.46 129.152C1208.35 128.955 1208.29 128.741 1208.27 128.522C1208.26 128.302 1208.29 128.082 1208.36 127.873C1208.43 127.664 1208.55 127.471 1208.7 127.305V127.305C1208.86 127.129 1209.05 126.986 1209.27 126.887C1209.49 126.788 1209.73 126.733 1209.97 126.728C1210.22 126.723 1210.46 126.766 1210.68 126.855C1210.91 126.945 1211.11 127.078 1211.27 127.247V127.247Z" fill="url(#paint4_linear_3757_12157)"/>
<path style="mix-blend-mode:screen" d="M1228.85 142.945L1257.66 168.09C1257.72 168.163 1257.76 168.255 1257.76 168.35C1257.76 168.444 1257.72 168.536 1257.66 168.609V168.609C1257.58 168.678 1257.48 168.716 1257.37 168.716C1257.27 168.716 1257.16 168.678 1257.08 168.609L1227.39 144.443C1227.29 144.346 1227.21 144.232 1227.16 144.106C1227.1 143.98 1227.07 143.845 1227.07 143.708C1227.07 143.572 1227.1 143.437 1227.16 143.31C1227.21 143.184 1227.29 143.07 1227.39 142.974V142.974C1227.59 142.793 1227.84 142.69 1228.11 142.685C1228.38 142.679 1228.65 142.772 1228.85 142.945V142.945Z" fill="url(#paint5_linear_3757_12157)"/>
</g>
<g opacity="0.22">
<path d="M-16.7484 121.487L120.379 241.194C120.727 241.533 120.922 241.988 120.922 242.462C120.922 242.935 120.727 243.39 120.379 243.729V243.729C120.217 243.908 120.019 244.055 119.796 244.161C119.574 244.266 119.332 244.329 119.084 244.345C118.836 244.361 118.587 244.33 118.352 244.254C118.116 244.178 117.899 244.058 117.713 243.902L-23.6563 128.688C-24.1694 128.267 -24.5893 127.753 -24.8918 127.176C-25.1943 126.599 -25.3733 125.971 -25.4183 125.328C-25.4634 124.685 -25.3738 124.04 -25.1545 123.43C-24.9352 122.82 -24.5908 122.257 -24.1411 121.775V121.775C-23.6839 121.282 -23.1265 120.882 -22.5023 120.599C-21.8782 120.317 -21.2003 120.157 -20.5095 120.13C-19.8187 120.103 -19.1293 120.21 -18.4829 120.443C-17.8365 120.676 -17.2465 121.031 -16.7484 121.487Z" fill="url(#paint6_linear_3757_12157)"/>
<path style="mix-blend-mode:screen" d="M34.4843 167.285L118.53 240.648C118.741 240.857 118.859 241.136 118.859 241.426C118.859 241.715 118.741 241.994 118.53 242.203V242.203C118.31 242.404 118.017 242.516 117.712 242.516C117.407 242.516 117.114 242.404 116.894 242.203L30.2427 171.635C29.9149 171.385 29.6452 171.074 29.4507 170.721C29.2561 170.367 29.1409 169.979 29.1125 169.581C29.084 169.183 29.1428 168.783 29.2852 168.408C29.4276 168.033 29.6505 167.69 29.9397 167.401V167.401C30.2153 167.087 30.5581 166.832 30.9451 166.654C31.3322 166.476 31.7547 166.378 32.1846 166.367C32.6145 166.356 33.0419 166.433 33.4385 166.591C33.835 166.749 34.1915 166.986 34.4843 167.285Z" fill="url(#paint7_linear_3757_12157)"/>
</g>
<defs>
<linearGradient id="paint0_linear_3757_12157" x1="585.62" y1="344.064" x2="462.979" y2="229.49" gradientUnits="userSpaceOnUse">
<stop offset="0.01" stop-color="#FEA7AF"/>
<stop offset="0.99" stop-color="#EA47AC" stop-opacity="0"/>
</linearGradient>
<linearGradient id="paint1_linear_3757_12157" x1="583.966" y1="342.668" x2="508.819" y2="272.464" gradientUnits="userSpaceOnUse">
<stop offset="0.01" stop-color="#FEA7AF"/>
<stop offset="0.99" stop-color="#EA47AC" stop-opacity="0"/>
</linearGradient>
<linearGradient id="paint2_linear_3757_12157" x1="1348.85" y1="208.515" x2="1245.8" y2="112.235" gradientUnits="userSpaceOnUse">
<stop offset="0.01" stop-color="#FEA7AF"/>
<stop offset="0.99" stop-color="#EA47AC" stop-opacity="0"/>
</linearGradient>
<linearGradient id="paint3_linear_3757_12157" x1="1347.47" y1="207.349" x2="1284.31" y2="148.343" gradientUnits="userSpaceOnUse">
<stop offset="0.01" stop-color="#FEA7AF"/>
<stop offset="0.99" stop-color="#EA47AC" stop-opacity="0"/>
</linearGradient>
<linearGradient id="paint4_linear_3757_12157" x1="1258.43" y1="168.762" x2="1211.13" y2="124.574" gradientUnits="userSpaceOnUse">
<stop offset="0.01" stop-color="#FEA7AF"/>
<stop offset="0.99" stop-color="#EA47AC" stop-opacity="0"/>
</linearGradient>
<linearGradient id="paint5_linear_3757_12157" x1="1257.79" y1="168.226" x2="1228.8" y2="141.139" gradientUnits="userSpaceOnUse">
<stop offset="0.01" stop-color="#FEA7AF"/>
<stop offset="0.99" stop-color="#EA47AC" stop-opacity="0"/>
</linearGradient>
<linearGradient id="paint6_linear_3757_12157" x1="120.513" y1="243.515" x2="-17.4692" y2="114.608" gradientUnits="userSpaceOnUse">
<stop offset="0.01" stop-color="#FEA7AF"/>
<stop offset="0.99" stop-color="#EA47AC" stop-opacity="0"/>
</linearGradient>
<linearGradient id="paint7_linear_3757_12157" x1="118.655" y1="241.947" x2="34.0955" y2="162.949" gradientUnits="userSpaceOnUse">
<stop offset="0.01" stop-color="#FEA7AF"/>
<stop offset="0.99" stop-color="#EA47AC" stop-opacity="0"/>
</linearGradient>
</defs>
</svg>
